# Blender v3.2.0 OBJ File: 'Heihachi.blend'
# www.blender.org
mtllib Heihachi.mtl
o HEIHACHI
v 0.088210 1.155920 0.084496
v 0.100281 1.222774 0.082639
v 0.047355 1.219060 0.125351
v 0.086353 1.568187 0.165278
v 0.158778 1.583043 0.112352
v 0.131851 1.641540 0.045498
v 0.010214 1.388981 0.162492
v 0.000000 1.489262 0.156921
v -0.064997 1.493905 0.169921
v 0.025999 1.596043 0.080782
v -0.025999 1.596043 0.080782
v 0.000000 1.579329 0.084496
v -0.062211 1.696324 -0.095638
v -0.186634 1.598828 -0.124423
v -0.130922 1.653611 -0.014856
v 0.062212 1.696324 -0.095638
v 0.105852 1.707466 0.025999
v 0.130923 1.653611 -0.014856
v 0.023213 1.652683 -0.093781
v 0.000000 1.692610 -0.111423
v -0.023213 1.652683 -0.093781
v 0.083568 1.656397 0.000000
v -0.196848 1.621113 -0.018571
v -0.083567 1.656397 -0.000000
v -0.025999 1.628541 0.012071
v -0.077996 1.636898 0.036213
v -0.092853 1.636898 0.142993
v -0.075211 1.612756 0.088210
v -0.047355 1.219060 0.125351
v -0.100281 1.222774 0.082639
v -0.088210 1.155920 0.084496
v 0.173635 1.443764 -0.029713
v 0.177349 1.443764 0.038070
v 0.160635 1.375053 0.041784
v -0.160635 1.375053 0.041784
v -0.138351 1.408480 0.119780
v -0.177349 1.443764 0.038070
v 0.138351 1.408480 0.119780
v -0.129065 1.230203 0.025070
v -0.102138 1.156849 -0.058497
v -0.127208 1.475334 0.161564
v -0.220061 1.499476 0.076139
v 0.220061 1.499476 0.076139
v 0.127208 1.475334 0.161564
v 0.102138 1.156849 -0.058497
v 0.129065 1.230202 0.025070
v -0.074282 1.488333 0.182920
v -0.135565 1.233917 -0.013928
v -0.124423 1.232988 -0.051069
v 0.124423 1.232988 -0.051069
v 0.135565 1.233917 -0.013928
v 0.208919 1.500404 -0.114209
v 0.159707 1.427979 -0.082639
v 0.073354 1.398266 -0.114209
v -0.073354 1.398266 -0.114209
v -0.166207 1.427979 -0.073354
v -0.208919 1.500404 -0.114209
v 0.186634 1.598828 -0.124423
v 0.082639 1.562616 -0.159707
v 0.074282 1.488333 -0.157850
v 0.000000 1.448407 -0.145779
v 0.000000 1.315627 -0.110495
v 0.077996 1.235774 -0.085425
v -0.082639 1.562616 -0.159707
v -0.077996 1.235774 -0.085425
v -0.074282 1.488333 -0.157850
v 0.196848 1.621113 -0.018571
v 0.000000 1.544974 -0.142993
v 0.064997 1.493904 0.169921
v 0.198705 1.600685 0.057569
v -0.198705 1.600685 0.057569
v -0.158778 1.583043 0.112352
v -0.130922 1.641541 0.045498
v 0.106781 1.687967 0.086353
v 0.078925 1.636898 0.036213
v 0.092853 1.636898 0.142993
v -0.106781 1.687967 0.086353
v -0.105852 1.707466 0.025999
v 0.075211 1.612756 0.088210
v -0.086353 1.568187 0.165278
v -0.070568 1.403837 0.159707
v 0.070568 1.403837 0.159707
v 0.074282 1.488333 0.182920
v 0.025999 1.628541 0.012071
v -0.082639 1.305413 -0.117923
v 0.082639 1.305413 -0.117923
v -0.181063 1.443764 -0.029713
v 0.139279 1.323055 0.110495
v 0.060354 1.334198 0.159707
v 0.000000 1.345340 0.158778
v -0.000000 1.219060 0.122566
v 0.070568 1.558901 0.130922
v 0.000000 1.549616 0.119780
v -0.000000 1.155920 0.081710
v -0.060354 1.334198 0.159707
v -0.070568 1.558901 0.130922
v -0.139279 1.323055 0.110495
v -0.155993 1.309127 -0.081711
v -0.169921 1.312842 -0.018571
v -0.160635 1.319341 0.043641
v 0.155993 1.309127 -0.081710
v 0.169921 1.312842 -0.018571
v -0.221918 1.507833 -0.025999
v 0.221918 1.507833 -0.025999
v 0.160635 1.319341 0.043641
v -0.000000 1.156849 -0.058497
v 0.000000 1.232059 -0.077996
v 0.064068 1.707466 0.036213
v 0.044569 1.681467 0.093781
v 0.036213 1.687039 0.055712
v 0.064068 1.728822 0.048283
v 0.043641 1.713966 0.100281
v 0.044569 1.697252 0.099353
v 0.070568 1.794748 0.049212
v 0.053855 1.758535 0.107709
v 0.051998 1.780820 0.104924
v 0.021356 1.875530 0.093781
v 0.028784 1.841174 0.119780
v 0.053855 1.871816 0.065926
v 0.013928 1.696324 0.123494
v 0.012071 1.717680 0.131851
v 0.045498 1.735322 0.104924
v 0.014856 1.741822 0.124423
v -0.009285 1.773392 0.124423
v -0.012071 1.782677 0.135565
v -0.047355 1.793819 0.126280
v -0.036213 1.814247 0.122566
v 0.204276 1.975811 -0.052926
v 0.059426 1.829103 0.076139
v -0.070568 1.794748 0.049212
v -0.051998 1.780820 0.104924
v -0.053855 1.871816 0.065926
v -0.028784 1.841174 0.119780
v -0.021356 1.875530 0.093781
v -0.064068 1.707466 0.036213
v -0.064068 1.728822 0.048283
v -0.068711 1.742750 0.012999
v -0.062211 1.811461 -0.054783
v -0.075211 1.792891 0.012071
v -0.205205 1.975811 -0.052926
v 0.009285 1.773392 0.124423
v 0.047355 1.793819 0.126280
v -0.053855 1.758535 0.107709
v 0.000000 1.734393 0.148565
v 0.005571 1.740893 0.151350
v -0.005571 1.740893 0.151350
v 0.012071 1.782677 0.135565
v 0.000000 1.773392 0.133708
v -0.045498 1.735322 0.104924
v -0.043641 1.713966 0.100281
v -0.014856 1.741822 0.124423
v 0.006500 1.729751 0.130922
v -0.013928 1.717680 0.132780
v 0.019499 1.683324 0.128137
v 0.013928 1.661040 0.119780
v -0.044569 1.697252 0.099353
v -0.094710 1.774320 0.022285
v -0.013928 1.696324 0.123494
v -0.006500 1.729751 0.130922
v -0.036213 1.687039 0.055712
v -0.044569 1.681467 0.093781
v -0.013928 1.661040 0.119780
v -0.019499 1.683324 0.128137
v -0.000000 1.661968 0.072425
v 0.000000 1.872744 -0.046426
v -0.044569 1.885743 -0.024142
v -0.018571 1.892243 0.003714
v 0.018571 1.892243 0.003714
v 0.044569 1.885743 -0.024142
v 0.036213 1.814247 0.122566
v -0.059426 1.829103 0.076139
v 0.094710 1.774320 0.022285
v 0.068711 1.742750 0.012999
v 0.075211 1.792891 0.012071
v 0.062211 1.811461 -0.054783
v 0.039927 1.841174 -0.051069
v -0.039927 1.841174 -0.051069
v 0.000000 1.739965 -0.066854
v -0.064068 1.738107 -0.048283
v -0.063140 1.765963 -0.060354
v 0.000000 1.767820 -0.077996
v 0.000000 1.814247 -0.076139
v 0.000000 1.843031 -0.068711
v 0.064068 1.738107 -0.048283
v 0.063140 1.765963 -0.060354
v 0.078925 1.598828 0.026927
v 0.053855 1.596971 0.046426
v -0.000000 1.596971 0.066854
v -0.053855 1.596971 0.046426
v -0.078925 1.598828 0.026927
v -0.093781 1.609971 -0.073354
v -0.000000 1.613685 -0.093781
v 0.093781 1.609971 -0.073354
v -0.032499 1.560759 0.008357
v -0.017642 1.560759 0.024142
v -0.000000 1.560759 0.038998
v 0.017642 1.560759 0.024142
v 0.032498 1.560759 0.008357
v 0.035284 1.561687 -0.060354
v -0.000000 1.561687 -0.072425
v -0.035284 1.561687 -0.060354
v 0.312914 1.609042 0.035284
v 0.272059 1.620184 0.027856
v 0.239560 1.525475 0.097495
v 0.242346 1.519903 -0.127208
v 0.272059 1.620184 -0.055712
v 0.312914 1.605328 -0.057569
v 0.171778 1.590472 0.071497
v 0.189420 1.516189 0.091924
v 0.242346 1.506904 -0.116066
v 0.298986 1.574687 -0.056640
v 0.320342 1.503190 -0.057569
v 0.229347 1.629470 -0.055712
v 0.171778 1.590472 -0.095638
v 0.150422 1.606256 -0.058497
v 0.150422 1.514332 -0.055712
v 0.182920 1.502261 -0.111423
v 0.175492 1.437264 -0.034356
v 0.150422 1.606256 0.032498
v 0.229347 1.629470 0.032498
v 0.175492 1.437264 0.032498
v 0.150422 1.514332 0.041784
v 0.237703 1.427979 -0.089139
v 0.237703 1.437264 0.077068
v 0.242346 1.511546 0.085425
v 0.320342 1.507833 0.032499
v 0.298986 1.573758 0.037141
v 0.237703 1.261773 -0.068711
v 0.294343 1.261772 -0.032498
v 0.272987 1.229274 -0.025999
v 0.237703 1.229274 -0.049212
v 0.237703 1.354625 -0.098424
v 0.312914 1.363911 -0.049212
v 0.189420 1.261773 -0.034356
v 0.208919 1.229274 -0.028784
v 0.312914 1.363911 0.034356
v 0.302700 1.444692 -0.045498
v 0.302700 1.444692 0.027856
v 0.294343 1.261772 0.021356
v 0.164349 1.345340 -0.044569
v 0.272987 1.229274 0.018571
v 0.237703 1.261773 0.064997
v 0.237703 1.229274 0.050141
v 0.237703 1.354625 0.088210
v 0.164349 1.345340 0.038998
v 0.189420 1.261773 0.030641
v 0.208919 1.229274 0.028784
v 0.293415 1.224083 0.024142
v 0.293415 1.224083 -0.022285
v 0.271130 1.258439 -0.014856
v 0.271130 1.258439 0.016714
v 0.236775 1.224083 -0.059426
v 0.236775 1.258439 -0.044569
v 0.183849 1.224083 -0.022285
v 0.183849 1.224083 0.024142
v 0.200562 1.258439 0.016714
v 0.200562 1.258439 -0.014856
v 0.236775 1.224083 0.061283
v 0.236775 1.258439 0.046426
v 0.195919 0.965953 0.019499
v 0.195919 0.965953 -0.012999
v 0.203348 0.942739 -0.007428
v 0.203348 0.942739 0.013928
v 0.236775 1.275152 0.019499
v 0.252560 1.275152 0.005571
v 0.252560 1.275152 -0.003714
v 0.236775 1.275152 -0.016714
v 0.220990 1.275152 -0.003714
v 0.220990 1.275152 0.005571
v 0.232132 0.965953 0.050141
v 0.232132 0.942739 0.037141
v 0.306414 1.153515 0.027856
v 0.306414 1.153515 -0.029713
v 0.235846 1.153515 -0.077996
v 0.174563 1.153515 -0.029713
v 0.174563 1.153515 0.027856
v 0.235846 1.153515 0.076139
v 0.237703 1.046734 0.054783
v 0.283201 1.046734 0.016714
v 0.283201 1.045806 -0.024142
v 0.237703 1.045806 -0.062211
v 0.190348 1.045806 -0.024142
v 0.190348 1.046734 0.016714
v 0.265559 0.965953 0.019499
v 0.265559 0.965953 -0.012999
v 0.232132 0.965953 -0.043641
v 0.257202 0.942739 0.013928
v 0.257202 0.942739 -0.007428
v 0.232132 0.941811 -0.029713
v 0.241417 0.876814 0.077996
v 0.228418 0.830387 0.070568
v 0.279487 0.848029 0.072425
v 0.213562 0.965953 0.008357
v 0.225632 0.963167 0.049212
v 0.260917 0.965024 0.042712
v 0.222847 0.882385 0.006500
v 0.223775 0.829459 -0.055712
v 0.216347 0.793246 -0.040855
v 0.192205 0.823888 -0.051069
v 0.210776 0.794175 0.057569
v 0.218204 0.830387 0.068711
v 0.186634 0.824816 0.061283
v 0.220061 0.914883 0.092853
v 0.210776 0.870314 0.091924
v 0.189420 0.907455 0.087282
v 0.200562 0.939025 0.057569
v 0.192205 0.897241 0.048283
v 0.196848 0.857315 0.090996
v 0.173635 0.874028 0.079853
v 0.181063 0.889813 0.087282
v 0.175492 0.846172 0.020428
v 0.285987 0.847101 -0.049212
v 0.234918 0.829459 -0.053855
v 0.224704 0.874957 -0.054783
v 0.185706 0.855458 0.010214
v 0.264631 0.964095 -0.041784
v 0.216347 0.965953 -0.042712
v 0.229346 0.794175 0.059426
v 0.269273 0.815531 0.060354
v 0.273916 0.814602 -0.038998
v 0.234918 0.793246 -0.039927
v 0.196848 0.947382 0.023213
v 0.192205 0.900027 0.027856
v 0.216347 0.864743 0.069640
v 0.222847 0.863814 -0.054783
v 0.195919 0.863814 -0.050141
v 0.190348 0.864743 0.061283
v 0.171778 0.871243 0.012999
v 0.163421 0.859172 0.024142
v -0.239560 1.526403 0.097495
v -0.272059 1.621113 0.027856
v -0.312914 1.609971 0.035284
v -0.312914 1.606256 -0.057569
v -0.272059 1.621113 -0.055712
v -0.242346 1.520832 -0.127208
v -0.189420 1.517118 0.091924
v -0.171778 1.591400 0.071497
v -0.320342 1.503190 -0.057569
v -0.298986 1.575615 -0.056640
v -0.242346 1.506904 -0.116066
v -0.150422 1.607185 -0.058497
v -0.171778 1.591400 -0.095638
v -0.229346 1.630398 -0.055712
v -0.175492 1.438193 -0.034356
v -0.182920 1.503190 -0.111423
v -0.150422 1.515261 -0.055712
v -0.229347 1.630398 0.032498
v -0.150422 1.607185 0.032498
v -0.150422 1.515261 0.041784
v -0.175492 1.438193 0.032498
v -0.237703 1.428908 -0.089139
v -0.242346 1.512475 0.085425
v -0.237703 1.438193 0.077068
v -0.298986 1.574687 0.037141
v -0.320342 1.508761 0.032498
v -0.294344 1.262701 -0.032498
v -0.237703 1.262701 -0.068711
v -0.237703 1.230203 -0.049212
v -0.272987 1.230203 -0.025999
v -0.312914 1.364839 -0.049212
v -0.237703 1.355554 -0.098424
v -0.189420 1.262701 -0.034356
v -0.208919 1.230203 -0.028784
v -0.312914 1.364839 0.034356
v -0.302700 1.445621 0.027856
v -0.302700 1.445621 -0.045498
v -0.294344 1.262701 0.021356
v -0.164350 1.346269 -0.044569
v -0.272987 1.230203 0.018571
v -0.237703 1.262701 0.064997
v -0.237703 1.230203 0.050141
v -0.237703 1.355554 0.088210
v -0.164350 1.346269 0.038998
v -0.189420 1.262701 0.030641
v -0.208919 1.230203 0.028784
v -0.293415 1.224083 -0.022285
v -0.293415 1.224083 0.024142
v -0.271130 1.258439 0.016714
v -0.271130 1.258439 -0.014856
v -0.236775 1.224083 -0.059426
v -0.236775 1.258439 -0.044569
v -0.183849 1.224083 0.024142
v -0.183849 1.224083 -0.022285
v -0.200562 1.258439 -0.014856
v -0.200562 1.258439 0.016714
v -0.236775 1.224083 0.061283
v -0.236775 1.258439 0.046426
v -0.195920 0.965953 -0.012999
v -0.195920 0.965953 0.019499
v -0.203348 0.942739 0.013928
v -0.203348 0.942739 -0.007428
v -0.236775 1.275152 -0.016714
v -0.252560 1.275152 -0.003714
v -0.252560 1.275152 0.005571
v -0.236775 1.275152 0.019499
v -0.220990 1.275152 0.005571
v -0.220990 1.275152 -0.003714
v -0.232132 0.965953 0.050141
v -0.232132 0.942739 0.037141
v -0.306414 1.153515 -0.029713
v -0.306414 1.153515 0.027856
v -0.235846 1.153515 -0.077996
v -0.174563 1.153515 0.027856
v -0.174563 1.153515 -0.029713
v -0.235846 1.153515 0.076139
v -0.283201 1.046734 0.016714
v -0.237703 1.046734 0.054783
v -0.237703 1.045806 -0.062211
v -0.283201 1.045806 -0.024142
v -0.190348 1.045806 -0.024142
v -0.190348 1.046734 0.016714
v -0.265559 0.965953 0.019499
v -0.232132 0.965953 -0.043641
v -0.265559 0.965953 -0.012999
v -0.257202 0.942739 0.013928
v -0.232132 0.941811 -0.029713
v -0.257202 0.942739 -0.007428
v -0.279487 0.848029 0.072425
v -0.228418 0.830387 0.070568
v -0.241417 0.876814 0.077996
v -0.260917 0.965024 0.042712
v -0.225632 0.963167 0.049212
v -0.213562 0.965953 0.008357
v -0.222847 0.882385 0.006500
v -0.192205 0.823888 -0.051069
v -0.216347 0.793246 -0.040855
v -0.223775 0.829459 -0.055712
v -0.186634 0.824816 0.061283
v -0.218204 0.830387 0.068711
v -0.210776 0.794175 0.057569
v -0.210776 0.870314 0.091924
v -0.220061 0.914883 0.092853
v -0.192205 0.897241 0.048283
v -0.200562 0.939025 0.057569
v -0.189420 0.907455 0.087282
v -0.196848 0.857315 0.090996
v -0.181063 0.889813 0.087282
v -0.173635 0.874028 0.079853
v -0.175492 0.846172 0.020428
v -0.224704 0.874957 -0.054783
v -0.234918 0.829459 -0.053855
v -0.285987 0.847101 -0.049212
v -0.185706 0.855458 0.010214
v -0.264631 0.964095 -0.041784
v -0.216347 0.965953 -0.042712
v -0.269273 0.815531 0.060354
v -0.229347 0.794175 0.059426
v -0.273916 0.814602 -0.038998
v -0.234918 0.793246 -0.039927
v -0.196848 0.947382 0.023213
v -0.192205 0.900027 0.027856
v -0.222847 0.863814 -0.054783
v -0.216347 0.864743 0.069640
v -0.190348 0.864743 0.061283
v -0.195920 0.863814 -0.050141
v -0.171778 0.871243 0.012999
v -0.163421 0.859172 0.024142
v 0.036213 0.900575 0.108638
v 0.025999 0.894075 0.144850
v -0.000000 0.891290 0.149493
v -0.025999 0.894075 0.144850
v -0.036213 0.900575 0.108638
v -0.087282 1.076067 0.145779
v -0.123494 1.161491 0.105852
v -0.098424 1.081638 0.113280
v 0.098424 1.081638 0.113280
v 0.123494 1.161491 0.105852
v 0.087282 1.076067 0.145779
v -0.000000 1.077924 0.132780
v 0.027856 0.931216 0.059426
v -0.151350 1.091852 0.071497
v -0.027856 0.931216 0.059426
v 0.151350 1.091852 0.071497
v -0.000000 0.912646 -0.148565
v -0.170849 0.879219 -0.131851
v -0.000000 0.923788 -0.192205
v -0.103995 1.271986 0.074282
v 0.000000 1.257130 0.104924
v 0.103995 1.271986 0.074282
v 0.099353 1.282200 -0.015785
v 0.000000 1.279415 -0.043641
v -0.099353 1.282200 -0.015785
v 0.170849 0.879219 -0.131851
v 0.057569 0.990642 -0.126280
v -0.048284 0.990642 -0.126280
v 0.000000 1.251559 -0.096567
v 0.000000 1.196775 -0.098424
v -0.133708 1.188419 -0.084496
v -0.131851 1.241345 -0.082639
v 0.126280 1.241345 -0.082639
v 0.133708 1.188419 -0.084496
v -0.000000 1.072353 0.161564
v 0.116995 1.217203 0.105852
v -0.000000 1.205132 0.140208
v -0.000000 1.152206 0.142993
v -0.116995 1.217203 0.105852
v -0.000000 1.128064 -0.143922
v 0.159707 1.115993 -0.099353
v -0.159707 1.115994 -0.099353
v 0.151350 1.228345 0.028784
v 0.155064 1.175419 0.024142
v -0.155064 1.175419 0.024142
v -0.181063 1.102066 -0.006500
v -0.052926 0.947930 -0.027856
v 0.060354 0.947930 -0.027856
v 0.181063 1.102066 -0.006500
v -0.151350 1.228345 0.028784
v -0.110495 1.278486 0.043641
v 0.110495 1.278486 0.043641
v 0.155064 0.655059 -0.050406
v 0.155064 0.651345 0.032233
v 0.119780 0.603062 0.009020
v 0.119780 0.604919 -0.033693
v -0.017642 1.024614 0.065660
v 0.081710 1.021828 0.128800
v 0.079853 1.104467 0.066589
v 0.030641 1.106324 0.036876
v 0.075211 0.649488 0.076802
v 0.075211 0.601205 0.034090
v -0.017642 1.030185 -0.054120
v 0.030641 1.109110 -0.016050
v 0.081711 1.032970 -0.118189
v 0.079853 1.110038 -0.045763
v 0.075211 0.656916 -0.094975
v 0.075211 0.605847 -0.058763
v 0.175492 1.030185 -0.054120
v 0.123494 1.109110 -0.016050
v -0.009285 0.651345 0.032233
v -0.009285 0.655059 -0.050406
v 0.026927 0.604919 -0.033693
v 0.026927 0.603062 0.009020
v 0.175492 1.024614 0.065660
v 0.123494 1.106324 0.036876
v -0.024142 0.880692 0.072160
v 0.090996 0.877906 0.140871
v 0.090996 0.889977 -0.135831
v -0.024142 0.887192 -0.066191
v 0.197777 0.887192 -0.066191
v 0.197776 0.880692 0.072160
v -0.015785 0.767411 0.067517
v 0.083567 0.764626 0.129728
v 0.083568 0.775768 -0.126545
v -0.015785 0.772983 -0.064334
v 0.181992 0.772982 -0.064334
v 0.181992 0.767411 0.067517
v 0.175492 0.154038 0.058497
v 0.086353 0.183751 0.115138
v -0.018571 0.154038 0.058497
v 0.182920 0.082541 -0.091924
v -0.024142 0.082541 -0.091924
v 0.086353 0.068613 -0.168992
v -0.002786 0.612731 0.036213
v 0.077996 0.614588 0.078925
v 0.071497 0.677728 0.038998
v 0.030641 0.658229 0.016714
v 0.071497 0.674942 -0.067783
v 0.030641 0.656372 -0.045498
v -0.002786 0.610874 -0.061283
v 0.077996 0.609946 -0.114209
v 0.152279 0.610874 -0.064997
v 0.118852 0.656372 -0.045498
v 0.118852 0.658229 0.016714
v 0.152279 0.612731 0.036213
v -0.008357 0.531021 0.026927
v 0.074282 0.518021 0.073354
v -0.008357 0.541234 -0.081711
v 0.074282 0.544949 -0.136494
v 0.155993 0.541234 -0.081710
v 0.155993 0.531021 0.026927
v -0.011142 0.407526 0.024142
v 0.078925 0.409383 0.079853
v 0.078925 0.387099 -0.155064
v -0.011142 0.394527 -0.094710
v 0.175492 0.394527 -0.094710
v 0.175492 0.407526 0.034356
v -0.004643 0.205107 0.049212
v 0.066854 0.239463 0.090067
v 0.067782 0.121540 -0.139279
v -0.007428 0.146610 -0.078925
v 0.162492 0.146610 -0.078925
v 0.156921 0.205107 0.049212
v 0.084496 0.047257 -0.082639
v 0.136494 -0.000098 -0.044569
v 0.030641 -0.000098 -0.028784
v 0.066854 0.084398 0.128137
v 0.024142 0.056543 0.122566
v 0.044569 0.043543 0.209847
v 0.122566 0.043543 0.197777
v 0.150422 0.063042 0.116995
v 0.121637 0.099255 -0.035284
v 0.036213 0.099255 -0.029713
v 0.124423 -0.000098 0.207990
v 0.038998 -0.000098 0.220061
v 0.040855 0.112254 0.060354
v 0.074282 0.133610 0.067783
v 0.074282 0.200465 0.030641
v 0.045498 0.200465 0.013928
v 0.045498 0.195822 -0.021356
v 0.123494 0.123397 0.039927
v 0.103067 0.200465 0.013928
v 0.036213 0.010116 0.076139
v 0.139279 -0.000098 0.055712
v 0.101210 0.195822 -0.020428
v 0.074282 0.195822 -0.043641
v 0.014856 -0.000098 0.135565
v 0.154136 -0.000098 0.129994
v -0.155064 0.651345 0.032233
v -0.155064 0.655059 -0.050406
v -0.119780 0.604919 -0.033693
v -0.119780 0.603062 0.009020
v -0.081711 1.021828 0.128800
v 0.017642 1.024614 0.065660
v -0.030641 1.106324 0.036876
v -0.079853 1.104467 0.066589
v -0.075211 0.649488 0.076802
v -0.075211 0.601205 0.034090
v 0.017642 1.030185 -0.054120
v -0.030641 1.109110 -0.016050
v -0.081710 1.032970 -0.118189
v -0.079853 1.110038 -0.045763
v -0.075211 0.656916 -0.094975
v -0.075211 0.605847 -0.058763
v -0.175492 1.030185 -0.054120
v -0.123494 1.109110 -0.016050
v 0.009285 0.655059 -0.050406
v 0.009285 0.651345 0.032233
v -0.026927 0.603062 0.009020
v -0.026927 0.604919 -0.033693
v -0.175492 1.024614 0.065660
v -0.123494 1.106324 0.036876
v -0.090996 0.877906 0.140871
v 0.024142 0.880692 0.072160
v 0.024142 0.887192 -0.066191
v -0.090996 0.889977 -0.135831
v -0.197777 0.887192 -0.066191
v -0.197777 0.880692 0.072160
v -0.083568 0.764626 0.129728
v 0.015785 0.767411 0.067517
v 0.015785 0.772982 -0.064334
v -0.083568 0.775768 -0.126545
v -0.181992 0.772983 -0.064334
v -0.181992 0.767411 0.067517
v 0.018570 0.154038 0.058497
v -0.086353 0.183751 0.115138
v -0.175492 0.154038 0.058497
v -0.086353 0.068613 -0.168992
v 0.024142 0.082541 -0.091924
v -0.182920 0.082541 -0.091924
v -0.077996 0.614588 0.078925
v 0.002786 0.612731 0.036213
v -0.030641 0.658229 0.016714
v -0.071497 0.677728 0.038998
v -0.030641 0.656372 -0.045498
v -0.071497 0.674942 -0.067783
v 0.002786 0.610874 -0.061283
v -0.077996 0.609946 -0.114209
v -0.152279 0.610874 -0.064997
v -0.118852 0.656372 -0.045498
v -0.118852 0.658229 0.016714
v -0.152279 0.612731 0.036213
v -0.074282 0.518021 0.073354
v 0.008357 0.531021 0.026927
v 0.008357 0.541234 -0.081710
v -0.074282 0.544949 -0.136494
v -0.155993 0.541234 -0.081711
v -0.155993 0.531021 0.026927
v -0.078925 0.409383 0.079853
v 0.011142 0.407526 0.024142
v 0.011142 0.394527 -0.094710
v -0.078925 0.387099 -0.155064
v -0.175492 0.394527 -0.094710
v -0.175492 0.407526 0.034356
v -0.066854 0.239463 0.090067
v 0.004643 0.205107 0.049212
v 0.007428 0.146610 -0.078925
v -0.067783 0.121540 -0.139279
v -0.162493 0.146610 -0.078925
v -0.156921 0.205107 0.049212
v -0.030641 -0.000098 -0.028784
v -0.136494 -0.000098 -0.044569
v -0.084496 0.047257 -0.082639
v -0.044569 0.043543 0.209847
v -0.024142 0.056543 0.122566
v -0.066854 0.084398 0.128137
v -0.122566 0.043543 0.197777
v -0.150422 0.063042 0.116995
v -0.121637 0.099255 -0.035284
v -0.036213 0.099255 -0.029713
v -0.038998 -0.000098 0.220061
v -0.124423 -0.000098 0.207990
v -0.045498 0.200465 0.013928
v -0.074282 0.200465 0.030641
v -0.074282 0.133610 0.067783
v -0.040855 0.112254 0.060354
v -0.045498 0.195822 -0.021356
v -0.123494 0.123397 0.039927
v -0.103067 0.200465 0.013928
v -0.036213 0.010116 0.076139
v -0.139279 -0.000098 0.055712
v -0.101210 0.195822 -0.020428
v -0.074282 0.195822 -0.043641
v -0.014857 -0.000098 0.135565
v -0.154136 -0.000098 0.129994
v 0.027856 1.209051 0.144632
v -0.027856 1.209051 0.144632
v -0.027856 1.088838 0.168527
v 0.027856 1.088838 0.168527
v -0.027856 1.208146 0.140079
v 0.027856 1.208146 0.140079
v 0.027856 1.087932 0.163974
v -0.027856 1.087932 0.163974
vt 0.065104 0.390625
vt 0.067708 0.474609
vt 0.053385 0.470703
vt 0.055990 0.345703
vt 0.069010 0.349609
vt 0.063802 0.361328
vt 0.127604 0.398438
vt 0.122396 0.433594
vt 0.096354 0.435547
vt 0.134115 0.472656
vt 0.111979 0.472656
vt 0.122396 0.466797
vt 0.028646 0.373047
vt 0.005208 0.351562
vt 0.015625 0.363281
vt 0.050781 0.373047
vt 0.058594 0.375000
vt 0.063802 0.363281
vt 0.127604 0.363281
vt 0.123698 0.373047
vt 0.118490 0.363281
vt 0.138021 0.365234
vt 0.134115 0.373047
vt 0.003906 0.357422
vt 0.089844 0.494141
vt 0.111979 0.484375
vt 0.113281 0.492188
vt 0.024740 0.361328
vt 0.022135 0.361328
vt 0.026042 0.355469
vt 0.026042 0.470703
vt 0.011719 0.474609
vt 0.014323 0.390625
vt 0.071615 0.318359
vt 0.071615 0.318359
vt 0.069010 0.302734
vt 0.010417 0.302734
vt 0.014323 0.310547
vt 0.007812 0.318359
vt 0.065104 0.310547
vt 0.002604 0.484375
vt 0.010417 0.392578
vt 0.016927 0.324219
vt 0.000000 0.330078
vt 0.079427 0.330078
vt 0.062500 0.324219
vt 0.069010 0.392578
vt 0.076823 0.484375
vt 0.041667 0.306641
vt 0.027344 0.330078
vt 0.026042 0.328125
vt 0.001302 0.488281
vt 0.003906 0.488281
vt 0.075521 0.488281
vt 0.078125 0.488281
vt 0.161458 0.330078
vt 0.152344 0.314453
vt 0.136719 0.308594
vt 0.109375 0.308594
vt 0.092448 0.314453
vt 0.084635 0.330078
vt 0.157552 0.351562
vt 0.138021 0.343750
vt 0.136719 0.328125
vt 0.122396 0.318359
vt 0.123698 0.291016
vt 0.062500 0.492188
vt 0.108073 0.343750
vt 0.111979 0.373047
vt 0.088542 0.351562
vt 0.016927 0.492188
vt 0.109375 0.328125
vt 0.075521 0.357422
vt 0.074219 0.351562
vt 0.122396 0.339844
vt 0.149740 0.435547
vt 0.075521 0.353516
vt 0.003906 0.353516
vt 0.010417 0.349609
vt 0.015625 0.361328
vt 0.054688 0.365234
vt 0.058594 0.371094
vt 0.053385 0.361328
vt 0.057292 0.361328
vt 0.020833 0.371094
vt 0.020833 0.375000
vt 0.024740 0.365234
vt 0.053385 0.355469
vt 0.023438 0.345703
vt 0.027344 0.308594
vt 0.052083 0.308594
vt 0.053385 0.328125
vt 0.052083 0.330078
vt 0.132812 0.492188
vt 0.134115 0.484375
vt 0.156250 0.494141
vt 0.108073 0.365234
vt 0.108073 0.287109
vt 0.138021 0.287109
vt 0.006510 0.318359
vt 0.065104 0.291016
vt 0.050781 0.294922
vt 0.048177 0.269531
vt 0.057292 0.269531
vt 0.040365 0.296875
vt 0.040365 0.269531
vt 0.152344 0.458984
vt 0.122396 0.457031
vt 0.052083 0.343750
vt 0.040365 0.390625
vt 0.040365 0.470703
vt 0.028646 0.294922
vt 0.031250 0.269531
vt 0.027344 0.343750
vt 0.014323 0.291016
vt 0.020833 0.269531
vt 0.154948 0.488281
vt 0.153646 0.478516
vt 0.091146 0.488281
vt 0.011719 0.289062
vt 0.009115 0.289062
vt 0.009115 0.314453
vt 0.010417 0.291016
vt 0.067708 0.289062
vt 0.070312 0.289062
vt 0.063802 0.271484
vt 0.062500 0.271484
vt 0.000000 0.332031
vt 0.001302 0.330078
vt 0.080729 0.332031
vt 0.015625 0.271484
vt 0.016927 0.271484
vt 0.015625 0.271484
vt 0.069010 0.291016
vt 0.062500 0.271484
vt 0.151042 0.289062
vt 0.095052 0.289062
vt 0.108073 0.273438
vt 0.100260 0.271484
vt 0.040365 0.392578
vt 0.040365 0.486328
vt 0.145833 0.271484
vt 0.136719 0.273438
vt 0.123698 0.271484
vt 0.069010 0.314453
vt 0.078125 0.330078
vt 0.092448 0.478516
vt 0.093750 0.458984
vt 0.404948 0.404297
vt 0.394531 0.392578
vt 0.390625 0.394531
vt 0.404948 0.416016
vt 0.394531 0.408203
vt 0.395833 0.400391
vt 0.407552 0.449219
vt 0.399740 0.431641
vt 0.398438 0.443359
vt 0.384115 0.492188
vt 0.388021 0.474609
vt 0.399740 0.490234
vt 0.380208 0.400391
vt 0.378906 0.410156
vt 0.395833 0.419922
vt 0.380208 0.423828
vt 0.368490 0.439453
vt 0.367188 0.443359
vt 0.350260 0.449219
vt 0.355469 0.458984
vt 0.394531 0.375000
vt 0.342448 0.345703
vt 0.338542 0.333984
vt 0.338542 0.449219
vt 0.347656 0.443359
vt 0.346354 0.490234
vt 0.359375 0.474609
vt 0.361979 0.492188
vt 0.355469 0.298828
vt 0.350260 0.304688
vt 0.365885 0.308594
vt 0.395833 0.328125
vt 0.365885 0.322266
vt 0.394531 0.375000
vt 0.377604 0.439453
vt 0.397135 0.449219
vt 0.346354 0.431641
vt 0.341146 0.416016
vt 0.373698 0.419922
vt 0.376302 0.421875
vt 0.369792 0.421875
vt 0.378906 0.443359
vt 0.373698 0.439453
vt 0.350260 0.419922
vt 0.351562 0.408203
vt 0.365885 0.423828
vt 0.376302 0.416016
vt 0.365885 0.410156
vt 0.382812 0.392578
vt 0.380208 0.380859
vt 0.351562 0.400391
vt 0.361979 0.316406
vt 0.350260 0.324219
vt 0.365885 0.400391
vt 0.369792 0.416016
vt 0.355469 0.394531
vt 0.351562 0.392578
vt 0.342448 0.404297
vt 0.365885 0.380859
vt 0.363281 0.392578
vt 0.373698 0.380859
vt 0.373698 0.490234
vt 0.351562 0.496094
vt 0.363281 0.500000
vt 0.382812 0.500000
vt 0.394531 0.496094
vt 0.402344 0.468750
vt 0.390625 0.458984
vt 0.343750 0.468750
vt 0.361979 0.316406
vt 0.365885 0.308594
vt 0.365885 0.322266
vt 0.350260 0.324219
vt 0.350260 0.304688
vt 0.355469 0.298828
vt 0.338542 0.333984
vt 0.342448 0.345703
vt 0.395833 0.328125
vt 0.381510 0.349609
vt 0.393229 0.335938
vt 0.381510 0.349609
vt 0.393229 0.335938
vt 0.401042 0.306641
vt 0.391927 0.306641
vt 0.397135 0.314453
vt 0.404948 0.316406
vt 0.404948 0.328125
vt 0.401042 0.337891
vt 0.391927 0.306641
vt 0.397135 0.314453
vt 0.359375 0.265625
vt 0.346354 0.291016
vt 0.350260 0.265625
vt 0.339844 0.285156
vt 0.342448 0.265625
vt 0.350260 0.265625
vt 0.346354 0.291016
vt 0.359375 0.265625
vt 0.403646 0.269531
vt 0.412760 0.269531
vt 0.403646 0.269531
vt 0.367188 0.255859
vt 0.360677 0.255859
vt 0.354167 0.253906
vt 0.360677 0.255859
vt 0.367188 0.255859
vt 0.398438 0.255859
vt 0.402344 0.255859
vt 0.398438 0.255859
vt 0.391927 0.345703
vt 0.483073 0.492188
vt 0.468750 0.496094
vt 0.458333 0.462891
vt 0.459635 0.460938
vt 0.468750 0.496094
vt 0.483073 0.492188
vt 0.436198 0.486328
vt 0.441406 0.458984
vt 0.621094 0.794922
vt 0.610677 0.802734
vt 0.610677 0.792969
vt 0.455729 0.500000
vt 0.436198 0.486328
vt 0.428385 0.492188
vt 0.428385 0.458984
vt 0.440104 0.455078
vt 0.437500 0.431641
vt 0.428385 0.492188
vt 0.455729 0.500000
vt 0.437500 0.431641
vt 0.428385 0.458984
vt 0.615885 0.783203
vt 0.606771 0.785156
vt 0.593750 0.785156
vt 0.585938 0.785156
vt 0.584635 0.794922
vt 0.593750 0.794922
vt 0.592448 0.802734
vt 0.613281 0.759766
vt 0.605469 0.759766
vt 0.604167 0.755859
vt 0.609375 0.755859
vt 0.618490 0.773438
vt 0.609375 0.775391
vt 0.477865 0.480469
vt 0.477865 0.480469
vt 0.606771 0.759766
vt 0.605469 0.755859
vt 0.593750 0.775391
vt 0.608073 0.785156
vt 0.595052 0.785156
vt 0.596354 0.759766
vt 0.608073 0.771484
vt 0.596354 0.755859
vt 0.587240 0.759766
vt 0.591146 0.755859
vt 0.583333 0.773438
vt 0.459635 0.455078
vt 0.592448 0.771484
vt 0.593750 0.759766
vt 0.595052 0.755859
vt 0.459635 0.457031
vt 0.638021 0.804688
vt 0.648438 0.804688
vt 0.647135 0.810547
vt 0.639323 0.810547
vt 0.656250 0.804688
vt 0.653646 0.810547
vt 0.648438 0.804688
vt 0.638021 0.804688
vt 0.639323 0.810547
vt 0.647135 0.810547
vt 0.630208 0.804688
vt 0.634115 0.810547
vt 0.639323 0.759766
vt 0.647135 0.759766
vt 0.645833 0.755859
vt 0.640625 0.755859
vt 0.639323 0.812500
vt 0.641927 0.812500
vt 0.644531 0.812500
vt 0.647135 0.812500
vt 0.644531 0.812500
vt 0.641927 0.812500
vt 0.632812 0.759766
vt 0.635417 0.755859
vt 0.638021 0.792969
vt 0.649740 0.791016
vt 0.660156 0.791016
vt 0.649740 0.791016
vt 0.638021 0.792969
vt 0.627604 0.792969
vt 0.631510 0.773438
vt 0.639323 0.773438
vt 0.648438 0.773438
vt 0.656250 0.773438
vt 0.648438 0.773438
vt 0.639323 0.773438
vt 0.639323 0.759766
vt 0.647135 0.759766
vt 0.652344 0.759766
vt 0.640625 0.755859
vt 0.645833 0.755859
vt 0.649740 0.753906
vt 0.669271 0.970703
vt 0.671875 0.955078
vt 0.670573 0.960938
vt 0.479167 0.375000
vt 0.468750 0.375000
vt 0.471354 0.375000
vt 0.463542 0.330078
vt 0.460938 0.345703
vt 0.480469 0.347656
vt 0.496094 0.330078
vt 0.493490 0.316406
vt 0.494792 0.328125
vt 0.466146 0.318359
vt 0.463542 0.330078
vt 0.466146 0.328125
vt 0.666667 0.984375
vt 0.666667 0.968750
vt 0.459635 0.355469
vt 0.467448 0.367188
vt 0.468750 0.351562
vt 0.458333 0.343750
vt 0.458333 0.339844
vt 0.460938 0.343750
vt 0.459635 0.349609
vt 0.476562 0.335938
vt 0.703125 0.960938
vt 0.704427 0.955078
vt 0.704427 0.970703
vt 0.479167 0.337891
vt 0.677083 1.000000
vt 0.701823 1.000000
vt 0.679688 1.000000
vt 0.701823 1.000000
vt 0.496094 0.330078
vt 0.496094 0.345703
vt 0.674479 0.943359
vt 0.674479 0.949219
vt 0.700521 0.949219
vt 0.700521 0.943359
vt 0.492188 0.318359
vt 0.466146 0.318359
vt 0.475260 0.369141
vt 0.475260 0.353516
vt 0.493490 0.375000
vt 0.493490 0.375000
vt 0.458333 0.359375
vt 0.463542 0.341797
vt 0.496094 0.341797
vt 0.494792 0.341797
vt 0.466146 0.341797
vt 0.477865 0.343750
vt 0.475260 0.339844
vt 0.457031 0.462891
vt 0.467448 0.496094
vt 0.481771 0.492188
vt 0.481771 0.492188
vt 0.467448 0.496094
vt 0.458333 0.460938
vt 0.440104 0.458984
vt 0.434896 0.486328
vt 0.610677 0.792969
vt 0.610677 0.802734
vt 0.621094 0.794922
vt 0.427083 0.492188
vt 0.434896 0.486328
vt 0.453125 0.500000
vt 0.436198 0.431641
vt 0.437500 0.455078
vt 0.427083 0.458984
vt 0.453125 0.500000
vt 0.427083 0.492188
vt 0.427083 0.458984
vt 0.436198 0.431641
vt 0.606771 0.785156
vt 0.615885 0.783203
vt 0.584635 0.794922
vt 0.585938 0.785156
vt 0.593750 0.785156
vt 0.592448 0.802734
vt 0.593750 0.794922
vt 0.605469 0.759766
vt 0.613281 0.759766
vt 0.609375 0.755859
vt 0.604167 0.755859
vt 0.609375 0.775391
vt 0.618490 0.773438
vt 0.476562 0.480469
vt 0.476562 0.480469
vt 0.606771 0.759766
vt 0.605469 0.755859
vt 0.593750 0.775391
vt 0.595052 0.785156
vt 0.608073 0.785156
vt 0.596354 0.759766
vt 0.608073 0.771484
vt 0.596354 0.755859
vt 0.587240 0.759766
vt 0.591146 0.755859
vt 0.583333 0.773438
vt 0.458333 0.455078
vt 0.592448 0.771484
vt 0.593750 0.759766
vt 0.595052 0.755859
vt 0.458333 0.457031
vt 0.648438 0.804688
vt 0.638021 0.804688
vt 0.639323 0.810547
vt 0.647135 0.810547
vt 0.656250 0.804688
vt 0.653646 0.810547
vt 0.638021 0.804688
vt 0.648438 0.804688
vt 0.647135 0.810547
vt 0.639323 0.810547
vt 0.630208 0.804688
vt 0.634115 0.810547
vt 0.647135 0.759766
vt 0.639323 0.759766
vt 0.640625 0.755859
vt 0.645833 0.755859
vt 0.647135 0.812500
vt 0.644531 0.812500
vt 0.641927 0.812500
vt 0.639323 0.812500
vt 0.641927 0.812500
vt 0.644531 0.812500
vt 0.632812 0.759766
vt 0.635417 0.755859
vt 0.649740 0.791016
vt 0.638021 0.792969
vt 0.660156 0.791016
vt 0.638021 0.792969
vt 0.649740 0.791016
vt 0.627604 0.792969
vt 0.639323 0.773438
vt 0.631510 0.773438
vt 0.656250 0.773438
vt 0.648438 0.773438
vt 0.648438 0.773438
vt 0.639323 0.773438
vt 0.639323 0.759766
vt 0.652344 0.759766
vt 0.647135 0.759766
vt 0.640625 0.755859
vt 0.649740 0.753906
vt 0.645833 0.755859
vt 0.670573 0.960938
vt 0.671875 0.955078
vt 0.669271 0.970703
vt 0.471354 0.375000
vt 0.468750 0.375000
vt 0.479167 0.375000
vt 0.480469 0.347656
vt 0.460938 0.345703
vt 0.463542 0.330078
vt 0.494792 0.328125
vt 0.493490 0.316406
vt 0.496094 0.330078
vt 0.466146 0.328125
vt 0.463542 0.330078
vt 0.466146 0.318359
vt 0.666667 0.968750
vt 0.666667 0.984375
vt 0.468750 0.351562
vt 0.467448 0.367188
vt 0.459635 0.355469
vt 0.458333 0.339844
vt 0.458333 0.343750
vt 0.459635 0.349609
vt 0.460938 0.343750
vt 0.476562 0.335938
vt 0.704427 0.970703
vt 0.704427 0.955078
vt 0.703125 0.960938
vt 0.479167 0.337891
vt 0.677083 1.000000
vt 0.679688 1.000000
vt 0.701823 1.000000
vt 0.701823 1.000000
vt 0.496094 0.330078
vt 0.496094 0.345703
vt 0.674479 0.949219
vt 0.674479 0.943359
vt 0.700521 0.949219
vt 0.700521 0.943359
vt 0.466146 0.318359
vt 0.492188 0.318359
vt 0.475260 0.369141
vt 0.475260 0.353516
vt 0.493490 0.375000
vt 0.493490 0.375000
vt 0.458333 0.359375
vt 0.496094 0.341797
vt 0.463542 0.341797
vt 0.466146 0.341797
vt 0.494792 0.341797
vt 0.477865 0.343750
vt 0.475260 0.339844
vt 0.548177 0.761719
vt 0.545573 0.759766
vt 0.539062 0.757812
vt 0.533854 0.759766
vt 0.531250 0.761719
vt 0.519531 0.814453
vt 0.511719 0.839844
vt 0.516927 0.816406
vt 0.561198 0.816406
vt 0.567708 0.839844
vt 0.558594 0.814453
vt 0.423177 0.439453
vt 0.427083 0.441406
vt 0.428385 0.386719
vt 0.438802 0.396484
vt 0.427083 0.441406
vt 0.436198 0.443359
vt 0.438802 0.396484
vt 0.436198 0.443359
vt 0.428385 0.464844
vt 0.428385 0.464844
vt 0.486979 0.390625
vt 0.483073 0.378906
vt 0.496094 0.392578
vt 0.436198 0.498047
vt 0.428385 0.494141
vt 0.436198 0.498047
vt 0.457031 0.500000
vt 0.462240 0.500000
vt 0.457031 0.500000
vt 0.483073 0.378906
vt 0.481771 0.414062
vt 0.481771 0.414062
vt 0.675781 0.873047
vt 0.675781 0.871094
vt 0.667969 0.869141
vt 0.667969 0.873047
vt 0.680990 0.873047
vt 0.682292 0.869141
vt 0.539062 0.812500
vt 0.680990 0.867188
vt 0.680990 0.871094
vt 0.675781 0.871094
vt 0.674479 0.867188
vt 0.669271 0.871094
vt 0.669271 0.867188
vt 0.539062 0.835938
vt 0.540365 0.830078
vt 0.540365 0.849609
vt 0.569010 0.847656
vt 0.575521 0.826172
vt 0.503906 0.826172
vt 0.509115 0.847656
vt 0.428385 0.386719
vt 0.682292 0.873047
vt 0.683594 0.869141
vt 0.446615 0.468750
vt 0.454427 0.447266
vt 0.475260 0.451172
vt 0.459635 0.400391
vt 0.459635 0.400391
vt 0.454427 0.447266
vt 0.472656 0.472656
vt 0.475260 0.451172
vt 0.540365 0.767578
vt 0.501302 0.753906
vt 0.578125 0.753906
vt 0.667969 0.873047
vt 0.666667 0.869141
vt 0.446615 0.468750
vt 0.472656 0.472656
vt 0.428385 0.480469
vt 0.420573 0.478516
vt 0.471354 0.488281
vt 0.446615 0.484375
vt 0.442708 0.500000
vt 0.475260 0.492188
vt 0.428385 0.480469
vt 0.446615 0.484375
vt 0.442708 0.500000
vt 0.471354 0.488281
vt 0.471354 0.392578
vt 0.447917 0.392578
vt 0.454427 0.380859
vt 0.467448 0.380859
vt 0.437500 0.480469
vt 0.419271 0.480469
vt 0.437500 0.500000
vt 0.446615 0.500000
vt 0.434896 0.390625
vt 0.446615 0.378906
vt 0.472656 0.482422
vt 0.462240 0.500000
vt 0.490885 0.482422
vt 0.470052 0.500000
vt 0.484375 0.392578
vt 0.473958 0.380859
vt 0.472656 0.482422
vt 0.462240 0.500000
vt 0.447917 0.392578
vt 0.471354 0.392578
vt 0.467448 0.380859
vt 0.454427 0.380859
vt 0.437500 0.480469
vt 0.446615 0.500000
vt 0.436198 0.447266
vt 0.416667 0.445312
vt 0.496094 0.449219
vt 0.476562 0.447266
vt 0.476562 0.447266
vt 0.436198 0.447266
vt 0.437500 0.419922
vt 0.419271 0.417969
vt 0.493490 0.421875
vt 0.476562 0.419922
vt 0.476562 0.419922
vt 0.437500 0.419922
vt 0.015625 0.396484
vt 0.000000 0.402344
vt 0.015625 0.396484
vt 0.058594 0.382812
vt 0.058594 0.382812
vt 0.079427 0.378906
vt 0.022135 0.488281
vt 0.009115 0.488281
vt 0.020833 0.500000
vt 0.027344 0.498047
vt 0.050781 0.500000
vt 0.045573 0.496094
vt 0.049479 0.488281
vt 0.065104 0.488281
vt 0.050781 0.488281
vt 0.045573 0.496094
vt 0.027344 0.498047
vt 0.022135 0.488281
vt 0.024740 0.472656
vt 0.011719 0.468750
vt 0.054688 0.474609
vt 0.070312 0.474609
vt 0.054688 0.474609
vt 0.024740 0.472656
vt 0.024740 0.447266
vt 0.009115 0.447266
vt 0.075521 0.443359
vt 0.058594 0.445312
vt 0.058594 0.445312
vt 0.022135 0.447266
vt 0.018229 0.406250
vt 0.006510 0.414062
vt 0.071615 0.390625
vt 0.054688 0.394531
vt 0.054688 0.394531
vt 0.018229 0.406250
vt 0.705729 0.824219
vt 0.700521 0.816406
vt 0.697917 0.816406
vt 0.680990 0.902344
vt 0.680990 0.882812
vt 0.669271 0.892578
vt 0.671875 0.925781
vt 0.682292 0.937500
vt 0.699219 0.830078
vt 0.697917 0.830078
vt 0.670573 0.925781
vt 0.667969 0.890625
vt 0.686198 0.832031
vt 0.686198 0.835938
vt 0.690104 0.843750
vt 0.692708 0.843750
vt 0.697917 0.843750
vt 0.688802 0.833984
vt 0.692708 0.843750
vt 0.684896 0.818359
vt 0.687500 0.816406
vt 0.696615 0.843750
vt 0.700521 0.843750
vt 0.688802 0.904297
vt 0.690104 0.890625
vt 0.677083 0.816406
vt 0.678385 0.824219
vt 0.692708 0.925781
vt 0.679688 0.826172
vt 0.677083 0.816406
vt 0.666667 0.816406
vt 0.667969 0.824219
vt 0.669271 0.824219
vt 0.667969 0.816406
vt 0.679688 0.878906
vt 0.687500 0.888672
vt 0.690104 0.931641
vt 0.679688 0.937500
vt 0.447917 0.392578
vt 0.471354 0.392578
vt 0.467448 0.380859
vt 0.454427 0.380859
vt 0.419271 0.480469
vt 0.437500 0.480469
vt 0.446615 0.500000
vt 0.437500 0.500000
vt 0.434896 0.390625
vt 0.446615 0.378906
vt 0.472656 0.482422
vt 0.462240 0.500000
vt 0.490885 0.482422
vt 0.470052 0.500000
vt 0.484375 0.392578
vt 0.473958 0.380859
vt 0.472656 0.482422
vt 0.462240 0.500000
vt 0.471354 0.392578
vt 0.447917 0.392578
vt 0.454427 0.380859
vt 0.467448 0.380859
vt 0.437500 0.480469
vt 0.446615 0.500000
vt 0.416667 0.445312
vt 0.436198 0.447266
vt 0.476562 0.447266
vt 0.496094 0.449219
vt 0.476562 0.447266
vt 0.436198 0.447266
vt 0.419271 0.417969
vt 0.437500 0.419922
vt 0.476562 0.419922
vt 0.493490 0.421875
vt 0.476562 0.419922
vt 0.437500 0.419922
vt 0.015625 0.396484
vt 0.000000 0.402344
vt 0.015625 0.396484
vt 0.079427 0.378906
vt 0.058594 0.382812
vt 0.058594 0.382812
vt 0.009115 0.488281
vt 0.022135 0.488281
vt 0.027344 0.498047
vt 0.020833 0.500000
vt 0.045573 0.496094
vt 0.050781 0.500000
vt 0.049479 0.488281
vt 0.065104 0.488281
vt 0.050781 0.488281
vt 0.045573 0.496094
vt 0.027344 0.498047
vt 0.022135 0.488281
vt 0.011719 0.468750
vt 0.024740 0.472656
vt 0.054688 0.474609
vt 0.070312 0.474609
vt 0.054688 0.474609
vt 0.024740 0.472656
vt 0.009115 0.447266
vt 0.024740 0.447266
vt 0.058594 0.445312
vt 0.075521 0.443359
vt 0.058594 0.445312
vt 0.022135 0.447266
vt 0.006510 0.414062
vt 0.018229 0.406250
vt 0.054688 0.394531
vt 0.071615 0.390625
vt 0.054688 0.394531
vt 0.018229 0.406250
vt 0.697917 0.816406
vt 0.700521 0.816406
vt 0.705729 0.824219
vt 0.669271 0.925781
vt 0.680990 0.935547
vt 0.680990 0.916016
vt 0.671875 0.892578
vt 0.682292 0.880859
vt 0.699219 0.830078
vt 0.697917 0.830078
vt 0.667969 0.927734
vt 0.670573 0.892578
vt 0.692708 0.843750
vt 0.690104 0.843750
vt 0.686198 0.835938
vt 0.686198 0.832031
vt 0.697917 0.843750
vt 0.688802 0.833984
vt 0.692708 0.843750
vt 0.684896 0.818359
vt 0.687500 0.816406
vt 0.696615 0.843750
vt 0.700521 0.843750
vt 0.688802 0.927734
vt 0.688802 0.914062
vt 0.678385 0.824219
vt 0.677083 0.816406
vt 0.692708 0.892578
vt 0.677083 0.816406
vt 0.679688 0.826172
vt 0.667969 0.824219
vt 0.666667 0.816406
vt 0.667969 0.816406
vt 0.669271 0.824219
vt 0.679688 0.878906
vt 0.690104 0.886719
vt 0.687500 0.929688
vt 0.679688 0.937500
vt 0.682292 0.874846
vt 0.666667 0.874846
vt 0.666667 0.874846
vt 0.682292 0.874846
vt 0.666667 0.874846
vt 0.682292 0.874846
vt 0.682292 0.874846
vt 0.666667 0.874846
vn 0.6461 -0.3917 0.6550
vn 0.7585 -0.2622 0.5966
vn 0.2099 -0.3826 0.8998
vn -0.2317 0.4358 0.8697
vn 0.5095 0.4953 0.7036
vn 0.7365 0.6045 0.3035
vn 0.0020 -0.0579 0.9983
vn 0.0071 0.2993 0.9541
vn 0.5925 0.3717 0.7147
vn -0.2211 0.8334 0.5066
vn 0.2213 0.8322 0.5085
vn -0.0000 0.5683 0.8228
vn 0.0477 0.9707 -0.2356
vn -0.6526 0.4231 -0.6285
vn -0.6669 0.7422 -0.0655
vn -0.0477 0.9707 -0.2356
vn 0.0294 0.9903 0.1359
vn 0.6667 0.7423 -0.0675
vn -0.2735 0.7255 0.6315
vn 0.0000 0.9928 -0.1199
vn 0.2735 0.7255 0.6315
vn -0.7505 0.5947 0.2884
vn -0.7635 0.6449 -0.0348
vn 0.7510 0.5954 0.2854
vn 0.1831 0.9245 0.3344
vn 0.6718 0.6802 0.2932
vn 0.0303 0.5622 0.8265
vn 0.7201 0.5801 0.3806
vn -0.2099 -0.3826 0.8998
vn -0.7585 -0.2622 0.5966
vn -0.6461 -0.3917 0.6550
vn 0.9227 -0.3798 -0.0668
vn 0.8815 -0.4688 0.0555
vn 0.9733 -0.0768 0.2165
vn -0.9661 -0.0893 0.2422
vn -0.7292 -0.2508 0.6367
vn -0.8853 -0.4551 0.0961
vn 0.7292 -0.2508 0.6367
vn -0.8998 -0.3822 0.2102
vn -0.6472 -0.3786 -0.6616
vn -0.5586 -0.1041 0.8229
vn -0.9200 -0.1582 0.3585
vn 0.9214 -0.1649 0.3520
vn 0.5586 -0.1041 0.8229
vn 0.6472 -0.3786 -0.6616
vn 0.8998 -0.3822 0.2102
vn 0.1108 0.1229 0.9862
vn -0.9183 -0.3954 -0.0201
vn -0.7842 -0.3360 -0.5216
vn 0.7842 -0.3360 -0.5216
vn 0.9183 -0.3954 -0.0201
vn 0.7924 -0.2380 -0.5616
vn 0.7601 -0.3824 -0.5253
vn 0.2527 -0.2226 -0.9416
vn -0.2652 -0.2233 -0.9380
vn -0.7853 -0.3736 -0.4937
vn -0.7881 -0.2263 -0.5724
vn 0.6526 0.4231 -0.6285
vn 0.0678 0.1603 -0.9847
vn 0.1051 -0.1917 -0.9758
vn 0.0000 -0.2363 -0.9717
vn 0.0000 -0.2345 -0.9721
vn 0.2058 -0.3459 -0.9154
vn -0.0678 0.1603 -0.9847
vn -0.2058 -0.3459 -0.9154
vn -0.1051 -0.1917 -0.9758
vn 0.7640 0.6442 -0.0358
vn 0.0000 0.1008 -0.9949
vn -0.6008 0.3340 0.7263
vn 0.7569 0.5381 0.3708
vn -0.7559 0.5392 0.3713
vn -0.5089 0.4965 0.7032
vn -0.7396 0.6002 0.3045
vn 0.0731 0.8423 0.5340
vn -0.6752 0.6769 0.2930
vn -0.0356 0.5654 0.8241
vn -0.0818 0.8422 0.5329
vn -0.0354 0.9901 0.1360
vn -0.7166 0.5873 0.3763
vn 0.2314 0.4365 0.8694
vn -0.2785 -0.1964 0.9402
vn 0.2874 -0.1988 0.9369
vn -0.1402 0.1086 0.9842
vn -0.1818 0.9244 0.3353
vn -0.1889 -0.2051 -0.9603
vn 0.1810 -0.2123 -0.9603
vn -0.9254 -0.3756 -0.0498
vn 0.7755 -0.2168 0.5930
vn 0.2509 -0.1933 0.9485
vn -0.0004 -0.1432 0.9897
vn -0.0000 -0.4213 0.9069
vn -0.6451 0.4646 0.6066
vn 0.0000 0.6110 0.7917
vn -0.0000 -0.5510 0.8345
vn -0.2503 -0.1926 0.9488
vn 0.6451 0.4646 0.6066
vn -0.7755 -0.2168 0.5930
vn -0.7488 -0.2329 -0.6205
vn -0.9713 -0.2366 -0.0229
vn -0.9450 -0.2072 0.2530
vn 0.7564 -0.2318 -0.6117
vn 0.9760 -0.2159 -0.0276
vn -0.9852 -0.1623 -0.0548
vn 0.9814 -0.1828 -0.0591
vn 0.9494 -0.1979 0.2438
vn -0.0000 -0.2932 -0.9561
vn 0.0000 -0.3387 -0.9409
vn 0.9653 -0.0791 0.2487
vn 0.7920 -0.5662 0.2281
vn 0.6719 -0.6092 0.4212
vn 0.9541 -0.1751 0.2430
vn 0.8031 -0.0958 0.5881
vn 0.8049 -0.1153 0.5821
vn 0.9425 0.1618 0.2923
vn 0.7571 -0.0635 0.6502
vn 0.8303 -0.1301 0.5419
vn 0.2282 0.8188 0.5268
vn 0.3819 0.3780 0.8434
vn 0.4087 0.7220 0.5582
vn 0.3973 0.0459 0.9166
vn 0.3760 -0.0820 0.9230
vn 0.7171 -0.2697 0.6426
vn 0.6840 0.0099 0.7294
vn -0.6356 -0.2858 0.7171
vn -0.2451 -0.2285 0.9422
vn -0.6860 -0.0699 0.7242
vn -0.5049 0.3155 0.8035
vn 0.7166 0.6432 -0.2699
vn 0.8564 0.0241 0.5157
vn -0.9425 0.1618 0.2923
vn -0.8303 -0.1301 0.5419
vn -0.4079 0.7224 0.5583
vn -0.3819 0.3780 0.8434
vn -0.2282 0.8188 0.5268
vn -0.9653 -0.0791 0.2487
vn -0.9541 -0.1751 0.2430
vn -0.9571 -0.2314 -0.1745
vn -0.5933 -0.1028 -0.7984
vn -0.9882 -0.0803 -0.1304
vn -0.7186 0.6412 -0.2691
vn 0.6356 -0.2858 0.7171
vn 0.6860 -0.0699 0.7242
vn -0.7571 -0.0635 0.6502
vn -0.0000 -0.7694 0.6387
vn 0.5732 -0.0432 0.8182
vn -0.5732 -0.0432 0.8182
vn 0.2451 -0.2285 0.9422
vn -0.0000 -0.1700 0.9854
vn -0.7171 -0.2697 0.6426
vn -0.8076 -0.0964 0.5819
vn -0.6833 0.0308 0.7295
vn 0.4198 -0.2689 0.8669
vn -0.3831 -0.0714 0.9209
vn 0.4797 0.0336 0.8768
vn 0.3362 -0.8022 0.4934
vn -0.8049 -0.1153 0.5821
vn -0.9834 0.0554 -0.1728
vn -0.3901 0.0249 0.9204
vn -0.3704 -0.2496 0.8947
vn -0.6719 -0.6092 0.4212
vn -0.7920 -0.5662 0.2281
vn -0.3362 -0.8022 0.4934
vn -0.4797 0.0336 0.8768
vn -0.0000 -0.7563 0.6542
vn -0.0000 0.7141 -0.7001
vn 0.1954 0.8906 -0.4106
vn -0.1067 0.9935 -0.0386
vn 0.1067 0.9935 -0.0386
vn -0.1969 0.8904 -0.4104
vn 0.5049 0.3155 0.8035
vn -0.8560 0.0237 0.5164
vn 0.9834 0.0554 -0.1728
vn 0.9571 -0.2314 -0.1745
vn 0.9883 -0.0789 -0.1305
vn 0.5941 -0.1024 -0.7978
vn 0.1345 0.3532 -0.9258
vn -0.1347 0.3534 -0.9257
vn -0.0000 -0.0898 -0.9960
vn -0.8374 -0.0218 -0.5461
vn -0.7127 -0.1411 -0.6871
vn -0.0000 -0.1435 -0.9897
vn -0.0000 0.2035 -0.9791
vn -0.0000 0.4249 -0.9053
vn 0.8374 -0.0218 -0.5461
vn 0.7127 -0.1411 -0.6871
vn 0.8323 -0.3658 0.4165
vn 0.4997 -0.3897 0.7736
vn -0.0000 -0.3651 0.9310
vn -0.4997 -0.3897 0.7736
vn -0.8323 -0.3658 0.4165
vn -0.8084 -0.2229 -0.5447
vn 0.0000 -0.0976 -0.9952
vn 0.8084 -0.2229 -0.5447
vn -0.5592 -0.7903 0.2504
vn -0.3911 -0.7010 0.5964
vn 0.0000 -0.6845 0.7290
vn 0.3911 -0.7010 0.5964
vn 0.5592 -0.7903 0.2504
vn 0.4628 -0.6744 -0.5753
vn 0.0000 -0.4338 -0.9010
vn -0.4628 -0.6744 -0.5753
vn 0.7843 0.4377 0.4396
vn 0.2121 0.8822 0.4203
vn 0.3279 -0.0957 0.9398
vn 0.3580 -0.1748 -0.9172
vn 0.2379 0.8580 -0.4552
vn 0.8187 0.3981 -0.4139
vn -0.4217 0.4471 0.7889
vn -0.3903 -0.2217 0.8936
vn 0.3550 -0.5144 -0.7806
vn 0.9435 -0.1456 -0.2975
vn 0.8989 -0.0331 -0.4368
vn 0.0207 0.9161 -0.4004
vn -0.4514 0.4375 -0.7777
vn -0.7683 0.5745 -0.2824
vn -0.9535 -0.1708 -0.2485
vn -0.4811 -0.3686 -0.7954
vn -0.9102 -0.1598 -0.3821
vn -0.7648 0.5808 0.2788
vn 0.0344 0.9069 0.4200
vn -0.8762 -0.1189 0.4670
vn -0.9353 -0.1584 0.3163
vn -0.0725 -0.0728 -0.9947
vn -0.0096 0.0121 0.9999
vn 0.3635 -0.3528 0.8622
vn 0.9027 0.0020 0.4302
vn 0.9134 -0.1226 0.3882
vn -0.0138 -0.3965 -0.9179
vn 0.8226 -0.3843 -0.4192
vn 0.7138 -0.5503 -0.4332
vn -0.0243 -0.5179 -0.8551
vn -0.0314 -0.0725 -0.9969
vn 0.8763 -0.0456 -0.4797
vn -0.8139 -0.4043 -0.4173
vn -0.7437 -0.5189 -0.4215
vn 0.8891 -0.0295 0.4567
vn 0.8835 -0.1235 -0.4518
vn 0.8831 -0.0634 0.4650
vn 0.8490 -0.3542 0.3922
vn -0.8896 -0.0855 -0.4487
vn 0.7583 -0.4994 0.4191
vn 0.0268 -0.3433 0.9388
vn 0.0284 -0.4516 0.8918
vn 0.0161 -0.0514 0.9985
vn -0.8840 -0.0798 0.4607
vn -0.8229 -0.3796 0.4227
vn -0.7551 -0.4714 0.4556
vn 0.8308 0.3466 0.4354
vn 0.8306 0.3584 -0.4261
vn 0.6756 0.6452 -0.3569
vn 0.6774 0.6432 0.3569
vn -0.0159 0.3418 -0.9396
vn -0.0039 0.6354 -0.7722
vn -0.8554 0.3025 -0.4204
vn -0.8550 0.2915 0.4289
vn -0.7044 0.6152 0.3541
vn -0.7028 0.6170 -0.3541
vn -0.0157 0.3167 0.9484
vn -0.0038 0.6342 0.7731
vn -0.8785 -0.2031 0.4324
vn -0.8808 -0.2411 -0.4076
vn -0.8462 -0.3757 -0.3779
vn -0.8497 -0.3719 0.3739
vn 0.0066 0.9263 0.3768
vn 0.3691 0.9167 0.1532
vn 0.3680 0.9168 -0.1551
vn 0.0064 0.9294 -0.3689
vn -0.3472 0.9247 -0.1561
vn -0.3483 0.9246 0.1543
vn -0.0005 -0.2594 0.9658
vn 0.0274 -0.4810 0.8763
vn 0.8905 -0.0138 0.4547
vn 0.8910 0.0077 -0.4540
vn -0.0246 0.0330 -0.9992
vn -0.8966 0.0127 -0.4427
vn -0.8963 -0.0095 0.4433
vn -0.0248 -0.0145 0.9996
vn 0.0137 -0.1516 0.9883
vn 0.8888 -0.1989 0.4130
vn 0.8754 -0.2172 -0.4319
vn 0.0112 -0.2012 -0.9795
vn -0.8880 -0.1355 -0.4395
vn -0.9017 -0.1113 0.4177
vn 0.8669 -0.2747 0.4159
vn 0.8662 -0.3135 -0.3891
vn -0.0019 -0.3472 -0.9378
vn 0.8511 -0.3890 0.3526
vn 0.8478 -0.3923 -0.3568
vn 0.0273 -0.4862 -0.8734
vn 0.2099 -0.1224 0.9700
vn -0.3513 0.0721 0.9335
vn 0.7122 -0.0988 0.6950
vn -0.6255 0.7723 -0.1106
vn -0.1142 0.8313 0.5439
vn 0.5815 0.6896 0.4316
vn -0.9528 -0.2740 -0.1305
vn 0.2939 0.1109 -0.9494
vn -0.3098 -0.8147 -0.4901
vn -0.7302 -0.2716 -0.6270
vn -0.3938 -0.7775 0.4903
vn 0.1565 0.2041 0.9664
vn -0.7999 -0.2569 0.5424
vn 0.2762 0.3919 0.8776
vn 0.1770 -0.2569 0.9501
vn -0.6924 0.3948 0.6039
vn -0.7510 0.5547 0.3583
vn -0.9279 0.2103 -0.3078
vn -0.1093 -0.7285 0.6762
vn -0.8873 -0.0398 0.4594
vn -0.7326 0.2863 0.6175
vn -0.2606 -0.9091 -0.3251
vn 0.7734 -0.1005 -0.6259
vn -0.1835 0.0260 -0.9827
vn -0.6574 -0.0531 -0.7516
vn 0.3523 -0.3152 -0.8812
vn 0.5696 0.6283 -0.5298
vn -0.5714 0.5973 -0.5628
vn 0.1457 -0.8082 0.5706
vn 0.6137 -0.6067 0.5053
vn 0.6544 -0.6153 -0.4396
vn 0.2372 -0.8319 -0.5016
vn -0.8860 0.3734 -0.2748
vn -0.8732 -0.3832 -0.3011
vn 0.4628 0.5707 0.6783
vn 0.5398 0.5843 -0.6060
vn -0.5746 0.6177 -0.5369
vn -0.6270 0.6186 0.4736
vn -0.3752 0.4950 -0.7837
vn -0.9670 -0.1691 -0.1907
vn -0.3279 -0.0957 0.9398
vn -0.2121 0.8822 0.4203
vn -0.7843 0.4377 0.4396
vn -0.8180 0.3990 -0.4145
vn -0.2379 0.8580 -0.4552
vn -0.3581 -0.1722 -0.9177
vn 0.3903 -0.2217 0.8936
vn 0.4217 0.4471 0.7889
vn -0.8988 -0.0367 -0.4369
vn -0.9432 -0.1445 -0.2991
vn -0.3467 -0.5115 -0.7862
vn 0.7683 0.5745 -0.2824
vn 0.4514 0.4375 -0.7777
vn -0.0207 0.9161 -0.4004
vn 0.9103 -0.1598 -0.3819
vn 0.4847 -0.3654 -0.7947
vn 0.9534 -0.1708 -0.2485
vn -0.0344 0.9069 0.4200
vn 0.7648 0.5808 0.2788
vn 0.9353 -0.1584 0.3163
vn 0.8762 -0.1189 0.4670
vn 0.0727 -0.0748 -0.9945
vn -0.3635 -0.3528 0.8622
vn 0.0096 0.0121 0.9999
vn -0.9135 -0.1230 0.3878
vn -0.9028 0.0020 0.4301
vn -0.8226 -0.3843 -0.4192
vn 0.0138 -0.3965 -0.9179
vn 0.0243 -0.5179 -0.8551
vn -0.7138 -0.5503 -0.4332
vn -0.8763 -0.0456 -0.4797
vn 0.0314 -0.0725 -0.9969
vn 0.8139 -0.4043 -0.4173
vn 0.7437 -0.5189 -0.4215
vn -0.8891 -0.0295 0.4567
vn -0.8828 -0.0640 0.4654
vn -0.8836 -0.1255 -0.4510
vn -0.8490 -0.3542 0.3922
vn 0.8896 -0.0855 -0.4487
vn -0.7583 -0.4994 0.4191
vn -0.0268 -0.3433 0.9388
vn -0.0284 -0.4516 0.8918
vn -0.0161 -0.0514 0.9985
vn 0.8840 -0.0798 0.4607
vn 0.8229 -0.3796 0.4227
vn 0.7551 -0.4714 0.4556
vn -0.8306 0.3584 -0.4261
vn -0.8308 0.3466 0.4354
vn -0.6774 0.6432 0.3569
vn -0.6756 0.6452 -0.3569
vn 0.0159 0.3418 -0.9396
vn 0.0039 0.6354 -0.7722
vn 0.8550 0.2915 0.4289
vn 0.8554 0.3025 -0.4204
vn 0.7028 0.6170 -0.3541
vn 0.7044 0.6152 0.3541
vn 0.0157 0.3167 0.9484
vn 0.0038 0.6342 0.7731
vn 0.8808 -0.2411 -0.4076
vn 0.8785 -0.2031 0.4324
vn 0.8497 -0.3719 0.3739
vn 0.8462 -0.3757 -0.3779
vn -0.0064 0.9294 -0.3689
vn -0.3680 0.9168 -0.1551
vn -0.3691 0.9167 0.1532
vn -0.0066 0.9263 0.3768
vn 0.3483 0.9246 0.1543
vn 0.3472 0.9247 -0.1561
vn 0.0005 -0.2594 0.9658
vn -0.0274 -0.4810 0.8763
vn -0.8910 0.0077 -0.4540
vn -0.8905 -0.0138 0.4547
vn 0.0246 0.0330 -0.9992
vn 0.8963 -0.0095 0.4433
vn 0.8966 0.0127 -0.4427
vn 0.0248 -0.0145 0.9996
vn -0.8888 -0.1989 0.4130
vn -0.0137 -0.1516 0.9883
vn -0.0112 -0.2012 -0.9795
vn -0.8754 -0.2172 -0.4319
vn 0.8880 -0.1355 -0.4395
vn 0.9017 -0.1113 0.4177
vn -0.8669 -0.2747 0.4159
vn 0.0019 -0.3472 -0.9378
vn -0.8662 -0.3135 -0.3891
vn -0.8511 -0.3890 0.3526
vn -0.0273 -0.4862 -0.8734
vn -0.8478 -0.3923 -0.3568
vn -0.7122 -0.0988 0.6950
vn 0.3513 0.0721 0.9335
vn -0.2099 -0.1224 0.9700
vn -0.5815 0.6896 0.4316
vn 0.1142 0.8313 0.5439
vn 0.6255 0.7723 -0.1106
vn 0.9528 -0.2740 -0.1305
vn 0.7302 -0.2716 -0.6270
vn 0.3098 -0.8147 -0.4901
vn -0.2939 0.1109 -0.9494
vn 0.7999 -0.2569 0.5424
vn -0.1565 0.2041 0.9664
vn 0.3938 -0.7775 0.4903
vn -0.1770 -0.2569 0.9501
vn -0.2762 0.3919 0.8776
vn 0.9279 0.2103 -0.3078
vn 0.7510 0.5547 0.3583
vn 0.6924 0.3948 0.6039
vn 0.1093 -0.7285 0.6762
vn 0.7326 0.2863 0.6175
vn 0.8873 -0.0398 0.4594
vn 0.2606 -0.9091 -0.3251
vn 0.6574 -0.0531 -0.7516
vn 0.1835 0.0260 -0.9827
vn -0.7734 -0.1005 -0.6259
vn -0.3523 -0.3152 -0.8812
vn -0.5696 0.6284 -0.5298
vn 0.5714 0.5973 -0.5628
vn -0.6137 -0.6067 0.5053
vn -0.1457 -0.8082 0.5706
vn -0.6544 -0.6153 -0.4396
vn -0.2372 -0.8319 -0.5016
vn 0.8860 0.3734 -0.2748
vn 0.8732 -0.3832 -0.3011
vn -0.5398 0.5843 -0.6060
vn -0.4628 0.5707 0.6783
vn 0.6270 0.6186 0.4736
vn 0.5746 0.6177 -0.5369
vn 0.3752 0.4950 -0.7837
vn 0.9670 -0.1691 -0.1907
vn 0.5899 -0.5562 -0.5854
vn 0.4763 -0.6990 0.5335
vn -0.0000 -0.7726 0.6348
vn -0.4763 -0.6990 0.5335
vn -0.5267 -0.5847 -0.6170
vn -0.6434 -0.0641 0.7628
vn -0.6808 0.0811 0.7280
vn -0.8062 -0.3876 0.4471
vn 0.7983 -0.3955 0.4542
vn 0.6808 0.0811 0.7280
vn 0.6434 -0.0641 0.7628
vn -0.0673 -0.9190 -0.3885
vn 0.2958 -0.8527 0.4306
vn -0.8403 -0.2688 0.4709
vn -0.3048 -0.8511 0.4274
vn 0.8364 -0.2631 0.4809
vn 0.0006 -0.8404 0.5420
vn -0.7791 -0.6221 0.0781
vn -0.0000 -0.4003 -0.9164
vn -0.3998 0.7618 0.5097
vn 0.0000 0.7160 0.6981
vn 0.3998 0.7618 0.5097
vn 0.3610 0.9169 -0.1705
vn 0.0010 0.9457 -0.3251
vn -0.3497 0.9229 -0.1614
vn 0.7788 -0.6222 0.0804
vn 0.2294 -0.7266 0.6476
vn -0.2228 -0.7400 0.6347
vn 0.0016 0.5311 -0.8473
vn 0.0007 0.2323 -0.9726
vn -0.6709 0.2869 -0.6838
vn -0.6111 0.4546 -0.6480
vn 0.5842 0.4656 -0.6648
vn 0.6733 0.3052 -0.6734
vn -0.0000 0.1063 0.9943
vn 0.5955 0.2966 0.7466
vn 0.0000 0.2780 0.9606
vn 0.0000 0.1776 0.9841
vn -0.5955 0.2966 0.7466
vn 0.0000 0.3085 -0.9512
vn 0.8029 0.0640 -0.5926
vn -0.8027 0.0518 -0.5942
vn 0.9336 0.3410 0.1098
vn 0.9731 0.1837 0.1392
vn -0.9748 0.1707 0.1435
vn -0.9847 -0.1741 0.0023
vn -0.4544 -0.8718 -0.1830
vn 0.4715 -0.8661 -0.1664
vn 0.9864 -0.1638 0.0159
vn -0.9351 0.3328 0.1221
vn -0.4783 0.8603 0.1765
vn 0.4826 0.8593 0.1692
vn 0.7831 -0.4195 -0.4591
vn 0.7797 -0.4799 0.4022
vn 0.6652 -0.6542 0.3599
vn 0.6664 -0.6105 -0.4280
vn -0.8300 0.3003 0.4701
vn 0.0023 0.3276 0.9448
vn 0.0110 0.5973 0.8019
vn -0.7161 0.5702 0.4025
vn -0.0062 -0.5159 0.8566
vn 0.0131 -0.6659 0.7459
vn -0.8289 0.3342 -0.4486
vn -0.7156 0.6100 -0.3403
vn 0.0023 0.3937 -0.9192
vn 0.0111 0.6800 -0.7332
vn -0.0061 -0.3883 -0.9215
vn 0.0133 -0.5783 -0.8157
vn 0.8149 0.3881 -0.4305
vn 0.7093 0.6259 -0.3243
vn -0.8112 -0.4145 0.4124
vn -0.8127 -0.3542 -0.4626
vn -0.6517 -0.6188 -0.4386
vn -0.6505 -0.6636 0.3694
vn 0.8151 0.3562 0.4569
vn 0.7100 0.5879 0.3878
vn -0.8713 -0.0117 0.4906
vn 0.0332 -0.0045 0.9994
vn 0.0333 0.0276 -0.9991
vn -0.8714 0.0038 -0.4906
vn 0.8832 0.0192 -0.4686
vn 0.8828 0.0027 0.4698
vn -0.8463 -0.1492 0.5115
vn 0.0041 -0.2409 0.9705
vn 0.0048 -0.1508 -0.9886
vn -0.8574 -0.0966 -0.5054
vn 0.8514 -0.1926 -0.4878
vn 0.8410 -0.2386 0.4856
vn 0.7835 -0.3163 0.5349
vn 0.0867 -0.1879 0.9784
vn -0.7518 -0.3700 0.5457
vn 0.8057 -0.5306 -0.2632
vn -0.7735 -0.5800 -0.2555
vn 0.0887 -0.5228 -0.8478
vn -0.8157 0.2934 0.4986
vn 0.0247 0.2621 0.9647
vn -0.0264 0.8721 0.4886
vn -0.6175 0.7376 0.2733
vn -0.0335 0.8679 -0.4956
vn -0.6210 0.7274 -0.2919
vn -0.8355 0.3799 -0.3970
vn 0.0210 0.4487 -0.8934
vn 0.8331 0.3738 -0.4076
vn 0.5952 0.7542 -0.2774
vn 0.5965 0.7575 0.2653
vn 0.8227 0.2908 0.4884
vn -0.8719 0.0161 0.4895
vn -0.0254 0.0023 0.9997
vn -0.8657 0.1359 -0.4817
vn -0.0164 0.2144 -0.9766
vn 0.8581 0.1603 -0.4877
vn 0.8647 0.0653 0.4979
vn -0.8806 0.0269 0.4731
vn -0.0282 0.0638 0.9976
vn -0.0076 0.0231 -0.9997
vn -0.8811 0.0129 -0.4728
vn 0.8792 0.0337 -0.4753
vn 0.8538 0.0598 0.5172
vn -0.8675 0.1589 0.4714
vn -0.0936 0.1958 0.9762
vn -0.0945 0.2256 -0.9696
vn -0.8719 0.1470 -0.4671
vn 0.8486 0.1965 -0.4912
vn 0.8551 0.2168 0.4709
vn -0.0208 -0.1017 -0.9946
vn 0.6552 -0.6064 -0.4506
vn -0.6987 -0.6344 -0.3307
vn -0.1424 0.8686 0.4747
vn -0.9111 0.4021 0.0902
vn -0.4386 0.5587 0.7039
vn 0.5273 0.5335 0.6613
vn 0.8579 0.4793 0.1851
vn 0.8760 0.2098 -0.4343
vn -0.9136 0.0972 -0.3947
vn 0.5089 -0.5313 0.6773
vn -0.4737 -0.4790 0.7390
vn -0.8810 0.3603 0.3065
vn -0.0305 0.6567 0.7535
vn 0.0234 0.4771 0.8785
vn -0.8828 0.2614 0.3903
vn -0.9173 0.1219 -0.3791
vn 0.8696 0.4135 0.2698
vn 0.8567 0.3592 0.3703
vn -0.7168 -0.6879 -0.1140
vn 0.6956 -0.7081 -0.1216
vn 0.8689 0.2489 -0.4279
vn -0.0328 0.2469 -0.9685
vn -0.7959 -0.6053 0.0102
vn 0.7824 -0.6210 0.0470
vn -0.7797 -0.4799 0.4022
vn -0.7831 -0.4195 -0.4591
vn -0.6664 -0.6105 -0.4280
vn -0.6652 -0.6542 0.3599
vn -0.0023 0.3276 0.9448
vn 0.8300 0.3003 0.4701
vn 0.7161 0.5702 0.4025
vn -0.0110 0.5973 0.8019
vn 0.0062 -0.5159 0.8566
vn -0.0131 -0.6659 0.7459
vn 0.8289 0.3342 -0.4486
vn 0.7156 0.6100 -0.3403
vn -0.0023 0.3937 -0.9192
vn -0.0111 0.6800 -0.7332
vn 0.0061 -0.3883 -0.9215
vn -0.0133 -0.5783 -0.8157
vn -0.8149 0.3881 -0.4305
vn -0.7093 0.6259 -0.3243
vn 0.8127 -0.3542 -0.4626
vn 0.8112 -0.4145 0.4124
vn 0.6505 -0.6636 0.3694
vn 0.6517 -0.6188 -0.4386
vn -0.8151 0.3562 0.4569
vn -0.7100 0.5879 0.3878
vn -0.0332 -0.0045 0.9994
vn 0.8713 -0.0117 0.4906
vn 0.8714 0.0038 -0.4906
vn -0.0333 0.0276 -0.9991
vn -0.8832 0.0192 -0.4686
vn -0.8828 0.0027 0.4698
vn -0.0041 -0.2409 0.9705
vn 0.8463 -0.1492 0.5115
vn 0.8574 -0.0966 -0.5054
vn -0.0048 -0.1508 -0.9886
vn -0.8514 -0.1926 -0.4878
vn -0.8410 -0.2386 0.4856
vn 0.7518 -0.3700 0.5457
vn -0.0867 -0.1879 0.9784
vn -0.7835 -0.3163 0.5349
vn -0.0887 -0.5228 -0.8478
vn 0.7735 -0.5800 -0.2555
vn -0.8057 -0.5306 -0.2632
vn -0.0247 0.2621 0.9647
vn 0.8157 0.2934 0.4986
vn 0.6175 0.7376 0.2733
vn 0.0264 0.8721 0.4886
vn 0.6210 0.7274 -0.2919
vn 0.0335 0.8679 -0.4956
vn 0.8355 0.3799 -0.3970
vn -0.0210 0.4487 -0.8934
vn -0.8331 0.3738 -0.4076
vn -0.5952 0.7542 -0.2774
vn -0.5965 0.7575 0.2653
vn -0.8227 0.2908 0.4884
vn 0.0254 0.0023 0.9997
vn 0.8719 0.0161 0.4895
vn 0.8657 0.1359 -0.4817
vn 0.0164 0.2144 -0.9766
vn -0.8581 0.1603 -0.4877
vn -0.8647 0.0653 0.4979
vn 0.0282 0.0638 0.9976
vn 0.8806 0.0269 0.4731
vn 0.8811 0.0129 -0.4728
vn 0.0076 0.0231 -0.9997
vn -0.8792 0.0337 -0.4753
vn -0.8538 0.0598 0.5172
vn 0.0936 0.1958 0.9762
vn 0.8675 0.1589 0.4714
vn 0.8719 0.1470 -0.4671
vn 0.0945 0.2256 -0.9696
vn -0.8486 0.1965 -0.4912
vn -0.8551 0.2168 0.4709
vn 0.6987 -0.6344 -0.3307
vn -0.6552 -0.6064 -0.4506
vn 0.0208 -0.1017 -0.9946
vn 0.4386 0.5587 0.7039
vn 0.9111 0.4021 0.0902
vn 0.1424 0.8686 0.4747
vn -0.5273 0.5335 0.6613
vn -0.8579 0.4793 0.1851
vn -0.8760 0.2098 -0.4343
vn 0.9136 0.0972 -0.3947
vn 0.4737 -0.4790 0.7390
vn -0.5089 -0.5313 0.6773
vn 0.8828 0.2614 0.3903
vn -0.0234 0.4771 0.8785
vn 0.0305 0.6567 0.7535
vn 0.8810 0.3603 0.3065
vn 0.9173 0.1219 -0.3791
vn -0.8696 0.4135 0.2698
vn -0.8567 0.3592 0.3703
vn 0.7168 -0.6879 -0.1140
vn -0.6956 -0.7081 -0.1216
vn -0.8689 0.2489 -0.4279
vn 0.0328 0.2469 -0.9685
vn 0.7959 -0.6053 0.0102
vn -0.7824 -0.6210 0.0470
vn 0.0000 0.1950 0.9808
vn 0.0000 -0.1950 -0.9808
usemtl Heihachi
s 1
f 1/1/1 2/2/2 3/3/3
f 4/4/4 5/5/5 6/6/6
f 7/7/7 8/8/8 9/9/9
f 10/10/10 11/11/11 12/12/12
f 13/13/13 14/14/14 15/15/15
f 16/16/16 17/17/17 18/18/18
f 19/19/19 20/20/20 21/21/21
f 22/22/22 16/23/16 19/19/19
f 15/15/15 14/14/14 23/24/23
f 24/25/24 25/26/25 21/27/21
f 26/28/26 27/29/27 28/30/28
f 29/31/29 30/32/30 31/33/31
f 32/34/32 33/35/33 34/36/34
f 35/37/35 36/38/36 37/39/37
f 33/35/33 38/40/38 34/36/34
f 39/41/39 40/42/40 31/33/31
f 36/38/36 41/43/41 42/44/42
f 43/45/43 44/46/44 38/40/38
f 1/1/1 45/47/45 46/48/46
f 7/49/7 9/50/9 47/51/47
f 48/52/48 49/53/49 40/42/40
f 31/33/31 30/32/30 39/41/39
f 45/47/45 50/54/50 51/55/51
f 46/48/46 2/2/2 1/1/1
f 52/56/52 53/57/53 54/58/54
f 55/59/55 56/60/56 57/61/57
f 16/23/16 58/62/58 59/63/59
f 52/56/52 54/58/54 60/64/60
f 20/20/20 16/23/16 59/63/59
f 60/64/60 54/58/54 61/65/61
f 62/66/62 61/65/61 54/58/54
f 63/67/63 50/54/50 45/47/45
f 55/59/55 61/65/61 62/66/62
f 64/68/64 13/69/13 20/20/20
f 64/68/64 14/70/14 13/69/13
f 40/42/40 49/53/49 65/71/65
f 61/65/61 55/59/55 66/72/66
f 66/72/66 55/59/55 57/61/57
f 19/19/19 16/23/16 20/20/20
f 21/21/21 20/20/20 13/69/13
f 51/55/51 46/48/46 45/47/45
f 67/73/67 58/74/58 18/18/18
f 40/42/40 39/41/39 48/52/48
f 20/20/20 68/75/68 64/68/64
f 59/63/59 68/75/68 20/20/20
f 69/76/69 8/8/8 7/7/7
f 6/6/6 5/5/5 70/77/70
f 71/78/71 72/79/72 73/80/73
f 16/16/16 22/81/22 17/17/17
f 74/82/74 75/83/75 76/84/76
f 27/29/27 26/28/26 77/85/77
f 78/86/78 24/87/24 13/13/13
f 79/88/79 76/84/76 75/83/75
f 73/80/73 72/79/72 80/89/80
f 47/51/47 81/90/81 7/49/7
f 7/49/7 82/91/82 83/92/83
f 83/92/83 69/93/69 7/49/7
f 15/15/15 78/86/78 13/13/13
f 18/18/18 58/74/58 16/16/16
f 19/94/19 84/95/84 22/96/22
f 21/21/21 13/69/13 24/97/24
f 62/66/62 85/98/85 55/59/55
f 54/58/54 86/99/86 62/66/62
f 38/40/38 33/35/33 43/45/43
f 42/44/42 37/39/37 36/38/36
f 35/37/35 37/39/37 87/100/87
f 88/101/88 89/102/89 3/103/3 2/104/2
f 38/40/38 82/91/82 89/102/89 88/101/88
f 82/91/82 38/40/38 44/46/44 83/92/83
f 5/5/5 4/4/4 83/92/83 44/46/44
f 89/102/89 90/105/90 91/106/91 3/103/3
f 89/102/89 82/91/82 7/49/7 90/105/90
f 92/107/92 93/108/93 8/8/8 69/76/69
f 79/88/79 92/109/92 4/4/4 76/84/76
f 31/33/31 94/110/94 91/111/91 29/31/29
f 90/105/90 95/112/95 29/113/29 91/106/91
f 81/90/81 95/112/95 90/105/90 7/49/7
f 96/114/96 80/89/80 47/51/47 9/50/9
f 28/30/28 27/29/27 80/89/80 96/114/96
f 95/112/95 97/115/97 30/116/30 29/113/29
f 97/115/97 95/112/95 81/90/81 36/38/36
f 36/38/36 81/90/81 47/51/47 41/43/41
f 41/43/41 47/51/47 80/89/80 72/79/72
f 80/89/80 27/29/27 77/85/77 73/80/73
f 75/117/75 10/10/10 12/12/12 79/118/79
f 10/10/10 75/117/75 22/96/22 84/95/84
f 18/18/18 17/17/17 74/82/74 6/6/6
f 78/86/78 15/15/15 73/80/73 77/85/77
f 23/24/23 71/78/71 73/80/73 15/15/15
f 70/77/70 67/73/67 18/18/18 6/6/6
f 25/26/25 24/25/24 26/119/26 11/11/11
f 94/110/94 1/1/1 3/3/3 91/111/91
f 98/120/98 99/121/99 87/100/87 56/122/56
f 97/115/97 36/38/36 35/37/35 100/123/100
f 101/124/101 102/125/102 51/126/51 50/127/50
f 103/128/103 57/129/57 56/122/56 87/100/87
f 104/130/104 43/45/43 33/35/33 32/34/32
f 42/44/42 41/43/41 72/79/72 71/78/71
f 30/116/30 97/115/97 100/123/100 39/131/39
f 43/45/43 104/130/104 67/73/67 70/77/70
f 99/121/99 98/120/98 49/132/49 48/133/48
f 44/46/44 43/45/43 70/77/70 5/5/5
f 38/40/38 88/101/88 105/134/105 34/36/34
f 88/101/88 2/104/2 46/135/46 105/134/105
f 23/24/23 14/14/14 57/129/57 103/128/103
f 101/136/101 86/99/86 54/58/54 53/57/53
f 56/60/56 55/59/55 85/98/85 98/137/98
f 57/61/57 14/70/14 64/68/64 66/72/66
f 98/137/98 85/98/85 65/138/65 49/139/49
f 106/140/106 40/42/40 65/71/65 107/141/107
f 86/99/86 101/136/101 50/142/50 63/143/63
f 62/66/62 86/99/86 63/143/63 107/144/107
f 68/75/68 61/65/61 66/72/66 64/68/64
f 107/144/107 65/138/65 85/98/85 62/66/62
f 45/47/45 106/140/106 107/141/107 63/67/63
f 61/65/61 68/75/68 59/63/59 60/64/60
f 58/62/58 52/56/52 60/64/60 59/63/59
f 11/11/11 10/10/10 84/95/84 25/26/25
f 84/95/84 19/94/19 21/27/21 25/26/25
f 102/125/102 101/124/101 53/145/53 32/34/32
f 52/146/52 104/130/104 32/34/32 53/145/53
f 58/74/58 67/73/67 104/130/104 52/146/52
f 102/125/102 105/134/105 46/135/46 51/126/51
f 87/100/87 99/121/99 100/123/100 35/37/35
f 42/44/42 103/128/103 87/100/87 37/39/37
f 103/128/103 42/44/42 71/78/71 23/24/23
f 100/123/100 99/121/99 48/133/48 39/131/39
f 17/17/17 22/81/22 75/83/75 74/82/74
f 77/85/77 26/28/26 24/87/24 78/86/78
f 28/147/28 12/12/12 11/11/11 26/119/26
f 96/148/96 93/108/93 12/12/12 28/147/28
f 79/118/79 12/12/12 93/108/93 92/107/92
f 6/6/6 74/82/74 76/84/76 4/4/4
f 4/4/4 92/109/92 69/93/69 83/92/83
f 93/108/93 96/148/96 9/9/9 8/8/8
f 32/34/32 34/36/34 105/134/105 102/125/102
f 108/149/108 109/150/109 110/151/110
f 111/152/111 112/153/112 113/154/113
f 111/152/111 114/155/114 115/156/115
f 114/155/114 116/157/116 115/156/115
f 117/158/117 118/159/118 119/160/119
f 120/161/120 112/153/112 121/162/121
f 122/163/122 115/156/115 123/164/123
f 124/165/124 125/166/125 126/167/126
f 127/168/127 126/167/126 125/166/125
f 128/169/128 119/170/119 129/171/129
f 130/172/130 131/173/131 126/167/126
f 132/174/132 133/175/133 134/176/134
f 135/177/135 136/178/136 137/179/137
f 138/180/138 139/181/139 140/182/140
f 141/183/141 116/157/116 142/184/142
f 143/185/143 130/172/130 136/186/136
f 144/187/144 145/188/145 146/189/146
f 142/184/142 147/190/147 141/183/141
f 126/167/126 131/173/131 124/165/124
f 148/191/148 141/183/141 147/190/147
f 146/189/146 145/188/145 148/191/148
f 148/191/148 147/190/147 125/166/125
f 148/191/148 125/166/125 124/165/124
f 121/162/121 112/153/112 123/164/123
f 149/192/149 150/193/150 151/194/151
f 121/162/121 123/164/123 152/195/152
f 151/194/151 150/193/150 153/196/153
f 154/197/154 155/198/155 109/150/109
f 156/199/156 150/193/150 136/186/136
f 143/185/143 131/173/131 130/172/130
f 157/200/157 136/178/136 130/201/130
f 158/202/158 153/196/153 150/193/150
f 159/203/159 151/194/151 153/196/153
f 152/195/152 144/187/144 159/203/159
f 160/204/160 161/205/161 135/206/135
f 161/205/161 162/207/162 163/208/163
f 164/209/164 155/198/155 162/207/162
f 142/184/142 116/157/116 114/155/114
f 130/172/130 126/167/126 127/168/127
f 123/164/123 112/153/112 122/163/122
f 151/194/151 143/185/143 149/192/149
f 165/210/165 166/211/166 167/212/167
f 168/213/168 169/214/169 165/210/165
f 161/205/161 163/208/163 158/202/158
f 120/161/120 154/197/154 109/150/109
f 129/215/129 119/160/119 170/216/170
f 127/168/127 133/175/133 132/174/132
f 127/168/127 132/174/132 171/217/171
f 170/216/170 142/184/142 114/155/114
f 168/213/168 117/158/117 119/160/119
f 167/212/167 166/211/166 132/174/132
f 119/160/119 169/214/169 168/213/168
f 132/174/132 134/176/134 167/212/167
f 109/150/109 113/154/113 120/161/120
f 158/202/158 156/199/156 161/205/161
f 119/160/119 118/159/118 170/216/170
f 172/218/172 173/219/173 174/220/174
f 172/218/172 114/221/114 111/222/111
f 174/220/174 114/221/114 172/218/172
f 111/222/111 173/219/173 172/218/172
f 137/179/137 136/178/136 157/200/157
f 130/201/130 139/181/139 157/200/157
f 157/200/157 139/181/139 137/179/137
f 173/219/173 111/222/111 108/223/108
f 171/224/171 132/225/132 140/182/140
f 128/169/128 174/220/174 175/226/175
f 150/193/150 156/199/156 158/202/158
f 120/161/120 113/154/113 112/153/112
f 147/190/147 142/184/142 170/216/170
f 168/213/168 165/210/165 167/212/167
f 140/182/140 132/225/132 166/227/166
f 128/169/128 176/228/176 169/229/169
f 174/220/174 128/169/128 129/171/129
f 171/224/171 140/182/140 139/181/139
f 140/182/140 177/230/177 138/180/138
f 139/181/139 130/201/130 171/224/171
f 129/171/129 114/221/114 174/220/174
f 175/226/175 176/228/176 128/169/128
f 170/216/170 114/155/114 129/215/129
f 171/217/171 130/172/130 127/168/127
f 166/227/166 177/230/177 140/182/140
f 169/229/169 119/170/119 128/169/128
f 164/209/164 110/151/110 109/150/109 155/198/155
f 127/168/127 125/166/125 147/190/147 170/216/170
f 136/186/136 135/206/135 161/205/161 156/199/156
f 136/186/136 150/193/150 149/192/149 143/185/143
f 178/231/178 179/232/179 180/233/180 181/234/181
f 181/234/181 180/233/180 138/180/138 182/235/182
f 138/180/138 177/230/177 183/236/183 182/235/182
f 184/237/184 178/231/178 181/234/181 185/238/185
f 182/235/182 175/226/175 185/238/185 181/234/181
f 182/235/182 183/236/183 176/228/176 175/226/175
f 173/219/173 185/238/185 175/226/175 174/220/174
f 186/239/186 108/223/108 110/240/110 187/241/187
f 110/240/110 164/242/164 188/243/188 187/241/187
f 189/244/189 188/243/188 164/242/164 160/245/160
f 135/177/135 190/246/190 189/244/189 160/245/160
f 191/247/191 190/246/190 135/177/135 179/232/179
f 192/248/192 191/247/191 179/232/179 178/231/178
f 193/249/193 192/248/192 178/231/178 184/237/184
f 184/237/184 108/223/108 186/239/186 193/249/193
f 189/244/189 190/246/190 194/250/194 195/251/195
f 188/243/188 189/244/189 195/251/195 196/252/196
f 187/241/187 188/243/188 196/252/196 197/253/197
f 186/239/186 187/241/187 197/253/197 198/254/198
f 193/249/193 186/239/186 198/254/198 199/255/199
f 192/248/192 193/249/193 199/255/199 200/256/200
f 191/247/191 192/248/192 200/256/200 201/257/201
f 190/246/190 191/247/191 201/257/201 194/250/194
f 141/183/141 123/164/123 115/156/115 116/157/116
f 145/188/145 123/164/123 141/183/141 148/191/148
f 151/194/151 146/189/146 148/191/148 124/165/124
f 152/195/152 123/164/123 145/188/145 144/187/144
f 108/149/108 111/152/111 113/154/113 109/150/109
f 108/223/108 184/237/184 185/238/185 173/219/173
f 151/194/151 159/203/159 144/187/144 146/189/146
f 121/162/121 152/195/152 159/203/159 153/196/153
f 158/202/158 120/161/120 121/162/121 153/196/153
f 154/197/154 120/161/120 158/202/158 163/208/163
f 162/207/162 161/205/161 160/204/160 164/209/164
f 115/156/115 122/163/122 112/153/112 111/152/111
f 151/194/151 124/165/124 131/173/131 143/185/143
f 170/216/170 118/159/118 133/175/133 127/168/127
f 163/208/163 162/207/162 155/198/155 154/197/154
f 180/233/180 137/179/137 139/181/139 138/180/138
f 137/179/137 180/233/180 179/232/179 135/177/135
f 133/175/133 118/159/118 117/158/117 134/176/134
f 134/176/134 117/158/117 168/213/168 167/212/167
f 177/230/177 166/227/166 165/258/165 183/236/183
f 169/229/169 176/228/176 183/236/183 165/258/165
f 202/259/202 203/260/203 204/261/204
f 205/262/205 206/263/206 207/264/207
f 204/261/204 208/265/208 209/266/209
f 210/267/210 211/268/211 212/269/212
f 213/270/213 214/271/214 215/272/215
f 216/273/216 217/274/217 218/275/218
f 219/276/219 208/265/208 220/277/220
f 221/278/221 209/266/209 222/279/222
f 210/267/210 223/280/223 218/281/218
f 221/282/221 224/283/224 225/284/225
f 226/285/226 227/286/227 225/284/225
f 217/274/217 214/271/214 205/262/205
f 228/287/228 229/288/229 230/289/230 231/290/231
f 232/291/232 233/292/233 229/288/229 228/287/228
f 207/264/207 206/263/206 203/260/203 202/259/202
f 227/293/227 211/294/211 207/264/207 202/259/202
f 212/269/212 211/268/211 227/286/227 226/285/226
f 220/277/220 203/260/203 206/263/206 213/270/213
f 234/295/234 228/287/228 231/290/231 235/296/235
f 236/297/236 233/292/233 237/298/237 238/299/238
f 233/292/233 236/297/236 239/300/239 229/288/229
f 240/301/240 232/291/232 228/287/228 234/295/234
f 229/288/229 239/300/239 241/302/241 230/289/230
f 239/300/239 242/303/242 243/304/243 241/302/241
f 236/297/236 244/305/244 242/303/242 239/300/239
f 244/305/244 236/297/236 238/299/238 224/283/224
f 225/284/225 224/283/224 238/299/238 226/285/226
f 233/292/233 232/291/232 223/280/223 237/298/237
f 218/281/218 223/280/223 232/291/232 240/301/240
f 218/275/218 217/274/217 205/262/205 210/306/210
f 240/301/240 245/307/245 221/282/221 218/281/218
f 205/262/205 214/271/214 213/270/213 206/263/206
f 242/303/242 246/308/246 247/309/247 243/304/243
f 244/305/244 245/307/245 246/308/246 242/303/242
f 245/307/245 244/305/244 224/283/224 221/282/221
f 208/265/208 204/261/204 203/260/203 220/277/220
f 245/307/245 240/301/240 234/295/234 246/308/246
f 246/308/246 234/295/234 235/296/235 247/309/247
f 217/274/217 216/273/216 215/272/215 214/271/214
f 215/272/215 219/276/219 220/277/220 213/270/213
f 222/279/222 209/266/209 208/265/208 219/276/219
f 216/273/216 222/279/222 219/276/219 215/272/215
f 222/279/222 216/273/216 218/275/218 221/278/221
f 211/294/211 210/306/210 205/262/205 207/264/207
f 223/280/223 210/267/210 212/269/212 237/298/237
f 226/285/226 238/299/238 237/298/237 212/269/212
f 204/261/204 225/310/225 227/293/227 202/259/202
f 209/266/209 221/278/221 225/310/225 204/261/204
f 248/311/248 249/312/249 250/313/250 251/314/251
f 249/312/249 252/315/252 253/316/253 250/313/250
f 254/317/254 255/318/255 256/319/256 257/320/257
f 258/321/258 248/311/248 251/314/251 259/322/259
f 260/323/260 261/324/261 262/325/262 263/326/263
f 264/327/264 265/328/265 266/329/266 267/330/267
f 255/318/255 258/321/258 259/322/259 256/319/256
f 267/330/267 268/331/268 269/332/269 264/327/264
f 252/315/252 254/317/254 257/320/257 253/316/253
f 270/333/270 260/323/260 263/326/263 271/334/271
f 272/335/272 273/336/273 249/312/249 248/311/248
f 273/336/273 274/337/274 252/315/252 249/312/249
f 275/338/275 276/339/276 255/318/255 254/317/254
f 276/339/276 277/340/277 258/321/258 255/318/255
f 274/337/274 275/338/275 254/317/254 252/315/252
f 277/340/277 272/335/272 248/311/248 258/321/258
f 272/335/272 277/340/277 278/341/278 279/342/279
f 274/337/274 273/336/273 280/343/280 281/344/281
f 273/336/273 272/335/272 279/342/279 280/343/280
f 275/338/275 274/337/274 281/344/281 282/345/282
f 277/340/277 276/339/276 283/346/283 278/341/278
f 276/339/276 275/338/275 282/345/282 283/346/283
f 279/342/279 278/341/278 270/333/270 284/347/284
f 281/344/281 280/343/280 285/348/285 286/349/286
f 280/343/280 279/342/279 284/347/284 285/348/285
f 282/345/282 281/344/281 286/349/286 261/324/261
f 278/341/278 283/346/283 260/323/260 270/333/270
f 283/346/283 282/345/282 261/324/261 260/323/260
f 284/347/284 270/333/270 271/334/271 287/350/287
f 286/349/286 285/348/285 288/351/288 289/352/289
f 285/348/285 284/347/284 287/350/287 288/351/288
f 261/324/261 286/349/286 289/352/289 262/325/262
f 251/314/251 250/313/250 266/329/266 265/328/265
f 250/313/250 253/316/253 267/330/267 266/329/266
f 257/320/257 256/319/256 269/332/269 268/331/268
f 259/322/259 251/314/251 265/328/265 264/327/264
f 256/319/256 259/322/259 264/327/264 269/332/269
f 253/316/253 257/320/257 268/331/268 267/330/267
f 290/353/290 291/354/291 292/355/292
f 293/356/293 294/357/294 295/358/295
f 291/359/291 290/360/290 296/361/296
f 297/362/297 298/363/298 299/364/299
f 300/365/300 301/366/301 302/367/302
f 303/368/303 304/369/304 290/353/290
f 305/370/305 306/371/306 307/372/307
f 290/360/290 304/373/304 308/374/308
f 309/375/309 310/376/310 307/372/307
f 290/360/290 308/374/308 311/377/311
f 312/378/312 313/379/313 314/380/314
f 307/372/307 310/376/310 305/370/305
f 311/377/311 315/381/315 290/360/290
f 290/353/290 294/382/294 303/368/303
f 292/355/292 312/378/312 316/383/316 295/384/295
f 316/383/316 312/378/312 314/380/314 317/385/317
f 313/386/313 291/359/291 296/361/296 314/387/314
f 292/355/292 291/354/291 318/388/318 319/389/319
f 312/378/312 292/355/292 319/389/319 320/390/320
f 313/379/313 312/378/312 320/390/320 321/391/321
f 319/389/319 318/388/318 321/391/321 320/390/320
f 297/362/297 301/366/301 291/359/291 313/386/313
f 321/392/321 318/393/318 300/365/300 298/363/298
f 298/363/298 297/362/297 313/386/313 321/392/321
f 318/393/318 291/359/291 301/366/301 300/365/300
f 306/371/306 322/394/322 323/395/323 307/372/307
f 314/387/314 296/361/296 293/356/293 317/396/317
f 295/358/295 316/397/316 317/396/317 293/356/293
f 294/357/294 293/356/293 322/394/322 306/371/306
f 304/373/304 303/398/303 305/370/305 310/376/310
f 296/361/296 290/360/290 307/372/307 323/395/323
f 293/356/293 296/361/296 323/395/323 322/394/322
f 324/399/324 325/400/325 326/401/326 327/402/327
f 301/366/301 297/362/297 325/400/325 324/399/324
f 299/364/299 302/367/302 327/402/327 326/401/326
f 297/362/297 299/364/299 326/401/326 325/400/325
f 302/367/302 301/366/301 324/399/324 327/402/327
f 292/355/292 295/384/295 294/382/294 290/353/290
f 294/357/294 306/371/306 305/370/305 303/398/303
f 304/373/304 310/376/310 309/375/309 308/374/308
f 328/403/328 315/381/315 311/377/311 329/404/329
f 307/372/307 290/360/290 315/381/315 328/403/328
f 308/374/308 309/375/309 329/404/329 311/377/311
f 309/375/309 307/372/307 328/403/328 329/404/329
f 299/364/299 298/363/298 300/365/300 302/367/302
f 330/405/330 331/406/331 332/407/332
f 333/408/333 334/409/334 335/410/335
f 336/411/336 337/412/337 330/405/330
f 338/413/338 339/414/339 340/415/340
f 341/416/341 342/417/342 343/418/343
f 344/419/344 345/420/345 346/421/346
f 347/422/347 337/412/337 348/423/348
f 349/424/349 336/411/336 350/425/350
f 344/426/344 351/427/351 340/415/340
f 352/428/352 353/429/353 350/430/350
f 352/428/352 354/431/354 355/432/355
f 335/410/335 342/417/342 345/420/345
f 356/433/356 357/434/357 358/435/358 359/436/359
f 360/437/360 361/438/361 357/434/357 356/433/356
f 332/407/332 331/406/331 334/409/334 333/408/333
f 332/407/332 333/408/333 339/439/339 354/440/354
f 339/414/339 338/413/338 355/432/355 354/431/354
f 343/418/343 334/409/334 331/406/331 347/422/347
f 357/434/357 362/441/362 363/442/363 358/435/358
f 360/437/360 364/443/364 365/444/365 366/445/366
f 364/443/364 360/437/360 356/433/356 367/446/367
f 361/438/361 368/447/368 362/441/362 357/434/357
f 367/446/367 356/433/356 359/436/359 369/448/369
f 370/449/370 367/446/367 369/448/369 371/450/371
f 372/451/372 364/443/364 367/446/367 370/449/370
f 364/443/364 372/451/372 353/429/353 365/444/365
f 355/432/355 365/444/365 353/429/353 352/428/352
f 361/438/361 360/437/360 366/445/366 351/427/351
f 368/447/368 361/438/361 351/427/351 344/426/344
f 345/420/345 344/419/344 340/452/340 335/410/335
f 373/453/373 368/447/368 344/426/344 350/430/350
f 342/417/342 335/410/335 334/409/334 343/418/343
f 374/454/374 370/449/370 371/450/371 375/455/375
f 373/453/373 372/451/372 370/449/370 374/454/374
f 372/451/372 373/453/373 350/430/350 353/429/353
f 330/405/330 337/412/337 347/422/347 331/406/331
f 368/447/368 373/453/373 374/454/374 362/441/362
f 362/441/362 374/454/374 375/455/375 363/442/363
f 346/421/346 345/420/345 342/417/342 341/416/341
f 348/423/348 341/416/341 343/418/343 347/422/347
f 336/411/336 349/424/349 348/423/348 337/412/337
f 349/424/349 346/421/346 341/416/341 348/423/348
f 346/421/346 349/424/349 350/425/350 344/419/344
f 333/408/333 335/410/335 340/452/340 339/439/339
f 340/415/340 351/427/351 366/445/366 338/413/338
f 338/413/338 366/445/366 365/444/365 355/432/355
f 332/407/332 354/440/354 352/456/352 330/405/330
f 350/425/350 336/411/336 330/405/330 352/456/352
f 376/457/376 377/458/377 378/459/378 379/460/379
f 380/461/380 376/457/376 379/460/379 381/462/381
f 382/463/382 383/464/383 384/465/384 385/466/385
f 377/458/377 386/467/386 387/468/387 378/459/378
f 388/469/388 389/470/389 390/471/390 391/472/391
f 392/473/392 393/474/393 394/475/394 395/476/395
f 386/467/386 382/463/382 385/466/385 387/468/387
f 395/476/395 396/477/396 397/478/397 392/473/392
f 383/464/383 380/461/380 381/462/381 384/465/384
f 389/470/389 398/479/398 399/480/399 390/471/390
f 400/481/400 401/482/401 377/458/377 376/457/376
f 402/483/402 400/481/400 376/457/376 380/461/380
f 403/484/403 404/485/404 383/464/383 382/463/382
f 405/486/405 403/484/403 382/463/382 386/467/386
f 404/485/404 402/483/402 380/461/380 383/464/383
f 401/482/401 405/486/405 386/467/386 377/458/377
f 405/486/405 401/482/401 406/487/406 407/488/407
f 400/481/400 402/483/402 408/489/408 409/490/409
f 401/482/401 400/481/400 409/490/409 406/487/406
f 402/483/402 404/485/404 410/491/410 408/489/408
f 403/484/403 405/486/405 407/488/407 411/492/411
f 404/485/404 403/484/403 411/492/411 410/491/410
f 407/488/407 406/487/406 412/493/412 398/479/398
f 409/490/409 408/489/408 413/494/413 414/495/414
f 406/487/406 409/490/409 414/495/414 412/493/412
f 408/489/408 410/491/410 388/469/388 413/494/413
f 411/492/411 407/488/407 398/479/398 389/470/389
f 410/491/410 411/492/411 389/470/389 388/469/388
f 398/479/398 412/493/412 415/496/415 399/480/399
f 414/495/414 413/494/413 416/497/416 417/498/417
f 412/493/412 414/495/414 417/498/417 415/496/415
f 413/494/413 388/469/388 391/472/391 416/497/416
f 379/460/379 378/459/378 394/475/394 393/474/393
f 381/462/381 379/460/379 393/474/393 392/473/392
f 385/466/385 384/465/384 397/478/397 396/477/396
f 378/459/378 387/468/387 395/476/395 394/475/394
f 387/468/387 385/466/385 396/477/396 395/476/395
f 384/465/384 381/462/381 392/473/392 397/478/397
f 418/499/418 419/500/419 420/501/420
f 421/502/421 422/503/422 423/504/423
f 424/505/424 420/506/420 419/507/419
f 425/508/425 426/509/426 427/510/427
f 428/511/428 429/512/429 430/513/430
f 420/501/420 431/514/431 432/515/432
f 433/516/433 434/517/434 435/518/435
f 436/519/436 431/520/431 420/506/420
f 433/516/433 437/521/437 438/522/438
f 439/523/439 436/519/436 420/506/420
f 440/524/440 441/525/441 442/526/442
f 435/518/435 437/521/437 433/516/433
f 420/506/420 443/527/443 439/523/439
f 432/515/432 422/528/422 420/501/420
f 442/526/442 418/499/418 421/529/421 444/530/444
f 442/526/442 444/530/444 445/531/445 440/524/440
f 419/507/419 441/532/441 440/533/440 424/505/424
f 419/500/419 418/499/418 446/534/446 447/535/447
f 418/499/418 442/526/442 448/536/448 446/534/446
f 442/526/442 441/525/441 449/537/449 448/536/448
f 447/535/447 446/534/446 448/536/448 449/537/449
f 441/532/441 419/507/419 429/512/429 427/510/427
f 447/538/447 449/539/449 426/509/426 430/513/430
f 449/539/449 441/532/441 427/510/427 426/509/426
f 430/513/430 429/512/429 419/507/419 447/538/447
f 450/540/450 434/517/434 433/516/433 451/541/451
f 424/505/424 440/533/440 445/542/445 423/504/423
f 444/543/444 421/502/421 423/504/423 445/542/445
f 434/517/434 450/540/450 423/504/423 422/503/422
f 432/544/432 431/520/431 437/521/437 435/518/435
f 420/506/420 424/505/424 451/541/451 433/516/433
f 424/505/424 423/504/423 450/540/450 451/541/451
f 452/545/452 453/546/453 454/547/454 455/548/455
f 453/546/453 452/545/452 427/510/427 429/512/429
f 428/511/428 425/508/425 455/548/455 454/547/454
f 425/508/425 427/510/427 452/545/452 455/548/455
f 429/512/429 428/511/428 454/547/454 453/546/453
f 421/529/421 418/499/418 420/501/420 422/528/422
f 432/544/432 435/518/435 434/517/434 422/503/422
f 437/521/437 431/520/431 436/519/436 438/522/438
f 443/527/443 456/549/456 457/550/457 439/523/439
f 420/506/420 433/516/433 456/549/456 443/527/443
f 438/522/438 436/519/436 439/523/439 457/550/457
f 433/516/433 438/522/438 457/550/457 456/549/456
f 428/511/428 430/513/430 426/509/426 425/508/425
f 458/551/458 459/552/459 460/553/460
f 460/553/460 461/554/461 462/555/462
f 463/556/463 464/557/464 465/558/465
f 466/559/466 467/560/467 468/561/468
f 462/555/462 458/551/458 460/553/460
f 469/562/469 466/563/466 458/564/458
f 466/563/466 469/562/469 470/565/470
f 465/566/465 471/567/471 472/568/472
f 472/568/472 469/562/469 465/566/465
f 470/565/470 473/569/473 466/563/466
f 466/563/466 473/569/473 467/570/467
f 472/568/472 470/565/470 469/562/469
f 464/571/464 471/567/471 465/566/465
f 474/572/474 475/573/475 476/574/476
f 477/575/477 478/576/478 479/577/479
f 480/578/480 481/579/481 482/580/482
f 476/574/476 483/581/483 474/572/474
f 474/572/474 484/582/484 485/583/485
f 486/584/486 487/585/487 488/586/488 489/587/489
f 487/585/487 486/584/486 490/588/490 491/589/491
f 462/555/462 461/554/461 463/556/463 465/558/465
f 492/590/492 463/556/463 461/554/461 460/553/460
f 467/591/467 493/592/493 494/593/494 495/594/495
f 468/561/468 492/590/492 460/553/460 459/552/459
f 459/552/459 458/551/458 466/559/466 468/561/468
f 496/595/496 464/596/464 495/594/495 494/593/494
f 464/557/464 463/556/463 492/590/492 495/597/495
f 495/597/495 492/590/492 468/561/468 467/560/467
f 497/598/497 487/599/487 491/600/491 498/601/498
f 499/602/499 488/603/488 487/599/487 497/598/497
f 465/566/465 469/562/469 458/564/458 462/604/462
f 500/605/500 501/606/501 491/589/491 490/588/490
f 502/607/502 503/608/503 471/567/471 464/571/464
f 493/592/493 467/591/467 501/606/501 500/605/500
f 503/608/503 499/609/499 485/583/485 504/610/504
f 505/611/505 470/565/470 472/568/472 504/610/504
f 504/610/504 485/583/485 484/582/484 505/611/505
f 504/610/504 472/568/472 471/567/471 503/608/503
f 470/565/470 505/611/505 506/612/506 473/569/473
f 488/613/488 499/609/499 503/608/503 502/607/502
f 505/611/505 484/582/484 498/614/498 506/612/506
f 499/602/499 497/598/497 476/615/476 475/616/475
f 483/617/483 476/615/476 497/598/497 498/601/498
f 485/583/485 499/609/499 475/573/475 474/572/474
f 464/596/464 496/595/496 507/618/507 502/619/502
f 489/587/489 488/586/488 502/619/502 507/618/507
f 467/570/467 473/569/473 506/612/506 501/620/501
f 501/620/501 506/612/506 498/614/498 491/621/491
f 496/622/496 494/623/494 478/576/478 477/575/477
f 489/624/489 507/625/507 508/626/508 482/580/482
f 482/580/482 481/579/481 486/627/486 489/624/489
f 493/628/493 500/629/500 509/630/509 479/577/479
f 494/623/494 493/628/493 479/577/479 478/576/478
f 507/625/507 496/622/496 477/575/477 508/626/508
f 490/631/490 486/627/486 481/579/481 480/578/480
f 500/629/500 490/631/490 480/578/480 509/630/509
f 509/630/509 480/578/480 482/580/482 508/626/508
f 508/626/508 477/575/477 479/577/479 509/630/509
f 498/614/498 484/582/484 474/572/474 483/581/483
f 510/632/510 511/633/511 512/634/512 513/635/513
f 514/636/514 515/637/515 516/638/516 517/639/517
f 511/633/511 518/640/518 519/641/519 512/634/512
f 520/642/520 514/636/514 517/639/517 521/643/521
f 522/644/522 520/642/520 521/643/521 523/645/523
f 524/646/524 510/632/510 513/635/513 525/647/525
f 526/648/526 522/644/522 523/645/523 527/649/527
f 528/650/528 529/651/529 530/652/530 531/653/531
f 532/654/532 526/648/526 527/649/527 533/655/533
f 515/637/515 532/654/532 533/655/533 516/638/516
f 534/656/534 535/657/535 515/637/515 514/636/514
f 536/658/536 537/659/537 520/642/520 522/644/522
f 537/659/537 534/656/534 514/636/514 520/642/520
f 538/660/538 536/658/536 522/644/522 526/648/526
f 535/657/535 539/661/539 532/654/532 515/637/515
f 539/661/539 538/660/538 526/648/526 532/654/532
f 535/657/535 534/656/534 540/662/540 541/663/541
f 537/659/537 536/658/536 542/664/542 543/665/543
f 534/656/534 537/659/537 543/665/543 540/662/540
f 536/658/536 538/660/538 544/666/544 542/664/542
f 539/661/539 535/657/535 541/663/541 545/667/545
f 538/660/538 539/661/539 545/667/545 544/666/544
f 541/663/541 540/662/540 528/650/528 518/640/518
f 543/665/543 542/664/542 524/646/524 529/651/529
f 540/662/540 543/665/543 529/651/529 528/650/528
f 542/664/542 544/666/544 510/632/510 524/646/524
f 545/667/545 541/663/541 518/640/518 511/633/511
f 544/666/544 545/667/545 511/633/511 510/632/510
f 518/640/518 528/650/528 531/653/531 519/641/519
f 529/651/529 524/646/524 525/647/525 530/652/530
f 546/668/546 547/669/547 548/670/548
f 549/671/549 550/672/550 551/673/551
f 552/674/552 553/675/553 554/676/554 555/677/555
f 556/678/556 557/679/557 555/677/555 554/676/554
f 558/680/558 552/674/552 555/677/555 557/679/557
f 559/681/559 558/680/558 557/679/557 556/678/556
f 560/682/560 559/681/559 556/678/556 561/683/561
f 554/676/554 562/684/562 561/683/561 556/678/556
f 563/685/563 560/682/560 561/683/561 562/684/562
f 553/675/553 563/685/563 562/684/562 554/676/554
f 553/675/553 552/674/552 564/686/564 565/687/565
f 564/686/564 552/674/552 558/680/558 566/688/566
f 558/680/558 559/681/559 567/689/567 566/688/566
f 568/690/568 567/689/567 559/681/559 560/682/560
f 569/691/569 568/690/568 560/682/560 563/685/563
f 565/687/565 569/691/569 563/685/563 553/675/553
f 570/692/570 571/693/571 565/687/565 564/686/564
f 572/694/572 573/695/573 566/688/566 567/689/567
f 566/688/566 573/695/573 570/692/570 564/686/564
f 574/696/574 572/694/572 567/689/567 568/690/568
f 569/691/569 565/687/565 571/693/571 575/697/575
f 574/696/574 568/690/568 569/691/569 575/697/575
f 571/693/571 570/692/570 576/698/576 577/699/577
f 573/695/573 572/694/572 578/700/578 579/701/579
f 573/695/573 579/701/579 576/698/576 570/692/570
f 572/694/572 574/696/574 580/702/580 578/700/578
f 575/697/575 571/693/571 577/699/577 581/703/581
f 580/702/580 574/696/574 575/697/575 581/703/581
f 548/670/548 547/669/547 577/699/577 576/698/576
f 551/673/551 550/672/550 579/701/579 578/700/578
f 548/670/548 576/698/576 579/701/579 550/672/550
f 549/671/549 551/673/551 578/700/578 580/702/580
f 547/669/547 546/668/546 581/703/581 577/699/577
f 549/671/549 580/702/580 581/703/581 546/668/546
f 550/672/550 549/671/549 546/668/546 548/670/548
f 582/704/582 583/705/583 584/706/584
f 585/707/585 586/708/586 587/709/587
f 585/707/585 587/709/587 588/710/588
f 588/710/588 589/711/589 585/707/585
f 582/704/582 590/712/590 583/705/583
f 584/706/584 591/713/591 582/704/582
f 592/714/592 588/710/588 587/709/587 593/715/593
f 594/716/594 595/717/595 596/718/596 597/719/597
f 591/713/591 594/716/594 597/719/597 598/720/598
f 595/717/595 599/721/599 600/722/600 596/718/596
f 584/706/584 601/723/601 594/716/594 591/713/591
f 602/724/602 583/705/583 590/712/590 599/721/599
f 599/721/599 590/712/590 603/725/603 600/722/600
f 590/712/590 582/704/582 604/726/604 603/725/603
f 582/704/582 591/713/591 598/720/598 604/726/604
f 586/708/586 585/707/585 595/727/595 594/728/594
f 594/716/594 601/723/601 605/729/605 586/730/586
f 585/707/585 589/711/589 599/731/599 595/727/595
f 602/724/602 599/721/599 589/732/589 606/733/606
f 586/730/586 605/729/605 593/734/593 587/735/587
f 606/733/606 589/732/589 588/736/588 592/737/592
f 605/738/605 601/739/601 602/740/602 606/741/606
f 601/723/601 584/706/584 583/705/583 602/724/602
f 606/741/606 592/714/592 593/715/593 605/738/605
f 607/742/607 608/743/608 609/744/609 610/745/610
f 611/746/611 612/747/612 613/748/613 614/749/614
f 615/750/615 607/742/607 610/745/610 616/751/616
f 612/747/612 617/752/617 618/753/618 613/748/613
f 617/752/617 619/754/619 620/755/620 618/753/618
f 608/743/608 621/756/621 622/757/622 609/744/609
f 619/754/619 623/758/623 624/759/624 620/755/620
f 625/760/625 626/761/626 627/762/627 628/763/628
f 623/758/623 629/764/629 630/765/630 624/759/624
f 629/764/629 611/746/611 614/749/614 630/765/630
f 631/766/631 632/767/632 612/747/612 611/746/611
f 633/768/633 634/769/634 619/754/619 617/752/617
f 632/767/632 633/768/633 617/752/617 612/747/612
f 634/769/634 635/770/635 623/758/623 619/754/619
f 636/771/636 631/766/631 611/746/611 629/764/629
f 635/770/635 636/771/636 629/764/629 623/758/623
f 632/767/632 631/766/631 637/772/637 638/773/638
f 634/769/634 633/768/633 639/774/639 640/775/640
f 633/768/633 632/767/632 638/773/638 639/774/639
f 635/770/635 634/769/634 640/775/640 641/776/641
f 631/766/631 636/771/636 642/777/642 637/772/637
f 636/771/636 635/770/635 641/776/641 642/777/642
f 638/773/638 637/772/637 615/750/615 626/761/626
f 640/775/640 639/774/639 625/760/625 621/756/621
f 639/774/639 638/773/638 626/761/626 625/760/625
f 641/776/641 640/775/640 621/756/621 608/743/608
f 637/772/637 642/777/642 607/742/607 615/750/615
f 642/777/642 641/776/641 608/743/608 607/742/607
f 626/761/626 615/750/615 616/751/616 627/762/627
f 621/756/621 625/760/625 628/763/628 622/757/622
f 643/778/643 644/779/644 645/780/645
f 646/781/646 647/782/647 648/783/648
f 649/784/649 650/785/650 651/786/651 652/787/652
f 652/787/652 651/786/651 653/788/653 654/789/654
f 650/785/650 655/790/655 653/788/653 651/786/651
f 655/790/655 656/791/656 654/789/654 653/788/653
f 656/791/656 657/792/657 658/793/658 654/789/654
f 654/789/654 658/793/658 659/794/659 652/787/652
f 657/792/657 660/795/660 659/794/659 658/793/658
f 660/795/660 649/784/649 652/787/652 659/794/659
f 661/796/661 662/797/662 650/785/650 649/784/649
f 650/785/650 662/797/662 663/798/663 655/790/655
f 663/798/663 664/799/664 656/791/656 655/790/655
f 664/799/664 665/800/665 657/792/657 656/791/656
f 660/795/660 657/792/657 665/800/665 666/801/666
f 649/784/649 660/795/660 666/801/666 661/796/661
f 662/797/662 661/796/661 667/802/667 668/803/668
f 669/804/669 670/805/670 664/799/664 663/798/663
f 669/804/669 663/798/663 662/797/662 668/803/668
f 670/805/670 671/806/671 665/800/665 664/799/664
f 672/807/672 667/802/667 661/796/661 666/801/666
f 672/807/672 666/801/666 665/800/665 671/806/671
f 668/803/668 667/802/667 673/808/673 674/809/674
f 670/805/670 669/804/669 675/810/675 676/811/676
f 675/810/675 669/804/669 668/803/668 674/809/674
f 676/811/676 677/812/677 671/806/671 670/805/670
f 678/813/678 673/808/673 667/802/667 672/807/672
f 671/806/671 677/812/677 678/813/678 672/807/672
f 644/779/644 643/778/643 674/809/674 673/808/673
f 647/782/647 646/781/646 676/811/676 675/810/675
f 647/782/647 675/810/675 674/809/674 643/778/643
f 677/812/677 676/811/676 646/781/646 648/783/648
f 673/808/673 678/813/678 645/780/645 644/779/644
f 645/780/645 678/813/678 677/812/677 648/783/648
f 648/783/648 647/782/647 643/778/643 645/780/645
f 679/814/679 680/815/680 681/816/681
f 682/817/682 683/818/683 684/819/684
f 685/820/685 682/817/682 684/819/684
f 684/819/684 686/821/686 685/820/685
f 680/815/680 687/822/687 681/816/681
f 681/816/681 688/823/688 679/814/679
f 689/824/689 682/817/682 685/820/685 690/825/690
f 691/826/691 692/827/692 693/828/693 694/829/694
f 694/829/694 688/823/688 695/830/695 691/826/691
f 696/831/696 693/828/693 692/827/692 697/832/697
f 698/833/698 679/814/679 688/823/688 694/829/694
f 680/815/680 699/834/699 696/831/696 687/822/687
f 687/822/687 696/831/696 697/832/697 700/835/700
f 681/816/681 687/822/687 700/835/700 701/836/701
f 688/823/688 681/816/681 701/836/701 695/830/695
f 684/819/684 683/818/683 694/837/694 693/838/693
f 698/833/698 694/829/694 683/839/683 702/840/702
f 686/821/686 684/819/684 693/838/693 696/841/696
f 696/831/696 699/834/699 703/842/703 686/843/686
f 702/840/702 683/839/683 682/844/682 689/845/689
f 686/843/686 703/842/703 690/846/690 685/847/685
f 703/848/703 699/849/699 698/850/698 702/851/702
f 679/814/679 698/833/698 699/834/699 680/815/680
f 702/851/702 689/824/689 690/825/690 703/848/703
f 704/852/704 705/853/704 706/854/704 707/855/704
f 708/856/705 709/857/705 710/858/705 711/859/705
