# Blender 5.1.2
# www.blender.org
mtllib terrain.mtl
o Plane
v -1.000000 0.000000 -1.000000
v 1.000000 0.000000 -1.000000
v -1.000000 0.000000 1.000000
v 1.000000 -0.001861 1.000000
v -1.000000 0.000000 0.818182
v -1.000000 0.000000 0.636364
v -1.000000 0.000000 0.454545
v -1.000000 0.000000 0.272727
v -1.000000 0.000000 0.090909
v -1.000000 0.000000 -0.090909
v -1.000000 -0.010485 -0.272727
v -1.000000 -0.019294 -0.454545
v -1.000000 -0.010485 -0.636364
v -1.000000 0.000000 -0.818182
v -0.818182 0.000000 -1.000000
v -0.636364 0.000000 -1.000000
v -0.454545 0.000000 -1.000000
v -0.272727 0.000000 -1.000000
v -0.090909 0.000000 -1.000000
v 0.090909 0.000000 -1.000000
v 0.272727 0.000000 -1.000000
v 0.454545 0.000000 -1.000000
v 0.636364 0.000000 -1.000000
v 0.818182 0.000000 -1.000000
v 1.000000 0.000000 -0.818182
v 1.000000 0.000000 -0.636364
v 1.000000 0.000000 -0.454545
v 1.000000 0.000000 -0.272727
v 1.000000 0.000000 -0.090909
v 1.002394 -0.000546 0.090533
v 0.998375 -0.000326 0.269445
v 0.995864 -0.000004 0.449563
v 0.998177 0.000928 0.633081
v 1.001951 -0.002074 0.817805
v 0.818182 -0.001013 1.000000
v 0.636087 0.000032 0.999942
v 0.454545 0.000000 1.000000
v 0.272727 0.000000 1.000000
v 0.090909 0.000000 1.000000
v -0.090909 0.000000 1.000000
v -0.272727 0.000000 1.000000
v -0.454545 0.000000 1.000000
v -0.636364 0.000000 1.000000
v -0.818182 0.000000 1.000000
v -0.818182 -0.010485 -0.818182
v -0.818182 -0.046856 -0.636364
v -0.818182 -0.066971 -0.454545
v -0.818182 -0.046856 -0.272727
v -0.818182 -0.010485 -0.090909
v -0.818182 0.000000 0.090909
v -0.818182 0.000000 0.272727
v -0.818182 0.000000 0.454545
v -0.818182 0.000000 0.636364
v -0.818182 0.000000 0.818182
v -0.636364 -0.019294 -0.818182
v -0.636364 -0.066971 -0.636364
v -0.636364 -0.094014 -0.454545
v -0.636364 -0.066971 -0.272727
v -0.636364 -0.019294 -0.090909
v -0.636364 0.000000 0.090909
v -0.636364 0.000000 0.272727
v -0.636364 0.000000 0.454545
v -0.636364 0.000000 0.636364
v -0.636364 0.000000 0.818182
v -0.454545 -0.010485 -0.818182
v -0.454545 -0.046856 -0.636364
v -0.454545 -0.066971 -0.454545
v -0.454545 -0.046856 -0.272727
v -0.454545 -0.010485 -0.090909
v -0.454545 0.000000 0.090909
v -0.454545 -0.010128 0.272727
v -0.454545 -0.018637 0.454545
v -0.454545 -0.010128 0.636364
v -0.454545 0.000000 0.818182
v -0.272727 0.000000 -0.818182
v -0.272727 -0.010485 -0.636364
v -0.272727 -0.019294 -0.454545
v -0.272727 -0.009935 -0.272727
v -0.272727 0.000000 -0.090909
v -0.272727 -0.010128 0.090909
v -0.272727 -0.045259 0.272727
v -0.272727 -0.064689 0.454545
v -0.272727 -0.045259 0.636364
v -0.272727 -0.010128 0.818182
v -0.090909 0.000000 -0.818182
v -0.090909 0.003689 -0.636364
v -0.090909 0.031550 -0.454545
v -0.090909 0.047852 -0.272727
v -0.090909 0.031550 -0.090909
v -0.090909 -0.014996 0.090909
v -0.090909 -0.064689 0.272727
v -0.090909 -0.090811 0.454545
v -0.090909 -0.064689 0.636364
v -0.090909 -0.018637 0.818182
v 0.090909 0.000000 -0.818182
v 0.090909 0.031550 -0.636364
v 0.090909 0.093582 -0.454545
v 0.090909 0.124809 -0.272727
v 0.090909 0.093582 -0.090909
v 0.090909 0.021377 0.090909
v 0.090909 -0.046545 0.272727
v 0.090731 -0.071153 0.454508
v 0.090909 -0.045419 0.636364
v 0.090909 -0.010128 0.818182
v 0.272727 0.000550 -0.818182
v 0.272727 0.047852 -0.636364
v 0.272727 0.124809 -0.454545
v 0.272727 0.165181 -0.272727
v 0.272727 0.124809 -0.090909
v 0.271025 0.034738 0.090553
v 0.256858 -0.087902 0.269407
v 0.248724 -0.125256 0.449524
v 0.256860 -0.076974 0.633044
v 0.270869 -0.004850 0.817793
v 0.454545 0.000000 -0.818182
v 0.454545 0.031550 -0.636364
v 0.454545 0.093582 -0.454545
v 0.454545 0.124809 -0.272727
v 0.454545 0.093582 -0.090909
v 0.438873 -0.025804 0.087630
v 0.407414 -0.173438 0.262868
v 0.391688 -0.226515 0.441396
v 0.407414 -0.163015 0.626504
v 0.438656 -0.039446 0.814858
v 0.636364 0.000000 -0.818182
v 0.636364 0.003689 -0.636364
v 0.636364 0.031550 -0.454545
v 0.636364 0.047852 -0.272727
v 0.636112 0.031579 -0.090962
v 0.612268 -0.061778 0.085868
v 0.573742 -0.212871 0.259578
v 0.553194 -0.295958 0.437142
v 0.573929 -0.205997 0.623214
v 0.612264 -0.048454 0.813140
v 0.818182 0.000000 -0.818182
v 0.818182 0.000000 -0.636364
v 0.818182 0.000000 -0.454545
v 0.818182 0.000550 -0.272727
v 0.818182 0.000000 -0.090909
v 0.805014 -0.017544 0.087591
v 0.779211 -0.119508 0.262888
v 0.764500 -0.186052 0.441418
v 0.779723 -0.114886 0.626526
v 0.804878 -0.012125 0.814864
vn 0.0500 -0.9972 0.0563
vn -0.0000 -1.0000 -0.0000
vn -0.0000 -0.9985 0.0556
vn 0.0465 -0.9937 0.1019
vn 0.0294 -0.9980 0.0556
vn -0.2014 -0.9791 0.0281
vn -0.0485 -0.9760 0.2121
vn 0.1786 -0.9577 0.2258
vn -0.0575 -0.9967 -0.0575
vn -0.1959 -0.9795 -0.0475
vn -0.1959 -0.9795 0.0475
vn -0.0575 -0.9967 0.0575
vn -0.0000 -0.9983 -0.0576
vn -0.0475 -0.9795 -0.1959
vn -0.1093 -0.9880 -0.1093
vn -0.1093 -0.9880 0.1093
vn -0.0475 -0.9795 0.1959
vn -0.0000 -0.9983 0.0576
vn 0.0481 -0.9933 -0.1054
vn 0.1064 -0.9618 -0.2522
vn 0.1456 -0.9786 -0.1456
vn 0.1456 -0.9786 0.1456
vn 0.1064 -0.9618 0.2522
vn 0.0481 -0.9933 0.1054
vn -0.0556 -0.9985 -0.0000
vn 0.0575 -0.9967 -0.0575
vn 0.1925 -0.9622 -0.1925
vn 0.2522 -0.9618 -0.1064
vn 0.2522 -0.9618 0.1064
vn 0.1953 -0.9617 0.1924
vn 0.0575 -0.9967 0.0575
vn -0.0555 -0.9969 -0.0555
vn -0.1895 -0.9808 -0.0459
vn -0.1895 -0.9808 0.0459
vn -0.0555 -0.9969 0.0555
vn 0.0776 -0.9953 -0.0574
vn 0.0776 -0.9958 -0.0482
vn 0.2690 -0.9619 0.0495
vn 0.1707 -0.9839 0.0538
vn -0.0267 -0.9981 -0.0556
vn -0.0263 -0.9815 -0.1896
vn -0.1057 -0.9888 -0.1057
vn -0.1057 -0.9888 0.1057
vn -0.0459 -0.9808 0.1895
vn -0.0000 -0.9998 0.0203
vn 0.1498 -0.9773 0.1498
vn 0.3217 -0.9430 0.0846
vn 0.3217 -0.9430 -0.0846
vn 0.1903 -0.9511 -0.2435
vn 0.0958 -0.9602 -0.2624
vn 0.1065 -0.9842 -0.1414
vn 0.1065 -0.9842 0.1414
vn 0.1022 -0.9643 0.2442
vn 0.0030 -0.9853 0.1710
vn 0.0846 -0.9430 0.3217
vn 0.1669 -0.9717 0.1669
vn 0.1669 -0.9717 -0.1669
vn 0.0681 -0.9272 -0.3682
vn -0.2338 -0.9108 -0.3403
vn -0.2422 -0.9614 -0.1304
vn -0.1823 -0.9735 0.1379
vn -0.1799 -0.9657 0.1874
vn -0.0030 -1.0000 0.0030
vn -0.0864 -0.9642 0.2508
vn -0.1562 -0.9096 0.3850
vn -0.2118 -0.9541 0.2118
vn -0.2118 -0.9541 -0.2118
vn -0.1520 -0.8848 -0.4406
vn -0.2904 -0.7783 -0.5567
vn -0.4907 -0.8485 -0.1981
vn -0.4732 -0.8466 0.2437
vn -0.1814 -0.9113 0.3695
vn -0.1493 -0.9742 0.1691
vn -0.3073 -0.9006 0.3073
vn -0.3850 -0.9096 0.1562
vn -0.3850 -0.9096 -0.1562
vn -0.2697 -0.7894 -0.5515
vn -0.1870 -0.7345 -0.6524
vn -0.2259 -0.9281 -0.2958
vn -0.2295 -0.9145 0.3332
vn -0.1966 -0.8045 0.5604
vn -0.0203 -0.9996 0.0203
vn -0.1691 -0.9742 0.1493
vn -0.2508 -0.9642 0.0864
vn -0.2508 -0.9641 -0.0867
vn 0.2051 -0.8767 -0.4352
vn 0.3474 -0.7443 -0.5704
vn 0.4396 -0.8320 -0.3384
vn 0.4257 -0.8323 0.3550
vn 0.3269 -0.7588 0.5634
vn -0.0030 -1.0000 -0.0030
vn 0.0868 -0.9921 -0.0911
vn 0.4471 -0.8002 -0.3997
vn 0.6147 -0.7543 -0.2305
vn 0.6027 -0.7602 0.2427
vn 0.4221 -0.8183 0.3901
vn -0.0047 -1.0000 0.0011
vn -0.0465 -0.9937 0.1019
vn -0.0000 -0.9996 0.0266
vn -0.0000 -0.9780 0.2084
vn 0.0003 -0.9679 0.2512
vn -0.0057 -0.9982 0.0603
vn -0.1925 -0.9622 -0.1925
vn -0.2522 -0.9618 -0.1064
vn -0.2522 -0.9618 0.1064
vn -0.1925 -0.9622 0.1925
vn -0.0481 -0.9933 -0.1054
vn -0.1064 -0.9618 -0.2522
vn -0.1456 -0.9786 -0.1456
vn -0.1456 -0.9786 0.1456
vn -0.1064 -0.9618 0.2522
vn -0.0481 -0.9933 0.1054
vn 0.0475 -0.9795 -0.1959
vn 0.1093 -0.9880 -0.1093
vn 0.1093 -0.9880 0.1093
vn 0.0475 -0.9795 0.1959
vn -0.1019 -0.9937 -0.0465
vn -0.1019 -0.9937 0.0465
vn 0.1959 -0.9795 -0.0475
vn 0.1987 -0.9788 0.0504
vn 0.0575 -0.9969 0.0545
vn -0.1864 -0.9646 -0.1864
vn -0.2442 -0.9642 -0.1030
vn -0.2442 -0.9642 0.1030
vn -0.1864 -0.9646 0.1864
vn 0.2664 -0.9527 0.1460
vn 0.3018 -0.9496 0.0851
vn 0.3018 -0.9496 -0.0851
vn 0.1658 -0.9554 -0.2446
vn -0.1025 -0.9595 -0.2623
vn -0.1408 -0.9800 -0.1408
vn -0.1408 -0.9800 0.1408
vn -0.1030 -0.9642 0.2442
vn 0.1493 -0.9742 0.1691
vn 0.3073 -0.9006 0.3073
vn 0.3850 -0.9096 0.1562
vn 0.3850 -0.9096 -0.1562
vn 0.3023 -0.8859 -0.3518
vn 0.1842 -0.9207 -0.3440
vn 0.0984 -0.9862 -0.1334
vn 0.1044 -0.9847 0.1392
vn 0.0459 -0.9806 0.1903
vn 0.0030 -1.0000 0.0030
vn 0.0864 -0.9642 0.2508
vn 0.1562 -0.9096 0.3850
vn 0.2118 -0.9541 0.2118
vn 0.2118 -0.9541 -0.2118
vn 0.1521 -0.8859 -0.4383
vn 0.0601 -0.8255 -0.5613
vn -0.3228 -0.9237 -0.2061
vn -0.3061 -0.9173 0.2549
vn 0.0281 -0.9319 0.3617
vn -0.0030 -0.9853 0.1710
vn -0.0846 -0.9430 0.3217
vn -0.1669 -0.9717 0.1669
vn -0.1669 -0.9717 -0.1669
vn -0.2920 -0.7830 -0.5492
vn -0.4039 -0.6626 -0.6307
vn -0.5654 -0.7757 -0.2804
vn -0.5368 -0.7830 0.3142
vn -0.3968 -0.7359 0.5486
vn -0.1498 -0.9773 0.1498
vn -0.3217 -0.9430 0.0846
vn -0.3220 -0.9429 -0.0849
vn -0.1831 -0.8590 -0.4782
vn -0.1577 -0.7275 -0.6677
vn -0.3664 -0.8258 -0.4288
vn -0.3450 -0.8294 0.4394
vn -0.0334 -0.7659 0.6421
vn -0.0203 -0.9998 -0.0000
vn -0.1710 -0.9853 0.0030
vn -0.1709 -0.9853 -0.0030
vn -0.1699 -0.9794 -0.1088
vn 0.2014 -0.8593 -0.4702
vn 0.3997 -0.8692 -0.2911
vn 0.3815 -0.8729 0.3042
vn 0.1610 -0.8753 0.4561
vn -0.0000 -1.0000 -0.0030
vn 0.0858 -0.9963 0.0032
vn 0.4775 -0.8786 0.0082
vn 0.4684 -0.8835 -0.0014
vn 0.0512 -0.9985 -0.0173
vt 0.939320 0.874642
vt 0.852922 0.965847
vt 0.845544 0.876183
vt 0.085622 0.909091
vt 0.000000 1.000000
vt 0.000316 0.912499
vt 0.170927 0.905683
vt 0.085305 0.996592
vt 0.255916 0.989776
vt 0.170611 0.993184
vt 0.256233 0.902275
vt 0.341222 0.986369
vt 0.340209 0.898124
vt 0.426527 0.982961
vt 0.510820 0.891308
vt 0.424399 0.894091
vt 0.595947 0.888136
vt 0.511833 0.979553
vt 0.670135 0.881038
vt 0.597138 0.976145
vt 0.750410 0.876297
vt 0.682444 0.972737
vt 0.767624 0.969309
vt 0.088786 0.034079
vt 0.003164 0.124988
vt 0.003481 0.037486
vt 0.087094 0.120810
vt 0.001472 0.211719
vt 0.082006 0.205642
vt 0.000000 0.298574
vt 0.081373 0.380644
vt 0.000839 0.386722
vt 0.085828 0.470815
vt 0.001899 0.474993
vt 0.086888 0.559086
vt 0.001582 0.562494
vt 0.001266 0.649995
vt 0.086571 0.646587
vt 0.000949 0.737496
vt 0.086255 0.734088
vt 0.000633 0.824998
vt 0.085938 0.821590
vt 0.174092 0.030671
vt 0.171244 0.116756
vt 0.164672 0.200757
vt 0.079050 0.291666
vt 0.164039 0.375760
vt 0.169978 0.466761
vt 0.172193 0.555678
vt 0.171877 0.643179
vt 0.171560 0.730681
vt 0.171244 0.818182
vt 0.257705 0.113994
vt 0.252617 0.198826
vt 0.249661 0.284850
vt 0.160807 0.286273
vt 0.251984 0.373828
vt 0.256439 0.463999
vt 0.257499 0.552270
vt 0.255853 0.639028
vt 0.255220 0.814031
vt 0.259397 0.027263
vt 0.344386 0.111356
vt 0.342694 0.198088
vt 0.341222 0.284942
vt 0.342133 0.373131
vt 0.343121 0.461361
vt 0.341475 0.548119
vt 0.336549 0.633041
vt 0.254420 0.725905
vt 0.335916 0.808044
vt 0.430008 0.020447
vt 0.344703 0.023855
vt 0.429859 0.195720
vt 0.433198 0.285267
vt 0.432566 0.460269
vt 0.426142 0.544354
vt 0.419305 0.628207
vt 0.333684 0.719116
vt 0.418673 0.803210
vt 0.514997 0.104541
vt 0.429692 0.107948
vt 0.518820 0.194358
vt 0.526643 0.286413
vt 0.435021 0.373965
vt 0.526010 0.461415
vt 0.516220 0.543616
vt 0.506992 0.626131
vt 0.503363 0.711812
vt 0.415562 0.713791
vt 0.506506 0.801216
vt 0.600619 0.013631
vt 0.515314 0.017039
vt 0.600375 0.101173
vt 0.606265 0.192147
vt 0.616045 0.285297
vt 0.530424 0.376206
vt 0.615413 0.460300
vt 0.602480 0.541049
vt 0.579431 0.618387
vt 0.580233 0.794192
vt 0.685608 0.097725
vt 0.689431 0.187542
vt 0.697254 0.279597
vt 0.701035 0.369390
vt 0.621026 0.375762
vt 0.696621 0.454599
vt 0.673293 0.532053
vt 0.638858 0.606139
vt 0.570400 0.702480
vt 0.639592 0.781907
vt 0.771230 0.006816
vt 0.685925 0.010224
vt 0.771081 0.182089
vt 0.774420 0.271635
vt 0.776243 0.360333
vt 0.773673 0.446620
vt 0.711727 0.598544
vt 0.624204 0.688455
vt 0.712084 0.774047
vt 0.856535 0.003408
vt 0.770914 0.094317
vt 0.855903 0.178410
vt 0.855586 0.265912
vt 0.855342 0.353453
vt 0.846163 0.525778
vt 0.749929 0.525314
vt 0.820373 0.603139
vt 0.804429 0.684449
vt 0.690876 0.678284
vt 0.820587 0.778472
vt 0.941841 0.000000
vt 0.856219 0.090909
vt 0.941525 0.087501
vt 0.941208 0.175003
vt 0.940575 0.350005
vt 0.854953 0.440914
vt 0.940995 0.524742
vt 0.938826 0.610936
vt 0.937377 0.697689
vt 0.938265 0.786034
vt 0.938116 0.962377
vt 0.940892 0.262504
vt 0.940259 0.437506
s 0
usemtl Material.001
f 34/1/1 35/2/1 144/3/1
f 54/4/2 3/5/2 5/6/2
f 64/7/2 44/8/2 54/4/2
f 64/7/2 42/9/2 43/10/2
f 74/11/2 41/12/2 42/9/2
f 84/13/3 40/14/3 41/12/3
f 104/15/4 40/14/4 94/16/4
f 114/17/5 39/18/5 104/15/5
f 124/19/6 38/20/6 114/17/6
f 134/21/7 37/22/7 124/19/7
f 144/3/8 36/23/8 134/21/8
f 15/24/2 14/25/2 1/26/2
f 45/27/9 13/28/9 14/25/9
f 46/29/10 12/30/10 13/28/10
f 12/30/11 48/31/11 11/32/11
f 11/32/12 49/33/12 10/34/12
f 10/34/2 50/35/2 9/36/2
f 50/35/2 8/37/2 9/36/2
f 51/38/2 7/39/2 8/37/2
f 52/40/2 6/41/2 7/39/2
f 53/42/2 5/6/2 6/41/2
f 16/43/13 45/27/13 15/24/13
f 55/44/14 46/29/14 45/27/14
f 56/45/15 47/46/15 46/29/15
f 47/46/16 58/47/16 48/31/16
f 48/31/17 59/48/17 49/33/17
f 49/33/18 60/49/18 50/35/18
f 60/49/2 51/38/2 50/35/2
f 61/50/2 52/40/2 51/38/2
f 62/51/2 53/42/2 52/40/2
f 63/52/2 54/4/2 53/42/2
f 16/43/19 65/53/19 55/44/19
f 55/44/20 66/54/20 56/45/20
f 56/45/21 67/55/21 57/56/21
f 67/55/22 58/47/22 57/56/22
f 68/57/23 59/48/23 58/47/23
f 69/58/24 60/49/24 59/48/24
f 70/59/2 61/50/2 60/49/2
f 71/60/25 62/51/25 61/50/25
f 62/51/25 73/61/25 63/52/25
f 63/52/2 74/11/2 64/7/2
f 17/62/26 75/63/26 65/53/26
f 65/53/27 76/64/27 66/54/27
f 66/54/28 77/65/28 67/55/28
f 77/65/29 68/57/29 67/55/29
f 78/66/30 69/58/30 68/57/30
f 79/67/31 70/59/31 69/58/31
f 80/68/32 71/60/32 70/59/32
f 81/69/33 72/70/33 71/60/33
f 72/70/34 83/71/34 73/61/34
f 73/61/35 84/13/35 74/11/35
f 19/72/2 75/63/2 18/73/2
f 75/63/36 86/74/36 76/64/36
f 86/74/37 77/65/37 76/64/37
f 87/75/38 78/66/38 77/65/38
f 78/66/39 89/76/39 79/67/39
f 79/67/40 90/77/40 80/68/40
f 90/77/41 81/69/41 80/68/41
f 91/78/42 82/79/42 81/69/42
f 82/79/43 93/80/43 83/71/43
f 83/71/44 94/16/44 84/13/44
f 19/72/2 95/81/2 85/82/2
f 95/81/45 86/74/45 85/82/45
f 96/83/46 87/75/46 86/74/46
f 97/84/47 88/85/47 87/75/47
f 88/85/48 99/86/48 89/76/48
f 89/76/49 100/87/49 90/77/49
f 90/77/50 101/88/50 91/78/50
f 91/78/51 102/89/51 92/90/51
f 102/89/52 93/80/52 92/90/52
f 103/91/53 94/16/53 93/80/53
f 21/92/2 95/81/2 20/93/2
f 105/94/54 96/83/54 95/81/54
f 106/95/55 97/84/55 96/83/55
f 107/96/56 98/97/56 97/84/56
f 98/97/57 109/98/57 99/86/57
f 99/86/58 110/99/58 100/87/58
f 100/87/59 111/100/59 101/88/59
f 111/100/60 102/89/60 101/88/60
f 102/89/61 113/101/61 103/91/61
f 113/101/62 104/15/62 103/91/62
f 21/92/63 115/102/63 105/94/63
f 105/94/64 116/103/64 106/95/64
f 106/95/65 117/104/65 107/96/65
f 107/96/66 118/105/66 108/106/66
f 118/105/67 109/98/67 108/106/67
f 119/107/68 110/99/68 109/98/68
f 120/108/69 111/100/69 110/99/69
f 121/109/70 112/110/70 111/100/70
f 112/110/71 123/111/71 113/101/71
f 113/101/72 124/19/72 114/17/72
f 23/112/2 115/102/2 22/113/2
f 115/102/73 126/114/73 116/103/73
f 116/103/74 127/115/74 117/104/74
f 117/104/75 128/116/75 118/105/75
f 128/116/76 119/107/76 118/105/76
f 129/117/77 120/108/77 119/107/77
f 120/108/78 131/118/78 121/109/78
f 131/118/79 122/119/79 121/109/79
f 122/119/80 133/120/80 123/111/80
f 133/120/81 124/19/81 123/111/81
f 24/121/2 125/122/2 23/112/2
f 125/122/82 136/123/82 126/114/82
f 126/114/83 137/124/83 127/115/83
f 127/115/84 138/125/84 128/116/84
f 138/125/85 129/117/85 128/116/85
f 129/117/86 140/126/86 130/127/86
f 130/127/87 141/128/87 131/118/87
f 131/118/88 142/129/88 132/130/88
f 142/129/89 133/120/89 132/130/89
f 143/131/90 134/21/90 133/120/90
f 2/132/2 135/133/2 24/121/2
f 25/134/2 136/123/2 135/133/2
f 26/135/2 137/124/2 136/123/2
f 137/124/63 28/136/63 138/125/63
f 28/136/91 139/137/91 138/125/91
f 139/137/92 30/138/92 140/126/92
f 140/126/93 31/139/93 141/128/93
f 141/128/94 32/140/94 142/129/94
f 32/140/95 143/131/95 142/129/95
f 33/141/96 144/3/96 143/131/96
f 34/1/97 4/142/97 35/2/97
f 54/4/2 44/8/2 3/5/2
f 64/7/2 43/10/2 44/8/2
f 64/7/2 74/11/2 42/9/2
f 74/11/35 84/13/35 41/12/35
f 84/13/98 94/16/98 40/14/98
f 104/15/3 39/18/3 40/14/3
f 114/17/99 38/20/99 39/18/99
f 124/19/100 37/22/100 38/20/100
f 134/21/101 36/23/101 37/22/101
f 144/3/102 35/2/102 36/23/102
f 15/24/9 45/27/9 14/25/9
f 45/27/103 46/29/103 13/28/103
f 46/29/104 47/46/104 12/30/104
f 12/30/105 47/46/105 48/31/105
f 11/32/106 48/31/106 49/33/106
f 10/34/12 49/33/12 50/35/12
f 50/35/2 51/38/2 8/37/2
f 51/38/2 52/40/2 7/39/2
f 52/40/2 53/42/2 6/41/2
f 53/42/2 54/4/2 5/6/2
f 16/43/107 55/44/107 45/27/107
f 55/44/108 56/45/108 46/29/108
f 56/45/109 57/56/109 47/46/109
f 47/46/110 57/56/110 58/47/110
f 48/31/111 58/47/111 59/48/111
f 49/33/112 59/48/112 60/49/112
f 60/49/2 61/50/2 51/38/2
f 61/50/2 62/51/2 52/40/2
f 62/51/2 63/52/2 53/42/2
f 63/52/2 64/7/2 54/4/2
f 16/43/13 17/62/13 65/53/13
f 55/44/113 65/53/113 66/54/113
f 56/45/114 66/54/114 67/55/114
f 67/55/115 68/57/115 58/47/115
f 68/57/116 69/58/116 59/48/116
f 69/58/18 70/59/18 60/49/18
f 70/59/32 71/60/32 61/50/32
f 71/60/117 72/70/117 62/51/117
f 62/51/118 72/70/118 73/61/118
f 63/52/35 73/61/35 74/11/35
f 17/62/2 18/73/2 75/63/2
f 65/53/26 75/63/26 76/64/26
f 66/54/119 76/64/119 77/65/119
f 77/65/120 78/66/120 68/57/120
f 78/66/121 79/67/121 69/58/121
f 79/67/32 80/68/32 70/59/32
f 80/68/122 81/69/122 71/60/122
f 81/69/123 82/79/123 72/70/123
f 72/70/124 82/79/124 83/71/124
f 73/61/125 83/71/125 84/13/125
f 19/72/2 85/82/2 75/63/2
f 75/63/45 85/82/45 86/74/45
f 86/74/126 87/75/126 77/65/126
f 87/75/127 88/85/127 78/66/127
f 78/66/128 88/85/128 89/76/128
f 79/67/129 89/76/129 90/77/129
f 90/77/130 91/78/130 81/69/130
f 91/78/131 92/90/131 82/79/131
f 82/79/132 92/90/132 93/80/132
f 83/71/133 93/80/133 94/16/133
f 19/72/2 20/93/2 95/81/2
f 95/81/134 96/83/134 86/74/134
f 96/83/135 97/84/135 87/75/135
f 97/84/136 98/97/136 88/85/136
f 88/85/137 98/97/137 99/86/137
f 89/76/138 99/86/138 100/87/138
f 90/77/139 100/87/139 101/88/139
f 91/78/140 101/88/140 102/89/140
f 102/89/141 103/91/141 93/80/141
f 103/91/142 104/15/142 94/16/142
f 21/92/143 105/94/143 95/81/143
f 105/94/144 106/95/144 96/83/144
f 106/95/145 107/96/145 97/84/145
f 107/96/146 108/106/146 98/97/146
f 98/97/147 108/106/147 109/98/147
f 99/86/148 109/98/148 110/99/148
f 100/87/149 110/99/149 111/100/149
f 111/100/150 112/110/150 102/89/150
f 102/89/151 112/110/151 113/101/151
f 113/101/152 114/17/152 104/15/152
f 21/92/2 22/113/2 115/102/2
f 105/94/153 115/102/153 116/103/153
f 106/95/154 116/103/154 117/104/154
f 107/96/155 117/104/155 118/105/155
f 118/105/156 119/107/156 109/98/156
f 119/107/157 120/108/157 110/99/157
f 120/108/158 121/109/158 111/100/158
f 121/109/159 122/119/159 112/110/159
f 112/110/160 122/119/160 123/111/160
f 113/101/161 123/111/161 124/19/161
f 23/112/2 125/122/2 115/102/2
f 115/102/45 125/122/45 126/114/45
f 116/103/162 126/114/162 127/115/162
f 117/104/163 127/115/163 128/116/163
f 128/116/164 129/117/164 119/107/164
f 129/117/165 130/127/165 120/108/165
f 120/108/166 130/127/166 131/118/166
f 131/118/167 132/130/167 122/119/167
f 122/119/168 132/130/168 133/120/168
f 133/120/169 134/21/169 124/19/169
f 24/121/2 135/133/2 125/122/2
f 125/122/2 135/133/2 136/123/2
f 126/114/170 136/123/170 137/124/170
f 127/115/171 137/124/171 138/125/171
f 138/125/172 139/137/172 129/117/172
f 129/117/173 139/137/173 140/126/173
f 130/127/174 140/126/174 141/128/174
f 131/118/175 141/128/175 142/129/175
f 142/129/176 143/131/176 133/120/176
f 143/131/177 144/3/177 134/21/177
f 2/132/2 25/134/2 135/133/2
f 25/134/2 26/135/2 136/123/2
f 26/135/2 27/143/2 137/124/2
f 137/124/2 27/143/2 28/136/2
f 28/136/2 29/144/2 139/137/2
f 139/137/178 29/144/178 30/138/178
f 140/126/179 30/138/179 31/139/179
f 141/128/180 31/139/180 32/140/180
f 32/140/181 33/141/181 143/131/181
f 33/141/182 34/1/182 144/3/182
