# Blender 4.0.2
# www.blender.org
mtllib Raziel.mtl
o Raziel
v 0.017000 0.450000 -0.027000
v 0.060000 0.442000 -0.023000
v 0.055000 0.426000 0.001000
v 0.047000 0.372000 0.012000
v 0.000000 0.368000 0.026000
v 0.055000 0.426000 0.001000
v 0.055000 0.426000 0.001000
v 0.067000 0.413000 -0.007000
v 0.047000 0.372000 0.012000
v 0.017000 0.450000 -0.027000
v 0.023000 0.464000 0.008000
v 0.018000 0.465000 -0.025000
v 0.055000 0.426000 0.001000
v 0.000000 0.368000 0.026000
v 0.000000 0.404000 0.033000
v 0.017000 0.450000 -0.027000
v 0.030000 0.430000 0.002000
v 0.023000 0.448000 0.004000
v 0.023000 0.448000 0.004000
v 0.000000 0.415000 0.025000
v 0.000000 0.437000 0.030000
v 0.030000 0.430000 0.002000
v 0.000000 0.415000 0.025000
v 0.023000 0.448000 0.004000
v 0.017000 0.450000 -0.027000
v 0.023000 0.448000 0.004000
v 0.023000 0.464000 0.008000
v 0.023000 0.448000 0.004000
v 0.000000 0.465000 0.031000
v 0.023000 0.464000 0.008000
v 0.000000 0.437000 0.030000
v 0.000000 0.465000 0.031000
v 0.023000 0.448000 0.004000
v 0.017000 0.450000 -0.027000
v 0.055000 0.426000 0.001000
v 0.030000 0.430000 0.002000
v 0.030000 0.430000 0.002000
v 0.000000 0.404000 0.033000
v 0.000000 0.415000 0.025000
v 0.055000 0.426000 0.001000
v 0.000000 0.404000 0.033000
v 0.030000 0.430000 0.002000
v 0.056000 0.418000 -0.023000
v 0.044000 0.398000 -0.050000
v 0.047000 0.372000 0.012000
v 0.067000 0.413000 -0.007000
v 0.056000 0.418000 -0.023000
v 0.047000 0.372000 0.012000
v -0.053000 0.426000 0.001000
v -0.059000 0.442000 -0.023000
v -0.017000 0.450000 -0.027000
v -0.053000 0.426000 0.001000
v 0.000000 0.368000 0.026000
v -0.046000 0.372000 0.012000
v -0.046000 0.372000 0.012000
v -0.066000 0.413000 -0.007000
v -0.053000 0.426000 0.001000
v -0.017000 0.465000 -0.025000
v -0.023000 0.464000 0.008000
v -0.017000 0.450000 -0.027000
v 0.000000 0.404000 0.033000
v 0.000000 0.368000 0.026000
v -0.053000 0.426000 0.001000
v -0.023000 0.448000 0.004000
v -0.030000 0.430000 0.002000
v -0.017000 0.450000 -0.027000
v 0.000000 0.437000 0.030000
v 0.000000 0.415000 0.025000
v -0.023000 0.448000 0.004000
v -0.023000 0.464000 0.008000
v -0.023000 0.448000 0.004000
v -0.017000 0.450000 -0.027000
v -0.023000 0.464000 0.008000
v 0.000000 0.465000 0.031000
v -0.023000 0.448000 0.004000
v -0.023000 0.448000 0.004000
v 0.000000 0.465000 0.031000
v 0.000000 0.437000 0.030000
v -0.030000 0.430000 0.002000
v -0.053000 0.426000 0.001000
v -0.017000 0.450000 -0.027000
v 0.000000 0.415000 0.025000
v 0.000000 0.404000 0.033000
v -0.030000 0.430000 0.002000
v -0.030000 0.430000 0.002000
v 0.000000 0.404000 0.033000
v -0.053000 0.426000 0.001000
v -0.046000 0.372000 0.012000
v -0.043000 0.398000 -0.050000
v -0.055000 0.418000 -0.023000
v -0.046000 0.372000 0.012000
v -0.055000 0.418000 -0.023000
v -0.066000 0.413000 -0.007000
v -0.023000 0.448000 0.004000
v 0.000000 0.415000 0.025000
v -0.030000 0.430000 0.002000
v 0.017000 0.450000 -0.027000
v 0.055000 0.426000 0.001000
v 0.060000 0.442000 -0.023000
v 0.047000 0.372000 0.012000
v 0.055000 0.426000 0.001000
v 0.000000 0.368000 0.026000
v 0.055000 0.426000 0.001000
v 0.047000 0.372000 0.012000
v 0.067000 0.413000 -0.007000
v 0.017000 0.450000 -0.027000
v 0.018000 0.465000 -0.025000
v 0.023000 0.464000 0.008000
v 0.055000 0.426000 0.001000
v 0.000000 0.404000 0.033000
v 0.000000 0.368000 0.026000
v 0.017000 0.450000 -0.027000
v 0.023000 0.448000 0.004000
v 0.030000 0.430000 0.002000
v 0.023000 0.448000 0.004000
v 0.000000 0.437000 0.030000
v 0.000000 0.415000 0.025000
v 0.030000 0.430000 0.002000
v 0.023000 0.448000 0.004000
v 0.000000 0.415000 0.025000
v 0.017000 0.450000 -0.027000
v 0.023000 0.464000 0.008000
v 0.023000 0.448000 0.004000
v 0.023000 0.448000 0.004000
v 0.023000 0.464000 0.008000
v 0.000000 0.465000 0.031000
v 0.000000 0.437000 0.030000
v 0.023000 0.448000 0.004000
v 0.000000 0.465000 0.031000
v 0.017000 0.450000 -0.027000
v 0.030000 0.430000 0.002000
v 0.055000 0.426000 0.001000
v 0.030000 0.430000 0.002000
v 0.000000 0.415000 0.025000
v 0.000000 0.404000 0.033000
v 0.055000 0.426000 0.001000
v 0.030000 0.430000 0.002000
v 0.000000 0.404000 0.033000
v 0.056000 0.418000 -0.023000
v 0.047000 0.372000 0.012000
v 0.044000 0.398000 -0.050000
v 0.067000 0.413000 -0.007000
v 0.047000 0.372000 0.012000
v 0.056000 0.418000 -0.023000
v -0.053000 0.426000 0.001000
v -0.017000 0.450000 -0.027000
v -0.059000 0.442000 -0.023000
v -0.053000 0.426000 0.001000
v -0.046000 0.372000 0.012000
v 0.000000 0.368000 0.026000
v -0.046000 0.372000 0.012000
v -0.053000 0.426000 0.001000
v -0.066000 0.413000 -0.007000
v -0.017000 0.465000 -0.025000
v -0.017000 0.450000 -0.027000
v -0.023000 0.464000 0.008000
v 0.000000 0.404000 0.033000
v -0.053000 0.426000 0.001000
v 0.000000 0.368000 0.026000
v -0.023000 0.448000 0.004000
v -0.017000 0.450000 -0.027000
v -0.030000 0.430000 0.002000
v 0.000000 0.437000 0.030000
v -0.023000 0.448000 0.004000
v 0.000000 0.415000 0.025000
v -0.023000 0.464000 0.008000
v -0.017000 0.450000 -0.027000
v -0.023000 0.448000 0.004000
v -0.023000 0.464000 0.008000
v -0.023000 0.448000 0.004000
v 0.000000 0.465000 0.031000
v -0.023000 0.448000 0.004000
v 0.000000 0.437000 0.030000
v 0.000000 0.465000 0.031000
v -0.030000 0.430000 0.002000
v -0.017000 0.450000 -0.027000
v -0.053000 0.426000 0.001000
v 0.000000 0.415000 0.025000
v -0.030000 0.430000 0.002000
v 0.000000 0.404000 0.033000
v -0.030000 0.430000 0.002000
v -0.053000 0.426000 0.001000
v 0.000000 0.404000 0.033000
v -0.046000 0.372000 0.012000
v -0.055000 0.418000 -0.023000
v -0.043000 0.398000 -0.050000
v -0.046000 0.372000 0.012000
v -0.066000 0.413000 -0.007000
v -0.055000 0.418000 -0.023000
v -0.023000 0.448000 0.004000
v -0.030000 0.430000 0.002000
v 0.000000 0.415000 0.025000
v -0.017000 0.450000 -0.027000
v 0.017000 0.450000 -0.027000
v -0.017000 0.465000 -0.025000
v -0.017000 0.465000 -0.025000
v 0.017000 0.450000 -0.027000
v 0.018000 0.465000 -0.025000
v -0.017000 0.450000 -0.027000
v 0.032000 0.423000 -0.047000
v 0.017000 0.450000 -0.027000
v -0.031000 0.423000 -0.047000
v 0.032000 0.423000 -0.047000
v -0.017000 0.450000 -0.027000
v 0.017000 0.450000 -0.027000
v 0.032000 0.423000 -0.047000
v 0.060000 0.442000 -0.023000
v 0.032000 0.423000 -0.047000
v 0.061000 0.428000 -0.040000
v 0.060000 0.442000 -0.023000
v -0.031000 0.423000 -0.047000
v 0.000000 0.386000 -0.052000
v 0.032000 0.423000 -0.047000
v 0.044000 0.398000 -0.050000
v 0.061000 0.428000 -0.040000
v 0.032000 0.423000 -0.047000
v 0.000000 0.386000 -0.052000
v 0.044000 0.398000 -0.050000
v 0.032000 0.423000 -0.047000
v 0.061000 0.428000 -0.040000
v 0.044000 0.398000 -0.050000
v 0.067000 0.413000 -0.035000
v -0.059000 0.442000 -0.023000
v -0.031000 0.423000 -0.047000
v -0.017000 0.450000 -0.027000
v -0.059000 0.442000 -0.023000
v -0.060000 0.428000 -0.040000
v -0.031000 0.423000 -0.047000
v -0.031000 0.423000 -0.047000
v -0.060000 0.428000 -0.040000
v -0.043000 0.398000 -0.050000
v -0.031000 0.423000 -0.047000
v -0.043000 0.398000 -0.050000
v 0.000000 0.386000 -0.052000
v -0.066000 0.413000 -0.035000
v -0.043000 0.398000 -0.050000
v -0.060000 0.428000 -0.040000
v 0.067000 0.413000 -0.035000
v 0.044000 0.398000 -0.050000
v 0.056000 0.418000 -0.023000
v -0.055000 0.418000 -0.023000
v -0.043000 0.398000 -0.050000
v -0.066000 0.413000 -0.035000
v -0.017000 0.450000 -0.027000
v -0.017000 0.465000 -0.025000
v 0.017000 0.450000 -0.027000
v -0.017000 0.465000 -0.025000
v 0.018000 0.465000 -0.025000
v 0.017000 0.450000 -0.027000
v -0.017000 0.450000 -0.027000
v 0.017000 0.450000 -0.027000
v 0.032000 0.423000 -0.047000
v -0.031000 0.423000 -0.047000
v -0.017000 0.450000 -0.027000
v 0.032000 0.423000 -0.047000
v 0.017000 0.450000 -0.027000
v 0.060000 0.442000 -0.023000
v 0.032000 0.423000 -0.047000
v 0.032000 0.423000 -0.047000
v 0.060000 0.442000 -0.023000
v 0.061000 0.428000 -0.040000
v -0.031000 0.423000 -0.047000
v 0.032000 0.423000 -0.047000
v 0.000000 0.386000 -0.052000
v 0.044000 0.398000 -0.050000
v 0.032000 0.423000 -0.047000
v 0.061000 0.428000 -0.040000
v 0.000000 0.386000 -0.052000
v 0.032000 0.423000 -0.047000
v 0.044000 0.398000 -0.050000
v 0.061000 0.428000 -0.040000
v 0.067000 0.413000 -0.035000
v 0.044000 0.398000 -0.050000
v -0.059000 0.442000 -0.023000
v -0.017000 0.450000 -0.027000
v -0.031000 0.423000 -0.047000
v -0.059000 0.442000 -0.023000
v -0.031000 0.423000 -0.047000
v -0.060000 0.428000 -0.040000
v -0.031000 0.423000 -0.047000
v -0.043000 0.398000 -0.050000
v -0.060000 0.428000 -0.040000
v -0.031000 0.423000 -0.047000
v 0.000000 0.386000 -0.052000
v -0.043000 0.398000 -0.050000
v -0.066000 0.413000 -0.035000
v -0.060000 0.428000 -0.040000
v -0.043000 0.398000 -0.050000
v 0.067000 0.413000 -0.035000
v 0.056000 0.418000 -0.023000
v 0.044000 0.398000 -0.050000
v -0.055000 0.418000 -0.023000
v -0.066000 0.413000 -0.035000
v -0.043000 0.398000 -0.050000
v 0.000000 0.507000 0.011000
v 0.010000 0.505000 -0.015000
v 0.016000 0.503000 -0.000000
v 0.018000 0.490000 -0.028000
v 0.016000 0.503000 -0.000000
v 0.010000 0.505000 -0.015000
v 0.018000 0.490000 -0.028000
v 0.023000 0.493000 0.004000
v 0.016000 0.503000 -0.000000
v 0.016000 0.503000 -0.000000
v 0.000000 0.492000 0.025000
v 0.000000 0.507000 0.011000
v 0.016000 0.503000 -0.000000
v 0.023000 0.493000 0.004000
v 0.000000 0.492000 0.025000
v -0.006000 0.509000 -0.002000
v 0.010000 0.505000 -0.015000
v 0.000000 0.507000 0.011000
v -0.010000 0.505000 -0.015000
v 0.018000 0.490000 -0.028000
v 0.010000 0.505000 -0.015000
v -0.017000 0.490000 -0.028000
v 0.018000 0.490000 -0.028000
v -0.010000 0.505000 -0.015000
v -0.018000 0.501000 -0.000000
v -0.017000 0.490000 -0.028000
v -0.010000 0.505000 -0.015000
v -0.022000 0.493000 0.004000
v -0.017000 0.490000 -0.028000
v -0.018000 0.501000 -0.000000
v 0.000000 0.492000 0.025000
v -0.018000 0.501000 -0.000000
v 0.000000 0.507000 0.011000
v -0.022000 0.493000 0.004000
v -0.018000 0.501000 -0.000000
v 0.000000 0.492000 0.025000
v 0.010000 0.505000 -0.015000
v -0.006000 0.509000 -0.002000
v -0.010000 0.505000 -0.015000
v -0.010000 0.505000 -0.015000
v -0.006000 0.509000 -0.002000
v -0.018000 0.501000 -0.000000
v -0.018000 0.501000 -0.000000
v -0.006000 0.509000 -0.002000
v 0.000000 0.507000 0.011000
v -0.025000 0.475000 0.033000
v -0.018000 0.501000 -0.000000
v -0.016000 0.503000 0.024000
v 0.024000 0.469000 0.030000
v 0.014000 0.504000 0.024000
v 0.016000 0.503000 -0.000000
v 0.021000 0.500000 -0.017000
v 0.025000 0.502000 -0.008000
v 0.016000 0.503000 -0.000000
v 0.028000 0.490000 -0.016000
v 0.025000 0.502000 -0.008000
v 0.021000 0.500000 -0.017000
v -0.010000 0.505000 -0.015000
v -0.018000 0.501000 -0.000000
v -0.022000 0.497000 -0.021000
v -0.022000 0.497000 -0.021000
v -0.024000 0.496000 -0.011000
v -0.024000 0.487000 -0.017000
v -0.024000 0.496000 -0.011000
v -0.022000 0.497000 -0.021000
v -0.018000 0.501000 -0.000000
v 0.016000 0.503000 -0.000000
v 0.010000 0.505000 -0.015000
v 0.021000 0.500000 -0.017000
v -0.017000 0.490000 -0.028000
v 0.018000 0.465000 -0.025000
v 0.018000 0.490000 -0.028000
v -0.017000 0.465000 -0.025000
v 0.018000 0.465000 -0.025000
v -0.017000 0.490000 -0.028000
v 0.000000 0.492000 0.025000
v -0.016000 0.503000 0.024000
v -0.018000 0.501000 -0.000000
v 0.016000 0.503000 -0.000000
v 0.014000 0.504000 0.024000
v 0.000000 0.492000 0.025000
v 0.000000 0.507000 0.011000
v 0.016000 0.503000 -0.000000
v 0.010000 0.505000 -0.015000
v 0.018000 0.490000 -0.028000
v 0.010000 0.505000 -0.015000
v 0.016000 0.503000 -0.000000
v 0.018000 0.490000 -0.028000
v 0.016000 0.503000 -0.000000
v 0.023000 0.493000 0.004000
v 0.016000 0.503000 -0.000000
v 0.000000 0.507000 0.011000
v 0.000000 0.492000 0.025000
v 0.016000 0.503000 -0.000000
v 0.000000 0.492000 0.025000
v 0.023000 0.493000 0.004000
v -0.006000 0.509000 -0.002000
v 0.000000 0.507000 0.011000
v 0.010000 0.505000 -0.015000
v -0.010000 0.505000 -0.015000
v 0.010000 0.505000 -0.015000
v 0.018000 0.490000 -0.028000
v -0.017000 0.490000 -0.028000
v -0.010000 0.505000 -0.015000
v 0.018000 0.490000 -0.028000
v -0.018000 0.501000 -0.000000
v -0.010000 0.505000 -0.015000
v -0.017000 0.490000 -0.028000
v -0.022000 0.493000 0.004000
v -0.018000 0.501000 -0.000000
v -0.017000 0.490000 -0.028000
v 0.000000 0.492000 0.025000
v 0.000000 0.507000 0.011000
v -0.018000 0.501000 -0.000000
v -0.022000 0.493000 0.004000
v 0.000000 0.492000 0.025000
v -0.018000 0.501000 -0.000000
v 0.010000 0.505000 -0.015000
v -0.010000 0.505000 -0.015000
v -0.006000 0.509000 -0.002000
v -0.010000 0.505000 -0.015000
v -0.018000 0.501000 -0.000000
v -0.006000 0.509000 -0.002000
v -0.018000 0.501000 -0.000000
v 0.000000 0.507000 0.011000
v -0.006000 0.509000 -0.002000
v -0.025000 0.475000 0.033000
v -0.016000 0.503000 0.024000
v -0.018000 0.501000 -0.000000
v 0.024000 0.469000 0.030000
v 0.016000 0.503000 -0.000000
v 0.014000 0.504000 0.024000
v 0.021000 0.500000 -0.017000
v 0.016000 0.503000 -0.000000
v 0.025000 0.502000 -0.008000
v 0.028000 0.490000 -0.016000
v 0.021000 0.500000 -0.017000
v 0.025000 0.502000 -0.008000
v -0.010000 0.505000 -0.015000
v -0.022000 0.497000 -0.021000
v -0.018000 0.501000 -0.000000
v -0.022000 0.497000 -0.021000
v -0.024000 0.487000 -0.017000
v -0.024000 0.496000 -0.011000
v -0.024000 0.496000 -0.011000
v -0.018000 0.501000 -0.000000
v -0.022000 0.497000 -0.021000
v 0.016000 0.503000 -0.000000
v 0.021000 0.500000 -0.017000
v 0.010000 0.505000 -0.015000
v -0.017000 0.490000 -0.028000
v 0.018000 0.490000 -0.028000
v 0.018000 0.465000 -0.025000
v -0.017000 0.465000 -0.025000
v -0.017000 0.490000 -0.028000
v 0.018000 0.465000 -0.025000
v 0.000000 0.492000 0.025000
v -0.018000 0.501000 -0.000000
v -0.016000 0.503000 0.024000
v 0.016000 0.503000 -0.000000
v 0.000000 0.492000 0.025000
v 0.014000 0.504000 0.024000
v 0.000000 0.438000 0.026000
v 0.021000 0.463000 0.005000
v 0.016000 0.436000 0.005000
v 0.021000 0.463000 0.005000
v 0.000000 0.438000 0.026000
v 0.000000 0.463000 0.028000
v 0.021000 0.463000 0.005000
v 0.018000 0.465000 -0.025000
v 0.016000 0.436000 0.005000
v 0.018000 0.465000 -0.025000
v 0.016000 0.421000 -0.027000
v 0.016000 0.436000 0.005000
v -0.015000 0.436000 0.005000
v -0.020000 0.463000 0.005000
v 0.000000 0.438000 0.026000
v 0.000000 0.463000 0.028000
v 0.000000 0.438000 0.026000
v -0.020000 0.463000 0.005000
v -0.015000 0.436000 0.005000
v -0.017000 0.465000 -0.025000
v -0.020000 0.463000 0.005000
v -0.015000 0.436000 0.005000
v -0.015000 0.421000 -0.027000
v -0.017000 0.465000 -0.025000
v 0.000000 0.438000 0.026000
v 0.016000 0.436000 0.005000
v 0.021000 0.463000 0.005000
v 0.021000 0.463000 0.005000
v 0.000000 0.463000 0.028000
v 0.000000 0.438000 0.026000
v 0.021000 0.463000 0.005000
v 0.016000 0.436000 0.005000
v 0.018000 0.465000 -0.025000
v 0.018000 0.465000 -0.025000
v 0.016000 0.436000 0.005000
v 0.016000 0.421000 -0.027000
v -0.015000 0.436000 0.005000
v 0.000000 0.438000 0.026000
v -0.020000 0.463000 0.005000
v 0.000000 0.463000 0.028000
v -0.020000 0.463000 0.005000
v 0.000000 0.438000 0.026000
v -0.015000 0.436000 0.005000
v -0.020000 0.463000 0.005000
v -0.017000 0.465000 -0.025000
v -0.015000 0.436000 0.005000
v -0.017000 0.465000 -0.025000
v -0.015000 0.421000 -0.027000
v 0.028000 0.345000 -0.037000
v 0.000000 0.304000 -0.022000
v 0.002000 0.304000 -0.077000
v 0.044000 0.398000 -0.050000
v 0.028000 0.345000 -0.037000
v 0.047000 0.403000 -0.080000
v 0.047000 0.403000 -0.080000
v 0.002000 0.304000 -0.077000
v 0.005000 0.307000 -0.163000
v 0.047000 0.403000 -0.080000
v 0.005000 0.307000 -0.163000
v 0.053000 0.427000 -0.139000
v 0.021000 0.343000 -0.242000
v 0.053000 0.427000 -0.139000
v 0.005000 0.307000 -0.163000
v 0.053000 0.427000 -0.139000
v 0.021000 0.343000 -0.242000
v 0.054000 0.427000 -0.216000
v 0.039000 0.386000 -0.284000
v 0.054000 0.427000 -0.216000
v 0.021000 0.343000 -0.242000
v 0.028000 0.345000 -0.037000
v 0.002000 0.304000 -0.077000
v 0.047000 0.403000 -0.080000
v -0.001000 0.304000 -0.077000
v 0.000000 0.304000 -0.022000
v -0.027000 0.345000 -0.038000
v -0.046000 0.403000 -0.080000
v -0.027000 0.345000 -0.038000
v -0.043000 0.398000 -0.050000
v -0.004000 0.307000 -0.163000
v -0.001000 0.304000 -0.077000
v -0.046000 0.403000 -0.080000
v -0.052000 0.427000 -0.139000
v -0.004000 0.307000 -0.163000
v -0.046000 0.403000 -0.080000
v -0.004000 0.307000 -0.163000
v -0.052000 0.427000 -0.139000
v -0.020000 0.343000 -0.242000
v -0.053000 0.427000 -0.216000
v -0.020000 0.343000 -0.242000
v -0.052000 0.427000 -0.139000
v -0.020000 0.343000 -0.242000
v -0.053000 0.427000 -0.216000
v -0.038000 0.386000 -0.284000
v -0.046000 0.403000 -0.080000
v -0.001000 0.304000 -0.077000
v -0.027000 0.345000 -0.038000
v 0.028000 0.345000 -0.037000
v 0.002000 0.304000 -0.077000
v 0.000000 0.304000 -0.022000
v 0.044000 0.398000 -0.050000
v 0.047000 0.403000 -0.080000
v 0.028000 0.345000 -0.037000
v 0.047000 0.403000 -0.080000
v 0.005000 0.307000 -0.163000
v 0.002000 0.304000 -0.077000
v 0.047000 0.403000 -0.080000
v 0.053000 0.427000 -0.139000
v 0.005000 0.307000 -0.163000
v 0.021000 0.343000 -0.242000
v 0.005000 0.307000 -0.163000
v 0.053000 0.427000 -0.139000
v 0.053000 0.427000 -0.139000
v 0.054000 0.427000 -0.216000
v 0.021000 0.343000 -0.242000
v 0.039000 0.386000 -0.284000
v 0.021000 0.343000 -0.242000
v 0.054000 0.427000 -0.216000
v 0.028000 0.345000 -0.037000
v 0.047000 0.403000 -0.080000
v 0.002000 0.304000 -0.077000
v -0.001000 0.304000 -0.077000
v -0.027000 0.345000 -0.038000
v 0.000000 0.304000 -0.022000
v -0.046000 0.403000 -0.080000
v -0.043000 0.398000 -0.050000
v -0.027000 0.345000 -0.038000
v -0.004000 0.307000 -0.163000
v -0.046000 0.403000 -0.080000
v -0.001000 0.304000 -0.077000
v -0.052000 0.427000 -0.139000
v -0.046000 0.403000 -0.080000
v -0.004000 0.307000 -0.163000
v -0.004000 0.307000 -0.163000
v -0.020000 0.343000 -0.242000
v -0.052000 0.427000 -0.139000
v -0.053000 0.427000 -0.216000
v -0.052000 0.427000 -0.139000
v -0.020000 0.343000 -0.242000
v -0.020000 0.343000 -0.242000
v -0.038000 0.386000 -0.284000
v -0.053000 0.427000 -0.216000
v -0.046000 0.403000 -0.080000
v -0.027000 0.345000 -0.038000
v -0.001000 0.304000 -0.077000
v 0.000000 0.386000 -0.052000
v 0.028000 0.345000 -0.037000
v -0.027000 0.345000 -0.038000
v 0.044000 0.398000 -0.050000
v 0.028000 0.345000 -0.037000
v 0.000000 0.386000 -0.052000
v 0.023000 0.281000 -0.035000
v 0.038000 0.290000 0.005000
v 0.034000 0.252000 -0.020000
v 0.025000 0.261000 -0.033000
v 0.023000 0.281000 -0.035000
v 0.034000 0.252000 -0.020000
v -0.022000 0.281000 -0.035000
v 0.023000 0.281000 -0.035000
v 0.025000 0.261000 -0.033000
v -0.024000 0.261000 -0.033000
v -0.022000 0.281000 -0.035000
v 0.025000 0.261000 -0.033000
v 0.023000 0.281000 -0.035000
v 0.015000 0.304000 -0.021000
v 0.038000 0.290000 0.005000
v 0.013000 0.245000 -0.020000
v 0.025000 0.261000 -0.033000
v 0.034000 0.252000 -0.020000
v -0.012000 0.245000 -0.020000
v -0.024000 0.261000 -0.033000
v 0.013000 0.245000 -0.020000
v 0.013000 0.245000 -0.020000
v -0.024000 0.261000 -0.033000
v 0.025000 0.261000 -0.033000
v 0.015000 0.304000 -0.021000
v 0.000000 0.304000 -0.022000
v 0.028000 0.345000 -0.037000
v 0.023000 0.281000 -0.035000
v 0.000000 0.304000 -0.022000
v 0.015000 0.304000 -0.021000
v -0.022000 0.281000 -0.035000
v 0.000000 0.304000 -0.022000
v 0.023000 0.281000 -0.035000
v -0.027000 0.345000 -0.038000
v 0.028000 0.345000 -0.037000
v 0.000000 0.304000 -0.022000
v 0.015000 0.304000 -0.021000
v 0.024000 0.304000 -0.010000
v 0.038000 0.290000 0.005000
v 0.015000 0.304000 -0.021000
v 0.028000 0.345000 -0.037000
v 0.024000 0.304000 -0.010000
v -0.027000 0.345000 -0.038000
v -0.043000 0.398000 -0.050000
v 0.000000 0.386000 -0.052000
v -0.037000 0.290000 0.005000
v -0.022000 0.281000 -0.035000
v -0.033000 0.252000 -0.020000
v -0.022000 0.281000 -0.035000
v -0.024000 0.261000 -0.033000
v -0.033000 0.252000 -0.020000
v -0.014000 0.304000 -0.021000
v -0.022000 0.281000 -0.035000
v -0.037000 0.290000 0.005000
v -0.024000 0.261000 -0.033000
v -0.012000 0.245000 -0.020000
v -0.033000 0.252000 -0.020000
v 0.000000 0.304000 -0.022000
v -0.014000 0.304000 -0.021000
v -0.027000 0.345000 -0.038000
v 0.000000 0.304000 -0.022000
v -0.022000 0.281000 -0.035000
v -0.014000 0.304000 -0.021000
v -0.023000 0.304000 -0.010000
v -0.014000 0.304000 -0.021000
v -0.037000 0.290000 0.005000
v -0.027000 0.345000 -0.038000
v -0.014000 0.304000 -0.021000
v -0.023000 0.304000 -0.010000
v 0.040000 0.098000 -0.035000
v 0.040000 0.024000 -0.036000
v 0.018000 0.098000 -0.035000
v 0.040000 0.098000 -0.035000
v 0.018000 0.098000 -0.035000
v 0.012000 0.124000 -0.048000
v 0.045000 0.124000 -0.042000
v 0.040000 0.098000 -0.035000
v 0.012000 0.124000 -0.048000
v 0.040000 0.024000 -0.036000
v 0.040000 0.003000 -0.043000
v 0.019000 0.024000 -0.036000
v 0.040000 0.024000 -0.036000
v 0.019000 0.024000 -0.036000
v 0.018000 0.098000 -0.035000
v 0.024000 0.162000 -0.018000
v 0.035000 0.162000 -0.018000
v 0.018000 0.150000 -0.041000
v 0.040000 0.150000 -0.035000
v 0.012000 0.124000 -0.048000
v 0.018000 0.150000 -0.041000
v 0.019000 0.024000 -0.036000
v 0.040000 0.003000 -0.043000
v 0.019000 0.003000 -0.043000
v 0.035000 0.162000 -0.018000
v 0.040000 0.150000 -0.035000
v 0.018000 0.150000 -0.041000
v 0.045000 0.124000 -0.042000
v 0.012000 0.124000 -0.048000
v 0.040000 0.150000 -0.035000
v -0.039000 0.024000 -0.037000
v -0.039000 0.098000 -0.035000
v -0.017000 0.098000 -0.036000
v -0.017000 0.098000 -0.036000
v -0.039000 0.098000 -0.035000
v -0.011000 0.124000 -0.049000
v -0.039000 0.098000 -0.035000
v -0.044000 0.124000 -0.043000
v -0.011000 0.124000 -0.049000
v -0.039000 0.003000 -0.044000
v -0.039000 0.024000 -0.037000
v -0.018000 0.024000 -0.037000
v -0.018000 0.024000 -0.037000
v -0.039000 0.024000 -0.037000
v -0.017000 0.098000 -0.036000
v -0.034000 0.162000 -0.019000
v -0.023000 0.162000 -0.019000
v -0.017000 0.150000 -0.042000
v -0.011000 0.124000 -0.049000
v -0.039000 0.150000 -0.035000
v -0.017000 0.150000 -0.042000
v -0.039000 0.003000 -0.044000
v -0.018000 0.024000 -0.037000
v -0.018000 0.003000 -0.044000
v -0.039000 0.150000 -0.035000
v -0.034000 0.162000 -0.019000
v -0.017000 0.150000 -0.042000
v -0.011000 0.124000 -0.049000
v -0.044000 0.124000 -0.043000
v -0.039000 0.150000 -0.035000
v 0.013000 0.245000 -0.020000
v 0.000000 0.249000 0.006000
v -0.012000 0.245000 -0.020000
v 0.072000 0.239000 -0.005000
v 0.070000 0.227000 -0.010000
v 0.081000 0.229000 -0.010000
v 0.031000 0.211000 0.030000
v 0.000000 0.249000 0.006000
v 0.008000 0.197000 -0.003000
v 0.021000 0.281000 0.025000
v 0.000000 0.249000 0.006000
v 0.031000 0.211000 0.030000
v 0.028000 0.172000 0.014000
v 0.039000 0.175000 -0.004000
v 0.048000 0.204000 -0.002000
v 0.031000 0.211000 0.030000
v 0.028000 0.172000 0.014000
v 0.048000 0.204000 -0.002000
v 0.017000 0.161000 -0.008000
v 0.028000 0.159000 0.009000
v 0.028000 0.172000 0.014000
v 0.017000 0.175000 -0.004000
v 0.017000 0.161000 -0.008000
v 0.028000 0.172000 0.014000
v 0.008000 0.197000 -0.003000
v 0.028000 0.172000 0.014000
v 0.031000 0.211000 0.030000
v 0.028000 0.172000 0.014000
v 0.008000 0.197000 -0.003000
v 0.017000 0.175000 -0.004000
v 0.039000 0.175000 -0.004000
v 0.028000 0.172000 0.014000
v 0.039000 0.161000 -0.008000
v 0.039000 0.161000 -0.008000
v 0.028000 0.172000 0.014000
v 0.028000 0.159000 0.009000
v 0.038000 0.290000 0.005000
v 0.021000 0.281000 0.025000
v 0.031000 0.211000 0.030000
v 0.031000 0.211000 0.030000
v 0.048000 0.204000 -0.002000
v 0.038000 0.290000 0.005000
v 0.000000 0.249000 0.006000
v -0.030000 0.211000 0.030000
v -0.007000 0.197000 -0.003000
v 0.000000 0.249000 0.006000
v -0.020000 0.281000 0.025000
v -0.030000 0.211000 0.030000
v -0.038000 0.175000 -0.004000
v -0.027000 0.172000 0.014000
v -0.047000 0.204000 -0.002000
v -0.027000 0.172000 0.014000
v -0.030000 0.211000 0.030000
v -0.047000 0.204000 -0.002000
v -0.027000 0.159000 0.008000
v -0.016000 0.161000 -0.009000
v -0.027000 0.172000 0.014000
v -0.016000 0.161000 -0.009000
v -0.016000 0.175000 -0.004000
v -0.027000 0.172000 0.014000
v -0.027000 0.172000 0.014000
v -0.007000 0.197000 -0.003000
v -0.030000 0.211000 0.030000
v -0.007000 0.197000 -0.003000
v -0.027000 0.172000 0.014000
v -0.016000 0.175000 -0.004000
v -0.027000 0.172000 0.014000
v -0.038000 0.175000 -0.004000
v -0.038000 0.161000 -0.009000
v -0.027000 0.172000 0.014000
v -0.038000 0.161000 -0.009000
v -0.027000 0.159000 0.008000
v -0.020000 0.281000 0.025000
v -0.037000 0.290000 0.005000
v -0.030000 0.211000 0.030000
v -0.047000 0.204000 -0.002000
v -0.030000 0.211000 0.030000
v -0.037000 0.290000 0.005000
v 0.048000 0.204000 -0.002000
v 0.039000 0.221000 -0.022000
v 0.034000 0.252000 -0.020000
v 0.038000 0.290000 0.005000
v 0.048000 0.204000 -0.002000
v 0.034000 0.252000 -0.020000
v 0.008000 0.197000 -0.003000
v 0.000000 0.249000 0.006000
v 0.020000 0.220000 -0.022000
v 0.013000 0.245000 -0.020000
v 0.020000 0.220000 -0.022000
v 0.000000 0.249000 0.006000
v 0.013000 0.245000 -0.020000
v 0.034000 0.252000 -0.020000
v 0.020000 0.220000 -0.022000
v 0.039000 0.221000 -0.022000
v 0.020000 0.220000 -0.022000
v 0.034000 0.252000 -0.020000
v 0.048000 0.204000 -0.002000
v 0.039000 0.175000 -0.004000
v 0.039000 0.221000 -0.022000
v 0.029000 0.178000 -0.014000
v 0.017000 0.175000 -0.004000
v 0.008000 0.197000 -0.003000
v 0.020000 0.220000 -0.022000
v 0.029000 0.178000 -0.014000
v 0.008000 0.197000 -0.003000
v 0.039000 0.221000 -0.022000
v 0.029000 0.178000 -0.014000
v 0.020000 0.220000 -0.022000
v 0.039000 0.161000 -0.008000
v 0.035000 0.162000 -0.018000
v 0.029000 0.178000 -0.014000
v 0.039000 0.175000 -0.004000
v 0.039000 0.161000 -0.008000
v 0.029000 0.178000 -0.014000
v 0.035000 0.162000 -0.018000
v 0.024000 0.162000 -0.018000
v 0.029000 0.178000 -0.014000
v 0.024000 0.162000 -0.018000
v 0.017000 0.161000 -0.008000
v 0.029000 0.178000 -0.014000
v 0.039000 0.175000 -0.004000
v 0.029000 0.178000 -0.014000
v 0.039000 0.221000 -0.022000
v 0.017000 0.175000 -0.004000
v 0.029000 0.178000 -0.014000
v 0.017000 0.161000 -0.008000
v -0.038000 0.221000 -0.022000
v -0.047000 0.204000 -0.002000
v -0.033000 0.252000 -0.020000
v -0.047000 0.204000 -0.002000
v -0.037000 0.290000 0.005000
v -0.033000 0.252000 -0.020000
v 0.000000 0.249000 0.006000
v -0.007000 0.197000 -0.003000
v -0.019000 0.220000 -0.022000
v -0.019000 0.220000 -0.022000
v -0.012000 0.245000 -0.020000
v 0.000000 0.249000 0.006000
v -0.033000 0.252000 -0.020000
v -0.012000 0.245000 -0.020000
v -0.019000 0.220000 -0.022000
v -0.019000 0.220000 -0.022000
v -0.038000 0.221000 -0.022000
v -0.033000 0.252000 -0.020000
v -0.038000 0.175000 -0.004000
v -0.047000 0.204000 -0.002000
v -0.038000 0.221000 -0.022000
v -0.016000 0.175000 -0.004000
v -0.028000 0.178000 -0.014000
v -0.007000 0.197000 -0.003000
v -0.028000 0.178000 -0.014000
v -0.019000 0.220000 -0.022000
v -0.007000 0.197000 -0.003000
v -0.028000 0.178000 -0.014000
v -0.038000 0.221000 -0.022000
v -0.019000 0.220000 -0.022000
v -0.034000 0.162000 -0.019000
v -0.038000 0.161000 -0.009000
v -0.028000 0.178000 -0.014000
v -0.038000 0.161000 -0.009000
v -0.038000 0.175000 -0.004000
v -0.028000 0.178000 -0.014000
v -0.023000 0.162000 -0.019000
v -0.034000 0.162000 -0.019000
v -0.028000 0.178000 -0.014000
v -0.016000 0.161000 -0.009000
v -0.023000 0.162000 -0.019000
v -0.028000 0.178000 -0.014000
v -0.028000 0.178000 -0.014000
v -0.038000 0.175000 -0.004000
v -0.038000 0.221000 -0.022000
v -0.028000 0.178000 -0.014000
v -0.016000 0.175000 -0.004000
v -0.016000 0.161000 -0.009000
v 0.055000 0.358000 -0.024000
v 0.062000 0.343000 -0.024000
v 0.070000 0.362000 -0.007000
v 0.070000 0.340000 -0.033000
v 0.062000 0.343000 -0.024000
v 0.055000 0.358000 -0.024000
v 0.070000 0.340000 -0.033000
v 0.070000 0.335000 -0.034000
v 0.062000 0.343000 -0.024000
v 0.070000 0.335000 -0.034000
v 0.061000 0.333000 -0.025000
v 0.062000 0.343000 -0.024000
v 0.061000 0.333000 -0.025000
v 0.069000 0.331000 -0.015000
v 0.069000 0.347000 -0.015000
v 0.062000 0.343000 -0.024000
v 0.061000 0.333000 -0.025000
v 0.069000 0.347000 -0.015000
v 0.072000 0.389000 -0.044000
v 0.070000 0.340000 -0.033000
v 0.055000 0.358000 -0.024000
v 0.055000 0.358000 -0.024000
v 0.070000 0.362000 -0.007000
v 0.067000 0.413000 -0.007000
v 0.056000 0.418000 -0.023000
v 0.055000 0.358000 -0.024000
v 0.067000 0.413000 -0.007000
v 0.072000 0.389000 -0.044000
v 0.055000 0.358000 -0.024000
v 0.056000 0.418000 -0.023000
v 0.067000 0.413000 -0.035000
v 0.072000 0.389000 -0.044000
v 0.056000 0.418000 -0.023000
v 0.062000 0.343000 -0.024000
v 0.069000 0.347000 -0.015000
v 0.070000 0.362000 -0.007000
v -0.061000 0.343000 -0.024000
v -0.054000 0.358000 -0.024000
v -0.069000 0.362000 -0.007000
v -0.061000 0.343000 -0.024000
v -0.069000 0.340000 -0.033000
v -0.054000 0.358000 -0.024000
v -0.070000 0.335000 -0.034000
v -0.069000 0.340000 -0.033000
v -0.061000 0.343000 -0.024000
v -0.061000 0.333000 -0.025000
v -0.070000 0.335000 -0.034000
v -0.061000 0.343000 -0.024000
v -0.068000 0.331000 -0.015000
v -0.061000 0.333000 -0.025000
v -0.068000 0.347000 -0.015000
v -0.061000 0.333000 -0.025000
v -0.061000 0.343000 -0.024000
v -0.068000 0.347000 -0.015000
v -0.069000 0.340000 -0.033000
v -0.071000 0.389000 -0.044000
v -0.054000 0.358000 -0.024000
v -0.069000 0.362000 -0.007000
v -0.054000 0.358000 -0.024000
v -0.066000 0.413000 -0.007000
v -0.054000 0.358000 -0.024000
v -0.055000 0.418000 -0.023000
v -0.066000 0.413000 -0.007000
v -0.054000 0.358000 -0.024000
v -0.071000 0.389000 -0.044000
v -0.055000 0.418000 -0.023000
v -0.071000 0.389000 -0.044000
v -0.066000 0.413000 -0.035000
v -0.055000 0.418000 -0.023000
v -0.068000 0.347000 -0.015000
v -0.061000 0.343000 -0.024000
v -0.069000 0.362000 -0.007000
v 0.072000 0.317000 -0.045000
v 0.050000 0.316000 -0.025000
v 0.061000 0.333000 -0.025000
v 0.070000 0.335000 -0.034000
v 0.072000 0.317000 -0.045000
v 0.061000 0.333000 -0.025000
v 0.063000 0.267000 -0.025000
v 0.075000 0.266000 -0.008000
v 0.069000 0.313000 -0.004000
v 0.050000 0.316000 -0.025000
v 0.063000 0.267000 -0.025000
v 0.069000 0.313000 -0.004000
v 0.070000 0.226000 -0.027000
v 0.056000 0.258000 -0.014000
v 0.061000 0.255000 -0.045000
v 0.061000 0.255000 -0.045000
v 0.069000 0.227000 -0.045000
v 0.070000 0.226000 -0.027000
v 0.061000 0.255000 -0.045000
v 0.056000 0.258000 -0.014000
v 0.063000 0.267000 -0.025000
v 0.063000 0.267000 -0.025000
v 0.075000 0.265000 -0.039000
v 0.061000 0.255000 -0.045000
v 0.055000 0.237000 -0.008000
v 0.061000 0.248000 0.001000
v 0.056000 0.258000 -0.014000
v 0.056000 0.258000 -0.014000
v 0.070000 0.227000 -0.010000
v 0.055000 0.237000 -0.008000
v 0.056000 0.258000 -0.014000
v 0.070000 0.226000 -0.027000
v 0.070000 0.227000 -0.010000
v 0.050000 0.316000 -0.025000
v 0.069000 0.313000 -0.004000
v 0.069000 0.331000 -0.015000
v 0.075000 0.265000 -0.039000
v 0.063000 0.267000 -0.025000
v 0.050000 0.316000 -0.025000
v 0.061000 0.333000 -0.025000
v 0.050000 0.316000 -0.025000
v 0.069000 0.331000 -0.015000
v 0.072000 0.317000 -0.045000
v 0.075000 0.265000 -0.039000
v 0.050000 0.316000 -0.025000
v 0.063000 0.267000 -0.025000
v 0.056000 0.258000 -0.014000
v 0.075000 0.266000 -0.008000
v 0.056000 0.258000 -0.014000
v 0.061000 0.248000 0.001000
v 0.075000 0.266000 -0.008000
v -0.050000 0.316000 -0.025000
v -0.071000 0.317000 -0.045000
v -0.061000 0.333000 -0.025000
v -0.071000 0.317000 -0.045000
v -0.070000 0.335000 -0.034000
v -0.061000 0.333000 -0.025000
v -0.075000 0.266000 -0.008000
v -0.062000 0.267000 -0.025000
v -0.069000 0.313000 -0.004000
v -0.062000 0.267000 -0.025000
v -0.050000 0.316000 -0.025000
v -0.069000 0.313000 -0.004000
v -0.056000 0.258000 -0.014000
v -0.070000 0.226000 -0.027000
v -0.060000 0.255000 -0.045000
v -0.068000 0.227000 -0.045000
v -0.060000 0.255000 -0.045000
v -0.070000 0.226000 -0.027000
v -0.056000 0.258000 -0.014000
v -0.060000 0.255000 -0.045000
v -0.062000 0.267000 -0.025000
v -0.075000 0.265000 -0.039000
v -0.062000 0.267000 -0.025000
v -0.060000 0.255000 -0.045000
v -0.061000 0.248000 0.001000
v -0.054000 0.237000 -0.008000
v -0.056000 0.258000 -0.014000
v -0.069000 0.227000 -0.010000
v -0.056000 0.258000 -0.014000
v -0.054000 0.237000 -0.008000
v -0.070000 0.226000 -0.027000
v -0.056000 0.258000 -0.014000
v -0.069000 0.227000 -0.010000
v -0.069000 0.313000 -0.004000
v -0.050000 0.316000 -0.025000
v -0.068000 0.331000 -0.015000
v -0.062000 0.267000 -0.025000
v -0.075000 0.265000 -0.039000
v -0.050000 0.316000 -0.025000
v -0.050000 0.316000 -0.025000
v -0.061000 0.333000 -0.025000
v -0.068000 0.331000 -0.015000
v -0.075000 0.265000 -0.039000
v -0.071000 0.317000 -0.045000
v -0.050000 0.316000 -0.025000
v -0.056000 0.258000 -0.014000
v -0.062000 0.267000 -0.025000
v -0.075000 0.266000 -0.008000
v -0.061000 0.248000 0.001000
v -0.056000 0.258000 -0.014000
v -0.075000 0.266000 -0.008000
v 0.061000 0.255000 -0.045000
v 0.082000 0.229000 -0.045000
v 0.069000 0.227000 -0.045000
v 0.082000 0.229000 -0.045000
v 0.061000 0.255000 -0.045000
v 0.075000 0.265000 -0.039000
v 0.089000 0.263000 -0.025000
v 0.075000 0.265000 -0.039000
v 0.072000 0.317000 -0.045000
v 0.090000 0.314000 -0.024000
v 0.089000 0.263000 -0.025000
v 0.072000 0.317000 -0.045000
v 0.069000 0.313000 -0.004000
v 0.090000 0.314000 -0.024000
v 0.078000 0.333000 -0.025000
v 0.081000 0.229000 -0.010000
v 0.075000 0.266000 -0.008000
v 0.072000 0.239000 -0.005000
v 0.069000 0.331000 -0.015000
v 0.069000 0.313000 -0.004000
v 0.078000 0.333000 -0.025000
v 0.082000 0.227000 -0.026000
v 0.075000 0.265000 -0.039000
v 0.089000 0.263000 -0.025000
v 0.090000 0.314000 -0.024000
v 0.072000 0.317000 -0.045000
v 0.070000 0.335000 -0.034000
v 0.078000 0.333000 -0.025000
v 0.090000 0.314000 -0.024000
v 0.070000 0.335000 -0.034000
v 0.075000 0.266000 -0.008000
v 0.089000 0.263000 -0.025000
v 0.090000 0.314000 -0.024000
v 0.069000 0.313000 -0.004000
v 0.075000 0.266000 -0.008000
v 0.090000 0.314000 -0.024000
v 0.072000 0.239000 -0.005000
v 0.075000 0.266000 -0.008000
v 0.061000 0.248000 0.001000
v 0.082000 0.227000 -0.026000
v 0.089000 0.263000 -0.025000
v 0.075000 0.266000 -0.008000
v 0.082000 0.227000 -0.026000
v 0.075000 0.266000 -0.008000
v 0.081000 0.229000 -0.010000
v 0.082000 0.229000 -0.045000
v 0.075000 0.265000 -0.039000
v 0.082000 0.227000 -0.026000
v -0.081000 0.229000 -0.045000
v -0.060000 0.255000 -0.045000
v -0.068000 0.227000 -0.045000
v -0.060000 0.255000 -0.045000
v -0.081000 0.229000 -0.045000
v -0.075000 0.265000 -0.039000
v -0.075000 0.265000 -0.039000
v -0.089000 0.263000 -0.025000
v -0.071000 0.317000 -0.045000
v -0.089000 0.263000 -0.025000
v -0.090000 0.314000 -0.024000
v -0.071000 0.317000 -0.045000
v -0.090000 0.314000 -0.024000
v -0.069000 0.313000 -0.004000
v -0.078000 0.333000 -0.025000
v -0.075000 0.266000 -0.008000
v -0.081000 0.229000 -0.010000
v -0.072000 0.239000 -0.005000
v -0.069000 0.313000 -0.004000
v -0.068000 0.331000 -0.015000
v -0.078000 0.333000 -0.025000
v -0.075000 0.265000 -0.039000
v -0.081000 0.227000 -0.026000
v -0.089000 0.263000 -0.025000
v -0.071000 0.317000 -0.045000
v -0.090000 0.314000 -0.024000
v -0.070000 0.335000 -0.034000
v -0.090000 0.314000 -0.024000
v -0.078000 0.333000 -0.025000
v -0.070000 0.335000 -0.034000
v -0.089000 0.263000 -0.025000
v -0.075000 0.266000 -0.008000
v -0.090000 0.314000 -0.024000
v -0.075000 0.266000 -0.008000
v -0.069000 0.313000 -0.004000
v -0.090000 0.314000 -0.024000
v -0.075000 0.266000 -0.008000
v -0.072000 0.239000 -0.005000
v -0.061000 0.248000 0.001000
v -0.089000 0.263000 -0.025000
v -0.081000 0.227000 -0.026000
v -0.075000 0.266000 -0.008000
v -0.075000 0.266000 -0.008000
v -0.081000 0.227000 -0.026000
v -0.081000 0.229000 -0.010000
v -0.075000 0.265000 -0.039000
v -0.081000 0.229000 -0.045000
v -0.081000 0.227000 -0.026000
v 0.073000 0.432000 -0.022000
v 0.061000 0.428000 -0.040000
v 0.060000 0.442000 -0.023000
v 0.086000 0.381000 -0.024000
v 0.072000 0.389000 -0.044000
v 0.067000 0.413000 -0.035000
v 0.069000 0.347000 -0.015000
v 0.078000 0.343000 -0.024000
v 0.086000 0.381000 -0.024000
v 0.070000 0.362000 -0.007000
v 0.069000 0.347000 -0.015000
v 0.086000 0.381000 -0.024000
v 0.078000 0.343000 -0.024000
v 0.070000 0.340000 -0.033000
v 0.072000 0.389000 -0.044000
v 0.086000 0.381000 -0.024000
v 0.078000 0.343000 -0.024000
v 0.072000 0.389000 -0.044000
v 0.069000 0.331000 -0.015000
v 0.078000 0.333000 -0.025000
v 0.078000 0.343000 -0.024000
v 0.069000 0.347000 -0.015000
v 0.069000 0.331000 -0.015000
v 0.078000 0.343000 -0.024000
v 0.078000 0.333000 -0.025000
v 0.070000 0.335000 -0.034000
v 0.070000 0.340000 -0.033000
v 0.078000 0.343000 -0.024000
v 0.078000 0.333000 -0.025000
v 0.070000 0.340000 -0.033000
v 0.086000 0.381000 -0.024000
v 0.067000 0.413000 -0.007000
v 0.070000 0.362000 -0.007000
v 0.073000 0.432000 -0.022000
v 0.076000 0.418000 -0.023000
v 0.067000 0.413000 -0.035000
v 0.076000 0.418000 -0.023000
v 0.086000 0.381000 -0.024000
v 0.067000 0.413000 -0.035000
v 0.067000 0.413000 -0.007000
v 0.086000 0.381000 -0.024000
v 0.076000 0.418000 -0.023000
v 0.067000 0.413000 -0.007000
v 0.076000 0.418000 -0.023000
v 0.073000 0.432000 -0.022000
v 0.067000 0.413000 -0.035000
v 0.061000 0.428000 -0.040000
v 0.073000 0.432000 -0.022000
v 0.055000 0.426000 0.001000
v 0.073000 0.432000 -0.022000
v 0.060000 0.442000 -0.023000
v 0.067000 0.413000 -0.007000
v 0.073000 0.432000 -0.022000
v 0.055000 0.426000 0.001000
v -0.060000 0.428000 -0.040000
v -0.072000 0.432000 -0.022000
v -0.059000 0.442000 -0.023000
v -0.071000 0.389000 -0.044000
v -0.085000 0.381000 -0.024000
v -0.066000 0.413000 -0.035000
v -0.077000 0.343000 -0.024000
v -0.068000 0.347000 -0.015000
v -0.085000 0.381000 -0.024000
v -0.068000 0.347000 -0.015000
v -0.069000 0.362000 -0.007000
v -0.085000 0.381000 -0.024000
v -0.069000 0.340000 -0.033000
v -0.077000 0.343000 -0.024000
v -0.071000 0.389000 -0.044000
v -0.077000 0.343000 -0.024000
v -0.085000 0.381000 -0.024000
v -0.071000 0.389000 -0.044000
v -0.078000 0.333000 -0.025000
v -0.068000 0.331000 -0.015000
v -0.077000 0.343000 -0.024000
v -0.068000 0.331000 -0.015000
v -0.068000 0.347000 -0.015000
v -0.077000 0.343000 -0.024000
v -0.070000 0.335000 -0.034000
v -0.078000 0.333000 -0.025000
v -0.069000 0.340000 -0.033000
v -0.078000 0.333000 -0.025000
v -0.077000 0.343000 -0.024000
v -0.069000 0.340000 -0.033000
v -0.066000 0.413000 -0.007000
v -0.085000 0.381000 -0.024000
v -0.069000 0.362000 -0.007000
v -0.075000 0.418000 -0.023000
v -0.072000 0.432000 -0.022000
v -0.066000 0.413000 -0.035000
v -0.085000 0.381000 -0.024000
v -0.075000 0.418000 -0.023000
v -0.066000 0.413000 -0.035000
v -0.085000 0.381000 -0.024000
v -0.066000 0.413000 -0.007000
v -0.075000 0.418000 -0.023000
v -0.075000 0.418000 -0.023000
v -0.066000 0.413000 -0.007000
v -0.072000 0.432000 -0.022000
v -0.060000 0.428000 -0.040000
v -0.066000 0.413000 -0.035000
v -0.072000 0.432000 -0.022000
v -0.072000 0.432000 -0.022000
v -0.053000 0.426000 0.001000
v -0.059000 0.442000 -0.023000
v -0.072000 0.432000 -0.022000
v -0.066000 0.413000 -0.007000
v -0.053000 0.426000 0.001000
v 0.024000 0.304000 -0.010000
v 0.000000 0.304000 -0.003000
v 0.000000 0.284000 0.023000
v 0.038000 0.290000 0.005000
v 0.024000 0.304000 -0.010000
v 0.000000 0.284000 0.023000
v 0.028000 0.345000 -0.037000
v 0.023000 0.327000 -0.010000
v 0.024000 0.304000 -0.010000
v 0.024000 0.304000 -0.010000
v 0.023000 0.327000 -0.010000
v 0.000000 0.341000 0.002000
v 0.000000 0.304000 -0.003000
v 0.024000 0.304000 -0.010000
v 0.000000 0.341000 0.002000
v 0.023000 0.327000 -0.010000
v 0.028000 0.345000 -0.037000
v 0.045000 0.345000 0.011000
v 0.023000 0.327000 -0.010000
v 0.045000 0.345000 0.011000
v 0.000000 0.351000 0.028000
v 0.000000 0.341000 0.002000
v 0.023000 0.327000 -0.010000
v 0.000000 0.351000 0.028000
v 0.044000 0.398000 -0.050000
v 0.047000 0.372000 0.012000
v 0.045000 0.345000 0.011000
v 0.028000 0.345000 -0.037000
v 0.044000 0.398000 -0.050000
v 0.045000 0.345000 0.011000
v 0.047000 0.372000 0.012000
v 0.000000 0.368000 0.026000
v 0.000000 0.351000 0.028000
v 0.045000 0.345000 0.011000
v 0.047000 0.372000 0.012000
v 0.000000 0.351000 0.028000
v 0.038000 0.290000 0.005000
v 0.000000 0.284000 0.023000
v 0.021000 0.281000 0.025000
v 0.021000 0.281000 0.025000
v 0.000000 0.284000 0.023000
v 0.000000 0.249000 0.006000
v 0.000000 0.304000 -0.003000
v -0.023000 0.304000 -0.010000
v 0.000000 0.284000 0.023000
v -0.023000 0.304000 -0.010000
v -0.037000 0.290000 0.005000
v 0.000000 0.284000 0.023000
v -0.022000 0.327000 -0.010000
v -0.027000 0.345000 -0.038000
v -0.023000 0.304000 -0.010000
v -0.022000 0.327000 -0.010000
v -0.023000 0.304000 -0.010000
v 0.000000 0.341000 0.002000
v -0.023000 0.304000 -0.010000
v 0.000000 0.304000 -0.003000
v 0.000000 0.341000 0.002000
v -0.027000 0.345000 -0.038000
v -0.022000 0.327000 -0.010000
v -0.044000 0.345000 0.011000
v -0.044000 0.345000 0.011000
v -0.022000 0.327000 -0.010000
v 0.000000 0.351000 0.028000
v -0.022000 0.327000 -0.010000
v 0.000000 0.341000 0.002000
v 0.000000 0.351000 0.028000
v -0.046000 0.372000 0.012000
v -0.043000 0.398000 -0.050000
v -0.044000 0.345000 0.011000
v -0.043000 0.398000 -0.050000
v -0.027000 0.345000 -0.038000
v -0.044000 0.345000 0.011000
v 0.000000 0.368000 0.026000
v -0.046000 0.372000 0.012000
v 0.000000 0.351000 0.028000
v -0.046000 0.372000 0.012000
v -0.044000 0.345000 0.011000
v 0.000000 0.351000 0.028000
v 0.000000 0.284000 0.023000
v -0.037000 0.290000 0.005000
v -0.020000 0.281000 0.025000
v 0.000000 0.284000 0.023000
v -0.020000 0.281000 0.025000
v 0.000000 0.249000 0.006000
v -0.018000 0.003000 -0.044000
v -0.029000 0.003000 0.022000
v -0.051000 0.003000 -0.020000
v -0.029000 0.003000 0.022000
v -0.058000 0.003000 0.016000
v -0.051000 0.003000 -0.020000
v -0.029000 0.003000 0.022000
v -0.054000 0.004000 0.039000
v -0.058000 0.003000 0.016000
v -0.035000 0.004000 0.039000
v -0.042000 0.004000 0.066000
v -0.054000 0.004000 0.039000
v -0.001000 0.003000 0.026000
v -0.029000 0.004000 0.043000
v -0.029000 0.003000 0.022000
v -0.005000 0.004000 0.046000
v -0.021000 0.004000 0.085000
v -0.029000 0.004000 0.043000
v -0.029000 0.003000 0.022000
v -0.035000 0.004000 0.039000
v -0.054000 0.004000 0.039000
v -0.001000 0.003000 0.026000
v -0.005000 0.004000 0.046000
v -0.029000 0.004000 0.043000
v -0.018000 0.003000 -0.044000
v -0.001000 0.003000 0.026000
v -0.029000 0.003000 0.022000
v -0.039000 0.003000 -0.044000
v -0.018000 0.003000 -0.044000
v -0.051000 0.003000 -0.020000
v 0.030000 0.003000 0.023000
v 0.019000 0.003000 -0.043000
v 0.052000 0.003000 -0.019000
v 0.059000 0.003000 0.017000
v 0.030000 0.003000 0.023000
v 0.052000 0.003000 -0.019000
v 0.055000 0.004000 0.040000
v 0.030000 0.003000 0.023000
v 0.059000 0.003000 0.017000
v 0.043000 0.004000 0.067000
v 0.036000 0.004000 0.040000
v 0.055000 0.004000 0.040000
v 0.030000 0.004000 0.044000
v 0.002000 0.003000 0.027000
v 0.030000 0.003000 0.023000
v 0.022000 0.004000 0.086000
v 0.006000 0.004000 0.047000
v 0.030000 0.004000 0.044000
v 0.036000 0.004000 0.040000
v 0.030000 0.003000 0.023000
v 0.055000 0.004000 0.040000
v 0.006000 0.004000 0.047000
v 0.002000 0.003000 0.027000
v 0.030000 0.004000 0.044000
v 0.002000 0.003000 0.027000
v 0.019000 0.003000 -0.043000
v 0.030000 0.003000 0.023000
v 0.019000 0.003000 -0.043000
v 0.040000 0.003000 -0.043000
v 0.052000 0.003000 -0.019000
v 0.018000 0.024000 0.053000
v 0.006000 0.004000 0.047000
v 0.022000 0.004000 0.086000
v 0.047000 0.040000 0.019000
v 0.040000 0.024000 -0.036000
v 0.050000 0.103000 -0.021000
v 0.030000 0.043000 0.025000
v 0.047000 0.040000 0.019000
v 0.030000 0.113000 0.011000
v 0.011000 0.040000 0.019000
v 0.002000 0.003000 0.027000
v 0.018000 0.024000 0.053000
v 0.019000 0.024000 -0.036000
v 0.019000 0.003000 -0.043000
v 0.002000 0.003000 0.027000
v 0.035000 0.162000 -0.018000
v 0.039000 0.161000 -0.008000
v 0.040000 0.150000 -0.035000
v 0.030000 0.113000 0.011000
v 0.054000 0.125000 -0.016000
v 0.039000 0.161000 -0.008000
v 0.028000 0.159000 0.009000
v 0.030000 0.113000 0.011000
v 0.039000 0.161000 -0.008000
v 0.050000 0.103000 -0.021000
v 0.040000 0.098000 -0.035000
v 0.045000 0.124000 -0.042000
v 0.054000 0.125000 -0.016000
v 0.050000 0.103000 -0.021000
v 0.045000 0.124000 -0.042000
v 0.054000 0.125000 -0.016000
v 0.030000 0.113000 0.011000
v 0.050000 0.103000 -0.021000
v 0.054000 0.125000 -0.016000
v 0.045000 0.124000 -0.042000
v 0.040000 0.150000 -0.035000
v 0.024000 0.162000 -0.018000
v 0.018000 0.150000 -0.041000
v 0.017000 0.161000 -0.008000
v 0.050000 0.103000 -0.021000
v 0.030000 0.113000 0.011000
v 0.047000 0.040000 0.019000
v 0.039000 0.161000 -0.008000
v 0.054000 0.125000 -0.016000
v 0.040000 0.150000 -0.035000
v 0.047000 0.040000 0.019000
v 0.055000 0.004000 0.040000
v 0.059000 0.003000 0.017000
v 0.047000 0.040000 0.019000
v 0.059000 0.003000 0.017000
v 0.052000 0.003000 -0.019000
v 0.018000 0.150000 -0.041000
v 0.005000 0.125000 -0.016000
v 0.017000 0.161000 -0.008000
v 0.045000 0.022000 0.045000
v 0.043000 0.004000 0.067000
v 0.055000 0.004000 0.040000
v 0.040000 0.098000 -0.035000
v 0.050000 0.103000 -0.021000
v 0.040000 0.024000 -0.036000
v 0.045000 0.022000 0.045000
v 0.055000 0.004000 0.040000
v 0.047000 0.040000 0.019000
v 0.011000 0.040000 0.019000
v 0.019000 0.024000 -0.036000
v 0.002000 0.003000 0.027000
v 0.018000 0.024000 0.053000
v 0.002000 0.003000 0.027000
v 0.006000 0.004000 0.047000
v 0.040000 0.024000 -0.036000
v 0.052000 0.003000 -0.019000
v 0.040000 0.003000 -0.043000
v 0.012000 0.124000 -0.048000
v 0.005000 0.125000 -0.016000
v 0.018000 0.150000 -0.041000
v 0.047000 0.040000 0.019000
v 0.052000 0.003000 -0.019000
v 0.040000 0.024000 -0.036000
v 0.005000 0.125000 -0.016000
v 0.010000 0.103000 -0.022000
v 0.030000 0.113000 0.011000
v 0.030000 0.113000 0.011000
v 0.011000 0.040000 0.019000
v 0.030000 0.043000 0.025000
v 0.010000 0.103000 -0.022000
v 0.011000 0.040000 0.019000
v 0.030000 0.113000 0.011000
v 0.019000 0.024000 -0.036000
v 0.011000 0.040000 0.019000
v 0.010000 0.103000 -0.022000
v 0.018000 0.098000 -0.035000
v 0.019000 0.024000 -0.036000
v 0.010000 0.103000 -0.022000
v 0.028000 0.159000 0.009000
v 0.017000 0.161000 -0.008000
v 0.030000 0.113000 0.011000
v 0.005000 0.125000 -0.016000
v 0.030000 0.113000 0.011000
v 0.017000 0.161000 -0.008000
v 0.010000 0.103000 -0.022000
v 0.005000 0.125000 -0.016000
v 0.012000 0.124000 -0.048000
v 0.018000 0.098000 -0.035000
v 0.010000 0.103000 -0.022000
v 0.012000 0.124000 -0.048000
v -0.085000 0.211000 -0.034000
v -0.081000 0.227000 -0.026000
v -0.081000 0.229000 -0.045000
v -0.081000 0.229000 -0.045000
v -0.068000 0.227000 -0.045000
v -0.073000 0.209000 -0.041000
v -0.081000 0.227000 -0.026000
v -0.070000 0.226000 -0.027000
v -0.073000 0.209000 -0.027000
v -0.085000 0.210000 -0.022000
v -0.081000 0.229000 -0.010000
v -0.081000 0.227000 -0.026000
v -0.073000 0.209000 -0.041000
v -0.085000 0.211000 -0.034000
v -0.081000 0.229000 -0.045000
v -0.085000 0.210000 -0.022000
v -0.073000 0.209000 -0.027000
v -0.073000 0.186000 -0.023000
v -0.073000 0.209000 -0.027000
v -0.085000 0.210000 -0.022000
v -0.081000 0.227000 -0.026000
v -0.085000 0.211000 -0.034000
v -0.073000 0.209000 -0.041000
v -0.072000 0.190000 -0.034000
v -0.073000 0.208000 -0.030000
v -0.085000 0.211000 -0.034000
v -0.072000 0.190000 -0.034000
v -0.072000 0.239000 -0.005000
v -0.069000 0.227000 -0.010000
v -0.064000 0.222000 -0.006000
v -0.073000 0.208000 -0.013000
v -0.085000 0.210000 -0.022000
v -0.073000 0.186000 -0.023000
v -0.068000 0.222000 0.002000
v -0.057000 0.223000 0.003000
v -0.061000 0.248000 0.001000
v -0.061000 0.248000 0.001000
v -0.057000 0.223000 0.003000
v -0.054000 0.237000 -0.008000
v -0.064000 0.222000 -0.006000
v -0.069000 0.227000 -0.010000
v -0.054000 0.237000 -0.008000
v -0.081000 0.227000 -0.026000
v -0.085000 0.211000 -0.034000
v -0.073000 0.208000 -0.030000
v -0.073000 0.208000 -0.013000
v -0.069000 0.227000 -0.010000
v -0.081000 0.229000 -0.010000
v -0.064000 0.222000 -0.006000
v -0.068000 0.222000 0.002000
v -0.072000 0.239000 -0.005000
v -0.068000 0.222000 0.002000
v -0.064000 0.222000 -0.006000
v -0.065000 0.210000 -0.005000
v -0.085000 0.210000 -0.022000
v -0.073000 0.208000 -0.013000
v -0.081000 0.229000 -0.010000
v -0.073000 0.208000 -0.030000
v -0.070000 0.226000 -0.027000
v -0.081000 0.227000 -0.026000
v -0.061000 0.248000 0.001000
v -0.072000 0.239000 -0.005000
v -0.068000 0.222000 0.002000
v -0.057000 0.223000 0.003000
v -0.068000 0.222000 0.002000
v -0.065000 0.210000 -0.005000
v -0.069000 0.227000 -0.010000
v -0.072000 0.239000 -0.005000
v -0.081000 0.229000 -0.010000
v -0.073000 0.209000 -0.041000
v -0.073000 0.208000 -0.030000
v -0.072000 0.190000 -0.034000
v -0.068000 0.227000 -0.045000
v -0.070000 0.226000 -0.027000
v -0.073000 0.208000 -0.030000
v -0.070000 0.226000 -0.027000
v -0.069000 0.227000 -0.010000
v -0.073000 0.208000 -0.013000
v -0.073000 0.208000 -0.013000
v -0.073000 0.209000 -0.027000
v -0.070000 0.226000 -0.027000
v -0.073000 0.208000 -0.030000
v -0.073000 0.209000 -0.041000
v -0.068000 0.227000 -0.045000
v -0.073000 0.209000 -0.027000
v -0.073000 0.208000 -0.013000
v -0.073000 0.186000 -0.023000
v -0.054000 0.237000 -0.008000
v -0.057000 0.223000 0.003000
v -0.064000 0.222000 -0.006000
v -0.064000 0.222000 -0.006000
v -0.057000 0.223000 0.003000
v -0.065000 0.210000 -0.005000
v -0.005000 0.004000 0.046000
v -0.017000 0.024000 0.052000
v -0.021000 0.004000 0.085000
v -0.039000 0.024000 -0.037000
v -0.046000 0.040000 0.018000
v -0.049000 0.103000 -0.022000
v -0.046000 0.040000 0.018000
v -0.029000 0.043000 0.024000
v -0.029000 0.113000 0.010000
v -0.001000 0.003000 0.026000
v -0.010000 0.040000 0.018000
v -0.017000 0.024000 0.052000
v -0.018000 0.003000 -0.044000
v -0.018000 0.024000 -0.037000
v -0.001000 0.003000 0.026000
v -0.038000 0.161000 -0.009000
v -0.034000 0.162000 -0.019000
v -0.039000 0.150000 -0.035000
v -0.053000 0.125000 -0.016000
v -0.029000 0.113000 0.010000
v -0.038000 0.161000 -0.009000
v -0.029000 0.113000 0.010000
v -0.027000 0.159000 0.008000
v -0.038000 0.161000 -0.009000
v -0.039000 0.098000 -0.035000
v -0.049000 0.103000 -0.022000
v -0.044000 0.124000 -0.043000
v -0.049000 0.103000 -0.022000
v -0.053000 0.125000 -0.016000
v -0.044000 0.124000 -0.043000
v -0.029000 0.113000 0.010000
v -0.053000 0.125000 -0.016000
v -0.049000 0.103000 -0.022000
v -0.044000 0.124000 -0.043000
v -0.053000 0.125000 -0.016000
v -0.039000 0.150000 -0.035000
v -0.017000 0.150000 -0.042000
v -0.023000 0.162000 -0.019000
v -0.016000 0.161000 -0.009000
v -0.029000 0.113000 0.010000
v -0.049000 0.103000 -0.022000
v -0.046000 0.040000 0.018000
v -0.053000 0.125000 -0.016000
v -0.038000 0.161000 -0.009000
v -0.039000 0.150000 -0.035000
v -0.054000 0.004000 0.039000
v -0.046000 0.040000 0.018000
v -0.058000 0.003000 0.016000
v -0.058000 0.003000 0.016000
v -0.046000 0.040000 0.018000
v -0.051000 0.003000 -0.020000
v -0.004000 0.125000 -0.017000
v -0.017000 0.150000 -0.042000
v -0.016000 0.161000 -0.009000
v -0.042000 0.004000 0.066000
v -0.044000 0.022000 0.044000
v -0.054000 0.004000 0.039000
v -0.049000 0.103000 -0.022000
v -0.039000 0.098000 -0.035000
v -0.039000 0.024000 -0.037000
v -0.054000 0.004000 0.039000
v -0.044000 0.022000 0.044000
v -0.046000 0.040000 0.018000
v -0.018000 0.024000 -0.037000
v -0.010000 0.040000 0.018000
v -0.001000 0.003000 0.026000
v -0.001000 0.003000 0.026000
v -0.017000 0.024000 0.052000
v -0.005000 0.004000 0.046000
v -0.051000 0.003000 -0.020000
v -0.039000 0.024000 -0.037000
v -0.039000 0.003000 -0.044000
v -0.004000 0.125000 -0.017000
v -0.011000 0.124000 -0.049000
v -0.017000 0.150000 -0.042000
v -0.051000 0.003000 -0.020000
v -0.046000 0.040000 0.018000
v -0.039000 0.024000 -0.037000
v -0.009000 0.103000 -0.022000
v -0.004000 0.125000 -0.017000
v -0.029000 0.113000 0.010000
v -0.010000 0.040000 0.018000
v -0.029000 0.113000 0.010000
v -0.029000 0.043000 0.024000
v -0.010000 0.040000 0.018000
v -0.009000 0.103000 -0.022000
v -0.029000 0.113000 0.010000
v -0.010000 0.040000 0.018000
v -0.018000 0.024000 -0.037000
v -0.009000 0.103000 -0.022000
v -0.018000 0.024000 -0.037000
v -0.017000 0.098000 -0.036000
v -0.009000 0.103000 -0.022000
v -0.016000 0.161000 -0.009000
v -0.027000 0.159000 0.008000
v -0.029000 0.113000 0.010000
v -0.029000 0.113000 0.010000
v -0.004000 0.125000 -0.017000
v -0.016000 0.161000 -0.009000
v -0.004000 0.125000 -0.017000
v -0.009000 0.103000 -0.022000
v -0.011000 0.124000 -0.049000
v -0.009000 0.103000 -0.022000
v -0.017000 0.098000 -0.036000
v -0.011000 0.124000 -0.049000
v 0.082000 0.227000 -0.026000
v 0.086000 0.211000 -0.034000
v 0.082000 0.229000 -0.045000
v 0.069000 0.227000 -0.045000
v 0.082000 0.229000 -0.045000
v 0.073000 0.209000 -0.041000
v 0.070000 0.226000 -0.027000
v 0.082000 0.227000 -0.026000
v 0.073000 0.209000 -0.027000
v 0.081000 0.229000 -0.010000
v 0.086000 0.210000 -0.022000
v 0.082000 0.227000 -0.026000
v 0.086000 0.211000 -0.034000
v 0.073000 0.209000 -0.041000
v 0.082000 0.229000 -0.045000
v 0.073000 0.209000 -0.027000
v 0.086000 0.210000 -0.022000
v 0.073000 0.186000 -0.023000
v 0.086000 0.210000 -0.022000
v 0.073000 0.209000 -0.027000
v 0.082000 0.227000 -0.026000
v 0.073000 0.209000 -0.041000
v 0.086000 0.211000 -0.034000
v 0.073000 0.190000 -0.034000
v 0.086000 0.211000 -0.034000
v 0.073000 0.208000 -0.030000
v 0.073000 0.190000 -0.034000
v 0.070000 0.227000 -0.010000
v 0.072000 0.239000 -0.005000
v 0.065000 0.222000 -0.006000
v 0.086000 0.210000 -0.022000
v 0.073000 0.208000 -0.013000
v 0.073000 0.186000 -0.023000
v 0.057000 0.223000 0.003000
v 0.069000 0.222000 0.002000
v 0.061000 0.248000 0.001000
v 0.057000 0.223000 0.003000
v 0.061000 0.248000 0.001000
v 0.055000 0.237000 -0.008000
v 0.070000 0.227000 -0.010000
v 0.065000 0.222000 -0.006000
v 0.055000 0.237000 -0.008000
v 0.086000 0.211000 -0.034000
v 0.082000 0.227000 -0.026000
v 0.073000 0.208000 -0.030000
v 0.070000 0.227000 -0.010000
v 0.073000 0.208000 -0.013000
v 0.081000 0.229000 -0.010000
v 0.069000 0.222000 0.002000
v 0.065000 0.222000 -0.006000
v 0.072000 0.239000 -0.005000
v 0.065000 0.222000 -0.006000
v 0.069000 0.222000 0.002000
v 0.066000 0.210000 -0.005000
v 0.073000 0.208000 -0.013000
v 0.086000 0.210000 -0.022000
v 0.081000 0.229000 -0.010000
v 0.070000 0.226000 -0.027000
v 0.073000 0.208000 -0.030000
v 0.082000 0.227000 -0.026000
v 0.072000 0.239000 -0.005000
v 0.061000 0.248000 0.001000
v 0.069000 0.222000 0.002000
v 0.069000 0.222000 0.002000
v 0.057000 0.223000 0.003000
v 0.066000 0.210000 -0.005000
v 0.072000 0.239000 -0.005000
v 0.070000 0.227000 -0.010000
v 0.081000 0.229000 -0.010000
v 0.073000 0.208000 -0.030000
v 0.073000 0.209000 -0.041000
v 0.073000 0.190000 -0.034000
v 0.070000 0.226000 -0.027000
v 0.069000 0.227000 -0.045000
v 0.073000 0.208000 -0.030000
v 0.070000 0.227000 -0.010000
v 0.070000 0.226000 -0.027000
v 0.073000 0.208000 -0.013000
v 0.073000 0.209000 -0.027000
v 0.073000 0.208000 -0.013000
v 0.070000 0.226000 -0.027000
v 0.073000 0.209000 -0.041000
v 0.073000 0.208000 -0.030000
v 0.069000 0.227000 -0.045000
v 0.073000 0.208000 -0.013000
v 0.073000 0.209000 -0.027000
v 0.073000 0.186000 -0.023000
v 0.057000 0.223000 0.003000
v 0.055000 0.237000 -0.008000
v 0.065000 0.222000 -0.006000
v 0.057000 0.223000 0.003000
v 0.065000 0.222000 -0.006000
v 0.066000 0.210000 -0.005000
v -0.053000 0.426000 0.001000
v 0.000000 0.368000 0.026000
v -0.017000 0.450000 -0.027000
v 0.055000 0.426000 0.001000
v 0.017000 0.450000 -0.027000
v 0.000000 0.368000 0.026000
v -0.017000 0.450000 -0.027000
v 0.000000 0.368000 0.026000
v 0.017000 0.450000 -0.027000
v 0.011000 0.040000 0.019000
v 0.030000 0.003000 0.023000
v 0.030000 0.043000 0.025000
v 0.030000 0.004000 0.044000
v 0.018000 0.024000 0.053000
v 0.022000 0.004000 0.086000
v 0.030000 0.003000 0.023000
v 0.047000 0.040000 0.019000
v 0.030000 0.043000 0.025000
v 0.047000 0.040000 0.019000
v 0.030000 0.003000 0.023000
v 0.045000 0.022000 0.045000
v 0.036000 0.004000 0.040000
v 0.045000 0.022000 0.045000
v 0.030000 0.003000 0.023000
v 0.030000 0.004000 0.044000
v 0.011000 0.040000 0.019000
v 0.018000 0.024000 0.053000
v 0.045000 0.022000 0.045000
v 0.036000 0.004000 0.040000
v 0.043000 0.004000 0.067000
v 0.030000 0.003000 0.023000
v 0.011000 0.040000 0.019000
v 0.030000 0.004000 0.044000
v -0.029000 0.003000 0.022000
v -0.010000 0.040000 0.018000
v -0.029000 0.043000 0.024000
v -0.017000 0.024000 0.052000
v -0.029000 0.004000 0.043000
v -0.021000 0.004000 0.085000
v -0.046000 0.040000 0.018000
v -0.029000 0.003000 0.022000
v -0.029000 0.043000 0.024000
v -0.029000 0.003000 0.022000
v -0.046000 0.040000 0.018000
v -0.044000 0.022000 0.044000
v -0.044000 0.022000 0.044000
v -0.035000 0.004000 0.039000
v -0.029000 0.003000 0.022000
v -0.010000 0.040000 0.018000
v -0.029000 0.004000 0.043000
v -0.017000 0.024000 0.052000
v -0.035000 0.004000 0.039000
v -0.044000 0.022000 0.044000
v -0.042000 0.004000 0.066000
v -0.010000 0.040000 0.018000
v -0.029000 0.003000 0.022000
v -0.029000 0.004000 0.043000
v 0.023000 0.493000 0.004000
v 0.018000 0.465000 -0.025000
v 0.021000 0.463000 0.005000
v 0.018000 0.465000 -0.025000
v 0.023000 0.493000 0.004000
v 0.018000 0.490000 -0.028000
v -0.022000 0.493000 0.004000
v -0.017000 0.465000 -0.025000
v -0.017000 0.490000 -0.028000
v -0.017000 0.465000 -0.025000
v -0.022000 0.493000 0.004000
v -0.020000 0.463000 0.005000
v 0.023000 0.493000 0.004000
v 0.021000 0.463000 0.005000
v 0.018000 0.465000 -0.025000
v 0.018000 0.465000 -0.025000
v 0.018000 0.490000 -0.028000
v 0.023000 0.493000 0.004000
v -0.022000 0.493000 0.004000
v -0.017000 0.490000 -0.028000
v -0.017000 0.465000 -0.025000
v -0.017000 0.465000 -0.025000
v -0.020000 0.463000 0.005000
v -0.022000 0.493000 0.004000
v 0.021000 0.463000 0.005000
v 0.023000 0.493000 0.004000
v 0.000000 0.463000 0.028000
v 0.000000 0.492000 0.025000
v 0.000000 0.463000 0.028000
v 0.023000 0.493000 0.004000
v -0.022000 0.493000 0.004000
v -0.020000 0.463000 0.005000
v 0.000000 0.463000 0.028000
v 0.000000 0.463000 0.028000
v 0.000000 0.492000 0.025000
v -0.022000 0.493000 0.004000
vn -0.1873 0.6424 0.7431
vn 0.4978 0.8673 -0.0000
vn 0.2810 0.5900 0.7569
vn 0.5970 0.0149 0.8021
vn -0.0127 0.3003 0.9538
vn 0.2810 0.5900 0.7570
vn 0.2811 0.5899 0.7570
vn 0.3961 0.0149 0.9181
vn -0.1873 0.6425 0.7431
vn -0.9931 0.0149 0.1160
vn -0.2605 0.2483 0.9330
vn 0.2810 0.5899 0.7570
vn -0.2293 0.4641 0.8556
vn -0.3201 -0.4098 0.8542
vn -0.4930 -0.1653 -0.8542
vn -0.2867 0.0103 -0.9580
vn -0.2867 0.0103 0.9580
vn -0.3201 -0.4097 0.8542
vn -0.0581 0.0125 0.9982
vn -0.2866 0.0103 0.9580
vn -0.0582 0.0124 0.9982
vn -0.1873 0.6425 0.7430
vn -0.2867 0.0102 -0.9580
vn -0.3201 -0.4098 0.8541
vn -0.9396 0.0142 -0.3419
vn 0.7797 -0.2916 -0.5541
vn 0.5970 0.0148 0.8021
vn 0.3960 0.0149 0.9181
vn -0.9397 0.0141 -0.3418
vn -0.4317 0.5042 0.7479
vn -0.6503 0.7597 -0.0000
vn 0.0269 0.5470 0.8367
vn -0.4317 0.5043 0.7479
vn -0.0127 0.3003 0.9537
vn -0.6861 0.0103 0.7274
vn -0.4918 0.1802 0.8519
vn -0.8354 0.0125 -0.5495
vn 0.9730 0.0103 -0.2305
vn 0.0268 0.5470 0.8367
vn -0.2293 0.4642 0.8556
vn 0.9862 -0.1653 -0.0000
vn 0.7372 0.6424 0.2092
vn -0.2867 0.0102 0.9580
vn -0.0581 0.0124 0.9982
vn -0.2866 0.0102 0.9580
vn 0.7372 0.6424 0.2093
vn 0.7372 0.6425 0.2092
vn 0.7372 0.6425 0.2093
vn -0.2293 0.4642 0.8555
vn -0.7748 -0.2598 -0.5763
vn 0.9730 0.0102 -0.2305
vn -0.6861 0.0102 0.7274
vn -0.4917 0.1802 0.8519
vn -0.2606 0.2483 0.9330
vn -0.3202 -0.4098 0.8541
vn -0.3202 -0.4096 0.8542
vn -0.9931 0.0149 0.1161
vn 0.3960 0.0150 0.9181
vn 0.0269 0.5471 0.8367
vn 0.9863 -0.1653 -0.0000
vn -0.2866 0.0103 -0.9580
vn -0.7748 -0.2599 -0.5763
vn -0.8354 0.0124 -0.5495
vn -0.0127 0.3004 -0.9537
vn 0.0899 -0.2915 -0.9523
vn -0.1872 0.6425 0.7431
vn -0.0127 0.3003 -0.9538
vn 0.4979 0.8672 -0.0001
vn 0.6727 0.3330 -0.6607
vn 0.4979 0.8673 -0.0000
vn 0.0899 -0.2916 -0.9523
vn 0.0898 -0.2916 -0.9523
vn -0.0127 0.3003 -0.9537
vn 0.6727 0.3330 -0.6608
vn -0.6505 0.7595 -0.0001
vn 0.0898 -0.2915 -0.9523
vn -0.6263 0.4642 -0.6263
vn -0.7749 -0.2598 -0.5763
vn -0.6776 0.2484 -0.6922
vn -0.6263 0.4641 -0.6264
vn 0.7798 -0.2915 -0.5541
vn -0.9396 0.0141 -0.3419
vn -0.6776 0.2483 -0.6923
vn 0.0269 0.5471 0.8366
vn 0.4979 0.8672 -0.0000
vn -0.6776 0.2483 -0.6922
vn 0.3764 0.8520 0.3639
vn -0.4770 -0.8782 0.0359
vn -0.2239 -0.9677 -0.1162
vn 0.3251 0.7598 0.5631
vn 0.3251 0.7597 0.5631
vn 0.7660 0.0141 0.6427
vn 0.3763 0.8520 0.3639
vn 0.7660 0.0142 0.6427
vn -0.0000 1.0000 -0.0000
vn -0.4769 -0.8782 0.0359
vn 0.3763 0.8521 0.3639
vn 0.4776 -0.7714 -0.4205
vn 0.3251 0.7597 0.5632
vn -0.3202 -0.4097 -0.8542
vn 0.9836 0.1802 -0.0000
vn -0.3201 -0.4097 -0.8542
vn 0.4777 -0.7714 -0.4205
vn 0.8635 0.5043 0.0001
vn -0.3201 -0.4098 -0.8542
vn 0.8635 0.5043 -0.0000
vn 0.9836 0.1802 0.0001
vn -0.0056 -0.9999 0.0098
vn -0.7961 0.5900 0.1348
vn 0.4175 -0.8729 0.2524
vn 0.4175 -0.8729 0.2525
vn -0.6735 -0.7326 0.0986
vn -0.6734 -0.7326 0.0987
vn -0.7961 0.5900 0.1349
vn 0.3250 0.7598 0.5632
vn -0.3202 -0.4098 -0.8542
vn -0.2239 -0.9677 -0.1163
vn 0.3250 0.7598 0.5631
vn -0.4770 -0.8782 0.0358
vn 0.9836 0.1803 -0.0000
vn 0.8636 0.5043 0.0001
vn 0.3763 0.8521 0.3638
vn 0.9836 0.1803 0.0001
vn -0.0057 -0.9999 0.0098
vn -0.7961 0.5899 0.1348
vn -0.2605 0.2484 0.9330
vn -0.9931 0.0149 -0.1160
vn 1.0000 0.0073 -0.0001
vn -0.0582 0.0125 0.9982
vn 1.0000 0.0074 -0.0000
vn -0.9389 0.3441 -0.0000
vn -0.4917 0.1803 0.8519
vn 1.0000 0.0073 -0.0000
vn -0.0001 1.0000 -0.0000
vn -0.8355 0.0124 -0.5494
vn 0.0001 1.0000 -0.0000
vn 0.6402 -0.3113 -0.7023
vn -0.0581 0.0124 -0.9982
vn 0.6403 -0.3113 -0.7022
vn -0.0056 -0.9999 0.0097
vn -0.6735 -0.7326 0.0987
vn -0.9928 0.0157 -0.1191
vn 0.6402 -0.3113 -0.7022
vn -0.9481 -0.3179 -0.0000
vn -0.0581 0.0125 -0.9982
vn -0.5795 -0.4098 -0.7045
vn -0.8135 -0.5751 -0.0867
vn 0.7634 0.6459 -0.0000
vn 0.7634 0.6460 -0.0000
vn -0.9389 0.3441 -0.0001
vn -0.5795 -0.4097 -0.7045
vn -0.9935 0.0141 -0.1130
vn -0.0582 0.0124 -0.9982
vn -0.8134 -0.5752 -0.0867
vn -0.9481 -0.3180 -0.0000
vn -0.0057 -0.9999 0.0097
vn 0.7797 -0.2915 -0.5541
vn 0.4693 0.3441 -0.8132
vn 0.5970 0.0149 -0.8021
vn 0.2879 -0.3113 -0.9056
vn 0.4694 0.3441 -0.8132
vn -0.4918 0.1802 -0.8519
vn 0.2879 -0.3113 -0.9057
vn -0.1595 -0.4739 -0.8660
vn -0.2474 -0.6439 -0.7240
vn 0.1712 -0.5579 -0.8121
vn -0.1594 -0.4739 -0.8660
vn 0.2879 -0.3114 -0.9056
vn 0.6402 -0.3114 -0.7022
vn -0.4917 0.1802 -0.8519
vn 0.6403 -0.3113 -0.7023
vn 0.8324 0.3003 0.4657
vn 0.8324 0.3004 0.4656
vn -0.5794 -0.4098 -0.7045
vn -0.6861 0.0103 -0.7274
vn -0.6861 0.0102 -0.7274
vn -0.4998 0.0073 -0.8661
vn 0.1711 -0.5579 -0.8121
vn -0.4998 0.0074 -0.8661
vn -0.8196 0.3003 0.4879
vn -0.8196 0.3004 0.4879
vn 0.4739 -0.3179 -0.8212
vn 0.5970 0.0148 -0.8021
vn -0.3089 -0.2171 -0.9260
vn 0.4740 -0.3179 -0.8211
vn 0.7660 0.0141 -0.6427
vn 0.4740 -0.3179 -0.8212
vn 0.3960 0.0149 -0.9181
vn -0.3817 0.6460 -0.6611
vn 0.3250 0.7598 -0.5631
vn -0.3202 0.7682 -0.5543
vn 0.5148 0.5900 -0.6220
vn -0.3201 0.7683 -0.5543
vn 0.3961 0.0149 -0.9181
vn -0.3426 -0.7919 -0.5055
vn 0.3250 0.7597 -0.5632
vn -0.3202 0.7683 -0.5543
vn -0.4931 -0.1653 -0.8542
vn -0.6862 0.0102 -0.7273
vn -0.3817 0.6459 -0.6611
vn 0.2811 0.5900 -0.7569
vn 0.3079 -0.7879 -0.5333
vn 0.3251 0.7597 -0.5632
vn -0.2473 -0.6439 -0.7240
vn 0.0720 -0.6957 0.7147
vn 0.6402 -0.3113 0.7023
vn -0.4424 -0.7586 0.4783
vn 0.0899 -0.2915 0.9523
vn 0.0721 -0.6957 0.7147
vn 0.0899 -0.2916 0.9523
vn 0.9564 -0.2170 -0.1953
vn 0.0898 -0.2915 0.9523
vn -0.9390 0.3440 -0.0000
vn -0.1116 -0.2598 0.9592
vn -0.9283 -0.3113 -0.2032
vn 0.0898 -0.2916 0.9523
vn -0.9283 -0.3113 -0.2031
vn 0.9564 -0.2171 -0.1953
vn 0.9383 0.2483 0.2405
vn 0.8636 0.5043 -0.0000
vn -0.0127 0.3005 0.9537
vn 0.9428 -0.3333 -0.0000
vn -0.0127 0.3004 0.9537
vn -0.9283 -0.3114 -0.2032
vn 0.0059 -0.5237 0.8519
vn -0.1116 -0.2599 0.9592
vn 0.0059 -0.5238 0.8518
vn 0.0720 -0.6957 0.7148
vn -0.2475 -0.6439 -0.7240
vn 0.9383 0.2484 0.2405
vn 0.9564 -0.2171 -0.1954
vn -0.9284 -0.3113 -0.2031
vn 0.3961 0.0148 -0.9181
vn 0.1736 0.0142 -0.9847
vn 0.1735 0.0141 -0.9847
vn 0.2810 0.5900 -0.7569
vn 0.2811 0.5899 -0.7570
vn 0.1736 0.0141 -0.9847
vn -0.1116 -0.2597 0.9592
vn -0.4917 0.1801 0.8519
vn -0.9390 0.3439 -0.0000
vn 0.4693 0.3441 0.8132
vn -0.8698 -0.2916 -0.3981
vn -0.4424 -0.7587 0.4783
vn -0.8698 -0.2915 -0.3980
vn -0.9931 0.0148 -0.1159
vn 0.4694 0.3441 0.8132
vn 0.9377 0.3474 -0.0000
vn 0.7660 0.0142 -0.6427
vn 0.9377 0.3475 -0.0000
vn -0.2605 0.2483 -0.9330
vn 0.2359 0.3330 0.9129
vn 0.8866 -0.2598 -0.3826
vn 0.5954 -0.7216 0.3534
vn 0.5953 -0.7216 0.3534
vn -0.2606 0.2483 -0.9330
vn -0.2605 0.2484 -0.9330
vn 0.9836 0.1802 -0.0001
vn -0.6776 0.2484 -0.6923
vn 0.4694 0.3440 0.8132
vn -0.6475 -0.2171 0.7305
vn -0.6475 -0.2170 0.7305
vn 0.2359 0.3331 0.9129
vn 0.6727 0.3331 -0.6607
vn 0.9730 0.0103 0.2305
vn 0.9730 0.0102 0.2305
vn 0.8636 0.5042 -0.0000
vn -0.9931 0.0148 0.1160
vn 0.8325 0.3003 0.4656
vn 0.6176 -0.5580 0.5543
vn 0.8324 0.3004 0.4657
vn 0.0058 -0.5237 0.8519
vn 0.8298 -0.4739 0.2947
vn 0.6175 -0.5580 0.5544
vn 0.8297 -0.4740 0.2947
vn 0.8635 0.5043 -0.0001
vn -0.8195 0.3004 0.4880
vn -0.6061 -0.6415 0.4703
vn -0.8196 0.3004 0.4880
vn -0.7889 -0.5579 0.2576
vn -0.6061 -0.6415 0.4702
vn -0.7889 -0.5580 0.2576
vn 0.0268 0.5471 0.8366
vn 0.2071 -0.8781 0.4313
vn -0.7889 -0.5579 -0.2576
vn 0.2070 -0.8781 0.4313
vn 0.7394 -0.6505 0.1739
vn 0.8430 -0.5380 0.0010
vn -0.8135 -0.5751 0.0867
vn 0.2071 -0.8781 0.4312
vn -0.7889 -0.5579 0.2575
vn 0.8298 -0.4740 0.2947
vn -0.8135 -0.5751 0.0868
vn 0.8430 -0.5380 0.0009
vn -0.3088 -0.2171 -0.9260
vn -0.7889 -0.5579 -0.2577
vn -0.2496 -0.8664 0.4325
vn 0.7508 -0.6438 -0.1475
vn -0.1594 -0.4739 0.8660
vn -0.7889 -0.5579 0.2577
vn 0.8430 -0.5379 0.0010
vn -0.3426 -0.7919 -0.5054
vn 0.3960 0.0150 -0.9181
vn -0.4616 0.7815 0.4198
vn -0.6263 0.4642 0.6263
vn 0.9384 0.2483 0.2405
vn 0.7394 -0.6505 0.1738
vn 0.7508 -0.6439 -0.1474
vn -0.3202 0.7683 0.5543
vn -0.3202 0.7682 0.5544
vn 0.7393 -0.6505 0.1739
vn -0.4615 0.7815 0.4198
vn 0.7508 -0.6439 -0.1475
vn -0.4930 -0.1654 -0.8541
vn -0.9931 0.0150 0.1160
vn 0.9428 -0.3333 -0.0001
vn 0.0579 -0.9414 -0.3324
vn 0.2127 -0.9677 0.1355
vn 0.6402 -0.3114 0.7023
vn 0.2127 -0.9677 0.1356
vn -0.2473 -0.6440 -0.7240
vn 0.4739 -0.3180 0.8211
vn 0.0579 -0.9414 -0.3323
vn -0.7748 -0.2598 0.5763
vn 0.8866 -0.2599 0.3826
vn 0.8866 -0.2598 0.3827
vn 0.5954 -0.7216 0.3533
vn 0.8866 -0.2599 -0.3826
vn 0.5953 -0.7216 0.3533
vn -0.2474 -0.6440 -0.7240
vn -0.7748 -0.2599 0.5763
vn 0.4739 -0.3180 0.8212
vn 0.6402 -0.3114 0.7022
vn 0.8866 -0.2598 0.3826
vn -0.2238 -0.9677 -0.1162
vn -0.6862 0.0102 0.7274
vn 0.4739 -0.3179 0.8212
vn 0.8867 -0.2598 0.3826
vn -0.2239 -0.9676 -0.1162
vn -0.8196 0.3003 0.4880
vn 0.8429 -0.5380 0.0009
vn 0.6727 0.3330 0.6607
vn 0.3251 0.7597 -0.5631
vn 0.2810 0.5899 -0.7570
vn -0.8134 -0.5751 -0.0867
vn 0.0058 -0.5238 0.8518
vn 0.6727 0.3331 0.6607
vn 0.3763 0.8521 0.3637
vn 0.8297 -0.4740 0.2948
vn 0.2879 -0.3112 -0.9057
vn 0.9564 -0.2170 -0.1954
vn 0.0578 -0.9414 -0.3324
vn -0.2622 -0.9472 0.1844
vn -0.5795 -0.4097 0.7045
vn -0.4424 -0.7586 0.4784
vn 0.6402 -0.3113 0.7022
vn 0.3316 -0.5750 -0.7479
vn -0.5795 -0.4098 0.7045
vn -0.8698 -0.2915 0.3980
vn 0.7797 -0.2916 0.5541
vn -0.8698 -0.2916 0.3980
vn -0.8698 -0.2916 -0.3980
vn -0.4425 -0.7586 0.4783
vn 0.3316 -0.5751 -0.7479
vn 0.2589 -0.9414 -0.2163
vn 0.6403 -0.3113 0.7023
vn -0.2623 -0.9472 0.1844
vn -0.3089 -0.2170 -0.9260
vn 0.0579 -0.9413 -0.3324
vn 0.2588 -0.9414 -0.2163
vn -0.2495 -0.8664 0.4325
vn -0.3201 0.7682 0.5544
vn -0.3201 0.7682 0.5543
vn -0.6264 0.4642 0.6263
vn -0.8195 0.3004 0.4879
vn 0.2070 -0.8782 0.4312
vn 0.3250 0.7597 0.5632
vn 0.2071 -0.8782 0.4312
vn 0.6727 0.3330 0.6608
vn 0.7660 0.0142 0.6426
vn 0.7660 0.0141 0.6426
vn -0.6862 0.0103 0.7274
vt 0.149020 0.717647
vt 0.231373 0.670588
vt 0.145098 0.615686
vt 0.109804 0.501961
vt 0.000000 0.513726
vt 0.200000 0.615686
vt 0.086275 0.749020
vt 0.149020 0.749020
vt 0.011765 0.572549
vt 0.090196 0.635294
vt 0.090196 0.686275
vt 0.023529 0.607843
vt 0.015686 0.670588
vt 0.007843 0.745098
vt 0.247059 0.615686
vt 0.247059 0.501961
vt 0.160784 0.474510
vt 0.090196 0.474510
vt 0.160784 0.498039
vt 0.090196 0.498039
vt 0.062745 0.364706
vt 0.196078 0.364706
vt 0.000000 0.474510
vt 0.000000 0.380392
vt 0.125490 0.250980
vt 0.043137 0.250980
vt 0.000000 0.301961
vt 0.247059 0.474510
vt 0.247059 0.384314
vt 0.203922 0.250980
vt 0.247059 0.301961
vt 0.000000 0.250980
vt 0.247059 0.250980
vt 0.250980 0.019608
vt 0.278431 0.019608
vt 0.250980 0.047059
vt 0.250980 0.627451
vt 0.341176 0.749020
vt 0.341176 0.627451
vt 0.250980 0.749020
vt 0.498039 0.749020
vt 0.498039 0.627451
vt 0.474510 0.858824
vt 0.494118 0.788235
vt 0.301961 0.752941
vt 0.447059 0.956863
vt 0.384314 0.968627
vt 0.145098 0.803922
vt 0.274510 1.000000
vt 0.070588 0.886275
vt 0.129412 1.000000
vt 0.003922 0.988235
vt 0.372549 0.623529
vt 0.458824 0.541176
vt 0.290196 0.541176
vt 0.498039 0.623529
vt 0.431373 0.431373
vt 0.494118 0.450980
vt 0.482353 0.388235
vt 0.443137 0.400000
vt 0.313726 0.431373
vt 0.309804 0.400000
vt 0.427451 0.470588
vt 0.411765 0.376471
vt 0.337255 0.376471
vt 0.372549 0.470588
vt 0.458824 0.470588
vt 0.250980 0.623529
vt 0.250980 0.450980
vt 0.266667 0.388235
vt 0.321569 0.470588
vt 0.290196 0.470588
vt 0.203922 0.149020
vt 0.184314 0.027451
vt 0.039216 0.149020
vt 0.015686 0.200000
vt 0.235294 0.200000
vt 0.211765 0.000000
vt 0.035294 0.027451
vt 0.113725 0.247059
vt 0.172549 0.247059
vt 0.074510 0.235294
vt 0.196078 0.235294
vt 0.015686 0.000000
vt 0.407843 0.227451
vt 0.262745 0.298039
vt 0.294118 0.200000
vt 0.345098 0.356863
vt 0.396078 0.149020
vt 0.454902 0.160784
vt 0.494118 0.211765
vt 0.333333 0.129412
vt 0.392157 0.125490
vt 0.333333 0.160784
vt 0.454902 0.129412
vt 0.458824 0.372549
vt 0.501961 0.835294
vt 0.572549 0.854902
vt 0.607843 0.921569
vt 0.545098 0.996078
vt 0.733333 0.811765
vt 0.733333 0.901961
vt 0.647059 0.854902
vt 0.674510 0.905882
vt 0.533333 0.784314
vt 0.619608 0.803922
vt 0.709804 0.780392
vt 0.529412 0.752941
vt 0.588235 0.752941
vt 0.635294 0.752941
vt 0.686275 0.752941
vt 0.913725 0.682353
vt 0.894118 0.686275
vt 0.921569 0.631373
vt 0.890196 0.717647
vt 0.882353 0.721569
vt 0.878431 0.686275
vt 0.878431 0.654902
vt 0.898039 0.654902
vt 0.960784 0.749020
vt 0.996078 0.639216
vt 1.000000 0.678431
vt 0.996078 0.721569
vt 0.980392 0.498039
vt 0.980392 0.447059
vt 1.000000 0.443137
vt 1.000000 0.470588
vt 0.921569 0.447059
vt 0.921569 0.407843
vt 0.976471 0.400000
vt 0.878431 0.450980
vt 0.913725 0.415686
vt 0.901961 0.498039
vt 0.878431 0.498039
vt 0.925490 0.498039
vt 0.886275 0.400000
vt 0.901961 0.376471
vt 0.878431 0.403922
vt 0.996078 0.415686
vt 0.678431 0.749020
vt 0.749020 0.701961
vt 0.749020 0.749020
vt 0.662745 0.713725
vt 0.666667 0.639216
vt 0.541176 0.749020
vt 0.549020 0.635294
vt 0.549020 0.541176
vt 0.505882 0.639216
vt 0.745098 0.580392
vt 0.658824 0.560784
vt 0.721569 0.533333
vt 0.509804 0.588235
vt 0.749020 0.647059
vt 0.501961 0.694118
vt 0.701961 0.501961
vt 0.549020 0.376471
vt 0.545098 0.466667
vt 0.513726 0.372549
vt 0.635294 0.384314
vt 0.619608 0.498039
vt 0.564706 0.454902
vt 0.721569 0.329412
vt 0.725490 0.396078
vt 0.682353 0.286274
vt 0.729412 0.443137
vt 0.749020 0.341176
vt 0.749020 0.396078
vt 0.749020 0.450980
vt 0.568627 0.309804
vt 0.568627 0.384314
vt 0.537255 0.254902
vt 0.647059 0.109804
vt 0.513726 0.105882
vt 0.513726 0.074510
vt 0.619608 0.078431
vt 0.705882 0.168627
vt 0.627451 0.133333
vt 0.525490 0.149020
vt 0.619608 0.160784
vt 0.513726 0.180392
vt 0.745098 0.243137
vt 0.615686 0.207843
vt 0.501961 0.211765
vt 0.560784 0.050980
vt 0.529412 0.007843
vt 0.568627 0.003922
vt 0.670588 0.050980
vt 0.623529 0.062745
vt 0.658824 0.082353
vt 0.686275 0.105882
vt 0.709804 0.078431
vt 0.729412 0.168627
vt 0.701961 0.007843
vt 0.713726 0.070588
vt 0.745098 0.054902
vt 0.745098 0.160784
vt 0.576471 0.047059
vt 0.968627 0.811765
vt 0.949020 0.752941
vt 1.000000 0.752941
vt 0.901961 0.807843
vt 0.764706 0.780392
vt 0.796078 0.909804
vt 0.960784 0.823529
vt 0.866667 0.921569
vt 0.890196 0.752941
vt 0.760784 0.752941
vt 0.807843 1.000000
vt 0.823529 1.000000
vt 0.780392 0.984314
vt 0.819608 0.949020
vt 0.862745 1.000000
vt 0.776471 0.901961
vt 0.764706 0.941176
vt 0.768627 0.984314
vt 0.870588 0.752941
vt 0.803922 0.752941
vt 0.756863 0.941176
vt 0.909804 0.945098
vt 0.925490 1.000000
vt 0.894118 1.000000
vt 0.874510 1.000000
vt 0.882353 0.945098
vt 0.909804 0.898039
vt 0.933333 0.945098
vt 0.956863 1.000000
vt 0.945098 0.972549
vt 0.952941 0.945098
vt 0.976471 0.945098
vt 1.000000 0.945098
vt 0.980392 1.000000
vt 1.000000 1.000000
vt 0.949020 0.878431
vt 0.964706 0.886275
vt 0.945098 0.937255
vt 0.968627 0.898039
vt 1.000000 0.850980
vt 0.956863 0.847059
vt 0.992157 0.784314
vt 1.000000 0.886275
vt 0.913725 0.886275
vt 0.949020 0.847059
vt 0.878431 0.580392
vt 0.937255 0.501961
vt 0.917647 0.623529
vt 1.000000 0.580392
vt 0.956863 0.623529
vt 0.752941 0.749020
vt 0.819608 0.701961
vt 0.819608 0.749020
vt 0.811765 0.627451
vt 0.752941 0.686275
vt 0.752941 0.627451
vt 0.874510 0.749020
vt 0.874510 0.698039
vt 0.819608 0.627451
vt 0.874510 0.627451
vt 0.752941 0.623529
vt 0.874510 0.501961
vt 0.752941 0.501961
vt 0.874510 0.623529
vt 0.874510 0.376471
vt 0.874510 0.498039
vt 0.752941 0.376471
vt 0.752941 0.498039
s 1
usemtl Material
f 1/1/1 2/2/2 3/3/3
f 4/4/4 5/5/5 6/3/6
f 7/3/7 8/6/8 9/4/4
f 10/1/9 11/7/10 12/8/11
f 13/3/12 14/5/5 15/9/13
f 16/1/9 17/10/14 18/11/15
f 19/11/15 20/12/16 21/13/17
f 22/10/18 23/12/16 24/11/15
f 25/1/9 26/11/15 27/7/10
f 28/11/15 29/14/19 30/7/10
f 31/13/20 32/14/21 33/11/15
f 34/1/22 35/3/12 36/10/14
f 37/10/14 38/9/13 39/12/23
f 40/3/3 41/9/13 42/10/24
f 43/15/25 44/16/26 45/4/27
f 46/6/28 47/15/29 48/4/4
f 49/3/30 50/2/31 51/1/32
f 52/3/33 53/5/34 54/4/35
f 55/4/35 56/6/36 57/3/30
f 58/8/37 59/7/38 60/1/39
f 61/9/40 62/5/5 63/3/30
f 64/11/41 65/10/42 66/1/32
f 67/13/43 68/12/16 69/11/41
f 70/7/38 71/11/41 72/1/39
f 73/7/38 74/14/44 75/11/41
f 76/11/41 77/14/44 78/13/45
f 79/10/46 80/3/30 81/1/32
f 82/12/16 83/9/40 84/10/47
f 85/10/48 86/9/49 87/3/33
f 88/4/35 89/16/50 90/15/51
f 91/4/52 92/15/38 93/6/53
f 94/11/41 95/12/16 96/10/46
f 97/1/9 98/3/3 99/2/2
f 100/4/4 101/3/12 102/5/5
f 103/3/7 104/4/4 105/6/28
f 106/1/9 107/8/54 108/7/10
f 109/3/12 110/9/13 111/5/5
f 112/1/9 113/11/15 114/10/55
f 115/11/15 116/13/17 117/12/16
f 118/10/56 119/11/15 120/12/16
f 121/1/9 122/7/10 123/11/15
f 124/11/15 125/7/57 126/14/19
f 127/13/17 128/11/15 129/14/44
f 130/1/9 131/10/14 132/3/12
f 133/10/14 134/12/23 135/9/13
f 136/3/12 137/10/14 138/9/40
f 139/15/25 140/4/27 141/16/26
f 142/6/58 143/4/27 144/15/29
f 145/3/30 146/1/59 147/2/31
f 148/3/30 149/4/52 150/5/34
f 151/4/35 152/3/30 153/6/36
f 154/8/37 155/1/32 156/7/38
f 157/9/40 158/3/30 159/5/5
f 160/11/60 161/1/32 162/10/47
f 163/13/43 164/11/41 165/12/61
f 166/7/38 167/1/39 168/11/41
f 169/7/38 170/11/41 171/14/44
f 172/11/41 173/13/43 174/14/44
f 175/10/46 176/1/32 177/3/30
f 178/12/16 179/10/47 180/9/40
f 181/10/46 182/3/30 183/9/13
f 184/4/35 185/15/51 186/16/62
f 187/4/52 188/6/53 189/15/38
f 190/11/41 191/10/48 192/12/61
f 193/17/32 194/18/9 195/19/37
f 196/19/63 197/18/9 198/20/11
f 199/17/32 200/21/64 201/18/9
f 202/22/65 203/21/64 204/17/39
f 205/18/66 206/21/67 207/23/68
f 208/21/67 209/24/69 210/23/70
f 211/22/71 212/25/72 213/21/67
f 214/26/26 215/24/69 216/21/73
f 217/25/65 218/26/26 219/21/67
f 220/24/74 221/26/26 222/27/69
f 223/28/75 224/22/76 225/17/59
f 226/28/31 227/29/77 228/22/65
f 229/22/71 230/29/77 231/30/78
f 232/22/71 233/30/50 234/25/71
f 235/31/79 236/30/50 237/29/80
f 238/27/69 239/26/81 240/32/82
f 241/33/38 242/30/62 243/31/83
f 244/17/84 245/19/37 246/18/9
f 247/19/63 248/20/11 249/18/9
f 250/17/32 251/18/1 252/21/64
f 253/22/71 254/17/39 255/21/64
f 256/18/1 257/23/85 258/21/67
f 259/21/67 260/23/85 261/24/69
f 262/22/71 263/21/64 264/25/72
f 265/26/26 266/21/67 267/24/69
f 268/25/65 269/21/67 270/26/26
f 271/24/74 272/27/69 273/26/26
f 274/28/31 275/17/59 276/22/72
f 277/28/31 278/22/65 279/29/77
f 280/22/71 281/30/50 282/29/77
f 283/22/71 284/25/71 285/30/50
f 286/31/86 287/29/77 288/30/50
f 289/27/69 290/32/82 291/26/81
f 292/33/38 293/31/83 294/30/50
f 295/34/87 296/35/88 297/36/89
f 298/35/90 299/36/89 300/34/88
f 301/34/91 302/35/92 303/36/89
f 304/36/89 305/35/19 306/34/93
f 307/36/89 308/35/94 309/34/44
f 310/35/95 311/34/96 312/36/97
f 313/34/98 314/35/99 315/36/96
f 316/34/100 317/35/99 318/36/98
f 319/35/101 320/34/102 321/36/103
f 322/36/104 323/34/105 324/35/101
f 325/35/44 326/34/101 327/36/97
f 328/36/106 329/34/101 330/35/19
f 331/36/96 332/34/95 333/35/98
f 334/34/103 335/36/95 336/35/107
f 337/35/101 338/34/95 339/36/97
f 340/35/95 341/36/101 342/34/108
f 343/34/95 344/35/95 345/36/89
f 346/34/109 347/35/110 348/36/89
f 349/35/95 350/34/111 351/36/109
f 352/36/98 353/34/107 354/35/112
f 355/36/113 356/35/108 357/34/95
f 358/35/108 359/34/112 360/36/101
f 361/36/89 362/34/96 363/35/114
f 364/36/100 365/35/11 366/34/115
f 367/34/37 368/35/11 369/36/116
f 370/35/19 371/34/108 372/36/107
f 373/36/89 374/34/95 375/35/19
f 376/34/87 377/36/117 378/35/88
f 379/35/118 380/34/96 381/36/89
f 382/34/99 383/36/89 384/35/92
f 385/36/89 386/34/93 387/35/19
f 388/36/89 389/34/44 390/35/94
f 391/35/95 392/36/93 393/34/88
f 394/34/98 395/36/119 396/35/99
f 397/34/100 398/36/98 399/35/99
f 400/35/120 401/36/103 402/34/102
f 403/36/121 404/35/120 405/34/116
f 406/35/44 407/36/122 408/34/101
f 409/36/106 410/35/19 411/34/101
f 412/36/88 413/35/98 414/34/95
f 415/34/103 416/35/123 417/36/95
f 418/35/101 419/36/93 420/34/95
f 421/35/95 422/34/124 423/36/101
f 424/34/95 425/36/89 426/35/95
f 427/34/109 428/36/89 429/35/111
f 430/35/95 431/36/125 432/34/111
f 433/36/98 434/35/112 435/34/107
f 436/36/112 437/34/95 438/35/108
f 439/35/108 440/36/101 441/34/112
f 442/36/89 443/35/114 444/34/96
f 445/36/100 446/34/115 447/35/126
f 448/34/37 449/36/102 450/35/54
f 451/35/21 452/36/107 453/34/108
f 454/36/89 455/35/19 456/34/95
f 457/37/127 458/38/92 459/39/128
f 460/38/92 461/37/127 462/40/129
f 463/38/92 464/41/11 465/39/130
f 466/41/126 467/42/95 468/39/130
f 469/39/131 470/38/36 471/37/127
f 472/40/44 473/37/127 474/38/132
f 475/39/131 476/41/37 477/38/53
f 478/39/131 479/42/95 480/41/37
f 481/37/127 482/39/133 483/38/94
f 484/38/94 485/40/19 486/37/127
f 487/38/92 488/39/133 489/41/54
f 490/41/126 491/39/133 492/42/134
f 493/39/131 494/37/127 495/38/53
f 496/40/44 497/38/53 498/37/127
f 499/39/131 500/38/53 501/41/135
f 502/39/131 503/41/37 504/42/136
f 505/43/137 506/44/138 507/45/108
f 508/46/26 509/43/139 510/47/133
f 511/47/133 512/45/140 513/48/141
f 514/47/133 515/48/141 516/49/141
f 517/50/134 518/49/112 519/48/112
f 520/49/112 521/50/95 522/51/127
f 523/52/134 524/51/142 525/50/134
f 526/43/143 527/45/108 528/47/133
f 529/45/144 530/44/145 531/43/146
f 532/47/147 533/43/146 534/46/50
f 535/48/130 536/45/144 537/47/147
f 538/49/148 539/48/133 540/47/147
f 541/48/130 542/49/149 543/50/140
f 544/51/131 545/50/140 546/49/148
f 547/50/108 548/51/150 549/52/136
f 550/47/147 551/45/144 552/43/151
f 553/43/137 554/45/108 555/44/138
f 556/46/26 557/47/130 558/43/139
f 559/47/133 560/48/141 561/45/140
f 562/47/130 563/49/141 564/48/141
f 565/50/95 566/48/112 567/49/112
f 568/49/112 569/51/152 570/50/95
f 571/52/95 572/50/95 573/51/127
f 574/43/143 575/47/133 576/45/108
f 577/45/144 578/43/146 579/44/153
f 580/47/147 581/46/50 582/43/146
f 583/48/133 584/47/154 585/45/155
f 586/49/148 587/47/147 588/48/133
f 589/48/133 590/50/140 591/49/148
f 592/51/131 593/49/148 594/50/156
f 595/50/108 596/52/95 597/51/150
f 598/47/154 599/43/146 600/45/144
f 601/53/71 602/54/137 603/55/146
f 604/56/157 605/54/137 606/53/71
f 607/57/158 608/58/106 609/59/159
f 610/60/160 611/57/161 612/59/159
f 613/61/162 614/57/161 615/60/163
f 616/62/164 617/61/162 618/60/163
f 619/57/158 620/63/159 621/58/106
f 622/64/165 623/60/160 624/59/159
f 625/65/166 626/62/167 627/64/165
f 628/64/165 629/62/167 630/60/168
f 631/63/159 632/66/145 633/54/169
f 634/57/158 635/66/145 636/63/159
f 637/61/170 638/66/145 639/57/161
f 640/55/151 641/54/171 642/66/138
f 643/63/159 644/67/172 645/58/106
f 646/63/159 647/54/137 648/67/173
f 649/55/174 650/68/62 651/53/71
f 652/69/109 653/61/170 654/70/175
f 655/61/162 656/62/164 657/70/176
f 658/71/177 659/61/162 660/69/109
f 661/62/167 662/65/178 663/70/175
f 664/66/138 665/71/177 666/55/146
f 667/66/145 668/61/162 669/71/179
f 670/72/180 671/71/177 672/69/109
f 673/55/151 674/71/177 675/72/181
f 676/73/182 677/74/183 678/75/184
f 679/73/185 680/75/184 681/76/15
f 682/77/186 683/73/187 684/76/15
f 685/74/159 686/78/188 687/79/86
f 688/74/159 689/79/79 690/75/184
f 691/80/189 692/81/190 693/82/191
f 694/83/192 695/76/15 696/82/193
f 697/79/83 698/78/194 699/84/195
f 700/81/196 701/83/192 702/82/197
f 703/77/186 704/76/198 705/83/192
f 706/74/176 707/73/184 708/75/160
f 709/75/163 710/73/184 711/76/194
f 712/73/184 713/77/199 714/76/188
f 715/78/184 716/74/175 717/79/159
f 718/79/159 719/74/175 720/75/163
f 721/81/200 722/80/201 723/82/196
f 724/76/194 725/83/77 726/82/196
f 727/78/184 728/79/159 729/84/202
f 730/83/77 731/81/189 732/82/203
f 733/76/188 734/77/176 735/83/77
f 736/17/204 737/17/205 738/17/178
f 739/17/206 740/17/207 741/17/4
f 742/85/208 743/86/209 744/87/144
f 745/88/5 746/86/205 747/85/210
f 748/89/210 749/90/211 750/91/130
f 751/85/212 752/89/212 753/91/133
f 754/92/213 755/93/214 756/89/208
f 757/94/215 758/92/131 759/89/208
f 760/87/144 761/89/212 762/85/216
f 763/89/210 764/87/144 765/94/217
f 766/90/218 767/89/210 768/95/219
f 769/95/219 770/89/216 771/93/214
f 772/96/220 773/88/221 774/85/210
f 775/85/208 776/91/133 777/96/106
f 778/86/209 779/85/214 780/87/222
f 781/86/209 782/88/223 783/85/214
f 784/90/224 785/89/225 786/91/10
f 787/89/225 788/85/226 789/91/10
f 790/93/212 791/92/101 792/89/227
f 793/92/101 794/94/211 795/89/227
f 796/89/225 797/87/222 798/85/226
f 799/87/222 800/89/225 801/94/218
f 802/89/227 803/90/215 804/95/213
f 805/89/225 806/95/131 807/93/208
f 808/88/5 809/96/109 810/85/226
f 811/91/10 812/85/214 813/96/109
f 814/97/133 815/98/159 816/99/159
f 817/100/106 818/97/133 819/99/159
f 820/101/144 821/102/205 822/103/15
f 823/104/165 824/103/15 825/102/228
f 826/104/229 827/99/159 828/103/15
f 829/98/159 830/103/15 831/99/159
f 832/97/133 833/105/218 834/98/159
f 835/106/138 836/107/215 837/101/155
f 838/103/15 839/106/138 840/101/144
f 841/98/159 842/106/138 843/103/15
f 844/108/230 845/109/196 846/106/145
f 847/105/231 848/108/219 849/106/138
f 850/109/196 851/110/200 852/106/138
f 853/110/200 854/111/131 855/106/145
f 856/105/218 857/106/145 858/98/159
f 859/107/232 860/106/145 861/111/213
f 862/98/15 863/97/10 864/99/175
f 865/97/10 866/100/109 867/99/175
f 868/102/205 869/101/222 870/103/194
f 871/103/233 872/104/166 873/102/209
f 874/99/175 875/104/166 876/103/194
f 877/103/194 878/98/15 879/99/176
f 880/105/232 881/97/10 882/98/15
f 883/107/218 884/106/234 885/101/222
f 886/106/234 887/103/194 888/101/222
f 889/106/234 890/98/15 891/103/194
f 892/109/200 893/108/131 894/106/235
f 895/108/213 896/105/217 897/106/234
f 898/110/236 899/109/200 900/106/234
f 901/111/101 902/110/237 903/106/234
f 904/106/234 905/105/217 906/98/15
f 907/106/238 908/107/231 909/111/120
f 910/112/144 911/113/155 912/114/239
f 913/115/238 914/113/144 915/112/144
f 916/115/234 917/116/64 918/113/144
f 919/116/64 920/117/131 921/113/144
f 922/117/131 923/118/34 924/119/214
f 925/113/144 926/117/213 927/119/226
f 928/120/238 929/115/234 930/112/144
f 931/112/144 932/114/226 933/121/8
f 934/122/25 935/112/144 936/121/8
f 937/120/238 938/112/144 939/122/25
f 940/123/69 941/120/238 942/122/25
f 943/113/155 944/119/214 945/114/214
f 946/113/41 947/112/41 948/114/210
f 949/113/41 950/115/138 951/112/41
f 952/116/73 953/115/138 954/113/41
f 955/117/101 956/116/67 957/113/41
f 958/118/5 959/117/101 960/119/210
f 961/117/120 962/113/41 963/119/216
f 964/115/145 965/120/138 966/112/41
f 967/114/210 968/112/41 969/121/36
f 970/112/41 971/122/38 972/121/240
f 973/112/41 974/120/145 975/122/51
f 976/120/145 977/123/79 978/122/51
f 979/119/208 980/113/41 981/114/210
f 982/124/67 983/125/127 984/126/131
f 985/127/67 986/124/67 987/126/241
f 988/128/131 989/129/242 990/130/5
f 991/125/127 992/128/131 993/130/5
f 994/131/144 995/132/131 996/133/83
f 997/133/79 998/134/62 999/131/144
f 1000/133/79 1001/132/131 1002/128/131
f 1003/128/131 1004/135/234 1005/133/86
f 1006/136/243 1007/137/11 1008/132/213
f 1009/132/131 1010/138/244 1011/136/245
f 1012/132/150 1013/131/144 1014/138/207
f 1015/125/127 1016/130/223 1017/139/5
f 1018/135/238 1019/128/131 1020/125/127
f 1021/126/213 1022/125/246 1023/139/5
f 1024/124/64 1025/135/234 1026/125/127
f 1027/128/131 1028/132/131 1029/129/242
f 1030/132/131 1031/137/54 1032/129/247
f 1033/125/101 1034/124/67 1035/126/120
f 1036/124/73 1037/127/73 1038/126/101
f 1039/129/36 1040/128/248 1041/130/5
f 1042/128/248 1043/125/101 1044/130/5
f 1045/132/101 1046/131/222 1047/133/249
f 1048/134/26 1049/133/186 1050/131/222
f 1051/132/101 1052/133/249 1053/128/250
f 1054/135/251 1055/128/250 1056/133/186
f 1057/137/252 1058/136/253 1059/132/120
f 1060/138/254 1061/132/101 1062/136/253
f 1063/131/222 1064/132/101 1065/138/255
f 1066/130/5 1067/125/101 1068/139/5
f 1069/128/250 1070/135/256 1071/125/101
f 1072/125/101 1073/126/101 1074/139/34
f 1075/135/257 1076/124/73 1077/125/101
f 1078/132/258 1079/128/250 1080/129/36
f 1081/137/252 1082/132/101 1083/129/53
f 1084/140/259 1085/141/159 1086/142/62
f 1087/141/159 1088/140/79 1089/143/234
f 1090/144/51 1091/143/238 1092/145/64
f 1093/146/250 1094/144/51 1095/145/67
f 1096/147/34 1097/146/250 1098/148/250
f 1099/149/4 1100/150/247 1101/151/206
f 1102/152/5 1103/147/5 1104/148/250
f 1105/153/133 1106/143/234 1107/144/38
f 1108/146/250 1109/145/67 1110/154/64
f 1111/148/250 1112/146/250 1113/154/64
f 1114/150/247 1115/144/51 1116/146/250
f 1117/147/223 1118/150/247 1119/146/250
f 1120/151/206 1121/150/242 1122/155/11
f 1123/153/130 1124/144/38 1125/150/247
f 1126/153/133 1127/150/260 1128/149/4
f 1129/141/159 1130/143/234 1131/153/133
f 1132/141/177 1133/140/249 1134/142/26
f 1135/140/249 1136/141/177 1137/143/251
f 1138/143/251 1139/144/127 1140/145/67
f 1141/144/127 1142/146/131 1143/145/64
f 1144/146/131 1145/147/5 1146/148/131
f 1147/150/53 1148/149/35 1149/151/261
f 1150/147/5 1151/152/5 1152/148/131
f 1153/143/251 1154/153/10 1155/144/127
f 1156/145/67 1157/146/131 1158/154/73
f 1159/146/131 1160/148/131 1161/154/67
f 1162/144/127 1163/150/36 1164/146/213
f 1165/150/53 1166/147/223 1167/146/131
f 1168/150/53 1169/151/262 1170/155/263
f 1171/144/127 1172/153/10 1173/150/36
f 1174/150/132 1175/153/10 1176/149/35
f 1177/143/251 1178/141/177 1179/153/10
f 1180/156/106 1181/157/264 1182/158/70
f 1183/159/265 1184/160/238 1185/161/69
f 1186/162/214 1187/163/41 1188/159/266
f 1189/164/214 1190/162/214 1191/159/265
f 1192/163/41 1193/165/234 1194/160/238
f 1195/159/265 1196/163/41 1197/160/238
f 1198/166/223 1199/167/250 1200/163/41
f 1201/162/226 1202/166/223 1203/163/41
f 1204/167/250 1205/168/67 1206/165/238
f 1207/163/41 1208/167/250 1209/165/234
f 1210/159/266 1211/169/8 1212/164/226
f 1213/156/267 1214/170/120 1215/161/69
f 1216/170/120 1217/159/265 1218/161/264
f 1219/169/28 1220/159/265 1221/170/101
f 1222/169/8 1223/170/101 1224/156/106
f 1225/161/264 1226/157/264 1227/156/220
f 1228/171/7 1229/156/106 1230/158/85
f 1231/169/28 1232/156/106 1233/171/7
f 1234/157/77 1235/156/131 1236/158/31
f 1237/160/153 1238/159/10 1239/161/83
f 1240/163/10 1241/162/216 1242/159/268
f 1243/162/208 1244/164/208 1245/159/10
f 1246/165/145 1247/163/10 1248/160/145
f 1249/163/268 1250/159/10 1251/160/138
f 1252/167/213 1253/166/34 1254/163/10
f 1255/166/5 1256/162/212 1257/163/10
f 1258/168/67 1259/167/213 1260/165/138
f 1261/167/131 1262/163/268 1263/165/145
f 1264/169/36 1265/159/10 1266/164/208
f 1267/170/213 1268/156/213 1269/161/86
f 1270/159/10 1271/170/131 1272/161/86
f 1273/159/10 1274/169/36 1275/170/131
f 1276/170/131 1277/169/36 1278/156/131
f 1279/157/77 1280/161/86 1281/156/131
f 1282/156/131 1283/171/30 1284/158/31
f 1285/156/241 1286/169/53 1287/171/30
f 1288/172/269 1289/173/34 1290/174/32
f 1291/175/106 1292/172/269 1293/174/32
f 1294/176/137 1295/177/270 1296/172/172
f 1297/172/271 1298/177/270 1299/178/272
f 1300/173/223 1301/172/271 1302/178/225
f 1303/177/270 1304/176/137 1305/179/273
f 1306/177/270 1307/179/273 1308/180/225
f 1309/178/272 1310/177/274 1311/180/272
f 1312/181/26 1313/182/4 1314/179/273
f 1315/176/137 1316/181/157 1317/179/275
f 1318/182/4 1319/183/34 1320/180/225
f 1321/179/273 1322/182/4 1323/180/272
f 1324/175/276 1325/174/32 1326/184/5
f 1327/184/5 1328/174/39 1329/185/205
f 1330/173/223 1331/172/277 1332/174/59
f 1333/172/181 1334/175/109 1335/174/59
f 1336/177/278 1337/176/151 1338/172/181
f 1339/177/278 1340/172/279 1341/178/225
f 1342/172/279 1343/173/34 1344/178/225
f 1345/176/146 1346/177/278 1347/179/280
f 1348/179/280 1349/177/278 1350/180/225
f 1351/177/281 1352/178/272 1353/180/272
f 1354/182/52 1355/181/50 1356/179/280
f 1357/181/50 1358/176/151 1359/179/280
f 1360/183/5 1361/182/52 1362/180/225
f 1363/182/35 1364/179/282 1365/180/225
f 1366/174/59 1367/175/109 1368/184/5
f 1369/174/283 1370/184/5 1371/185/205
f 1372/186/202 1373/187/284 1374/188/285
f 1375/187/284 1376/189/147 1377/188/285
f 1378/187/286 1379/190/280 1380/189/147
f 1381/191/287 1382/192/272 1383/190/280
f 1384/193/288 1385/194/289 1386/187/290
f 1387/195/275 1388/196/216 1389/194/289
f 1390/187/284 1391/191/287 1392/190/291
f 1393/193/288 1394/195/292 1395/194/293
f 1396/186/202 1397/193/294 1398/187/284
f 1399/197/295 1400/186/202 1401/188/296
f 1402/187/297 1403/186/195 1404/188/298
f 1405/189/288 1406/187/297 1407/188/298
f 1408/190/287 1409/187/297 1410/189/288
f 1411/192/299 1412/191/280 1413/190/287
f 1414/194/288 1415/193/289 1416/187/297
f 1417/196/216 1418/195/280 1419/194/294
f 1420/191/300 1421/187/297 1422/190/287
f 1423/195/280 1424/193/289 1425/194/301
f 1426/193/289 1427/186/302 1428/187/297
f 1429/186/302 1430/197/303 1431/188/298
f 1432/198/304 1433/199/280 1434/200/216
f 1435/201/172 1436/202/159 1437/203/41
f 1438/204/19 1439/201/271 1440/205/19
f 1441/201/305 1442/206/289 1443/198/304
f 1444/202/83 1445/207/302 1446/206/289
f 1447/208/196 1448/209/219 1449/210/192
f 1450/205/19 1451/211/101 1452/209/219
f 1453/212/214 1454/205/19 1455/209/306
f 1456/203/41 1457/213/182 1458/214/249
f 1459/211/101 1460/203/41 1461/214/249
f 1462/211/101 1463/205/19 1464/203/41
f 1465/211/101 1466/214/249 1467/210/192
f 1468/208/200 1469/215/193 1470/209/131
f 1471/203/41 1472/205/129 1473/201/172
f 1474/209/219 1475/211/101 1476/210/192
f 1477/201/271 1478/199/307 1479/216/288
f 1480/201/172 1481/216/288 1482/217/308
f 1483/215/193 1484/211/10 1485/209/131
f 1486/198/309 1487/200/299 1488/199/307
f 1489/213/185 1490/203/41 1491/202/159
f 1492/198/310 1493/199/311 1494/201/271
f 1495/201/305 1496/202/86 1497/206/289
f 1498/198/312 1499/206/289 1500/199/291
f 1501/202/159 1502/217/313 1503/207/188
f 1504/218/314 1505/211/10 1506/215/193
f 1507/201/271 1508/217/313 1509/202/159
f 1510/211/10 1511/203/127 1512/205/44
f 1513/205/44 1514/201/305 1515/204/19
f 1516/203/127 1517/201/305 1518/205/19
f 1519/202/86 1520/201/305 1521/203/127
f 1522/213/184 1523/202/83 1524/203/127
f 1525/212/226 1526/209/131 1527/205/44
f 1528/211/10 1529/205/19 1530/209/213
f 1531/203/127 1532/211/10 1533/218/15
f 1534/213/184 1535/203/127 1536/218/15
f 1537/219/144 1538/220/10 1539/221/177
f 1540/221/177 1541/222/26 1542/223/160
f 1543/221/315 1544/222/316 1545/223/160
f 1546/219/144 1547/220/35 1548/221/10
f 1549/223/163 1550/219/144 1551/221/177
f 1552/219/144 1553/223/163 1554/224/317
f 1555/223/168 1556/219/144 1557/221/315
f 1558/219/144 1559/223/163 1560/224/318
f 1561/225/319 1562/219/144 1563/224/320
f 1564/226/262 1565/227/255 1566/228/321
f 1567/225/322 1568/219/144 1569/224/323
f 1570/229/324 1571/230/325 1572/231/252
f 1573/231/252 1574/230/326 1575/232/253
f 1576/233/204 1577/234/327 1578/235/328
f 1579/220/10 1580/219/144 1581/225/206
f 1582/225/322 1583/227/329 1584/220/35
f 1585/228/330 1586/229/331 1587/226/261
f 1588/229/324 1589/228/165 1590/236/89
f 1591/219/144 1592/225/332 1593/220/52
f 1594/225/333 1595/227/222 1596/220/10
f 1597/231/263 1598/226/262 1599/229/324
f 1600/230/334 1601/229/324 1602/236/335
f 1603/227/254 1604/226/262 1605/220/336
f 1606/237/160 1607/238/206 1608/239/318
f 1609/240/26 1610/234/222 1611/238/206
f 1612/240/222 1613/234/329 1614/238/337
f 1615/238/337 1616/237/160 1617/240/222
f 1618/238/206 1619/237/160 1620/240/26
f 1621/237/160 1622/238/337 1623/239/317
f 1624/235/253 1625/241/338 1626/233/330
f 1627/233/165 1628/241/334 1629/242/339
f 1630/199/275 1631/198/122 1632/200/212
f 1633/202/175 1634/201/340 1635/203/127
f 1636/201/181 1637/204/44 1638/205/44
f 1639/206/341 1640/201/342 1641/198/93
f 1642/207/202 1643/202/159 1644/206/288
f 1645/209/131 1646/208/200 1647/210/77
f 1648/211/10 1649/205/19 1650/209/131
f 1651/205/44 1652/212/208 1653/209/131
f 1654/213/184 1655/203/127 1656/214/176
f 1657/203/127 1658/211/10 1659/214/176
f 1660/205/44 1661/211/10 1662/203/127
f 1663/214/175 1664/211/10 1665/210/77
f 1666/215/343 1667/208/344 1668/209/101
f 1669/205/19 1670/203/127 1671/201/181
f 1672/211/10 1673/209/131 1674/210/77
f 1675/199/280 1676/201/181 1677/216/147
f 1678/216/345 1679/201/180 1680/217/285
f 1681/211/266 1682/215/343 1683/209/101
f 1684/200/346 1685/198/115 1686/199/280
f 1687/203/127 1688/213/184 1689/202/175
f 1690/199/300 1691/198/118 1692/201/181
f 1693/202/159 1694/201/347 1695/206/301
f 1696/206/288 1697/198/348 1698/199/349
f 1699/217/285 1700/202/176 1701/207/184
f 1702/211/265 1703/218/194 1704/215/203
f 1705/217/285 1706/201/180 1707/202/176
f 1708/203/41 1709/211/266 1710/205/44
f 1711/201/342 1712/205/44 1713/204/44
f 1714/201/342 1715/203/41 1716/205/19
f 1717/201/342 1718/202/159 1719/203/41
f 1720/202/159 1721/213/163 1722/203/41
f 1723/209/101 1724/212/208 1725/205/44
f 1726/205/19 1727/211/265 1728/209/120
f 1729/211/266 1730/203/41 1731/218/188
f 1732/203/41 1733/213/350 1734/218/194
f 1735/220/133 1736/219/222 1737/221/159
f 1738/222/62 1739/221/159 1740/223/102
f 1741/222/144 1742/221/133 1743/223/184
f 1744/220/4 1745/219/231 1746/221/133
f 1747/219/222 1748/223/102 1749/221/159
f 1750/223/184 1751/219/351 1752/224/352
f 1753/219/218 1754/223/184 1755/221/130
f 1756/223/105 1757/219/222 1758/224/353
f 1759/219/222 1760/225/354 1761/224/353
f 1762/227/355 1763/226/356 1764/228/357
f 1765/219/351 1766/225/358 1767/224/317
f 1768/230/359 1769/229/360 1770/231/11
f 1771/230/361 1772/231/11 1773/232/362
f 1774/234/207 1775/233/357 1776/235/245
f 1777/219/222 1778/220/130 1779/225/358
f 1780/227/363 1781/225/358 1782/220/4
f 1783/229/360 1784/228/357 1785/226/319
f 1786/228/364 1787/229/360 1788/236/365
f 1789/225/354 1790/219/218 1791/220/4
f 1792/227/144 1793/225/354 1794/220/133
f 1795/226/366 1796/231/126 1797/229/360
f 1798/229/360 1799/230/361 1800/236/365
f 1801/226/206 1802/227/207 1803/220/4
f 1804/238/354 1805/237/105 1806/239/367
f 1807/234/144 1808/240/50 1809/238/354
f 1810/234/207 1811/240/144 1812/238/354
f 1813/237/184 1814/238/358 1815/240/144
f 1816/237/102 1817/238/354 1818/240/50
f 1819/238/354 1820/237/368 1821/239/369
f 1822/241/361 1823/235/243 1824/233/357
f 1825/241/359 1826/233/357 1827/242/370
f 1828/243/30 1829/244/5 1830/245/32
f 1831/246/7 1832/247/9 1833/244/5
f 1834/245/32 1835/244/5 1836/247/9
f 1837/248/305 1838/249/371 1839/250/19
f 1840/251/301 1841/252/304 1842/253/208
f 1843/249/297 1844/254/172 1845/250/19
f 1846/254/271 1847/249/297 1848/255/372
f 1849/256/280 1850/255/373 1851/249/297
f 1852/251/341 1853/248/374 1854/252/304
f 1855/255/310 1856/256/300 1857/257/299
f 1858/249/371 1859/248/305 1860/251/294
f 1861/249/284 1862/248/347 1863/250/19
f 1864/252/93 1865/251/289 1866/253/212
f 1867/254/375 1868/249/284 1869/250/19
f 1870/249/376 1871/254/277 1872/255/377
f 1873/255/377 1874/256/311 1875/249/378
f 1876/248/347 1877/251/289 1878/252/97
f 1879/256/307 1880/255/118 1881/257/225
f 1882/248/379 1883/249/284 1884/251/289
f 1885/258/380 1886/259/11 1887/260/381
f 1888/259/126 1889/258/94 1890/261/377
f 1891/258/382 1892/259/37 1893/261/95
f 1894/259/63 1895/258/382 1896/260/336
f 1897/258/94 1898/260/94 1899/259/11
f 1900/259/126 1901/261/377 1902/258/94
f 1903/258/35 1904/261/134 1905/259/37
f 1906/259/37 1907/260/52 1908/258/35
f 1909/262/92 1910/263/94 1911/264/44
f 1912/265/19 1913/264/44 1914/263/94
f 1915/263/35 1916/262/35 1917/264/44
f 1918/264/44 1919/265/44 1920/263/52
