# Blender 5.1.2
# www.blender.org
mtllib room28.mtl
o 01-Caves.028
v -320.043091 8.424642 120.087349
v -310.043121 8.424642 120.087349
v -320.043091 8.424642 130.087265
v -320.043091 5.924641 120.087349
v -310.043121 5.924641 120.087349
v -320.043091 5.924642 130.087265
v -320.043091 5.924643 140.087341
v -320.043091 8.424643 140.087341
v -320.043091 5.924644 150.087341
v -320.043091 8.424644 150.087341
v -320.043091 5.924644 160.087265
v -320.043091 5.924645 170.087341
v -320.043091 8.424644 160.087265
v -320.043091 8.424644 160.087265
v -320.043091 15.924649 160.087265
v -320.043091 15.924648 150.087341
v -320.043091 15.924649 170.087341
v -320.043091 18.424644 160.087265
v -310.043121 15.924649 160.087265
v -310.043121 18.424644 160.087265
v -300.043121 15.924649 160.087265
v -310.043121 15.924648 150.087341
v -310.043121 13.424644 150.087341
v -300.043121 15.924648 150.087341
v -290.043121 15.924648 150.087341
v -300.043121 13.424644 150.087341
v -300.043121 13.424644 140.087341
v -290.043121 13.424644 150.087341
v -290.043121 13.424644 140.087341
v -290.043121 8.424644 150.087341
v -290.043121 8.424644 160.087265
v -290.043121 5.924644 150.087341
v -290.043121 8.424643 140.087341
v -290.043121 8.424642 130.087265
v -290.043121 10.924638 140.087341
v -290.043121 5.924643 140.087341
v -290.043121 5.924642 130.087265
v -290.043121 5.924641 120.087349
v -300.043121 5.924641 120.087349
v -290.043121 8.424642 120.087349
v -300.043121 8.424642 120.087349
v -300.043121 8.424642 130.087265
v -310.043121 8.424642 130.087265
v -300.043121 10.924637 130.087265
v -300.043121 10.924638 140.087341
v -290.043121 10.924637 130.087265
v -310.043121 10.924637 130.087265
v -320.043091 10.924637 130.087265
v -310.043121 10.924638 140.087341
v -310.043121 13.424644 140.087341
v -320.043091 10.924638 140.087341
v -320.043091 13.424644 140.087341
v -320.043091 13.424644 150.087341
v -290.043121 5.924644 160.087265
v -290.043121 5.924645 170.087341
v -290.043121 8.424644 160.087265
v -290.043121 8.424644 170.087341
v -290.043121 15.924649 160.087265
v -290.043121 18.424644 160.087265
v -290.043121 15.924649 170.087341
v -290.043121 18.424646 170.087341
v -290.043121 15.924650 180.087341
v -290.043121 20.924646 170.087341
v -300.043121 20.924646 170.087341
v -290.043121 20.924646 180.087341
v -290.043121 23.424641 180.087341
v -300.043121 20.924646 180.087341
v -300.043121 23.424641 180.087341
v -310.043121 20.924646 180.087341
v -310.043121 20.924646 170.087341
v -320.043091 20.924646 180.087341
v -310.043121 23.424641 180.087341
v -320.043091 23.424641 180.087341
v -310.043121 23.424643 190.087341
v -310.043121 13.424647 190.087341
v -300.043121 23.424643 190.087341
v -320.043091 23.424643 190.087341
v -320.043091 15.924651 190.087341
v -320.043091 13.424647 190.087341
v -320.043091 5.924646 190.087341
v -320.043091 5.924646 180.087341
v -310.043121 5.924646 190.087341
v -320.043091 8.424646 190.087341
v -320.043091 8.424645 180.087341
v -320.043091 15.924650 180.087341
v -320.043091 8.424644 170.087341
v -300.043121 5.924646 190.087341
v -310.043121 13.424647 190.087341
v -300.043121 13.424647 190.087341
v -290.043121 5.924646 190.087341
v -300.043121 13.424647 190.087341
v -290.043121 13.424647 190.087341
v -290.043121 23.424643 190.087341
v -290.043121 15.924651 190.087341
v -290.043121 8.424646 190.087341
v -290.043121 8.424645 180.087341
v -290.043121 5.924646 180.087341
v -320.043091 20.924646 170.087341
v -320.043091 18.424646 170.087341
v -310.043121 18.424646 170.087341
v -300.043121 18.424646 170.087341
v -300.043121 18.424644 160.087265
v -290.043121 15.924649 160.087265
vn -0.0000 -0.0000 1.0000
vn -0.0000 -1.0000 -0.0000
vn 1.0000 -0.0000 -0.0000
vn -1.0000 -0.0000 -0.0000
vn -0.0000 -0.0000 -1.0000
vt 0.252941 0.252941
vt 0.372549 0.278432
vt 0.252941 0.278432
vt 0.372549 0.372549
vt 0.252941 0.372549
vt 0.501961 0.878431
vt 0.621569 0.998039
vt 0.501961 0.998039
vt 0.501961 0.972549
vt 0.501961 0.909804
vt 0.501961 0.941177
vt 0.001961 0.001961
vt 0.121569 0.121569
vt 0.001961 0.121569
vt 0.378431 0.001961
vt 0.498039 0.121569
vt 0.378431 0.121569
vt 0.127451 0.001961
vt 0.247059 0.121569
vt 0.127451 0.121569
vt 0.372549 0.252941
vt 0.621569 0.878431
vt 0.621569 0.972549
vt 0.621569 0.909804
vt 0.621569 0.941177
vt 0.121569 0.001961
vt 0.498039 0.001961
vt 0.247059 0.001961
s 0
usemtl Material.001
f 2/1/1 4/2/1 5/3/1
f 43/1/2 1/4/2 2/5/2
f 1/1/3 6/2/3 4/3/3
f 3/1/3 7/2/3 6/3/3
f 8/1/3 9/2/3 7/3/3
f 10/1/3 11/2/3 9/3/3
f 13/1/3 12/2/3 11/3/3
f 16/6/3 14/7/3 10/8/3
f 19/1/2 16/4/2 22/5/2
f 15/6/3 86/7/3 13/8/3
f 18/9/3 17/7/3 15/8/3
f 20/1/1 15/2/1 19/3/1
f 102/1/1 19/2/1 21/3/1
f 21/1/2 22/4/2 24/5/2
f 24/1/1 23/2/1 26/3/1
f 22/1/1 53/2/1 23/3/1
f 103/1/2 24/4/2 25/5/2
f 25/1/1 26/2/1 28/3/1
f 26/1/2 50/4/2 27/5/2
f 28/1/2 27/4/2 29/5/2
f 28/10/4 33/7/4 30/8/4
f 31/1/4 32/2/4 54/3/4
f 103/6/4 30/7/4 31/8/4
f 30/1/4 36/2/4 32/3/4
f 33/1/4 37/2/4 36/3/4
f 35/11/4 34/7/4 33/8/4
f 34/1/4 38/2/4 37/3/4
f 40/1/1 39/2/1 38/3/1
f 34/1/2 41/4/2 40/5/2
f 41/1/1 5/2/1 39/3/1
f 42/1/2 2/4/2 41/5/2
f 44/1/1 43/2/1 42/3/1
f 46/1/1 42/2/1 34/3/1
f 35/1/2 44/4/2 46/5/2
f 45/1/2 47/4/2 44/5/2
f 47/1/1 3/2/1 43/3/1
f 49/1/2 48/4/2 47/5/2
f 27/1/1 49/2/1 45/3/1
f 50/1/1 51/2/1 49/3/1
f 48/11/3 8/7/3 3/8/3
f 52/10/3 10/7/3 8/8/3
f 23/1/2 52/4/2 50/5/2
f 29/1/1 45/2/1 35/3/1
f 57/1/4 54/2/4 55/3/4
f 60/6/4 56/7/4 57/8/4
f 61/11/4 58/7/4 60/8/4
f 62/6/4 57/7/4 96/8/4
f 65/10/4 60/7/4 62/8/4
f 63/1/1 101/2/1 61/3/1
f 65/1/2 64/4/2 63/5/2
f 66/1/1 67/2/1 65/3/1
f 67/1/2 70/4/2 64/5/2
f 68/1/1 69/2/1 67/3/1
f 69/1/2 98/4/2 70/5/2
f 72/1/1 71/2/1 69/3/1
f 74/1/2 73/4/2 72/5/2
f 76/1/2 72/4/2 68/5/2
f 77/12/5 75/13/5 79/14/5
f 73/10/3 78/7/3 85/8/3
f 79/15/5 82/16/5 80/17/5
f 84/1/3 80/2/3 81/3/3
f 85/12/3 83/13/3 84/14/3
f 17/6/3 84/7/3 86/8/3
f 86/1/3 81/2/3 12/3/3
f 98/11/3 85/7/3 17/8/3
f 88/15/5 87/16/5 82/17/5
f 91/15/5 90/16/5 87/17/5
f 76/18/5 92/19/5 91/20/5
f 93/1/2 68/4/2 66/5/2
f 93/6/4 62/7/4 94/8/4
f 96/12/4 94/13/4 62/14/4
f 95/1/4 97/2/4 90/3/4
f 96/1/4 55/2/4 97/3/4
f 70/1/1 99/2/1 100/3/1
f 100/1/2 18/4/2 20/5/2
f 64/1/1 100/2/1 101/3/1
f 101/1/2 20/4/2 102/5/2
f 61/1/2 102/4/2 59/5/2
f 59/1/1 21/2/1 103/3/1
f 2/1/1 1/21/1 4/2/1
f 43/1/2 3/21/2 1/4/2
f 1/1/3 3/21/3 6/2/3
f 3/1/3 8/21/3 7/2/3
f 8/1/3 10/21/3 9/2/3
f 10/1/3 14/21/3 11/2/3
f 13/1/3 86/21/3 12/2/3
f 16/6/3 15/22/3 14/7/3
f 19/1/2 15/21/2 16/4/2
f 15/6/3 17/22/3 86/7/3
f 18/9/3 99/23/3 17/7/3
f 20/1/1 18/21/1 15/2/1
f 102/1/1 20/21/1 19/2/1
f 21/1/2 19/21/2 22/4/2
f 24/1/1 22/21/1 23/2/1
f 22/1/1 16/21/1 53/2/1
f 103/1/2 21/21/2 24/4/2
f 25/1/1 24/21/1 26/2/1
f 26/1/2 23/21/2 50/4/2
f 28/1/2 26/21/2 27/4/2
f 28/10/4 29/24/4 33/7/4
f 31/1/4 30/21/4 32/2/4
f 103/6/4 25/22/4 30/7/4
f 30/1/4 33/21/4 36/2/4
f 33/1/4 34/21/4 37/2/4
f 35/11/4 46/25/4 34/7/4
f 34/1/4 40/21/4 38/2/4
f 40/1/1 41/21/1 39/2/1
f 34/1/2 42/21/2 41/4/2
f 41/1/1 2/21/1 5/2/1
f 42/1/2 43/21/2 2/4/2
f 44/1/1 47/21/1 43/2/1
f 46/1/1 44/21/1 42/2/1
f 35/1/2 45/21/2 44/4/2
f 45/1/2 49/21/2 47/4/2
f 47/1/1 48/21/1 3/2/1
f 49/1/2 51/21/2 48/4/2
f 27/1/1 50/21/1 49/2/1
f 50/1/1 52/21/1 51/2/1
f 48/11/3 51/25/3 8/7/3
f 52/10/3 53/24/3 10/7/3
f 23/1/2 53/21/2 52/4/2
f 29/1/1 27/21/1 45/2/1
f 57/1/4 56/21/4 54/2/4
f 60/6/4 58/22/4 56/7/4
f 61/11/4 59/25/4 58/7/4
f 62/6/4 60/22/4 57/7/4
f 65/10/4 63/24/4 60/7/4
f 63/1/1 64/21/1 101/2/1
f 65/1/2 67/21/2 64/4/2
f 66/1/1 68/21/1 67/2/1
f 67/1/2 69/21/2 70/4/2
f 68/1/1 72/21/1 69/2/1
f 69/1/2 71/21/2 98/4/2
f 72/1/1 73/21/1 71/2/1
f 74/1/2 77/21/2 73/4/2
f 76/1/2 74/21/2 72/4/2
f 77/12/5 74/26/5 75/13/5
f 73/10/3 77/24/3 78/7/3
f 79/15/5 75/27/5 82/16/5
f 84/1/3 83/21/3 80/2/3
f 85/12/3 78/26/3 83/13/3
f 17/6/3 85/22/3 84/7/3
f 86/1/3 84/21/3 81/2/3
f 98/11/3 71/25/3 85/7/3
f 88/15/5 89/27/5 87/16/5
f 91/15/5 92/27/5 90/16/5
f 76/18/5 93/28/5 92/19/5
f 93/1/2 76/21/2 68/4/2
f 93/6/4 66/22/4 62/7/4
f 96/12/4 95/26/4 94/13/4
f 95/1/4 96/21/4 97/2/4
f 96/1/4 57/21/4 55/2/4
f 70/1/1 98/21/1 99/2/1
f 100/1/2 99/21/2 18/4/2
f 64/1/1 70/21/1 100/2/1
f 101/1/2 100/21/2 20/4/2
f 61/1/2 101/21/2 102/4/2
f 59/1/1 102/21/1 21/2/1
