# Blender 5.1.2
# www.blender.org
mtllib room02.mtl
o 01-Caves.002
v 349.956909 -41.575378 -199.912659
v 359.956909 -46.575378 -199.912659
v 349.956909 -34.075382 -189.912659
v 359.956909 -46.575378 -199.912659
v 349.956909 -46.575378 -199.912659
v 349.956909 -49.075378 -189.912659
v 359.956909 -49.075378 -189.912659
v 349.956909 -54.075378 -179.912659
v 359.956909 -54.075378 -179.912659
v 349.956909 -59.075382 -169.912659
v 359.956909 -59.075382 -169.912659
v 349.956909 -59.075382 -159.912659
v 359.956909 -59.075382 -159.912659
v 349.956909 -59.075382 -149.912659
v 359.956909 -59.075382 -149.912659
v 349.956909 -54.075375 -139.912659
v 359.956909 -54.075375 -139.912659
v 349.956909 -49.075375 -129.912659
v 359.956909 -49.075375 -129.912659
v 349.956909 -54.075371 -119.912643
v 359.956909 -54.075371 -119.912643
v 349.956909 -61.575371 -109.912605
v 359.956909 -61.575371 -109.912605
v 349.956909 -61.575371 -99.912643
v 349.956909 -49.075371 -109.912613
v 349.956909 -46.575371 -109.912613
v 349.956909 -49.075371 -99.912651
v 349.956909 -56.575371 -99.912643
v 349.956909 -49.075371 -89.912651
v 349.956909 -39.075375 -99.912651
v 359.956909 -31.575375 -99.912651
v 349.956909 -31.575375 -99.912651
v 349.956909 -39.075375 -89.912651
v 349.956909 -31.575375 -89.912651
v 349.956909 -39.075375 -79.912689
v 349.956909 -31.575373 -79.912689
v 349.956909 -49.075371 -79.912689
v 349.956909 -39.075371 -69.912651
v 349.956909 -34.075371 -69.912651
v 349.956909 -49.075367 -69.912651
v 349.956909 -39.075371 -59.912643
v 349.956909 -34.075371 -59.912643
v 349.956909 -49.075367 -59.912643
v 359.956909 -54.075367 -59.912643
v 369.956818 -54.075367 -59.912643
v 359.956909 -54.075367 -69.912643
v 369.956818 -54.075367 -69.912643
v 359.956909 -56.575371 -79.912682
v 349.956909 -51.575371 -79.912682
v 359.956909 -59.075378 -89.912643
v 369.956818 -56.575371 -79.912682
v 379.956909 -56.575371 -79.912682
v 369.956818 -59.075378 -89.912643
v 369.956818 -61.575371 -99.912643
v 379.956909 -59.075378 -89.912643
v 379.956909 -61.575371 -99.912643
v 389.956909 -54.075371 -89.912643
v 389.956909 -51.575371 -79.912682
v 399.956909 -46.575371 -89.912651
v 389.956909 -56.575371 -99.912643
v 389.956909 -56.575371 -109.912605
v 399.956909 -49.075371 -99.912651
v 399.956909 -49.075371 -109.912613
v 399.956909 -44.075371 -99.912651
v 389.956909 -39.075375 -99.912651
v 399.956909 -39.075375 -89.912651
v 399.956909 -44.075371 -109.912613
v 399.956909 -39.075375 -119.912651
v 389.956909 -39.075375 -109.912613
v 389.956909 -34.075375 -119.912651
v 389.956909 -36.575375 -109.912613
v 379.956909 -34.075375 -109.912613
v 389.956909 -36.575375 -99.912651
v 379.956909 -34.075375 -99.912651
v 389.956909 -34.075375 -89.912651
v 389.956909 -34.075375 -79.912689
v 379.956909 -31.575375 -89.912651
v 379.956909 -31.575373 -79.912689
v 369.956818 -31.575375 -89.912651
v 379.956909 -31.575375 -99.912651
v 369.956818 -31.575375 -99.912651
v 379.956909 -31.575375 -109.912613
v 369.956818 -31.575375 -109.912613
v 379.956909 -31.575377 -119.912651
v 379.956909 -31.575377 -129.912659
v 369.956818 -31.575377 -119.912651
v 369.956818 -31.575377 -129.912659
v 359.956909 -31.575377 -119.912651
v 359.956909 -31.575377 -129.912659
v 349.956909 -31.575377 -119.912651
v 359.956909 -39.075375 -109.912613
v 359.956909 -31.575375 -109.912613
v 349.956909 -39.075375 -119.912651
v 349.956909 -31.575377 -129.912659
v 349.956909 -31.575378 -139.912659
v 359.956909 -31.575378 -139.912659
v 349.956909 -31.575378 -149.912659
v 349.956909 -31.575378 -159.912659
v 359.956909 -31.575378 -149.912659
v 369.956818 -31.575378 -149.912659
v 359.956909 -31.575378 -159.912659
v 359.956909 -36.575378 -159.912659
v 369.956818 -31.575378 -159.912659
v 369.956818 -34.075378 -169.912659
v 379.956909 -31.575378 -159.912659
v 369.956818 -31.575380 -169.912659
v 369.956818 -31.575380 -179.912659
v 379.956909 -31.575380 -169.912659
v 379.956909 -31.575380 -179.912659
v 389.956909 -31.575380 -169.912659
v 399.956909 -31.575380 -169.912659
v 389.956909 -31.575378 -159.912659
v 389.956909 -31.575380 -179.912659
v 389.956909 -34.075382 -189.912659
v 399.956909 -31.575380 -179.912659
v 399.956909 -46.575378 -179.912659
v 399.956909 -34.075382 -189.912659
v 399.956909 -34.075382 -199.912659
v 399.956909 -41.575378 -189.912659
v 399.956909 -46.575378 -189.912659
v 389.956909 -54.075378 -189.912659
v 389.956909 -49.075378 -189.912659
v 379.956909 -59.075386 -189.912659
v 389.956909 -54.075378 -179.912659
v 389.956909 -54.075375 -169.912659
v 379.956909 -59.075386 -179.912659
v 369.956818 -59.075386 -179.912659
v 379.956909 -59.075382 -169.912659
v 369.956818 -59.075382 -169.912659
v 379.956909 -59.075382 -159.912659
v 369.956818 -59.075382 -159.912659
v 379.956909 -59.075382 -149.912659
v 389.956909 -54.075375 -159.912659
v 389.956909 -54.075375 -149.912659
v 399.956909 -46.575375 -159.912659
v 399.956909 -46.575375 -169.912659
v 399.956909 -31.575378 -159.912659
v 399.956909 -46.575375 -149.912659
v 399.956909 -31.575378 -149.912659
v 399.956909 -41.575375 -139.912659
v 389.956909 -49.075375 -139.912659
v 399.956909 -31.575378 -139.912659
v 399.956909 -36.575378 -129.912659
v 399.956909 -31.575377 -129.912659
v 399.956909 -41.575371 -119.912651
v 399.956909 -34.075378 -129.912659
v 389.956909 -44.075375 -129.912659
v 379.956909 -49.075375 -129.912659
v 389.956909 -49.075371 -119.912651
v 379.956909 -54.075371 -119.912643
v 369.956818 -54.075371 -119.912643
v 379.956909 -61.575371 -109.912605
v 369.956818 -61.575371 -109.912605
v 369.956818 -49.075375 -129.912659
v 369.956818 -54.075375 -139.912659
v 379.956909 -54.075375 -139.912659
v 369.956818 -59.075382 -149.912659
v 399.956909 -34.075375 -119.912651
v 389.956909 -34.075378 -129.912659
v 389.956909 -31.575377 -129.912659
v 389.956909 -31.575378 -139.912659
v 389.956909 -31.575378 -149.912659
v 379.956909 -31.575378 -139.912659
v 379.956909 -31.575378 -149.912659
v 369.956818 -31.575378 -139.912659
v 369.956818 -59.075386 -189.912659
v 359.956909 -59.075386 -179.912659
v 359.956909 -59.075386 -189.912659
v 359.956909 -56.575378 -199.912659
v 369.956818 -56.575378 -189.912659
v 379.956909 -54.075378 -189.912659
v 369.956818 -54.075378 -199.912659
v 369.956818 -56.575378 -209.912659
v 379.956909 -51.575378 -199.912659
v 389.956909 -46.575378 -199.912659
v 379.956909 -54.075378 -209.912659
v 379.956909 -54.075378 -219.912704
v 389.956909 -51.575378 -209.912659
v 389.956909 -49.075378 -209.912659
v 399.956909 -41.575378 -209.912659
v 399.956909 -41.575378 -219.912704
v 399.956909 -39.075382 -199.912659
v 399.956909 -31.575382 -209.912659
v 399.956909 -54.075378 -209.912659
v 399.956909 -54.075378 -219.912704
v 389.956909 -51.575378 -219.912704
v 399.956909 -51.575382 -229.912659
v 389.956909 -49.075382 -229.912659
v 399.956909 -44.075382 -239.912659
v 399.956909 -39.075386 -229.912659
v 399.956909 -41.575382 -229.912659
v 399.956909 -31.575384 -229.912659
v 399.956909 -29.075384 -239.912659
v 399.956909 -31.575384 -239.912659
v 399.956909 -31.575384 -219.912704
v 389.956909 -31.575384 -229.912659
v 389.956909 -29.075384 -239.912659
v 379.956909 -31.575384 -229.912659
v 389.956909 -31.575384 -219.912704
v 379.956909 -31.575384 -219.912704
v 389.956909 -31.575382 -209.912659
v 379.956909 -31.575382 -209.912659
v 389.956909 -34.075382 -199.912659
v 379.956909 -34.075382 -199.912659
v 379.956909 -34.075382 -189.912659
v 369.956818 -34.075382 -199.912659
v 359.956909 -39.075382 -199.912659
v 369.956818 -31.575382 -209.912659
v 369.956818 -34.075382 -189.912659
v 369.956818 -39.075382 -179.912659
v 359.956909 -39.075382 -189.912659
v 359.956909 -44.075378 -179.912659
v 349.956909 -39.075382 -179.912659
v 359.956909 -39.075378 -169.912659
v 349.956909 -34.075378 -169.912659
v 369.956818 -31.575384 -219.912704
v 359.956909 -36.575382 -209.912659
v 359.956909 -36.575382 -219.912704
v 359.956909 -46.575378 -209.912659
v 359.956909 -59.075386 -209.912659
v 359.956909 -46.575378 -219.912704
v 359.956909 -46.575382 -229.912659
v 359.956909 -59.075386 -219.912704
v 369.956818 -56.575378 -219.912704
v 359.956909 -56.575382 -229.912659
v 369.956818 -54.075382 -229.912659
v 359.956909 -49.075382 -239.912659
v 369.956818 -46.575382 -239.912659
v 359.956909 -46.575382 -239.912659
v 359.956909 -36.575386 -239.912659
v 359.956909 -36.575386 -229.912659
v 359.956909 -34.075386 -239.912659
v 369.956818 -29.075384 -239.912659
v 369.956818 -31.575384 -229.912659
v 379.956909 -29.075384 -239.912659
v 379.956909 -44.075382 -239.912659
v 379.956909 -51.575382 -229.912659
v 389.956909 -41.575382 -239.912659
v 399.956909 -39.075386 -239.912659
v 369.956818 -31.575373 -79.912689
v 359.956909 -31.575375 -89.912651
v 359.956909 -31.575373 -79.912689
v 359.956909 -34.075371 -69.912651
v 359.956909 -31.575373 -69.912651
v 369.956818 -31.575373 -69.912651
v 359.956909 -31.575371 -59.912643
v 369.956818 -31.575371 -59.912643
v 359.956909 -34.075371 -59.912643
v 379.956909 -31.575371 -59.912643
v 379.956909 -31.575373 -69.912651
v 389.956909 -34.075371 -59.912643
v 389.956909 -34.075371 -69.912651
v 399.956909 -39.075371 -59.912643
v 399.956909 -39.075371 -69.912651
v 399.956909 -41.575367 -59.912643
v 399.956909 -41.575367 -69.912651
v 389.956909 -49.075367 -59.912643
v 379.956909 -54.075367 -59.912643
v 389.956909 -49.075367 -69.912651
v 379.956909 -54.075367 -69.912643
v 399.956909 -44.075371 -79.912689
v 399.956909 -39.075375 -79.912689
v 359.956909 -61.575371 -99.912643
v 349.956909 -54.075371 -89.912643
vn -0.3714 -0.7428 0.5571
vn -0.0000 -0.0000 1.0000
vn -0.0000 0.9701 0.2425
vn -0.0000 0.8944 0.4472
vn -0.0000 1.0000 -0.0000
vn -0.0000 0.8944 -0.4472
vn -0.0000 0.8000 0.6000
vn 1.0000 -0.0000 -0.0000
vn 0.5145 -0.6860 0.5145
vn 0.4472 0.8944 -0.0000
vn -0.0000 0.9701 -0.2425
vn 0.4364 0.8729 -0.2182
vn -0.4364 0.8729 -0.2182
vn -0.5883 0.7845 -0.1961
vn -0.4472 0.8944 -0.0000
vn -0.6000 0.8000 -0.0000
vn -1.0000 -0.0000 -0.0000
vn -0.4082 -0.8165 0.4082
vn -0.4472 -0.8944 -0.0000
vn -0.4082 -0.8165 -0.4082
vn -0.2357 -0.9428 -0.2357
vn -0.2425 -0.9701 -0.0000
vn -0.2357 -0.9428 0.2357
vn -0.0000 -1.0000 -0.0000
vn -0.0000 -0.0000 -1.0000
vn 0.5145 -0.6860 -0.5145
vn 0.4364 -0.8729 0.2182
vn -0.0000 -0.9701 0.2425
vn -0.5571 0.7428 -0.3714
vn -0.5571 0.7428 0.3714
vn -0.4082 0.8165 -0.4082
vn -0.4082 0.8165 0.4082
vn -0.3714 0.7428 0.5571
vn -0.5145 0.6860 0.5145
vn -0.2357 0.9428 0.2357
vn -0.2357 0.9428 -0.2357
vn -0.4364 0.8729 0.2182
vn -0.2425 0.9701 -0.0000
vn 0.2425 0.9701 -0.0000
vn 0.2357 0.9428 0.2357
vn 0.1961 0.7845 0.5883
vn -0.0000 -0.9701 -0.2425
vn 0.4472 -0.8944 -0.0000
vn 0.4364 -0.8729 -0.2182
vn 0.4082 -0.8165 -0.4082
vn 0.4083 -0.8165 0.4082
vn -0.4364 -0.8729 0.2182
vn -0.1961 0.7845 0.5883
vn -0.5883 0.7845 0.1961
vn 0.4083 -0.8165 -0.4082
vn -0.5884 0.7845 -0.1961
vt 0.752941 0.878431
vt 0.872549 0.998039
vt 0.752941 0.998039
vt 0.252941 0.627451
vt 0.372549 0.747059
vt 0.252941 0.747059
vt 0.378431 0.627451
vt 0.498039 0.747059
vt 0.378431 0.747059
vt 0.001961 0.501961
vt 0.121569 0.621569
vt 0.001961 0.621569
vt 0.127451 0.627451
vt 0.247059 0.747059
vt 0.127451 0.747059
vt 0.001961 0.627451
vt 0.121569 0.747059
vt 0.001961 0.747059
vt 0.872549 0.878431
vt 0.247059 0.627451
vt 0.001961 0.527451
vt 0.121569 0.527451
vt 0.001961 0.878431
vt 0.121569 0.998039
vt 0.001961 0.998039
vt 0.372549 0.684314
vt 0.252941 0.684314
vt 0.752941 0.972549
vt 0.127451 0.721568
vt 0.372549 0.627451
vt 0.127451 0.501961
vt 0.247059 0.621569
vt 0.127451 0.621569
vt 0.252941 0.690196
vt 0.121569 0.627451
vt 0.498039 0.627451
vt 0.627451 0.752941
vt 0.747059 0.872549
vt 0.627451 0.872549
vt 0.127451 0.596079
vt 0.378431 0.878431
vt 0.498039 0.998039
vt 0.378431 0.998039
vt 0.247059 0.501961
vt 0.252941 0.621569
vt 0.372549 0.501961
vt 0.372549 0.621569
vt 0.627451 0.998039
vt 0.627451 0.972549
vt 0.747059 0.998039
vt 0.501961 0.878431
vt 0.621569 0.998039
vt 0.501961 0.998039
vt 0.121569 0.501961
vt 0.121569 0.878431
vt 0.872549 0.972549
vt 0.372549 0.690196
vt 0.747059 0.752941
vt 0.498039 0.878431
vt 0.252941 0.501961
vt 0.621569 0.878431
vt 0.747059 0.972549
s 0
usemtl Material.001
f 211/1/1 1/2/1 2/3/1
f 4/3/2 1/1/2 5/2/2
f 4/4/3 6/5/3 7/6/3
f 7/7/4 8/8/4 9/9/4
f 9/4/4 10/5/4 11/6/4
f 11/1/5 12/2/5 13/3/5
f 14/10/5 13/11/5 12/12/5
f 15/4/6 16/5/6 17/6/6
f 18/13/6 17/14/6 16/15/6
f 20/16/4 19/17/4 18/18/4
f 22/4/7 21/5/7 20/6/7
f 23/1/5 24/2/5 263/3/5
f 25/1/8 24/2/8 22/3/8
f 26/1/8 27/2/8 25/3/8
f 264/3/8 27/19/8 29/2/8
f 30/1/8 29/2/8 27/3/8
f 91/15/9 30/20/9 26/14/9
f 31/21/2 32/10/2 30/22/2
f 32/1/8 33/2/8 30/3/8
f 34/1/8 35/2/8 33/3/8
f 33/1/8 37/2/8 29/3/8
f 35/3/8 39/19/8 38/2/8
f 35/1/8 40/2/8 37/3/8
f 39/1/8 41/2/8 38/3/8
f 38/1/8 43/2/8 40/3/8
f 46/1/10 43/2/10 44/3/10
f 47/1/5 44/2/5 45/3/5
f 51/1/11 46/2/11 47/3/11
f 46/3/12 49/19/12 40/2/12
f 48/3/12 264/19/12 49/2/12
f 53/1/11 48/2/11 51/3/11
f 52/1/11 47/2/11 260/3/11
f 52/1/11 53/2/11 51/3/11
f 56/1/11 53/2/11 55/3/11
f 54/1/11 50/2/11 53/3/11
f 55/3/13 60/19/13 56/2/13
f 57/1/13 52/2/13 58/3/13
f 58/3/14 59/19/14 57/2/14
f 62/1/14 57/2/14 59/3/14
f 61/1/15 56/2/15 60/3/15
f 63/1/16 60/2/16 62/3/16
f 62/1/17 67/2/17 63/3/17
f 59/3/17 64/19/17 62/2/17
f 66/1/18 65/2/18 64/3/18
f 64/23/19 69/24/19 67/25/19
f 68/1/20 69/2/20 70/3/20
f 67/4/17 145/26/17 63/27/17
f 69/25/17 71/23/17 70/24/17
f 73/28/17 69/2/17 65/3/17
f 70/1/21 72/2/21 84/3/21
f 73/1/22 72/2/22 71/3/22
f 75/1/23 74/2/23 73/3/23
f 75/25/17 73/23/17 65/24/17
f 262/1/19 75/2/19 66/3/19
f 76/1/22 77/2/22 75/3/22
f 78/1/24 79/2/24 77/3/24
f 77/3/17 80/28/17 74/2/17
f 77/23/24 81/24/24 80/25/24
f 80/1/24 83/2/24 82/3/24
f 80/28/17 72/2/17 74/3/17
f 72/3/17 82/28/17 84/2/17
f 82/1/24 86/2/24 84/3/24
f 70/1/22 85/2/22 159/3/22
f 84/23/24 87/24/24 85/25/24
f 86/1/24 89/2/24 87/3/24
f 83/1/24 88/2/24 86/3/24
f 88/1/24 94/2/24 89/3/24
f 93/15/25 90/29/25 88/14/25
f 88/15/8 92/29/8 91/14/8
f 91/4/26 93/5/26 88/6/26
f 91/15/8 92/29/8 31/14/8
f 81/1/24 92/2/24 83/3/24
f 89/1/24 95/2/24 96/3/24
f 96/1/24 97/2/24 99/3/24
f 99/1/24 98/2/24 101/3/24
f 165/1/24 99/2/24 100/3/24
f 100/1/24 101/2/24 103/3/24
f 103/6/2 101/4/2 102/5/2
f 102/6/2 101/4/2 98/5/2
f 102/6/27 104/30/27 103/5/27
f 104/3/8 106/28/8 103/2/8
f 164/1/24 103/2/24 105/3/24
f 105/1/24 106/2/24 108/3/24
f 108/1/24 107/2/24 109/3/24
f 107/6/8 104/30/8 210/5/8
f 110/1/24 109/2/24 113/3/24
f 112/1/24 108/2/24 110/3/24
f 111/1/24 113/2/24 115/3/24
f 137/23/24 110/24/24 111/25/24
f 115/1/28 114/2/28 117/3/28
f 113/1/28 205/2/28 114/3/28
f 111/1/17 116/2/17 136/3/17
f 116/3/17 117/19/17 120/2/17
f 117/1/17 182/2/17 119/3/17
f 117/1/24 203/2/24 118/3/24
f 120/3/2 122/19/2 121/2/2
f 120/1/16 124/2/16 116/3/16
f 121/3/2 171/19/2 123/2/2
f 124/1/15 123/2/15 126/3/15
f 116/1/16 125/2/16 136/3/16
f 124/1/15 128/2/15 125/3/15
f 126/1/5 129/2/5 128/3/5
f 123/1/5 127/2/5 126/3/5
f 128/1/5 131/2/5 130/3/5
f 125/1/15 130/2/15 133/3/15
f 157/10/5 130/11/5 131/12/5
f 132/31/15 133/32/15 130/33/15
f 134/10/16 135/11/16 133/12/16
f 135/1/16 125/2/16 133/3/16
f 136/1/17 137/2/17 111/3/17
f 138/31/17 137/32/17 135/33/17
f 139/7/17 140/8/17 142/9/17
f 138/4/29 141/5/29 140/6/29
f 147/13/29 140/14/29 141/15/29
f 143/16/17 142/17/17 140/18/17
f 158/34/17 143/5/17 145/6/17
f 147/18/30 145/35/30 143/17/30
f 148/16/31 141/17/31 156/18/31
f 148/15/32 149/20/32 147/14/32
f 150/9/33 61/36/33 149/8/33
f 149/6/34 63/30/34 145/5/34
f 153/4/7 150/5/7 151/6/7
f 151/16/4 148/17/4 154/18/4
f 152/1/5 54/2/5 56/3/5
f 23/7/7 151/8/7 21/9/7
f 153/1/5 263/2/5 54/3/5
f 21/13/4 154/14/4 19/15/4
f 154/13/6 156/14/6 155/15/6
f 19/16/6 155/17/6 17/18/6
f 132/4/6 155/5/6 156/6/6
f 157/7/6 17/8/6 155/9/6
f 15/10/5 131/11/5 13/12/5
f 134/7/31 156/8/31 141/9/31
f 160/1/25 146/2/25 159/3/25
f 158/1/24 159/2/24 146/3/24
f 85/3/25 160/1/25 159/2/25
f 160/1/24 163/2/24 161/3/24
f 144/1/24 161/2/24 142/3/24
f 142/1/24 162/2/24 139/3/24
f 161/1/24 164/2/24 162/3/24
f 163/1/24 100/2/24 164/3/24
f 85/1/24 165/2/24 163/3/24
f 87/23/24 96/24/24 165/25/24
f 162/23/24 105/24/24 112/25/24
f 139/1/24 112/2/24 137/3/24
f 70/3/25 158/1/25 68/2/25
f 129/1/5 13/2/5 131/3/5
f 127/1/5 11/2/5 129/3/5
f 166/1/5 167/2/5 127/3/5
f 167/18/8 9/16/8 11/17/8
f 168/13/8 9/14/8 167/15/8
f 170/3/35 169/19/35 168/2/35
f 169/18/8 7/35/8 168/17/8
f 166/12/2 170/10/2 168/11/2
f 123/3/2 170/19/2 166/2/2
f 171/3/35 172/19/35 170/2/35
f 173/1/36 169/2/36 172/3/36
f 176/1/36 172/2/36 174/3/36
f 122/3/37 174/19/37 171/2/37
f 179/1/13 174/2/13 175/3/13
f 177/1/38 173/2/38 176/3/38
f 186/1/38 176/2/38 178/3/38
f 176/3/25 179/1/25 178/2/25
f 179/1/25 184/2/25 178/3/25
f 180/1/14 175/2/14 182/3/14
f 180/1/17 185/2/17 184/3/17
f 183/10/17 181/11/17 180/12/17
f 118/1/17 180/2/17 182/3/17
f 185/1/39 178/2/39 184/3/39
f 181/1/17 187/2/17 185/3/17
f 187/1/40 186/2/40 185/3/40
f 189/1/41 188/2/41 187/3/41
f 190/1/17 189/2/17 187/3/17
f 191/1/17 195/2/17 192/3/17
f 193/37/42 196/38/42 197/39/42
f 192/33/17 193/40/17 194/32/17
f 192/1/17 239/2/17 190/3/17
f 195/1/24 196/2/24 192/3/24
f 196/41/42 235/42/42 197/43/42
f 196/37/24 200/38/24 198/39/24
f 201/1/24 200/2/24 199/3/24
f 195/1/24 201/2/24 199/3/24
f 203/23/42 202/24/42 201/25/42
f 118/1/42 201/2/42 183/3/42
f 114/1/24 204/2/24 203/3/24
f 205/23/24 206/24/24 204/25/24
f 204/1/42 208/2/42 202/3/42
f 206/4/43 211/5/43 207/6/43
f 217/9/44 206/36/44 207/8/44
f 209/6/8 107/4/8 210/5/8
f 211/9/45 210/36/45 212/8/45
f 109/1/28 209/2/28 205/3/28
f 211/33/20 213/44/20 3/32/20
f 207/3/8 211/1/8 2/2/8
f 214/4/18 213/5/18 212/6/18
f 210/6/46 214/30/46 212/5/46
f 215/9/47 102/36/47 98/8/47
f 202/1/24 216/2/24 200/3/24
f 216/4/43 217/5/43 218/6/43
f 218/1/8 219/2/8 221/3/8
f 219/3/8 207/19/8 4/2/8
f 219/1/8 169/2/8 220/3/8
f 221/1/8 220/2/8 223/3/8
f 231/1/8 221/2/8 222/3/8
f 225/3/8 221/19/8 223/2/8
f 224/1/38 220/2/38 173/3/38
f 224/3/35 225/19/35 223/2/35
f 227/3/8 222/19/8 225/2/8
f 226/1/48 227/2/48 225/3/48
f 230/1/8 222/2/8 229/3/8
f 230/3/8 232/1/8 231/2/8
f 234/45/44 232/46/44 233/47/44
f 198/41/42 233/42/42 235/43/42
f 200/37/24 234/38/24 198/39/24
f 234/37/43 218/38/43 231/39/43
f 237/3/48 228/19/48 226/2/48
f 188/3/48 236/19/48 237/2/48
f 177/3/35 226/19/35 224/2/35
f 186/3/35 237/19/35 177/2/35
f 119/3/49 175/19/49 122/2/49
f 79/1/24 31/2/24 81/3/24
f 240/1/24 241/2/24 79/3/24
f 241/1/24 32/2/24 31/3/24
f 242/1/24 34/2/24 241/3/24
f 242/48/8 244/49/8 243/50/8
f 242/51/42 39/52/42 36/53/42
f 245/1/24 242/2/24 240/3/24
f 244/49/8 248/50/8 243/48/8
f 247/1/24 244/2/24 245/3/24
f 243/51/24 42/52/24 39/53/24
f 249/1/24 245/2/24 250/3/24
f 251/1/22 250/2/22 252/3/22
f 253/1/19 252/2/19 254/3/19
f 253/1/17 256/2/17 255/3/17
f 256/1/16 257/2/16 255/3/16
f 259/1/15 258/2/15 257/3/15
f 261/1/14 259/2/14 256/3/14
f 58/1/13 260/2/13 259/3/13
f 260/1/5 45/2/5 258/3/5
f 256/3/17 262/19/17 261/2/17
f 261/3/17 66/19/17 59/2/17
f 254/1/19 76/2/19 262/3/19
f 252/1/22 78/2/22 76/3/22
f 250/1/24 240/2/24 78/3/24
f 50/3/12 28/19/12 264/2/12
f 24/3/25 28/1/25 263/2/25
f 29/1/8 49/2/8 264/3/8
f 49/3/8 37/28/8 40/2/8
f 211/1/1 3/19/1 1/2/1
f 4/4/3 5/30/3 6/5/3
f 7/7/4 6/36/4 8/8/4
f 9/4/4 8/30/4 10/5/4
f 11/1/5 10/19/5 12/2/5
f 14/10/5 15/54/5 13/11/5
f 15/4/6 14/30/6 16/5/6
f 18/13/6 19/20/6 17/14/6
f 20/16/4 21/35/4 19/17/4
f 22/4/7 23/30/7 21/5/7
f 23/1/5 22/19/5 24/2/5
f 25/1/8 27/19/8 24/2/8
f 26/1/8 30/19/8 27/2/8
f 264/3/8 28/1/8 27/19/8
f 30/1/8 33/19/8 29/2/8
f 91/15/9 31/13/9 30/20/9
f 32/1/8 34/19/8 33/2/8
f 34/1/8 36/19/8 35/2/8
f 33/1/8 35/19/8 37/2/8
f 35/3/8 36/1/8 39/19/8
f 35/1/8 38/19/8 40/2/8
f 39/1/8 42/19/8 41/2/8
f 38/1/8 41/19/8 43/2/8
f 46/1/10 40/19/10 43/2/10
f 47/1/5 46/19/5 44/2/5
f 51/1/11 48/19/11 46/2/11
f 46/3/12 48/1/12 49/19/12
f 48/3/12 50/1/12 264/19/12
f 53/1/11 50/19/11 48/2/11
f 52/1/11 51/19/11 47/2/11
f 52/1/11 55/19/11 53/2/11
f 56/1/11 54/19/11 53/2/11
f 54/1/11 263/19/11 50/2/11
f 55/3/13 57/1/13 60/19/13
f 57/1/13 55/19/13 52/2/13
f 58/3/14 261/1/14 59/19/14
f 62/1/14 60/19/14 57/2/14
f 61/1/15 152/19/15 56/2/15
f 63/1/16 61/19/16 60/2/16
f 62/1/17 64/19/17 67/2/17
f 59/3/17 66/1/17 64/19/17
f 66/1/18 75/19/18 65/2/18
f 64/23/19 65/55/19 69/24/19
f 68/1/20 67/19/20 69/2/20
f 67/4/17 68/30/17 145/26/17
f 73/28/17 71/56/17 69/2/17
f 70/1/21 71/19/21 72/2/21
f 73/1/22 74/19/22 72/2/22
f 75/1/23 77/19/23 74/2/23
f 262/1/19 76/19/19 75/2/19
f 76/1/22 78/19/22 77/2/22
f 78/1/24 240/19/24 79/2/24
f 77/23/24 79/55/24 81/24/24
f 80/1/24 81/19/24 83/2/24
f 80/28/17 82/56/17 72/2/17
f 82/1/24 83/19/24 86/2/24
f 70/1/22 84/19/22 85/2/22
f 84/23/24 86/55/24 87/24/24
f 86/1/24 88/19/24 89/2/24
f 83/1/24 92/19/24 88/2/24
f 88/1/24 90/19/24 94/2/24
f 91/4/26 26/30/26 93/5/26
f 81/1/24 31/19/24 92/2/24
f 89/1/24 94/19/24 95/2/24
f 96/1/24 95/19/24 97/2/24
f 99/1/24 97/19/24 98/2/24
f 165/1/24 96/19/24 99/2/24
f 100/1/24 99/19/24 101/2/24
f 102/6/27 214/4/27 104/30/27
f 164/1/24 100/19/24 103/2/24
f 105/1/24 103/19/24 106/2/24
f 108/1/24 106/19/24 107/2/24
f 107/6/8 106/4/8 104/30/8
f 110/1/24 108/19/24 109/2/24
f 112/1/24 105/19/24 108/2/24
f 111/1/24 110/19/24 113/2/24
f 137/23/24 112/55/24 110/24/24
f 115/1/28 113/19/28 114/2/28
f 113/1/28 109/19/28 205/2/28
f 111/1/17 115/19/17 116/2/17
f 116/3/17 115/1/17 117/19/17
f 117/1/17 118/19/17 182/2/17
f 117/1/24 114/19/24 203/2/24
f 120/3/2 119/1/2 122/19/2
f 120/1/16 121/19/16 124/2/16
f 121/3/2 122/1/2 171/19/2
f 124/1/15 121/19/15 123/2/15
f 116/1/16 124/19/16 125/2/16
f 124/1/15 126/19/15 128/2/15
f 126/1/5 127/19/5 129/2/5
f 123/1/5 166/19/5 127/2/5
f 128/1/5 129/19/5 131/2/5
f 125/1/15 128/19/15 130/2/15
f 157/10/5 132/54/5 130/11/5
f 132/31/15 134/44/15 133/32/15
f 134/10/16 138/54/16 135/11/16
f 135/1/16 136/19/16 125/2/16
f 136/1/17 135/19/17 137/2/17
f 138/31/17 139/44/17 137/32/17
f 139/7/17 138/36/17 140/8/17
f 138/4/29 134/30/29 141/5/29
f 147/13/29 143/20/29 140/14/29
f 143/16/17 144/35/17 142/17/17
f 158/34/17 146/57/17 143/5/17
f 147/18/30 149/16/30 145/35/30
f 148/16/31 147/35/31 141/17/31
f 148/15/32 150/13/32 149/20/32
f 150/9/33 152/7/33 61/36/33
f 149/6/34 61/4/34 63/30/34
f 153/4/7 152/30/7 150/5/7
f 151/16/4 150/35/4 148/17/4
f 152/1/5 153/19/5 54/2/5
f 23/7/7 153/36/7 151/8/7
f 153/1/5 23/19/5 263/2/5
f 21/13/4 151/20/4 154/14/4
f 154/13/6 148/20/6 156/14/6
f 19/16/6 154/35/6 155/17/6
f 132/4/6 157/30/6 155/5/6
f 157/7/6 15/36/6 17/8/6
f 15/10/5 157/54/5 131/11/5
f 134/7/31 132/36/31 156/8/31
f 160/1/25 144/19/25 146/2/25
f 158/1/24 70/19/24 159/2/24
f 160/1/24 85/19/24 163/2/24
f 144/1/24 160/19/24 161/2/24
f 142/1/24 161/19/24 162/2/24
f 161/1/24 163/19/24 164/2/24
f 163/1/24 165/19/24 100/2/24
f 85/1/24 87/19/24 165/2/24
f 87/23/24 89/55/24 96/24/24
f 162/23/24 164/55/24 105/24/24
f 139/1/24 162/19/24 112/2/24
f 129/1/5 11/19/5 13/2/5
f 127/1/5 167/19/5 11/2/5
f 166/1/5 168/19/5 167/2/5
f 168/13/8 7/20/8 9/14/8
f 170/3/35 172/1/35 169/19/35
f 169/18/8 4/16/8 7/35/8
f 123/3/2 171/1/2 170/19/2
f 171/3/35 174/1/35 172/19/35
f 173/1/36 220/19/36 169/2/36
f 176/1/36 173/19/36 172/2/36
f 122/3/37 175/1/37 174/19/37
f 179/1/13 176/19/13 174/2/13
f 177/1/38 224/19/38 173/2/38
f 186/1/38 177/19/38 176/2/38
f 179/1/25 180/19/25 184/2/25
f 180/1/14 179/19/14 175/2/14
f 180/1/17 181/19/17 185/2/17
f 183/10/17 195/54/17 181/11/17
f 118/1/17 183/19/17 180/2/17
f 185/1/39 186/19/39 178/2/39
f 181/1/17 191/19/17 187/2/17
f 187/1/40 188/19/40 186/2/40
f 189/1/41 238/19/41 188/2/41
f 190/1/17 239/19/17 189/2/17
f 191/1/17 181/19/17 195/2/17
f 193/37/42 192/58/42 196/38/42
f 192/1/17 194/19/17 239/2/17
f 195/1/24 199/19/24 196/2/24
f 196/41/42 198/59/42 235/42/42
f 196/37/24 199/58/24 200/38/24
f 201/1/24 202/19/24 200/2/24
f 195/1/24 183/19/24 201/2/24
f 203/23/42 204/55/42 202/24/42
f 118/1/42 203/19/42 201/2/42
f 114/1/24 205/19/24 204/2/24
f 205/23/24 209/55/24 206/24/24
f 204/1/42 206/19/42 208/2/42
f 206/4/43 209/30/43 211/5/43
f 217/9/44 208/7/44 206/36/44
f 211/9/50 209/7/50 210/36/50
f 109/1/28 107/19/28 209/2/28
f 211/33/20 212/31/20 213/44/20
f 214/4/18 215/30/18 213/5/18
f 210/6/46 104/4/46 214/30/46
f 215/9/47 214/7/47 102/36/47
f 202/1/24 208/19/24 216/2/24
f 216/4/43 208/30/43 217/5/43
f 218/1/8 217/19/8 219/2/8
f 219/3/8 217/1/8 207/19/8
f 219/1/8 4/19/8 169/2/8
f 221/1/8 219/19/8 220/2/8
f 231/1/8 218/19/8 221/2/8
f 225/3/8 222/1/8 221/19/8
f 224/1/38 223/19/38 220/2/38
f 224/3/35 226/1/35 225/19/35
f 227/3/8 229/1/8 222/19/8
f 226/1/48 228/19/48 227/2/48
f 230/1/8 231/19/8 222/2/8
f 234/45/44 231/60/44 232/46/44
f 198/41/42 234/59/42 233/42/42
f 200/37/24 216/58/24 234/38/24
f 234/37/43 216/58/43 218/38/43
f 237/3/48 236/1/48 228/19/48
f 188/3/48 238/1/48 236/19/48
f 177/3/35 237/1/35 226/19/35
f 186/3/35 188/1/35 237/19/35
f 119/3/49 182/1/49 175/19/49
f 79/1/24 241/19/24 31/2/24
f 240/1/24 242/19/24 241/2/24
f 241/1/24 34/19/24 32/2/24
f 242/1/24 36/19/24 34/2/24
f 242/51/42 243/61/42 39/52/42
f 245/1/24 244/19/24 242/2/24
f 244/49/8 246/62/8 248/50/8
f 247/1/24 246/19/24 244/2/24
f 243/51/24 248/61/24 42/52/24
f 249/1/24 247/19/24 245/2/24
f 251/1/22 249/19/22 250/2/22
f 253/1/19 251/19/19 252/2/19
f 253/1/17 254/19/17 256/2/17
f 256/1/16 259/19/16 257/2/16
f 259/1/15 260/19/15 258/2/15
f 261/1/51 58/19/51 259/2/51
f 58/1/13 52/19/13 260/2/13
f 260/1/5 47/19/5 45/2/5
f 256/3/17 254/1/17 262/19/17
f 261/3/17 262/1/17 66/19/17
f 254/1/19 252/19/19 76/2/19
f 252/1/22 250/19/22 78/2/22
f 250/1/24 245/19/24 240/2/24
f 50/3/12 263/1/12 28/19/12
f 29/1/8 37/19/8 49/2/8
