# Blender 5.1.2
# www.blender.org
mtllib room37.mtl
o 01-Caves.037
v -80.043144 -14.075355 160.087265
v -80.043144 -29.075356 160.087265
v -80.043144 -11.575355 170.087341
v -70.043121 -14.075355 160.087265
v -80.043144 -24.075356 160.087265
v -80.043144 -11.575355 160.087265
v -70.043121 -11.575355 160.087265
v -70.043121 -11.575355 170.087341
v -60.043121 -11.575355 160.087265
v -60.043121 -11.575355 170.087341
v -50.043121 -11.575355 160.087265
v -50.043121 -11.575355 170.087341
v -40.043121 -11.575355 160.087265
v -50.043121 -14.075355 160.087265
v -40.043121 -14.075355 160.087265
v -50.043121 -24.075356 160.087265
v -40.043121 -24.075356 160.087265
v -50.043121 -31.575356 160.087265
v -50.043121 -29.075354 170.087341
v -40.043121 -31.575356 160.087265
v -60.043121 -31.575356 160.087265
v -70.043121 -31.575356 160.087265
v -60.043121 -29.075354 170.087341
v -70.043121 -29.075354 170.087341
v -60.043121 -26.575354 180.087341
v -60.043121 -24.075352 190.087341
v -50.043121 -26.575354 180.087341
v -70.043121 -26.575354 180.087341
v -80.043144 -26.575354 180.087341
v -70.043121 -24.075352 190.087341
v -80.043144 -24.075352 190.087341
v -70.043121 -21.575352 200.087341
v -80.043144 -21.575352 200.087341
v -60.043121 -21.575352 200.087341
v -70.043121 -19.075352 210.087341
v -70.043121 -19.075352 200.087341
v -70.043121 -1.575355 200.087341
v -70.043121 -4.075350 200.087341
v -80.043144 -19.075352 200.087341
v -70.043121 -16.575352 210.087341
v -70.043121 -1.575354 210.087341
v -80.043144 -16.575352 210.087341
v -80.043144 -1.575354 210.087341
v -80.043144 -14.075351 220.087341
v -80.043144 -19.075352 210.087341
v -80.043144 -16.575350 220.087341
v -70.043121 -16.575350 220.087341
v -80.043144 -14.075350 230.087341
v -80.043144 -11.575350 230.087341
v -70.043121 -14.075350 230.087341
v -80.043144 -11.575349 240.087341
v -70.043121 -11.575349 240.087341
v -80.043144 -9.075349 250.087341
v -80.043144 -9.075350 240.087341
v -80.043144 5.924650 240.087341
v -80.043144 -6.575349 250.087341
v -80.043144 8.424651 250.087341
v -80.043144 -4.075346 260.087341
v -80.043144 10.924647 260.087341
v -80.043144 -6.575348 260.087341
v -70.043121 -6.575348 260.087341
v -80.043144 -4.075346 260.087341
v -70.043121 -4.075346 260.087341
v -70.043121 10.924647 260.087341
v -70.043121 -1.575350 270.087341
v -70.043121 13.424653 260.087341
v -60.043121 13.424653 260.087341
v -70.043121 13.424653 270.087341
v -60.043121 13.424653 270.087341
v -70.043121 15.924657 270.087341
v -60.043121 15.924657 270.087341
v -70.043121 18.424654 270.087341
v -70.043121 15.924658 280.087341
v -60.043121 15.924658 280.087341
v -70.043121 18.424654 280.087341
v -70.043121 15.924659 290.087341
v -80.043144 15.924659 290.087341
v -70.043121 3.424657 290.087341
v -60.043121 15.924659 290.087341
v -70.043121 13.424655 290.087341
v -70.043121 18.424654 290.087341
v -80.043144 18.424654 290.087341
v -80.043144 18.424654 280.087341
v -80.043144 18.424654 270.087341
v -80.043144 15.924657 270.087341
v -70.043121 15.924657 270.087341
v -80.043144 -1.575350 270.087341
v -80.043144 -4.075345 270.087341
v -80.043144 3.424655 270.087341
v -70.043121 -4.075345 270.087341
v -80.043144 -1.575349 280.087341
v -70.043121 -1.575349 280.087341
v -80.043144 0.924654 290.087341
v -80.043144 3.424656 280.087341
v -80.043144 3.424657 290.087341
v -70.043121 0.924654 290.087341
v -80.043144 3.424657 290.087341
v -60.043121 0.924654 290.087341
v -50.043121 0.924654 290.087341
v -60.043121 3.424657 290.087341
v -60.043121 -1.575349 280.087341
v -60.043121 -4.075345 270.087341
v -50.043121 -1.575349 280.087341
v -40.043121 -1.575349 280.087341
v -50.043121 -4.075345 270.087341
v -50.043121 -6.575348 260.087341
v -40.043121 -4.075345 270.087341
v -50.043121 -1.575350 270.087341
v -40.043121 -1.575350 270.087341
v -50.043121 13.424653 270.087341
v -50.043121 -4.075346 260.087341
v -50.043121 13.424653 260.087341
v -40.043121 -4.075346 260.087341
v -50.043121 10.924647 260.087341
v -50.043121 10.924646 250.087341
v -60.043121 10.924647 260.087341
v -40.043121 10.924647 260.087341
v -40.043121 8.424651 250.087341
v -40.043121 10.924646 250.087341
v -40.043121 -6.575349 250.087341
v -40.043121 5.924650 240.087341
v -40.043121 8.424650 240.087341
v -50.043121 8.424651 250.087341
v -50.043121 8.424650 240.087341
v -60.043121 8.424651 250.087341
v -70.043121 8.424651 250.087341
v -60.043121 8.424650 240.087341
v -60.043121 10.924646 250.087341
v -70.043121 10.924646 250.087341
v -80.043144 10.924646 250.087341
v -60.043121 5.924650 240.087341
v -70.043121 8.424650 240.087341
v -80.043144 8.424650 240.087341
v -70.043121 5.924650 240.087341
v -70.043121 5.924649 230.087341
v -80.043144 5.924649 230.087341
v -60.043121 5.924649 230.087341
v -70.043121 3.424652 230.087341
v -70.043121 3.424651 220.087341
v -80.043144 3.424652 230.087341
v -60.043121 3.424652 230.087341
v -60.043121 3.424651 220.087341
v -50.043121 3.424652 230.087341
v -40.043121 3.424652 230.087341
v -50.043121 5.924649 230.087341
v -50.043121 3.424651 220.087341
v -50.043121 0.924649 220.087341
v -40.043121 3.424651 220.087341
v -40.043121 0.924649 220.087341
v -40.043121 -1.575354 210.087341
v -40.043121 0.924648 210.087341
v -40.043121 -14.075351 220.087341
v -40.043121 -11.575350 230.087341
v -40.043121 -16.575350 220.087341
v -40.043121 -16.575352 210.087341
v -40.043121 -19.075352 210.087341
v -40.043121 -16.575352 210.087341
v -50.043121 -19.075352 210.087341
v -50.043121 -21.575352 200.087341
v -60.043121 -19.075352 210.087341
v -50.043121 -16.575350 220.087341
v -50.043121 -16.575352 210.087341
v -50.043121 -19.075352 200.087341
v -50.043121 -1.575354 210.087341
v -60.043121 -1.575354 210.087341
v -50.043121 -1.575355 200.087341
v -50.043121 0.924648 210.087341
v -60.043121 0.924648 210.087341
v -70.043121 0.924648 210.087341
v -60.043121 0.924649 220.087341
v -70.043121 0.924649 220.087341
v -80.043144 0.924649 220.087341
v -80.043144 0.924648 210.087341
v -80.043144 3.424651 220.087341
v -60.043121 -1.575355 200.087341
v -50.043121 -4.075350 200.087341
v -60.043121 -4.075350 200.087341
v -50.043121 -4.075351 190.087341
v -40.043121 -4.075350 200.087341
v -40.043121 -4.075351 190.087341
v -40.043121 -19.075352 200.087341
v -40.043121 -6.575354 190.087341
v -50.043121 -6.575354 190.087341
v -40.043121 -9.075355 180.087341
v -40.043121 -6.575354 180.087341
v -40.043121 -21.575352 190.087341
v -40.043121 -24.075352 190.087341
v -40.043121 -24.075354 180.087341
v -40.043121 -26.575354 170.087341
v -40.043121 -26.575354 180.087341
v -40.043121 -29.075354 170.087341
v -40.043121 -11.575355 170.087341
v -40.043121 -29.075356 160.087265
v -40.043121 -14.075355 160.087265
v -40.043121 -9.075356 170.087341
v -50.043121 -9.075356 170.087341
v -50.043121 -9.075355 180.087341
v -60.043121 -9.075356 170.087341
v -70.043121 -9.075356 170.087341
v -60.043121 -9.075355 180.087341
v -70.043121 -9.075355 180.087341
v -60.043121 -6.575354 180.087341
v -60.043121 -6.575354 190.087341
v -50.043121 -6.575354 180.087341
v -70.043121 -6.575354 180.087341
v -80.043144 -6.575354 180.087341
v -70.043121 -6.575354 190.087341
v -80.043144 -6.575354 190.087341
v -70.043121 -4.075351 190.087341
v -80.043144 -4.075351 190.087341
v -60.043121 -4.075351 190.087341
v -80.043144 -4.075350 200.087341
v -80.043144 -19.075352 200.087341
v -80.043144 -21.575352 190.087341
v -80.043144 -24.075354 180.087341
v -80.043144 -26.575354 170.087341
v -80.043144 -9.075355 180.087341
v -80.043144 -9.075356 170.087341
v -80.043144 -29.075354 170.087341
v -80.043144 -31.575356 160.087265
v -40.043121 -21.575352 200.087341
v -50.043121 -24.075352 190.087341
v -60.043121 -16.575350 220.087341
v -50.043121 -14.075350 230.087341
v -40.043121 -14.075350 230.087341
v -50.043121 -11.575349 240.087341
v -50.043121 -24.075350 230.087341
v -60.043121 -14.075350 230.087341
v -60.043121 -24.075350 230.087341
v -60.043121 -21.575348 240.087341
v -70.043121 -24.075350 230.087341
v -70.043121 -21.575348 240.087341
v -50.043121 -21.575348 240.087341
v -60.043121 -11.575349 240.087341
v -60.043121 -9.075349 250.087341
v -60.043121 -6.575348 260.087341
v -50.043121 -9.075349 250.087341
v -70.043121 -9.075349 250.087341
v -40.043121 -9.075349 250.087341
v -40.043121 -6.575348 260.087341
v -40.043121 -11.575349 240.087341
v -40.043121 -9.075350 240.087341
v -50.043121 5.924650 240.087341
v -40.043121 5.924649 230.087341
v -40.043121 13.424653 270.087341
v -50.043121 15.924657 270.087341
v -50.043121 15.924658 280.087341
v -50.043121 15.924659 290.087341
v -40.043121 13.424654 280.087341
v -40.043121 10.924648 280.087341
v -50.043121 10.924649 290.087341
v -50.043121 3.424657 290.087341
v -40.043121 5.924654 290.087341
v -40.043121 3.424657 290.087341
v -40.043121 0.924654 290.087341
v -40.043121 0.924653 280.087341
v -40.043121 -1.575350 270.087341
v -50.043121 13.424655 290.087341
v -60.043121 13.424655 290.087341
v -70.043121 -24.075356 160.087265
vn 1.0000 -0.0000 -0.0000
vn -0.0000 -0.0000 1.0000
vn -0.0000 -1.0000 -0.0000
vn -0.0000 0.9701 -0.2425
vn -0.0000 -0.0000 -1.0000
vn -1.0000 -0.0000 -0.0000
vn -0.2425 -0.9701 -0.0000
vn -0.4082 -0.8165 -0.4082
vt 0.501961 0.878431
vt 0.621569 0.998039
vt 0.501961 0.998039
vt 0.252941 0.278432
vt 0.252941 0.252941
vt 0.372549 0.278432
vt 0.878431 0.752941
vt 0.998039 0.872549
vt 0.878431 0.872549
vt 0.752941 0.878431
vt 0.872549 0.998039
vt 0.752941 0.998039
vt 0.752941 0.972549
vt 0.372549 0.252941
vt 0.621569 0.878431
vt 0.252941 0.372549
vt 0.372549 0.372549
vt 0.252941 0.501961
vt 0.372549 0.621569
vt 0.252941 0.621569
vt 0.752941 0.378431
vt 0.872549 0.498039
vt 0.752941 0.498039
vt 0.501961 0.498039
vt 0.501961 0.378431
vt 0.621569 0.498039
vt 0.627451 0.498039
vt 0.747059 0.378431
vt 0.747059 0.498039
vt 0.872549 0.878431
vt 0.998039 0.752941
vt 0.872549 0.972549
vt 0.372549 0.501961
vt 0.872549 0.378431
vt 0.627451 0.378431
s 0
usemtl Material.001
f 1/1/1 216/2/1 2/3/1
f 1/4/1 6/5/1 3/6/1
f 7/5/2 1/6/2 4/4/2
f 4/7/2 5/8/2 260/9/2
f 8/10/3 6/11/3 7/12/3
f 10/10/3 7/11/3 9/12/3
f 12/10/3 9/11/3 11/12/3
f 192/10/3 11/11/3 13/12/3
f 13/5/2 14/6/2 15/4/2
f 15/7/2 16/8/2 17/9/2
f 17/1/2 18/2/2 20/3/2
f 20/10/4 19/11/4 191/12/4
f 18/10/4 23/11/4 19/12/4
f 21/10/4 24/11/4 23/12/4
f 23/10/4 28/11/4 25/12/4
f 19/10/4 25/11/4 27/12/4
f 27/10/4 26/11/4 222/12/4
f 25/10/4 30/11/4 26/12/4
f 28/10/4 31/11/4 30/12/4
f 24/10/4 29/11/4 28/12/4
f 30/10/4 33/11/4 32/12/4
f 26/10/4 32/11/4 34/12/4
f 39/5/5 32/6/5 33/4/5
f 34/10/4 35/11/4 160/12/4
f 36/5/1 35/6/1 32/4/1
f 37/1/1 40/2/1 36/3/1
f 212/1/5 36/2/5 39/3/5
f 40/5/2 45/6/2 35/4/2
f 41/1/2 42/2/2 40/3/2
f 43/1/1 44/2/1 42/3/1
f 42/5/1 46/6/1 45/4/1
f 35/10/4 46/11/4 47/12/4
f 47/10/4 48/11/4 50/12/4
f 44/5/1 48/6/1 46/4/1
f 49/5/1 51/6/1 48/4/1
f 50/10/4 51/11/4 52/12/4
f 52/10/4 53/11/4 238/12/4
f 54/5/1 53/6/1 51/4/1
f 140/1/1 54/2/1 49/3/1
f 55/1/1 56/2/1 54/3/1
f 57/1/1 58/2/1 56/3/1
f 56/5/1 60/6/1 53/4/1
f 238/10/4 60/11/4 61/12/4
f 62/5/5 61/6/5 60/4/5
f 59/1/5 63/2/5 62/3/5
f 63/5/1 90/6/1 61/4/1
f 66/1/1 65/2/1 63/3/1
f 67/5/2 64/6/2 116/4/2
f 69/10/3 66/11/3 67/12/3
f 71/5/2 68/6/2 69/4/2
f 74/10/3 70/11/3 71/12/3
f 75/5/6 70/6/6 73/4/6
f 79/10/3 73/11/3 74/12/3
f 81/5/6 73/6/6 76/4/6
f 77/10/5 78/11/5 97/12/5
f 76/13/5 82/11/5 81/12/5
f 76/5/5 259/6/5 80/4/5
f 81/10/3 83/11/3 75/12/3
f 75/10/3 84/11/3 72/12/3
f 72/5/2 85/6/2 86/4/2
f 86/1/2 87/2/2 65/3/2
f 65/5/2 88/6/2 90/4/2
f 89/10/1 91/11/1 88/12/1
f 90/10/4 91/11/4 92/12/4
f 92/10/4 93/11/4 96/12/4
f 94/10/1 93/11/1 91/12/1
f 97/5/5 96/6/5 93/4/5
f 101/10/4 96/11/4 98/12/4
f 78/5/5 98/6/5 96/4/5
f 100/5/5 99/6/5 98/4/5
f 103/10/4 98/11/4 99/12/4
f 102/10/4 92/11/4 101/12/4
f 105/10/4 101/11/4 103/12/4
f 104/10/4 99/11/4 255/12/4
f 107/10/4 103/11/4 104/12/4
f 105/4/6 111/14/6 106/6/6
f 106/10/4 102/11/4 105/12/4
f 109/5/2 105/6/2 107/4/2
f 245/1/2 108/2/2 109/3/2
f 108/3/6 112/15/6 111/2/6
f 111/5/5 240/6/5 106/4/5
f 114/1/5 113/2/5 111/3/5
f 117/10/3 115/11/3 119/12/3
f 114/10/3 128/11/3 115/12/3
f 112/5/2 116/6/2 114/4/2
f 117/4/6 119/5/6 118/6/6
f 113/3/6 118/15/6 120/2/6
f 119/5/2 123/6/2 118/4/2
f 120/3/6 121/15/6 242/2/6
f 118/4/6 122/5/6 121/6/6
f 118/10/3 124/11/3 122/12/3
f 123/10/3 127/11/3 124/12/3
f 115/5/2 125/6/2 123/4/2
f 128/5/2 126/6/2 125/4/2
f 125/10/3 132/11/3 127/12/3
f 116/10/3 129/11/3 128/12/3
f 129/5/2 57/6/2 126/4/2
f 64/10/3 130/11/3 129/12/3
f 57/4/1 130/5/1 59/6/1
f 124/5/2 131/6/2 243/4/2
f 127/5/2 134/6/2 131/4/2
f 132/5/2 55/6/2 134/4/2
f 126/10/3 133/11/3 132/12/3
f 131/10/3 135/11/3 137/12/3
f 134/10/3 136/11/3 135/12/3
f 135/5/2 140/6/2 138/4/2
f 137/5/2 138/6/2 141/4/2
f 141/10/3 139/11/3 142/12/3
f 138/10/3 174/11/3 139/12/3
f 143/10/3 142/11/3 146/12/3
f 145/5/2 141/6/2 143/4/2
f 244/5/2 143/6/2 144/4/2
f 144/10/3 146/11/3 148/12/3
f 146/5/2 170/6/2 147/4/2
f 148/5/2 147/6/2 149/4/2
f 144/4/6 148/5/6 149/6/6
f 149/4/6 151/5/6 150/6/6
f 152/3/6 150/15/6 155/2/6
f 149/10/3 167/11/3 151/12/3
f 153/3/6 149/15/6 152/2/6
f 225/4/6 152/14/6 154/6/6
f 154/4/6 155/14/6 156/6/6
f 157/5/2 158/6/2 156/4/2
f 156/10/4 161/11/4 154/12/4
f 158/4/6 163/14/6 159/6/6
f 159/10/4 160/11/4 158/12/4
f 158/10/4 223/11/4 161/12/4
f 162/3/6 166/15/6 163/2/6
f 150/1/2 162/2/2 157/3/2
f 167/5/2 165/6/2 164/4/2
f 164/10/3 175/11/3 166/12/3
f 151/5/2 164/6/2 150/4/2
f 147/10/3 168/11/3 167/12/3
f 168/5/2 41/6/2 165/4/2
f 170/10/3 169/11/3 168/12/3
f 142/5/2 171/6/2 170/4/2
f 171/10/3 173/11/3 169/12/3
f 139/5/2 172/6/2 171/4/2
f 43/4/1 173/5/1 172/6/1
f 172/1/1 49/2/1 44/3/1
f 172/4/1 174/5/1 140/6/1
f 169/5/2 43/6/2 41/4/2
f 166/5/2 177/6/2 176/4/2
f 176/10/3 211/11/3 178/12/3
f 179/10/3 178/11/3 180/12/3
f 176/1/5 181/2/5 163/3/5
f 179/4/6 180/5/6 182/6/6
f 181/3/6 182/15/6 186/2/6
f 180/5/2 183/6/2 182/4/2
f 182/10/3 204/11/3 185/12/3
f 182/4/6 185/5/6 184/6/6
f 186/3/6 184/15/6 188/2/6
f 221/4/6 186/14/6 187/6/6
f 187/4/6 188/14/6 190/6/6
f 190/4/6 189/14/6 191/6/6
f 188/3/6 192/15/6 189/2/6
f 190/10/4 222/11/4 187/12/4
f 191/10/4 27/11/4 190/12/4
f 191/4/6 193/14/6 20/6/6
f 189/3/6 194/15/6 193/2/6
f 192/4/6 13/5/6 194/6/6
f 184/4/6 195/5/6 192/6/6
f 195/5/2 12/6/2 192/4/2
f 184/10/3 196/11/3 195/12/3
f 197/10/3 198/11/3 196/12/3
f 196/5/2 10/6/2 12/4/2
f 198/5/2 8/6/2 10/4/2
f 200/10/3 199/11/3 198/12/3
f 202/5/2 201/6/2 200/4/2
f 204/5/2 200/6/2 197/4/2
f 183/10/3 202/11/3 204/12/3
f 203/10/3 205/11/3 202/12/3
f 205/5/2 217/6/2 201/4/2
f 207/10/3 206/11/3 205/12/3
f 209/5/2 208/6/2 207/4/2
f 211/5/2 207/6/2 203/4/2
f 38/10/3 210/11/3 209/12/3
f 177/10/3 209/11/3 211/12/3
f 178/5/2 203/6/2 183/4/2
f 208/4/1 210/5/1 212/6/1
f 208/1/1 213/2/1 214/3/1
f 214/5/1 33/6/1 31/4/1
f 217/1/1 214/2/1 215/3/1
f 215/5/1 31/6/1 29/4/1
f 216/5/1 29/6/1 219/4/1
f 3/1/1 215/2/1 216/3/1
f 201/10/3 218/11/3 199/12/3
f 3/4/1 218/5/1 217/6/1
f 217/4/1 206/5/1 208/6/1
f 199/5/2 3/6/2 8/4/2
f 2/5/1 219/6/1 220/4/1
f 22/10/4 219/11/4 24/12/4
f 260/1/2 220/2/2 22/3/2
f 185/5/2 197/6/2 184/4/2
f 187/10/4 159/11/4 221/12/4
f 222/10/4 34/11/4 159/12/4
f 163/5/5 221/6/5 159/4/5
f 175/5/2 38/6/2 177/4/2
f 165/10/3 37/11/3 175/12/3
f 161/10/4 228/11/4 224/12/4
f 154/10/4 224/11/4 225/12/4
f 225/10/4 226/11/4 241/12/4
f 233/16/6 224/14/6 227/17/6
f 224/5/2 229/17/2 227/16/2
f 228/5/2 231/17/2 229/16/2
f 223/10/4 50/11/4 228/12/4
f 227/18/4 230/19/4 233/20/4
f 229/18/4 232/19/4 230/20/4
f 50/5/1 232/17/1 231/16/1
f 52/5/5 230/17/5 232/16/5
f 234/5/5 233/17/5 230/16/5
f 226/10/4 235/11/4 237/12/4
f 234/10/4 238/11/4 235/12/4
f 237/10/4 236/11/4 106/12/4
f 235/10/4 61/11/4 236/12/4
f 241/10/4 237/11/4 239/12/4
f 239/10/4 106/11/4 240/12/4
f 240/4/6 120/14/6 239/6/6
f 239/4/6 242/14/6 241/6/6
f 241/4/6 153/14/6 225/6/6
f 242/3/6 144/15/6 153/2/6
f 236/10/4 90/11/4 102/12/4
f 160/10/4 47/11/4 223/12/4
f 243/10/3 137/11/3 145/12/3
f 121/10/3 145/11/3 244/12/3
f 121/4/6 244/5/6 144/6/6
f 122/5/2 243/6/2 121/4/2
f 140/4/1 136/5/1 55/6/1
f 55/4/1 133/5/1 57/6/1
f 110/10/3 67/11/3 112/12/3
f 246/5/2 69/6/2 110/4/2
f 245/4/2 246/5/2 110/6/2
f 246/21/7 249/22/7 247/23/7
f 247/10/3 71/11/3 246/12/3
f 248/10/3 74/11/3 247/12/3
f 251/24/6 248/25/6 247/26/6
f 247/24/5 249/25/5 250/26/5
f 250/27/8 251/28/8 247/29/8
f 252/12/5 253/30/5 254/11/5
f 253/10/6 256/11/6 254/12/6
f 255/4/6 256/14/6 104/6/6
f 252/5/5 255/6/5 99/4/5
f 104/4/6 257/14/6 107/6/6
f 256/12/6 245/30/6 257/11/6
f 259/10/5 252/11/5 100/12/5
f 79/5/5 258/6/5 259/4/5
f 80/10/5 100/11/5 78/12/5
f 1/1/1 3/15/1 216/2/1
f 7/5/2 6/14/2 1/6/2
f 4/7/2 1/31/2 5/8/2
f 8/10/3 3/30/3 6/11/3
f 10/10/3 8/30/3 7/11/3
f 12/10/3 10/30/3 9/11/3
f 192/10/3 12/30/3 11/11/3
f 13/5/2 11/14/2 14/6/2
f 15/7/2 14/31/2 16/8/2
f 17/1/2 16/15/2 18/2/2
f 20/10/4 18/30/4 19/11/4
f 18/10/4 21/30/4 23/11/4
f 21/10/4 22/30/4 24/11/4
f 23/10/4 24/30/4 28/11/4
f 19/10/4 23/30/4 25/11/4
f 27/10/4 25/30/4 26/11/4
f 25/10/4 28/30/4 30/11/4
f 28/10/4 29/30/4 31/11/4
f 24/10/4 219/30/4 29/11/4
f 30/10/4 31/30/4 33/11/4
f 26/10/4 30/30/4 32/11/4
f 39/5/5 36/14/5 32/6/5
f 34/10/4 32/30/4 35/11/4
f 36/5/1 40/14/1 35/6/1
f 37/1/1 41/15/1 40/2/1
f 212/1/5 38/15/5 36/2/5
f 40/5/2 42/14/2 45/6/2
f 41/1/2 43/15/2 42/2/2
f 43/1/1 172/15/1 44/2/1
f 42/5/1 44/14/1 46/6/1
f 35/10/4 45/30/4 46/11/4
f 47/10/4 46/30/4 48/11/4
f 44/5/1 49/14/1 48/6/1
f 49/5/1 54/14/1 51/6/1
f 50/10/4 48/30/4 51/11/4
f 52/10/4 51/30/4 53/11/4
f 54/5/1 56/14/1 53/6/1
f 140/1/1 55/15/1 54/2/1
f 55/1/1 57/15/1 56/2/1
f 57/1/1 59/15/1 58/2/1
f 56/5/1 58/14/1 60/6/1
f 238/10/4 53/30/4 60/11/4
f 62/5/5 63/14/5 61/6/5
f 59/1/5 64/15/5 63/2/5
f 63/5/1 65/14/1 90/6/1
f 66/1/1 68/15/1 65/2/1
f 67/5/2 66/14/2 64/6/2
f 69/10/3 68/30/3 66/11/3
f 71/5/2 70/14/2 68/6/2
f 74/10/3 73/30/3 70/11/3
f 75/5/6 72/14/6 70/6/6
f 79/10/3 76/30/3 73/11/3
f 81/5/6 75/14/6 73/6/6
f 77/10/5 76/30/5 78/11/5
f 76/13/5 77/32/5 82/11/5
f 76/5/5 79/14/5 259/6/5
f 81/10/3 82/30/3 83/11/3
f 75/10/3 83/30/3 84/11/3
f 72/5/2 84/14/2 85/6/2
f 86/1/2 85/15/2 87/2/2
f 65/5/2 87/14/2 88/6/2
f 89/10/1 94/30/1 91/11/1
f 90/10/4 88/30/4 91/11/4
f 92/10/4 91/30/4 93/11/4
f 94/10/1 95/30/1 93/11/1
f 97/5/5 78/14/5 96/6/5
f 101/10/4 92/30/4 96/11/4
f 78/5/5 100/14/5 98/6/5
f 100/5/5 252/14/5 99/6/5
f 103/10/4 101/30/4 98/11/4
f 102/10/4 90/30/4 92/11/4
f 105/10/4 102/30/4 101/11/4
f 104/10/4 103/30/4 99/11/4
f 107/10/4 105/30/4 103/11/4
f 105/4/6 108/5/6 111/14/6
f 106/10/4 236/30/4 102/11/4
f 109/5/2 108/14/2 105/6/2
f 245/1/2 110/15/2 108/2/2
f 108/3/6 110/1/6 112/15/6
f 111/5/5 113/14/5 240/6/5
f 114/1/5 117/15/5 113/2/5
f 117/10/3 114/30/3 115/11/3
f 114/10/3 116/30/3 128/11/3
f 112/5/2 67/14/2 116/6/2
f 113/3/6 117/1/6 118/15/6
f 119/5/2 115/14/2 123/6/2
f 120/3/6 118/1/6 121/15/6
f 118/10/3 123/30/3 124/11/3
f 123/10/3 125/30/3 127/11/3
f 115/5/2 128/14/2 125/6/2
f 128/5/2 129/14/2 126/6/2
f 125/10/3 126/30/3 132/11/3
f 116/10/3 64/30/3 129/11/3
f 129/5/2 130/14/2 57/6/2
f 64/10/3 59/30/3 130/11/3
f 124/5/2 127/14/2 131/6/2
f 127/5/2 132/14/2 134/6/2
f 132/5/2 133/14/2 55/6/2
f 126/10/3 57/30/3 133/11/3
f 131/10/3 134/30/3 135/11/3
f 134/10/3 55/30/3 136/11/3
f 135/5/2 136/14/2 140/6/2
f 137/5/2 135/14/2 138/6/2
f 141/10/3 138/30/3 139/11/3
f 138/10/3 140/30/3 174/11/3
f 143/10/3 141/30/3 142/11/3
f 145/5/2 137/14/2 141/6/2
f 244/5/2 145/14/2 143/6/2
f 144/10/3 143/30/3 146/11/3
f 146/5/2 142/14/2 170/6/2
f 148/5/2 146/14/2 147/6/2
f 152/3/6 149/1/6 150/15/6
f 149/10/3 147/30/3 167/11/3
f 153/3/6 144/1/6 149/15/6
f 225/4/6 153/5/6 152/14/6
f 154/4/6 152/5/6 155/14/6
f 157/5/2 162/14/2 158/6/2
f 156/10/4 158/30/4 161/11/4
f 158/4/6 162/5/6 163/14/6
f 159/10/4 34/30/4 160/11/4
f 158/10/4 160/30/4 223/11/4
f 162/3/6 164/1/6 166/15/6
f 150/1/2 164/15/2 162/2/2
f 167/5/2 168/14/2 165/6/2
f 164/10/3 165/30/3 175/11/3
f 151/5/2 167/14/2 164/6/2
f 147/10/3 170/30/3 168/11/3
f 168/5/2 169/14/2 41/6/2
f 170/10/3 171/30/3 169/11/3
f 142/5/2 139/14/2 171/6/2
f 171/10/3 172/30/3 173/11/3
f 139/5/2 174/14/2 172/6/2
f 172/1/1 140/15/1 49/2/1
f 169/5/2 173/14/2 43/6/2
f 166/5/2 175/14/2 177/6/2
f 176/10/3 177/30/3 211/11/3
f 179/10/3 176/30/3 178/11/3
f 176/1/5 179/15/5 181/2/5
f 181/3/6 179/1/6 182/15/6
f 180/5/2 178/14/2 183/6/2
f 182/10/3 183/30/3 204/11/3
f 186/3/6 182/1/6 184/15/6
f 221/4/6 181/5/6 186/14/6
f 187/4/6 186/5/6 188/14/6
f 190/4/6 188/5/6 189/14/6
f 188/3/6 184/1/6 192/15/6
f 190/10/4 27/30/4 222/11/4
f 191/10/4 19/30/4 27/11/4
f 191/4/6 189/5/6 193/14/6
f 189/3/6 192/1/6 194/15/6
f 195/5/2 196/14/2 12/6/2
f 184/10/3 197/30/3 196/11/3
f 197/10/3 200/30/3 198/11/3
f 196/5/2 198/14/2 10/6/2
f 198/5/2 199/14/2 8/6/2
f 200/10/3 201/30/3 199/11/3
f 202/5/2 205/14/2 201/6/2
f 204/5/2 202/14/2 200/6/2
f 183/10/3 203/30/3 202/11/3
f 203/10/3 207/30/3 205/11/3
f 205/5/2 206/14/2 217/6/2
f 207/10/3 208/30/3 206/11/3
f 209/5/2 210/14/2 208/6/2
f 211/5/2 209/14/2 207/6/2
f 38/10/3 212/30/3 210/11/3
f 177/10/3 38/30/3 209/11/3
f 178/5/2 211/14/2 203/6/2
f 208/1/1 212/15/1 213/2/1
f 214/5/1 213/14/1 33/6/1
f 217/1/1 208/15/1 214/2/1
f 215/5/1 214/14/1 31/6/1
f 216/5/1 215/14/1 29/6/1
f 3/1/1 217/15/1 215/2/1
f 201/10/3 217/30/3 218/11/3
f 199/5/2 218/14/2 3/6/2
f 2/5/1 216/14/1 219/6/1
f 22/10/4 220/30/4 219/11/4
f 260/1/2 5/15/2 220/2/2
f 185/5/2 204/14/2 197/6/2
f 187/10/4 222/30/4 159/11/4
f 222/10/4 26/30/4 34/11/4
f 163/5/5 181/14/5 221/6/5
f 175/5/2 37/14/2 38/6/2
f 165/10/3 41/30/3 37/11/3
f 161/10/4 223/30/4 228/11/4
f 154/10/4 161/30/4 224/11/4
f 225/10/4 224/30/4 226/11/4
f 233/16/6 226/5/6 224/14/6
f 224/5/2 228/14/2 229/17/2
f 228/5/2 50/14/2 231/17/2
f 223/10/4 47/30/4 50/11/4
f 227/18/4 229/33/4 230/19/4
f 229/18/4 231/33/4 232/19/4
f 50/5/1 52/14/1 232/17/1
f 52/5/5 234/14/5 230/17/5
f 234/5/5 226/14/5 233/17/5
f 226/10/4 234/30/4 235/11/4
f 234/10/4 52/30/4 238/11/4
f 237/10/4 235/30/4 236/11/4
f 235/10/4 238/30/4 61/11/4
f 241/10/4 226/30/4 237/11/4
f 239/10/4 237/30/4 106/11/4
f 240/4/6 113/5/6 120/14/6
f 239/4/6 120/5/6 242/14/6
f 241/4/6 242/5/6 153/14/6
f 242/3/6 121/1/6 144/15/6
f 236/10/4 61/30/4 90/11/4
f 160/10/4 35/30/4 47/11/4
f 243/10/3 131/30/3 137/11/3
f 121/10/3 243/30/3 145/11/3
f 122/5/2 124/14/2 243/6/2
f 110/10/3 69/30/3 67/11/3
f 246/5/2 71/14/2 69/6/2
f 246/21/7 245/34/7 249/22/7
f 247/10/3 74/30/3 71/11/3
f 248/10/3 79/30/3 74/11/3
f 250/27/8 253/35/8 251/28/8
f 252/12/5 251/10/5 253/30/5
f 253/10/6 250/30/6 256/11/6
f 255/4/6 254/5/6 256/14/6
f 252/5/5 254/14/5 255/6/5
f 104/4/6 256/5/6 257/14/6
f 256/12/6 249/10/6 245/30/6
f 259/10/5 258/30/5 252/11/5
f 79/5/5 248/14/5 258/6/5
f 80/10/5 259/30/5 100/11/5
