# Blender 5.1.2
# www.blender.org
mtllib room07.mtl
o 01-Caves.007
v 269.956879 -19.075367 10.087350
v 279.956879 -19.075367 10.087350
v 269.956879 -31.575367 10.087350
v 269.956879 -19.075365 20.087351
v 269.956879 -19.075365 30.087389
v 279.956879 -19.075365 20.087351
v 279.956879 -19.075365 30.087389
v 289.956879 -21.575365 20.087351
v 289.956879 -21.575367 10.087350
v 299.956879 -26.575365 20.087351
v 289.956879 -21.575365 30.087389
v 289.956879 -29.075365 30.087389
v 299.956879 -26.575365 30.087389
v 299.956879 -36.575363 40.087357
v 309.956879 -29.075365 30.087389
v 319.956879 -31.575365 30.087389
v 309.956879 -39.075363 40.087357
v 309.956879 -29.075363 40.087357
v 309.956879 -29.075365 20.087351
v 309.956879 -29.075367 10.087350
v 319.956879 -31.575365 20.087351
v 329.956909 -31.575365 20.087351
v 319.956879 -31.575367 10.087350
v 319.956879 -44.075363 10.087351
v 309.956879 -31.575367 10.087350
v 329.956909 -31.575367 10.087350
v 329.956909 -44.075363 10.087351
v 329.956909 -54.075363 10.087352
v 329.956909 -54.075363 20.087353
v 329.956909 -44.075363 10.087351
v 319.956879 -54.075363 10.087352
v 319.956879 -54.075363 20.087353
v 309.956879 -54.075363 10.087352
v 309.956879 -44.075363 10.087351
v 299.956879 -51.575363 10.087352
v 309.956879 -54.075363 20.087353
v 299.956879 -51.575363 20.087353
v 309.956879 -54.075359 30.087391
v 299.956879 -51.575359 30.087391
v 309.956879 -54.075359 40.087357
v 319.956879 -54.075359 30.087391
v 319.956879 -54.075359 40.087357
v 329.956909 -54.075359 30.087391
v 329.956909 -41.575359 30.087391
v 329.956909 -54.075359 40.087357
v 329.956909 -44.075359 40.087357
v 329.956909 -39.075363 40.087357
v 319.956879 -44.075359 40.087357
v 329.956909 -31.575363 40.087357
v 329.956909 -31.575365 30.087389
v 319.956879 -31.575363 40.087357
v 309.956879 -31.575363 40.087357
v 309.956879 -44.075359 40.087357
v 299.956879 -44.075359 40.087357
v 299.956879 -51.575359 40.087357
v 289.956879 -44.075359 40.087357
v 289.956879 -49.075359 40.087357
v 289.956879 -39.075363 40.087357
v 279.956879 -29.075363 40.087357
v 289.956879 -41.575359 40.087357
v 279.956879 -41.575359 40.087357
v 279.956879 -41.575359 30.087391
v 269.956879 -41.575359 40.087357
v 279.956879 -39.075363 40.087357
v 279.956879 -31.575363 40.087357
v 269.956879 -39.075363 40.087357
v 269.956879 -31.575363 40.087357
v 269.956879 -29.075363 40.087357
v 269.956879 -41.575359 30.087391
v 269.956879 -39.075367 20.087353
v 269.956879 -31.575367 10.087350
v 279.956879 -39.075367 20.087353
v 279.956879 -31.575367 10.087350
v 279.956879 -41.575363 20.087353
v 279.956879 -34.075367 10.087351
v 289.956879 -49.075363 20.087353
v 289.956879 -41.575363 10.087351
v 289.956879 -49.075359 30.087391
v 289.956879 -49.075363 10.087352
v 289.956879 -44.075363 10.087351
v 289.956879 -31.575367 10.087350
v 299.956879 -44.075363 10.087351
v 299.956879 -31.575367 10.087350
v 299.956879 -26.575367 10.087350
v 279.956879 -31.575367 10.087350
v 329.956909 -44.075363 20.087353
vn -0.0000 -1.0000 -0.0000
vn -0.0000 -0.0000 1.0000
vn -0.2425 -0.9701 -0.0000
vn -0.4472 -0.8944 -0.0000
vn -0.0000 -0.0000 -1.0000
vn -0.1741 -0.6963 -0.6963
vn 0.1741 -0.6963 -0.6963
vn 1.0000 -0.0000 -0.0000
vn -0.0000 1.0000 -0.0000
vn -1.0000 -0.0000 -0.0000
vn 0.2425 0.9701 -0.0000
vn -0.5773 -0.5773 -0.5774
vn 0.6000 0.8000 -0.0000
vn -0.0000 -0.7071 -0.7071
vn -0.0000 0.9701 0.2425
vn -0.0000 0.8000 0.6000
vn 0.5145 0.6860 0.5145
vt 0.752941 0.878431
vt 0.872549 0.998039
vt 0.752941 0.998039
vt 0.001961 0.878431
vt 0.121569 0.998039
vt 0.001961 0.998039
vt 0.252941 0.998039
vt 0.252941 0.878431
vt 0.372549 0.998039
vt 0.872549 0.878431
vt 0.372549 0.878431
vt 0.127451 0.501961
vt 0.247059 0.621569
vt 0.127451 0.621569
vt 0.001961 0.621569
vt 0.121569 0.501961
vt 0.121569 0.621569
vt 0.127451 0.998039
vt 0.247059 0.878431
vt 0.247059 0.998039
vt 0.872549 0.972549
vt 0.752941 0.972549
vt 0.752941 0.909804
vt 0.752941 0.941177
vt 0.121569 0.878431
vt 0.247059 0.501961
vt 0.001961 0.501961
vt 0.127451 0.878431
vt 0.872549 0.909804
s 0
usemtl Material.001
f 6/1/1 1/2/1 2/3/1
f 2/4/2 3/5/2 85/6/2
f 6/4/1 5/5/1 4/6/1
f 8/1/3 2/2/3 9/3/3
f 11/1/3 6/2/3 8/3/3
f 10/4/4 9/5/4 84/6/4
f 13/1/4 8/2/4 10/3/4
f 11/7/5 12/8/5 7/9/5
f 12/7/5 11/8/5 13/9/5
f 15/3/6 14/10/6 13/2/6
f 12/7/7 14/11/7 58/9/7
f 15/1/3 10/2/3 19/3/3
f 51/1/3 15/2/3 16/3/3
f 16/4/3 19/5/3 21/6/3
f 15/3/8 18/1/8 17/2/8
f 21/1/3 20/2/3 23/3/3
f 19/1/3 84/2/3 20/3/3
f 50/1/1 21/2/1 22/3/1
f 22/1/1 23/2/1 26/3/1
f 23/3/2 20/1/2 25/2/2
f 26/1/2 24/2/2 27/3/2
f 23/1/2 34/2/2 24/3/2
f 27/1/2 31/2/2 28/3/2
f 28/1/9 32/2/9 29/3/9
f 86/12/10 28/13/10 29/14/10
f 24/1/2 33/2/2 31/3/2
f 31/1/9 36/2/9 32/3/9
f 34/1/2 35/2/2 33/3/2
f 33/1/11 37/2/11 36/3/11
f 36/1/11 39/2/11 38/3/11
f 32/1/9 38/2/9 41/3/9
f 38/1/11 55/2/11 40/3/11
f 41/1/9 40/2/9 42/3/9
f 43/1/9 42/2/9 45/3/9
f 29/1/9 41/2/9 43/3/9
f 45/3/10 44/10/10 43/2/10
f 43/15/10 86/16/10 29/17/10
f 48/1/5 45/2/5 42/3/5
f 48/1/5 49/2/5 46/3/5
f 49/1/1 16/2/1 50/3/1
f 52/3/5 18/1/5 51/2/5
f 52/1/5 48/2/5 53/3/5
f 53/1/5 42/2/5 40/3/5
f 55/3/5 53/10/5 40/2/5
f 54/3/5 17/10/5 53/2/5
f 57/3/5 54/10/5 55/2/5
f 58/1/5 54/2/5 56/3/5
f 61/3/5 58/10/5 60/2/5
f 59/18/12 12/19/12 58/20/12
f 61/3/5 60/1/5 57/2/5
f 78/1/13 61/2/13 57/3/13
f 62/1/9 63/2/9 61/3/9
f 66/1/5 61/2/5 63/3/5
f 67/1/5 64/2/5 66/3/5
f 68/1/5 65/2/5 67/3/5
f 68/8/14 7/9/14 59/7/14
f 72/1/15 69/2/15 62/3/15
f 73/1/16 70/2/16 72/3/16
f 75/3/8 72/21/8 74/2/8
f 74/3/8 72/22/8 62/2/8
f 77/23/17 74/2/17 76/3/17
f 76/1/13 62/2/13 78/3/13
f 79/3/8 77/24/8 76/2/8
f 37/1/11 78/2/11 39/3/11
f 35/1/11 76/2/11 37/3/11
f 82/1/2 79/2/2 35/3/2
f 83/1/2 80/2/2 82/3/2
f 25/1/2 82/2/2 34/3/2
f 84/1/2 81/2/2 83/3/2
f 20/1/2 83/2/2 25/3/2
f 9/4/2 85/5/2 81/6/2
f 81/1/2 75/2/2 77/3/2
f 39/1/11 57/2/11 55/3/11
f 6/1/1 4/10/1 1/2/1
f 2/4/2 1/25/2 3/5/2
f 6/4/1 7/25/1 5/5/1
f 8/1/3 6/10/3 2/2/3
f 11/1/3 7/10/3 6/2/3
f 10/4/4 8/25/4 9/5/4
f 13/1/4 11/10/4 8/2/4
f 15/3/6 17/1/6 14/10/6
f 12/7/7 13/8/7 14/11/7
f 15/1/3 13/10/3 10/2/3
f 51/1/3 18/10/3 15/2/3
f 16/4/3 15/25/3 19/5/3
f 21/1/3 19/10/3 20/2/3
f 19/1/3 10/10/3 84/2/3
f 50/1/1 16/10/1 21/2/1
f 22/1/1 21/10/1 23/2/1
f 26/1/2 23/10/2 24/2/2
f 23/1/2 25/10/2 34/2/2
f 27/1/2 24/10/2 31/2/2
f 28/1/9 31/10/9 32/2/9
f 86/12/10 30/26/10 28/13/10
f 24/1/2 34/10/2 33/2/2
f 31/1/9 33/10/9 36/2/9
f 34/1/2 82/10/2 35/2/2
f 33/1/11 35/10/11 37/2/11
f 36/1/11 37/10/11 39/2/11
f 32/1/9 36/10/9 38/2/9
f 38/1/11 39/10/11 55/2/11
f 41/1/9 38/10/9 40/2/9
f 43/1/9 41/10/9 42/2/9
f 29/1/9 32/10/9 41/2/9
f 45/3/10 47/1/10 44/10/10
f 43/15/10 44/27/10 86/16/10
f 48/1/5 46/10/5 45/2/5
f 48/1/5 51/10/5 49/2/5
f 49/1/1 51/10/1 16/2/1
f 52/1/5 51/10/5 48/2/5
f 53/1/5 48/10/5 42/2/5
f 55/3/5 54/1/5 53/10/5
f 54/3/5 14/1/5 17/10/5
f 57/3/5 56/1/5 54/10/5
f 58/1/5 14/10/5 54/2/5
f 61/3/5 59/1/5 58/10/5
f 59/18/12 7/28/12 12/19/12
f 78/1/13 62/10/13 61/2/13
f 62/1/9 69/10/9 63/2/9
f 66/1/5 64/10/5 61/2/5
f 67/1/5 65/10/5 64/2/5
f 68/1/5 59/10/5 65/2/5
f 68/8/14 5/11/14 7/9/14
f 72/1/15 70/10/15 69/2/15
f 73/1/16 71/10/16 70/2/16
f 75/3/8 73/22/8 72/21/8
f 77/23/17 75/29/17 74/2/17
f 76/1/13 74/10/13 62/2/13
f 37/1/11 76/10/11 78/2/11
f 35/1/11 79/10/11 76/2/11
f 82/1/2 80/10/2 79/2/2
f 83/1/2 81/10/2 80/2/2
f 25/1/2 83/10/2 82/2/2
f 84/1/2 9/10/2 81/2/2
f 20/1/2 84/10/2 83/2/2
f 9/4/2 2/25/2 85/5/2
f 81/1/2 85/10/2 75/2/2
f 39/1/11 78/10/11 57/2/11
