# Blender 5.1.2
# www.blender.org
mtllib room40.mtl
o 01-Caves.040
v -260.043121 35.924656 350.087341
v -250.043121 35.924656 350.087341
v -260.043121 45.924652 350.087341
v -260.043121 10.924654 350.087341
v -250.043121 10.924654 350.087341
v -260.043121 10.924655 360.087341
v -260.043121 33.424660 350.087341
v -260.043121 33.424660 360.087341
v -260.043121 45.924652 360.087341
v -260.043121 33.424660 370.087341
v -260.043121 45.924652 370.087341
v -260.043121 10.924655 370.087341
v -260.043121 33.424664 380.087433
v -260.043121 45.924656 380.087433
v -260.043121 10.924656 380.087433
v -260.043121 33.424664 390.087341
v -260.043121 45.924656 390.087341
v -260.043121 10.924657 390.087341
v -250.043121 10.924657 390.087341
v -260.043121 28.424665 390.087341
v -250.043121 28.424665 390.087341
v -240.043121 28.424665 390.087341
v -250.043121 45.924656 390.087341
v -250.043121 45.924656 380.087433
v -240.043121 45.924656 390.087341
v -240.043121 45.924656 380.087433
v -230.043121 45.924656 390.087341
v -230.043121 45.924656 380.087433
v -220.043121 45.924656 390.087341
v -230.043121 28.424665 390.087341
v -220.043121 28.424665 390.087341
v -230.043121 10.924657 390.087341
v -240.043121 10.924657 390.087341
v -230.043121 10.924656 380.087433
v -220.043121 10.924657 390.087341
v -220.043121 10.924656 380.087433
v -220.043121 33.424664 390.087341
v -220.043121 33.424664 380.087433
v -220.043121 45.924656 380.087433
v -220.043121 33.424660 370.087341
v -220.043121 33.424660 360.087341
v -220.043121 45.924652 370.087341
v -220.043121 10.924655 370.087341
v -220.043121 10.924655 360.087341
v -230.043121 10.924655 370.087341
v -240.043121 10.924655 370.087341
v -230.043121 10.924655 360.087341
v -240.043121 10.924655 360.087341
v -230.043121 10.924654 350.087341
v -240.043121 10.924654 350.087341
v -230.043121 35.924656 350.087341
v -220.043121 10.924654 350.087341
v -220.043121 35.924656 350.087341
v -220.043121 33.424660 350.087341
v -220.043121 45.924652 350.087341
v -230.043121 45.924652 350.087341
v -220.043121 45.924652 360.087341
v -230.043121 45.924652 360.087341
v -230.043121 45.924652 370.087341
v -240.043121 45.924652 360.087341
v -250.043121 45.924652 360.087341
v -240.043121 45.924652 370.087341
v -240.043121 45.924652 350.087341
v -240.043121 43.424664 360.087341
v -240.043121 43.424664 350.087341
v -250.043121 43.424664 360.087341
v -250.043121 43.424664 350.087341
v -250.043121 40.924664 350.087341
v -250.043121 45.924652 350.087341
v -240.043121 40.924664 350.087341
v -250.043121 40.924664 340.087341
v -240.043121 40.924664 340.087341
v -250.043121 38.424660 340.087341
v -250.043121 35.924656 340.087341
v -250.043121 13.424659 340.087341
v -250.043121 35.924656 330.087341
v -250.043121 35.924652 320.087341
v -240.043121 35.924656 330.087341
v -250.043121 38.424660 330.087341
v -250.043121 13.424658 330.087341
v -250.043121 13.424657 320.087341
v -240.043121 13.424658 330.087341
v -240.043121 13.424657 320.087341
v -240.043121 13.424659 340.087341
v -240.043121 13.424660 350.087341
v -240.043121 35.924656 340.087341
v -240.043121 35.924656 350.087341
v -240.043121 38.424660 340.087341
v -240.043121 38.424660 330.087341
v -250.043121 13.424660 350.087341
v -240.043121 35.924652 320.087341
v -250.043121 45.924652 370.087341
v -250.043121 10.924655 360.087341
v -250.043121 10.924655 370.087341
v -250.043121 10.924656 380.087433
v -240.043121 10.924656 380.087433
vn -0.0000 -0.0000 1.0000
vn -0.0000 1.0000 -0.0000
vn 1.0000 -0.0000 -0.0000
vn -0.0000 -0.0000 -1.0000
vn -0.0000 -1.0000 -0.0000
vn -1.0000 -0.0000 -0.0000
vt 0.627451 0.127451
vt 0.747059 0.247059
vt 0.627451 0.247059
vt 0.752941 0.127451
vt 0.872549 0.247059
vt 0.752941 0.247059
vt 0.627451 0.878431
vt 0.747059 0.998039
vt 0.627451 0.998039
vt 0.001961 0.127451
vt 0.058823 0.247059
vt 0.001961 0.247059
vt 0.252941 0.127451
vt 0.309804 0.247059
vt 0.252941 0.247059
vt 0.064706 0.127451
vt 0.121569 0.247059
vt 0.064706 0.247059
vt 0.315686 0.127451
vt 0.372549 0.247059
vt 0.315686 0.247059
vt 0.752941 0.878431
vt 0.872549 0.998039
vt 0.752941 0.998039
vt 0.378431 0.127451
vt 0.435294 0.247059
vt 0.378431 0.247059
vt 0.441177 0.127451
vt 0.498039 0.247059
vt 0.441177 0.247059
vt 0.190196 0.127451
vt 0.247059 0.247059
vt 0.190196 0.247059
vt 0.127451 0.127451
vt 0.184314 0.247059
vt 0.127451 0.247059
vt 0.127451 0.001961
vt 0.247059 0.058823
vt 0.127451 0.058823
vt 0.378431 0.096079
vt 0.498039 0.121569
vt 0.378431 0.121569
vt 0.001961 0.001961
vt 0.121569 0.121569
vt 0.001961 0.121569
vt 0.252941 0.001961
vt 0.372549 0.121569
vt 0.252941 0.121569
vt 0.378431 0.001961
vt 0.247059 0.121569
vt 0.127451 0.121569
vt 0.121569 0.058823
vt 0.001961 0.058823
vt 0.747059 0.127451
vt 0.872549 0.127451
vt 0.747059 0.878431
vt 0.058823 0.127451
vt 0.309804 0.127451
vt 0.121569 0.127451
vt 0.372549 0.127451
vt 0.872549 0.878431
vt 0.435294 0.127451
vt 0.498039 0.127451
vt 0.247059 0.127451
vt 0.184314 0.127451
vt 0.247059 0.001961
vt 0.498039 0.096079
vt 0.121569 0.001961
vt 0.372549 0.001961
vt 0.498039 0.001961
s 0
usemtl Material.001
f 2/1/1 4/2/1 5/3/1
f 69/4/1 1/5/1 2/6/1
f 5/7/2 6/8/2 93/9/2
f 7/1/3 6/2/3 4/3/3
f 3/4/3 8/5/3 7/6/3
f 9/4/3 10/5/3 8/6/3
f 8/1/3 12/2/3 6/3/3
f 11/4/3 13/5/3 10/6/3
f 10/1/3 15/2/3 12/3/3
f 14/4/3 16/5/3 13/6/3
f 13/1/3 18/2/3 15/3/3
f 20/10/4 19/11/4 18/12/4
f 95/7/2 18/8/2 19/9/2
f 17/13/4 21/14/4 20/15/4
f 21/16/4 33/17/4 19/18/4
f 23/19/4 22/20/4 21/21/4
f 23/22/5 14/23/5 24/24/5
f 25/22/5 24/23/5 26/24/5
f 27/22/5 26/23/5 28/24/5
f 25/25/4 30/26/4 22/27/4
f 29/22/5 28/23/5 39/24/5
f 27/28/4 31/29/4 30/30/4
f 30/31/4 35/32/4 32/33/4
f 22/34/4 32/35/4 33/36/4
f 34/7/2 33/8/2 32/9/2
f 36/7/2 32/8/2 35/9/2
f 37/1/6 36/2/6 35/3/6
f 29/4/6 38/5/6 37/6/6
f 39/4/6 40/5/6 38/6/6
f 38/1/6 43/2/6 36/3/6
f 40/1/6 44/2/6 43/3/6
f 42/4/6 41/5/6 40/6/6
f 44/7/2 45/8/2 43/9/2
f 43/7/2 34/8/2 36/9/2
f 45/7/2 96/8/2 34/9/2
f 47/7/2 46/8/2 45/9/2
f 49/7/2 48/8/2 47/9/2
f 52/7/2 47/8/2 44/9/2
f 51/1/1 50/2/1 49/3/1
f 53/1/1 49/2/1 52/3/1
f 41/1/6 52/2/6 44/3/6
f 57/4/6 54/5/6 41/6/6
f 55/4/1 51/5/1 53/6/1
f 57/22/5 56/23/5 55/24/5
f 42/22/5 58/23/5 57/24/5
f 59/22/5 60/23/5 58/24/5
f 58/22/5 63/23/5 56/24/5
f 60/22/1 66/23/1 64/24/1
f 62/22/5 61/23/5 60/24/5
f 63/22/3 64/23/3 65/24/3
f 64/22/5 67/23/5 65/24/5
f 61/22/6 67/23/6 66/24/6
f 65/22/1 68/23/1 70/24/1
f 61/22/5 3/23/5 69/24/5
f 70/22/5 71/23/5 72/24/5
f 71/37/3 2/38/3 74/39/3
f 72/22/1 73/23/1 88/24/1
f 79/40/3 74/41/3 76/42/3
f 90/43/3 74/44/3 2/45/3
f 76/46/3 75/47/3 80/48/3
f 77/46/3 80/47/3 81/48/3
f 78/46/5 77/47/5 91/48/5
f 89/22/1 76/23/1 78/24/1
f 83/49/2 80/41/2 82/42/2
f 82/49/2 75/41/2 84/42/2
f 86/46/6 82/47/6 84/48/6
f 78/46/6 83/47/6 82/48/6
f 84/46/2 90/47/2 85/48/2
f 84/37/6 87/50/6 86/51/6
f 88/40/6 78/41/6 86/42/6
f 70/43/6 86/52/6 87/53/6
f 88/22/5 79/23/5 89/24/5
f 56/4/1 87/5/1 51/6/1
f 85/22/1 5/23/1 50/24/1
f 26/22/5 92/23/5 62/24/5
f 28/22/5 62/23/5 59/24/5
f 92/22/5 9/23/5 61/24/5
f 24/22/5 11/23/5 92/24/5
f 39/22/5 59/23/5 42/24/5
f 50/7/2 93/8/2 48/9/2
f 48/7/2 94/8/2 46/9/2
f 93/7/2 12/8/2 94/9/2
f 94/7/2 15/8/2 95/9/2
f 46/7/2 95/8/2 96/9/2
f 96/7/2 19/8/2 33/9/2
f 2/1/1 1/54/1 4/2/1
f 69/4/1 3/55/1 1/5/1
f 5/7/2 4/56/2 6/8/2
f 7/1/3 8/54/3 6/2/3
f 3/4/3 9/55/3 8/5/3
f 9/4/3 11/55/3 10/5/3
f 8/1/3 10/54/3 12/2/3
f 11/4/3 14/55/3 13/5/3
f 10/1/3 13/54/3 15/2/3
f 14/4/3 17/55/3 16/5/3
f 13/1/3 16/54/3 18/2/3
f 20/10/4 21/57/4 19/11/4
f 95/7/2 15/56/2 18/8/2
f 17/13/4 23/58/4 21/14/4
f 21/16/4 22/59/4 33/17/4
f 23/19/4 25/60/4 22/20/4
f 23/22/5 17/61/5 14/23/5
f 25/22/5 23/61/5 24/23/5
f 27/22/5 25/61/5 26/23/5
f 25/25/4 27/62/4 30/26/4
f 29/22/5 27/61/5 28/23/5
f 27/28/4 29/63/4 31/29/4
f 30/31/4 31/64/4 35/32/4
f 22/34/4 30/65/4 32/35/4
f 34/7/2 96/56/2 33/8/2
f 36/7/2 34/56/2 32/8/2
f 37/1/6 38/54/6 36/2/6
f 29/4/6 39/55/6 38/5/6
f 39/4/6 42/55/6 40/5/6
f 38/1/6 40/54/6 43/2/6
f 40/1/6 41/54/6 44/2/6
f 42/4/6 57/55/6 41/5/6
f 44/7/2 47/56/2 45/8/2
f 43/7/2 45/56/2 34/8/2
f 45/7/2 46/56/2 96/8/2
f 47/7/2 48/56/2 46/8/2
f 49/7/2 50/56/2 48/8/2
f 52/7/2 49/56/2 47/8/2
f 51/1/1 87/54/1 50/2/1
f 53/1/1 51/54/1 49/2/1
f 41/1/6 54/54/6 52/2/6
f 57/4/6 55/55/6 54/5/6
f 55/4/1 56/55/1 51/5/1
f 57/22/5 58/61/5 56/23/5
f 42/22/5 59/61/5 58/23/5
f 59/22/5 62/61/5 60/23/5
f 58/22/5 60/61/5 63/23/5
f 60/22/1 61/61/1 66/23/1
f 62/22/5 92/61/5 61/23/5
f 63/22/3 60/61/3 64/23/3
f 64/22/5 66/61/5 67/23/5
f 61/22/6 69/61/6 67/23/6
f 65/22/1 67/61/1 68/23/1
f 61/22/5 9/61/5 3/23/5
f 70/22/5 68/61/5 71/23/5
f 71/37/3 68/66/3 2/38/3
f 72/22/1 71/61/1 73/23/1
f 79/40/3 73/67/3 74/41/3
f 90/43/3 75/68/3 74/44/3
f 76/46/3 74/69/3 75/47/3
f 77/46/3 76/69/3 80/47/3
f 78/46/5 76/69/5 77/47/5
f 89/22/1 79/61/1 76/23/1
f 83/49/2 81/70/2 80/41/2
f 82/49/2 80/70/2 75/41/2
f 86/46/6 78/69/6 82/47/6
f 78/46/6 91/69/6 83/47/6
f 84/46/2 75/69/2 90/47/2
f 84/37/6 85/66/6 87/50/6
f 88/40/6 89/67/6 78/41/6
f 70/43/6 72/68/6 86/52/6
f 88/22/5 73/61/5 79/23/5
f 56/4/1 63/55/1 87/5/1
f 85/22/1 90/61/1 5/23/1
f 26/22/5 24/61/5 92/23/5
f 28/22/5 26/61/5 62/23/5
f 92/22/5 11/61/5 9/23/5
f 24/22/5 14/61/5 11/23/5
f 39/22/5 28/61/5 59/23/5
f 50/7/2 5/56/2 93/8/2
f 48/7/2 93/56/2 94/8/2
f 93/7/2 6/56/2 12/8/2
f 94/7/2 12/56/2 15/8/2
f 46/7/2 94/56/2 95/8/2
f 96/7/2 95/56/2 19/8/2
