# Blender 5.1.2
# www.blender.org
mtllib room03.mtl
o 01-Caves.003
v 269.956879 -39.075382 -199.912659
v 269.956879 -34.075382 -199.912659
v 269.956879 -39.075382 -189.912659
v 269.956879 -49.075378 -199.912659
v 269.956879 -51.575378 -199.912659
v 269.956879 -49.075378 -189.912659
v 269.956879 -54.075378 -189.912659
v 269.956879 -49.075378 -179.912659
v 269.956879 -39.075382 -179.912659
v 269.956879 -59.075386 -179.912659
v 269.956879 -49.075375 -169.912659
v 269.956879 -74.075378 -169.912659
v 269.956879 -49.075375 -159.912659
v 269.956879 -64.075378 -169.912659
v 269.956879 -39.075378 -169.912659
v 269.956879 -34.075378 -169.912659
v 269.956879 -39.075378 -159.912659
v 269.956879 -34.075378 -159.912659
v 269.956879 -39.075378 -149.912659
v 269.956879 -34.075378 -149.912659
v 269.956879 -49.075375 -149.912659
v 269.956879 -39.075378 -139.912659
v 269.956879 -34.075378 -139.912659
v 269.956879 -49.075375 -139.912659
v 269.956879 -39.075378 -129.912659
v 269.956879 -34.075378 -129.912659
v 269.956879 -49.075375 -129.912659
v 269.956879 -39.075375 -119.912651
v 269.956879 -36.575375 -119.912651
v 269.956879 -49.075371 -119.912651
v 269.956879 -56.575371 -119.912643
v 269.956879 -61.575371 -119.912643
v 269.956879 -49.075371 -109.912613
v 269.956879 -69.075371 -109.912605
v 269.956879 -39.075375 -109.912613
v 279.956879 -36.575375 -109.912613
v 269.956879 -56.575371 -109.912605
v 279.956879 -56.575371 -109.912605
v 289.956879 -56.575371 -109.912605
v 299.956879 -61.575371 -109.912605
v 289.956879 -36.575375 -109.912613
v 289.956879 -34.075375 -119.912651
v 299.956879 -39.075375 -109.912613
v 299.956879 -36.575375 -119.912651
v 299.956879 -44.075371 -109.912613
v 299.956879 -59.075378 -109.912605
v 299.956879 -44.075371 -119.912651
v 309.956879 -44.075371 -119.912651
v 299.956879 -54.075371 -119.912643
v 299.956879 -56.575371 -119.912643
v 299.956879 -39.075378 -129.912659
v 299.956879 -36.575378 -139.912659
v 309.956879 -39.075378 -129.912659
v 299.956879 -34.075378 -129.912659
v 299.956879 -34.075378 -139.912659
v 289.956879 -31.575377 -129.912659
v 289.956879 -31.575378 -139.912659
v 279.956879 -31.575377 -129.912659
v 279.956879 -34.075375 -119.912651
v 279.956879 -31.575378 -139.912659
v 279.956879 -31.575378 -149.912659
v 279.956879 -31.575378 -159.912659
v 289.956879 -31.575378 -149.912659
v 299.956879 -34.075378 -149.912659
v 299.956879 -31.575378 -149.912659
v 289.956879 -31.575378 -159.912659
v 289.956879 -31.575380 -169.912659
v 299.956879 -31.575378 -159.912659
v 299.956879 -31.575380 -169.912659
v 309.956879 -31.575378 -159.912659
v 309.956879 -31.575380 -169.912659
v 309.956879 -34.075378 -149.912659
v 309.956879 -31.575378 -149.912659
v 319.956879 -31.575378 -159.912659
v 319.956879 -31.575378 -149.912659
v 329.956909 -31.575378 -159.912659
v 319.956879 -31.575380 -169.912659
v 319.956879 -31.575380 -179.912659
v 329.956909 -31.575380 -169.912659
v 339.956818 -31.575380 -169.912659
v 329.956909 -31.575380 -179.912659
v 329.956909 -31.575382 -189.912659
v 339.956818 -31.575380 -179.912659
v 339.956818 -39.075382 -179.912659
v 339.956818 -31.575382 -189.912659
v 339.956818 -31.575382 -199.912659
v 339.956818 -34.075382 -189.912659
v 339.956818 -41.575378 -199.912659
v 349.956909 -34.075382 -189.912659
v 349.956909 -39.075382 -179.912659
v 349.956909 -41.575378 -199.912659
v 349.956909 -46.575378 -199.912659
v 339.956818 -49.075378 -199.912659
v 349.956909 -49.075378 -189.912659
v 349.956909 -54.075378 -179.912659
v 339.956818 -51.575378 -189.912659
v 329.956909 -51.575378 -189.912659
v 339.956818 -56.575378 -179.912659
v 329.956909 -56.575378 -179.912659
v 339.956818 -61.575375 -169.912659
v 329.956909 -61.575375 -169.912659
v 339.956818 -61.575375 -159.912659
v 349.956909 -59.075382 -169.912659
v 349.956909 -59.075382 -159.912659
v 349.956909 -59.075382 -149.912659
v 349.956909 -54.075375 -139.912659
v 339.956818 -61.575375 -149.912659
v 329.956909 -61.575375 -149.912659
v 339.956818 -56.575375 -139.912659
v 329.956909 -56.575375 -139.912659
v 339.956818 -51.575375 -129.912659
v 339.956818 -56.575371 -119.912643
v 349.956909 -49.075375 -129.912659
v 329.956909 -51.575375 -129.912659
v 329.956909 -54.075375 -139.912659
v 319.956879 -46.575375 -129.912659
v 329.956909 -56.575371 -119.912643
v 319.956879 -51.575371 -119.912643
v 329.956909 -64.075371 -109.912605
v 339.956818 -64.075371 -109.912605
v 329.956909 -56.575371 -109.912605
v 319.956879 -59.075378 -109.912605
v 309.956879 -59.075378 -109.912605
v 319.956879 -56.575371 -109.912605
v 309.956879 -56.575371 -109.912605
v 319.956879 -46.575371 -109.912613
v 319.956879 -39.075375 -109.912613
v 309.956879 -46.575371 -109.912613
v 329.956909 -46.575371 -109.912613
v 319.956879 -36.575375 -109.912613
v 319.956879 -36.575375 -119.912651
v 329.956909 -34.075375 -109.912613
v 329.956909 -31.575375 -109.912613
v 329.956909 -34.075375 -119.912651
v 329.956909 -31.575377 -119.912651
v 329.956909 -31.575377 -129.912659
v 319.956879 -34.075378 -129.912659
v 319.956879 -31.575377 -129.912659
v 339.956818 -31.575377 -129.912659
v 329.956909 -31.575378 -139.912659
v 329.956909 -31.575378 -149.912659
v 339.956818 -31.575378 -139.912659
v 319.956879 -31.575378 -139.912659
v 309.956879 -36.575378 -139.912659
v 309.956879 -31.575378 -139.912659
v 349.956909 -31.575378 -139.912659
v 339.956818 -31.575378 -149.912659
v 349.956909 -31.575378 -149.912659
v 339.956818 -31.575378 -159.912659
v 349.956909 -31.575378 -159.912659
v 339.956818 -34.075378 -169.912659
v 349.956909 -34.075378 -169.912659
v 349.956909 -31.575377 -129.912659
v 349.956909 -31.575377 -119.912651
v 349.956909 -39.075375 -119.912651
v 339.956818 -31.575377 -119.912651
v 339.956818 -39.075375 -109.912613
v 339.956818 -31.575375 -109.912613
v 339.956818 -46.575371 -109.912613
v 339.956818 -56.575371 -109.912605
v 349.956909 -46.575371 -109.912613
v 349.956909 -56.575371 -109.912605
v 349.956909 -61.575371 -109.912605
v 349.956909 -54.075371 -119.912643
v 319.956879 -39.075375 -119.912651
v 309.956879 -44.075371 -109.912613
v 309.956879 -51.575371 -119.912643
v 309.956879 -46.575375 -129.912659
v 299.956879 -51.575375 -129.912659
v 309.956879 -49.075375 -139.912659
v 299.956879 -54.075375 -139.912659
v 309.956879 -46.575375 -149.912659
v 319.956879 -49.075375 -139.912659
v 319.956879 -46.575375 -149.912659
v 329.956909 -51.575375 -149.912659
v 319.956879 -46.575375 -159.912659
v 319.956879 -54.075375 -169.912659
v 329.956909 -51.575375 -159.912659
v 309.956879 -46.575375 -159.912659
v 299.956879 -51.575375 -159.912659
v 309.956879 -54.075375 -169.912659
v 299.956879 -59.075382 -169.912659
v 309.956879 -49.075378 -179.912659
v 309.956879 -41.575378 -179.912659
v 309.956879 -36.575382 -189.912659
v 309.956879 -31.575380 -179.912659
v 299.956879 -46.575378 -179.912659
v 299.956879 -41.575378 -179.912659
v 299.956879 -36.575382 -189.912659
v 289.956879 -36.575382 -179.912659
v 299.956879 -36.575378 -169.912659
v 309.956879 -41.575378 -179.912659
v 309.956879 -36.575378 -169.912659
v 289.956879 -31.575382 -189.912659
v 289.956879 -31.575380 -179.912659
v 279.956879 -31.575380 -179.912659
v 279.956879 -31.575380 -169.912659
v 279.956879 -31.575382 -189.912659
v 269.956879 -34.075382 -179.912659
v 269.956879 -34.075382 -189.912659
v 279.956879 -31.575382 -199.912659
v 279.956879 -39.075382 -199.912659
v 289.956879 -31.575382 -199.912659
v 289.956879 -39.075382 -199.912659
v 299.956879 -31.575382 -199.912659
v 299.956879 -31.575382 -189.912659
v 299.956879 -39.075382 -199.912659
v 299.956879 -39.075382 -199.912659
v 299.956879 -51.575378 -199.912659
v 289.956879 -51.575378 -199.912659
v 299.956879 -54.075378 -189.912659
v 289.956879 -54.075378 -189.912659
v 299.956879 -59.075386 -179.912659
v 299.956879 -41.575378 -189.912659
v 289.956879 -59.075386 -179.912659
v 299.956879 -64.075378 -169.912659
v 299.956879 -64.075378 -159.912659
v 289.956879 -64.075378 -169.912659
v 289.956879 -64.075378 -159.912659
v 289.956879 -74.075378 -169.912659
v 279.956879 -64.075378 -169.912659
v 279.956879 -59.075386 -179.912659
v 279.956879 -74.075378 -169.912659
v 279.956879 -74.075378 -159.912659
v 279.956879 -74.075371 -149.912659
v 289.956879 -74.075378 -159.912659
v 269.956879 -74.075378 -159.912659
v 269.956879 -74.075371 -149.912659
v 269.956879 -64.075371 -149.912659
v 269.956879 -56.575375 -139.912659
v 279.956879 -64.075371 -149.912659
v 279.956879 -56.575375 -139.912659
v 289.956879 -64.075371 -149.912659
v 289.956879 -56.575375 -139.912659
v 299.956879 -64.075371 -149.912659
v 289.956879 -74.075371 -149.912659
v 299.956879 -56.575375 -139.912659
v 299.956879 -51.575375 -149.912659
v 289.956879 -51.575375 -129.912659
v 289.956879 -56.575371 -119.912643
v 279.956879 -51.575375 -129.912659
v 269.956879 -51.575375 -129.912659
v 279.956879 -56.575371 -119.912643
v 279.956879 -61.575371 -119.912643
v 279.956879 -69.075371 -109.912605
v 289.956879 -61.575371 -119.912643
v 289.956879 -69.075371 -109.912605
v 299.956879 -61.575371 -119.912643
v 299.956879 -69.075371 -109.912605
v 279.956879 -54.075378 -189.912659
v 279.956879 -51.575378 -199.912659
v 269.956879 -39.075382 -199.912659
v 309.956879 -31.575382 -189.912659
v 319.956879 -31.575382 -189.912659
v 309.956879 -31.575382 -199.912659
v 309.956879 -34.075382 -199.912659
v 319.956879 -31.575382 -199.912659
v 309.956879 -41.575378 -199.912659
v 319.956879 -41.575378 -199.912659
v 309.956879 -44.075378 -189.912659
v 319.956879 -44.075378 -189.912659
v 319.956879 -49.075378 -179.912659
v 329.956909 -49.075378 -189.912659
v 329.956909 -46.575378 -199.912659
v 329.956909 -54.075378 -179.912659
v 329.956909 -59.075382 -169.912659
v 329.956909 -49.075378 -199.912659
v 329.956909 -31.575382 -199.912659
v 329.956909 -41.575378 -199.912659
v 339.956818 -41.575378 -199.912659
v 329.956909 -61.575375 -159.912659
vn 1.0000 -0.0000 -0.0000
vn -0.0000 -0.0000 -1.0000
vn 0.2357 -0.9428 -0.2357
vn -0.2357 -0.9428 -0.2357
vn -0.0000 -0.9701 -0.2425
vn -1.0000 -0.0000 -0.0000
vn -0.0000 -0.8944 -0.4472
vn -0.2425 -0.9701 -0.0000
vn -0.0000 -1.0000 -0.0000
vn 0.2425 -0.9701 -0.0000
vn -0.0000 -0.8000 0.6000
vn -0.0000 -0.0000 1.0000
vn -0.2357 0.9428 0.2357
vn -0.2182 0.8729 0.4364
vn -0.0000 0.9701 0.2425
vn -0.0000 0.8944 0.4472
vn -0.0000 1.0000 -0.0000
vn -0.2425 0.9701 -0.0000
vn -0.2182 0.8729 -0.4364
vn -0.0000 0.8944 -0.4472
vn 0.4364 0.8729 -0.2182
vn 0.4082 0.8165 0.4082
vn 0.3714 0.7428 0.5571
vn -0.0000 0.8000 0.6000
vn 0.4364 -0.8729 -0.2182
vn -0.0000 -0.9701 0.2425
vn -0.0000 -0.8944 0.4472
vn -0.5145 -0.6860 -0.5145
vn -0.1961 0.7845 0.5883
vn 0.4082 -0.8165 -0.4082
vn 0.4472 -0.8944 -0.0000
vn -0.4082 0.8165 0.4082
vn -0.4364 0.8729 -0.2182
vn -0.0000 0.9701 -0.2425
vn -0.4364 0.8729 0.2182
vn 0.4364 0.8729 0.2182
vn 0.4472 0.8944 -0.0000
vn 0.3714 0.7428 -0.5571
vn -0.0000 0.8000 -0.6000
vn -0.4472 0.8944 -0.0000
vn -0.3714 0.7428 -0.5571
vn -0.2981 0.5963 0.7454
vn -0.4082 -0.8165 -0.4082
vn -0.4082 -0.8165 0.4082
vt 0.252941 0.501961
vt 0.372549 0.621569
vt 0.252941 0.621569
vt 0.627451 0.752941
vt 0.747059 0.872549
vt 0.627451 0.872549
vt 0.752941 0.998039
vt 0.872549 0.878431
vt 0.872549 0.998039
vt 0.752941 0.878431
vt 0.001961 0.752941
vt 0.121569 0.872549
vt 0.001961 0.872549
vt 0.747059 0.752941
vt 0.372549 0.501961
vt 0.252941 0.627451
vt 0.372549 0.747059
vt 0.252941 0.747059
vt 0.001961 0.627451
vt 0.121569 0.747059
vt 0.001961 0.747059
vt 0.252941 0.658823
vt 0.127451 0.627451
vt 0.247059 0.747059
vt 0.127451 0.747059
vt 0.378431 0.658823
vt 0.498039 0.747059
vt 0.378431 0.747059
vt 0.127451 0.847059
vt 0.247059 0.872549
vt 0.127451 0.872549
vt 0.127451 0.564706
vt 0.247059 0.621569
vt 0.127451 0.621569
vt 0.252941 0.596079
vt 0.127451 0.558823
vt 0.127451 0.501961
vt 0.247059 0.558823
vt 0.001961 0.878431
vt 0.121569 0.998039
vt 0.001961 0.998039
vt 0.378431 0.627451
vt 0.247059 0.627451
vt 0.121569 0.627451
vt 0.378431 0.721568
vt 0.252941 0.721568
vt 0.498039 0.627451
vt 0.127451 0.596079
vt 0.372549 0.627451
vt 0.001961 0.621569
vt 0.121569 0.501961
vt 0.121569 0.621569
vt 0.127451 0.533334
vt 0.247059 0.501961
vt 0.001961 0.558823
vt 0.121569 0.558823
vt 0.001961 0.501961
vt 0.252941 0.690196
vt 0.121569 0.752941
vt 0.372549 0.658823
vt 0.498039 0.658823
vt 0.247059 0.847059
vt 0.247059 0.564706
vt 0.121569 0.878431
vt 0.498039 0.721568
vt 0.372549 0.721568
s 0
usemtl Material.001
f 200/1/1 1/2/1 2/3/1
f 3/4/1 4/5/1 1/6/1
f 5/7/1 6/8/1 7/9/1
f 7/7/1 8/8/1 10/9/1
f 3/10/1 8/9/1 6/7/1
f 9/10/1 11/9/1 8/7/1
f 10/7/1 11/8/1 14/9/1
f 13/11/1 12/12/1 11/13/1
f 15/10/1 13/9/1 11/7/1
f 9/10/1 16/9/1 15/7/1
f 17/4/1 16/5/1 18/6/1
f 20/4/1 17/5/1 18/6/1
f 17/10/1 21/9/1 13/7/1
f 20/10/1 22/9/1 19/7/1
f 19/10/1 24/9/1 21/7/1
f 23/10/1 25/9/1 22/7/1
f 22/10/1 27/9/1 24/7/1
f 25/7/1 29/8/1 28/9/1
f 25/10/1 30/9/1 27/7/1
f 242/7/1 30/8/1 31/9/1
f 32/7/1 33/8/1 34/9/1
f 35/6/1 30/14/1 29/5/1
f 35/6/2 38/14/2 37/5/2
f 36/1/3 29/2/3 59/3/3
f 38/10/2 41/9/2 39/7/2
f 43/10/2 39/9/2 41/7/2
f 44/3/4 41/15/4 42/2/4
f 41/1/5 59/2/5 42/3/5
f 43/16/6 47/17/6 45/18/6
f 45/19/6 49/20/6 46/21/6
f 44/22/6 51/17/6 47/18/6
f 47/23/2 167/24/2 50/25/2
f 53/19/7 47/20/7 51/21/7
f 54/26/6 52/27/6 51/28/6
f 144/23/5 51/24/5 52/25/5
f 54/1/8 57/2/8 55/3/8
f 54/3/4 42/15/4 56/2/4
f 56/1/9 60/2/9 57/3/9
f 42/1/5 58/2/5 56/3/5
f 59/1/3 26/2/3 58/3/3
f 58/1/10 23/2/10 60/3/10
f 61/1/10 23/2/10 20/3/10
f 63/1/9 60/2/9 61/3/9
f 62/4/9 63/5/9 61/6/9
f 62/1/10 20/2/10 18/3/10
f 63/29/8 55/30/8 57/31/8
f 63/31/2 65/29/2 64/30/2
f 63/4/9 68/5/9 65/6/9
f 66/10/9 197/9/9 67/7/9
f 68/32/9 67/33/9 69/34/9
f 70/10/9 69/9/9 71/7/9
f 64/3/6 65/35/6 68/2/6
f 70/23/5 64/24/5 68/25/5
f 74/10/9 71/9/9 77/7/9
f 70/36/1 73/37/1 72/38/1
f 75/10/9 70/9/9 74/7/9
f 141/10/9 74/9/9 76/7/9
f 76/10/9 77/9/9 79/7/9
f 79/10/9 78/9/9 81/7/9
f 77/10/9 186/9/9 78/7/9
f 80/39/9 76/40/9 79/41/9
f 80/10/9 81/9/9 83/7/9
f 83/10/9 82/9/9 85/7/9
f 81/10/9 254/9/9 82/7/9
f 151/7/6 83/8/6 84/9/6
f 83/10/6 87/9/6 84/7/6
f 85/10/9 268/9/9 86/7/9
f 87/7/6 86/8/6 88/9/6
f 89/10/11 88/9/11 91/7/11
f 90/10/7 87/9/7 89/7/7
f 92/7/12 88/8/12 93/9/12
f 94/7/13 93/8/13 96/9/13
f 95/7/14 96/8/14 98/9/14
f 93/10/15 97/9/15 96/7/15
f 96/10/16 99/9/16 98/7/16
f 98/10/16 101/9/16 100/7/16
f 103/7/14 98/8/14 100/9/14
f 100/10/17 271/9/17 102/7/17
f 103/10/18 102/9/18 104/7/18
f 104/10/18 107/9/18 105/7/18
f 105/42/19 109/27/19 106/28/19
f 102/10/17 108/9/17 107/7/17
f 107/16/20 110/17/20 109/18/20
f 109/23/20 114/24/20 111/25/20
f 106/19/19 111/20/19 113/21/19
f 164/25/14 111/43/14 112/24/14
f 112/19/16 114/20/16 117/21/16
f 110/7/1 115/10/1 114/9/1
f 114/21/21 173/44/21 116/20/21
f 114/23/22 118/24/22 117/25/22
f 117/42/23 122/27/23 119/28/23
f 112/16/24 119/17/24 120/18/24
f 121/10/2 120/9/2 119/7/2
f 122/7/2 121/8/2 119/9/2
f 118/42/24 123/27/24 122/28/24
f 125/10/2 122/9/2 123/7/2
f 128/10/2 124/9/2 125/7/2
f 126/10/2 121/9/2 124/7/2
f 166/10/2 126/9/2 128/7/2
f 130/10/2 129/9/2 126/7/2
f 131/45/1 127/27/1 165/28/1
f 131/19/10 132/20/10 130/21/10
f 135/45/1 132/27/1 134/28/1
f 137/25/3 134/43/3 131/24/3
f 136/18/1 135/46/1 134/17/1
f 137/18/2 138/46/2 136/17/2
f 136/10/9 143/9/9 140/7/9
f 135/39/9 139/40/9 156/41/9
f 139/10/9 140/9/9 142/7/9
f 140/10/9 75/9/9 141/7/9
f 142/39/9 141/40/9 147/41/9
f 144/18/2 145/46/2 143/17/2
f 144/28/25 137/47/25 53/27/25
f 143/10/9 73/9/9 75/7/9
f 143/18/1 138/46/1 137/17/1
f 72/46/1 145/17/1 144/18/1
f 72/19/5 52/20/5 64/21/5
f 153/10/9 142/9/9 146/7/9
f 146/10/9 147/9/9 148/7/9
f 147/10/9 76/9/9 149/7/9
f 148/10/9 149/9/9 150/7/9
f 150/10/26 151/9/26 152/7/26
f 149/7/6 80/10/6 151/9/6
f 152/10/27 84/9/27 90/7/27
f 154/10/9 139/9/9 153/7/9
f 156/18/2 154/16/2 155/17/2
f 158/10/9 135/9/9 156/7/9
f 155/28/28 157/47/28 156/27/28
f 157/34/6 158/48/6 156/33/6
f 133/10/2 159/9/2 129/7/2
f 129/10/2 160/9/2 121/7/2
f 159/10/2 162/9/2 160/7/2
f 159/7/2 157/10/2 161/9/2
f 160/10/2 163/9/2 120/7/2
f 163/28/29 112/47/29 120/27/29
f 53/18/30 165/49/30 48/17/30
f 137/18/1 131/46/1 165/17/1
f 165/42/31 166/27/31 48/28/31
f 167/7/1 166/8/1 123/9/1
f 116/19/16 167/20/16 118/21/16
f 167/25/32 169/43/32 50/24/32
f 170/19/33 169/20/33 168/21/33
f 173/23/34 168/24/34 116/25/34
f 170/28/35 238/47/35 171/27/35
f 174/16/15 170/17/15 173/18/15
f 173/28/36 175/47/36 174/27/36
f 175/16/37 176/17/37 174/18/37
f 172/19/17 176/20/17 179/21/17
f 178/42/38 177/27/38 176/28/38
f 179/16/39 177/17/39 181/18/39
f 180/16/40 172/17/40 179/18/40
f 181/28/41 180/47/41 179/27/41
f 181/7/42 187/8/42 182/9/42
f 262/19/16 181/20/16 177/21/16
f 183/7/1 184/10/1 181/9/1
f 185/7/1 186/8/1 184/9/1
f 260/7/1 184/8/1 183/9/1
f 184/34/12 188/48/12 187/33/12
f 188/10/6 214/9/6 187/7/6
f 189/7/43 190/8/43 194/9/43
f 190/50/44 191/51/44 67/52/44
f 191/42/27 192/27/27 193/28/27
f 193/42/1 186/27/1 71/28/1
f 71/32/12 191/33/12 193/34/12
f 191/34/12 69/32/12 67/33/12
f 190/34/6 195/53/6 194/33/6
f 190/34/6 67/53/6 195/33/6
f 194/4/9 196/5/9 198/6/9
f 67/10/9 196/9/9 195/7/9
f 196/1/10 16/2/10 199/3/10
f 198/1/10 199/2/10 200/3/10
f 199/4/1 3/5/1 200/6/1
f 198/1/10 2/2/10 201/3/10
f 194/1/9 201/2/9 203/3/9
f 202/4/12 203/5/12 201/6/12
f 202/3/12 2/15/12 252/2/12
f 205/10/12 204/9/12 208/7/12
f 206/10/9 203/9/9 205/7/9
f 206/10/6 207/9/6 214/7/6
f 208/10/12 210/9/12 209/7/12
f 209/10/15 212/9/15 211/7/15
f 214/10/6 209/9/6 211/7/6
f 211/10/16 215/9/16 213/7/16
f 187/39/6 211/40/6 213/41/6
f 213/10/16 218/9/16 216/7/16
f 182/7/6 213/8/6 216/9/6
f 216/10/17 219/9/17 217/7/17
f 217/28/6 182/47/6 216/27/6
f 215/10/16 221/9/16 218/7/16
f 218/11/6 226/12/6 219/13/6
f 218/4/12 223/5/12 220/6/12
f 223/4/12 14/5/12 12/6/12
f 222/10/16 14/9/16 221/7/16
f 220/1/17 224/2/17 226/3/17
f 223/1/17 227/2/17 224/3/17
f 226/1/17 225/2/17 236/3/17
f 224/1/17 228/2/17 225/3/17
f 21/11/1 227/12/1 13/13/1
f 231/11/2 228/12/2 229/13/2
f 21/10/1 230/9/1 229/7/1
f 231/16/39 230/17/39 232/18/39
f 233/11/2 225/12/2 231/13/2
f 233/42/39 232/27/39 234/28/39
f 235/16/39 234/17/39 237/18/39
f 217/10/17 233/9/17 235/7/17
f 219/11/6 236/12/6 233/13/6
f 238/16/6 217/17/6 235/18/6
f 237/28/6 238/47/6 235/27/6
f 237/23/20 239/24/20 169/25/20
f 169/21/6 171/19/6 237/20/6
f 234/19/20 241/20/20 239/21/20
f 169/19/16 240/20/16 50/21/16
f 239/23/16 243/24/16 240/25/16
f 241/19/16 31/20/16 243/21/16
f 232/23/20 242/24/20 241/25/20
f 243/19/12 32/20/12 244/21/12
f 240/23/12 244/24/12 246/25/12
f 246/19/24 245/20/24 247/21/24
f 244/23/24 34/24/24 245/25/24
f 248/23/24 247/24/24 249/25/24
f 50/19/12 246/20/12 248/21/12
f 46/19/6 248/20/6 249/21/6
f 24/10/1 242/9/1 230/7/1
f 250/10/16 10/9/16 222/7/16
f 212/10/16 222/9/16 215/7/16
f 251/10/15 7/9/15 250/7/15
f 210/10/15 250/9/15 212/7/15
f 204/10/12 251/9/12 210/7/12
f 5/4/12 202/5/12 252/6/12
f 194/34/2 206/53/2 189/33/2
f 16/1/10 62/2/10 18/3/10
f 254/39/9 186/40/9 253/41/9
f 256/34/1 253/54/1 185/33/1
f 254/10/9 255/9/9 257/7/9
f 257/16/12 258/17/12 259/18/12
f 259/19/15 260/20/15 261/21/15
f 258/7/1 185/8/1 260/9/1
f 261/16/16 183/17/16 262/18/16
f 264/16/36 261/17/36 263/18/36
f 262/28/22 263/47/22 261/27/22
f 267/55/1 263/51/1 97/56/1
f 97/36/1 265/54/1 99/38/1
f 99/55/1 266/51/1 101/56/1
f 177/18/22 265/49/22 262/17/22
f 266/37/1 271/33/1 101/34/1
f 268/42/12 259/27/12 264/28/12
f 82/10/9 257/9/9 268/7/9
f 268/37/12 270/33/12 86/34/12
f 270/10/12 267/9/12 93/7/12
f 178/57/1 108/52/1 271/50/1
f 110/28/1 175/47/1 115/27/1
f 52/18/6 55/58/6 64/17/6
f 200/1/1 3/15/1 1/2/1
f 3/4/1 6/14/1 4/5/1
f 5/7/1 4/10/1 6/8/1
f 7/7/1 6/10/1 8/8/1
f 3/10/1 9/8/1 8/9/1
f 9/10/1 15/8/1 11/9/1
f 10/7/1 8/10/1 11/8/1
f 13/11/1 227/59/1 12/12/1
f 15/10/1 17/8/1 13/9/1
f 9/10/1 199/8/1 16/9/1
f 17/4/1 15/14/1 16/5/1
f 20/4/1 19/14/1 17/5/1
f 17/10/1 19/8/1 21/9/1
f 20/10/1 23/8/1 22/9/1
f 19/10/1 22/8/1 24/9/1
f 23/10/1 26/8/1 25/9/1
f 22/10/1 25/8/1 27/9/1
f 25/7/1 26/10/1 29/8/1
f 25/10/1 28/8/1 30/9/1
f 242/7/1 27/10/1 30/8/1
f 32/7/1 30/10/1 33/8/1
f 35/6/1 33/4/1 30/14/1
f 35/6/2 36/4/2 38/14/2
f 36/1/3 35/15/3 29/2/3
f 38/10/2 36/8/2 41/9/2
f 43/10/2 40/8/2 39/9/2
f 44/3/4 43/1/4 41/15/4
f 41/1/5 36/15/5 59/2/5
f 43/16/6 44/49/6 47/17/6
f 45/19/6 47/44/6 49/20/6
f 44/22/6 54/60/6 51/17/6
f 47/23/2 48/43/2 167/24/2
f 53/19/7 48/44/7 47/20/7
f 54/26/6 55/61/6 52/27/6
f 144/23/5 53/43/5 51/24/5
f 54/1/8 56/15/8 57/2/8
f 54/3/4 44/1/4 42/15/4
f 56/1/9 58/15/9 60/2/9
f 42/1/5 59/15/5 58/2/5
f 59/1/3 29/15/3 26/2/3
f 58/1/10 26/15/10 23/2/10
f 61/1/10 60/15/10 23/2/10
f 63/1/9 57/15/9 60/2/9
f 62/4/9 66/14/9 63/5/9
f 62/1/10 61/15/10 20/2/10
f 63/29/8 64/62/8 55/30/8
f 63/4/9 66/14/9 68/5/9
f 66/10/9 62/8/9 197/9/9
f 68/32/9 66/63/9 67/33/9
f 70/10/9 68/8/9 69/9/9
f 70/23/5 72/43/5 64/24/5
f 74/10/9 70/8/9 71/9/9
f 75/10/9 73/8/9 70/9/9
f 141/10/9 75/8/9 74/9/9
f 76/10/9 74/8/9 77/9/9
f 79/10/9 77/8/9 78/9/9
f 77/10/9 71/8/9 186/9/9
f 80/39/9 149/64/9 76/40/9
f 80/10/9 79/8/9 81/9/9
f 83/10/9 81/8/9 82/9/9
f 81/10/9 78/8/9 254/9/9
f 151/7/6 80/10/6 83/8/6
f 83/10/6 85/8/6 87/9/6
f 85/10/9 82/8/9 268/9/9
f 87/7/6 85/10/6 86/8/6
f 89/10/11 87/8/11 88/9/11
f 90/10/7 84/8/7 87/9/7
f 92/7/12 91/10/12 88/8/12
f 94/7/13 92/10/13 93/8/13
f 95/7/14 94/10/14 96/8/14
f 93/10/15 267/8/15 97/9/15
f 96/10/16 97/8/16 99/9/16
f 98/10/16 99/8/16 101/9/16
f 103/7/14 95/10/14 98/8/14
f 100/10/17 101/8/17 271/9/17
f 103/10/18 100/8/18 102/9/18
f 104/10/18 102/8/18 107/9/18
f 105/42/19 107/47/19 109/27/19
f 102/10/17 271/8/17 108/9/17
f 107/16/20 108/49/20 110/17/20
f 109/23/20 110/43/20 114/24/20
f 106/19/19 109/44/19 111/20/19
f 164/25/14 113/23/14 111/43/14
f 112/19/16 111/44/16 114/20/16
f 114/21/21 115/19/21 173/44/21
f 114/23/22 116/43/22 118/24/22
f 117/42/23 118/47/23 122/27/23
f 112/16/24 117/49/24 119/17/24
f 121/10/2 160/8/2 120/9/2
f 122/7/2 124/10/2 121/8/2
f 118/42/24 167/47/24 123/27/24
f 125/10/2 124/8/2 122/9/2
f 128/10/2 126/8/2 124/9/2
f 126/10/2 129/8/2 121/9/2
f 166/10/2 127/8/2 126/9/2
f 130/10/2 132/8/2 129/9/2
f 131/45/1 130/65/1 127/27/1
f 131/19/10 134/44/10 132/20/10
f 135/45/1 133/65/1 132/27/1
f 137/25/3 136/23/3 134/43/3
f 136/10/9 138/8/9 143/9/9
f 135/39/9 136/64/9 139/40/9
f 139/10/9 136/8/9 140/9/9
f 140/10/9 143/8/9 75/9/9
f 142/39/9 140/64/9 141/40/9
f 144/28/25 143/42/25 137/47/25
f 143/10/9 145/8/9 73/9/9
f 72/46/1 73/66/1 145/17/1
f 72/19/5 144/44/5 52/20/5
f 153/10/9 139/8/9 142/9/9
f 146/10/9 142/8/9 147/9/9
f 147/10/9 141/8/9 76/9/9
f 148/10/9 147/8/9 149/9/9
f 150/10/26 149/8/26 151/9/26
f 152/10/27 151/8/27 84/9/27
f 154/10/9 156/8/9 139/9/9
f 158/10/9 133/8/9 135/9/9
f 155/28/28 161/42/28 157/47/28
f 133/10/2 158/8/2 159/9/2
f 129/10/2 159/8/2 160/9/2
f 159/10/2 161/8/2 162/9/2
f 160/10/2 162/8/2 163/9/2
f 163/28/29 164/42/29 112/47/29
f 53/18/30 137/16/30 165/49/30
f 165/42/31 127/47/31 166/27/31
f 167/7/1 48/10/1 166/8/1
f 116/19/16 168/44/16 167/20/16
f 167/25/32 168/23/32 169/43/32
f 170/19/33 171/44/33 169/20/33
f 173/23/34 170/43/34 168/24/34
f 170/28/35 172/42/35 238/47/35
f 174/16/15 172/49/15 170/17/15
f 173/28/36 115/42/36 175/47/36
f 175/16/37 178/49/37 176/17/37
f 172/19/17 174/44/17 176/20/17
f 178/42/38 266/47/38 177/27/38
f 179/16/39 176/49/39 177/17/39
f 180/16/40 238/49/40 172/17/40
f 181/28/41 182/42/41 180/47/41
f 181/7/42 184/10/42 187/8/42
f 262/19/16 183/44/16 181/20/16
f 185/7/1 253/10/1 186/8/1
f 260/7/1 185/10/1 184/8/1
f 188/10/6 189/8/6 214/9/6
f 189/7/43 188/10/43 190/8/43
f 190/50/44 188/57/44 191/51/44
f 191/42/27 188/47/27 192/27/27
f 193/42/1 192/47/1 186/27/1
f 71/32/12 69/63/12 191/33/12
f 194/4/9 195/14/9 196/5/9
f 67/10/9 197/8/9 196/9/9
f 196/1/10 197/15/10 16/2/10
f 198/1/10 196/15/10 199/2/10
f 199/4/1 9/14/1 3/5/1
f 198/1/10 200/15/10 2/2/10
f 194/1/9 198/15/9 201/2/9
f 202/4/12 204/14/12 203/5/12
f 202/3/12 201/1/12 2/15/12
f 205/10/12 203/8/12 204/9/12
f 206/10/9 194/8/9 203/9/9
f 206/10/6 205/8/6 207/9/6
f 208/10/12 204/8/12 210/9/12
f 209/10/15 210/8/15 212/9/15
f 214/10/6 207/8/6 209/9/6
f 211/10/16 212/8/16 215/9/16
f 187/39/6 214/64/6 211/40/6
f 213/10/16 215/8/16 218/9/16
f 182/7/6 187/10/6 213/8/6
f 216/10/17 218/8/17 219/9/17
f 217/28/6 180/42/6 182/47/6
f 215/10/16 222/8/16 221/9/16
f 218/11/6 220/59/6 226/12/6
f 218/4/12 221/14/12 223/5/12
f 223/4/12 221/14/12 14/5/12
f 222/10/16 10/8/16 14/9/16
f 220/1/17 223/15/17 224/2/17
f 223/1/17 12/15/17 227/2/17
f 226/1/17 224/15/17 225/2/17
f 224/1/17 227/15/17 228/2/17
f 21/11/1 228/59/1 227/12/1
f 231/11/2 225/59/2 228/12/2
f 21/10/1 24/8/1 230/9/1
f 231/16/39 229/49/39 230/17/39
f 233/11/2 236/59/2 225/12/2
f 233/42/39 231/47/39 232/27/39
f 235/16/39 233/49/39 234/17/39
f 217/10/17 219/8/17 233/9/17
f 219/11/6 226/59/6 236/12/6
f 238/16/6 180/49/6 217/17/6
f 237/28/6 171/42/6 238/47/6
f 237/23/20 234/43/20 239/24/20
f 234/19/20 232/44/20 241/20/20
f 169/19/16 239/44/16 240/20/16
f 239/23/16 241/43/16 243/24/16
f 241/19/16 242/44/16 31/20/16
f 232/23/20 230/43/20 242/24/20
f 243/19/12 31/44/12 32/20/12
f 240/23/12 243/43/12 244/24/12
f 246/19/24 244/44/24 245/20/24
f 244/23/24 32/43/24 34/24/24
f 248/23/24 246/43/24 247/24/24
f 50/19/12 240/44/12 246/20/12
f 46/19/6 49/44/6 248/20/6
f 24/10/1 27/8/1 242/9/1
f 250/10/16 7/8/16 10/9/16
f 212/10/16 250/8/16 222/9/16
f 251/10/15 5/8/15 7/9/15
f 210/10/15 251/8/15 250/9/15
f 204/10/12 202/8/12 251/9/12
f 5/4/12 251/14/12 202/5/12
f 16/1/10 197/15/10 62/2/10
f 254/39/9 78/64/9 186/40/9
f 256/34/1 255/37/1 253/54/1
f 254/10/9 253/8/9 255/9/9
f 257/16/12 255/49/12 258/17/12
f 259/19/15 258/44/15 260/20/15
f 258/7/1 256/10/1 185/8/1
f 261/16/16 260/49/16 183/17/16
f 264/16/36 259/49/36 261/17/36
f 262/28/22 265/42/22 263/47/22
f 267/55/1 264/57/1 263/51/1
f 97/36/1 263/37/1 265/54/1
f 99/55/1 265/57/1 266/51/1
f 177/18/22 266/16/22 265/49/22
f 266/37/1 178/54/1 271/33/1
f 268/42/12 257/47/12 259/27/12
f 82/10/9 254/8/9 257/9/9
f 268/37/12 269/54/12 270/33/12
f 270/10/12 269/8/12 267/9/12
f 178/57/1 175/51/1 108/52/1
f 110/28/1 108/42/1 175/47/1
