# Blender 5.1.2
# www.blender.org
mtllib room19.mtl
o 01-Caves.019
v -290.043121 33.424629 -29.912653
v -290.043121 25.924631 -29.912653
v -290.043121 33.424633 -19.912655
v -280.043121 33.424629 -29.912653
v -280.043121 18.424631 -29.912653
v -270.043121 33.424629 -29.912653
v -280.043121 33.424633 -19.912655
v -280.043121 33.424633 -9.912655
v -270.043121 33.424633 -19.912655
v -260.043121 33.424633 -19.912655
v -270.043121 33.424633 -9.912655
v -270.043121 33.424633 0.087345
v -260.043121 33.424633 -9.912655
v -260.043121 33.424633 0.087345
v -260.043121 10.924626 -9.912653
v -260.043121 13.424631 -19.912655
v -270.043121 10.924626 -9.912653
v -260.043121 10.924627 0.087347
v -260.043121 13.424632 -9.912653
v -270.043121 10.924627 0.087347
v -260.043121 13.424634 10.087347
v -260.043121 33.424633 10.087345
v -270.043121 13.424634 10.087347
v -270.043121 33.424633 10.087345
v -280.043121 15.924638 10.087347
v -270.043121 13.424635 20.087347
v -270.043121 33.424633 20.087347
v -280.043121 15.924639 20.087347
v -280.043121 33.424633 20.087347
v -280.043121 33.424633 10.087345
v -290.043121 33.424633 10.087345
v -280.043121 33.424633 0.087345
v -290.043121 33.424633 0.087345
v -290.043121 33.424633 -9.912655
v -290.043121 23.424627 0.087346
v -290.043121 20.924633 0.087346
v -290.043121 23.424627 10.087346
v -290.043121 23.424627 -9.912654
v -290.043121 23.424625 -19.912655
v -290.043121 20.924633 -9.912654
v -280.043121 13.424632 -9.912653
v -280.043121 13.424633 0.087347
v -280.043121 15.924635 -19.912655
v -270.043121 13.424631 -19.912655
v -270.043121 15.924635 -29.912653
v -260.043121 15.924635 -29.912653
v -260.043121 33.424629 -29.912653
vn -0.0000 -0.0000 1.0000
vn 1.0000 -0.0000 -0.0000
vn -0.0000 -1.0000 -0.0000
vn -1.0000 -0.0000 -0.0000
vn -0.0000 0.9701 0.2425
vn -0.0000 1.0000 -0.0000
vn -0.0000 0.9701 -0.2425
vn -0.0000 -0.0000 -1.0000
vn 0.2357 0.9428 -0.2357
vn 0.2425 0.9701 -0.0000
vn 0.5883 0.7845 0.1961
vn 0.6000 0.8000 -0.0000
vn 0.2357 0.9428 0.2357
vn 0.5883 0.7845 -0.1961
vt 0.252941 0.627451
vt 0.372549 0.747059
vt 0.252941 0.747059
vt 0.378431 0.747059
vt 0.498039 0.627451
vt 0.498039 0.747059
vt 0.752941 0.878431
vt 0.872549 0.998039
vt 0.752941 0.998039
vt 0.378431 0.627451
vt 0.001961 0.878431
vt 0.121569 0.998039
vt 0.001961 0.998039
vt 0.001961 0.627451
vt 0.121569 0.747059
vt 0.001961 0.747059
vt 0.752941 0.941177
vt 0.001961 0.501961
vt 0.121569 0.621569
vt 0.001961 0.621569
vt 0.127451 0.501961
vt 0.247059 0.621569
vt 0.127451 0.621569
vt 0.127451 0.747059
vt 0.247059 0.627451
vt 0.247059 0.747059
vt 0.501961 0.627451
vt 0.621569 0.747059
vt 0.501961 0.747059
vt 0.247059 0.501961
vt 0.621569 0.627451
vt 0.127451 0.715687
vt 0.127451 0.627451
vt 0.247059 0.715687
vt 0.121569 0.715687
vt 0.001961 0.715687
vt 0.121569 0.501961
vt 0.372549 0.627451
vt 0.872549 0.878431
vt 0.121569 0.878431
vt 0.121569 0.627451
s 0
usemtl Material.001
f 4/1/1 2/2/1 5/3/1
f 2/4/2 3/5/2 39/6/2
f 7/7/3 1/8/3 4/9/3
f 6/10/1 5/6/1 45/4/1
f 9/7/3 4/8/3 6/9/3
f 11/7/3 7/8/3 9/9/3
f 8/11/3 3/12/3 7/13/3
f 13/7/3 9/8/3 10/9/3
f 10/11/3 6/12/3 47/13/3
f 12/7/3 8/8/3 11/9/3
f 14/7/3 11/8/3 13/9/3
f 14/14/4 15/15/4 18/16/4
f 15/9/4 19/17/4 16/8/4
f 44/18/5 15/19/5 16/20/5
f 17/21/6 18/22/6 15/23/6
f 21/24/4 14/25/4 18/26/4
f 23/18/7 18/19/7 20/20/7
f 24/27/8 21/28/8 23/29/8
f 42/23/9 23/30/9 20/22/9
f 27/27/4 23/28/4 26/29/4
f 23/21/10 28/22/10 26/23/10
f 30/27/2 28/28/2 25/29/2
f 27/7/3 30/8/3 24/9/3
f 37/29/8 30/31/8 25/28/8
f 30/7/3 33/8/3 32/9/3
f 24/7/3 32/8/3 12/9/3
f 32/7/3 34/8/3 8/9/3
f 34/10/2 35/6/2 38/4/2
f 33/1/2 37/2/2 35/3/2
f 36/32/2 35/33/2 37/34/2
f 38/14/2 36/35/2 40/36/2
f 39/32/2 38/33/2 40/34/2
f 3/1/2 38/2/2 39/3/2
f 43/23/11 40/30/11 41/22/11
f 41/7/12 36/8/12 42/9/12
f 20/18/10 41/19/10 42/20/10
f 41/23/13 44/30/13 43/22/13
f 5/20/11 39/37/11 43/19/11
f 43/18/13 45/19/13 5/20/13
f 44/21/5 46/22/5 45/23/5
f 47/1/1 45/2/1 46/3/1
f 36/20/14 25/37/14 42/19/14
f 22/7/3 12/8/3 14/9/3
f 4/1/1 1/38/1 2/2/1
f 2/4/2 1/10/2 3/5/2
f 7/7/3 3/39/3 1/8/3
f 6/10/1 4/5/1 5/6/1
f 9/7/3 7/39/3 4/8/3
f 11/7/3 8/39/3 7/8/3
f 8/11/3 34/40/3 3/12/3
f 13/7/3 11/39/3 9/8/3
f 10/11/3 9/40/3 6/12/3
f 12/7/3 32/39/3 8/8/3
f 14/7/3 12/39/3 11/8/3
f 14/14/4 13/41/4 15/15/4
f 44/18/5 17/37/5 15/19/5
f 17/21/6 20/30/6 18/22/6
f 21/24/4 22/33/4 14/25/4
f 23/18/7 21/37/7 18/19/7
f 24/27/8 22/31/8 21/28/8
f 42/23/9 25/21/9 23/30/9
f 27/27/4 24/31/4 23/28/4
f 23/21/10 25/30/10 28/22/10
f 30/27/2 29/31/2 28/28/2
f 27/7/3 29/39/3 30/8/3
f 37/29/8 31/27/8 30/31/8
f 30/7/3 31/39/3 33/8/3
f 24/7/3 30/39/3 32/8/3
f 32/7/3 33/39/3 34/8/3
f 34/10/2 33/5/2 35/6/2
f 33/1/2 31/38/2 37/2/2
f 38/14/2 35/41/2 36/35/2
f 3/1/2 34/38/2 38/2/2
f 43/23/11 39/21/11 40/30/11
f 41/7/12 40/39/12 36/8/12
f 20/18/10 17/37/10 41/19/10
f 41/23/13 17/21/13 44/30/13
f 5/20/11 2/18/11 39/37/11
f 43/18/13 44/37/13 45/19/13
f 44/21/5 16/30/5 46/22/5
f 47/1/1 6/38/1 45/2/1
f 36/20/14 37/18/14 25/37/14
f 22/7/3 24/39/3 12/8/3
