# Blender 5.1.2
# www.blender.org
mtllib room04.mtl
o 01-Caves.004
v 359.956909 -24.075390 -309.912659
v 359.956909 -24.075390 -299.912689
v 359.956909 -14.075391 -309.912659
v 369.956818 -11.575391 -309.912659
v 359.956909 -9.075391 -299.912689
v 359.956909 -24.075390 -309.912659
v 369.956818 -34.075390 -309.912659
v 359.956909 -24.075390 -299.912689
v 359.956909 -21.575388 -289.912689
v 369.956818 -34.075390 -299.912689
v 359.956909 -4.075388 -299.912689
v 369.956818 -1.575393 -299.912689
v 359.956909 -4.075387 -289.912689
v 369.956818 -1.575392 -289.912689
v 359.956909 -1.575391 -279.912659
v 359.956909 -1.575392 -289.912689
v 369.956818 -1.575391 -279.912659
v 359.956909 -1.575390 -269.912659
v 369.956818 -1.575390 -269.912659
v 359.956909 -6.575387 -259.912659
v 369.956818 -6.575387 -259.912659
v 359.956909 -21.575386 -259.912659
v 369.956818 -19.075386 -259.912659
v 359.956909 -24.075386 -249.912659
v 359.956909 -36.575386 -259.912659
v 359.956909 -36.575386 -249.912659
v 359.956909 -54.075382 -259.912659
v 359.956909 -54.075382 -249.912659
v 359.956909 -29.075386 -259.912659
v 369.956818 -51.575382 -259.912659
v 369.956818 -51.575382 -249.912659
v 369.956818 -39.075386 -259.912659
v 369.956818 -41.575382 -259.912659
v 379.956909 -49.075382 -259.912659
v 389.956909 -46.575382 -259.912659
v 379.956909 -51.575382 -269.912659
v 379.956909 -49.075382 -249.912659
v 379.956909 -36.575386 -269.912659
v 369.956818 -29.075388 -269.912659
v 379.956909 -36.575390 -279.912659
v 369.956818 -29.075388 -279.912659
v 379.956909 -54.075386 -279.912659
v 379.956909 -41.575386 -289.912689
v 379.956909 -44.075386 -299.912689
v 369.956818 -34.075390 -289.912689
v 379.956909 -56.575386 -289.912689
v 389.956909 -39.075390 -289.912689
v 389.956909 -54.075386 -289.912689
v 389.956909 -36.575390 -279.912659
v 399.956909 -36.575390 -289.912689
v 389.956909 -41.575386 -299.912689
v 389.956909 -41.575386 -309.912659
v 399.956909 -39.075390 -299.912689
v 409.956909 -34.075390 -299.912689
v 399.956909 -39.075390 -309.912659
v 399.956909 -39.075390 -319.912659
v 399.956909 -34.075390 -309.912659
v 409.956909 -34.075390 -309.912659
v 409.956909 -21.575390 -309.912659
v 399.956909 -21.575390 -309.912659
v 409.956909 -14.075390 -299.912689
v 399.956909 -14.075390 -299.912689
v 409.956909 -9.075390 -289.912689
v 409.956909 -6.575389 -279.912659
v 399.956909 -9.075390 -289.912689
v 389.956909 -9.075390 -289.912689
v 399.956909 -6.575389 -279.912659
v 399.956909 -6.575390 -299.912689
v 399.956909 -11.575391 -309.912659
v 389.956909 -6.575390 -299.912689
v 389.956909 -6.575390 -289.912689
v 389.956909 -11.575391 -309.912659
v 379.956909 -1.575393 -299.912689
v 379.956909 -1.575392 -289.912689
v 379.956909 -6.575391 -309.912659
v 369.956818 -6.575390 -299.912689
v 379.956909 -9.075392 -319.912659
v 369.956818 -14.075391 -319.912659
v 389.956909 -14.075391 -319.912659
v 379.956909 -21.575392 -319.912659
v 369.956818 -21.575392 -319.912659
v 379.956909 -31.575392 -319.912659
v 389.956909 -21.575392 -319.912659
v 389.956909 -31.575392 -319.912659
v 399.956909 -21.575392 -319.912659
v 399.956909 -14.075391 -319.912659
v 399.956909 -31.575392 -319.912659
v 399.956909 -21.575392 -319.912659
v 399.956909 -34.075390 -319.912659
v 389.956909 -41.575386 -319.912659
v 379.956909 -44.075386 -319.912659
v 379.956909 -44.075386 -309.912659
v 369.956818 -36.575390 -319.912659
v 369.956818 -36.575390 -309.912659
v 369.956818 -31.575392 -319.912659
v 369.956818 -36.575390 -299.912689
v 379.956909 -1.575391 -279.912659
v 389.956909 -6.575389 -279.912659
v 379.956909 -1.575390 -269.912659
v 379.956909 -6.575387 -259.912659
v 389.956909 -6.575388 -269.912659
v 399.956909 -6.575388 -269.912659
v 389.956909 -11.575387 -259.912659
v 389.956909 -16.575386 -259.912659
v 399.956909 -11.575387 -259.912659
v 399.956909 -16.575386 -259.912659
v 409.956909 -11.575387 -259.912659
v 399.956909 -24.075386 -259.912659
v 399.956909 -31.575388 -269.912659
v 409.956909 -19.075386 -259.912659
v 399.956909 -44.075382 -259.912659
v 399.956909 -49.075382 -259.912659
v 399.956909 -49.075382 -249.912659
v 399.956909 -36.575386 -259.912659
v 399.956909 -31.575386 -249.912659
v 399.956909 -19.075386 -249.912659
v 389.956909 -19.075386 -249.912659
v 399.956909 -26.575386 -249.912659
v 399.956909 -29.075384 -239.912659
v 389.956909 -26.575386 -249.912659
v 379.956909 -26.575386 -249.912659
v 389.956909 -29.075384 -239.912659
v 379.956909 -29.075384 -239.912659
v 369.956818 -29.075384 -239.912659
v 359.956909 -34.075386 -239.912659
v 369.956818 -26.575386 -249.912659
v 369.956818 -21.575386 -249.912659
v 359.956909 -31.575386 -249.912659
v 379.956909 -19.075386 -249.912659
v 379.956909 -16.575386 -259.912659
v 359.956909 -36.575386 -239.912659
v 359.956909 -49.075382 -239.912659
v 369.956818 -46.575382 -239.912659
v 379.956909 -44.075382 -239.912659
v 389.956909 -41.575382 -239.912659
v 399.956909 -44.075382 -239.912659
v 389.956909 -46.575382 -249.912659
v 409.956909 -26.575388 -269.912659
v 409.956909 -29.075388 -279.912659
v 409.956909 -31.575388 -289.912689
v 399.956909 -34.075390 -279.912659
v 389.956909 -34.075386 -269.912659
v 389.956909 -49.075382 -269.912659
v 389.956909 -51.575386 -279.912659
v 409.956909 -6.575388 -269.912659
v 369.956818 -31.575388 -289.912689
v 369.956818 -26.575388 -279.912659
v 359.956909 -16.575388 -279.912659
v 369.956818 -26.575388 -269.912659
v 359.956909 -16.575388 -269.912659
v 359.956909 -14.075387 -259.912659
vn 1.0000 -0.0000 -0.0000
vn 0.2182 -0.8729 0.4364
vn -0.0000 -0.0000 1.0000
vn 0.7071 0.7071 -0.0000
vn 0.6963 0.6963 -0.1741
vn 0.2425 -0.9701 -0.0000
vn -0.0000 -1.0000 -0.0000
vn -0.0000 -0.8944 -0.4472
vn -0.0000 -0.0000 -1.0000
vn 0.2357 -0.9428 -0.2357
vn -0.2425 0.9701 -0.0000
vn -0.2357 0.9428 -0.2357
vn 0.4243 0.5657 0.7071
vn 0.6000 0.8000 -0.0000
vn 0.5571 0.7428 -0.3714
vn 0.5883 0.7845 -0.1961
vn -1.0000 -0.0000 -0.0000
vn -0.4364 0.8729 -0.2182
vn -0.4472 0.8944 -0.0000
vn -0.0000 -0.8000 0.6000
vn -0.0000 -0.8944 0.4472
vn -0.0000 -0.9701 0.2425
vn -0.0000 -0.9701 -0.2425
vn -0.4472 -0.8944 -0.0000
vn -0.4082 -0.8165 0.4082
vn 0.4082 -0.8165 0.4082
vn 0.4364 -0.8729 0.2182
vn -0.4364 -0.8729 0.2182
vn -0.4082 -0.8165 -0.4082
vn -0.3714 0.7428 -0.5571
vn -0.1543 0.6172 0.7715
vn 0.2425 0.9701 -0.0000
vn 0.4364 -0.8729 -0.2182
vn -0.2182 0.8729 -0.4364
vn 0.2182 0.8729 -0.4364
vn 0.6667 0.6667 -0.3333
vn 0.5298 0.5298 0.6623
vn -0.4082 -0.8165 0.4083
vn 0.4082 -0.8165 0.4083
vt 0.252941 0.627451
vt 0.372549 0.747059
vt 0.252941 0.747059
vt 0.627451 0.752941
vt 0.747059 0.872549
vt 0.627451 0.872549
vt 0.378431 0.627451
vt 0.498039 0.747059
vt 0.378431 0.747059
vt 0.252941 0.621569
vt 0.372549 0.501961
vt 0.372549 0.621569
vt 0.252941 0.501961
vt 0.378431 0.878431
vt 0.498039 0.998039
vt 0.378431 0.998039
vt 0.498039 0.627451
vt 0.127451 0.501961
vt 0.247059 0.621569
vt 0.127451 0.621569
vt 0.752941 0.878431
vt 0.872549 0.998039
vt 0.752941 0.998039
vt 0.001961 0.747059
vt 0.001961 0.627451
vt 0.121569 0.747059
vt 0.001961 0.872549
vt 0.001961 0.752941
vt 0.121569 0.872549
vt 0.247059 0.501961
vt 0.121569 0.752941
vt 0.872549 0.878431
vt 0.001961 0.878431
vt 0.121569 0.998039
vt 0.001961 0.998039
vt 0.001961 0.621569
vt 0.001961 0.501961
vt 0.121569 0.621569
vt 0.127451 0.627451
vt 0.247059 0.747059
vt 0.127451 0.747059
vt 0.252941 0.596079
vt 0.127451 0.752941
vt 0.247059 0.872549
vt 0.127451 0.872549
vt 0.747059 0.752941
vt 0.121569 0.527451
vt 0.001961 0.527451
vt 0.247059 0.527451
vt 0.127451 0.527451
vt 0.627451 0.252941
vt 0.747059 0.372549
vt 0.627451 0.372549
vt 0.252941 0.658823
vt 0.372549 0.658823
vt 0.752941 0.941177
vt 0.372549 0.627451
vt 0.121569 0.501961
vt 0.498039 0.878431
vt 0.121569 0.878431
vt 0.121569 0.627451
vt 0.247059 0.627451
vt 0.247059 0.752941
vt 0.747059 0.252941
s 0
usemtl Material.001
f 3/1/1 2/2/1 1/3/1
f 5/4/2 4/5/2 76/6/2
f 4/7/3 6/8/3 7/9/3
f 6/1/4 10/2/4 7/3/4
f 11/7/1 9/8/1 8/9/1
f 8/7/5 146/8/5 10/9/5
f 76/10/3 11/11/3 5/12/3
f 14/13/6 11/12/6 12/10/6
f 14/10/3 16/13/3 13/12/3
f 13/10/1 16/13/1 15/12/1
f 14/14/7 15/15/7 16/16/7
f 17/14/7 18/15/7 15/16/7
f 21/13/8 18/12/8 19/10/8
f 20/7/9 23/8/9 22/9/9
f 127/1/10 22/2/10 23/3/10
f 25/9/1 24/17/1 26/8/1
f 28/1/1 25/2/1 26/3/1
f 27/18/11 31/19/11 30/20/11
f 32/7/3 27/8/3 30/9/3
f 34/21/11 31/22/11 37/23/11
f 30/24/3 34/25/3 33/26/3
f 35/21/11 37/22/11 137/23/11
f 143/13/12 34/12/12 35/10/12
f 36/27/1 38/28/1 34/29/1
f 33/20/13 38/30/13 39/19/13
f 40/21/14 39/22/14 38/23/14
f 40/27/1 36/31/1 42/29/1
f 40/23/15 45/32/15 41/22/15
f 43/27/1 42/31/1 46/29/1
f 51/21/12 43/22/12 47/23/12
f 96/21/16 43/22/16 44/23/16
f 43/28/3 48/29/3 47/27/3
f 47/28/17 144/29/17 49/27/17
f 50/21/12 49/22/12 141/23/12
f 53/21/12 47/22/12 50/23/12
f 52/21/11 44/22/11 51/23/11
f 55/33/11 51/34/11 53/35/11
f 54/21/18 50/22/18 140/23/18
f 58/21/19 53/22/19 54/23/19
f 56/21/11 52/22/11 55/23/11
f 57/18/17 56/19/17 55/20/17
f 58/36/3 57/37/3 55/38/3
f 59/7/3 57/8/3 58/9/3
f 60/25/20 61/26/20 62/24/20
f 61/39/21 65/40/21 62/41/21
f 63/25/22 67/26/22 65/24/22
f 98/1/22 65/2/22 67/3/22
f 66/7/23 68/8/23 65/9/23
f 65/3/17 68/1/17 62/2/17
f 69/4/21 70/5/21 72/6/21
f 62/9/17 69/17/17 60/8/17
f 66/10/17 71/42/17 70/12/17
f 71/43/24 73/44/24 70/45/24
f 75/10/25 70/11/25 73/12/25
f 73/10/3 12/13/3 76/12/3
f 73/43/7 14/44/7 12/45/7
f 75/10/26 76/11/26 4/12/26
f 4/4/27 77/5/27 75/6/27
f 72/13/28 77/12/28 79/10/28
f 80/9/3 78/17/3 81/8/3
f 79/1/3 80/2/3 83/3/3
f 80/18/3 95/19/3 82/20/3
f 83/37/3 82/38/3 84/36/3
f 79/4/3 85/5/3 86/6/3
f 85/21/3 84/22/3 87/23/3
f 56/37/3 84/38/3 90/36/3
f 69/13/22 79/12/22 86/10/22
f 86/6/17 60/46/17 69/5/17
f 89/18/17 60/19/17 88/20/17
f 90/21/3 82/22/3 91/23/3
f 90/21/11 92/22/11 52/23/11
f 91/21/14 94/22/14 92/23/14
f 82/21/3 93/22/3 91/23/3
f 78/21/1 94/22/1 93/23/1
f 92/21/14 96/22/14 44/23/14
f 7/37/1 96/47/1 94/48/1
f 10/18/1 45/49/1 96/50/1
f 98/14/24 74/15/24 71/16/24
f 74/51/7 17/52/7 14/53/7
f 101/51/24 97/52/24 98/53/24
f 17/51/7 99/52/7 19/53/7
f 100/14/8 19/15/8 99/16/8
f 101/4/29 100/5/29 99/6/29
f 101/1/7 67/2/7 102/3/7
f 102/7/8 103/8/8 101/9/8
f 103/54/9 106/2/9 104/3/9
f 130/9/9 103/17/9 104/8/9
f 110/3/9 105/55/9 107/2/9
f 105/25/8 145/26/8 107/24/8
f 111/23/17 108/56/17 109/22/17
f 138/7/30 108/8/30 110/9/30
f 111/23/31 142/32/31 35/22/31
f 112/23/3 111/56/3 35/22/3
f 112/21/32 137/22/32 113/23/32
f 113/9/17 114/17/17 112/8/17
f 106/1/17 115/2/17 116/3/17
f 116/7/23 104/8/23 106/9/23
f 116/28/9 120/29/9 117/27/9
f 136/3/17 118/57/17 113/2/17
f 119/13/23 120/12/23 118/10/23
f 117/28/9 121/29/9 129/27/9
f 122/14/23 121/15/23 120/16/23
f 126/14/23 123/15/23 124/16/23
f 128/13/33 124/12/33 125/10/33
f 127/27/9 121/31/9 126/29/9
f 24/27/9 126/31/9 128/29/9
f 26/23/1 125/32/1 131/22/1
f 129/7/10 23/8/10 130/9/10
f 117/1/23 130/2/23 104/3/23
f 21/1/9 130/2/9 23/3/9
f 26/21/1 132/22/1 28/23/1
f 31/21/34 132/22/34 133/23/34
f 37/21/34 133/22/34 134/23/34
f 137/21/34 134/22/34 135/23/34
f 136/23/35 137/32/35 135/22/35
f 139/21/18 109/22/18 138/23/18
f 140/21/18 141/22/18 139/23/18
f 141/21/12 142/22/12 109/23/12
f 35/27/17 142/28/17 143/29/17
f 49/28/17 143/29/17 142/27/17
f 144/13/12 36/12/12 143/10/12
f 48/13/12 42/12/12 144/10/12
f 64/39/7 102/40/7 67/41/7
f 98/10/17 71/42/17 66/12/17
f 146/37/1 41/47/1 45/48/1
f 9/1/36 147/2/36 146/3/36
f 148/7/4 149/8/4 147/9/4
f 147/18/1 39/49/1 41/50/1
f 39/48/1 32/58/1 33/47/1
f 149/3/37 29/57/37 32/2/37
f 151/9/1 29/7/1 150/8/1
f 3/1/1 5/57/1 2/2/1
f 5/4/2 3/46/2 4/5/2
f 4/7/3 3/17/3 6/8/3
f 6/1/4 8/57/4 10/2/4
f 11/7/1 13/17/1 9/8/1
f 8/7/5 9/17/5 146/8/5
f 76/10/3 12/13/3 11/11/3
f 14/13/6 13/11/6 11/12/6
f 14/14/7 17/59/7 15/15/7
f 17/14/7 19/59/7 18/15/7
f 21/13/8 20/11/8 18/12/8
f 20/7/9 21/17/9 23/8/9
f 127/1/10 24/57/10 22/2/10
f 25/9/1 22/7/1 24/17/1
f 28/1/1 27/57/1 25/2/1
f 27/18/11 28/30/11 31/19/11
f 32/7/3 29/17/3 27/8/3
f 34/21/11 30/32/11 31/22/11
f 35/21/11 34/32/11 37/22/11
f 143/13/12 36/11/12 34/12/12
f 33/20/13 34/18/13 38/30/13
f 40/21/14 41/32/14 39/22/14
f 40/27/1 38/28/1 36/31/1
f 40/23/15 43/21/15 45/32/15
f 43/27/1 40/28/1 42/31/1
f 51/21/12 44/32/12 43/22/12
f 96/21/16 45/32/16 43/22/16
f 43/28/3 46/31/3 48/29/3
f 47/28/17 48/31/17 144/29/17
f 50/21/12 47/32/12 49/22/12
f 53/21/12 51/32/12 47/22/12
f 52/21/11 92/32/11 44/22/11
f 55/33/11 52/60/11 51/34/11
f 54/21/18 53/32/18 50/22/18
f 58/21/19 55/32/19 53/22/19
f 56/21/11 90/32/11 52/22/11
f 57/18/17 89/30/17 56/19/17
f 59/7/3 60/17/3 57/8/3
f 60/25/20 59/61/20 61/26/20
f 61/39/21 63/62/21 65/40/21
f 63/25/22 64/61/22 67/26/22
f 98/1/22 66/57/22 65/2/22
f 66/7/23 70/17/23 68/8/23
f 69/4/21 68/46/21 70/5/21
f 62/9/17 68/7/17 69/17/17
f 71/43/24 74/63/24 73/44/24
f 75/10/38 72/13/38 70/11/38
f 73/43/7 74/63/7 14/44/7
f 75/10/39 73/13/39 76/11/39
f 4/4/27 78/46/27 77/5/27
f 72/13/28 75/11/28 77/12/28
f 80/9/3 77/7/3 78/17/3
f 79/1/3 77/57/3 80/2/3
f 80/18/3 81/30/3 95/19/3
f 83/37/3 80/58/3 82/38/3
f 79/4/3 83/46/3 85/5/3
f 85/21/3 83/32/3 84/22/3
f 56/37/3 87/58/3 84/38/3
f 69/13/22 72/11/22 79/12/22
f 86/6/17 88/4/17 60/46/17
f 89/18/17 57/30/17 60/19/17
f 90/21/3 84/32/3 82/22/3
f 90/21/11 91/32/11 92/22/11
f 91/21/14 93/32/14 94/22/14
f 82/21/3 95/32/3 93/22/3
f 78/21/1 4/32/1 94/22/1
f 92/21/14 94/32/14 96/22/14
f 7/37/1 10/58/1 96/47/1
f 10/18/1 146/30/1 45/49/1
f 98/14/24 97/59/24 74/15/24
f 74/51/7 97/64/7 17/52/7
f 101/51/24 99/64/24 97/52/24
f 17/51/7 97/64/7 99/52/7
f 100/14/8 21/59/8 19/15/8
f 101/4/29 103/46/29 100/5/29
f 101/1/7 98/57/7 67/2/7
f 102/7/8 105/17/8 103/8/8
f 103/54/9 105/55/9 106/2/9
f 130/9/9 100/7/9 103/17/9
f 110/3/9 108/54/9 105/55/9
f 105/25/8 102/61/8 145/26/8
f 138/7/30 109/17/30 108/8/30
f 111/23/31 109/21/31 142/32/31
f 112/21/32 35/32/32 137/22/32
f 113/9/17 115/7/17 114/17/17
f 106/1/17 114/57/17 115/2/17
f 116/7/23 117/17/23 104/8/23
f 116/28/9 118/31/9 120/29/9
f 136/3/17 119/1/17 118/57/17
f 119/13/23 122/11/23 120/12/23
f 117/28/9 120/31/9 121/29/9
f 122/14/23 123/59/23 121/15/23
f 126/14/23 121/59/23 123/15/23
f 128/13/33 126/11/33 124/12/33
f 127/27/9 129/28/9 121/31/9
f 24/27/9 127/28/9 126/31/9
f 26/23/1 128/21/1 125/32/1
f 129/7/10 127/17/10 23/8/10
f 117/1/23 129/57/23 130/2/23
f 21/1/9 100/57/9 130/2/9
f 26/21/1 131/32/1 132/22/1
f 31/21/34 28/32/34 132/22/34
f 37/21/34 31/32/34 133/22/34
f 137/21/34 37/32/34 134/22/34
f 136/23/35 113/21/35 137/32/35
f 139/21/18 141/32/18 109/22/18
f 140/21/18 50/32/18 141/22/18
f 141/21/12 49/32/12 142/22/12
f 49/28/17 144/31/17 143/29/17
f 144/13/12 42/11/12 36/12/12
f 48/13/12 46/11/12 42/12/12
f 64/39/7 145/62/7 102/40/7
f 146/37/1 147/58/1 41/47/1
f 9/1/36 148/57/36 147/2/36
f 148/7/4 150/17/4 149/8/4
f 147/18/1 149/30/1 39/49/1
f 39/48/1 149/37/1 32/58/1
f 149/3/37 150/1/37 29/57/37
