# Blender 5.1.2
# www.blender.org
mtllib room31.mtl
o 01-Caves.031
v 239.956909 -71.575371 -99.912643
v 239.956909 -71.575371 -89.912643
v 239.956909 -59.075378 -99.912643
v 239.956909 -71.575371 -99.912643
v 249.956879 -59.075378 -99.912643
v 239.956909 -61.575371 -89.912643
v 239.956909 -61.575371 -79.912682
v 249.956879 -61.575371 -89.912643
v 249.956879 -61.575371 -79.912682
v 259.956879 -59.075378 -89.912643
v 259.956879 -56.575371 -99.912643
v 259.956879 -59.075378 -79.912682
v 269.956879 -56.575371 -89.912643
v 259.956879 -56.575371 -89.912643
v 279.956879 -56.575371 -89.912643
v 269.956879 -56.575371 -99.912643
v 269.956879 -56.575371 -79.912682
v 269.956879 -74.075371 -79.912682
v 279.956879 -56.575371 -79.912682
v 279.956879 -74.075371 -79.912682
v 289.956879 -56.575371 -79.912682
v 289.956879 -74.075371 -79.912682
v 299.956879 -61.575371 -79.912682
v 289.956879 -56.575371 -89.912643
v 299.956879 -61.575371 -89.912643
v 289.956879 -56.575371 -99.912643
v 289.956879 -56.575371 -109.912605
v 279.956879 -56.575371 -99.912643
v 299.956879 -61.575371 -99.912643
v 299.956879 -71.575371 -99.912643
v 299.956879 -71.575371 -99.912643
v 299.956879 -61.575371 -109.912605
v 299.956879 -69.075371 -109.912605
v 289.956879 -71.575371 -109.912605
v 289.956879 -69.075371 -109.912605
v 279.956879 -69.075371 -109.912605
v 279.956879 -71.575371 -109.912605
v 269.956879 -69.075371 -109.912605
v 269.956879 -71.575371 -109.912605
v 269.956879 -74.075371 -99.912643
v 269.956879 -56.575371 -109.912605
v 279.956879 -56.575371 -109.912605
v 259.956879 -74.075371 -99.912643
v 269.956879 -74.075371 -89.912643
v 279.956879 -74.075371 -99.912643
v 279.956879 -74.075371 -89.912643
v 289.956879 -74.075371 -99.912643
v 289.956879 -74.075371 -89.912643
v 299.956879 -71.575371 -89.912643
v 299.956879 -71.575371 -79.912682
v 259.956879 -74.075371 -89.912643
v 249.956879 -74.075371 -89.912643
v 259.956879 -74.075371 -79.912682
v 249.956879 -74.075371 -79.912682
v 239.956909 -71.575371 -79.912682
v 239.956909 -71.575371 -89.912643
v 249.956879 -74.075371 -99.912643
v 299.956879 -71.575371 -89.912643
v 299.956879 -71.575371 -79.912682
v 239.956909 -71.575371 -79.912682
vn 1.0000 -0.0000 -0.0000
vn -0.0000 -0.0000 1.0000
vn -0.0000 -0.9701 -0.2425
vn -0.0000 -1.0000 -0.0000
vn 0.2425 -0.9701 -0.0000
vn 0.2357 -0.9428 -0.2357
vn -0.0000 -0.0000 -1.0000
vn -0.4472 -0.8944 -0.0000
vn -1.0000 -0.0000 -0.0000
vn -0.2357 0.9428 0.2357
vn -0.0000 0.9701 0.2425
vn -0.0000 1.0000 -0.0000
vn -0.2425 0.9701 -0.0000
vn 0.2425 0.9701 -0.0000
vt 0.127451 0.747059
vt 0.247059 0.627451
vt 0.247059 0.747059
vt 0.878431 0.378431
vt 0.998039 0.498039
vt 0.878431 0.498039
vt 0.501961 0.252941
vt 0.621569 0.372549
vt 0.501961 0.372549
vt 0.001961 0.627451
vt 0.121569 0.747059
vt 0.001961 0.747059
vt 0.752941 0.378431
vt 0.872549 0.498039
vt 0.752941 0.498039
vt 0.501961 0.498039
vt 0.501961 0.472549
vt 0.621569 0.498039
vt 0.627451 0.378431
vt 0.747059 0.498039
vt 0.627451 0.498039
vt 0.252941 0.501961
vt 0.372549 0.621569
vt 0.252941 0.621569
vt 0.252941 0.627451
vt 0.372549 0.747059
vt 0.252941 0.747059
vt 0.378431 0.627451
vt 0.498039 0.747059
vt 0.378431 0.747059
vt 0.498039 0.627451
vt 0.752941 0.998039
vt 0.872549 0.878431
vt 0.872549 0.998039
vt 0.127451 0.721568
vt 0.752941 0.878431
vt 0.372549 0.627451
vt 0.127451 0.501961
vt 0.247059 0.621569
vt 0.127451 0.621569
vt 0.001961 0.501961
vt 0.121569 0.621569
vt 0.001961 0.621569
vt 0.127451 0.627451
vt 0.998039 0.378431
vt 0.621569 0.252941
vt 0.121569 0.627451
vt 0.872549 0.378431
vt 0.747059 0.378431
vt 0.372549 0.501961
vt 0.247059 0.721568
vt 0.247059 0.501961
vt 0.121569 0.501961
s 0
usemtl Material.001
f 1/1/1 6/2/1 2/3/1
f 5/1/2 4/2/2 57/3/2
f 3/4/3 8/5/3 6/6/3
f 6/7/4 9/8/4 7/9/4
f 6/10/1 60/11/1 2/12/1
f 12/13/5 8/14/5 10/15/5
f 5/13/6 10/14/6 8/15/6
f 11/16/1 14/17/1 10/18/1
f 17/19/5 10/20/5 13/21/5
f 10/16/7 14/17/7 13/18/7
f 13/7/4 11/8/4 16/9/4
f 19/7/4 13/8/4 15/9/4
f 15/22/4 16/23/4 28/24/4
f 12/25/7 18/26/7 53/27/7
f 17/28/7 20/29/7 18/30/7
f 21/22/4 15/23/4 24/24/4
f 19/25/7 22/26/7 20/27/7
f 22/30/7 23/31/7 50/29/7
f 23/22/8 24/23/8 25/24/8
f 24/22/4 28/23/4 26/24/4
f 25/22/8 26/23/8 29/24/8
f 29/22/8 27/23/8 32/24/8
f 26/22/4 42/23/4 27/24/4
f 25/28/9 31/29/9 58/30/9
f 29/25/9 33/26/9 30/27/9
f 30/32/10 34/33/10 47/34/10
f 33/1/2 35/35/2 34/3/2
f 35/35/2 37/3/2 34/1/2
f 36/35/2 39/3/2 37/1/2
f 37/36/11 40/34/11 45/32/11
f 39/27/1 16/37/1 40/26/1
f 28/22/4 41/23/4 42/24/4
f 40/36/12 51/34/12 44/32/12
f 16/28/2 43/29/2 40/30/2
f 45/36/12 44/34/12 46/32/12
f 47/36/12 46/34/12 48/32/12
f 34/36/11 45/34/11 47/32/11
f 30/36/13 48/34/13 49/32/13
f 48/36/12 20/34/12 22/32/12
f 49/36/13 22/34/13 50/32/13
f 46/36/12 18/34/12 20/32/12
f 44/36/12 53/34/12 18/32/12
f 43/36/12 52/34/12 51/32/12
f 51/36/12 54/34/12 53/32/12
f 9/28/7 53/29/7 54/30/7
f 55/27/7 9/37/7 54/26/7
f 56/38/14 54/39/14 52/40/14
f 4/41/14 52/42/14 57/43/14
f 43/27/2 5/37/2 57/26/2
f 23/25/9 58/26/9 59/27/9
f 1/1/1 3/44/1 6/2/1
f 5/1/2 3/44/2 4/2/2
f 3/4/3 5/45/3 8/5/3
f 6/7/4 8/46/4 9/8/4
f 6/10/1 7/47/1 60/11/1
f 12/13/5 9/48/5 8/14/5
f 5/13/6 11/48/6 10/14/6
f 17/19/5 12/49/5 10/20/5
f 13/7/4 14/46/4 11/8/4
f 19/7/4 17/46/4 13/8/4
f 15/22/4 13/50/4 16/23/4
f 12/25/7 17/37/7 18/26/7
f 17/28/7 19/31/7 20/29/7
f 21/22/4 19/50/4 15/23/4
f 19/25/7 21/37/7 22/26/7
f 22/30/7 21/28/7 23/31/7
f 23/22/8 21/50/8 24/23/8
f 24/22/4 15/50/4 28/23/4
f 25/22/8 24/50/8 26/23/8
f 29/22/8 26/50/8 27/23/8
f 26/22/4 28/50/4 42/23/4
f 25/28/9 29/31/9 31/29/9
f 29/25/9 32/37/9 33/26/9
f 30/32/10 33/36/10 34/33/10
f 35/35/2 36/51/2 37/3/2
f 36/35/2 38/51/2 39/3/2
f 37/36/11 39/33/11 40/34/11
f 39/27/1 41/25/1 16/37/1
f 28/22/4 16/50/4 41/23/4
f 40/36/12 43/33/12 51/34/12
f 16/28/2 11/31/2 43/29/2
f 45/36/12 40/33/12 44/34/12
f 47/36/12 45/33/12 46/34/12
f 34/36/11 37/33/11 45/34/11
f 30/36/13 47/33/13 48/34/13
f 48/36/12 46/33/12 20/34/12
f 49/36/13 48/33/13 22/34/13
f 46/36/12 44/33/12 18/34/12
f 44/36/12 51/33/12 53/34/12
f 43/36/12 57/33/12 52/34/12
f 51/36/12 52/33/12 54/34/12
f 9/28/7 12/31/7 53/29/7
f 55/27/7 7/25/7 9/37/7
f 56/38/14 55/52/14 54/39/14
f 4/41/14 56/53/14 52/42/14
f 43/27/2 11/25/2 5/37/2
f 23/25/9 25/37/9 58/26/9
