# Blender 5.1.2
# www.blender.org
mtllib room05.mtl
o 01-Caves.005
v 409.956909 -21.575390 -309.912659
v 419.956909 -19.075390 -309.912659
v 409.956909 -29.075392 -319.912659
v 409.956909 -34.075390 -309.912659
v 409.956909 -14.075390 -299.912689
v 419.956909 -11.575390 -299.912689
v 409.956909 -9.075390 -289.912689
v 419.956909 -6.575390 -289.912689
v 409.956909 -6.575389 -279.912659
v 419.956909 -4.075387 -279.912659
v 409.956909 -4.075386 -269.912659
v 409.956909 -6.575388 -269.912659
v 409.956909 -11.575387 -259.912659
v 409.956909 -1.575390 -269.912659
v 409.956909 -1.575390 -259.912659
v 419.956909 -1.575390 -269.912659
v 419.956909 -1.575390 -259.912659
v 429.956909 -1.575390 -269.912659
v 419.956909 -1.575391 -279.912659
v 429.956909 -1.575391 -279.912659
v 429.956909 -4.075387 -289.912689
v 439.956909 -1.575391 -279.912659
v 429.956909 -1.575392 -289.912689
v 439.956909 -1.575392 -289.912689
v 449.956909 -1.575392 -289.912689
v 439.956909 -1.575393 -299.912689
v 439.956909 -6.575390 -299.912689
v 449.956909 -4.075388 -299.912689
v 429.956909 -9.075391 -299.912689
v 439.956909 -14.075391 -309.912659
v 429.956909 -16.575390 -309.912659
v 439.956909 -16.575392 -319.912659
v 439.956909 -21.575392 -319.912659
v 449.956909 -11.575391 -309.912659
v 449.956909 -14.075391 -319.912659
v 459.956909 -9.075392 -309.912659
v 449.956909 -11.575391 -319.912659
v 459.956909 -9.075392 -319.912659
v 449.956909 -16.575392 -319.912659
v 459.956909 -16.575392 -319.912659
v 449.956909 -31.575392 -319.912659
v 439.956909 -31.575392 -319.912659
v 459.956909 -31.575392 -319.912659
v 449.956909 -44.075386 -319.912659
v 439.956909 -44.075386 -319.912659
v 449.956909 -44.075386 -309.912659
v 459.956909 -44.075386 -319.912659
v 459.956909 -44.075386 -309.912659
v 469.956909 -44.075386 -319.912659
v 469.956909 -31.575392 -319.912659
v 469.956909 -44.075386 -309.912659
v 479.956909 -44.075386 -319.912659
v 479.956909 -31.575392 -319.912659
v 489.956909 -44.075386 -319.912659
v 479.956909 -44.075386 -309.912659
v 479.956909 -44.075386 -299.912689
v 489.956909 -44.075386 -309.912659
v 489.956909 -44.075386 -299.912689
v 489.956909 -31.575390 -309.912659
v 489.956909 -19.075390 -309.912659
v 489.956909 -31.575392 -319.912659
v 489.956909 -31.575390 -299.912689
v 489.956909 -19.075390 -299.912689
v 489.956909 -31.575388 -289.912689
v 489.956909 -19.075388 -289.912689
v 489.956909 -31.575388 -279.912659
v 489.956909 -41.575386 -289.912689
v 479.956909 -41.575386 -289.912689
v 489.956909 -44.075386 -279.912659
v 489.956909 -36.575386 -269.912659
v 479.956909 -44.075386 -279.912659
v 479.956909 -46.575382 -269.912659
v 479.956909 -36.575386 -269.912659
v 469.956909 -44.075386 -279.912659
v 469.956909 -41.575386 -289.912689
v 459.956909 -44.075386 -279.912659
v 469.956909 -46.575382 -269.912659
v 459.956909 -46.575382 -269.912659
v 469.956909 -46.575382 -259.912659
v 479.956909 -36.575386 -259.912659
v 469.956909 -36.575386 -259.912659
v 459.956909 -46.575382 -259.912659
v 449.956909 -51.575382 -259.912659
v 459.956909 -36.575386 -259.912659
v 459.956909 -36.575386 -249.912659
v 449.956909 -51.575382 -249.912659
v 459.956909 -36.575386 -239.912659
v 469.956909 -36.575386 -249.912659
v 469.956909 -36.575386 -239.912659
v 479.956909 -36.575386 -249.912659
v 479.956909 -36.575386 -239.912659
v 489.956909 -36.575386 -249.912659
v 489.956909 -36.575386 -259.912659
v 489.956909 -36.575386 -239.912659
v 489.956909 -31.575386 -249.912659
v 489.956909 -31.575386 -259.912659
v 489.956909 -19.075386 -249.912659
v 489.956909 -31.575384 -239.912659
v 489.956909 -19.075384 -239.912659
v 489.956909 -1.575388 -239.912659
v 489.956909 -21.575384 -239.912659
v 479.956909 -1.575388 -239.912659
v 489.956909 -1.575389 -249.912659
v 479.956909 -1.575389 -249.912659
v 489.956909 -6.575387 -249.912659
v 479.956909 -6.575387 -249.912659
v 489.956909 -14.075387 -259.912659
v 489.956909 -1.575390 -259.912659
v 479.956909 -14.075387 -259.912659
v 489.956909 -19.075386 -259.912659
v 489.956909 -19.075388 -269.912659
v 489.956909 -19.075388 -279.912659
v 489.956909 -1.575390 -269.912659
v 489.956909 -31.575388 -269.912659
v 489.956909 -1.575391 -279.912659
v 479.956909 -1.575390 -269.912659
v 469.956909 -1.575390 -269.912659
v 479.956909 -1.575391 -279.912659
v 479.956909 -1.575390 -259.912659
v 469.956909 -1.575390 -259.912659
v 459.956909 -1.575390 -259.912659
v 469.956909 -1.575389 -249.912659
v 459.956909 -1.575389 -249.912659
v 469.956909 -1.575388 -239.912659
v 459.956909 -1.575388 -239.912659
v 469.956909 -19.075384 -239.912659
v 459.956909 -19.075384 -239.912659
v 469.956909 -31.575384 -239.912659
v 479.956909 -19.075384 -239.912659
v 479.956909 -31.575384 -239.912659
v 459.956909 -31.575384 -239.912659
v 449.956909 -31.575384 -239.912659
v 439.956909 -31.575384 -239.912659
v 449.956909 -51.575382 -239.912659
v 449.956909 -19.075384 -239.912659
v 439.956909 -19.075384 -239.912659
v 449.956909 -1.575388 -239.912659
v 439.956909 -1.575388 -239.912659
v 449.956909 -1.575389 -249.912659
v 439.956909 -1.575389 -249.912659
v 449.956909 -1.575390 -259.912659
v 449.956909 -1.575390 -269.912659
v 439.956909 -1.575390 -259.912659
v 429.956909 -1.575390 -259.912659
v 439.956909 -1.575390 -269.912659
v 429.956909 -1.575389 -249.912659
v 419.956909 -1.575389 -249.912659
v 429.956909 -1.575388 -239.912659
v 419.956909 -1.575388 -239.912659
v 429.956909 -19.075384 -239.912659
v 419.956909 -19.075384 -239.912659
v 429.956909 -31.575384 -239.912659
v 419.956909 -31.575384 -239.912659
v 429.956909 -44.075382 -239.912659
v 429.956909 -49.075382 -239.912659
v 439.956909 -51.575382 -239.912659
v 429.956909 -49.075382 -249.912659
v 439.956909 -51.575382 -249.912659
v 429.956909 -39.075386 -249.912659
v 429.956909 -49.075382 -259.912659
v 429.956909 -49.075382 -269.912659
v 439.956909 -51.575382 -259.912659
v 429.956909 -39.075386 -259.912659
v 429.956909 -39.075386 -269.912659
v 419.956909 -34.075386 -259.912659
v 419.956909 -34.075386 -249.912659
v 419.956909 -34.075386 -269.912659
v 419.956909 -26.575386 -259.912659
v 409.956909 -19.075386 -259.912659
v 419.956909 -21.575386 -249.912659
v 419.956909 -21.575384 -239.912659
v 409.956909 -14.075386 -249.912659
v 409.956909 -1.575389 -249.912659
v 409.956909 -14.075385 -239.912659
v 409.956909 -11.575386 -249.912659
v 409.956909 -1.575388 -239.912659
v 419.956909 -39.075386 -239.912659
v 409.956909 -26.575388 -269.912659
v 409.956909 -29.075388 -279.912659
v 409.956909 -31.575388 -289.912689
v 419.956909 -36.575390 -279.912659
v 429.956909 -41.575386 -279.912659
v 419.956909 -39.075390 -289.912689
v 419.956909 -41.575386 -299.912689
v 429.956909 -39.075390 -289.912689
v 429.956909 -44.075386 -289.912689
v 439.956909 -46.575386 -289.912689
v 429.956909 -46.575386 -279.912659
v 439.956909 -49.075386 -279.912659
v 449.956909 -44.075386 -279.912659
v 439.956909 -51.575382 -269.912659
v 449.956909 -49.075386 -279.912659
v 449.956909 -51.575382 -269.912659
v 449.956909 -41.575386 -289.912689
v 439.956909 -41.575386 -289.912689
v 449.956909 -44.075386 -299.912689
v 459.956909 -41.575386 -289.912689
v 459.956909 -44.075386 -299.912689
v 469.956909 -44.075386 -299.912689
v 439.956909 -44.075386 -299.912689
v 429.956909 -41.575386 -299.912689
v 439.956909 -44.075386 -309.912659
v 429.956909 -41.575386 -309.912659
v 429.956909 -41.575386 -319.912659
v 419.956909 -41.575386 -309.912659
v 419.956909 -41.575386 -319.912659
v 409.956909 -34.075390 -319.912659
v 419.956909 -34.075390 -319.912659
v 429.956909 -34.075390 -319.912659
v 419.956909 -26.575392 -319.912659
v 429.956909 -24.075392 -319.912659
v 439.956909 -34.075390 -319.912659
v 409.956909 -34.075390 -299.912689
v 459.956909 -1.575390 -269.912659
v 449.956909 -1.575391 -279.912659
v 459.956909 -1.575391 -279.912659
v 459.956909 -1.575392 -289.912689
v 469.956909 -1.575391 -279.912659
v 469.956909 -1.575392 -289.912689
v 479.956909 -1.575392 -289.912689
v 469.956909 -1.575393 -299.912689
v 469.956909 -1.575393 -309.912659
v 459.956909 -1.575393 -299.912689
v 479.956909 -1.575393 -299.912689
v 489.956909 -1.575393 -299.912689
v 479.956909 -1.575393 -309.912659
v 479.956909 -1.575394 -319.912659
v 489.956909 -1.575393 -309.912659
v 489.956909 -1.575394 -319.912659
v 489.956909 -19.075392 -319.912659
v 489.956909 -16.575392 -319.912659
v 489.956909 -31.575392 -319.912659
v 479.956909 -16.575392 -319.912659
v 469.956909 -16.575392 -319.912659
v 469.956909 -1.575394 -319.912659
v 489.956909 -1.575392 -289.912689
v 449.956909 -1.575393 -299.912689
v 459.956909 -1.575393 -309.912659
v 479.956909 -21.575384 -239.912659
vn 0.1961 -0.7845 0.5883
vn 1.0000 -0.0000 -0.0000
vn 0.2182 -0.8729 0.4364
vn 0.2357 -0.9428 0.2357
vn -0.0000 -1.0000 -0.0000
vn -0.0000 -0.0000 1.0000
vn 0.2425 -0.9701 -0.0000
vn -0.0000 1.0000 -0.0000
vn -1.0000 -0.0000 -0.0000
vn -0.0000 0.9701 0.2425
vn -0.0000 0.9701 -0.2425
vn -0.0000 0.8000 -0.6000
vn -0.7071 0.7071 -0.0000
vn -0.0000 -0.0000 -1.0000
vn -0.4472 0.8944 -0.0000
vn -0.8321 0.5547 -0.0000
vn -0.0000 -0.8000 0.6000
vn 0.2425 0.9701 -0.0000
vn 0.4472 0.8944 -0.0000
vn 0.5571 0.7428 -0.3714
vn 0.5145 0.6860 -0.5145
vn 0.6000 0.8000 -0.0000
vn 0.4082 0.8165 0.4082
vn 0.5883 0.7845 -0.1961
vn 0.4364 0.8729 -0.2182
vn 0.2357 0.9428 0.2357
vn -0.4364 0.8729 0.2182
vn 0.2357 0.9428 -0.2357
vn 0.6000 -0.8000 -0.0000
vn 0.1961 -0.7845 0.5884
vt 0.627451 0.872549
vt 0.747059 0.752941
vt 0.747059 0.872549
vt 0.252941 0.621569
vt 0.372549 0.501961
vt 0.372549 0.621569
vt 0.252941 0.747059
vt 0.372549 0.627451
vt 0.372549 0.747059
vt 0.378431 0.747059
vt 0.498039 0.627451
vt 0.498039 0.747059
vt 0.127451 0.747059
vt 0.127451 0.690196
vt 0.247059 0.747059
vt 0.001961 0.501961
vt 0.121569 0.621569
vt 0.001961 0.621569
vt 0.252941 0.501961
vt 0.001961 0.872549
vt 0.001961 0.752941
vt 0.121569 0.872549
vt 0.247059 0.627451
vt 0.627451 0.752941
vt 0.127451 0.527451
vt 0.127451 0.501961
vt 0.247059 0.527451
vt 0.001961 0.747059
vt 0.121569 0.627451
vt 0.121569 0.747059
vt 0.252941 0.527451
vt 0.372549 0.527451
vt 0.247059 0.621569
vt 0.127451 0.621569
vt 0.752941 0.878431
vt 0.872549 0.998039
vt 0.752941 0.998039
vt 0.001961 0.878431
vt 0.121569 0.998039
vt 0.001961 0.998039
vt 0.872549 0.878431
vt 0.121569 0.878431
vt 0.252941 0.627451
vt 0.378431 0.627451
vt 0.121569 0.501961
vt 0.121569 0.752941
vt 0.127451 0.627451
vt 0.001961 0.627451
vt 0.247059 0.501961
s 0
usemtl Material.001
f 2/1/1 5/2/1 1/3/1
f 210/4/1 1/5/1 3/6/1
f 3/1/2 4/2/2 207/3/2
f 6/7/3 7/8/3 5/9/3
f 8/10/4 9/11/4 7/12/4
f 10/7/4 11/8/4 9/9/4
f 9/13/2 11/14/2 12/15/2
f 12/16/2 15/17/2 13/18/2
f 17/19/5 14/6/5 16/4/5
f 11/20/6 16/21/6 14/22/6
f 144/19/5 16/6/5 18/4/5
f 18/19/5 19/6/5 20/4/5
f 16/20/2 10/21/2 19/22/2
f 20/20/6 19/21/6 10/22/6
f 20/20/2 21/21/2 23/22/2
f 21/7/4 10/8/4 8/9/4
f 145/19/5 20/6/5 22/4/5
f 22/19/5 23/6/5 24/4/5
f 24/20/6 23/21/6 21/22/6
f 215/19/5 24/6/5 25/4/5
f 25/19/5 26/6/5 237/4/5
f 27/20/2 26/21/2 24/22/2
f 27/7/3 21/8/3 29/9/3
f 28/21/6 26/22/6 27/20/6
f 34/13/1 27/23/1 30/15/1
f 30/24/1 29/3/1 31/1/1
f 33/4/1 31/5/1 211/6/1
f 35/24/4 30/3/4 32/1/4
f 33/4/2 32/19/2 30/6/2
f 35/25/2 37/26/2 34/27/2
f 36/28/1 28/29/1 34/30/1
f 36/16/7 37/17/7 38/18/7
f 40/10/6 37/11/6 39/12/6
f 42/24/6 39/3/6 32/1/6
f 39/31/6 35/19/6 32/32/6
f 40/26/6 41/33/6 43/34/6
f 41/35/6 45/36/6 44/37/6
f 43/35/6 44/36/6 47/37/6
f 44/35/8 202/36/8 46/37/8
f 47/35/8 46/36/8 48/37/8
f 49/35/8 48/36/8 51/37/8
f 50/35/6 47/36/6 49/37/6
f 53/35/6 49/36/6 52/37/6
f 52/35/8 51/36/8 55/37/8
f 232/38/6 52/39/6 54/40/6
f 54/35/8 55/36/8 57/37/8
f 55/35/8 199/36/8 56/37/8
f 57/35/8 56/36/8 58/37/8
f 59/35/9 54/36/9 57/37/9
f 62/35/9 57/36/9 58/37/9
f 63/38/9 59/39/9 62/40/9
f 60/26/9 61/33/9 59/34/9
f 65/26/9 62/33/9 64/34/9
f 67/37/9 62/41/9 58/36/9
f 112/16/9 64/17/9 66/18/9
f 66/35/9 67/36/9 69/37/9
f 67/35/10 71/36/10 69/37/10
f 58/35/11 68/36/11 67/37/11
f 69/35/12 73/36/12 70/37/12
f 70/40/9 66/42/9 69/39/9
f 68/38/10 74/39/10 71/40/10
f 72/37/9 73/35/9 71/36/9
f 71/35/10 77/36/10 72/37/10
f 75/35/10 76/36/10 74/37/10
f 74/35/10 78/36/10 77/37/10
f 77/35/8 82/36/8 79/37/8
f 73/35/13 79/36/13 80/37/13
f 77/37/14 73/35/14 72/36/14
f 79/40/14 81/38/14 80/39/14
f 84/35/14 79/36/14 82/37/14
f 78/35/15 83/36/15 82/37/15
f 83/40/14 84/38/14 82/39/14
f 84/35/16 86/36/16 85/37/16
f 81/35/8 85/36/8 88/37/8
f 85/35/16 134/36/16 87/37/16
f 88/35/8 87/36/8 89/37/8
f 80/35/8 88/36/8 90/37/8
f 90/35/8 89/36/8 91/37/8
f 92/35/8 91/36/8 94/37/8
f 93/35/8 90/36/8 92/37/8
f 95/35/9 93/36/9 92/37/9
f 98/35/9 92/36/9 94/37/9
f 97/26/9 96/33/9 95/34/9
f 99/16/9 95/17/9 98/18/9
f 100/43/9 97/9/9 99/7/9
f 102/44/14 101/12/14 239/10/14
f 100/19/5 104/6/5 103/4/5
f 106/24/6 103/3/6 104/1/6
f 109/26/17 105/33/17 106/34/17
f 97/10/9 107/11/9 110/12/9
f 107/24/14 119/3/14 108/1/14
f 108/43/9 111/9/9 110/7/9
f 110/16/9 114/17/9 96/18/9
f 111/26/9 66/33/9 114/34/9
f 113/44/9 112/12/9 111/10/9
f 96/35/9 70/36/9 93/37/9
f 113/19/5 118/6/5 115/4/5
f 108/19/5 116/6/5 113/4/5
f 119/19/5 117/6/5 116/4/5
f 116/19/5 218/6/5 118/4/5
f 119/24/9 106/3/9 104/1/9
f 104/19/5 120/6/5 119/4/5
f 120/19/5 214/6/5 117/4/5
f 122/19/5 121/6/5 120/4/5
f 124/19/5 123/6/5 122/4/5
f 102/19/5 122/6/5 104/4/5
f 125/44/14 126/12/14 127/10/14
f 124/43/14 129/9/14 126/7/14
f 127/26/14 128/33/14 131/34/14
f 126/16/14 130/17/14 128/18/14
f 128/38/14 91/39/14 89/40/14
f 131/35/14 89/36/14 87/37/14
f 132/38/14 87/39/14 134/40/14
f 135/16/14 131/17/14 132/18/14
f 133/35/14 134/36/14 156/37/14
f 136/26/14 132/33/14 133/34/14
f 137/43/14 127/9/14 135/7/14
f 138/44/14 135/12/14 136/10/14
f 137/19/5 140/6/5 139/4/5
f 125/19/5 139/6/5 123/4/5
f 139/19/5 143/6/5 141/4/5
f 123/19/5 141/6/5 121/4/5
f 121/19/5 142/6/5 214/4/5
f 141/19/5 145/6/5 142/4/5
f 140/19/5 144/6/5 143/4/5
f 143/19/5 18/6/5 145/4/5
f 142/19/5 22/6/5 215/4/5
f 146/19/5 17/6/5 144/4/5
f 148/19/5 147/6/5 146/4/5
f 138/19/5 146/6/5 140/4/5
f 149/44/14 150/12/14 151/10/14
f 148/43/14 136/9/14 150/7/14
f 151/26/14 152/33/14 153/34/14
f 150/16/14 133/17/14 152/18/14
f 177/37/14 152/41/14 154/36/14
f 155/37/14 133/41/14 156/36/14
f 158/35/18 155/36/18 156/37/18
f 157/37/2 154/41/2 155/36/2
f 162/35/18 157/36/18 158/37/18
f 163/35/2 157/36/2 160/37/2
f 164/35/2 160/36/2 161/37/2
f 191/35/18 160/36/18 162/37/18
f 164/35/19 165/36/19 163/37/19
f 163/35/19 166/36/19 159/37/19
f 168/35/2 166/36/2 165/37/2
f 167/37/2 168/35/2 165/36/2
f 170/37/20 169/41/20 172/36/20
f 168/37/21 178/41/21 169/36/21
f 166/37/2 171/41/2 177/36/2
f 170/35/22 174/36/22 171/37/22
f 174/24/2 173/3/2 176/1/2
f 13/16/2 172/17/2 169/18/2
f 175/26/2 15/33/2 173/34/2
f 149/24/14 174/3/14 176/1/14
f 149/19/5 173/6/5 147/4/5
f 147/19/5 15/6/5 17/4/5
f 159/35/23 177/36/23 154/37/23
f 167/37/24 179/41/24 178/36/24
f 181/37/24 180/41/24 179/36/24
f 164/37/25 181/41/25 167/36/25
f 182/37/25 183/41/25 181/36/25
f 183/37/24 213/41/24 180/36/24
f 201/35/11 183/36/11 185/37/11
f 186/37/6 185/35/6 183/36/6
f 186/37/2 182/35/2 188/36/2
f 195/35/6 186/36/6 187/37/6
f 187/35/26 188/36/26 189/37/26
f 189/35/26 161/36/26 191/37/26
f 188/37/2 164/41/2 161/36/2
f 190/40/27 187/42/27 189/39/27
f 192/37/6 190/35/6 189/36/6
f 192/35/10 191/36/10 193/37/10
f 78/37/27 192/41/27 193/36/27
f 76/37/6 190/35/6 192/36/6
f 193/35/8 162/36/8 83/37/8
f 197/35/10 190/36/10 76/37/10
f 194/37/6 195/35/6 187/36/6
f 196/35/11 195/36/11 194/37/11
f 198/35/11 194/36/11 197/37/11
f 199/35/11 197/36/11 75/37/11
f 48/35/8 196/36/8 198/37/8
f 51/35/8 198/36/8 199/37/8
f 56/35/11 75/36/11 68/37/11
f 46/35/8 200/36/8 196/37/8
f 195/37/28 201/41/28 185/36/28
f 202/35/18 201/36/18 200/37/18
f 45/35/18 203/36/18 202/37/18
f 204/35/8 205/36/8 203/37/8
f 203/35/8 184/36/8 201/37/8
f 205/35/22 213/36/22 184/37/22
f 206/35/22 4/36/22 205/37/22
f 206/37/6 208/35/6 207/36/6
f 209/35/6 206/36/6 204/37/6
f 3/1/6 208/2/6 210/3/6
f 209/40/6 210/42/6 208/39/6
f 211/4/1 2/5/1 210/6/1
f 211/24/6 212/3/6 33/1/6
f 212/35/6 204/36/6 45/37/6
f 83/35/8 158/36/8 86/37/8
f 86/35/8 156/36/8 134/37/8
f 214/19/5 215/6/5 216/4/5
f 216/19/5 25/6/5 217/4/5
f 218/19/5 217/6/5 219/4/5
f 117/19/5 216/6/5 218/4/5
f 118/19/5 219/6/5 220/4/5
f 219/19/5 223/6/5 221/4/5
f 220/19/5 221/6/5 224/4/5
f 224/19/5 222/6/5 226/4/5
f 221/19/5 238/6/5 222/4/5
f 236/19/5 224/6/5 225/4/5
f 225/19/5 226/6/5 228/4/5
f 228/19/5 227/6/5 229/4/5
f 226/19/5 235/6/5 227/4/5
f 228/44/9 230/12/9 60/10/9
f 225/43/9 60/9/9 63/7/9
f 229/43/6 233/9/6 231/7/6
f 231/16/6 53/17/6 232/18/6
f 233/26/6 50/33/6 53/34/6
f 227/44/6 234/12/6 233/10/6
f 234/16/6 43/17/6 50/18/6
f 234/7/6 38/8/6 40/9/6
f 38/21/29 222/22/29 36/20/29
f 236/44/9 63/12/9 65/10/9
f 115/43/9 65/9/9 112/7/9
f 115/19/5 220/6/5 236/4/5
f 28/20/6 223/21/6 237/22/6
f 217/19/5 237/6/5 223/4/5
f 36/20/2 238/21/2 223/22/2
f 238/20/6 36/21/6 222/22/6
f 70/35/8 80/36/8 93/37/8
f 31/4/1 6/5/1 2/6/1
f 29/1/3 8/2/3 6/3/3
f 2/1/30 6/24/30 5/2/30
f 210/4/1 2/19/1 1/5/1
f 3/1/2 1/24/2 4/2/2
f 6/7/3 8/43/3 7/8/3
f 8/10/4 10/44/4 9/11/4
f 10/7/4 16/43/4 11/8/4
f 12/16/2 14/45/2 15/17/2
f 17/19/5 15/5/5 14/6/5
f 144/19/5 17/5/5 16/6/5
f 18/19/5 16/5/5 19/6/5
f 21/7/4 20/43/4 10/8/4
f 145/19/5 18/5/5 20/6/5
f 22/19/5 20/5/5 23/6/5
f 215/19/5 22/5/5 24/6/5
f 25/19/5 24/5/5 26/6/5
f 27/7/3 24/43/3 21/8/3
f 28/21/6 237/46/6 26/22/6
f 34/13/30 28/47/30 27/23/30
f 30/24/30 27/2/30 29/3/30
f 33/4/1 30/19/1 31/5/1
f 35/24/4 34/2/4 30/3/4
f 36/28/30 223/48/30 28/29/30
f 36/16/7 34/45/7 37/17/7
f 40/10/6 38/44/6 37/11/6
f 42/24/6 41/2/6 39/3/6
f 40/26/6 39/49/6 41/33/6
f 41/35/6 42/41/6 45/36/6
f 43/35/6 41/41/6 44/36/6
f 44/35/8 45/41/8 202/36/8
f 47/35/8 44/41/8 46/36/8
f 49/35/8 47/41/8 48/36/8
f 50/35/6 43/41/6 47/36/6
f 53/35/6 50/41/6 49/36/6
f 52/35/8 49/41/8 51/36/8
f 232/38/6 53/42/6 52/39/6
f 54/35/8 52/41/8 55/36/8
f 55/35/8 51/41/8 199/36/8
f 57/35/8 55/41/8 56/36/8
f 59/35/9 61/41/9 54/36/9
f 62/35/9 59/41/9 57/36/9
f 63/38/9 60/42/9 59/39/9
f 60/26/9 230/49/9 61/33/9
f 65/26/9 63/49/9 62/33/9
f 67/37/9 64/35/9 62/41/9
f 112/16/9 65/45/9 64/17/9
f 66/35/9 64/41/9 67/36/9
f 67/35/10 68/41/10 71/36/10
f 58/35/11 56/41/11 68/36/11
f 69/35/12 71/41/12 73/36/12
f 70/40/9 114/38/9 66/42/9
f 68/38/10 75/42/10 74/39/10
f 71/35/10 74/41/10 77/36/10
f 75/35/10 197/41/10 76/36/10
f 74/35/10 76/41/10 78/36/10
f 77/35/8 78/41/8 82/36/8
f 73/35/13 77/41/13 79/36/13
f 84/35/14 81/41/14 79/36/14
f 78/35/15 193/41/15 83/36/15
f 84/35/16 83/41/16 86/36/16
f 81/35/8 84/41/8 85/36/8
f 85/35/16 86/41/16 134/36/16
f 88/35/8 85/41/8 87/36/8
f 80/35/8 81/41/8 88/36/8
f 90/35/8 88/41/8 89/36/8
f 92/35/8 90/41/8 91/36/8
f 93/35/8 80/41/8 90/36/8
f 95/35/9 96/41/9 93/36/9
f 98/35/9 95/41/9 92/36/9
f 97/26/9 110/49/9 96/33/9
f 99/16/9 97/45/9 95/17/9
f 100/43/9 103/8/9 97/9/9
f 102/44/14 100/11/14 101/12/14
f 100/19/5 102/5/5 104/6/5
f 106/24/6 105/2/6 103/3/6
f 109/26/17 107/49/17 105/33/17
f 97/10/9 105/44/9 107/11/9
f 107/24/14 109/2/14 119/3/14
f 108/43/9 113/8/9 111/9/9
f 110/16/9 111/45/9 114/17/9
f 111/26/9 112/49/9 66/33/9
f 113/44/9 115/11/9 112/12/9
f 96/35/9 114/41/9 70/36/9
f 113/19/5 116/5/5 118/6/5
f 108/19/5 119/5/5 116/6/5
f 119/19/5 120/5/5 117/6/5
f 116/19/5 117/5/5 218/6/5
f 119/24/9 109/2/9 106/3/9
f 104/19/5 122/5/5 120/6/5
f 120/19/5 121/5/5 214/6/5
f 122/19/5 123/5/5 121/6/5
f 124/19/5 125/5/5 123/6/5
f 102/19/5 124/5/5 122/6/5
f 125/44/14 124/11/14 126/12/14
f 124/43/14 102/8/14 129/9/14
f 127/26/14 126/49/14 128/33/14
f 126/16/14 129/45/14 130/17/14
f 128/38/14 130/42/14 91/39/14
f 131/35/14 128/41/14 89/36/14
f 132/38/14 131/42/14 87/39/14
f 135/16/14 127/45/14 131/17/14
f 133/35/14 132/41/14 134/36/14
f 136/26/14 135/49/14 132/33/14
f 137/43/14 125/8/14 127/9/14
f 138/44/14 137/11/14 135/12/14
f 137/19/5 138/5/5 140/6/5
f 125/19/5 137/5/5 139/6/5
f 139/19/5 140/5/5 143/6/5
f 123/19/5 139/5/5 141/6/5
f 121/19/5 141/5/5 142/6/5
f 141/19/5 143/5/5 145/6/5
f 140/19/5 146/5/5 144/6/5
f 143/19/5 144/5/5 18/6/5
f 142/19/5 145/5/5 22/6/5
f 146/19/5 147/5/5 17/6/5
f 148/19/5 149/5/5 147/6/5
f 138/19/5 148/5/5 146/6/5
f 149/44/14 148/11/14 150/12/14
f 148/43/14 138/8/14 136/9/14
f 151/26/14 150/49/14 152/33/14
f 150/16/14 136/45/14 133/17/14
f 177/37/14 153/35/14 152/41/14
f 155/37/14 152/35/14 133/41/14
f 158/35/18 157/41/18 155/36/18
f 157/37/2 159/35/2 154/41/2
f 162/35/18 160/41/18 157/36/18
f 163/35/2 159/41/2 157/36/2
f 164/35/2 163/41/2 160/36/2
f 191/35/18 161/41/18 160/36/18
f 164/35/19 167/41/19 165/36/19
f 163/35/19 165/41/19 166/36/19
f 168/35/2 170/41/2 166/36/2
f 170/37/20 168/35/20 169/41/20
f 168/37/21 167/35/21 178/41/21
f 166/37/2 170/35/2 171/41/2
f 170/35/22 172/41/22 174/36/22
f 174/24/2 172/2/2 173/3/2
f 13/16/2 175/45/2 172/17/2
f 175/26/2 13/49/2 15/33/2
f 149/24/14 171/2/14 174/3/14
f 149/19/5 176/5/5 173/6/5
f 147/19/5 173/5/5 15/6/5
f 159/35/23 166/41/23 177/36/23
f 167/37/24 181/35/24 179/41/24
f 181/37/24 183/35/24 180/41/24
f 164/37/25 182/35/25 181/41/25
f 182/37/25 186/35/25 183/41/25
f 183/37/24 184/35/24 213/41/24
f 201/35/11 184/41/11 183/36/11
f 195/35/6 185/41/6 186/36/6
f 187/35/26 186/41/26 188/36/26
f 189/35/26 188/41/26 161/36/26
f 188/37/2 182/35/2 164/41/2
f 190/40/27 194/38/27 187/42/27
f 192/35/10 189/41/10 191/36/10
f 78/37/27 76/35/27 192/41/27
f 193/35/8 191/41/8 162/36/8
f 197/35/10 194/41/10 190/36/10
f 196/35/11 200/41/11 195/36/11
f 198/35/11 196/41/11 194/36/11
f 199/35/11 198/41/11 197/36/11
f 48/35/8 46/41/8 196/36/8
f 51/35/8 48/41/8 198/36/8
f 56/35/11 199/41/11 75/36/11
f 46/35/8 202/41/8 200/36/8
f 195/37/28 200/35/28 201/41/28
f 202/35/18 203/41/18 201/36/18
f 45/35/18 204/41/18 203/36/18
f 204/35/8 206/41/8 205/36/8
f 203/35/8 205/41/8 184/36/8
f 205/35/22 4/41/22 213/36/22
f 206/35/22 207/41/22 4/36/22
f 209/35/6 208/41/6 206/36/6
f 3/1/6 207/24/6 208/2/6
f 209/40/6 211/38/6 210/42/6
f 211/4/1 31/19/1 2/5/1
f 211/24/6 209/2/6 212/3/6
f 212/35/6 209/41/6 204/36/6
f 83/35/8 162/41/8 158/36/8
f 86/35/8 158/41/8 156/36/8
f 214/19/5 142/5/5 215/6/5
f 216/19/5 215/5/5 25/6/5
f 218/19/5 216/5/5 217/6/5
f 117/19/5 214/5/5 216/6/5
f 118/19/5 218/5/5 219/6/5
f 219/19/5 217/5/5 223/6/5
f 220/19/5 219/5/5 221/6/5
f 224/19/5 221/5/5 222/6/5
f 221/19/5 223/5/5 238/6/5
f 236/19/5 220/5/5 224/6/5
f 225/19/5 224/5/5 226/6/5
f 228/19/5 226/5/5 227/6/5
f 226/19/5 222/5/5 235/6/5
f 228/44/9 229/11/9 230/12/9
f 225/43/9 228/8/9 60/9/9
f 229/43/6 227/8/6 233/9/6
f 231/16/6 233/45/6 53/17/6
f 233/26/6 234/49/6 50/33/6
f 227/44/6 235/11/6 234/12/6
f 234/16/6 40/45/6 43/17/6
f 234/7/6 235/43/6 38/8/6
f 38/21/29 235/46/29 222/22/29
f 236/44/9 225/11/9 63/12/9
f 115/43/9 236/8/9 65/9/9
f 115/19/5 118/5/5 220/6/5
f 217/19/5 25/5/5 237/6/5
f 70/35/8 73/41/8 80/36/8
f 31/4/30 29/19/30 6/5/30
f 29/1/3 21/24/3 8/2/3
