# Blender 5.1.2
# www.blender.org
mtllib room00.mtl
o 01-Caves
v 319.956879 -14.075410 -569.912659
v 319.956879 -9.075411 -569.912659
v 319.956879 -9.075410 -559.912659
v 319.956879 -16.575411 -569.912659
v 319.956879 -16.575409 -559.912659
v 319.956879 -9.075410 -549.912659
v 319.956879 -16.575409 -549.912659
v 319.956879 -16.575407 -539.912659
v 319.956879 -16.575407 -529.912659
v 319.956879 -14.075406 -519.912659
v 319.956879 -14.075405 -509.912659
v 319.956879 -31.575407 -519.912659
v 319.956879 -31.575405 -509.912659
v 319.956879 -14.075405 -499.912659
v 319.956879 -31.575405 -499.912659
v 319.956879 -14.075404 -489.912659
v 319.956879 -31.575403 -489.912659
v 319.956879 -14.075403 -479.912659
v 319.956879 -31.575403 -479.912659
v 319.956879 -14.075402 -469.912659
v 319.956879 -26.575403 -479.912659
v 319.956879 -26.575403 -469.912659
v 319.956879 -14.075401 -459.912659
v 319.956879 -31.575403 -469.912659
v 319.956879 -31.575401 -459.912659
v 319.956879 -14.075401 -449.912659
v 319.956879 -24.075401 -449.912659
v 319.956879 -14.075400 -439.912659
v 319.956879 -24.075399 -439.912659
v 319.956879 -14.075399 -429.912659
v 319.956879 -24.075399 -429.912659
v 319.956879 -14.075398 -419.912659
v 319.956879 -24.075399 -419.912659
v 319.956879 -14.075397 -409.912659
v 319.956879 -24.075397 -409.912659
v 319.956879 -14.075397 -399.912659
v 319.956879 -24.075397 -399.912659
v 319.956879 -14.075397 -389.912659
v 319.956879 -24.075396 -389.912659
v 329.956909 -14.075410 -569.912659
v 319.956879 -24.075411 -569.912659
v 329.956909 -24.075411 -569.912659
v 329.956909 -4.075408 -569.912659
v 329.956909 -4.075408 -559.912659
v 329.956909 -39.075409 -569.912659
v 319.956879 -34.075409 -569.912659
v 319.956879 -29.075409 -559.912659
v 329.956909 -34.075409 -559.912659
v 329.956909 -4.075407 -549.912659
v 319.956879 -24.075409 -549.912659
v 329.956909 -29.075409 -549.912659
v 319.956879 -14.075408 -539.912659
v 329.956909 -9.075409 -539.912659
v 319.956879 -19.075407 -539.912659
v 329.956909 -24.075407 -539.912659
v 319.956879 -11.575407 -529.912659
v 329.956909 -6.575408 -529.912659
v 329.956909 -21.575407 -529.912659
v 319.956879 -11.575406 -519.912659
v 329.956909 -6.575407 -519.912659
v 319.956879 -11.575406 -519.912659
v 329.956909 -16.575407 -519.912659
v 319.956879 -11.575405 -509.912659
v 329.956909 -6.575407 -509.912659
v 329.956909 -66.575409 -519.912659
v 319.956879 -66.575409 -519.912659
v 319.956879 -66.575409 -509.912659
v 329.956909 -66.575409 -509.912659
v 329.956909 -9.075406 -499.912659
v 319.956879 -66.575409 -499.912659
v 329.956909 -66.575409 -499.912659
v 319.956879 -11.575404 -489.912659
v 329.956909 -6.575405 -489.912659
v 319.956879 -66.575409 -489.912659
v 329.956909 -66.575409 -489.912659
v 319.956879 -4.075402 -479.912659
v 329.956909 0.924596 -479.912659
v 329.956909 -59.075409 -489.912659
v 319.956879 -51.575397 -479.912659
v 329.956909 -44.075397 -479.912659
v 329.956909 3.424598 -479.912659
v 319.956879 -1.575406 -479.912659
v 319.956879 0.924597 -469.912659
v 329.956909 5.924597 -469.912659
v 319.956879 -46.575397 -469.912659
v 329.956909 -39.075401 -469.912659
v 319.956879 3.424600 -459.912659
v 329.956909 8.424598 -459.912659
v 319.956879 -41.575397 -459.912659
v 329.956909 -34.075401 -459.912659
v 329.956909 -14.075401 -459.912659
v 319.956879 -29.075401 -459.912659
v 319.956879 -29.075401 -449.912659
v 329.956909 -14.075401 -449.912659
v 319.956879 -36.575401 -449.912659
v 329.956909 -29.075401 -449.912659
v 329.956909 8.424598 -449.912659
v 319.956879 3.424601 -449.912659
v 319.956879 0.924599 -439.912659
v 329.956909 5.924599 -439.912659
v 319.956879 -39.075401 -439.912659
v 329.956909 -31.575399 -439.912659
v 319.956879 -1.575402 -429.912659
v 329.956909 3.424602 -429.912659
v 319.956879 -41.575397 -429.912659
v 329.956909 -34.075401 -429.912659
v 319.956879 -4.075397 -419.912659
v 329.956909 0.924600 -419.912659
v 319.956879 -41.575394 -419.912659
v 329.956909 -34.075397 -419.912659
v 319.956879 -6.575399 -409.912659
v 329.956909 -1.575401 -409.912659
v 319.956879 -36.575397 -419.912659
v 319.956879 -36.575397 -409.912659
v 329.956909 -34.075397 -409.912659
v 319.956879 -6.575398 -399.912659
v 329.956909 -1.575400 -399.912659
v 319.956879 -36.575397 -399.912659
v 329.956909 -34.075397 -399.912659
v 319.956879 -6.575397 -389.912659
v 329.956909 -1.575400 -389.912659
v 319.956879 -31.575396 -389.912659
v 329.956909 -29.075396 -389.912659
v 339.956818 -14.075410 -569.912659
v 339.956818 -24.075411 -569.912659
v 339.956818 -1.575413 -569.912659
v 329.956909 -1.575413 -569.912659
v 329.956909 -1.575412 -559.912659
v 339.956818 -1.575412 -559.912659
v 339.956818 -46.575405 -569.912659
v 339.956818 -41.575405 -559.912659
v 329.956909 -1.575412 -549.912659
v 339.956818 -1.575412 -549.912659
v 339.956818 -36.575409 -549.912659
v 329.956909 -1.575411 -539.912659
v 339.956818 -1.575411 -539.912659
v 339.956818 -31.575407 -539.912659
v 329.956909 -1.575410 -529.912659
v 339.956818 -1.575410 -529.912659
v 339.956818 -29.075407 -529.912659
v 329.956909 -1.575409 -519.912659
v 339.956818 -1.575409 -519.912659
v 339.956818 -24.075407 -519.912659
v 329.956909 -1.575409 -509.912659
v 339.956818 -1.575409 -509.912659
v 339.956818 -66.575409 -519.912659
v 339.956818 -66.575409 -509.912659
v 329.956909 -1.575408 -499.912659
v 339.956818 -1.575408 -499.912659
v 339.956818 -66.575409 -499.912659
v 329.956909 0.924595 -489.912659
v 339.956818 0.924595 -489.912659
v 339.956818 -66.575409 -489.912659
v 339.956818 3.424598 -479.912659
v 339.956818 -56.575401 -489.912659
v 339.956818 -41.575397 -479.912659
v 339.956818 5.924597 -469.912659
v 339.956818 -36.575401 -469.912659
v 339.956818 8.424598 -459.912659
v 339.956818 -31.575401 -459.912659
v 339.956818 8.424598 -449.912659
v 339.956818 -26.575401 -449.912659
v 339.956818 5.924599 -439.912659
v 339.956818 -29.075399 -439.912659
v 339.956818 3.424602 -429.912659
v 339.956818 -31.575399 -429.912659
v 339.956818 0.924600 -419.912659
v 339.956818 -31.575399 -419.912659
v 339.956818 -1.575401 -409.912659
v 339.956818 -31.575397 -409.912659
v 339.956818 -1.575400 -399.912659
v 339.956818 -31.575397 -399.912659
v 339.956818 -1.575400 -389.912659
v 339.956818 -26.575396 -389.912659
v 349.956909 -14.075410 -569.912659
v 349.956909 -24.075411 -569.912659
v 349.956909 -1.575413 -569.912659
v 349.956909 -1.575412 -559.912659
v 349.956909 -51.575405 -569.912659
v 349.956909 -46.575405 -559.912659
v 349.956909 -1.575412 -549.912659
v 349.956909 -41.575405 -549.912659
v 349.956909 -1.575411 -539.912659
v 349.956909 -36.575409 -539.912659
v 349.956909 -1.575410 -529.912659
v 349.956909 -34.075405 -529.912659
v 349.956909 -1.575409 -519.912659
v 349.956909 -31.575407 -529.912659
v 349.956909 -26.575407 -519.912659
v 349.956909 -1.575409 -509.912659
v 349.956909 -66.575409 -519.912659
v 349.956909 -66.575409 -509.912659
v 349.956909 -1.575408 -499.912659
v 349.956909 -66.575409 -499.912659
v 349.956909 0.924595 -489.912659
v 349.956909 -66.575409 -489.912659
v 349.956909 3.424598 -479.912659
v 349.956909 -49.075401 -489.912659
v 339.956818 -54.075401 -489.912659
v 349.956909 -36.575401 -479.912659
v 349.956909 5.924597 -469.912659
v 339.956818 -34.075401 -469.912659
v 349.956909 -29.075403 -469.912659
v 349.956909 8.424598 -459.912659
v 349.956909 -26.575401 -459.912659
v 349.956909 -1.575405 -459.912659
v 349.956909 -1.575404 -449.912659
v 339.956818 -24.075401 -449.912659
v 349.956909 -19.075401 -449.912659
v 349.956909 -4.075399 -439.912659
v 339.956818 -26.575399 -439.912659
v 349.956909 -21.575399 -439.912659
v 349.956909 -6.575400 -429.912659
v 339.956818 -29.075399 -429.912659
v 349.956909 -24.075399 -429.912659
v 349.956909 3.424602 -429.912659
v 349.956909 0.924600 -419.912659
v 349.956909 -26.575399 -419.912659
v 349.956909 -1.575401 -409.912659
v 349.956909 -26.575397 -409.912659
v 349.956909 -1.575400 -399.912659
v 349.956909 -26.575397 -399.912659
v 349.956909 -1.575400 -389.912659
v 349.956909 -21.575396 -389.912659
v 359.956909 -14.075410 -569.912659
v 359.956909 -24.075411 -569.912659
v 359.956909 -1.575413 -569.912659
v 359.956909 -1.575412 -559.912659
v 359.956909 -61.575405 -569.912659
v 359.956909 -56.575405 -559.912659
v 359.956909 -1.575412 -549.912659
v 359.956909 -51.575405 -549.912659
v 359.956909 -1.575411 -539.912659
v 359.956909 -46.575405 -539.912659
v 359.956909 -1.575410 -529.912659
v 359.956909 -31.575407 -539.912659
v 359.956909 -29.075407 -529.912659
v 359.956909 -1.575409 -519.912659
v 359.956909 -24.075407 -529.912659
v 359.956909 -19.075407 -519.912659
v 359.956909 -1.575409 -509.912659
v 359.956909 -66.575409 -519.912659
v 359.956909 -66.575409 -509.912659
v 359.956909 -1.575408 -499.912659
v 359.956909 -66.575409 -499.912659
v 349.956909 -6.575405 -489.912659
v 359.956909 -6.575405 -489.912659
v 359.956909 -66.575409 -489.912659
v 349.956909 -6.575404 -479.912659
v 359.956909 -6.575404 -479.912659
v 359.956909 -31.575403 -489.912659
v 349.956909 -44.075401 -489.912659
v 349.956909 -31.575403 -479.912659
v 359.956909 -19.075403 -479.912659
v 349.956909 -1.575406 -469.912659
v 359.956909 -1.575406 -469.912659
v 349.956909 -24.075403 -469.912659
v 359.956909 -11.575402 -469.912659
v 359.956909 -1.575405 -459.912659
v 349.956909 -21.575401 -459.912659
v 359.956909 -9.075402 -459.912659
v 359.956909 -1.575404 -449.912659
v 349.956909 -14.075401 -449.912659
v 359.956909 -1.575404 -449.912659
v 359.956909 -4.075399 -439.912659
v 349.956909 -16.575399 -439.912659
v 359.956909 -4.075399 -439.912659
v 349.956909 -16.575399 -429.912659
v 359.956909 -16.575399 -429.912659
v 359.956909 -6.575400 -429.912659
v 349.956909 -6.575400 -429.912659
v 349.956909 -6.575399 -419.912659
v 359.956909 -6.575399 -419.912659
v 359.956909 -19.075399 -429.912659
v 349.956909 -26.575399 -429.912659
v 359.956909 -19.075399 -419.912659
v 349.956909 -6.575399 -409.912659
v 359.956909 -6.575399 -409.912659
v 359.956909 -19.075397 -409.912659
v 349.956909 -4.075396 -399.912659
v 359.956909 -4.075396 -399.912659
v 359.956909 -19.075397 -399.912659
v 359.956909 -1.575400 -389.912659
v 359.956909 -14.075397 -389.912659
v 359.956909 -11.575410 -569.912659
v 359.956909 -11.575409 -559.912659
v 359.956909 -26.575411 -569.912659
v 359.956909 -26.575409 -559.912659
v 359.956909 -11.575409 -549.912659
v 359.956909 -26.575409 -549.912659
v 359.956909 -11.575408 -539.912659
v 359.956909 -26.575407 -539.912659
v 359.956909 -11.575407 -529.912659
v 359.956909 -26.575407 -529.912659
v 359.956909 -11.575406 -519.912659
v 359.956909 -9.075407 -519.912659
v 359.956909 -9.075406 -509.912659
v 359.956909 -31.575407 -519.912659
v 359.956909 -31.575405 -509.912659
v 359.956909 -9.075406 -499.912659
v 359.956909 -31.575405 -499.912659
v 359.956909 -9.075405 -489.912659
v 359.956909 -9.075404 -479.912659
v 359.956909 -9.075403 -469.912659
v 359.956909 -9.075402 -459.912659
v 359.956909 -16.575399 -429.912659
v 359.956909 -16.575399 -419.912659
v 359.956909 -16.575397 -409.912659
v 359.956909 -16.575397 -399.912659
v 359.956909 -14.075397 -399.912659
v 359.956909 -14.075397 -389.912659
vn 0.4472 -0.8944 -0.0000
vn -0.0000 -0.0000 1.0000
vn 0.4082 -0.8165 -0.4082
vn 0.4364 -0.8729 0.2182
vn 0.4364 0.8729 -0.2182
vn -0.0000 1.0000 -0.0000
vn 1.0000 -0.0000 -0.0000
vn 0.4364 -0.8729 -0.2182
vn 0.3714 -0.7428 0.5571
vn -0.3841 0.5121 -0.7682
vn 0.8320 -0.5547 -0.0000
vn -0.0000 -0.0000 -1.0000
vn -0.0000 -1.0000 -0.0000
vn 0.5571 0.7428 -0.3714
vn -0.0000 -0.9701 0.2425
vn -0.2182 0.8729 -0.4364
vn -0.0000 -0.9701 -0.2425
vn 0.4082 0.8165 -0.4082
vn 0.2182 0.8729 -0.4364
vn -0.2981 0.5963 -0.7454
vn -0.3714 0.7428 -0.5571
vn -0.4364 0.8729 -0.2182
vn -0.7071 -0.7071 -0.0000
vn -0.6963 -0.6963 -0.1741
vn -0.4364 0.8729 0.2182
vn -1.0000 -0.0000 -0.0000
vn -0.0000 -0.8944 -0.4472
vn -0.6155 0.4924 -0.6155
vn -0.0000 -0.8944 0.4472
vn -0.7071 0.5657 -0.4243
vn -0.7715 0.6172 -0.1543
vn -0.7715 0.6172 0.1543
vn -0.6000 0.8000 -0.0000
vn -0.5571 0.7428 -0.3714
vn -0.5883 0.7845 0.1961
vn -0.2425 0.9701 -0.0000
vn 0.5884 0.7845 -0.1961
vn -0.1374 0.5494 -0.8242
vn -0.2357 0.9428 0.2357
vn -0.4472 0.8944 -0.0000
vn -0.4082 0.8165 -0.4082
vn 0.6667 0.6667 -0.3333
vn 0.8321 -0.5547 -0.0000
vt 0.252941 0.501961
vt 0.372549 0.621569
vt 0.252941 0.621569
vt 0.378431 0.747059
vt 0.498039 0.627451
vt 0.498039 0.747059
vt 0.127451 0.501961
vt 0.247059 0.621569
vt 0.127451 0.621569
vt 0.127451 0.627451
vt 0.247059 0.747059
vt 0.127451 0.747059
vt 0.372549 0.501961
vt 0.001961 0.998039
vt 0.121569 0.878431
vt 0.121569 0.998039
vt 0.378431 0.721568
vt 0.001961 0.501961
vt 0.121569 0.621569
vt 0.001961 0.621569
vt 0.001961 0.872549
vt 0.121569 0.752941
vt 0.121569 0.872549
vt 0.001961 0.627451
vt 0.121569 0.747059
vt 0.001961 0.747059
vt 0.001961 0.878431
vt 0.252941 0.627451
vt 0.372549 0.747059
vt 0.252941 0.747059
vt 0.372549 0.564706
vt 0.378431 0.627451
vt 0.001961 0.752941
vt 0.121569 0.501961
vt 0.372549 0.627451
vt 0.378431 0.878431
vt 0.498039 0.998039
vt 0.378431 0.998039
vt 0.252941 0.596079
vt 0.372549 0.596079
vt 0.252941 0.752941
vt 0.372549 0.872549
vt 0.252941 0.872549
vt 0.247059 0.627451
vt 0.121569 0.627451
vt 0.127451 0.752941
vt 0.247059 0.872549
vt 0.127451 0.872549
vt 0.001961 0.721568
vt 0.127451 0.721568
vt 0.001961 0.596079
vt 0.372549 0.533334
vt 0.247059 0.501961
vt 0.127451 0.596079
vt 0.252941 0.533334
vt 0.372549 0.527451
vt 0.252941 0.527451
vt 0.252941 0.721568
vt 0.127451 0.527451
vt 0.247059 0.527451
vt 0.752941 0.998039
vt 0.872549 0.878431
vt 0.872549 0.998039
vt 0.752941 0.878431
vt 0.872549 0.909804
vt 0.752941 0.941177
vt 0.501961 0.878431
vt 0.621569 0.998039
vt 0.501961 0.998039
vt 0.872549 0.941177
vt 0.627451 0.752941
vt 0.747059 0.872549
vt 0.627451 0.872549
vt 0.872549 0.972549
vt 0.747059 0.752941
vt 0.752941 0.972549
vt 0.627451 0.252941
vt 0.747059 0.372549
vt 0.627451 0.372549
vt 0.752941 0.252941
vt 0.872549 0.372549
vt 0.752941 0.372549
vt 0.498039 0.721568
vt 0.252941 0.564706
vt 0.498039 0.878431
vt 0.372549 0.752941
vt 0.247059 0.752941
vt 0.121569 0.721568
vt 0.247059 0.721568
vt 0.121569 0.596079
vt 0.247059 0.596079
vt 0.752941 0.909804
vt 0.621569 0.878431
vt 0.747059 0.252941
vt 0.872549 0.252941
s 0
usemtl Material.001
f 44/1/1 2/2/1 43/3/1
f 40/4/2 2/5/2 1/6/2
f 42/7/2 46/8/2 45/9/2
f 40/10/2 41/11/2 42/12/2
f 49/1/1 3/2/1 44/3/1
f 53/1/3 6/2/3 49/3/3
f 53/3/4 56/13/4 52/2/4
f 58/14/5 54/15/5 9/16/5
f 60/1/1 56/2/1 57/3/1
f 64/1/1 59/2/1 60/3/1
f 65/1/6 67/2/6 68/3/6
f 59/17/7 11/6/7 10/4/7
f 10/18/7 13/19/7 12/20/7
f 62/21/2 66/22/2 65/23/2
f 69/1/8 63/2/8 64/3/8
f 68/1/6 70/2/6 71/3/6
f 11/10/7 15/11/7 13/12/7
f 69/3/4 72/13/4 14/2/4
f 71/1/6 74/2/6 75/3/6
f 15/18/7 74/19/7 70/20/7
f 14/24/7 17/25/7 15/26/7
f 73/3/9 76/13/9 72/2/9
f 78/27/10 79/16/10 80/14/10
f 72/28/7 18/29/7 16/30/7
f 17/7/7 79/8/7 74/9/7
f 16/10/7 19/11/7 17/12/7
f 81/3/4 83/13/4 82/2/4
f 82/28/7 20/29/7 18/30/7
f 18/24/7 22/25/7 21/26/7
f 77/3/2 82/31/2 76/2/2
f 84/3/4 87/13/4 83/2/4
f 83/32/7 23/6/7 20/4/7
f 20/7/7 25/8/7 24/9/7
f 92/33/11 94/23/11 93/21/11
f 87/20/12 91/34/12 92/19/12
f 100/1/8 98/2/8 97/3/8
f 26/4/7 99/5/7 28/6/7
f 26/7/7 29/8/7 27/9/7
f 98/20/2 94/34/2 97/19/2
f 104/1/8 99/2/8 100/3/8
f 108/1/8 103/2/8 104/3/8
f 30/20/7 107/34/7 32/19/7
f 112/1/8 107/2/8 108/3/8
f 32/30/7 111/35/7 34/29/7
f 33/18/7 114/19/7 113/20/7
f 32/24/7 35/25/7 33/26/7
f 117/1/1 111/2/1 112/3/1
f 111/32/7 36/6/7 34/4/7
f 34/10/7 37/11/7 35/12/7
f 121/1/1 116/2/1 117/3/1
f 116/7/7 38/8/7 36/9/7
f 129/36/13 127/37/13 126/38/13
f 127/39/7 44/2/7 43/3/7
f 126/28/2 40/29/2 124/30/2
f 125/18/2 45/19/2 130/20/2
f 124/24/2 42/25/2 125/26/2
f 133/36/13 128/37/13 129/38/13
f 134/14/14 48/15/14 51/16/14
f 128/39/7 49/2/7 44/3/7
f 136/36/13 132/37/13 133/38/13
f 49/3/7 135/40/7 53/2/7
f 139/36/13 135/37/13 136/38/13
f 135/39/7 57/2/7 53/3/7
f 142/36/13 138/37/13 139/38/13
f 138/39/7 60/2/7 57/3/7
f 145/36/13 141/37/13 142/38/13
f 146/1/6 68/2/6 147/3/6
f 141/39/7 64/2/7 60/3/7
f 143/21/2 65/22/2 146/23/2
f 149/36/13 144/37/13 145/38/13
f 147/1/6 71/2/6 150/3/6
f 64/3/7 148/40/7 69/2/7
f 152/36/15 148/37/15 149/38/15
f 150/1/6 75/2/6 153/3/6
f 148/39/7 73/2/7 69/3/7
f 154/36/15 151/37/15 152/38/15
f 151/39/7 77/2/7 73/3/7
f 157/36/15 81/37/15 154/38/15
f 86/14/16 156/15/16 80/16/16
f 160/27/16 96/16/16 162/14/16
f 97/33/7 91/23/7 88/21/7
f 169/36/17 108/37/17 167/38/17
f 171/36/13 112/37/13 169/38/13
f 171/41/13 121/42/13 117/43/13
f 178/36/13 126/37/13 177/38/13
f 177/32/2 124/6/2 175/4/2
f 176/7/2 130/8/2 179/9/2
f 175/10/2 125/11/2 176/12/2
f 181/36/13 129/37/13 178/38/13
f 182/14/18 131/15/18 134/16/18
f 183/36/13 133/37/13 181/38/13
f 185/36/13 136/37/13 183/38/13
f 189/20/19 140/34/19 143/19/19
f 190/36/13 142/37/13 187/38/13
f 191/1/6 147/2/6 192/3/6
f 189/21/2 146/22/2 191/23/2
f 193/36/13 145/37/13 190/38/13
f 192/1/6 150/2/6 194/3/6
f 195/36/15 149/37/15 193/38/15
f 194/1/6 153/2/6 196/3/6
f 197/36/15 152/37/15 195/38/15
f 156/12/20 198/44/20 199/11/20
f 196/26/12 199/45/12 198/25/12
f 201/36/15 154/37/15 197/38/15
f 202/26/21 200/45/21 156/25/21
f 159/46/15 201/47/15 204/48/15
f 160/12/22 203/44/22 202/11/22
f 159/1/23 207/2/23 161/3/23
f 208/20/21 205/34/21 160/19/21
f 207/3/24 163/13/24 161/2/24
f 212/7/25 208/8/25 211/9/25
f 211/49/26 162/25/26 164/26/26
f 210/1/24 165/2/24 163/3/24
f 215/18/25 211/19/25 214/20/25
f 214/50/26 164/11/26 166/12/26
f 217/46/17 165/47/17 216/48/17
f 219/36/17 167/37/17 217/38/17
f 219/41/13 171/42/13 169/43/13
f 223/46/13 171/47/13 221/48/13
f 228/1/13 177/2/13 227/3/13
f 227/28/2 175/29/2 225/30/2
f 226/18/2 179/19/2 229/20/2
f 225/24/2 176/25/2 226/26/2
f 231/1/13 178/2/13 228/3/13
f 233/1/13 181/2/13 231/3/13
f 235/1/13 183/2/13 233/3/13
f 186/20/22 236/34/22 184/19/22
f 238/1/13 185/2/13 235/3/13
f 188/51/12 237/19/12 186/20/12
f 241/1/13 187/2/13 238/3/13
f 242/1/6 192/2/6 243/3/6
f 189/33/2 242/23/2 240/21/2
f 244/1/13 190/2/13 241/3/13
f 243/1/6 194/2/6 245/3/6
f 247/1/27 193/2/27 244/3/27
f 245/1/6 196/2/6 248/3/6
f 250/1/13 246/2/13 247/3/13
f 253/18/28 251/19/28 252/20/28
f 249/3/26 195/52/26 246/2/26
f 252/20/12 248/34/12 196/19/12
f 256/1/29 249/2/29 250/3/29
f 254/7/30 257/8/30 258/9/30
f 255/3/26 197/52/26 249/2/26
f 259/1/13 255/2/13 256/3/13
f 260/9/31 258/53/31 257/8/31
f 201/3/26 206/13/26 204/2/26
f 207/1/13 259/2/13 262/3/13
f 263/20/30 261/34/30 260/19/30
f 210/1/17 262/2/17 265/3/17
f 267/7/32 263/8/32 266/9/32
f 266/7/26 209/8/26 212/9/26
f 268/10/26 212/11/26 215/12/26
f 213/32/26 266/6/26 268/4/26
f 274/54/33 218/8/33 276/9/33
f 271/3/26 217/52/26 216/2/26
f 274/26/2 268/45/2 275/25/2
f 270/10/2 268/11/2 269/12/2
f 278/1/13 272/2/13 273/3/13
f 219/55/26 272/2/26 277/3/26
f 281/46/15 277/47/15 278/48/15
f 280/3/26 219/31/26 277/2/26
f 283/36/15 280/37/15 281/38/15
f 298/33/26 243/23/26 299/21/26
f 244/1/26 297/2/26 300/3/26
f 299/33/26 245/23/26 301/21/26
f 300/32/26 299/6/26 301/4/26
f 247/1/26 300/2/26 302/3/26
f 301/33/26 248/23/26 251/21/26
f 302/28/26 301/29/26 251/30/26
f 247/1/26 303/56/26 250/57/26
f 254/4/26 302/5/26 251/6/26
f 11/30/7 63/58/7 14/29/7
f 14/4/7 72/17/7 16/6/7
f 109/9/12 113/54/12 110/8/12
f 140/59/12 188/7/12 186/60/12
f 156/26/26 199/49/26 155/25/26
f 158/26/26 202/49/26 156/25/26
f 160/26/26 202/49/26 158/25/26
f 162/12/26 208/50/26 160/11/26
f 159/3/12 204/1/12 206/2/12
f 168/12/26 214/50/26 166/11/26
f 216/3/2 165/39/2 213/2/2
f 184/9/12 236/7/12 234/8/12
f 246/3/26 195/55/26 193/2/26
f 266/20/12 210/18/12 267/19/12
f 223/3/26 221/39/26 280/2/26
f 48/61/18 46/62/18 47/63/18
f 4/64/7 47/63/7 46/61/7
f 2/64/7 5/63/7 4/61/7
f 51/61/18 47/62/18 50/63/18
f 5/64/7 50/63/7 47/61/7
f 3/64/7 7/63/7 5/61/7
f 55/61/18 50/62/18 54/63/18
f 7/64/7 54/63/7 50/61/7
f 7/61/7 52/65/7 8/63/7
f 52/66/7 9/63/7 8/61/7
f 62/61/18 9/62/18 61/63/18
f 12/64/7 67/63/7 66/61/7
f 13/64/7 70/63/7 67/61/7
f 85/61/34 80/62/34 79/63/34
f 21/64/7 85/63/7 79/61/7
f 86/64/34 89/63/34 90/61/34
f 24/64/7 89/63/7 85/61/7
f 90/64/34 95/63/34 96/61/34
f 92/64/7 95/63/7 89/61/7
f 102/61/35 95/62/35 101/63/35
f 95/61/7 29/62/7 101/63/7
f 106/61/35 101/62/35 105/63/35
f 28/61/7 103/62/7 30/63/7
f 101/61/7 31/62/7 105/63/7
f 28/64/7 31/63/7 29/61/7
f 106/64/33 109/63/33 110/61/33
f 31/64/7 109/63/7 105/61/7
f 30/64/7 33/63/7 31/61/7
f 110/64/36 114/63/36 115/61/36
f 115/64/36 118/63/36 119/61/36
f 35/64/7 118/63/7 114/61/7
f 119/67/16 122/68/16 123/69/16
f 37/64/7 122/63/7 118/61/7
f 36/64/7 39/63/7 37/61/7
f 131/61/14 45/62/14 48/63/14
f 137/61/14 51/62/14 55/63/14
f 140/61/37 55/62/37 58/63/37
f 143/61/14 58/62/14 62/63/14
f 155/64/38 80/63/38 156/61/38
f 78/64/12 153/63/12 75/61/12
f 158/64/16 90/63/16 160/61/16
f 164/61/39 96/62/39 102/63/39
f 166/61/39 102/62/39 106/63/39
f 166/64/36 110/63/36 168/61/36
f 168/64/36 115/63/36 170/61/36
f 170/64/36 119/63/36 172/61/36
f 172/67/16 123/68/16 174/69/16
f 180/61/18 130/62/18 131/63/18
f 184/61/18 134/62/18 137/63/18
f 186/61/5 137/62/5 140/63/5
f 218/61/25 214/62/25 168/63/25
f 218/64/40 170/63/40 220/61/40
f 220/64/40 172/63/40 222/61/40
f 222/67/41 174/68/41 224/69/41
f 230/61/42 179/62/42 180/63/42
f 232/61/42 180/62/42 182/63/42
f 234/61/42 182/62/42 184/63/42
f 189/61/34 239/62/34 188/63/34
f 200/61/26 252/70/26 198/63/26
f 203/61/26 253/70/26 200/63/26
f 205/61/26 257/70/26 203/63/26
f 209/61/26 260/70/26 205/63/26
f 271/71/13 273/72/13 272/73/13
f 276/64/33 220/63/33 279/61/33
f 279/64/33 222/63/33 282/61/33
f 282/67/34 224/68/34 284/69/34
f 228/64/26 285/63/26 286/61/26
f 230/61/26 287/62/26 229/63/26
f 286/64/26 287/63/26 288/61/26
f 231/64/26 286/63/26 289/61/26
f 232/61/26 288/62/26 230/63/26
f 289/64/26 288/63/26 290/61/26
f 233/64/26 289/63/26 291/61/26
f 234/61/26 290/62/26 232/63/26
f 291/64/26 290/63/26 292/61/26
f 235/64/26 291/63/26 293/61/26
f 237/61/26 292/74/26 236/63/26
f 293/64/26 292/63/26 294/61/26
f 238/64/26 293/63/26 295/61/26
f 240/61/26 293/62/26 239/63/26
f 238/71/26 297/72/26 241/73/26
f 297/64/26 298/63/26 299/61/26
f 250/73/26 304/75/26 256/72/26
f 258/61/26 303/62/26 254/63/26
f 259/64/26 304/63/26 305/61/26
f 273/64/26 306/63/26 307/61/26
f 307/76/26 274/63/26 276/61/26
f 278/64/26 307/63/26 308/61/26
f 308/76/26 276/63/26 279/61/26
f 309/61/26 278/62/26 308/63/26
f 309/76/26 279/63/26 282/61/26
f 311/61/26 281/62/26 310/63/26
f 54/61/7 8/76/7 9/63/7
f 9/61/7 56/66/7 61/63/7
f 74/61/12 78/64/12 75/63/12
f 275/61/7 215/76/7 218/63/7
f 261/61/26 304/76/26 258/63/26
f 264/61/26 259/64/26 261/63/26
f 284/61/26 310/76/26 282/63/26
f 159/77/15 84/78/15 157/79/15
f 161/80/13 88/81/13 159/82/13
f 163/80/17 97/81/17 161/82/17
f 165/80/17 100/81/17 163/82/17
f 167/80/17 104/81/17 165/82/17
f 187/77/13 139/78/13 185/79/13
f 44/1/1 3/13/1 2/2/1
f 40/4/2 43/32/2 2/5/2
f 42/7/2 41/53/2 46/8/2
f 40/10/2 1/44/2 41/11/2
f 49/1/1 6/13/1 3/2/1
f 53/1/3 52/13/3 6/2/3
f 53/3/4 57/1/4 56/13/4
f 58/14/5 55/27/5 54/15/5
f 60/1/1 59/13/1 56/2/1
f 64/1/1 63/13/1 59/2/1
f 65/1/6 66/13/6 67/2/6
f 59/17/7 63/83/7 11/6/7
f 10/18/7 11/34/7 13/19/7
f 62/21/2 61/33/2 66/22/2
f 69/1/8 14/13/8 63/2/8
f 68/1/6 67/13/6 70/2/6
f 11/10/7 14/44/7 15/11/7
f 69/3/4 73/1/4 72/13/4
f 71/1/6 70/13/6 74/2/6
f 15/18/7 17/34/7 74/19/7
f 14/24/7 16/45/7 17/25/7
f 73/3/9 77/1/9 76/13/9
f 78/27/10 74/15/10 79/16/10
f 72/28/7 76/35/7 18/29/7
f 17/7/7 19/53/7 79/8/7
f 16/10/7 18/44/7 19/11/7
f 81/3/4 84/1/4 83/13/4
f 82/28/7 83/35/7 20/29/7
f 18/24/7 20/45/7 22/25/7
f 77/3/2 81/84/2 82/31/2
f 84/3/4 88/1/4 87/13/4
f 83/32/7 87/5/7 23/6/7
f 20/7/7 23/53/7 25/8/7
f 92/33/43 91/22/43 94/23/43
f 87/20/12 88/18/12 91/34/12
f 100/1/8 99/13/8 98/2/8
f 26/4/7 98/32/7 99/5/7
f 26/7/7 28/53/7 29/8/7
f 98/20/2 93/18/2 94/34/2
f 104/1/8 103/13/8 99/2/8
f 108/1/8 107/13/8 103/2/8
f 30/20/7 103/18/7 107/34/7
f 112/1/8 111/13/8 107/2/8
f 32/30/7 107/28/7 111/35/7
f 33/18/7 35/34/7 114/19/7
f 32/24/7 34/45/7 35/25/7
f 117/1/1 116/13/1 111/2/1
f 111/32/7 116/5/7 36/6/7
f 34/10/7 36/44/7 37/11/7
f 121/1/1 120/13/1 116/2/1
f 116/7/7 120/53/7 38/8/7
f 129/36/13 128/85/13 127/37/13
f 127/39/7 128/40/7 44/2/7
f 126/28/2 127/35/2 40/29/2
f 125/18/2 42/34/2 45/19/2
f 124/24/2 40/45/2 42/25/2
f 133/36/13 132/85/13 128/37/13
f 134/14/14 131/27/14 48/15/14
f 128/39/7 132/40/7 49/2/7
f 136/36/13 135/85/13 132/37/13
f 49/3/7 132/39/7 135/40/7
f 139/36/13 138/85/13 135/37/13
f 135/39/7 138/40/7 57/2/7
f 142/36/13 141/85/13 138/37/13
f 138/39/7 141/40/7 60/2/7
f 145/36/13 144/85/13 141/37/13
f 146/1/6 65/13/6 68/2/6
f 141/39/7 144/40/7 64/2/7
f 143/21/2 62/33/2 65/22/2
f 149/36/13 148/85/13 144/37/13
f 147/1/6 68/13/6 71/2/6
f 64/3/7 144/39/7 148/40/7
f 152/36/15 151/85/15 148/37/15
f 150/1/6 71/13/6 75/2/6
f 148/39/7 151/40/7 73/2/7
f 154/36/15 81/85/15 151/37/15
f 151/39/7 81/40/7 77/2/7
f 157/36/15 84/85/15 81/37/15
f 86/14/16 158/27/16 156/15/16
f 160/27/16 90/15/16 96/16/16
f 97/33/7 94/22/7 91/23/7
f 169/36/17 112/85/17 108/37/17
f 171/36/13 117/85/13 112/37/13
f 171/41/13 173/86/13 121/42/13
f 178/36/13 129/85/13 126/37/13
f 177/32/2 126/5/2 124/6/2
f 176/7/2 125/53/2 130/8/2
f 175/10/2 124/44/2 125/11/2
f 181/36/13 133/85/13 129/37/13
f 182/14/18 180/27/18 131/15/18
f 183/36/13 136/85/13 133/37/13
f 185/36/13 139/85/13 136/37/13
f 189/20/19 188/18/19 140/34/19
f 190/36/13 145/85/13 142/37/13
f 191/1/6 146/13/6 147/2/6
f 189/21/2 143/33/2 146/22/2
f 193/36/13 149/85/13 145/37/13
f 192/1/6 147/13/6 150/2/6
f 195/36/15 152/85/15 149/37/15
f 194/1/6 150/13/6 153/2/6
f 197/36/15 154/85/15 152/37/15
f 156/12/20 200/10/20 198/44/20
f 196/26/12 153/24/12 199/45/12
f 201/36/15 157/85/15 154/37/15
f 202/26/21 203/24/21 200/45/21
f 159/46/15 157/87/15 201/47/15
f 160/12/22 205/10/22 203/44/22
f 159/1/23 206/13/23 207/2/23
f 208/20/21 209/18/21 205/34/21
f 207/3/24 210/1/24 163/13/24
f 212/7/25 209/53/25 208/8/25
f 211/49/26 208/88/26 162/25/26
f 210/1/24 213/13/24 165/2/24
f 215/18/25 212/34/25 211/19/25
f 214/50/26 211/89/26 164/11/26
f 217/46/17 167/87/17 165/47/17
f 219/36/17 169/85/17 167/37/17
f 219/41/13 221/86/13 171/42/13
f 223/46/13 173/87/13 171/47/13
f 228/1/13 178/13/13 177/2/13
f 227/28/2 177/35/2 175/29/2
f 226/18/2 176/34/2 179/19/2
f 225/24/2 175/45/2 176/25/2
f 231/1/13 181/13/13 178/2/13
f 233/1/13 183/13/13 181/2/13
f 235/1/13 185/13/13 183/2/13
f 186/20/22 237/18/22 236/34/22
f 238/1/13 187/13/13 185/2/13
f 188/51/12 239/90/12 237/19/12
f 241/1/13 190/13/13 187/2/13
f 242/1/6 191/13/6 192/2/6
f 189/33/2 191/22/2 242/23/2
f 244/1/13 193/13/13 190/2/13
f 243/1/6 192/13/6 194/2/6
f 247/1/27 246/13/27 193/2/27
f 245/1/6 194/13/6 196/2/6
f 250/1/13 249/13/13 246/2/13
f 253/18/28 254/34/28 251/19/28
f 249/3/26 197/55/26 195/52/26
f 252/20/12 251/18/12 248/34/12
f 256/1/29 255/13/29 249/2/29
f 254/7/30 253/53/30 257/8/30
f 255/3/26 201/55/26 197/52/26
f 259/1/13 206/13/13 255/2/13
f 260/9/31 261/7/31 258/53/31
f 201/3/26 255/1/26 206/13/26
f 207/1/13 206/13/13 259/2/13
f 263/20/30 264/18/30 261/34/30
f 210/1/17 207/13/17 262/2/17
f 267/7/32 264/53/32 263/8/32
f 266/7/26 263/53/26 209/8/26
f 268/10/26 266/44/26 212/11/26
f 213/32/26 210/5/26 266/6/26
f 274/54/33 275/91/33 218/8/33
f 271/3/26 272/55/26 217/52/26
f 274/26/2 269/24/2 268/45/2
f 270/10/2 271/44/2 268/11/2
f 278/1/13 277/13/13 272/2/13
f 219/55/26 217/52/26 272/2/26
f 281/46/15 280/87/15 277/47/15
f 280/3/26 221/84/26 219/31/26
f 283/36/15 223/85/15 280/37/15
f 298/33/26 242/22/26 243/23/26
f 244/1/26 241/13/26 297/2/26
f 299/33/26 243/22/26 245/23/26
f 300/32/26 297/5/26 299/6/26
f 247/1/26 244/13/26 300/2/26
f 301/33/26 245/22/26 248/23/26
f 302/28/26 300/35/26 301/29/26
f 247/1/26 302/13/26 303/56/26
f 254/4/26 303/32/26 302/5/26
f 48/61/18 45/64/18 46/62/18
f 4/64/7 5/62/7 47/63/7
f 2/64/7 3/62/7 5/63/7
f 51/61/18 48/64/18 47/62/18
f 5/64/7 7/62/7 50/63/7
f 3/64/7 6/62/7 7/63/7
f 55/61/18 51/64/18 50/62/18
f 7/64/7 8/62/7 54/63/7
f 7/61/7 6/92/7 52/65/7
f 52/66/7 56/70/7 9/63/7
f 62/61/18 58/64/18 9/62/18
f 12/64/7 13/62/7 67/63/7
f 13/64/7 15/62/7 70/63/7
f 85/61/34 86/64/34 80/62/34
f 21/64/7 22/62/7 85/63/7
f 86/64/34 85/62/34 89/63/34
f 24/64/7 25/62/7 89/63/7
f 90/64/34 89/62/34 95/63/34
f 92/64/7 93/62/7 95/63/7
f 102/61/35 96/64/35 95/62/35
f 95/61/7 27/64/7 29/62/7
f 106/61/35 102/64/35 101/62/35
f 28/61/7 99/64/7 103/62/7
f 101/61/7 29/64/7 31/62/7
f 28/64/7 30/62/7 31/63/7
f 106/64/33 105/62/33 109/63/33
f 31/64/7 33/62/7 109/63/7
f 30/64/7 32/62/7 33/63/7
f 110/64/36 113/62/36 114/63/36
f 115/64/36 114/62/36 118/63/36
f 35/64/7 37/62/7 118/63/7
f 119/67/16 118/93/16 122/68/16
f 37/64/7 39/62/7 122/63/7
f 36/64/7 38/62/7 39/63/7
f 131/61/14 130/64/14 45/62/14
f 137/61/14 134/64/14 51/62/14
f 140/61/37 137/64/37 55/62/37
f 143/61/14 140/64/14 58/62/14
f 155/64/38 78/62/38 80/63/38
f 78/64/12 155/62/12 153/63/12
f 158/64/16 86/62/16 90/63/16
f 164/61/39 162/64/39 96/62/39
f 166/61/39 164/64/39 102/62/39
f 166/64/36 106/62/36 110/63/36
f 168/64/36 110/62/36 115/63/36
f 170/64/36 115/62/36 119/63/36
f 172/67/16 119/93/16 123/68/16
f 180/61/18 179/64/18 130/62/18
f 184/61/18 182/64/18 134/62/18
f 186/61/5 184/64/5 137/62/5
f 218/61/25 215/64/25 214/62/25
f 218/64/40 168/62/40 170/63/40
f 220/64/40 170/62/40 172/63/40
f 222/67/41 172/93/41 174/68/41
f 230/61/42 229/64/42 179/62/42
f 232/61/42 230/64/42 180/62/42
f 234/61/42 232/64/42 182/62/42
f 189/61/34 240/64/34 239/62/34
f 200/61/26 253/66/26 252/70/26
f 203/61/26 257/66/26 253/70/26
f 205/61/26 260/66/26 257/70/26
f 209/61/26 263/66/26 260/70/26
f 271/71/13 270/75/13 273/72/13
f 276/64/33 218/62/33 220/63/33
f 279/64/33 220/62/33 222/63/33
f 282/67/34 222/93/34 224/68/34
f 228/64/26 227/62/26 285/63/26
f 230/61/26 288/64/26 287/62/26
f 286/64/26 285/62/26 287/63/26
f 231/64/26 228/62/26 286/63/26
f 232/61/26 290/64/26 288/62/26
f 289/64/26 286/62/26 288/63/26
f 233/64/26 231/62/26 289/63/26
f 234/61/26 292/64/26 290/62/26
f 291/64/26 289/62/26 290/63/26
f 235/64/26 233/62/26 291/63/26
f 237/61/26 294/76/26 292/74/26
f 293/64/26 291/62/26 292/63/26
f 238/64/26 235/62/26 293/63/26
f 240/61/26 295/64/26 293/62/26
f 238/71/26 296/75/26 297/72/26
f 297/64/26 296/62/26 298/63/26
f 250/73/26 303/71/26 304/75/26
f 258/61/26 304/64/26 303/62/26
f 259/64/26 256/62/26 304/63/26
f 273/64/26 270/62/26 306/63/26
f 307/76/26 306/74/26 274/63/26
f 278/64/26 273/62/26 307/63/26
f 308/76/26 307/74/26 276/63/26
f 309/61/26 281/64/26 278/62/26
f 309/76/26 308/74/26 279/63/26
f 311/61/26 283/64/26 281/62/26
f 159/77/15 88/94/15 84/78/15
f 161/80/13 97/95/13 88/81/13
f 163/80/17 100/95/17 97/81/17
f 165/80/17 104/95/17 100/81/17
f 167/80/17 108/95/17 104/81/17
f 187/77/13 142/94/13 139/78/13
