# Blender 5.1.2
# www.blender.org
mtllib room38.mtl
o 01-Caves.038
v -80.043144 -14.075359 100.087349
v -80.043144 -24.075359 100.087349
v -80.043144 -14.075358 110.087349
v -70.043121 -14.075359 100.087349
v -80.043144 -11.575359 100.087349
v -70.043121 -11.575359 100.087349
v -80.043144 -11.575358 110.087349
v -70.043121 -11.575358 110.087349
v -80.043144 -11.575357 120.087349
v -70.043121 -11.575357 120.087349
v -80.043144 -11.575357 130.087265
v -80.043144 -14.075357 120.087349
v -80.043144 -24.075357 120.087349
v -80.043144 -14.075357 130.087265
v -80.043144 -24.075357 130.087265
v -80.043144 -14.075356 140.087341
v -80.043144 -24.075356 140.087341
v -80.043144 -14.075356 150.087341
v -80.043144 -11.575356 140.087341
v -70.043121 -11.575356 140.087341
v -80.043144 -11.575356 150.087341
v -70.043121 -11.575356 150.087341
v -80.043144 -14.075356 150.087341
v -70.043121 -14.075356 150.087341
v -80.043144 -24.075356 150.087341
v -80.043144 -31.575356 150.087341
v -70.043121 -24.075356 150.087341
v -70.043121 -31.575356 150.087341
v -70.043121 -24.075356 160.087265
v -70.043121 -14.075355 160.087265
v -70.043121 -31.575356 160.087265
v -60.043121 -31.575356 160.087265
v -50.043121 -31.575356 160.087265
v -60.043121 -31.575356 150.087341
v -60.043121 -31.575356 140.087341
v -50.043121 -31.575356 150.087341
v -40.043121 -31.575356 150.087341
v -50.043121 -24.075356 150.087341
v -50.043121 -31.575356 140.087341
v -50.043121 -31.575357 130.087265
v -40.043121 -31.575356 140.087341
v -30.043121 -31.575356 140.087341
v -40.043121 -41.575352 140.087341
v -40.043121 -31.575357 130.087265
v -40.043121 -31.575357 120.087349
v -40.043121 -41.575352 130.087265
v -30.043121 -41.575352 130.087265
v -40.043121 -41.575356 120.087349
v -30.043121 -41.575356 120.087349
v -30.043121 -31.575357 120.087349
v -30.043121 -31.575359 110.087349
v -20.043121 -31.575357 120.087349
v -30.043121 -31.575357 130.087265
v -20.043121 -31.575357 130.087265
v -20.043121 -31.575356 140.087341
v -10.043159 -31.575357 130.087265
v -10.043159 -31.575356 140.087341
v -10.043159 -24.075357 130.087265
v -10.043159 -31.575357 120.087349
v -10.043159 -24.075357 120.087349
v -10.043159 -31.575359 110.087349
v -20.043121 -31.575359 110.087349
v -10.043159 -31.575359 100.087349
v -10.043159 -24.075359 110.087349
v -10.043159 -24.075359 100.087349
v -10.043159 -16.575359 110.087349
v -10.043159 -16.575359 100.087349
v -10.043159 -16.575357 120.087349
v -20.043121 -16.575359 110.087349
v -30.043121 -16.575359 110.087349
v -20.043121 -16.575359 100.087349
v -20.043121 -16.575357 120.087349
v -20.043121 -14.075358 110.087349
v -20.043121 -14.075357 120.087349
v -30.043121 -14.075358 110.087349
v -30.043121 -14.075359 100.087349
v -40.043121 -14.075358 110.087349
v -30.043121 -14.075357 120.087349
v -40.043121 -14.075357 120.087349
v -30.043121 -14.075357 130.087265
v -30.043121 -11.575357 120.087349
v -40.043121 -11.575357 120.087349
v -30.043121 -11.575357 130.087265
v -30.043121 -11.575356 140.087341
v -40.043121 -11.575356 140.087341
v -30.043121 -14.075356 140.087341
v -40.043121 -14.075356 140.087341
v -30.043121 -14.075356 150.087341
v -20.043121 -14.075356 140.087341
v -20.043121 -14.075356 150.087341
v -20.043121 -16.575356 140.087341
v -20.043121 -14.075357 130.087265
v -20.043121 -16.575357 130.087265
v -10.043159 -16.575357 130.087265
v -10.043159 -16.575356 140.087341
v -10.043159 -16.575356 150.087341
v -10.043159 -24.075356 140.087341
v -10.043159 -24.075356 150.087341
v -10.043159 -24.075356 160.087265
v -10.043159 -31.575356 150.087341
v -10.043159 -31.575356 160.087265
v -20.043121 -31.575356 150.087341
v -30.043121 -31.575356 150.087341
v -20.043121 -31.575356 160.087265
v -30.043121 -31.575356 160.087265
v -20.043121 -24.075356 160.087265
v -20.043121 -16.575356 160.087265
v -30.043121 -24.075356 160.087265
v -30.043121 -16.575356 160.087265
v -40.043121 -16.575356 160.087265
v -30.043121 -24.075356 160.087265
v -30.043121 -16.575356 150.087341
v -40.043121 -16.575356 150.087341
v -20.043121 -16.575356 150.087341
v -40.043121 -14.075356 150.087341
v -40.043121 -24.075356 150.087341
v -40.043121 -24.075356 160.087265
v -40.043121 -31.575356 160.087265
v -40.043121 -24.075356 160.087265
v -50.043121 -14.075356 150.087341
v -40.043121 -11.575356 150.087341
v -50.043121 -11.575356 150.087341
v -50.043121 -11.575356 140.087341
v -60.043121 -11.575356 150.087341
v -50.043121 -11.575355 160.087265
v -50.043121 -14.075355 160.087265
v -60.043121 -11.575355 160.087265
v -70.043121 -11.575355 160.087265
v -50.043121 -24.075356 160.087265
v -60.043121 -11.575356 140.087341
v -60.043121 -11.575357 130.087265
v -50.043121 -11.575357 130.087265
v -60.043121 -11.575357 120.087349
v -70.043121 -11.575357 130.087265
v -60.043121 -11.575358 110.087349
v -50.043121 -11.575357 120.087349
v -50.043121 -11.575358 110.087349
v -50.043121 -11.575359 100.087349
v -40.043121 -11.575358 110.087349
v -40.043121 -11.575359 100.087349
v -40.043121 -14.075359 100.087349
v -40.043121 -14.075359 100.087349
v -40.043121 -24.075359 100.087349
v -50.043121 -14.075359 100.087349
v -60.043121 -14.075359 100.087349
v -50.043121 -14.075360 90.087349
v -50.043121 -24.075359 100.087349
v -50.043121 -31.575359 100.087349
v -50.043121 -24.075359 90.087349
v -50.043121 -31.575359 90.087349
v -60.043121 -31.575359 90.087349
v -50.043121 -24.075359 90.087349
v -60.043121 -24.075359 90.087349
v -70.043121 -24.075359 90.087349
v -60.043121 -14.075360 90.087349
v -70.043121 -14.075360 90.087349
v -70.043121 -31.575359 90.087349
v -70.043121 -24.075359 100.087349
v -70.043121 -31.575359 100.087349
v -70.043121 -31.575359 110.087349
v -80.043144 -31.575359 100.087349
v -60.043121 -31.575359 100.087349
v -60.043121 -31.575359 110.087349
v -60.043121 -31.575357 120.087349
v -50.043121 -31.575359 110.087349
v -50.043121 -31.575357 120.087349
v -40.043121 -31.575359 110.087349
v -40.043121 -31.575359 100.087349
v -30.043121 -31.575359 100.087349
v -40.043121 -31.575359 90.087349
v -40.043121 -24.075359 90.087349
v -30.043121 -31.575359 90.087349
v -30.043121 -24.075359 90.087349
v -20.043121 -31.575359 90.087349
v -20.043121 -31.575359 100.087349
v -20.043121 -24.075359 90.087349
v -20.043121 -24.075359 90.087349
v -20.043121 -16.575359 90.087349
v -30.043121 -16.575359 90.087349
v -40.043121 -16.575359 90.087349
v -30.043121 -16.575359 100.087349
v -40.043121 -16.575359 100.087349
v -20.043121 -24.075359 100.087349
v -10.043159 -24.075359 100.087349
v -60.043121 -31.575357 130.087265
v -70.043121 -31.575357 120.087349
v -80.043144 -31.575357 120.087349
v -70.043121 -31.575357 130.087265
v -80.043144 -31.575357 130.087265
v -70.043121 -31.575356 140.087341
v -80.043144 -31.575356 140.087341
v -80.043144 -31.575359 110.087349
v -80.043144 -24.075359 110.087349
v -60.043121 -11.575359 100.087349
v -40.043121 -11.575357 130.087265
v -10.043159 -16.575356 160.087265
v -30.043121 -41.575352 140.087341
v -80.043144 -24.075356 150.087341
vn -0.0000 -0.0000 1.0000
vn 1.0000 -0.0000 -0.0000
vn -0.0000 -1.0000 -0.0000
vn -0.0000 -0.0000 -1.0000
vn -0.0000 1.0000 -0.0000
vn -1.0000 -0.0000 -0.0000
vt 0.878431 0.784313
vt 0.998039 0.872549
vt 0.878431 0.872549
vt 0.252941 0.252941
vt 0.372549 0.278432
vt 0.252941 0.278432
vt 0.752941 0.878431
vt 0.872549 0.998039
vt 0.752941 0.998039
vt 0.501961 0.878431
vt 0.621569 0.998039
vt 0.501961 0.998039
vt 0.372549 0.372549
vt 0.252941 0.372549
vt 0.252941 0.501961
vt 0.372549 0.621569
vt 0.252941 0.621569
vt 0.878431 0.752941
vt 0.998039 0.784313
vt 0.372549 0.252941
vt 0.872549 0.878431
vt 0.621569 0.878431
vt 0.372549 0.501961
vt 0.998039 0.752941
s 0
usemtl Material.001
f 4/1/1 2/2/1 158/3/1
f 1/1/2 193/2/2 2/3/2
f 5/4/2 3/5/2 1/6/2
f 6/4/1 1/5/1 4/6/1
f 8/7/3 5/8/3 6/9/3
f 10/7/3 7/8/3 8/9/3
f 7/4/2 12/5/2 3/6/2
f 134/7/3 9/8/3 10/9/3
f 9/4/2 14/5/2 12/6/2
f 12/1/2 15/2/2 13/3/2
f 3/1/2 13/2/2 193/3/2
f 14/1/2 17/2/2 15/3/2
f 11/4/2 16/5/2 14/6/2
f 16/1/2 198/2/2 17/3/2
f 19/4/2 18/5/2 16/6/2
f 22/7/3 19/8/3 20/9/3
f 20/7/3 11/8/3 134/9/3
f 21/4/4 24/5/4 23/6/4
f 23/1/4 27/2/4 25/3/4
f 25/10/4 28/11/4 26/12/4
f 27/10/2 31/11/2 28/12/2
f 24/1/2 29/2/2 27/3/2
f 34/7/5 31/8/5 32/9/5
f 36/7/5 32/8/5 33/9/5
f 39/7/5 34/8/5 36/9/5
f 35/7/5 28/8/5 34/9/5
f 129/10/6 36/11/6 33/12/6
f 38/10/4 37/11/4 36/12/4
f 41/7/5 36/8/5 37/9/5
f 40/7/5 35/8/5 39/9/5
f 44/7/5 39/8/5 41/9/5
f 42/7/5 37/8/5 103/9/5
f 41/4/4 197/13/4 43/14/4
f 44/4/2 43/13/2 46/14/2
f 45/7/5 40/8/5 44/9/5
f 45/4/2 46/13/2 48/14/2
f 47/15/5 43/16/5 197/17/5
f 49/15/5 46/16/5 47/17/5
f 50/4/1 48/13/1 49/14/1
f 53/4/6 49/13/6 47/14/6
f 62/7/5 50/8/5 52/9/5
f 51/7/5 45/8/5 50/9/5
f 52/7/5 53/8/5 54/9/5
f 42/4/6 47/13/6 197/14/6
f 54/7/5 42/8/5 55/9/5
f 59/7/5 54/8/5 56/9/5
f 56/7/5 55/8/5 57/9/5
f 97/10/6 56/11/6 57/12/6
f 58/10/6 59/11/6 56/12/6
f 60/10/6 61/11/6 59/12/6
f 61/7/5 52/8/5 59/9/5
f 63/7/5 62/8/5 61/9/5
f 64/10/6 63/11/6 61/12/6
f 66/18/6 65/2/6 64/3/6
f 68/18/6 64/2/6 60/3/6
f 66/7/3 71/8/3 67/9/3
f 68/7/3 69/8/3 66/9/3
f 73/4/1 70/5/1 69/6/1
f 69/7/3 181/8/3 71/9/3
f 74/4/6 69/5/6 72/6/6
f 74/7/3 75/8/3 73/9/3
f 75/4/6 181/5/6 70/6/6
f 75/7/3 141/8/3 76/9/3
f 78/7/3 77/8/3 75/9/3
f 81/4/1 79/5/1 78/6/1
f 92/7/3 78/8/3 74/9/3
f 83/4/6 78/5/6 80/6/6
f 84/4/6 80/5/6 86/6/6
f 85/4/4 86/5/4 87/6/4
f 88/7/3 87/8/3 86/9/3
f 90/7/3 86/8/3 89/9/3
f 89/7/3 80/8/3 92/9/3
f 90/4/6 91/5/6 114/6/6
f 89/4/6 93/5/6 91/6/6
f 92/4/6 72/5/6 93/6/6
f 94/7/3 72/8/3 68/9/3
f 95/7/3 93/8/3 94/9/3
f 95/18/6 58/2/6 97/3/6
f 94/18/6 60/2/6 58/3/6
f 96/7/3 91/8/3 95/9/3
f 96/18/6 97/2/6 98/3/6
f 98/10/6 57/11/6 100/12/6
f 196/18/6 98/2/6 99/3/6
f 99/10/6 100/11/6 101/12/6
f 57/7/5 102/8/5 100/9/5
f 100/7/5 104/8/5 101/9/5
f 102/7/5 105/8/5 104/9/5
f 55/7/5 103/8/5 102/9/5
f 108/10/4 104/11/4 105/12/4
f 106/10/4 101/11/4 104/12/4
f 107/18/4 99/2/4 106/3/4
f 109/18/4 106/2/4 108/3/4
f 110/18/4 111/2/4 119/3/4
f 109/7/3 113/8/3 112/9/3
f 107/7/3 112/8/3 114/9/3
f 115/4/4 112/5/4 113/6/4
f 88/4/4 114/5/4 112/6/4
f 196/7/3 114/8/3 96/9/3
f 113/18/2 117/2/2 116/3/2
f 120/18/4 116/2/4 38/3/4
f 116/10/2 118/11/2 37/12/2
f 119/10/4 105/11/4 118/12/4
f 103/7/5 118/8/5 105/9/5
f 122/4/4 115/5/4 120/6/4
f 121/4/6 87/5/6 115/6/6
f 121/7/3 123/8/3 85/9/3
f 122/7/3 130/8/3 123/9/3
f 125/7/3 124/8/3 122/9/3
f 125/4/6 120/5/6 126/6/6
f 127/7/3 22/8/3 124/9/3
f 22/4/2 30/5/2 24/6/2
f 126/18/6 38/2/6 129/3/6
f 124/7/3 20/8/3 130/9/3
f 123/7/3 131/8/3 132/9/3
f 130/7/3 134/8/3 131/9/3
f 132/7/3 133/8/3 136/9/3
f 131/7/3 10/8/3 133/9/3
f 136/7/3 135/8/3 137/9/3
f 133/7/3 8/8/3 135/9/3
f 195/7/3 136/8/3 82/9/3
f 82/7/3 137/8/3 139/9/3
f 137/7/3 194/8/3 138/9/3
f 139/7/3 138/8/3 140/9/3
f 139/4/6 141/5/6 77/6/6
f 82/4/6 77/5/6 79/6/6
f 140/4/1 144/5/1 142/6/1
f 142/18/1 147/2/1 143/3/1
f 138/4/1 145/5/1 144/6/1
f 144/7/3 155/8/3 146/9/3
f 144/1/6 149/2/6 147/3/6
f 143/10/1 148/11/1 168/12/1
f 147/10/6 150/11/6 148/12/6
f 150/7/5 162/8/5 148/9/5
f 152/10/1 151/11/1 150/12/1
f 146/1/1 153/2/1 152/3/1
f 155/1/1 154/2/1 153/3/1
f 153/10/1 157/11/1 151/12/1
f 145/7/3 156/8/3 155/9/3
f 156/1/2 158/2/2 154/3/2
f 154/10/2 159/11/2 157/12/2
f 158/10/1 161/11/1 159/12/1
f 162/7/5 160/8/5 163/9/5
f 159/7/5 192/8/5 160/9/5
f 151/7/5 159/8/5 162/9/5
f 148/7/5 163/8/5 165/9/5
f 163/7/5 186/8/5 164/9/5
f 165/7/5 164/8/5 166/9/5
f 167/7/5 166/8/5 45/9/5
f 168/7/5 165/8/5 167/9/5
f 169/7/5 167/8/5 51/9/5
f 172/7/5 168/8/5 169/9/5
f 171/10/2 168/11/2 170/12/2
f 173/10/1 170/11/1 172/12/1
f 177/10/1 172/11/1 174/12/1
f 174/7/5 169/8/5 175/9/5
f 183/10/6 174/11/6 175/12/6
f 178/18/1 173/2/1 177/3/1
f 71/7/3 179/8/3 178/9/3
f 71/18/6 176/2/6 183/3/6
f 179/18/1 171/2/1 173/3/1
f 181/7/3 180/8/3 179/9/3
f 76/4/1 182/5/1 181/6/1
f 180/18/2 143/2/2 171/3/2
f 184/10/1 175/11/1 63/12/1
f 67/18/1 183/2/1 184/3/1
f 175/7/5 51/8/5 62/9/5
f 166/7/5 185/8/5 40/9/5
f 164/7/5 188/8/5 185/9/5
f 186/7/5 189/8/5 188/9/5
f 160/7/5 187/8/5 186/9/5
f 188/7/5 191/8/5 190/9/5
f 185/7/5 190/8/5 35/9/5
f 190/7/5 26/8/5 28/9/5
f 15/10/2 191/11/2 189/12/2
f 17/10/2 26/11/2 191/12/2
f 13/10/2 189/11/2 187/12/2
f 193/10/2 187/11/2 192/12/2
f 2/10/2 192/11/2 161/12/2
f 194/4/1 4/5/1 145/6/1
f 135/7/3 6/8/3 194/9/3
f 85/7/3 132/8/3 195/9/3
f 4/1/1 1/19/1 2/2/1
f 1/1/2 3/19/2 193/2/2
f 5/4/2 7/20/2 3/5/2
f 6/4/1 5/20/1 1/5/1
f 8/7/3 7/21/3 5/8/3
f 10/7/3 9/21/3 7/8/3
f 7/4/2 9/20/2 12/5/2
f 134/7/3 11/21/3 9/8/3
f 9/4/2 11/20/2 14/5/2
f 12/1/2 14/19/2 15/2/2
f 3/1/2 12/19/2 13/2/2
f 14/1/2 16/19/2 17/2/2
f 11/4/2 19/20/2 16/5/2
f 16/1/2 18/19/2 198/2/2
f 19/4/2 21/20/2 18/5/2
f 22/7/3 21/21/3 19/8/3
f 20/7/3 19/21/3 11/8/3
f 21/4/4 22/20/4 24/5/4
f 23/1/4 24/19/4 27/2/4
f 25/10/4 27/22/4 28/11/4
f 27/10/2 29/22/2 31/11/2
f 24/1/2 30/19/2 29/2/2
f 34/7/5 28/21/5 31/8/5
f 36/7/5 34/21/5 32/8/5
f 39/7/5 35/21/5 34/8/5
f 35/7/5 190/21/5 28/8/5
f 129/10/6 38/22/6 36/11/6
f 38/10/4 116/22/4 37/11/4
f 41/7/5 39/21/5 36/8/5
f 40/7/5 185/21/5 35/8/5
f 44/7/5 40/21/5 39/8/5
f 42/7/5 41/21/5 37/8/5
f 41/4/4 42/20/4 197/13/4
f 44/4/2 41/20/2 43/13/2
f 45/7/5 166/21/5 40/8/5
f 45/4/2 44/20/2 46/13/2
f 47/15/5 46/23/5 43/16/5
f 49/15/5 48/23/5 46/16/5
f 50/4/1 45/20/1 48/13/1
f 53/4/6 50/20/6 49/13/6
f 62/7/5 51/21/5 50/8/5
f 51/7/5 167/21/5 45/8/5
f 52/7/5 50/21/5 53/8/5
f 42/4/6 53/20/6 47/13/6
f 54/7/5 53/21/5 42/8/5
f 59/7/5 52/21/5 54/8/5
f 56/7/5 54/21/5 55/8/5
f 97/10/6 58/22/6 56/11/6
f 58/10/6 60/22/6 59/11/6
f 60/10/6 64/22/6 61/11/6
f 61/7/5 62/21/5 52/8/5
f 63/7/5 175/21/5 62/8/5
f 64/10/6 65/22/6 63/11/6
f 66/18/6 67/24/6 65/2/6
f 68/18/6 66/24/6 64/2/6
f 66/7/3 69/21/3 71/8/3
f 68/7/3 72/21/3 69/8/3
f 73/4/1 75/20/1 70/5/1
f 69/7/3 70/21/3 181/8/3
f 74/4/6 73/20/6 69/5/6
f 74/7/3 78/21/3 75/8/3
f 75/4/6 76/20/6 181/5/6
f 75/7/3 77/21/3 141/8/3
f 78/7/3 79/21/3 77/8/3
f 81/4/1 82/20/1 79/5/1
f 92/7/3 80/21/3 78/8/3
f 83/4/6 81/20/6 78/5/6
f 84/4/6 83/20/6 80/5/6
f 85/4/4 84/20/4 86/5/4
f 88/7/3 115/21/3 87/8/3
f 90/7/3 88/21/3 86/8/3
f 89/7/3 86/21/3 80/8/3
f 90/4/6 89/20/6 91/5/6
f 89/4/6 92/20/6 93/5/6
f 92/4/6 74/20/6 72/5/6
f 94/7/3 93/21/3 72/8/3
f 95/7/3 91/21/3 93/8/3
f 95/18/6 94/24/6 58/2/6
f 94/18/6 68/24/6 60/2/6
f 96/7/3 114/21/3 91/8/3
f 96/18/6 95/24/6 97/2/6
f 98/10/6 97/22/6 57/11/6
f 196/18/6 96/24/6 98/2/6
f 99/10/6 98/22/6 100/11/6
f 57/7/5 55/21/5 102/8/5
f 100/7/5 102/21/5 104/8/5
f 102/7/5 103/21/5 105/8/5
f 55/7/5 42/21/5 103/8/5
f 108/10/4 106/22/4 104/11/4
f 106/10/4 99/22/4 101/11/4
f 107/18/4 196/24/4 99/2/4
f 109/18/4 107/24/4 106/2/4
f 110/18/4 109/24/4 111/2/4
f 109/7/3 110/21/3 113/8/3
f 107/7/3 109/21/3 112/8/3
f 115/4/4 88/20/4 112/5/4
f 88/4/4 90/20/4 114/5/4
f 196/7/3 107/21/3 114/8/3
f 113/18/2 110/24/2 117/2/2
f 120/18/4 115/24/4 116/2/4
f 116/10/2 117/22/2 118/11/2
f 119/10/4 111/22/4 105/11/4
f 103/7/5 37/21/5 118/8/5
f 122/4/4 121/20/4 115/5/4
f 121/4/6 85/20/6 87/5/6
f 121/7/3 122/21/3 123/8/3
f 122/7/3 124/21/3 130/8/3
f 125/7/3 127/21/3 124/8/3
f 125/4/6 122/20/6 120/5/6
f 127/7/3 128/21/3 22/8/3
f 22/4/2 128/20/2 30/5/2
f 126/18/6 120/24/6 38/2/6
f 124/7/3 22/21/3 20/8/3
f 123/7/3 130/21/3 131/8/3
f 130/7/3 20/21/3 134/8/3
f 132/7/3 131/21/3 133/8/3
f 131/7/3 134/21/3 10/8/3
f 136/7/3 133/21/3 135/8/3
f 133/7/3 10/21/3 8/8/3
f 195/7/3 132/21/3 136/8/3
f 82/7/3 136/21/3 137/8/3
f 137/7/3 135/21/3 194/8/3
f 139/7/3 137/21/3 138/8/3
f 139/4/6 140/20/6 141/5/6
f 82/4/6 139/20/6 77/5/6
f 140/4/1 138/20/1 144/5/1
f 142/18/1 144/24/1 147/2/1
f 138/4/1 194/20/1 145/5/1
f 144/7/3 145/21/3 155/8/3
f 144/1/6 146/19/6 149/2/6
f 143/10/1 147/22/1 148/11/1
f 147/10/6 149/22/6 150/11/6
f 150/7/5 151/21/5 162/8/5
f 152/10/1 153/22/1 151/11/1
f 146/1/1 155/19/1 153/2/1
f 155/1/1 156/19/1 154/2/1
f 153/10/1 154/22/1 157/11/1
f 145/7/3 4/21/3 156/8/3
f 156/1/2 4/19/2 158/2/2
f 154/10/2 158/22/2 159/11/2
f 158/10/1 2/22/1 161/11/1
f 162/7/5 159/21/5 160/8/5
f 159/7/5 161/21/5 192/8/5
f 151/7/5 157/21/5 159/8/5
f 148/7/5 162/21/5 163/8/5
f 163/7/5 160/21/5 186/8/5
f 165/7/5 163/21/5 164/8/5
f 167/7/5 165/21/5 166/8/5
f 168/7/5 148/21/5 165/8/5
f 169/7/5 168/21/5 167/8/5
f 172/7/5 170/21/5 168/8/5
f 171/10/2 143/22/2 168/11/2
f 173/10/1 171/22/1 170/11/1
f 177/10/1 173/22/1 172/11/1
f 174/7/5 172/21/5 169/8/5
f 183/10/6 176/22/6 174/11/6
f 178/18/1 179/24/1 173/2/1
f 71/7/3 181/21/3 179/8/3
f 71/18/6 178/24/6 176/2/6
f 179/18/1 180/24/1 171/2/1
f 181/7/3 182/21/3 180/8/3
f 76/4/1 141/20/1 182/5/1
f 180/18/2 182/24/2 143/2/2
f 184/10/1 183/22/1 175/11/1
f 67/18/1 71/24/1 183/2/1
f 175/7/5 169/21/5 51/8/5
f 166/7/5 164/21/5 185/8/5
f 164/7/5 186/21/5 188/8/5
f 186/7/5 187/21/5 189/8/5
f 160/7/5 192/21/5 187/8/5
f 188/7/5 189/21/5 191/8/5
f 185/7/5 188/21/5 190/8/5
f 190/7/5 191/21/5 26/8/5
f 15/10/2 17/22/2 191/11/2
f 17/10/2 198/22/2 26/11/2
f 13/10/2 15/22/2 189/11/2
f 193/10/2 13/22/2 187/11/2
f 2/10/2 193/22/2 192/11/2
f 194/4/1 6/20/1 4/5/1
f 135/7/3 8/21/3 6/8/3
f 85/7/3 123/21/3 132/8/3
