# Blender 5.1.2
# www.blender.org
mtllib room39.mtl
o 01-Caves.039
v 479.956909 -36.575386 -229.912659
v 479.956909 -36.575386 -239.912659
v 479.956909 -21.575384 -229.912659
v 479.956909 -36.575382 -219.912704
v 489.956909 -36.575386 -229.912659
v 489.956909 -36.575386 -239.912659
v 489.956909 -21.575384 -229.912659
v 499.956909 -36.575386 -229.912659
v 489.956909 -36.575382 -219.912704
v 489.956909 -36.575382 -209.912659
v 499.956909 -36.575382 -219.912704
v 499.956909 -21.575384 -219.912704
v 499.956909 -36.575382 -209.912659
v 499.956909 -21.575382 -209.912659
v 489.956909 -21.575382 -209.912659
v 479.956909 -21.575382 -209.912659
v 489.956909 -21.575384 -219.912704
v 479.956909 -21.575384 -219.912704
v 479.956909 -36.575382 -209.912659
v 499.956909 -21.575384 -229.912659
v 489.956909 -21.575384 -239.912659
v 479.956909 -21.575384 -239.912659
vn -0.0000 1.0000 -0.0000
vn 1.0000 -0.0000 -0.0000
vn -1.0000 -0.0000 -0.0000
vn -0.0000 -0.0000 1.0000
vn -0.0000 -0.0000 -1.0000
vn -0.0000 -1.0000 -0.0000
vt 0.752941 0.878431
vt 0.872549 0.998039
vt 0.752941 0.998039
vt 0.001961 0.627451
vt 0.121569 0.747059
vt 0.001961 0.747059
vt 0.127451 0.627451
vt 0.247059 0.747059
vt 0.127451 0.747059
vt 0.252941 0.627451
vt 0.372549 0.747059
vt 0.252941 0.747059
vt 0.252941 0.501961
vt 0.372549 0.621569
vt 0.252941 0.621569
vt 0.127451 0.501961
vt 0.247059 0.621569
vt 0.127451 0.621569
vt 0.872549 0.878431
vt 0.121569 0.627451
vt 0.247059 0.627451
vt 0.372549 0.627451
vt 0.372549 0.501961
vt 0.247059 0.501961
s 0
usemtl Material.001
f 6/1/1 1/2/1 5/3/1
f 22/4/2 1/5/2 2/6/2
f 3/7/2 4/8/2 1/9/2
f 5/1/1 4/2/1 9/3/1
f 7/7/3 6/8/3 5/9/3
f 20/10/4 5/11/4 8/12/4
f 8/1/1 9/2/1 11/3/1
f 11/1/1 10/2/1 13/3/1
f 9/1/1 19/2/1 10/3/1
f 12/7/3 8/8/3 11/9/3
f 14/4/3 11/5/3 13/6/3
f 15/7/5 13/8/5 10/9/5
f 14/13/6 17/14/6 12/15/6
f 16/16/5 10/17/5 19/18/5
f 15/13/6 18/14/6 17/15/6
f 12/13/6 7/14/6 20/15/6
f 17/13/6 3/14/6 7/15/6
f 18/10/2 19/11/2 4/12/2
f 7/13/6 22/14/6 21/15/6
f 6/1/1 2/19/1 1/2/1
f 22/4/2 3/20/2 1/5/2
f 3/7/2 18/21/2 4/8/2
f 5/1/1 1/19/1 4/2/1
f 7/7/3 21/21/3 6/8/3
f 20/10/4 7/22/4 5/11/4
f 8/1/1 5/19/1 9/2/1
f 11/1/1 9/19/1 10/2/1
f 9/1/1 4/19/1 19/2/1
f 12/7/3 20/21/3 8/8/3
f 14/4/3 12/20/3 11/5/3
f 15/7/5 14/21/5 13/8/5
f 14/13/6 15/23/6 17/14/6
f 16/16/5 15/24/5 10/17/5
f 15/13/6 16/23/6 18/14/6
f 12/13/6 17/23/6 7/14/6
f 17/13/6 18/23/6 3/14/6
f 18/10/2 16/22/2 19/11/2
f 7/13/6 3/23/6 22/14/6
