# Blender 5.1.2
# www.blender.org
mtllib room22.mtl
o 01-Caves.022
v -320.043091 8.424634 20.087349
v -320.043091 8.424634 30.087387
v -320.043091 5.924634 20.087349
v -320.043091 3.424637 30.087387
v -310.043121 5.924634 20.087349
v -310.043121 3.424637 30.087387
v -310.043121 8.424634 20.087349
v -300.043121 8.424634 20.087349
v -310.043121 8.424634 30.087387
v -300.043121 8.424634 30.087387
v -310.043121 5.924634 30.087387
v -310.043121 5.924635 40.087349
v -300.043121 5.924634 30.087387
v -300.043121 5.924635 40.087349
v -300.043121 3.424637 30.087387
v -290.043121 3.424637 30.087387
v -300.043121 3.424638 40.087349
v -300.043121 5.924634 20.087349
v -290.043121 5.924634 20.087349
v -290.043121 8.424634 20.087349
v -290.043121 8.424634 30.087387
v -290.043121 8.424635 40.087349
v -290.043121 3.424638 40.087349
v -300.043121 8.424635 40.087349
v -310.043121 8.424635 40.087349
v -310.043121 3.424638 40.087349
v -320.043091 8.424635 40.087349
v -320.043091 3.424638 40.087349
vn -1.0000 -0.0000 -0.0000
vn -0.0000 -0.9701 -0.2425
vn 1.0000 -0.0000 -0.0000
vn -0.0000 -1.0000 -0.0000
vn -0.0000 -0.0000 -1.0000
vn -0.0000 -0.0000 1.0000
vt 0.627451 0.941177
vt 0.747059 0.998039
vt 0.627451 0.998039
vt 0.627451 0.878431
vt 0.747059 0.972549
vt 0.752941 0.501961
vt 0.872549 0.621569
vt 0.752941 0.621569
vt 0.252941 0.252941
vt 0.372549 0.278432
vt 0.252941 0.278432
vt 0.627451 0.972549
vt 0.627451 0.909804
vt 0.747059 0.941177
vt 0.747059 0.878431
vt 0.872549 0.501961
vt 0.372549 0.252941
vt 0.747059 0.909804
s 0
usemtl Material.001
f 2/1/1 3/2/1 4/3/1
f 5/4/2 4/2/2 3/3/2
f 5/3/3 9/5/3 6/2/3
f 10/6/4 7/7/4 8/8/4
f 9/9/5 13/10/5 11/11/5
f 11/12/3 26/2/3 6/3/3
f 14/6/4 11/7/4 13/8/4
f 14/12/1 15/2/1 17/3/1
f 23/4/4 15/2/4 16/3/4
f 16/4/2 18/2/2 19/3/2
f 10/12/1 18/2/1 15/3/1
f 19/3/3 21/5/3 16/2/3
f 21/12/3 23/2/3 16/3/3
f 22/13/6 17/2/6 23/3/6
f 24/9/6 12/10/6 14/11/6
f 25/13/6 28/2/6 26/3/6
f 27/1/1 4/2/1 28/3/1
f 6/4/4 28/2/4 4/3/4
f 2/1/1 1/14/1 3/2/1
f 5/4/2 6/15/2 4/2/2
f 5/3/3 7/12/3 9/5/3
f 10/6/4 9/16/4 7/7/4
f 9/9/5 10/17/5 13/10/5
f 11/12/3 12/5/3 26/2/3
f 14/6/4 12/16/4 11/7/4
f 14/12/1 13/5/1 15/2/1
f 23/4/4 17/15/4 15/2/4
f 16/4/2 15/15/2 18/2/2
f 10/12/1 8/5/1 18/2/1
f 19/3/3 20/12/3 21/5/3
f 21/12/3 22/5/3 23/2/3
f 22/13/6 24/18/6 17/2/6
f 24/9/6 25/17/6 12/10/6
f 25/13/6 27/18/6 28/2/6
f 27/1/1 2/14/1 4/2/1
f 6/4/4 26/15/4 28/2/4
