# Blender 5.1.2
# www.blender.org
mtllib room15.mtl
o 01-Caves.015
v -260.043121 18.424623 -129.912659
v -260.043121 18.424623 -119.912651
v -260.043121 30.924623 -129.912659
v -260.043121 10.924618 -129.912659
v -250.043121 10.924618 -129.912659
v -260.043121 10.924619 -119.912651
v -260.043121 20.924623 -129.912659
v -250.043121 20.924623 -129.912659
v -250.043121 20.924622 -139.912659
v -250.043121 30.924623 -129.912659
v -250.043121 25.924623 -129.912659
v -250.043121 25.924622 -139.912659
v -240.043121 25.924623 -129.912659
v -240.043121 30.924623 -129.912659
v -230.043121 25.924623 -129.912659
v -240.043121 25.924622 -139.912659
v -240.043121 18.424622 -139.912659
v -230.043121 25.924622 -139.912659
v -230.043121 18.424622 -139.912659
v -230.043121 20.924622 -139.912659
v -230.043121 20.924623 -129.912659
v -230.043121 10.924617 -139.912659
v -230.043121 10.924618 -129.912659
v -240.043121 10.924617 -139.912659
v -250.043121 10.924617 -139.912659
v -250.043121 18.424622 -139.912659
v -220.043121 10.924618 -129.912659
v -220.043121 10.924619 -119.912651
v -220.043121 15.924627 -129.912659
v -220.043121 20.924623 -129.912659
v -220.043121 20.924622 -139.912659
v -220.043121 30.924623 -129.912659
v -210.043121 30.924623 -129.912659
v -220.043121 28.424625 -139.912659
v -220.043121 33.424625 -119.912651
v -220.043121 30.924623 -119.912651
v -230.043121 30.924623 -129.912659
v -230.043121 30.924623 -119.912651
v -230.043121 33.424625 -119.912651
v -240.043121 30.924623 -119.912651
v -250.043121 30.924623 -119.912651
v -240.043121 33.424625 -119.912651
v -240.043121 33.424625 -109.912613
v -250.043121 33.424625 -119.912651
v -260.043121 33.424625 -119.912651
v -250.043121 33.424625 -109.912613
v -250.043121 33.424625 -99.912651
v -250.043121 35.924622 -109.912613
v -260.043121 33.424625 -109.912613
v -260.043121 18.424625 -109.912613
v -260.043121 33.424625 -99.912651
v -260.043121 18.424625 -99.912651
v -260.043121 33.424625 -89.912651
v -260.043121 20.924625 -89.912651
v -260.043121 33.424625 -79.912689
v -250.043121 33.424625 -89.912651
v -260.043121 18.424625 -89.912651
v -260.043121 10.924621 -89.912651
v -260.043121 10.924622 -79.912689
v -260.043121 10.924620 -99.912651
v -260.043121 10.924619 -109.912613
v -260.043121 20.924627 -79.912689
v -260.043121 10.924622 -69.912651
v -260.043121 20.924627 -69.912651
v -260.043121 10.924623 -59.912651
v -260.043121 20.924629 -59.912651
v -250.043121 10.924623 -59.912651
v -260.043121 10.924623 -49.912651
v -250.043121 10.924623 -49.912651
v -260.043121 20.924629 -49.912651
v -260.043121 10.924624 -39.912651
v -250.043121 10.924624 -39.912651
v -260.043121 20.924629 -39.912651
v -260.043121 28.424633 -39.912651
v -250.043121 30.924629 -39.912651
v -260.043121 30.924629 -49.912651
v -250.043121 33.424629 -49.912651
v -260.043121 30.924629 -59.912651
v -260.043121 30.924627 -69.912651
v -250.043121 33.424629 -59.912651
v -250.043121 30.924629 -59.912651
v -250.043121 30.924627 -69.912651
v -240.043121 30.924629 -59.912651
v -240.043121 30.924627 -69.912651
v -240.043121 33.424629 -59.912651
v -230.043121 30.924629 -59.912651
v -230.043121 30.924627 -69.912651
v -230.043121 33.424629 -59.912651
v -220.043121 30.924629 -59.912651
v -220.043121 30.924627 -69.912651
v -220.043121 33.424629 -59.912651
v -210.043121 33.424629 -59.912651
v -210.043121 33.424629 -49.912651
v -200.043121 33.424629 -59.912651
v -210.043121 33.424629 -69.912651
v -220.043121 33.424629 -69.912651
v -210.043121 33.424625 -79.912689
v -200.043121 33.424629 -69.912651
v -190.043121 33.424629 -69.912651
v -200.043121 33.424625 -79.912689
v -200.043121 33.424625 -89.912651
v -190.043121 33.424625 -79.912689
v -190.043121 33.424625 -89.912651
v -180.043121 33.424625 -79.912689
v -180.043121 33.424625 -89.912651
v -180.043121 33.424629 -69.912651
v -170.043121 33.424625 -79.912689
v -170.043121 33.424625 -89.912651
v -170.043121 33.424629 -69.912651
v -160.043121 33.424625 -79.912689
v -160.043121 33.424625 -89.912651
v -160.043121 33.424629 -69.912651
v -150.043121 33.424625 -79.912689
v -160.043121 30.924627 -69.912651
v -150.043121 30.924627 -69.912651
v -150.043121 25.924627 -69.912651
v -160.043121 30.924629 -59.912651
v -150.043121 25.924629 -59.912651
v -160.043121 33.424629 -59.912651
v -170.043121 33.424629 -59.912651
v -160.043121 33.424629 -49.912651
v -150.043121 33.424629 -59.912651
v -150.043121 33.424629 -49.912651
v -150.043121 13.424628 -59.912651
v -150.043121 10.924623 -59.912651
v -140.043121 13.424628 -59.912651
v -150.043121 13.424629 -49.912651
v -150.043121 10.924623 -49.912651
v -150.043121 13.424630 -39.912651
v -140.043121 13.424629 -49.912651
v -140.043121 13.424630 -39.912651
v -140.043121 10.924623 -49.912651
v -140.043121 28.424633 -49.912651
v -140.043121 28.424633 -39.912651
v -130.043106 28.424633 -49.912651
v -140.043121 28.424633 -59.912651
v -140.043121 25.924627 -69.912651
v -130.043106 28.424633 -59.912651
v -140.043121 25.924629 -59.912651
v -130.043106 25.924627 -69.912651
v -130.043106 30.924627 -69.912651
v -120.043144 28.424633 -59.912651
v -120.043144 30.924627 -69.912651
v -120.043144 28.424633 -49.912651
v -110.043121 28.424633 -59.912651
v -110.043121 30.924627 -69.912651
v -110.043121 28.424633 -49.912651
v -100.043106 28.424633 -59.912651
v -100.043106 30.924627 -69.912651
v -100.043106 28.424631 -69.912651
v -100.043106 28.424633 -49.912651
v -90.043144 28.424633 -59.912651
v -90.043144 28.424633 -49.912651
v -80.043144 28.424633 -59.912651
v -90.043144 28.424631 -69.912651
v -90.043144 28.424631 -79.912689
v -80.043144 28.424631 -69.912651
v -80.043144 18.424627 -69.912651
v -80.043144 28.424631 -79.912689
v -80.043144 18.424625 -89.912651
v -80.043144 18.424625 -89.912651
v -80.043144 18.424627 -79.912689
v -80.043144 13.424627 -79.912689
v -90.043144 13.424627 -79.912689
v -80.043144 13.424627 -69.912651
v -80.043144 13.424628 -59.912651
v -90.043144 13.424627 -69.912651
v -90.043144 10.924622 -69.912651
v -90.043144 13.424628 -59.912651
v -90.043144 10.924623 -59.912651
v -90.043144 15.924633 -49.912651
v -90.043144 10.924623 -49.912651
v -100.043106 13.424629 -49.912651
v -90.043144 15.924634 -39.912651
v -80.043144 15.924633 -49.912651
v -80.043144 28.424633 -49.912651
v -80.043144 18.424629 -49.912651
v -80.043144 18.424629 -59.912651
v -100.043106 13.424630 -39.912651
v -90.043144 28.424633 -39.912651
v -100.043106 28.424633 -39.912651
v -110.043121 28.424633 -39.912651
v -100.043106 13.424630 -39.912651
v -110.043121 13.424630 -39.912651
v -100.043106 13.424631 -29.912653
v -110.043121 13.424631 -29.912653
v -100.043106 10.924625 -29.912651
v -110.043121 10.924625 -29.912651
v -100.043106 10.924624 -39.912651
v -100.043106 13.424631 -29.912653
v -100.043106 10.924623 -49.912651
v -110.043121 15.924635 -29.912653
v -120.043144 10.924625 -29.912651
v -130.043106 10.924625 -29.912651
v -120.043144 18.424631 -29.912653
v -120.043144 15.924635 -29.912653
v -120.043144 15.924634 -39.912651
v -120.043144 18.424631 -29.912653
v -120.043144 18.424629 -39.912651
v -130.043106 18.424631 -29.912653
v -130.043106 18.424629 -39.912651
v -140.043121 18.424631 -29.912653
v -140.043121 18.424629 -39.912651
v -140.043121 15.924635 -29.912653
v -140.043121 15.924634 -39.912651
v -150.043121 15.924635 -29.912653
v -140.043121 10.924625 -29.912651
v -140.043121 18.424631 -29.912653
v -150.043121 10.924625 -29.912651
v -160.043121 10.924625 -29.912651
v -150.043121 20.924631 -29.912653
v -160.043121 18.424631 -29.912653
v -170.043121 15.924635 -29.912653
v -180.043121 15.924635 -29.912653
v -170.043121 10.924625 -29.912651
v -170.043121 33.424629 -29.912653
v -170.043121 33.424629 -39.912651
v -180.043121 33.424629 -29.912653
v -160.043121 33.424629 -29.912653
v -170.043121 28.424635 -29.912653
v -160.043121 30.924631 -29.912653
v -150.043121 33.424629 -29.912653
v -150.043121 33.424629 -39.912651
v -150.043121 15.924634 -39.912651
v -160.043121 33.424629 -39.912651
v -190.043121 33.424629 -29.912653
v -180.043121 33.424629 -39.912651
v -180.043121 33.424629 -49.912651
v -190.043121 33.424629 -39.912651
v -190.043121 33.424629 -49.912651
v -200.043121 33.424629 -39.912651
v -200.043121 33.424629 -49.912651
v -210.043121 33.424629 -39.912651
v -200.043121 33.424629 -29.912653
v -210.043121 33.424629 -29.912653
v -220.043121 30.924631 -29.912653
v -210.043121 23.424625 -29.912653
v -220.043121 23.424625 -29.912653
v -210.043121 13.424631 -29.912653
v -210.043121 10.924625 -29.912651
v -210.043121 13.424630 -39.912651
v -220.043121 13.424631 -29.912653
v -230.043121 15.924635 -29.912653
v -220.043121 13.424630 -39.912651
v -230.043121 15.924634 -39.912651
v -220.043121 13.424629 -49.912651
v -220.043121 20.924629 -39.912651
v -220.043121 10.924624 -39.912651
v -220.043121 10.924623 -49.912651
v -230.043121 10.924624 -39.912651
v -240.043121 10.924624 -39.912651
v -240.043121 33.424629 -39.912651
v -240.043121 20.924629 -39.912651
v -240.043121 20.924631 -29.912653
v -240.043121 30.924629 -39.912651
v -230.043121 33.424629 -39.912651
v -240.043121 30.924631 -29.912653
v -240.043121 23.424625 -29.912653
v -230.043121 33.424629 -29.912653
v -230.043121 23.424625 -29.912653
v -230.043121 33.424629 -49.912651
v -220.043121 30.924629 -39.912651
v -220.043121 33.424629 -39.912651
v -220.043121 33.424629 -49.912651
v -220.043121 20.924629 -49.912651
v -210.043121 20.924629 -49.912651
v -210.043121 13.424629 -49.912651
v -210.043121 20.924629 -39.912651
v -210.043121 10.924623 -49.912651
v -210.043121 10.924624 -39.912651
v -240.043121 33.424629 -49.912651
v -250.043121 33.424629 -39.912651
v -200.043121 10.924625 -29.912651
v -210.043121 15.924635 -29.912653
v -200.043121 13.424631 -29.912653
v -190.043121 13.424631 -29.912653
v -190.043121 10.924625 -29.912651
v -180.043121 10.924625 -29.912651
v -190.043121 33.424629 -59.912651
v -180.043121 33.424629 -59.912651
v -170.043121 33.424629 -49.912651
v -130.043106 18.424631 -29.912653
v -130.043106 28.424633 -39.912651
v -120.043144 28.424633 -39.912651
v -110.043121 15.924634 -39.912651
v -90.043144 10.924622 -79.912689
v -90.043144 10.924621 -89.912651
v -90.043144 18.424625 -89.912651
v -90.043144 10.924620 -99.912651
v -90.043144 10.924619 -109.912613
v -90.043144 15.924629 -99.912651
v -80.043144 15.924629 -99.912651
v -90.043144 13.424624 -109.912613
v -90.043144 13.424624 -119.912651
v -100.043106 13.424624 -109.912613
v -80.043144 13.424624 -109.912613
v -80.043144 13.424624 -119.912651
v -80.043144 18.424625 -109.912613
v -80.043144 18.424625 -99.912651
v -80.043144 28.424629 -109.912613
v -80.043144 18.424623 -119.912651
v -80.043144 28.424627 -119.912651
v -80.043144 18.424623 -129.912659
v -80.043144 28.424627 -129.912659
v -80.043144 15.924627 -129.912659
v -80.043144 20.924622 -139.912659
v -90.043144 15.924627 -129.912659
v -90.043144 20.924622 -139.912659
v -100.043106 15.924627 -129.912659
v -100.043106 20.924622 -139.912659
v -110.043121 15.924627 -129.912659
v -100.043106 13.424624 -119.912651
v -110.043121 13.424624 -119.912651
v -110.043121 13.424624 -109.912613
v -110.043121 10.924619 -119.912651
v -110.043121 10.924618 -129.912659
v -110.043121 10.924619 -109.912613
v -100.043106 10.924619 -109.912613
v -110.043121 10.924617 -139.912659
v -110.043121 20.924622 -139.912659
v -120.043144 10.924617 -139.912659
v -110.043121 18.424622 -139.912659
v -110.043121 28.424625 -139.912659
v -120.043144 18.424622 -139.912659
v -130.043106 18.424622 -139.912659
v -120.043144 28.424625 -139.912659
v -130.043106 28.424625 -139.912659
v -120.043144 30.924623 -129.912659
v -130.043106 30.924623 -129.912659
v -120.043144 33.424625 -119.912651
v -110.043121 30.924623 -129.912659
v -110.043121 33.424625 -119.912651
v -100.043106 30.924623 -129.912659
v -110.043121 30.924623 -119.912651
v -100.043106 30.924623 -119.912651
v -100.043106 30.924625 -109.912613
v -90.043144 28.424627 -119.912651
v -90.043144 28.424629 -109.912613
v -90.043144 28.424627 -129.912659
v -100.043106 28.424627 -129.912659
v -90.043144 28.424625 -139.912659
v -100.043106 28.424625 -139.912659
v -80.043144 28.424625 -139.912659
v -90.043144 28.424629 -99.912651
v -80.043144 28.424629 -99.912651
v -90.043144 18.424625 -89.912651
v -90.043144 28.424629 -89.912651
v -100.043106 30.924625 -99.912651
v -110.043121 33.424625 -99.912651
v -100.043106 30.924625 -89.912651
v -100.043106 30.924627 -79.912689
v -110.043121 33.424625 -89.912651
v -120.043144 33.424625 -89.912651
v -110.043121 33.424625 -79.912689
v -110.043121 30.924627 -79.912689
v -120.043144 33.424625 -79.912689
v -130.043106 33.424625 -79.912689
v -130.043106 30.924627 -79.912689
v -130.043106 33.424625 -89.912651
v -130.043106 33.424625 -99.912651
v -140.043121 33.424625 -89.912651
v -140.043121 33.424625 -99.912651
v -150.043121 33.424625 -89.912651
v -140.043121 30.924627 -79.912689
v -150.043121 30.924627 -79.912689
v -150.043121 33.424625 -99.912651
v -150.043121 33.424625 -109.912613
v -160.043121 33.424625 -99.912651
v -170.043121 33.424625 -99.912651
v -160.043121 33.424625 -109.912613
v -160.043121 33.424625 -119.912651
v -170.043121 33.424625 -109.912613
v -170.043121 33.424625 -119.912651
v -180.043121 33.424625 -109.912613
v -190.043121 33.424625 -109.912613
v -180.043121 33.424625 -119.912651
v -180.043121 33.424625 -99.912651
v -190.043121 33.424625 -99.912651
v -200.043121 33.424625 -99.912651
v -200.043121 33.424625 -109.912613
v -210.043121 33.424625 -99.912651
v -210.043121 28.424629 -99.912651
v -210.043121 33.424625 -109.912613
v -210.043121 33.424625 -89.912651
v -210.043121 30.924625 -89.912651
v -220.043121 30.924625 -89.912651
v -220.043121 28.424629 -99.912651
v -220.043121 33.424625 -89.912651
v -220.043121 33.424625 -79.912689
v -230.043121 33.424625 -79.912689
v -240.043121 33.424625 -79.912689
v -230.043121 35.924622 -79.912689
v -230.043121 33.424629 -69.912651
v -230.043121 33.424625 -89.912651
v -230.043121 35.924622 -89.912651
v -230.043121 33.424625 -99.912651
v -230.043121 35.924622 -99.912651
v -230.043121 33.424625 -109.912613
v -220.043121 33.424625 -99.912651
v -220.043121 33.424625 -109.912613
v -220.043121 15.924628 -109.912613
v -220.043121 28.424629 -109.912613
v -210.043121 28.424629 -109.912613
v -210.043121 15.924628 -109.912613
v -210.043121 10.924619 -109.912613
v -210.043121 15.924628 -119.912651
v -210.043121 33.424625 -119.912651
v -220.043121 13.424624 -119.912651
v -220.043121 15.924628 -119.912651
v -210.043121 10.924619 -119.912651
v -210.043121 18.424623 -129.912659
v -210.043121 25.924622 -139.912659
v -200.043121 15.924627 -129.912659
v -210.043121 10.924618 -129.912659
v -200.043121 10.924618 -129.912659
v -190.043121 10.924618 -129.912659
v -190.043121 13.424623 -129.912659
v -190.043121 10.924617 -139.912659
v -190.043121 20.924622 -139.912659
v -180.043121 10.924617 -139.912659
v -190.043121 13.424623 -139.912659
v -190.043121 28.424625 -139.912659
v -180.043121 13.424623 -139.912659
v -170.043121 13.424623 -139.912659
v -180.043121 28.424625 -139.912659
v -180.043121 30.924623 -129.912659
v -170.043121 28.424625 -139.912659
v -170.043121 30.924623 -129.912659
v -160.043121 28.424625 -139.912659
v -170.043121 20.924622 -139.912659
v -160.043121 23.424616 -139.912659
v -170.043121 10.924617 -139.912659
v -170.043121 13.424623 -129.912659
v -170.043121 10.924618 -129.912659
v -160.043121 15.924627 -129.912659
v -160.043121 10.924618 -129.912659
v -160.043121 30.924623 -129.912659
v -150.043121 15.924627 -129.912659
v -150.043121 10.924618 -129.912659
v -150.043121 15.924628 -119.912651
v -150.043121 30.924623 -129.912659
v -150.043121 33.424625 -119.912651
v -150.043121 30.924623 -119.912651
v -140.043121 30.924623 -119.912651
v -140.043121 33.424625 -119.912651
v -140.043121 15.924628 -119.912651
v -140.043121 30.924623 -129.912659
v -140.043121 15.924627 -129.912659
v -140.043121 28.424625 -139.912659
v -140.043121 28.424627 -129.912659
v -140.043121 18.424622 -139.912659
v -140.043121 15.924626 -139.912659
v -140.043121 10.924617 -139.912659
v -130.043106 10.924617 -139.912659
v -140.043121 10.924618 -129.912659
v -140.043121 10.924619 -119.912651
v -150.043121 10.924619 -119.912651
v -140.043121 33.424625 -109.912613
v -130.043106 33.424625 -119.912651
v -130.043106 33.424625 -109.912613
v -120.043144 33.424625 -109.912613
v -120.043144 33.424625 -99.912651
v -110.043121 33.424625 -109.912613
v -190.043121 30.924623 -129.912659
v -200.043121 30.924623 -129.912659
v -190.043121 33.424625 -119.912651
v -200.043121 33.424625 -119.912651
v -200.043121 28.424625 -139.912659
v -210.043121 28.424625 -139.912659
v -200.043121 23.424616 -139.912659
v -220.043121 23.424616 -139.912659
v -220.043121 10.924619 -109.912613
v -230.043121 35.924622 -109.912613
v -240.043121 35.924622 -109.912613
v -240.043121 35.924622 -99.912651
v -250.043121 35.924622 -99.912651
v -240.043121 35.924622 -89.912651
v -250.043121 35.924622 -89.912651
v -240.043121 35.924622 -79.912689
v -250.043121 35.924622 -79.912689
v -250.043121 33.424625 -79.912689
v -250.043121 33.424629 -69.912651
v -260.043121 33.424629 -69.912651
v -240.043121 33.424629 -69.912651
v -140.043121 10.924623 -59.912651
v -260.043121 30.924623 -119.912651
vn 1.0000 -0.0000 -0.0000
vn -0.0000 -0.0000 1.0000
vn -0.0000 -1.0000 -0.0000
vn -1.0000 -0.0000 -0.0000
vn -0.0000 -0.9701 0.2425
vn -0.0000 1.0000 -0.0000
vn -0.0000 -0.0000 -1.0000
vn 0.2357 -0.9428 -0.2357
vn 0.2425 -0.9701 -0.0000
vn -0.0000 -0.9701 -0.2425
vn -0.4472 -0.8944 -0.0000
vn -0.2425 -0.9701 -0.0000
vn -0.0000 -0.7071 0.7071
vn -0.0000 0.8944 0.4472
vn -0.0000 0.9701 -0.2425
vn -0.2425 0.9701 -0.0000
vn 0.2425 0.9701 -0.0000
vn 0.4472 0.8944 -0.0000
vn -0.0000 0.9701 0.2425
vn -0.0000 -0.7071 -0.7071
vn -0.0000 -0.8944 -0.4472
vn -0.2357 0.9428 0.2357
vn 0.1961 0.7845 0.5883
vn -0.1961 0.7845 0.5883
vt 0.378431 0.378431
vt 0.498039 0.498039
vt 0.378431 0.498039
vt 0.001961 0.501961
vt 0.121569 0.621569
vt 0.001961 0.621569
vt 0.127451 0.627451
vt 0.247059 0.747059
vt 0.127451 0.747059
vt 0.378431 0.627451
vt 0.498039 0.747059
vt 0.378431 0.747059
vt 0.001961 0.627451
vt 0.121569 0.747059
vt 0.001961 0.747059
vt 0.252941 0.658823
vt 0.372549 0.747059
vt 0.252941 0.747059
vt 0.752941 0.878431
vt 0.872549 0.998039
vt 0.752941 0.998039
vt 0.127451 0.690196
vt 0.252941 0.627451
vt 0.252941 0.501961
vt 0.372549 0.621569
vt 0.252941 0.621569
vt 0.752941 0.972549
vt 0.501961 0.878431
vt 0.621569 0.998039
vt 0.501961 0.998039
vt 0.501961 0.972549
vt 0.127451 0.501961
vt 0.247059 0.621569
vt 0.127451 0.621569
vt 0.001961 0.252941
vt 0.121569 0.372549
vt 0.001961 0.372549
vt 0.121569 0.501961
vt 0.627451 0.752941
vt 0.747059 0.872549
vt 0.627451 0.872549
vt 0.001961 0.752941
vt 0.121569 0.872549
vt 0.001961 0.872549
vt 0.127451 0.847059
vt 0.247059 0.872549
vt 0.127451 0.872549
vt 0.752941 0.498039
vt 0.752941 0.441177
vt 0.872549 0.498039
vt 0.501961 0.252941
vt 0.621569 0.372549
vt 0.501961 0.372549
vt 0.627451 0.498039
vt 0.627451 0.441177
vt 0.747059 0.498039
vt 0.627451 0.378431
vt 0.127451 0.658823
vt 0.378431 0.721568
vt 0.252941 0.721568
vt 0.501961 0.498039
vt 0.501961 0.441177
vt 0.621569 0.498039
vt 0.752941 0.378431
vt 0.001961 0.998039
vt 0.001961 0.972549
vt 0.121569 0.998039
vt 0.752941 0.941177
vt 0.378431 0.690196
vt 0.252941 0.690196
vt 0.372549 0.690196
vt 0.872549 0.941177
vt 0.498039 0.652941
vt 0.378431 0.652941
vt 0.001961 0.690196
vt 0.121569 0.627451
vt 0.121569 0.690196
vt 0.247059 0.690196
vt 0.372549 0.627451
vt 0.247059 0.627451
vt 0.498039 0.627451
vt 0.121569 0.658823
vt 0.247059 0.658823
vt 0.001961 0.878431
vt 0.001961 0.721568
vt 0.127451 0.721568
vt 0.752941 0.909804
vt 0.127451 0.752941
vt 0.252941 0.527451
vt 0.372549 0.527451
vt 0.252941 0.596079
vt 0.378431 0.878431
vt 0.498039 0.998039
vt 0.378431 0.998039
vt 0.501961 0.941177
vt 0.621569 0.941177
vt 0.378431 0.658823
vt 0.872549 0.878431
vt 0.498039 0.658823
vt 0.252941 0.252941
vt 0.372549 0.309804
vt 0.252941 0.309804
vt 0.001961 0.558823
vt 0.121569 0.558823
vt 0.247059 0.684314
vt 0.127451 0.684314
vt 0.121569 0.684314
vt 0.001961 0.684314
vt 0.252941 0.872549
vt 0.252941 0.847059
vt 0.372549 0.872549
vt 0.627451 0.252941
vt 0.747059 0.372549
vt 0.627451 0.372549
vt 0.247059 0.501961
vt 0.498039 0.378431
vt 0.372549 0.658823
vt 0.372549 0.501961
vt 0.621569 0.878431
vt 0.621569 0.972549
vt 0.872549 0.972549
vt 0.121569 0.252941
vt 0.747059 0.752941
vt 0.121569 0.752941
vt 0.247059 0.847059
vt 0.621569 0.252941
vt 0.747059 0.378431
vt 0.872549 0.441177
vt 0.747059 0.441177
vt 0.498039 0.721568
vt 0.372549 0.721568
vt 0.872549 0.378431
vt 0.498039 0.690196
vt 0.001961 0.658823
vt 0.121569 0.878431
vt 0.121569 0.721568
vt 0.247059 0.721568
vt 0.872549 0.909804
vt 0.247059 0.752941
vt 0.498039 0.878431
vt 0.372549 0.252941
vt 0.372549 0.596079
vt 0.747059 0.252941
s 0
usemtl Material.001
f 1/1/1 6/2/1 4/3/1
f 3/4/1 2/5/1 1/6/1
f 8/7/2 4/8/2 5/9/2
f 10/10/2 7/11/2 8/12/2
f 9/13/1 5/14/1 25/15/1
f 12/16/1 8/17/1 9/18/1
f 13/19/3 12/20/3 16/21/3
f 14/19/2 11/20/2 13/21/2
f 37/19/2 13/20/2 15/21/2
f 15/19/3 16/20/3 18/21/3
f 18/19/2 17/20/2 19/21/2
f 16/19/2 26/20/2 17/21/2
f 15/16/4 20/17/4 21/18/4
f 21/7/4 22/8/4 23/9/4
f 19/1/2 24/2/2 22/3/2
f 17/1/2 25/2/2 24/3/2
f 30/13/2 23/14/2 27/15/2
f 408/22/4 27/8/4 28/9/4
f 34/23/1 30/17/1 31/18/1
f 32/23/2 21/17/2 30/18/2
f 407/24/5 32/25/5 33/26/5
f 33/24/5 34/25/5 469/26/5
f 32/21/1 35/27/1 36/20/1
f 36/28/3 37/29/3 32/30/3
f 38/28/3 14/29/3 37/30/3
f 35/31/2 38/29/2 36/30/2
f 39/31/2 40/29/2 38/30/2
f 42/31/2 41/29/2 40/30/2
f 40/28/3 10/29/3 14/30/3
f 398/19/3 42/20/3 39/21/3
f 43/19/3 44/20/3 42/21/3
f 44/31/2 486/29/2 41/30/2
f 46/19/3 45/20/3 44/21/3
f 48/27/1 47/20/1 46/21/1
f 47/19/3 49/20/3 46/21/3
f 474/27/2 46/20/2 43/21/2
f 45/32/1 50/33/1 2/34/1
f 52/19/1 49/20/1 51/21/1
f 56/27/3 51/20/3 47/21/3
f 57/19/1 51/20/1 53/21/1
f 53/4/1 62/5/1 54/6/1
f 481/19/3 53/20/3 56/21/3
f 52/35/1 58/36/1 60/37/1
f 59/32/1 54/33/1 62/34/1
f 50/1/1 60/2/1 61/3/1
f 2/1/1 61/2/1 6/3/1
f 63/4/1 62/5/1 64/6/1
f 64/19/1 65/20/1 63/21/1
f 65/19/1 70/20/1 68/21/1
f 67/19/6 68/20/6 69/21/6
f 69/19/6 71/20/6 72/21/6
f 70/19/1 71/20/1 68/21/1
f 74/10/7 72/11/7 71/12/7
f 70/6/1 74/38/1 73/5/1
f 76/32/8 75/33/8 74/34/8
f 78/19/1 70/20/1 66/21/1
f 77/4/9 78/5/9 80/6/9
f 79/19/1 66/20/1 64/21/1
f 81/28/3 79/29/3 82/30/3
f 81/30/2 80/31/2 78/29/2
f 83/28/3 82/29/3 84/30/3
f 85/31/2 81/29/2 83/30/2
f 86/28/3 84/29/3 87/30/3
f 88/31/2 83/29/2 86/30/2
f 89/28/3 87/29/3 90/30/3
f 91/31/2 86/29/2 89/30/2
f 92/28/9 90/29/9 95/30/9
f 92/30/2 91/31/2 89/29/2
f 232/19/3 92/20/3 94/21/3
f 93/19/3 91/20/3 92/21/3
f 94/19/3 95/20/3 98/21/3
f 90/30/7 96/31/7 95/29/7
f 95/19/3 389/20/3 97/21/3
f 98/19/3 97/20/3 100/21/3
f 279/19/3 98/20/3 99/21/3
f 99/19/3 100/20/3 102/21/3
f 102/19/3 101/20/3 103/21/3
f 100/19/3 384/20/3 101/21/3
f 104/19/3 103/20/3 105/21/3
f 106/19/3 102/20/3 104/21/3
f 107/19/3 105/20/3 108/21/3
f 107/19/3 106/20/3 104/21/3
f 110/39/3 108/40/3 111/41/3
f 107/42/3 112/43/3 109/44/3
f 363/45/3 110/46/3 111/47/3
f 114/48/4 112/49/4 110/50/4
f 113/51/10 114/52/10 110/53/10
f 114/54/7 115/55/7 116/56/7
f 118/57/11 114/56/11 116/54/11
f 119/49/4 114/50/4 117/48/4
f 122/55/2 117/56/2 118/54/2
f 121/19/3 120/20/3 119/21/3
f 109/42/3 119/43/3 120/44/3
f 121/42/3 122/43/3 123/44/3
f 123/13/4 124/14/4 127/15/4
f 118/58/7 126/8/7 124/9/7
f 124/59/7 485/11/7 125/12/7
f 127/59/4 125/11/4 128/12/4
f 130/60/2 128/17/2 132/18/2
f 127/7/4 223/8/4 123/9/4
f 127/10/3 131/11/3 129/12/3
f 133/7/1 131/8/1 130/9/1
f 126/59/1 132/11/1 485/12/1
f 136/13/1 130/14/1 126/15/1
f 133/24/3 283/25/3 134/26/3
f 133/51/3 138/52/3 135/53/3
f 137/61/1 136/62/1 139/63/1
f 140/57/5 136/56/5 137/54/5
f 139/64/3 116/50/3 137/48/3
f 140/26/1 141/24/1 138/25/1
f 143/24/10 138/25/10 141/26/10
f 142/24/3 135/25/3 138/26/3
f 146/39/10 142/40/10 143/41/10
f 147/19/3 142/20/3 145/21/3
f 148/19/10 146/20/10 149/21/10
f 151/19/3 145/20/3 148/21/3
f 150/65/4 148/66/4 149/67/4
f 152/19/3 150/20/3 155/21/3
f 153/19/3 148/20/3 152/21/3
f 154/24/3 153/25/3 152/26/3
f 152/39/3 157/40/3 154/41/3
f 155/19/12 351/20/12 156/21/12
f 150/65/7 149/66/7 155/67/7
f 157/19/3 156/20/3 159/21/3
f 154/19/4 158/20/4 178/21/4
f 157/19/4 162/20/4 158/21/4
f 159/23/13 346/17/13 160/18/13
f 162/21/4 159/68/4 161/20/4
f 163/21/4 162/68/4 161/20/4
f 158/68/4 163/20/4 165/21/4
f 163/19/6 167/20/6 165/21/6
f 161/19/14 164/20/14 163/21/14
f 178/68/4 165/20/4 166/21/4
f 165/19/6 169/20/6 166/21/6
f 169/69/4 168/11/4 170/12/4
f 167/70/4 286/17/4 168/18/4
f 166/19/15 171/20/15 175/21/15
f 172/18/4 169/71/4 170/17/4
f 153/13/7 175/14/7 171/15/7
f 180/7/4 171/8/4 174/9/4
f 173/69/7 172/11/7 191/12/7
f 171/19/16 179/20/16 174/21/16
f 175/21/4 178/72/4 166/20/4
f 176/19/4 178/20/4 177/21/4
f 174/4/7 181/5/7 180/6/7
f 181/39/3 153/40/3 180/41/3
f 181/19/3 147/20/3 151/21/3
f 183/32/7 182/33/7 181/34/7
f 185/10/3 184/11/3 183/12/3
f 186/22/7 187/8/7 188/9/7
f 190/60/4 189/17/4 187/18/4
f 179/60/4 191/17/4 189/18/4
f 196/70/7 188/17/7 193/18/7
f 282/10/7 193/11/7 194/12/7
f 198/10/4 197/73/4 196/74/4
f 196/10/3 285/11/3 192/12/3
f 199/32/3 200/33/3 201/34/3
f 202/10/3 201/11/3 200/12/3
f 203/60/1 204/17/1 205/18/1
f 224/10/3 204/11/3 206/12/3
f 206/4/7 207/5/7 209/6/7
f 208/32/7 194/33/7 207/34/7
f 212/7/7 209/8/7 210/9/7
f 213/13/7 210/14/7 215/15/7
f 218/13/7 213/14/7 214/15/7
f 214/22/7 215/8/7 278/9/7
f 219/4/3 217/5/3 225/6/3
f 216/32/3 227/33/3 217/34/3
f 216/22/7 221/8/7 220/9/7
f 221/15/7 219/75/7 222/14/7
f 222/19/3 225/20/3 223/21/3
f 222/13/4 224/14/4 206/15/4
f 223/19/3 121/20/3 123/21/3
f 225/19/3 281/20/3 121/21/3
f 205/10/2 129/73/2 131/74/2
f 218/19/3 229/20/3 227/21/3
f 217/19/3 228/20/3 281/21/3
f 227/19/3 230/20/3 228/21/3
f 229/19/3 232/20/3 230/21/3
f 226/19/3 231/20/3 229/21/3
f 231/19/3 93/20/3 232/21/3
f 234/19/3 233/20/3 231/21/3
f 236/10/7 237/11/7 238/12/7
f 262/32/9 235/33/9 236/34/9
f 238/7/7 239/8/7 242/9/7
f 241/75/1 240/14/1 270/15/1
f 241/13/6 242/14/6 239/15/6
f 243/15/7 238/76/7 242/14/7
f 244/7/17 243/8/17 242/9/17
f 250/15/7 244/77/7 248/14/7
f 247/13/4 246/14/4 244/15/4
f 244/22/4 249/8/4 248/9/4
f 268/13/2 244/14/2 241/15/2
f 251/9/7 245/78/7 250/8/7
f 72/23/7 252/17/7 251/18/7
f 245/13/18 254/14/18 243/15/18
f 254/32/1 255/33/1 257/34/1
f 255/21/7 252/27/7 256/20/7
f 259/19/9 255/20/9 256/21/9
f 257/10/7 260/11/7 258/12/7
f 260/18/7 236/79/7 238/17/7
f 256/4/12 236/5/12 259/6/12
f 254/9/7 260/80/7 243/8/7
f 263/19/3 261/20/3 264/21/3
f 256/19/3 271/20/3 261/21/3
f 256/21/7 263/27/7 262/20/7
f 263/23/4 265/17/4 247/18/4
f 264/10/7 266/11/7 265/12/7
f 264/19/3 88/20/3 91/21/3
f 265/7/7 267/8/7 246/9/7
f 93/23/1 268/17/1 266/18/1
f 266/13/1 241/14/1 267/15/1
f 268/12/2 262/81/2 247/11/2
f 267/22/1 270/8/1 269/9/1
f 246/75/7 269/14/7 249/15/7
f 261/19/3 85/20/3 88/21/3
f 271/19/3 80/20/3 85/21/3
f 252/4/3 77/5/3 271/6/3
f 77/18/1 272/60/1 75/17/1
f 240/15/7 275/77/7 273/14/7
f 275/22/7 277/8/7 273/9/7
f 276/75/7 278/14/7 277/15/7
f 230/19/3 94/20/3 279/21/3
f 228/19/3 279/20/3 280/21/3
f 280/19/3 99/20/3 106/21/3
f 120/19/3 106/20/3 109/21/3
f 281/19/3 280/20/3 120/21/3
f 134/4/7 201/5/7 203/6/7
f 283/32/7 199/33/7 201/34/7
f 284/24/3 135/25/3 144/26/3
f 144/39/3 182/40/3 284/41/3
f 285/4/7 284/5/7 182/6/7
f 192/10/4 184/73/4 186/74/4
f 164/58/4 287/8/4 286/9/4
f 287/15/4 291/82/4 289/14/4
f 289/9/4 293/83/4 290/8/4
f 292/19/15 288/20/15 161/21/15
f 296/19/15 291/20/15 292/21/15
f 294/19/6 295/20/6 293/21/6
f 297/84/6 293/67/6 296/65/6
f 293/85/2 318/14/2 290/15/2
f 298/68/4 297/20/4 296/21/4
f 292/21/4 298/72/4 296/20/4
f 345/19/4 298/20/4 299/21/4
f 300/19/4 301/20/4 298/21/4
f 302/19/4 303/20/4 301/21/4
f 301/68/4 305/20/4 297/21/4
f 304/19/4 306/20/4 305/21/4
f 306/19/14 307/20/14 305/21/14
f 305/19/19 294/20/19 297/21/19
f 308/4/14 309/5/14 307/6/14
f 307/19/19 312/20/19 294/21/19
f 310/4/14 311/5/14 309/6/14
f 309/19/19 313/20/19 312/21/19
f 312/19/6 314/20/6 295/21/6
f 313/86/4 316/8/4 315/9/4
f 314/85/4 315/14/4 317/15/4
f 295/68/2 317/20/2 318/21/2
f 311/58/4 319/8/4 316/9/4
f 322/32/2 321/33/2 319/34/2
f 323/23/2 324/17/2 322/18/2
f 324/87/2 454/20/2 321/21/2
f 326/32/2 325/33/2 324/34/2
f 327/39/5 328/40/5 329/41/5
f 331/19/5 326/20/5 323/21/5
f 328/24/5 459/25/5 329/26/5
f 328/39/5 332/40/5 330/41/5
f 342/19/5 331/20/5 323/21/5
f 334/21/4 332/27/4 331/20/4
f 331/19/3 335/20/3 334/21/3
f 335/21/2 332/68/2 334/20/2
f 338/19/12 335/20/12 337/21/12
f 332/39/12 336/40/12 463/41/12
f 337/19/12 333/20/12 339/21/12
f 300/19/3 337/20/3 302/21/3
f 302/19/3 339/20/3 304/21/3
f 339/19/3 342/20/3 341/21/3
f 339/65/2 333/66/2 340/67/2
f 304/19/3 341/20/3 343/21/3
f 341/23/2 310/17/2 308/18/2
f 343/4/2 308/5/2 306/6/2
f 342/10/2 320/11/2 310/12/2
f 340/65/4 333/66/4 342/67/4
f 344/19/12 336/20/12 338/21/12
f 345/19/3 338/20/3 300/21/3
f 160/10/20 344/11/20 345/12/20
f 346/9/4 347/7/4 344/8/4
f 347/19/12 348/20/12 344/21/12
f 348/24/12 463/25/12 336/26/12
f 348/24/12 352/25/12 349/26/12
f 156/19/12 350/20/12 347/21/12
f 350/39/12 354/40/12 352/41/12
f 354/24/3 353/25/3 352/26/3
f 353/88/3 349/46/3 352/47/3
f 146/12/4 354/59/4 355/11/4
f 354/24/10 143/25/10 356/26/10
f 355/12/7 354/59/7 351/11/7
f 356/24/3 359/25/3 353/26/3
f 143/24/10 357/25/10 356/26/10
f 359/89/1 357/24/1 358/90/1
f 358/24/1 141/25/1 140/26/1
f 360/88/3 353/46/3 359/47/3
f 359/24/3 362/25/3 360/26/3
f 358/51/10 361/52/10 359/53/10
f 361/24/3 366/25/3 362/26/3
f 361/51/10 365/52/10 363/53/10
f 364/64/21 116/50/21 365/48/21
f 140/57/21 364/56/21 358/54/21
f 365/26/4 113/91/4 363/25/4
f 115/49/4 365/50/4 116/48/4
f 363/24/3 368/25/3 366/26/3
f 458/92/3 366/93/3 367/94/3
f 367/92/3 368/93/3 370/94/3
f 108/24/3 368/25/3 111/26/3
f 370/92/3 369/93/3 372/94/3
f 367/24/3 371/25/3 442/26/3
f 370/24/3 373/25/3 371/26/3
f 372/39/3 376/40/3 373/41/3
f 377/39/3 372/40/3 369/41/3
f 377/19/3 375/20/3 374/21/3
f 376/39/3 375/40/3 466/41/3
f 105/19/3 378/20/3 377/21/3
f 108/39/3 377/40/3 369/41/3
f 378/19/3 380/20/3 375/21/3
f 103/19/3 379/20/3 378/21/3
f 101/19/3 381/20/3 379/21/3
f 379/19/3 383/20/3 380/21/3
f 385/95/1 381/29/1 384/30/1
f 382/95/1 383/29/1 381/30/1
f 385/30/1 384/31/1 97/29/1
f 97/28/5 386/29/5 385/30/5
f 385/28/5 387/29/5 382/30/5
f 399/30/4 386/96/4 388/29/4
f 386/30/4 389/95/4 388/29/4
f 389/19/3 394/20/3 388/21/3
f 96/19/3 390/20/3 389/21/3
f 479/27/7 390/20/7 391/21/7
f 393/19/3 391/20/3 390/21/3
f 392/27/4 394/20/4 390/21/4
f 388/19/3 396/20/3 399/21/3
f 395/27/4 396/20/4 394/21/4
f 397/27/4 398/20/4 396/21/4
f 399/19/3 398/20/3 400/21/3
f 402/95/4 399/29/4 400/30/4
f 400/19/3 39/20/3 35/21/3
f 400/23/4 409/17/4 401/18/4
f 382/28/3 402/29/3 403/30/3
f 403/97/2 401/11/2 404/12/2
f 404/22/2 472/8/2 405/9/2
f 405/22/1 406/8/1 404/9/1
f 407/23/1 404/17/1 406/18/1
f 35/23/7 406/17/7 409/18/7
f 406/21/22 29/98/22 408/20/22
f 408/9/7 409/86/7 406/8/7
f 414/12/1 406/99/1 410/11/1
f 470/13/23 411/14/23 413/15/23
f 411/9/24 471/80/24 29/8/24
f 413/16/2 414/17/2 415/18/2
f 417/69/2 415/11/2 416/12/2
f 418/9/1 417/80/1 416/8/1
f 423/100/2 418/101/2 420/102/2
f 425/19/2 421/20/2 423/21/2
f 424/100/2 420/101/2 432/102/2
f 427/32/2 423/33/2 424/34/2
f 428/24/5 425/25/5 427/26/5
f 426/24/5 422/25/5 425/26/5
f 437/24/5 427/25/5 429/26/5
f 431/103/2 427/38/2 430/104/2
f 435/9/24 430/80/24 433/8/24
f 433/16/4 432/17/4 434/18/4
f 436/18/2 433/71/2 434/17/2
f 437/7/4 431/8/4 435/9/4
f 438/7/2 436/105/2 439/106/2
f 441/10/2 435/11/2 438/12/2
f 440/13/4 439/107/4 457/108/4
f 443/23/4 438/17/4 440/18/4
f 442/24/5 437/25/5 441/26/5
f 443/109/4 442/110/4 441/111/4
f 445/91/2 443/25/2 444/26/2
f 444/10/2 440/11/2 446/12/2
f 447/109/1 445/110/1 444/111/1
f 447/23/1 446/17/1 448/18/1
f 459/24/5 447/25/5 329/26/5
f 329/24/5 449/25/5 327/26/5
f 449/109/1 447/110/1 450/111/1
f 449/10/1 448/11/1 452/12/1
f 327/4/2 451/5/2 325/6/2
f 452/7/1 455/105/1 453/106/1
f 453/32/2 325/33/2 451/34/2
f 446/13/1 455/107/1 448/108/1
f 446/7/2 457/105/2 456/106/2
f 458/24/3 442/25/3 445/26/3
f 460/24/3 445/25/3 459/26/3
f 461/24/3 459/25/3 330/26/3
f 460/92/3 362/93/3 458/94/3
f 460/112/3 462/113/3 360/114/3
f 463/112/3 330/113/3 332/114/3
f 461/112/3 349/113/3 462/114/3
f 437/24/5 373/25/5 428/26/5
f 373/24/5 426/25/5 428/26/5
f 376/24/5 464/25/5 426/26/5
f 464/24/5 468/25/5 422/26/5
f 466/24/5 465/25/5 464/26/5
f 375/39/3 467/40/3 466/41/3
f 467/39/3 383/40/3 407/41/3
f 467/24/5 33/25/5 465/26/5
f 465/24/5 469/25/5 468/26/5
f 468/19/2 412/20/2 470/21/2
f 470/34/2 422/115/2 468/33/2
f 419/7/23 413/8/23 417/9/23
f 412/21/2 34/98/2 471/20/2
f 401/22/4 28/8/4 472/9/4
f 473/27/2 43/20/2 398/21/2
f 397/19/3 474/20/3 473/21/3
f 475/19/3 48/20/3 474/21/3
f 477/19/3 476/20/3 475/21/3
f 395/19/3 475/20/3 397/21/3
f 479/19/3 478/20/3 477/21/3
f 392/19/3 477/20/3 395/21/3
f 480/27/7 391/20/7 481/21/7
f 478/27/1 481/20/1 56/21/1
f 55/39/3 482/40/3 483/41/3
f 484/19/3 481/20/3 391/21/3
f 483/31/7 82/29/7 79/30/7
f 482/31/7 84/29/7 82/30/7
f 484/31/7 87/29/7 84/30/7
f 55/19/1 64/20/1 62/21/1
f 476/27/1 56/20/1 47/21/1
f 393/31/7 90/29/7 87/30/7
f 149/19/3 355/20/3 351/21/3
f 156/15/4 347/13/4 346/14/4
f 161/21/4 345/68/4 299/20/4
f 161/21/4 299/68/4 292/20/4
f 41/28/3 3/29/3 10/30/3
f 1/1/1 2/116/1 6/2/1
f 3/4/1 486/38/1 2/5/1
f 8/7/2 7/80/2 4/8/2
f 10/10/2 3/81/2 7/11/2
f 9/13/1 8/76/1 5/14/1
f 12/16/1 11/117/1 8/17/1
f 13/19/3 11/98/3 12/20/3
f 14/19/2 10/98/2 11/20/2
f 37/19/2 14/98/2 13/20/2
f 15/19/3 13/98/3 16/20/3
f 18/19/2 16/98/2 17/20/2
f 16/19/2 12/98/2 26/20/2
f 15/16/4 18/117/4 20/17/4
f 21/7/4 20/80/4 22/8/4
f 19/1/2 17/116/2 24/2/2
f 17/1/2 26/116/2 25/2/2
f 30/13/2 21/76/2 23/14/2
f 408/22/4 29/78/4 27/8/4
f 34/23/1 32/79/1 30/17/1
f 32/23/2 37/79/2 21/17/2
f 407/24/5 35/118/5 32/25/5
f 33/24/5 32/118/5 34/25/5
f 36/28/3 38/119/3 37/29/3
f 38/28/3 40/119/3 14/29/3
f 35/31/2 39/120/2 38/29/2
f 39/31/2 42/120/2 40/29/2
f 42/31/2 44/120/2 41/29/2
f 40/28/3 41/119/3 10/29/3
f 398/19/3 43/98/3 42/20/3
f 43/19/3 46/98/3 44/20/3
f 44/31/2 45/120/2 486/29/2
f 46/19/3 49/98/3 45/20/3
f 48/27/1 476/121/1 47/20/1
f 47/19/3 51/98/3 49/20/3
f 474/27/2 48/121/2 46/20/2
f 45/32/1 49/115/1 50/33/1
f 52/19/1 50/98/1 49/20/1
f 56/27/3 53/121/3 51/20/3
f 57/19/1 52/98/1 51/20/1
f 53/4/1 55/38/1 62/5/1
f 481/19/3 55/98/3 53/20/3
f 52/35/1 57/122/1 58/36/1
f 59/32/1 58/115/1 54/33/1
f 50/1/1 52/116/1 60/2/1
f 2/1/1 50/116/1 61/2/1
f 63/4/1 59/38/1 62/5/1
f 64/19/1 66/98/1 65/20/1
f 65/19/1 66/98/1 70/20/1
f 67/19/6 65/98/6 68/20/6
f 69/19/6 68/98/6 71/20/6
f 70/19/1 73/98/1 71/20/1
f 74/10/7 75/81/7 72/11/7
f 70/6/1 76/4/1 74/38/1
f 76/32/8 77/115/8 75/33/8
f 78/19/1 76/98/1 70/20/1
f 77/4/9 76/38/9 78/5/9
f 79/19/1 78/98/1 66/20/1
f 81/28/3 78/119/3 79/29/3
f 83/28/3 81/119/3 82/29/3
f 85/31/2 80/120/2 81/29/2
f 86/28/3 83/119/3 84/29/3
f 88/31/2 85/120/2 83/29/2
f 89/28/3 86/119/3 87/29/3
f 91/31/2 88/120/2 86/29/2
f 92/28/9 89/119/9 90/29/9
f 232/19/3 93/98/3 92/20/3
f 93/19/3 264/98/3 91/20/3
f 94/19/3 92/98/3 95/20/3
f 95/19/3 96/98/3 389/20/3
f 98/19/3 95/98/3 97/20/3
f 279/19/3 94/98/3 98/20/3
f 99/19/3 98/98/3 100/20/3
f 102/19/3 100/98/3 101/20/3
f 100/19/3 97/98/3 384/20/3
f 104/19/3 102/98/3 103/20/3
f 106/19/3 99/98/3 102/20/3
f 107/19/3 104/98/3 105/20/3
f 107/19/3 109/98/3 106/20/3
f 110/39/3 107/123/3 108/40/3
f 107/42/3 110/124/3 112/43/3
f 363/45/3 113/125/3 110/46/3
f 113/51/10 115/126/10 114/52/10
f 118/57/11 117/127/11 114/56/11
f 119/49/4 112/128/4 114/50/4
f 122/55/2 119/129/2 117/56/2
f 121/19/3 281/98/3 120/20/3
f 109/42/3 112/124/3 119/43/3
f 121/42/3 119/124/3 122/43/3
f 123/13/4 122/76/4 124/14/4
f 118/58/7 139/83/7 126/8/7
f 124/59/7 126/130/7 485/11/7
f 127/59/4 124/130/4 125/11/4
f 130/60/2 127/131/2 128/17/2
f 127/7/4 129/80/4 223/8/4
f 127/10/3 130/81/3 131/11/3
f 133/7/1 134/80/1 131/8/1
f 126/59/1 130/130/1 132/11/1
f 136/13/1 133/76/1 130/14/1
f 133/24/3 135/118/3 283/25/3
f 133/51/3 136/126/3 138/52/3
f 140/57/5 138/127/5 136/56/5
f 139/64/3 118/132/3 116/50/3
f 143/24/10 142/118/10 138/25/10
f 142/24/3 144/118/3 135/25/3
f 146/39/10 145/123/10 142/40/10
f 147/19/3 144/98/3 142/20/3
f 148/19/10 145/98/10 146/20/10
f 151/19/3 147/98/3 145/20/3
f 152/19/3 148/98/3 150/20/3
f 153/19/3 151/98/3 148/20/3
f 154/24/3 176/118/3 153/25/3
f 152/39/3 155/123/3 157/40/3
f 155/19/12 149/98/12 351/20/12
f 157/19/3 155/98/3 156/20/3
f 154/19/4 157/98/4 158/20/4
f 157/19/4 159/98/4 162/20/4
f 159/23/13 156/79/13 346/17/13
f 158/68/4 162/72/4 163/20/4
f 163/19/6 164/98/6 167/20/6
f 161/19/14 288/98/14 164/20/14
f 178/68/4 158/72/4 165/20/4
f 165/19/6 167/98/6 169/20/6
f 169/69/4 167/133/4 168/11/4
f 167/70/4 164/71/4 286/17/4
f 166/19/15 169/98/15 171/20/15
f 172/18/4 171/70/4 169/71/4
f 153/13/7 176/76/7 175/14/7
f 180/7/4 153/80/4 171/8/4
f 173/69/7 171/133/7 172/11/7
f 171/19/16 173/98/16 179/20/16
f 175/21/4 177/68/4 178/72/4
f 176/19/4 154/98/4 178/20/4
f 174/4/7 179/38/7 181/5/7
f 181/39/3 151/123/3 153/40/3
f 181/19/3 182/98/3 147/20/3
f 183/32/7 184/115/7 182/33/7
f 185/10/3 186/81/3 184/11/3
f 186/22/7 185/78/7 187/8/7
f 190/60/4 179/131/4 189/17/4
f 179/60/4 173/131/4 191/17/4
f 196/70/7 192/71/7 188/17/7
f 282/10/7 195/81/7 193/11/7
f 198/10/4 199/81/4 197/73/4
f 196/10/3 197/81/3 285/11/3
f 199/32/3 198/115/3 200/33/3
f 202/10/3 203/81/3 201/11/3
f 203/60/1 202/131/1 204/17/1
f 224/10/3 205/81/3 204/11/3
f 206/4/7 204/38/7 207/5/7
f 208/32/7 282/115/7 194/33/7
f 212/7/7 211/80/7 209/8/7
f 213/13/7 212/76/7 210/14/7
f 218/13/7 216/76/7 213/14/7
f 214/22/7 213/78/7 215/8/7
f 219/4/3 216/38/3 217/5/3
f 216/32/3 218/115/3 227/33/3
f 216/22/7 219/78/7 221/8/7
f 222/19/3 219/98/3 225/20/3
f 222/13/4 223/76/4 224/14/4
f 223/19/3 225/98/3 121/20/3
f 225/19/3 217/98/3 281/20/3
f 205/10/2 224/81/2 129/73/2
f 218/19/3 226/98/3 229/20/3
f 217/19/3 227/98/3 228/20/3
f 227/19/3 229/98/3 230/20/3
f 229/19/3 231/98/3 232/20/3
f 226/19/3 234/98/3 231/20/3
f 231/19/3 233/98/3 93/20/3
f 234/19/3 235/98/3 233/20/3
f 236/10/7 235/81/7 237/11/7
f 262/32/9 233/115/9 235/33/9
f 238/7/7 237/80/7 239/8/7
f 241/75/1 239/77/1 240/14/1
f 241/13/6 244/76/6 242/14/6
f 243/15/7 260/13/7 238/76/7
f 244/7/17 245/80/17 243/8/17
f 250/15/7 245/75/7 244/77/7
f 247/13/4 265/76/4 246/14/4
f 244/22/4 246/78/4 249/8/4
f 268/13/2 247/76/2 244/14/2
f 251/9/7 253/22/7 245/78/7
f 72/23/7 272/79/7 252/17/7
f 245/13/18 253/76/18 254/14/18
f 254/32/1 253/115/1 255/33/1
f 259/19/9 257/98/9 255/20/9
f 257/10/7 259/81/7 260/11/7
f 260/18/7 259/23/7 236/79/7
f 256/4/12 262/38/12 236/5/12
f 254/9/7 258/7/7 260/80/7
f 263/19/3 256/98/3 261/20/3
f 256/19/3 252/98/3 271/20/3
f 263/23/4 264/79/4 265/17/4
f 264/10/7 93/81/7 266/11/7
f 264/19/3 261/98/3 88/20/3
f 265/7/7 266/80/7 267/8/7
f 93/23/1 233/79/1 268/17/1
f 266/13/1 268/76/1 241/14/1
f 268/12/2 233/10/2 262/81/2
f 267/22/1 241/78/1 270/8/1
f 246/75/7 267/77/7 269/14/7
f 261/19/3 271/98/3 85/20/3
f 271/19/3 77/98/3 80/20/3
f 252/4/3 272/38/3 77/5/3
f 240/15/7 274/75/7 275/77/7
f 275/22/7 276/78/7 277/8/7
f 276/75/7 214/77/7 278/14/7
f 230/19/3 232/98/3 94/20/3
f 228/19/3 230/98/3 279/20/3
f 280/19/3 279/98/3 99/20/3
f 120/19/3 280/98/3 106/20/3
f 281/19/3 228/98/3 280/20/3
f 134/4/7 283/38/7 201/5/7
f 283/32/7 284/115/7 199/33/7
f 284/24/3 283/118/3 135/25/3
f 144/39/3 147/123/3 182/40/3
f 285/4/7 197/38/7 284/5/7
f 192/10/4 285/81/4 184/73/4
f 164/58/4 288/83/4 287/8/4
f 287/15/4 288/134/4 291/82/4
f 289/9/4 291/58/4 293/83/4
f 292/19/15 291/98/15 288/20/15
f 296/19/15 293/98/15 291/20/15
f 294/19/6 312/98/6 295/20/6
f 297/84/6 294/135/6 293/67/6
f 293/85/2 295/136/2 318/14/2
f 298/68/4 301/72/4 297/20/4
f 292/21/4 299/68/4 298/72/4
f 345/19/4 300/98/4 298/20/4
f 300/19/4 302/98/4 301/20/4
f 302/19/4 304/98/4 303/20/4
f 301/68/4 303/72/4 305/20/4
f 304/19/4 343/98/4 306/20/4
f 306/19/14 308/98/14 307/20/14
f 305/19/19 307/98/19 294/20/19
f 308/4/14 310/38/14 309/5/14
f 307/19/19 309/98/19 312/20/19
f 310/4/14 320/38/14 311/5/14
f 309/19/19 311/98/19 313/20/19
f 312/19/6 313/98/6 314/20/6
f 313/86/4 311/137/4 316/8/4
f 314/85/4 313/136/4 315/14/4
f 295/68/2 314/72/2 317/20/2
f 311/58/4 320/83/4 319/8/4
f 322/32/2 324/115/2 321/33/2
f 323/23/2 326/79/2 324/17/2
f 324/87/2 325/138/2 454/20/2
f 326/32/2 327/115/2 325/33/2
f 327/39/5 326/123/5 328/40/5
f 331/19/5 328/98/5 326/20/5
f 328/24/5 330/118/5 459/25/5
f 328/39/5 331/123/5 332/40/5
f 342/19/5 333/98/5 331/20/5
f 331/19/3 333/98/3 335/20/3
f 338/19/12 336/98/12 335/20/12
f 332/39/12 335/123/12 336/40/12
f 337/19/12 335/98/12 333/20/12
f 300/19/3 338/98/3 337/20/3
f 302/19/3 337/98/3 339/20/3
f 339/19/3 340/98/3 342/20/3
f 304/19/3 339/98/3 341/20/3
f 341/23/2 342/79/2 310/17/2
f 343/4/2 341/38/2 308/5/2
f 342/10/2 323/81/2 320/11/2
f 344/19/12 348/98/12 336/20/12
f 345/19/3 344/98/3 338/20/3
f 160/10/20 346/81/20 344/11/20
f 347/19/12 350/98/12 348/20/12
f 348/24/12 349/118/12 463/25/12
f 348/24/12 350/118/12 352/25/12
f 156/19/12 351/98/12 350/20/12
f 350/39/12 351/123/12 354/40/12
f 354/24/3 356/118/3 353/25/3
f 353/88/3 462/139/3 349/46/3
f 354/24/10 146/118/10 143/25/10
f 356/24/3 357/118/3 359/25/3
f 143/24/10 141/118/10 357/25/10
f 358/24/1 357/118/1 141/25/1
f 360/88/3 462/139/3 353/46/3
f 359/24/3 361/118/3 362/25/3
f 358/51/10 364/126/10 361/52/10
f 361/24/3 363/118/3 366/25/3
f 361/51/10 364/126/10 365/52/10
f 364/64/21 137/132/21 116/50/21
f 140/57/21 137/127/21 364/56/21
f 115/49/4 113/128/4 365/50/4
f 363/24/3 111/118/3 368/25/3
f 458/92/3 362/140/3 366/93/3
f 367/92/3 366/140/3 368/93/3
f 108/24/3 369/118/3 368/25/3
f 370/92/3 368/140/3 369/93/3
f 367/24/3 370/118/3 371/25/3
f 370/24/3 372/118/3 373/25/3
f 372/39/3 374/123/3 376/40/3
f 377/39/3 374/123/3 372/40/3
f 377/19/3 378/98/3 375/20/3
f 376/39/3 374/123/3 375/40/3
f 105/19/3 103/98/3 378/20/3
f 108/39/3 105/123/3 377/40/3
f 378/19/3 379/98/3 380/20/3
f 103/19/3 101/98/3 379/20/3
f 101/19/3 384/98/3 381/20/3
f 379/19/3 381/98/3 383/20/3
f 385/95/1 382/96/1 381/29/1
f 382/95/1 403/96/1 383/29/1
f 97/28/5 389/119/5 386/29/5
f 385/28/5 386/119/5 387/29/5
f 399/30/4 387/95/4 386/96/4
f 389/19/3 390/98/3 394/20/3
f 96/19/3 393/98/3 390/20/3
f 479/27/7 392/121/7 390/20/7
f 393/19/3 484/98/3 391/20/3
f 392/27/4 395/121/4 394/20/4
f 388/19/3 394/98/3 396/20/3
f 395/27/4 397/121/4 396/20/4
f 397/27/4 473/121/4 398/20/4
f 399/19/3 396/98/3 398/20/3
f 402/95/4 387/96/4 399/29/4
f 400/19/3 398/98/3 39/20/3
f 400/23/4 35/79/4 409/17/4
f 382/28/3 387/119/3 402/29/3
f 403/97/2 402/99/2 401/11/2
f 404/22/2 401/78/2 472/8/2
f 405/22/1 410/78/1 406/8/1
f 407/23/1 383/79/1 404/17/1
f 35/23/7 407/79/7 406/17/7
f 406/21/22 411/19/22 29/98/22
f 414/12/1 411/97/1 406/99/1
f 470/13/23 412/76/23 411/14/23
f 411/9/24 412/7/24 471/80/24
f 413/16/2 411/117/2 414/17/2
f 417/69/2 413/133/2 415/11/2
f 418/9/1 419/7/1 417/80/1
f 423/100/2 421/141/2 418/101/2
f 425/19/2 422/98/2 421/20/2
f 424/100/2 423/141/2 420/101/2
f 427/32/2 425/115/2 423/33/2
f 428/24/5 426/118/5 425/25/5
f 426/24/5 464/118/5 422/25/5
f 437/24/5 428/118/5 427/25/5
f 431/103/2 429/4/2 427/38/2
f 435/9/24 431/7/24 430/80/24
f 433/16/4 430/117/4 432/17/4
f 436/18/2 435/70/2 433/71/2
f 437/7/4 429/80/4 431/8/4
f 438/7/2 435/80/2 436/105/2
f 441/10/2 437/81/2 435/11/2
f 440/13/4 438/76/4 439/107/4
f 443/23/4 441/79/4 438/17/4
f 442/24/5 371/118/5 437/25/5
f 445/91/2 442/142/2 443/25/2
f 444/10/2 443/81/2 440/11/2
f 447/23/1 444/79/1 446/17/1
f 459/24/5 445/118/5 447/25/5
f 329/24/5 447/118/5 449/25/5
f 449/10/1 450/81/1 448/11/1
f 327/4/2 449/38/2 451/5/2
f 452/7/1 448/80/1 455/105/1
f 453/32/2 454/115/2 325/33/2
f 446/13/1 456/76/1 455/107/1
f 446/7/2 440/80/2 457/105/2
f 458/24/3 367/118/3 442/25/3
f 460/24/3 458/118/3 445/25/3
f 461/24/3 460/118/3 459/25/3
f 460/92/3 360/140/3 362/93/3
f 460/112/3 461/143/3 462/113/3
f 463/112/3 461/143/3 330/113/3
f 461/112/3 463/143/3 349/113/3
f 437/24/5 371/118/5 373/25/5
f 373/24/5 376/118/5 426/25/5
f 376/24/5 466/118/5 464/25/5
f 464/24/5 465/118/5 468/25/5
f 466/24/5 467/118/5 465/25/5
f 375/39/3 380/123/3 467/40/3
f 467/39/3 380/123/3 383/40/3
f 467/24/5 407/118/5 33/25/5
f 465/24/5 33/118/5 469/25/5
f 468/19/2 469/98/2 412/20/2
f 470/34/2 419/32/2 422/115/2
f 419/7/23 470/80/23 413/8/23
f 412/21/2 469/19/2 34/98/2
f 401/22/4 409/78/4 28/8/4
f 473/27/2 474/121/2 43/20/2
f 397/19/3 475/98/3 474/20/3
f 475/19/3 476/98/3 48/20/3
f 477/19/3 478/98/3 476/20/3
f 395/19/3 477/98/3 475/20/3
f 479/19/3 480/98/3 478/20/3
f 392/19/3 479/98/3 477/20/3
f 480/27/7 479/121/7 391/20/7
f 478/27/1 480/121/1 481/20/1
f 55/39/3 481/123/3 482/40/3
f 484/19/3 482/98/3 481/20/3
f 483/31/7 482/120/7 82/29/7
f 482/31/7 484/120/7 84/29/7
f 484/31/7 393/120/7 87/29/7
f 55/19/1 483/98/1 64/20/1
f 476/27/1 478/121/1 56/20/1
f 393/31/7 96/120/7 90/29/7
f 149/19/3 146/98/3 355/20/3
f 41/28/3 486/119/3 3/29/3
