# Blender 5.1.2
# www.blender.org
mtllib room35.mtl
o 01-Caves.035
v -50.043121 10.924628 10.087347
v -50.043121 -1.575369 10.087348
v -50.043121 10.924629 20.087349
v -40.043121 10.924628 10.087347
v -50.043121 13.424634 10.087347
v -50.043121 13.424635 20.087347
v -40.043121 13.424634 10.087347
v -40.043121 13.424635 20.087347
v -30.043121 13.424634 10.087347
v -30.043121 13.424635 20.087347
v -20.043121 13.424634 10.087347
v -30.043121 10.924628 10.087347
v -30.043121 -1.575369 10.087348
v -20.043121 10.924628 10.087347
v -20.043121 -1.575369 10.087348
v -20.043121 10.924629 20.087349
v -10.043159 10.924628 10.087347
v -10.043159 10.924629 20.087349
v -10.043159 -1.575369 10.087348
v -10.043159 -1.575369 20.087349
v -10.043159 -1.575368 30.087387
v -20.043121 -1.575369 20.087349
v -20.043121 -1.575368 30.087387
v -30.043121 -1.575369 20.087349
v -40.043121 -1.575369 20.087349
v -30.043121 -1.575368 30.087387
v -30.043121 -1.575367 40.087349
v -30.043121 -11.575365 30.087387
v -40.043121 -1.575368 30.087387
v -50.043121 -1.575368 30.087387
v -40.043121 -1.575367 40.087349
v -40.043121 -11.575365 30.087387
v -40.043121 -11.575364 40.087349
v -30.043121 -11.575364 40.087349
v -40.043121 -11.575363 50.087349
v -30.043121 -11.575363 50.087349
v -40.043121 -1.575366 50.087349
v -50.043121 -1.575366 50.087349
v -40.043121 -1.575366 60.087349
v -30.043121 -1.575366 50.087349
v -30.043121 -1.575366 60.087349
v -20.043121 -1.575366 50.087349
v -20.043121 -1.575366 60.087349
v -10.043159 -1.575366 50.087349
v -10.043159 10.924631 50.087349
v -20.043121 -1.575367 40.087349
v -10.043159 -1.575367 40.087349
v -10.043159 0.924635 40.087349
v -10.043159 0.924634 30.087387
v -10.043159 10.924630 40.087349
v -10.043159 13.424636 40.087349
v -10.043159 10.924629 30.087387
v -10.043159 10.924631 50.087349
v -10.043159 13.424637 50.087349
v -20.043121 13.424637 50.087349
v -10.043159 13.424638 60.087349
v -20.043121 13.424638 60.087349
v -10.043159 13.424639 70.087349
v -10.043159 10.924632 60.087349
v -10.043159 10.924632 60.087349
v -10.043159 10.924633 70.087349
v -10.043159 0.924637 70.087349
v -20.043121 10.924633 70.087349
v -20.043121 13.424639 70.087349
v -30.043121 10.924633 70.087349
v -20.043121 0.924637 70.087349
v -30.043121 0.924637 70.087349
v -20.043121 -1.575365 70.087349
v -10.043159 -1.575365 70.087349
v -30.043121 -1.575365 70.087349
v -40.043121 -1.575365 70.087349
v -50.043121 -1.575365 70.087349
v -40.043121 0.924637 70.087349
v -50.043121 0.924637 70.087349
v -40.043121 0.924638 80.087349
v -40.043121 10.924633 70.087349
v -40.043121 13.424639 70.087349
v -50.043121 10.924633 70.087349
v -40.043121 10.924633 80.087349
v -40.043121 13.424639 80.087349
v -50.043121 10.924633 80.087349
v -50.043121 -1.575364 80.087349
v -50.043121 10.924634 90.087349
v -50.043121 0.924638 80.087349
v -50.043121 13.424639 80.087349
v -50.043121 13.424640 90.087349
v -40.043121 13.424640 90.087349
v -50.043121 13.424641 100.087349
v -40.043121 13.424641 100.087349
v -50.043121 13.424642 110.087349
v -50.043121 10.924635 100.087349
v -50.043121 -1.575363 100.087349
v -50.043121 10.924636 110.087349
v -50.043121 -1.575362 110.087349
v -50.043121 10.924637 120.087349
v -50.043121 -1.575361 120.087349
v -50.043121 10.924637 130.087265
v -50.043121 13.424643 120.087349
v -40.043121 13.424643 120.087349
v -50.043121 13.424643 130.087265
v -40.043121 13.424643 130.087265
v -50.043121 13.424644 140.087341
v -40.043121 13.424644 140.087341
v -50.043121 13.424644 150.087341
v -50.043121 10.924638 140.087341
v -50.043121 -1.575359 140.087341
v -50.043121 10.924639 150.087341
v -50.043121 -1.575359 150.087341
v -50.043121 10.924640 160.087265
v -50.043121 -1.575358 160.087265
v -50.043121 10.924640 170.087341
v -50.043121 13.424645 160.087265
v -40.043121 13.424645 160.087265
v -50.043121 13.424645 170.087341
v -40.043121 13.424645 170.087341
v -50.043121 13.424646 180.087341
v -40.043121 13.424646 180.087341
v -50.043121 10.924641 180.087341
v -50.043121 10.924641 180.087341
v -40.043121 10.924641 180.087341
v -50.043121 -1.575356 180.087341
v -40.043121 -1.575356 180.087341
v -50.043121 -1.575357 170.087341
v -40.043121 -1.575357 170.087341
v -40.043121 -1.575358 160.087265
v -30.043121 -1.575357 170.087341
v -30.043121 -1.575356 180.087341
v -20.043121 -1.575357 170.087341
v -30.043121 -1.575358 160.087265
v -30.043121 -1.575359 150.087341
v -20.043121 -1.575358 160.087265
v -10.043159 -1.575358 160.087265
v -20.043121 -1.575359 150.087341
v -20.043121 -1.575359 140.087341
v -10.043159 -1.575359 150.087341
v -10.043159 -1.575359 140.087341
v -10.043159 3.424645 140.087341
v -20.043121 3.424645 140.087341
v -10.043159 3.424646 150.087341
v -20.043121 3.424646 150.087341
v -10.043159 5.924644 150.087341
v -20.043121 5.924644 150.087341
v -10.043159 5.924644 160.087265
v -20.043121 5.924644 160.087265
v -10.043159 13.424645 160.087265
v -10.043159 13.424645 170.087341
v -20.043121 13.424645 160.087265
v -30.043121 13.424645 160.087265
v -20.043121 13.424645 170.087341
v -20.043121 13.424646 180.087341
v -30.043121 13.424645 170.087341
v -30.043121 13.424646 180.087341
v -30.043121 10.924641 180.087341
v -20.043121 10.924641 180.087341
v -10.043159 10.924641 180.087341
v -20.043121 -1.575356 180.087341
v -10.043159 -1.575356 180.087341
v -10.043159 0.924646 180.087341
v -10.043159 -1.575357 170.087341
v -10.043159 0.924645 170.087341
v -10.043159 13.424646 180.087341
v -30.043121 8.424644 160.087265
v -30.043121 10.924640 160.087265
v -30.043121 8.424644 150.087341
v -40.043121 8.424644 150.087341
v -40.043121 10.924639 150.087341
v -30.043121 8.424643 140.087341
v -30.043121 5.924643 140.087341
v -40.043121 8.424643 140.087341
v -20.043121 5.924643 140.087341
v -30.043121 8.424642 130.087265
v -30.043121 8.424642 120.087349
v -30.043121 5.924642 130.087265
v -20.043121 13.424643 130.087265
v -20.043121 5.924642 130.087265
v -10.043159 13.424643 130.087265
v -20.043121 13.424643 120.087349
v -20.043121 13.424644 140.087341
v -10.043159 13.424644 140.087341
v -10.043159 13.424644 140.087341
v -10.043159 13.424643 130.087265
v -20.043121 -1.575360 130.087265
v -10.043159 -1.575360 130.087265
v -10.043159 -1.575361 120.087349
v -10.043159 10.924637 120.087349
v -20.043121 -1.575361 120.087349
v -30.043121 -1.575361 120.087349
v -20.043121 -1.575362 110.087349
v -30.043121 -1.575362 110.087349
v -20.043121 -1.575363 100.087349
v -10.043159 -1.575362 110.087349
v -10.043159 10.924636 110.087349
v -10.043159 13.424642 110.087349
v -10.043159 13.424641 100.087349
v -20.043121 13.424642 110.087349
v -10.043159 13.424643 120.087349
v -10.043159 10.924636 110.087349
v -10.043159 10.924635 100.087349
v -10.043159 10.924637 120.087349
v -10.043159 10.924637 130.087265
v -20.043121 13.424641 100.087349
v -30.043121 13.424642 110.087349
v -30.043121 13.424641 100.087349
v -40.043121 13.424642 110.087349
v -30.043121 13.424643 120.087349
v -30.043121 5.924641 120.087349
v -40.043121 5.924641 120.087349
v -40.043121 5.924642 130.087265
v -40.043121 5.924643 140.087341
v -30.043121 13.424640 90.087349
v -20.043121 13.424640 90.087349
v -30.043121 13.424639 80.087349
v -30.043121 13.424639 70.087349
v -20.043121 13.424639 80.087349
v -30.043121 10.924633 80.087349
v -20.043121 10.924633 80.087349
v -30.043121 0.924638 80.087349
v -20.043121 0.924638 80.087349
v -30.043121 -1.575364 80.087349
v -40.043121 -1.575364 80.087349
v -30.043121 -1.575363 90.087349
v -20.043121 -1.575364 80.087349
v -20.043121 -1.575363 90.087349
v -10.043159 -1.575364 80.087349
v -10.043159 -1.575363 90.087349
v -10.043159 0.924638 80.087349
v -10.043159 10.924633 80.087349
v -10.043159 13.424639 80.087349
v -10.043159 13.424640 90.087349
v -10.043159 10.924633 80.087349
v -10.043159 10.924634 90.087349
v -10.043159 10.924634 90.087349
v -10.043159 10.924635 100.087349
v -10.043159 -1.575363 100.087349
v -40.043121 -1.575363 90.087349
v -30.043121 -1.575363 100.087349
v -40.043121 -1.575363 100.087349
v -40.043121 -1.575362 110.087349
v -40.043121 -1.575361 120.087349
v -40.043121 -1.575360 130.087265
v -40.043121 -11.575357 120.087349
v -40.043121 -11.575357 130.087265
v -30.043121 -11.575357 120.087349
v -30.043121 -11.575357 130.087265
v -30.043121 -1.575360 130.087265
v -30.043121 -11.575356 140.087341
v -40.043121 -11.575356 140.087341
v -30.043121 -1.575359 140.087341
v -40.043121 -1.575359 140.087341
v -40.043121 -1.575359 150.087341
v -50.043121 -1.575360 130.087265
v -50.043121 -1.575363 90.087349
v -30.043121 13.424638 60.087349
v -40.043121 13.424638 60.087349
v -30.043121 13.424637 50.087349
v -40.043121 13.424637 50.087349
v -30.043121 13.424636 40.087349
v -30.043121 13.424635 30.087385
v -40.043121 13.424636 40.087349
v -20.043121 13.424636 40.087349
v -20.043121 13.424635 30.087385
v -20.043121 13.424635 20.087347
v -10.043159 13.424635 30.087385
v -20.043121 10.924629 30.087387
v -40.043121 13.424635 30.087385
v -50.043121 13.424636 40.087349
v -50.043121 13.424635 30.087385
v -50.043121 13.424637 50.087349
v -50.043121 10.924630 40.087349
v -50.043121 10.924629 30.087387
v -50.043121 -1.575367 40.087349
v -50.043121 10.924631 50.087349
v -50.043121 10.924632 60.087349
v -50.043121 -1.575366 60.087349
v -50.043121 13.424638 60.087349
v -50.043121 13.424639 70.087349
v -40.043121 13.424644 150.087341
v -10.043159 -1.575366 60.087349
v -50.043121 -1.575369 20.087349
v -40.043121 -1.575369 10.087348
vn -0.0000 -0.0000 1.0000
vn 1.0000 -0.0000 -0.0000
vn -0.0000 -1.0000 -0.0000
vn -1.0000 -0.0000 -0.0000
vn -0.0000 1.0000 -0.0000
vn -0.0000 -0.0000 -1.0000
vn -0.7809 0.6247 -0.0000
vn -0.2357 -0.9428 0.2357
vn -0.2425 -0.9701 -0.0000
vn 0.4472 -0.8944 -0.0000
vn -0.8321 0.5547 -0.0000
vt 0.752941 0.878431
vt 0.872549 0.998039
vt 0.752941 0.998039
vt 0.501961 0.878431
vt 0.621569 0.998039
vt 0.501961 0.998039
vt 0.252941 0.252941
vt 0.372549 0.278432
vt 0.252941 0.278432
vt 0.372549 0.372549
vt 0.252941 0.372549
vt 0.252941 0.501961
vt 0.372549 0.621569
vt 0.252941 0.621569
vt 0.627451 0.998039
vt 0.627451 0.878431
vt 0.747059 0.998039
vt 0.878431 0.221568
vt 0.998039 0.247059
vt 0.878431 0.247059
vt 0.752941 0.127451
vt 0.872549 0.247059
vt 0.752941 0.247059
vt 0.252941 0.627451
vt 0.372549 0.747059
vt 0.252941 0.747059
vt 0.001961 0.627451
vt 0.121569 0.747059
vt 0.001961 0.747059
vt 0.127451 0.627451
vt 0.247059 0.747059
vt 0.127451 0.747059
vt 0.378431 0.627451
vt 0.498039 0.747059
vt 0.378431 0.747059
vt 0.127451 0.501961
vt 0.247059 0.621569
vt 0.127451 0.621569
vt 0.001961 0.501961
vt 0.121569 0.621569
vt 0.001961 0.621569
vt 0.878431 0.378431
vt 0.998039 0.498039
vt 0.878431 0.498039
vt 0.627451 0.409804
vt 0.747059 0.498039
vt 0.627451 0.498039
vt 0.752941 0.378431
vt 0.872549 0.498039
vt 0.752941 0.498039
vt 0.501961 0.378431
vt 0.621569 0.498039
vt 0.501961 0.498039
vt 0.627451 0.378431
vt 0.127451 0.721568
vt 0.752941 0.472549
vt 0.501961 0.472549
vt 0.627451 0.472549
vt 0.872549 0.878431
vt 0.621569 0.878431
vt 0.372549 0.252941
vt 0.372549 0.501961
vt 0.998039 0.221568
vt 0.872549 0.127451
vt 0.747059 0.878431
vt 0.372549 0.627451
vt 0.121569 0.627451
vt 0.247059 0.627451
vt 0.498039 0.627451
vt 0.247059 0.501961
vt 0.121569 0.501961
vt 0.998039 0.378431
vt 0.747059 0.409804
vt 0.872549 0.378431
vt 0.621569 0.378431
vt 0.747059 0.378431
vt 0.247059 0.721568
vt 0.621569 0.472549
vt 0.872549 0.472549
s 0
usemtl Material.001
f 4/1/1 2/2/1 280/3/1
f 1/4/2 279/5/2 2/6/2
f 5/7/2 3/8/2 1/9/2
f 7/7/1 1/8/1 4/9/1
f 8/4/3 5/5/3 7/6/3
f 9/7/1 4/8/1 12/9/1
f 10/4/3 7/5/3 9/6/3
f 262/4/3 9/5/3 11/6/3
f 11/7/1 12/8/1 14/9/1
f 12/1/1 280/2/1 13/3/1
f 14/1/1 13/2/1 15/3/1
f 17/1/1 15/2/1 19/3/1
f 262/7/4 14/8/4 16/9/4
f 17/4/3 16/5/3 14/6/3
f 20/4/5 15/5/5 22/6/5
f 20/1/5 23/2/5 21/3/5
f 15/1/5 24/2/5 22/3/5
f 22/1/5 26/2/5 23/3/5
f 24/1/5 29/2/5 26/3/5
f 13/1/5 25/2/5 24/3/5
f 23/1/5 27/2/5 46/3/5
f 27/7/4 28/10/4 34/11/4
f 26/7/1 32/10/1 28/11/1
f 29/1/5 271/2/5 31/3/5
f 25/1/5 30/2/5 29/3/5
f 29/7/2 33/10/2 32/11/2
f 28/12/5 33/13/5 34/14/5
f 34/12/5 35/13/5 36/14/5
f 31/7/2 35/10/2 33/11/2
f 37/7/6 36/10/6 35/11/6
f 37/1/5 274/2/5 39/3/5
f 31/1/5 38/2/5 37/3/5
f 40/1/5 39/2/5 41/3/5
f 40/7/4 34/10/4 36/11/4
f 42/1/5 41/2/5 43/3/5
f 46/1/5 40/2/5 42/3/5
f 59/4/7 42/5/7 43/6/7
f 42/15/6 45/16/6 44/17/6
f 47/1/5 42/2/5 44/3/5
f 47/4/5 23/5/5 46/6/5
f 48/18/4 21/19/4 47/20/4
f 50/21/4 49/22/4 48/23/4
f 54/7/4 50/8/4 53/9/4
f 51/7/4 52/8/4 50/9/4
f 56/4/3 55/5/3 54/6/3
f 55/4/3 51/5/3 54/6/3
f 56/7/4 45/8/4 59/9/4
f 58/4/3 57/5/3 56/6/3
f 58/7/4 60/8/4 61/9/4
f 63/4/6 62/5/6 66/6/6
f 64/7/6 61/8/6 63/9/6
f 213/7/6 63/8/6 65/9/6
f 65/4/6 66/5/6 67/6/6
f 67/7/6 68/8/6 70/9/6
f 66/7/6 69/8/6 68/9/6
f 278/1/5 68/2/5 69/3/5
f 43/1/5 70/2/5 68/3/5
f 41/1/5 71/2/5 70/3/5
f 73/7/6 70/8/6 71/9/6
f 74/7/6 71/8/6 72/9/6
f 39/1/5 72/2/5 71/3/5
f 78/4/6 73/5/6 74/6/6
f 67/16/5 75/17/5 217/15/5
f 76/16/2 75/17/2 73/15/2
f 77/7/2 79/8/2 76/9/2
f 276/7/6 76/8/6 78/9/6
f 79/4/1 84/5/1 75/6/1
f 80/7/1 81/8/1 79/9/1
f 81/4/2 252/5/2 82/6/2
f 85/7/2 83/8/2 81/9/2
f 87/4/3 85/5/3 80/6/3
f 86/7/2 91/8/2 83/9/2
f 89/4/3 86/5/3 87/6/3
f 204/4/3 88/5/3 89/6/3
f 88/7/2 93/8/2 91/9/2
f 83/4/2 92/5/2 252/6/2
f 91/4/2 94/5/2 92/6/2
f 93/4/2 96/5/2 94/6/2
f 90/7/2 95/8/2 93/9/2
f 95/4/2 251/5/2 96/6/2
f 98/7/2 97/8/2 95/9/2
f 101/4/3 98/5/3 99/6/3
f 99/4/3 90/5/3 204/6/3
f 100/7/2 105/8/2 97/9/2
f 103/4/3 100/5/3 101/6/3
f 277/4/3 102/5/3 103/6/3
f 102/7/2 107/8/2 105/9/2
f 97/4/2 106/5/2 251/6/2
f 105/4/2 108/5/2 106/6/2
f 107/4/2 110/5/2 108/6/2
f 104/7/2 109/8/2 107/9/2
f 109/4/2 123/5/2 110/6/2
f 112/7/2 111/8/2 109/9/2
f 115/4/3 112/5/3 113/6/3
f 113/4/3 104/5/3 277/6/3
f 114/7/2 118/8/2 111/9/2
f 117/4/3 114/5/3 115/6/3
f 116/7/6 120/8/6 119/9/6
f 119/4/6 122/5/6 121/6/6
f 111/4/2 121/5/2 123/6/2
f 124/24/5 121/25/5 122/26/5
f 125/27/5 123/28/5 124/29/5
f 129/30/5 124/31/5 126/32/5
f 126/33/5 122/34/5 127/35/5
f 128/24/5 127/25/5 156/26/5
f 131/27/5 126/28/5 128/29/5
f 125/36/5 130/37/5 250/38/5
f 133/1/5 129/2/5 131/3/5
f 132/30/5 128/31/5 159/32/5
f 135/39/5 131/40/5 132/41/5
f 130/1/5 134/2/5 248/3/5
f 133/36/5 136/37/5 134/38/5
f 137/7/1 134/8/1 136/9/1
f 139/42/3 138/43/3 137/44/3
f 141/45/1 140/46/1 139/47/1
f 143/48/3 142/49/3 141/50/3
f 145/51/1 144/52/1 143/53/1
f 146/4/3 147/5/3 145/6/3
f 147/54/1 162/46/1 144/47/1
f 149/4/3 148/5/3 147/6/3
f 161/4/3 149/5/3 146/6/3
f 150/4/3 151/5/3 149/6/3
f 151/4/3 113/5/3 148/6/3
f 152/4/3 115/5/3 151/6/3
f 117/7/6 153/8/6 120/9/6
f 152/7/6 154/8/6 153/9/6
f 153/4/6 156/5/6 127/6/6
f 120/4/6 127/5/6 122/6/6
f 150/7/6 155/8/6 154/9/6
f 154/4/6 157/5/6 156/6/6
f 159/33/5 156/34/5 157/35/5
f 158/55/4 159/31/4 157/32/4
f 159/32/4 160/55/4 132/31/4
f 163/50/1 148/56/1 113/49/1
f 162/50/4 163/56/4 164/49/4
f 163/48/8 166/49/8 164/50/8
f 164/53/1 166/57/1 165/52/1
f 164/54/3 169/46/3 167/47/3
f 144/42/9 164/43/9 142/44/9
f 142/51/9 167/52/9 170/53/9
f 171/57/2 168/52/2 173/53/2
f 167/57/1 209/52/1 168/53/1
f 170/48/9 171/49/9 175/50/9
f 172/45/2 173/46/2 206/47/2
f 174/54/10 172/46/10 177/47/10
f 171/47/6 174/54/6 175/46/6
f 174/7/2 170/8/2 175/9/2
f 179/4/3 174/5/3 176/6/3
f 176/4/3 177/5/3 196/6/3
f 134/47/6 178/54/6 180/46/6
f 180/4/11 182/5/11 134/6/11
f 182/15/6 181/16/6 183/17/6
f 184/1/5 182/2/5 183/3/5
f 184/15/1 185/16/1 186/17/1
f 186/1/5 245/2/5 182/3/5
f 188/4/7 185/5/7 192/6/7
f 188/1/5 187/2/5 186/3/5
f 190/1/5 189/2/5 188/3/5
f 234/1/5 188/2/5 191/3/5
f 188/15/6 192/16/6 191/17/6
f 196/7/4 192/8/4 185/9/4
f 193/7/4 198/8/4 197/9/4
f 193/4/3 201/5/3 194/6/3
f 196/4/3 195/5/3 193/6/3
f 176/7/4 199/8/4 200/9/4
f 195/4/3 203/5/3 201/6/3
f 177/4/3 202/5/3 195/6/3
f 202/4/3 89/5/3 203/6/3
f 205/4/3 204/5/3 202/6/3
f 172/47/6 205/58/6 177/46/6
f 99/54/6 206/46/6 207/47/6
f 173/48/3 207/49/3 206/50/3
f 101/54/4 207/46/4 208/47/4
f 168/42/3 208/43/3 173/44/3
f 103/56/4 208/49/4 209/50/4
f 201/4/3 210/5/3 211/6/3
f 203/4/3 87/5/3 210/6/3
f 210/4/3 80/5/3 212/6/3
f 211/4/3 212/5/3 214/6/3
f 212/7/4 65/8/4 215/9/4
f 212/4/3 77/5/3 213/6/3
f 214/7/1 215/8/1 216/9/1
f 216/4/1 217/5/1 218/6/1
f 215/4/4 67/5/4 217/6/4
f 217/7/1 220/8/1 219/9/1
f 218/7/1 219/8/1 222/9/1
f 219/1/5 235/2/5 221/3/5
f 222/1/5 221/2/5 223/3/5
f 224/1/5 223/2/5 225/3/5
f 226/7/1 222/8/1 224/9/1
f 227/4/1 218/5/1 226/6/1
f 228/7/1 216/8/1 227/9/1
f 229/4/3 214/5/3 228/6/3
f 229/7/4 230/8/4 231/9/4
f 194/4/3 211/5/3 229/6/3
f 194/7/4 232/8/4 233/9/4
f 233/4/7 223/5/7 190/6/7
f 223/15/6 232/16/6 225/17/6
f 234/15/1 233/16/1 190/17/1
f 223/1/5 236/2/5 190/3/5
f 221/1/5 237/2/5 236/3/5
f 236/1/5 238/2/5 189/3/5
f 235/1/5 92/2/5 237/3/5
f 237/1/5 94/2/5 238/3/5
f 189/1/5 239/2/5 187/3/5
f 238/1/5 96/2/5 239/3/5
f 239/7/2 242/10/2 241/11/2
f 239/1/5 251/2/5 240/3/5
f 187/7/1 241/10/1 243/11/1
f 245/7/4 243/10/4 244/11/4
f 248/7/4 244/10/4 246/11/4
f 249/7/6 246/10/6 247/11/6
f 250/1/5 248/2/5 249/3/5
f 182/1/5 248/2/5 134/3/5
f 240/7/2 247/10/2 242/11/2
f 240/1/5 106/2/5 249/3/5
f 108/1/5 249/2/5 106/3/5
f 110/39/5 250/40/5 108/41/5
f 220/1/5 252/2/5 235/3/5
f 75/7/1 82/8/1 220/9/1
f 213/4/3 254/5/3 253/6/3
f 64/4/3 253/5/3 57/6/3
f 253/4/3 256/5/3 255/6/3
f 57/4/3 255/5/3 55/6/3
f 255/4/3 259/5/3 257/6/3
f 55/4/3 257/5/3 260/6/3
f 260/4/3 258/5/3 261/6/3
f 257/4/3 265/5/3 258/6/3
f 51/4/3 261/5/3 263/6/3
f 261/7/4 16/8/4 264/9/4
f 261/4/3 10/5/3 262/6/3
f 263/7/1 264/8/1 52/9/1
f 18/4/3 264/5/3 16/6/3
f 259/4/3 267/5/3 265/6/3
f 256/4/3 266/5/3 259/6/3
f 267/7/2 269/8/2 270/9/2
f 266/7/2 272/8/2 269/9/2
f 270/4/2 271/5/2 30/6/2
f 269/4/2 38/5/2 271/6/2
f 272/4/2 274/5/2 38/6/2
f 268/7/2 273/8/2 272/9/2
f 273/4/2 72/5/2 274/6/2
f 275/7/2 78/8/2 273/9/2
f 77/4/3 275/5/3 254/6/3
f 254/4/3 268/5/3 256/6/3
f 6/7/2 270/8/2 3/9/2
f 3/4/2 30/5/2 279/6/2
f 265/4/3 6/5/3 8/6/3
f 258/4/3 8/5/3 10/6/3
f 142/51/4 138/52/4 140/53/4
f 277/56/4 169/49/4 165/50/4
f 113/50/4 277/56/4 166/49/4
f 278/15/1 59/16/1 43/17/1
f 280/1/5 279/2/5 25/3/5
f 4/1/1 1/59/1 2/2/1
f 1/4/2 3/60/2 279/5/2
f 5/7/2 6/61/2 3/8/2
f 7/7/1 5/61/1 1/8/1
f 8/4/3 6/60/3 5/5/3
f 9/7/1 7/61/1 4/8/1
f 10/4/3 8/60/3 7/5/3
f 262/4/3 10/60/3 9/5/3
f 11/7/1 9/61/1 12/8/1
f 12/1/1 4/59/1 280/2/1
f 14/1/1 12/59/1 13/2/1
f 17/1/1 14/59/1 15/2/1
f 262/7/4 11/61/4 14/8/4
f 17/4/3 18/60/3 16/5/3
f 20/4/5 19/60/5 15/5/5
f 20/1/5 22/59/5 23/2/5
f 15/1/5 13/59/5 24/2/5
f 22/1/5 24/59/5 26/2/5
f 24/1/5 25/59/5 29/2/5
f 13/1/5 280/59/5 25/2/5
f 23/1/5 26/59/5 27/2/5
f 27/7/4 26/61/4 28/10/4
f 26/7/1 29/61/1 32/10/1
f 29/1/5 30/59/5 271/2/5
f 25/1/5 279/59/5 30/2/5
f 29/7/2 31/61/2 33/10/2
f 28/12/5 32/62/5 33/13/5
f 34/12/5 33/62/5 35/13/5
f 31/7/2 37/61/2 35/10/2
f 37/7/6 40/61/6 36/10/6
f 37/1/5 38/59/5 274/2/5
f 31/1/5 271/59/5 38/2/5
f 40/1/5 37/59/5 39/2/5
f 40/7/4 27/61/4 34/10/4
f 42/1/5 40/59/5 41/2/5
f 46/1/5 27/59/5 40/2/5
f 59/4/7 45/60/7 42/5/7
f 47/1/5 46/59/5 42/2/5
f 47/4/5 21/60/5 23/5/5
f 48/18/4 49/63/4 21/19/4
f 50/21/4 52/64/4 49/22/4
f 54/7/4 51/61/4 50/8/4
f 51/7/4 263/61/4 52/8/4
f 56/4/3 57/60/3 55/5/3
f 55/4/3 260/60/3 51/5/3
f 56/7/4 54/61/4 45/8/4
f 58/4/3 64/60/3 57/5/3
f 58/7/4 56/61/4 60/8/4
f 63/4/6 61/60/6 62/5/6
f 64/7/6 58/61/6 61/8/6
f 213/7/6 64/61/6 63/8/6
f 65/4/6 63/60/6 66/5/6
f 67/7/6 66/61/6 68/8/6
f 66/7/6 62/61/6 69/8/6
f 278/1/5 43/59/5 68/2/5
f 43/1/5 41/59/5 70/2/5
f 41/1/5 39/59/5 71/2/5
f 73/7/6 67/61/6 70/8/6
f 74/7/6 73/61/6 71/8/6
f 39/1/5 274/59/5 72/2/5
f 78/4/6 76/60/6 73/5/6
f 67/16/5 73/65/5 75/17/5
f 76/16/2 79/65/2 75/17/2
f 77/7/2 80/61/2 79/8/2
f 276/7/6 77/61/6 76/8/6
f 79/4/1 81/60/1 84/5/1
f 80/7/1 85/61/1 81/8/1
f 81/4/2 83/60/2 252/5/2
f 85/7/2 86/61/2 83/8/2
f 87/4/3 86/60/3 85/5/3
f 86/7/2 88/61/2 91/8/2
f 89/4/3 88/60/3 86/5/3
f 204/4/3 90/60/3 88/5/3
f 88/7/2 90/61/2 93/8/2
f 83/4/2 91/60/2 92/5/2
f 91/4/2 93/60/2 94/5/2
f 93/4/2 95/60/2 96/5/2
f 90/7/2 98/61/2 95/8/2
f 95/4/2 97/60/2 251/5/2
f 98/7/2 100/61/2 97/8/2
f 101/4/3 100/60/3 98/5/3
f 99/4/3 98/60/3 90/5/3
f 100/7/2 102/61/2 105/8/2
f 103/4/3 102/60/3 100/5/3
f 277/4/3 104/60/3 102/5/3
f 102/7/2 104/61/2 107/8/2
f 97/4/2 105/60/2 106/5/2
f 105/4/2 107/60/2 108/5/2
f 107/4/2 109/60/2 110/5/2
f 104/7/2 112/61/2 109/8/2
f 109/4/2 111/60/2 123/5/2
f 112/7/2 114/61/2 111/8/2
f 115/4/3 114/60/3 112/5/3
f 113/4/3 112/60/3 104/5/3
f 114/7/2 116/61/2 118/8/2
f 117/4/3 116/60/3 114/5/3
f 116/7/6 117/61/6 120/8/6
f 119/4/6 120/60/6 122/5/6
f 111/4/2 118/60/2 121/5/2
f 124/24/5 123/66/5 121/25/5
f 125/27/5 110/67/5 123/28/5
f 129/30/5 125/68/5 124/31/5
f 126/33/5 124/69/5 122/34/5
f 128/24/5 126/66/5 127/25/5
f 131/27/5 129/67/5 126/28/5
f 125/36/5 129/70/5 130/37/5
f 133/1/5 130/59/5 129/2/5
f 132/30/5 131/68/5 128/31/5
f 135/39/5 133/71/5 131/40/5
f 130/1/5 133/59/5 134/2/5
f 133/36/5 135/70/5 136/37/5
f 137/7/1 138/61/1 134/8/1
f 139/42/3 140/72/3 138/43/3
f 141/45/1 142/73/1 140/46/1
f 143/48/3 144/74/3 142/49/3
f 145/51/1 147/75/1 144/52/1
f 146/4/3 149/60/3 147/5/3
f 147/54/1 148/76/1 162/46/1
f 149/4/3 151/60/3 148/5/3
f 161/4/3 150/60/3 149/5/3
f 150/4/3 152/60/3 151/5/3
f 151/4/3 115/60/3 113/5/3
f 152/4/3 117/60/3 115/5/3
f 117/7/6 152/61/6 153/8/6
f 152/7/6 150/61/6 154/8/6
f 153/4/6 154/60/6 156/5/6
f 120/4/6 153/60/6 127/5/6
f 150/7/6 161/61/6 155/8/6
f 154/4/6 155/60/6 157/5/6
f 159/33/5 128/69/5 156/34/5
f 158/55/4 160/77/4 159/31/4
f 163/48/8 113/74/8 166/49/8
f 164/54/3 165/76/3 169/46/3
f 144/42/9 162/72/9 164/43/9
f 142/51/9 164/75/9 167/52/9
f 171/57/2 167/78/2 168/52/2
f 167/57/1 169/78/1 209/52/1
f 170/48/9 167/74/9 171/49/9
f 172/45/2 171/73/2 173/46/2
f 174/54/10 171/76/10 172/46/10
f 174/7/2 178/61/2 170/8/2
f 179/4/3 178/60/3 174/5/3
f 176/4/3 174/60/3 177/5/3
f 180/4/11 181/60/11 182/5/11
f 184/1/5 186/59/5 182/2/5
f 186/1/5 187/59/5 245/2/5
f 188/4/7 186/60/7 185/5/7
f 188/1/5 189/59/5 187/2/5
f 190/1/5 236/59/5 189/2/5
f 234/1/5 190/59/5 188/2/5
f 196/7/4 193/61/4 192/8/4
f 193/7/4 194/61/4 198/8/4
f 193/4/3 195/60/3 201/5/3
f 196/4/3 177/60/3 195/5/3
f 176/7/4 196/61/4 199/8/4
f 195/4/3 202/60/3 203/5/3
f 177/4/3 205/60/3 202/5/3
f 202/4/3 204/60/3 89/5/3
f 205/4/3 99/60/3 204/5/3
f 99/54/6 205/76/6 206/46/6
f 173/48/3 208/74/3 207/49/3
f 101/54/4 99/76/4 207/46/4
f 168/42/3 209/72/3 208/43/3
f 103/56/4 101/79/4 208/49/4
f 201/4/3 203/60/3 210/5/3
f 203/4/3 89/60/3 87/5/3
f 210/4/3 87/60/3 80/5/3
f 211/4/3 210/60/3 212/5/3
f 212/7/4 213/61/4 65/8/4
f 212/4/3 80/60/3 77/5/3
f 214/7/1 212/61/1 215/8/1
f 216/4/1 215/60/1 217/5/1
f 215/4/4 65/60/4 67/5/4
f 217/7/1 75/61/1 220/8/1
f 218/7/1 217/61/1 219/8/1
f 219/1/5 220/59/5 235/2/5
f 222/1/5 219/59/5 221/2/5
f 224/1/5 222/59/5 223/2/5
f 226/7/1 218/61/1 222/8/1
f 227/4/1 216/60/1 218/5/1
f 228/7/1 214/61/1 216/8/1
f 229/4/3 211/60/3 214/5/3
f 229/7/4 228/61/4 230/8/4
f 194/4/3 201/60/3 211/5/3
f 194/7/4 229/61/4 232/8/4
f 233/4/7 232/60/7 223/5/7
f 223/1/5 221/59/5 236/2/5
f 221/1/5 235/59/5 237/2/5
f 236/1/5 237/59/5 238/2/5
f 235/1/5 252/59/5 92/2/5
f 237/1/5 92/59/5 94/2/5
f 189/1/5 238/59/5 239/2/5
f 238/1/5 94/59/5 96/2/5
f 239/7/2 240/61/2 242/10/2
f 239/1/5 96/59/5 251/2/5
f 187/7/1 239/61/1 241/10/1
f 245/7/4 187/61/4 243/10/4
f 248/7/4 245/61/4 244/10/4
f 249/7/6 248/61/6 246/10/6
f 250/1/5 130/59/5 248/2/5
f 182/1/5 245/59/5 248/2/5
f 240/7/2 249/61/2 247/10/2
f 240/1/5 251/59/5 106/2/5
f 108/1/5 250/59/5 249/2/5
f 110/39/5 125/71/5 250/40/5
f 220/1/5 82/59/5 252/2/5
f 75/7/1 84/61/1 82/8/1
f 213/4/3 77/60/3 254/5/3
f 64/4/3 213/60/3 253/5/3
f 253/4/3 254/60/3 256/5/3
f 57/4/3 253/60/3 255/5/3
f 255/4/3 256/60/3 259/5/3
f 55/4/3 255/60/3 257/5/3
f 260/4/3 257/60/3 258/5/3
f 257/4/3 259/60/3 265/5/3
f 51/4/3 260/60/3 261/5/3
f 261/7/4 262/61/4 16/8/4
f 261/4/3 258/60/3 10/5/3
f 263/7/1 261/61/1 264/8/1
f 18/4/3 52/60/3 264/5/3
f 259/4/3 266/60/3 267/5/3
f 256/4/3 268/60/3 266/5/3
f 267/7/2 266/61/2 269/8/2
f 266/7/2 268/61/2 272/8/2
f 270/4/2 269/60/2 271/5/2
f 269/4/2 272/60/2 38/5/2
f 272/4/2 273/60/2 274/5/2
f 268/7/2 275/61/2 273/8/2
f 273/4/2 78/60/2 72/5/2
f 275/7/2 276/61/2 78/8/2
f 77/4/3 276/60/3 275/5/3
f 254/4/3 275/60/3 268/5/3
f 6/7/2 267/61/2 270/8/2
f 3/4/2 270/60/2 30/5/2
f 265/4/3 267/60/3 6/5/3
f 258/4/3 265/60/3 8/5/3
f 142/51/4 170/75/4 138/52/4
f 277/56/4 103/79/4 169/49/4
f 280/1/5 2/59/5 279/2/5
