# Blender 5.1.2
# www.blender.org
mtllib room25.mtl
o 01-Caves.025
v -350.043091 -1.575364 80.087349
v -350.043091 -1.575363 90.087349
v -350.043091 8.424638 80.087349
v -350.043091 -11.575361 80.087349
v -350.043091 -11.575360 90.087349
v -350.043091 -16.575361 80.087349
v -340.043091 -16.575361 80.087349
v -340.043091 -11.575360 90.087349
v -330.043091 -16.575361 80.087349
v -330.043091 -11.575360 90.087349
v -320.043091 -16.575361 80.087349
v -320.043091 -11.575360 90.087349
v -310.043121 -16.575361 80.087349
v -310.043121 -11.575360 90.087349
v -300.043121 -16.575361 80.087349
v -300.043121 -11.575360 90.087349
v -290.043121 -16.575361 80.087349
v -290.043121 -11.575360 90.087349
v -280.043121 -16.575361 80.087349
v -280.043121 -11.575360 90.087349
v -270.043121 -16.575361 80.087349
v -270.043121 -11.575360 90.087349
v -260.043121 -16.575361 80.087349
v -260.043121 -11.575360 90.087349
v -260.043121 -1.575364 80.087349
v -260.043121 8.424638 80.087349
v -260.043121 -1.575363 90.087349
v -260.043121 -1.575363 100.087349
v -260.043121 5.924639 90.087349
v -260.043121 8.424639 90.087349
v -260.043121 -9.075361 90.087349
v -270.043121 -9.075361 90.087349
v -260.043121 -9.075360 100.087349
v -260.043121 -9.075359 110.087349
v -270.043121 -9.075360 100.087349
v -280.043121 -9.075360 100.087349
v -270.043121 -9.075359 110.087349
v -280.043121 -9.075359 110.087349
v -280.043121 -1.575362 110.087349
v -280.043121 5.924640 110.087349
v -280.043121 -1.575363 100.087349
v -290.043121 -1.575363 100.087349
v -280.043121 5.924640 100.087349
v -290.043121 5.924640 100.087349
v -280.043121 5.924639 90.087349
v -270.043121 5.924640 100.087349
v -270.043121 5.924640 110.087349
v -260.043121 5.924640 100.087349
v -270.043121 5.924639 90.087349
v -270.043121 8.424639 90.087349
v -270.043121 8.424638 80.087349
v -280.043121 8.424639 90.087349
v -280.043121 8.424638 80.087349
v -290.043121 8.424639 90.087349
v -290.043121 8.424638 80.087349
v -300.043121 8.424639 90.087349
v -290.043121 5.924639 90.087349
v -300.043121 5.924639 90.087349
v -310.043121 5.924639 90.087349
v -300.043121 5.924640 100.087349
v -300.043121 5.924640 110.087349
v -310.043121 5.924640 100.087349
v -320.043091 5.924640 100.087349
v -310.043121 5.924640 110.087349
v -320.043091 5.924640 110.087349
v -320.043091 -1.575362 110.087349
v -320.043091 -9.075359 110.087349
v -320.043091 -1.575363 100.087349
v -320.043091 -9.075360 100.087349
v -330.043091 -1.575363 100.087349
v -330.043091 5.924640 100.087349
v -330.043091 -9.075360 100.087349
v -330.043091 -1.575362 110.087349
v -330.043091 -9.075359 110.087349
v -330.043091 5.924640 110.087349
v -340.043091 5.924640 110.087349
v -340.043091 5.924640 100.087349
v -350.043091 5.924640 110.087349
v -350.043091 5.924640 100.087349
v -350.043091 -1.575362 110.087349
v -350.043091 -1.575363 100.087349
v -350.043091 -9.075359 110.087349
v -340.043091 -9.075359 110.087349
v -350.043091 -9.075360 100.087349
v -350.043091 -9.075361 90.087349
v -340.043091 -9.075360 100.087349
v -340.043091 -9.075361 90.087349
v -330.043091 -9.075361 90.087349
v -320.043091 -9.075361 90.087349
v -310.043121 -9.075361 90.087349
v -310.043121 -9.075360 100.087349
v -300.043121 -9.075361 90.087349
v -300.043121 -9.075360 100.087349
v -290.043121 -9.075361 90.087349
v -290.043121 -9.075360 100.087349
v -280.043121 -9.075361 90.087349
v -290.043121 -9.075359 110.087349
v -300.043121 -9.075359 110.087349
v -290.043121 -1.575362 110.087349
v -290.043121 5.924640 110.087349
v -310.043121 -9.075359 110.087349
v -350.043091 5.924639 90.087349
v -350.043091 8.424639 90.087349
v -340.043091 5.924639 90.087349
v -340.043091 8.424639 90.087349
v -330.043091 5.924639 90.087349
v -330.043091 8.424639 90.087349
v -320.043091 5.924639 90.087349
v -320.043091 8.424639 90.087349
v -320.043091 8.424638 80.087349
v -310.043121 8.424639 90.087349
v -310.043121 8.424638 80.087349
v -310.043121 5.924638 80.087349
v -300.043121 8.424638 80.087349
v -300.043121 5.924638 80.087349
v -290.043121 5.924638 80.087349
v -320.043091 5.924638 80.087349
v -330.043091 8.424638 80.087349
v -340.043091 8.424638 80.087349
v -260.043121 5.924640 110.087349
v -260.043121 -1.575362 110.087349
vn 1.0000 -0.0000 -0.0000
vn -0.0000 0.8944 -0.4472
vn -1.0000 -0.0000 -0.0000
vn -0.0000 -0.0000 -1.0000
vn -0.0000 1.0000 -0.0000
vn -0.0000 -1.0000 -0.0000
vn -0.0000 -0.0000 1.0000
vt 0.252941 0.252941
vt 0.372549 0.372549
vt 0.252941 0.372549
vt 0.501961 0.878431
vt 0.621569 0.998039
vt 0.501961 0.998039
vt 0.252941 0.309804
vt 0.372549 0.309804
vt 0.378431 0.001961
vt 0.498039 0.121569
vt 0.378431 0.121569
vt 0.372549 0.252941
vt 0.621569 0.966667
vt 0.501961 0.966667
vt 0.372549 0.278432
vt 0.252941 0.278432
vt 0.752941 0.878431
vt 0.872549 0.998039
vt 0.752941 0.998039
vt 0.501961 0.909804
vt 0.878431 0.752941
vt 0.998039 0.841177
vt 0.878431 0.841177
vt 0.378431 0.501961
vt 0.498039 0.621569
vt 0.378431 0.621569
vt 0.627451 0.972549
vt 0.747059 0.998039
vt 0.627451 0.998039
vt 0.621569 0.878431
vt 0.498039 0.001961
vt 0.872549 0.878431
vt 0.621569 0.909804
vt 0.998039 0.752941
vt 0.498039 0.501961
vt 0.747059 0.972549
s 0
usemtl Material.001
f 5/1/1 1/2/1 2/3/1
f 3/4/1 2/5/1 1/6/1
f 4/7/1 5/1/1 6/8/1
f 7/9/2 5/10/2 8/11/2
f 9/9/2 8/10/2 10/11/2
f 11/9/2 10/10/2 12/11/2
f 13/9/2 12/10/2 14/11/2
f 15/9/2 14/10/2 16/11/2
f 17/9/2 16/10/2 18/11/2
f 19/9/2 18/10/2 20/11/2
f 21/9/2 20/10/2 22/11/2
f 23/9/2 22/10/2 24/11/2
f 25/3/3 24/12/3 27/2/3
f 30/4/3 25/5/3 27/6/3
f 28/4/3 31/13/3 33/14/3
f 48/4/3 27/5/3 28/6/3
f 32/1/4 24/15/4 22/16/4
f 31/17/5 35/18/5 33/19/5
f 121/20/3 33/5/3 34/6/3
f 33/17/5 37/18/5 34/19/5
f 35/17/5 38/18/5 37/19/5
f 32/17/5 36/18/5 35/19/5
f 38/21/1 41/22/1 39/23/1
f 43/21/1 39/22/1 41/23/1
f 36/21/4 42/22/4 41/23/4
f 44/21/4 41/22/4 42/23/4
f 43/17/6 57/18/6 45/19/6
f 46/17/6 45/18/6 49/19/6
f 47/17/6 43/18/6 46/19/6
f 120/17/6 46/18/6 48/19/6
f 48/17/6 49/18/6 29/19/6
f 52/1/4 49/15/4 45/16/4
f 50/1/4 29/15/4 49/16/4
f 30/24/6 51/25/6 26/26/6
f 50/24/6 53/25/6 51/26/6
f 52/24/6 55/25/6 53/26/6
f 54/1/4 45/15/4 57/16/4
f 54/24/6 114/25/6 55/26/6
f 56/1/4 57/15/4 58/16/4
f 44/17/6 58/18/6 57/19/6
f 111/1/4 58/15/4 59/16/4
f 60/17/6 59/18/6 58/19/6
f 100/17/6 60/18/6 44/19/6
f 61/17/6 62/18/6 60/19/6
f 62/17/6 108/18/6 59/19/6
f 64/17/6 63/18/6 62/19/6
f 63/21/1 66/22/1 68/23/1
f 67/21/1 68/22/1 66/23/1
f 69/21/4 70/22/4 68/23/4
f 71/21/4 68/22/4 70/23/4
f 75/21/3 70/22/3 73/23/3
f 72/21/3 73/22/3 70/23/3
f 75/17/6 77/18/6 71/19/6
f 76/17/6 79/18/6 77/19/6
f 79/4/1 80/5/1 81/6/1
f 82/20/1 81/5/1 80/6/1
f 86/17/5 82/18/5 83/19/5
f 84/4/1 2/5/1 81/6/1
f 87/17/5 84/18/5 86/19/5
f 72/17/5 83/18/5 74/19/5
f 88/17/5 86/18/5 72/19/5
f 87/1/4 10/15/4 8/16/4
f 85/1/4 8/15/4 5/16/4
f 89/17/5 72/18/5 69/19/5
f 88/1/4 12/15/4 10/16/4
f 89/1/4 14/15/4 12/16/4
f 90/17/5 69/18/5 91/19/5
f 90/1/4 16/15/4 14/16/4
f 92/17/5 91/18/5 93/19/5
f 94/17/5 93/18/5 95/19/5
f 92/1/4 18/15/4 16/16/4
f 96/17/5 95/18/5 36/19/5
f 94/1/4 20/15/4 18/16/4
f 96/1/4 22/15/4 20/16/4
f 95/17/5 98/18/5 97/19/5
f 95/21/3 99/22/3 42/23/3
f 100/21/3 42/22/3 99/23/3
f 93/17/5 101/18/5 98/19/5
f 91/17/5 67/18/5 101/19/5
f 102/4/1 81/5/1 2/6/1
f 77/17/6 102/18/6 104/19/6
f 103/1/4 104/15/4 102/16/4
f 105/1/4 106/15/4 104/16/4
f 71/17/6 104/18/6 106/19/6
f 107/1/4 108/15/4 106/16/4
f 63/17/6 106/18/6 108/19/6
f 109/1/4 59/15/4 108/16/4
f 111/24/6 110/25/6 112/26/6
f 109/24/6 118/25/6 110/26/6
f 56/24/6 112/25/6 114/26/6
f 112/27/7 117/28/7 113/29/7
f 55/27/7 115/28/7 116/29/7
f 107/24/6 119/25/6 118/26/6
f 105/24/6 3/25/6 119/26/6
f 120/4/3 28/5/3 121/6/3
f 5/1/1 4/12/1 1/2/1
f 3/4/1 103/30/1 2/5/1
f 7/9/2 6/31/2 5/10/2
f 9/9/2 7/31/2 8/10/2
f 11/9/2 9/31/2 10/10/2
f 13/9/2 11/31/2 12/10/2
f 15/9/2 13/31/2 14/10/2
f 17/9/2 15/31/2 16/10/2
f 19/9/2 17/31/2 18/10/2
f 21/9/2 19/31/2 20/10/2
f 23/9/2 21/31/2 22/10/2
f 25/3/3 23/1/3 24/12/3
f 30/4/3 26/30/3 25/5/3
f 28/4/3 27/30/3 31/13/3
f 48/4/3 29/30/3 27/5/3
f 32/1/4 31/12/4 24/15/4
f 31/17/5 32/32/5 35/18/5
f 121/20/3 28/33/3 33/5/3
f 33/17/5 35/32/5 37/18/5
f 35/17/5 36/32/5 38/18/5
f 32/17/5 96/32/5 36/18/5
f 38/21/1 36/34/1 41/22/1
f 43/21/1 40/34/1 39/22/1
f 36/21/4 95/34/4 42/22/4
f 44/21/4 43/34/4 41/22/4
f 43/17/6 44/32/6 57/18/6
f 46/17/6 43/32/6 45/18/6
f 47/17/6 40/32/6 43/18/6
f 120/17/6 47/32/6 46/18/6
f 48/17/6 46/32/6 49/18/6
f 52/1/4 50/12/4 49/15/4
f 50/1/4 30/12/4 29/15/4
f 30/24/6 50/35/6 51/25/6
f 50/24/6 52/35/6 53/25/6
f 52/24/6 54/35/6 55/25/6
f 54/1/4 52/12/4 45/15/4
f 54/24/6 56/35/6 114/25/6
f 56/1/4 54/12/4 57/15/4
f 44/17/6 60/32/6 58/18/6
f 111/1/4 56/12/4 58/15/4
f 60/17/6 62/32/6 59/18/6
f 100/17/6 61/32/6 60/18/6
f 61/17/6 64/32/6 62/18/6
f 62/17/6 63/32/6 108/18/6
f 64/17/6 65/32/6 63/18/6
f 63/21/1 65/34/1 66/22/1
f 67/21/1 69/34/1 68/22/1
f 69/21/4 72/34/4 70/22/4
f 71/21/4 63/34/4 68/22/4
f 75/21/3 71/34/3 70/22/3
f 72/21/3 74/34/3 73/22/3
f 75/17/6 76/32/6 77/18/6
f 76/17/6 78/32/6 79/18/6
f 79/4/1 78/30/1 80/5/1
f 82/20/1 84/33/1 81/5/1
f 86/17/5 84/32/5 82/18/5
f 84/4/1 85/30/1 2/5/1
f 87/17/5 85/32/5 84/18/5
f 72/17/5 86/32/5 83/18/5
f 88/17/5 87/32/5 86/18/5
f 87/1/4 88/12/4 10/15/4
f 85/1/4 87/12/4 8/15/4
f 89/17/5 88/32/5 72/18/5
f 88/1/4 89/12/4 12/15/4
f 89/1/4 90/12/4 14/15/4
f 90/17/5 89/32/5 69/18/5
f 90/1/4 92/12/4 16/15/4
f 92/17/5 90/32/5 91/18/5
f 94/17/5 92/32/5 93/18/5
f 92/1/4 94/12/4 18/15/4
f 96/17/5 94/32/5 95/18/5
f 94/1/4 96/12/4 20/15/4
f 96/1/4 32/12/4 22/15/4
f 95/17/5 93/32/5 98/18/5
f 95/21/3 97/34/3 99/22/3
f 100/21/3 44/34/3 42/22/3
f 93/17/5 91/32/5 101/18/5
f 91/17/5 69/32/5 67/18/5
f 102/4/1 79/30/1 81/5/1
f 77/17/6 79/32/6 102/18/6
f 103/1/4 105/12/4 104/15/4
f 105/1/4 107/12/4 106/15/4
f 71/17/6 77/32/6 104/18/6
f 107/1/4 109/12/4 108/15/4
f 63/17/6 71/32/6 106/18/6
f 109/1/4 111/12/4 59/15/4
f 111/24/6 109/35/6 110/25/6
f 109/24/6 107/35/6 118/25/6
f 56/24/6 111/35/6 112/25/6
f 112/27/7 110/36/7 117/28/7
f 55/27/7 114/36/7 115/28/7
f 107/24/6 105/35/6 119/25/6
f 105/24/6 103/35/6 3/25/6
f 120/4/3 48/30/3 28/5/3
