# Blender 5.1.2
# www.blender.org
mtllib room23.mtl
o 01-Caves.023
v -320.043091 8.424637 60.087349
v -320.043091 8.424638 70.087349
v -320.043091 3.424639 60.087349
v -310.043121 8.424637 60.087349
v -310.043121 3.424639 60.087349
v -310.043121 5.924637 60.087349
v -300.043121 8.424637 60.087349
v -300.043121 3.424639 60.087349
v -290.043121 8.424637 60.087349
v -300.043121 5.924637 60.087349
v -300.043121 5.924637 70.087349
v -310.043121 5.924637 70.087349
v -300.043121 3.424640 70.087349
v -300.043121 8.424638 70.087349
v -310.043121 8.424638 70.087349
v -300.043121 8.424638 80.087349
v -310.043121 8.424638 80.087349
v -300.043121 5.924638 80.087349
v -290.043121 5.924638 80.087349
v -290.043121 8.424638 80.087349
v -290.043121 3.424640 70.087349
v -290.043121 8.424638 70.087349
v -290.043121 3.424639 60.087349
v -310.043121 5.924638 80.087349
v -320.043091 5.924638 80.087349
v -310.043121 3.424640 70.087349
v -320.043091 3.424640 70.087349
v -320.043091 8.424638 80.087349
vn -1.0000 -0.0000 -0.0000
vn -0.0000 -0.0000 -1.0000
vn -0.0000 -1.0000 -0.0000
vn -0.0000 -0.0000 1.0000
vn -0.0000 -0.9701 0.2425
vn 1.0000 -0.0000 -0.0000
vt 0.627451 0.941177
vt 0.747059 0.998039
vt 0.627451 0.998039
vt 0.627451 0.909804
vt 0.252941 0.252941
vt 0.372549 0.278432
vt 0.252941 0.278432
vt 0.752941 0.501961
vt 0.872549 0.621569
vt 0.752941 0.621569
vt 0.747059 0.941177
vt 0.627451 0.878431
vt 0.747059 0.909804
vt 0.372549 0.252941
vt 0.872549 0.501961
vt 0.747059 0.878431
s 0
usemtl Material.001
f 2/1/1 3/2/1 27/3/1
f 1/4/2 5/2/2 3/3/2
f 4/5/2 10/6/2 6/7/2
f 7/4/2 23/2/2 8/3/2
f 11/8/3 6/9/3 10/10/3
f 11/1/1 8/2/1 13/3/1
f 14/5/4 12/6/4 11/7/4
f 16/8/3 15/9/3 14/10/3
f 18/3/1 14/11/1 13/2/1
f 19/12/5 13/2/5 21/3/5
f 22/1/6 19/2/6 21/3/6
f 21/12/3 8/2/3 23/3/3
f 9/1/6 21/2/6 23/3/6
f 15/1/6 24/2/6 26/3/6
f 24/12/5 27/2/5 26/3/5
f 6/1/6 26/2/6 5/3/6
f 26/12/3 3/2/3 5/3/3
f 25/3/1 2/11/1 27/2/1
f 2/1/1 1/11/1 3/2/1
f 1/4/2 4/13/2 5/2/2
f 4/5/2 7/14/2 10/6/2
f 7/4/2 9/13/2 23/2/2
f 11/8/3 12/15/3 6/9/3
f 11/1/1 10/11/1 8/2/1
f 14/5/4 15/14/4 12/6/4
f 16/8/3 17/15/3 15/9/3
f 18/3/1 16/1/1 14/11/1
f 19/12/5 18/16/5 13/2/5
f 22/1/6 20/11/6 19/2/6
f 21/12/3 13/16/3 8/2/3
f 9/1/6 22/11/6 21/2/6
f 15/1/6 17/11/6 24/2/6
f 24/12/5 25/16/5 27/2/5
f 6/1/6 12/11/6 26/2/6
f 26/12/3 27/16/3 3/2/3
f 25/3/1 28/1/1 2/11/1
