# Blender 5.1.2
# www.blender.org
mtllib room12.mtl
o 01-Caves.012
v -80.043144 10.924617 -139.912659
v -80.043144 10.924618 -129.912659
v -70.043121 10.924617 -139.912659
v -80.043144 -1.575381 -139.912659
v -70.043121 -1.575381 -139.912659
v -80.043144 -6.575378 -129.912659
v -70.043121 -6.575378 -129.912659
v -80.043144 0.924622 -129.912659
v -70.043121 0.924622 -129.912659
v -70.043121 10.924618 -129.912659
v -70.043121 -9.075377 -129.912659
v -70.043121 0.924623 -119.912651
v -70.043121 10.924619 -119.912651
v -70.043121 -9.075377 -119.912651
v -70.043121 0.924624 -109.912613
v -70.043121 -4.075374 -109.912613
v -70.043121 10.924619 -109.912613
v -60.043121 10.924619 -109.912613
v -70.043121 0.924624 -109.912613
v -60.043121 0.924624 -109.912613
v -60.043121 -4.075374 -109.912613
v -50.043121 0.924624 -109.912613
v -50.043121 10.924619 -109.912613
v -50.043121 -4.075374 -109.912613
v -40.043121 0.924624 -109.912613
v -40.043121 10.924619 -109.912613
v -40.043121 -4.075374 -109.912613
v -30.043121 0.924624 -109.912613
v -30.043121 -4.075374 -109.912613
v -20.043121 0.924624 -109.912613
v -30.043121 10.924619 -109.912613
v -30.043121 10.924619 -119.912651
v -20.043121 5.924624 -109.912613
v -30.043121 5.924623 -119.912651
v -20.043121 0.924623 -119.912651
v -30.043121 10.924618 -129.912659
v -40.043121 10.924618 -129.912659
v -30.043121 10.924617 -139.912659
v -20.043121 5.924622 -129.912659
v -20.043121 10.924618 -129.912659
v -20.043121 10.924617 -139.912659
v -10.043159 10.924618 -129.912659
v -10.043159 10.924617 -139.912659
v -10.043159 5.924623 -119.912651
v -10.043159 10.924619 -119.912651
v -0.043122 10.924618 -129.912659
v -0.043122 10.924617 -139.912659
v -0.043122 3.424625 -129.912659
v 9.956879 10.924618 -129.912659
v -0.043122 10.924619 -119.912651
v -0.043122 10.924619 -109.912613
v 9.956879 10.924619 -119.912651
v 9.956879 3.424626 -119.912651
v 9.956879 10.924619 -109.912613
v 9.956879 3.424626 -109.912613
v 9.956879 -4.075374 -109.912613
v 9.956879 -4.075375 -119.912651
v -0.043122 -4.075374 -109.912613
v -10.043159 -4.075374 -109.912613
v -0.043122 -4.075375 -119.912651
v -0.043122 -4.075376 -129.912659
v -10.043159 -4.075375 -119.912651
v -20.043121 -4.075375 -119.912651
v -10.043159 -4.075376 -129.912659
v -10.043159 0.924622 -139.912659
v -20.043121 -4.075376 -129.912659
v -30.043121 -9.075377 -129.912659
v -20.043121 0.924622 -139.912659
v -30.043121 -4.075376 -139.912659
v -40.043121 -4.075376 -139.912659
v -40.043121 10.924617 -139.912659
v -40.043121 0.924622 -139.912659
v -40.043121 -9.075377 -129.912659
v -40.043121 0.924622 -129.912659
v -50.043121 -9.075377 -129.912659
v -40.043121 -9.075377 -119.912651
v -50.043121 -9.075377 -119.912651
v -30.043121 -9.075377 -119.912651
v -60.043121 -9.075377 -119.912651
v -60.043121 -9.075377 -129.912659
v -60.043121 -4.075376 -139.912659
v -60.043121 10.924617 -139.912659
v -50.043121 -4.075376 -139.912659
v -70.043121 -4.075376 -139.912659
v -50.043121 10.924617 -139.912659
v -50.043121 0.924622 -139.912659
v -50.043121 0.924622 -129.912659
v -50.043121 10.924618 -129.912659
v -60.043121 10.924618 -129.912659
v -50.043121 10.924619 -119.912651
v -60.043121 10.924619 -119.912651
v -40.043121 10.924619 -119.912651
v -0.043122 0.924622 -139.912659
v -0.043122 3.424624 -139.912659
v -20.043121 -4.075374 -109.912613
v 9.956879 -4.075376 -129.912659
v 9.956879 3.424625 -129.912659
v 9.956879 3.424625 -129.912659
v -10.043159 10.924619 -109.912613
vn -0.0000 -1.0000 -0.0000
vn -0.0000 -0.0000 1.0000
vn -0.0000 0.8944 0.4472
vn -0.0000 -0.0000 -1.0000
vn 1.0000 -0.0000 -0.0000
vn -1.0000 -0.0000 -0.0000
vn -0.4082 -0.8165 0.4082
vn -0.4082 -0.8165 -0.4082
vn 0.4082 -0.8165 -0.4082
vn -0.0000 1.0000 -0.0000
vn -0.4472 0.8944 -0.0000
vn -0.4082 0.8165 0.4082
vn -0.0000 0.8944 -0.4472
vn -0.4082 0.8165 -0.4082
vn 0.4082 -0.8165 0.4082
vt 0.752941 0.878431
vt 0.872549 0.998039
vt 0.752941 0.998039
vt 0.501961 0.878431
vt 0.621569 0.998039
vt 0.501961 0.998039
vt 0.872549 0.878431
vt 0.127451 0.747059
vt 0.127451 0.658823
vt 0.247059 0.747059
vt 0.001961 0.878431
vt 0.121569 0.998039
vt 0.001961 0.998039
vt 0.252941 0.627451
vt 0.372549 0.747059
vt 0.252941 0.747059
vt 0.252941 0.690196
vt 0.378431 0.747059
vt 0.498039 0.627451
vt 0.498039 0.747059
vt 0.001961 0.747059
vt 0.001961 0.658823
vt 0.121569 0.747059
vt 0.378431 0.627451
vt 0.127451 0.627451
vt 0.121569 0.627451
vt 0.127451 0.501961
vt 0.247059 0.621569
vt 0.127451 0.621569
vt 0.001961 0.501961
vt 0.121569 0.621569
vt 0.001961 0.621569
vt 0.872549 0.972549
vt 0.001961 0.627451
vt 0.127451 0.564706
vt 0.621569 0.878431
vt 0.121569 0.878431
vt 0.372549 0.627451
vt 0.247059 0.627451
vt 0.247059 0.501961
vt 0.121569 0.501961
vt 0.752941 0.972549
s 0
usemtl Material.001
f 3/1/1 2/2/1 1/3/1
f 3/1/2 4/2/2 5/3/2
f 5/1/3 6/2/3 7/3/3
f 8/4/4 7/5/4 6/6/4
f 2/4/4 9/5/4 8/6/4
f 10/4/5 12/5/5 9/6/5
f 9/4/5 14/5/5 11/6/5
f 13/4/5 15/5/5 12/6/5
f 12/1/5 16/2/5 14/3/5
f 18/1/1 13/2/1 91/3/1
f 17/1/4 20/2/4 19/3/4
f 19/1/4 21/2/4 16/3/4
f 20/1/4 24/2/4 21/3/4
f 18/1/4 22/2/4 20/3/4
f 23/1/4 25/2/4 22/3/4
f 22/1/4 27/2/4 24/3/4
f 26/1/4 28/2/4 25/3/4
f 25/1/4 29/2/4 27/3/4
f 29/3/4 28/1/4 30/2/4
f 28/3/4 33/7/4 30/2/4
f 31/8/6 32/9/6 34/10/6
f 31/11/1 92/12/1 32/13/1
f 33/14/7 34/15/7 35/16/7
f 34/16/6 32/17/6 36/15/6
f 39/18/8 34/19/8 36/20/8
f 32/1/1 37/2/1 36/3/1
f 36/1/1 71/2/1 38/3/1
f 40/1/1 38/2/1 41/3/1
f 36/21/4 40/22/4 39/23/4
f 42/11/1 41/12/1 43/13/1
f 42/8/4 39/9/4 40/10/4
f 46/1/1 43/2/1 47/3/1
f 44/14/9 39/15/9 42/16/9
f 45/8/5 44/9/5 42/10/5
f 50/1/1 42/2/1 46/3/1
f 46/14/6 94/15/6 48/16/6
f 49/24/2 48/20/2 97/18/2
f 52/1/1 46/2/1 49/3/1
f 51/1/1 45/2/1 50/3/1
f 54/1/1 50/2/1 52/3/1
f 54/24/6 53/20/6 55/18/6
f 52/14/6 98/15/6 53/16/6
f 55/25/6 57/10/6 56/8/6
f 57/1/10 58/2/10 56/3/10
f 60/1/10 59/2/10 58/3/10
f 96/1/10 60/2/10 57/3/10
f 61/1/10 62/2/10 60/3/10
f 62/1/10 95/2/10 59/3/10
f 64/1/10 63/2/10 62/3/10
f 93/1/3 64/2/3 61/3/3
f 65/1/3 66/2/3 64/3/3
f 66/1/11 78/2/11 63/3/11
f 66/3/12 69/7/12 67/2/12
f 43/14/2 68/15/2 65/16/2
f 68/18/2 38/19/2 69/20/2
f 69/1/3 73/2/3 67/3/3
f 38/14/2 70/15/2 69/16/2
f 70/21/5 74/26/5 73/23/5
f 74/25/2 75/10/2 73/8/2
f 73/1/10 77/2/10 76/3/10
f 67/1/10 76/2/10 78/3/10
f 76/1/13 24/2/13 27/3/13
f 78/1/13 27/2/13 29/3/13
f 63/1/14 29/2/14 30/3/14
f 77/1/13 21/2/13 24/3/13
f 75/1/10 79/2/10 77/3/10
f 79/1/13 16/2/13 21/3/13
f 80/1/10 14/2/10 79/3/10
f 81/1/3 11/2/3 80/3/3
f 83/1/3 80/2/3 75/3/3
f 81/27/2 85/28/2 82/29/2
f 84/30/2 82/31/2 3/32/2
f 84/3/5 7/33/5 11/2/5
f 87/34/6 83/23/6 75/21/6
f 88/24/6 86/20/6 87/18/6
f 37/14/2 87/15/2 74/16/2
f 88/1/1 82/2/1 85/3/1
f 90/1/1 89/2/1 88/3/1
f 92/1/1 88/2/1 37/3/1
f 90/1/1 18/2/1 91/3/1
f 92/1/1 23/2/1 90/3/1
f 91/1/1 10/2/1 89/3/1
f 89/11/1 3/12/1 82/13/1
f 71/14/5 74/15/5 72/16/5
f 47/24/2 65/20/2 93/18/2
f 48/34/6 93/23/6 61/21/6
f 63/29/5 30/35/5 95/28/5
f 97/25/2 61/10/2 96/8/2
f 53/34/6 96/23/6 57/21/6
f 44/8/5 45/9/5 99/10/5
f 44/24/15 33/20/15 35/18/15
f 3/1/1 10/7/1 2/2/1
f 3/1/2 1/7/2 4/2/2
f 5/1/3 4/7/3 6/2/3
f 8/4/4 9/36/4 7/5/4
f 2/4/4 10/36/4 9/5/4
f 10/4/5 13/36/5 12/5/5
f 9/4/5 12/36/5 14/5/5
f 13/4/5 17/36/5 15/5/5
f 12/1/5 15/7/5 16/2/5
f 18/1/1 17/7/1 13/2/1
f 17/1/4 18/7/4 20/2/4
f 19/1/4 20/7/4 21/2/4
f 20/1/4 22/7/4 24/2/4
f 18/1/4 23/7/4 22/2/4
f 23/1/4 26/7/4 25/2/4
f 22/1/4 25/7/4 27/2/4
f 26/1/4 31/7/4 28/2/4
f 25/1/4 28/7/4 29/2/4
f 28/3/4 31/1/4 33/7/4
f 31/11/1 26/37/1 92/12/1
f 33/14/7 31/38/7 34/15/7
f 39/18/8 35/24/8 34/19/8
f 32/1/1 92/7/1 37/2/1
f 36/1/1 37/7/1 71/2/1
f 40/1/1 36/7/1 38/2/1
f 42/11/1 40/37/1 41/12/1
f 46/1/1 42/7/1 43/2/1
f 44/14/9 35/38/9 39/15/9
f 50/1/1 45/7/1 42/2/1
f 46/14/6 47/38/6 94/15/6
f 49/24/2 46/19/2 48/20/2
f 52/1/1 50/7/1 46/2/1
f 51/1/1 99/7/1 45/2/1
f 54/1/1 51/7/1 50/2/1
f 54/24/6 52/19/6 53/20/6
f 52/14/6 49/38/6 98/15/6
f 55/25/6 53/39/6 57/10/6
f 57/1/10 60/7/10 58/2/10
f 60/1/10 62/7/10 59/2/10
f 96/1/10 61/7/10 60/2/10
f 61/1/10 64/7/10 62/2/10
f 62/1/10 63/7/10 95/2/10
f 64/1/10 66/7/10 63/2/10
f 93/1/3 65/7/3 64/2/3
f 65/1/3 68/7/3 66/2/3
f 66/1/11 67/7/11 78/2/11
f 66/3/12 68/1/12 69/7/12
f 43/14/2 41/38/2 68/15/2
f 68/18/2 41/24/2 38/19/2
f 69/1/3 70/7/3 73/2/3
f 38/14/2 71/38/2 70/15/2
f 70/21/5 72/34/5 74/26/5
f 74/25/2 87/39/2 75/10/2
f 73/1/10 75/7/10 77/2/10
f 67/1/10 73/7/10 76/2/10
f 76/1/13 77/7/13 24/2/13
f 78/1/13 76/7/13 27/2/13
f 63/1/14 78/7/14 29/2/14
f 77/1/13 79/7/13 21/2/13
f 75/1/10 80/7/10 79/2/10
f 79/1/13 14/7/13 16/2/13
f 80/1/10 11/7/10 14/2/10
f 81/1/3 84/7/3 11/2/3
f 83/1/3 81/7/3 80/2/3
f 81/27/2 83/40/2 85/28/2
f 84/30/2 81/41/2 82/31/2
f 84/3/5 5/42/5 7/33/5
f 87/34/6 86/26/6 83/23/6
f 88/24/6 85/19/6 86/20/6
f 37/14/2 88/38/2 87/15/2
f 88/1/1 89/7/1 82/2/1
f 90/1/1 91/7/1 89/2/1
f 92/1/1 90/7/1 88/2/1
f 90/1/1 23/7/1 18/2/1
f 92/1/1 26/7/1 23/2/1
f 91/1/1 13/7/1 10/2/1
f 89/11/1 10/37/1 3/12/1
f 71/14/5 37/38/5 74/15/5
f 47/24/2 43/19/2 65/20/2
f 48/34/6 94/26/6 93/23/6
f 97/25/2 48/39/2 61/10/2
f 53/34/6 98/26/6 96/23/6
f 44/24/15 99/19/15 33/20/15
