# Blender 5.1.2
# www.blender.org
mtllib room24.mtl
o 01-Caves.024
v -350.043091 5.924628 -49.912651
v -340.043091 5.924628 -49.912651
v -350.043091 5.924629 -39.912651
v -350.043091 -1.575374 -49.912651
v -350.043091 -1.575373 -39.912651
v -340.043091 -1.575374 -49.912651
v -350.043091 -9.075372 -49.912651
v -350.043091 -9.075371 -39.912651
v -340.043091 -9.075372 -49.912651
v -340.043091 -9.075371 -39.912651
v -330.043091 -9.075372 -49.912651
v -340.043091 -9.075373 -59.912651
v -340.043091 -1.575375 -59.912651
v -330.043091 -9.075373 -59.912651
v -330.043091 -1.575375 -59.912651
v -320.043091 -9.075373 -59.912651
v -320.043091 -9.075372 -49.912651
v -310.043121 -9.075373 -59.912651
v -320.043091 -1.575375 -59.912651
v -320.043091 5.924628 -59.912651
v -310.043121 -1.575375 -59.912651
v -300.043121 -1.575375 -59.912651
v -310.043121 5.924628 -59.912651
v -310.043121 5.924628 -49.912651
v -300.043121 5.924628 -59.912651
v -300.043121 5.924628 -49.912651
v -290.043121 5.924628 -59.912651
v -290.043121 5.924628 -49.912651
v -290.043121 -1.575375 -59.912651
v -280.043121 5.924628 -59.912651
v -280.043121 5.924628 -49.912651
v -280.043121 -1.575375 -59.912651
v -270.043121 5.924628 -59.912651
v -270.043121 5.924628 -49.912651
v -270.043121 -1.575375 -59.912651
v -270.043121 -1.575375 -59.912651
v -270.043121 -1.575374 -49.912651
v -270.043121 -9.075373 -59.912651
v -280.043121 -9.075373 -59.912651
v -270.043121 -9.075372 -49.912651
v -280.043121 -9.075372 -49.912651
v -270.043121 -9.075371 -39.912651
v -260.043121 -9.075372 -49.912651
v -260.043121 -9.075371 -39.912651
v -260.043121 -6.575372 -49.912651
v -260.043121 -1.575374 -49.912651
v -260.043121 5.924628 -49.912651
v -260.043121 5.924629 -39.912651
v -270.043121 5.924629 -39.912651
v -260.043121 -1.575373 -39.912651
v -270.043121 -1.575373 -39.912651
v -270.043121 -1.575372 -29.912651
v -270.043121 5.924630 -29.912651
v -260.043121 -1.575372 -29.912651
v -270.043121 -9.075370 -29.912651
v -280.043121 -9.075370 -29.912651
v -270.043121 -9.075370 -19.912653
v -260.043121 -9.075370 -29.912651
v -260.043121 -9.075370 -19.912653
v -260.043121 -1.575372 -29.912651
v -260.043121 -1.575372 -19.912653
v -260.043121 5.924630 -29.912651
v -260.043121 5.924631 -19.912653
v -270.043121 5.924631 -19.912653
v -260.043121 8.424630 -19.912653
v -270.043121 8.424630 -19.912653
v -260.043121 8.424631 -9.912653
v -260.043121 -1.575372 -19.912653
v -260.043121 -1.575371 -9.912652
v -260.043121 -11.575369 -19.912653
v -270.043121 -11.575369 -19.912653
v -260.043121 -11.575368 -9.912651
v -270.043121 -11.575368 -9.912651
v -260.043121 -11.575367 0.087349
v -260.043121 -11.575366 10.087349
v -260.043121 -1.575370 0.087348
v -270.043121 -11.575367 0.087349
v -280.043121 -11.575367 0.087349
v -270.043121 -11.575366 10.087349
v -270.043121 -16.575365 20.087351
v -280.043121 -11.575366 10.087349
v -290.043121 -11.575366 10.087349
v -280.043121 -16.575365 20.087351
v -290.043121 -16.575365 20.087351
v -300.043121 -16.575365 20.087351
v -300.043121 -11.575366 10.087349
v -310.043121 -16.575365 20.087351
v -310.043121 -11.575366 10.087349
v -320.043091 -16.575365 20.087351
v -320.043091 -11.575366 10.087349
v -330.043091 -16.575365 20.087351
v -340.043091 -16.575365 20.087351
v -330.043091 -11.575366 10.087349
v -340.043091 -11.575366 10.087349
v -330.043091 -11.575367 0.087349
v -340.043091 -11.575367 0.087349
v -320.043091 -11.575367 0.087349
v -330.043091 -11.575368 -9.912651
v -340.043091 -11.575368 -9.912651
v -330.043091 -11.575369 -19.912653
v -320.043091 -11.575368 -9.912651
v -310.043121 -11.575368 -9.912651
v -320.043091 -11.575369 -19.912653
v -320.043091 -9.075370 -19.912653
v -310.043121 -11.575369 -19.912653
v -300.043121 -11.575369 -19.912653
v -310.043121 -9.075370 -19.912653
v -300.043121 -9.075370 -19.912653
v -310.043121 -9.075370 -29.912651
v -310.043121 -9.075371 -39.912651
v -320.043091 -9.075370 -29.912651
v -300.043121 -9.075370 -29.912651
v -300.043121 -9.075371 -39.912651
v -300.043121 -1.575372 -29.912651
v -290.043121 -9.075370 -29.912651
v -290.043121 -1.575372 -29.912651
v -290.043121 -9.075370 -19.912653
v -290.043121 -9.075371 -39.912651
v -290.043121 -9.075372 -49.912651
v -290.043121 -1.575373 -39.912651
v -280.043121 -9.075371 -39.912651
v -300.043121 -1.575373 -39.912651
v -290.043121 5.924629 -39.912651
v -300.043121 5.924629 -39.912651
v -280.043121 5.924629 -39.912651
v -290.043121 5.924630 -29.912651
v -290.043121 5.924631 -19.912653
v -280.043121 5.924630 -29.912651
v -300.043121 5.924630 -29.912651
v -310.043121 5.924630 -29.912651
v -300.043121 5.924631 -19.912653
v -310.043121 5.924631 -19.912653
v -300.043121 8.424630 -19.912653
v -310.043121 8.424630 -19.912653
v -300.043121 8.424631 -9.912653
v -290.043121 8.424630 -19.912653
v -290.043121 8.424631 -9.912653
v -280.043121 8.424630 -19.912653
v -280.043121 8.424631 -9.912653
v -280.043121 5.924631 -19.912653
v -280.043121 8.424632 0.087347
v -270.043121 8.424631 -9.912653
v -270.043121 8.424632 0.087347
v -270.043121 8.424633 10.087347
v -260.043121 8.424632 0.087347
v -260.043121 8.424633 10.087347
v -260.043121 8.424634 20.087349
v -260.043121 -1.575369 10.087348
v -260.043121 -1.575369 20.087349
v -260.043121 -16.575365 20.087351
v -270.043121 8.424634 20.087349
v -280.043121 8.424634 20.087349
v -290.043121 8.424634 20.087349
v -280.043121 8.424633 10.087347
v -290.043121 8.424633 10.087347
v -290.043121 8.424632 0.087347
v -300.043121 8.424633 10.087347
v -290.043121 5.924633 10.087348
v -300.043121 5.924633 10.087348
v -290.043121 5.924634 20.087349
v -300.043121 5.924634 20.087349
v -300.043121 8.424634 20.087349
v -310.043121 8.424634 20.087349
v -310.043121 8.424633 10.087347
v -310.043121 5.924634 20.087349
v -320.043091 5.924634 20.087349
v -310.043121 5.924633 10.087348
v -320.043091 5.924633 10.087348
v -320.043091 8.424633 10.087347
v -320.043091 8.424632 0.087347
v -330.043091 8.424633 10.087347
v -320.043091 8.424634 20.087349
v -330.043091 8.424634 20.087349
v -340.043091 8.424634 20.087349
v -350.043091 8.424634 20.087349
v -340.043091 8.424633 10.087347
v -350.043091 8.424633 10.087347
v -340.043091 8.424632 0.087347
v -350.043091 8.424632 0.087347
v -340.043091 8.424631 -9.912653
v -330.043091 8.424632 0.087347
v -330.043091 8.424631 -9.912653
v -330.043091 8.424630 -19.912653
v -320.043091 8.424631 -9.912653
v -320.043091 8.424630 -19.912653
v -310.043121 8.424631 -9.912653
v -310.043121 8.424632 0.087347
v -300.043121 8.424632 0.087347
v -320.043091 5.924631 -19.912653
v -320.043091 5.924630 -29.912651
v -330.043091 5.924631 -19.912653
v -330.043091 5.924630 -29.912651
v -340.043091 5.924631 -19.912653
v -340.043091 8.424630 -19.912653
v -340.043091 5.924630 -29.912651
v -350.043091 5.924631 -19.912653
v -350.043091 5.924630 -29.912651
v -350.043091 -1.575372 -19.912653
v -350.043091 8.424630 -19.912653
v -350.043091 8.424631 -9.912653
v -350.043091 -1.575371 -9.912652
v -350.043091 -1.575370 0.087348
v -350.043091 -11.575368 -9.912651
v -350.043091 -11.575369 -19.912653
v -350.043091 -11.575367 0.087349
v -350.043091 -11.575366 10.087349
v -350.043091 -1.575369 10.087348
v -350.043091 -16.575365 20.087351
v -350.043091 -1.575369 20.087349
v -340.043091 -11.575369 -19.912653
v -350.043091 -9.075370 -19.912653
v -350.043091 -9.075370 -29.912651
v -340.043091 -9.075370 -19.912653
v -330.043091 -9.075370 -19.912653
v -340.043091 -9.075370 -29.912651
v -330.043091 -9.075370 -29.912651
v -330.043091 -1.575372 -29.912651
v -330.043091 -9.075371 -39.912651
v -320.043091 -9.075371 -39.912651
v -330.043091 -1.575373 -39.912651
v -330.043091 5.924629 -39.912651
v -320.043091 -1.575373 -39.912651
v -320.043091 -1.575372 -29.912651
v -320.043091 5.924629 -39.912651
v -320.043091 5.924628 -49.912651
v -310.043121 5.924629 -39.912651
v -330.043091 5.924628 -49.912651
v -330.043091 5.924628 -59.912651
v -340.043091 5.924628 -59.912651
v -340.043091 5.924629 -39.912651
v -350.043091 -1.575372 -29.912651
v -290.043121 -9.075373 -59.912651
v -300.043121 -9.075372 -49.912651
v -300.043121 -9.075373 -59.912651
v -310.043121 -9.075372 -49.912651
v -280.043121 -9.075370 -19.912653
v -290.043121 -11.575369 -19.912653
v -290.043121 -11.575368 -9.912651
v -280.043121 -11.575369 -19.912653
v -280.043121 -11.575368 -9.912651
v -300.043121 -11.575368 -9.912651
v -290.043121 -11.575367 0.087349
v -300.043121 -11.575367 0.087349
v -310.043121 -11.575367 0.087349
v -260.043121 -6.575371 -39.912651
vn -0.0000 -0.0000 1.0000
vn -0.0000 -1.0000 -0.0000
vn 1.0000 -0.0000 -0.0000
vn -0.0000 1.0000 -0.0000
vn -1.0000 -0.0000 -0.0000
vn -0.0000 -0.0000 -1.0000
vn -0.0000 0.8944 0.4472
vt 0.878431 0.752941
vt 0.998039 0.841177
vt 0.878431 0.841177
vt 0.627451 0.878431
vt 0.747059 0.998039
vt 0.627451 0.998039
vt 0.501961 0.878431
vt 0.621569 0.998039
vt 0.501961 0.998039
vt 0.252941 0.252941
vt 0.372549 0.341177
vt 0.252941 0.341177
vt 0.372549 0.278432
vt 0.252941 0.278432
vt 0.378431 0.501961
vt 0.498039 0.621569
vt 0.378431 0.621569
vt 0.372549 0.372549
vt 0.252941 0.372549
vt 0.378431 0.001961
vt 0.498039 0.121569
vt 0.378431 0.121569
vt 0.627451 0.972549
vt 0.372549 0.252941
vt 0.998039 0.752941
vt 0.747059 0.878431
vt 0.621569 0.878431
vt 0.498039 0.501961
vt 0.498039 0.001961
vt 0.747059 0.972549
s 0
usemtl Material.001
f 2/1/1 4/2/1 6/3/1
f 230/4/2 1/5/2 2/6/2
f 1/7/3 5/8/3 4/9/3
f 8/10/3 4/11/3 5/12/3
f 7/1/1 6/2/1 4/3/1
f 9/4/4 8/5/4 10/6/4
f 9/1/3 13/2/3 6/3/3
f 11/4/4 10/5/4 218/6/4
f 14/4/4 9/5/4 11/6/4
f 12/10/1 15/11/1 13/12/1
f 14/10/1 19/11/1 15/12/1
f 16/4/4 11/5/4 17/6/4
f 18/4/4 17/5/4 235/6/4
f 16/10/1 21/11/1 19/12/1
f 20/7/1 15/8/1 19/9/1
f 23/7/1 19/8/1 21/9/1
f 18/10/1 22/11/1 21/12/1
f 25/7/1 21/8/1 22/9/1
f 24/4/2 20/5/2 23/6/2
f 26/4/2 23/5/2 25/6/2
f 28/4/2 25/5/2 27/6/2
f 27/7/1 22/8/1 29/9/1
f 31/4/2 27/5/2 30/6/2
f 30/7/1 29/8/1 32/9/1
f 34/4/2 30/5/2 33/6/2
f 33/7/1 32/8/1 35/9/1
f 34/7/5 36/8/5 37/9/5
f 38/10/5 37/11/5 36/12/5
f 39/10/1 35/11/1 32/12/1
f 38/4/4 41/5/4 40/6/4
f 40/4/4 121/5/4 42/6/4
f 43/4/4 42/5/4 44/6/4
f 40/10/1 46/11/1 37/12/1
f 245/10/5 43/11/5 44/12/5
f 47/7/1 37/8/1 46/9/1
f 48/4/2 34/5/2 47/6/2
f 49/1/6 50/2/6 51/3/6
f 44/1/6 51/2/6 50/3/6
f 53/1/5 51/2/5 52/3/5
f 42/1/5 52/2/5 51/3/5
f 62/1/1 52/2/1 54/3/1
f 55/1/1 54/2/1 52/3/1
f 55/4/4 236/5/4 57/6/4
f 42/4/4 56/5/4 55/6/4
f 58/4/4 57/5/4 59/6/4
f 58/10/5 61/11/5 60/12/5
f 63/7/5 60/8/5 61/9/5
f 63/4/2 53/5/2 62/6/2
f 65/10/1 64/13/1 63/14/1
f 67/15/2 66/16/2 65/17/2
f 67/7/5 68/8/5 69/9/5
f 70/10/5 69/18/5 68/19/5
f 59/10/1 71/13/1 70/14/1
f 70/20/4 73/21/4 72/22/4
f 72/20/4 77/21/4 74/22/4
f 72/10/5 76/18/5 69/19/5
f 74/10/5 148/18/5 76/19/5
f 74/20/4 79/21/4 75/22/4
f 77/20/4 81/21/4 79/22/4
f 73/20/4 78/21/4 77/22/4
f 75/20/7 80/21/7 150/22/7
f 79/20/7 83/21/7 80/22/7
f 78/20/4 82/21/4 81/22/4
f 81/20/7 84/21/7 83/22/7
f 82/20/7 85/21/7 84/22/7
f 86/20/7 87/21/7 85/22/7
f 88/20/7 89/21/7 87/22/7
f 90/20/7 91/21/7 89/22/7
f 93/20/7 92/21/7 91/22/7
f 95/20/4 94/21/4 93/22/4
f 97/20/4 93/21/4 90/22/4
f 98/20/4 96/21/4 95/22/4
f 101/20/4 95/21/4 97/22/4
f 100/20/4 99/21/4 98/22/4
f 103/20/4 98/21/4 101/22/4
f 102/20/4 97/21/4 244/22/4
f 105/20/4 101/21/4 102/22/4
f 107/10/1 103/13/1 105/14/1
f 104/10/1 100/13/1 103/14/1
f 106/20/4 102/21/4 241/22/4
f 108/10/1 105/13/1 106/14/1
f 109/4/4 104/5/4 107/6/4
f 112/4/4 107/5/4 108/6/4
f 113/4/4 109/5/4 112/6/4
f 110/4/4 111/5/4 109/6/4
f 113/1/5 114/2/5 122/3/5
f 115/4/4 108/5/4 117/6/4
f 112/1/1 116/2/1 114/3/1
f 115/1/3 120/2/3 116/3/3
f 56/4/4 117/5/4 236/6/4
f 121/4/4 115/5/4 56/6/4
f 118/1/6 122/2/6 120/3/6
f 119/4/4 113/5/4 118/6/4
f 41/4/4 118/5/4 121/6/4
f 124/1/6 120/2/6 122/3/6
f 123/1/3 116/2/3 120/3/3
f 123/4/2 26/5/2 28/6/2
f 128/4/2 123/5/2 125/6/2
f 125/4/2 28/5/2 31/6/2
f 140/4/2 126/5/2 128/6/2
f 127/4/2 129/5/2 126/6/2
f 126/1/1 114/2/1 116/3/1
f 129/1/5 122/2/5 114/3/5
f 129/4/2 226/5/2 124/6/2
f 131/4/2 130/5/2 129/6/2
f 133/10/1 132/13/1 131/14/1
f 136/10/1 131/13/1 127/14/1
f 135/15/2 134/16/2 133/17/2
f 137/15/2 133/16/2 136/17/2
f 139/15/2 136/16/2 138/17/2
f 138/10/1 127/13/1 140/14/1
f 142/15/2 138/16/2 66/17/2
f 66/10/1 140/13/1 64/14/1
f 64/4/2 128/5/2 53/6/2
f 141/15/2 137/16/2 139/17/2
f 143/15/2 139/16/2 142/17/2
f 145/15/2 142/16/2 67/17/2
f 144/15/2 141/16/2 143/17/2
f 146/15/2 143/16/2 145/17/2
f 145/7/5 69/8/5 76/9/5
f 146/7/5 76/8/5 148/9/5
f 147/15/2 144/16/2 146/17/2
f 147/7/5 148/8/5 149/9/5
f 75/10/5 149/18/5 148/19/5
f 151/15/2 154/16/2 144/17/2
f 152/15/2 155/16/2 154/17/2
f 154/15/2 156/16/2 141/17/2
f 155/15/2 188/16/2 156/17/2
f 157/23/6 158/5/6 159/6/6
f 155/23/3 160/5/3 158/6/3
f 160/4/2 159/5/2 158/6/2
f 162/23/5 159/5/5 161/6/5
f 162/15/2 164/16/2 157/17/2
f 164/23/3 165/5/3 167/6/3
f 165/4/2 168/5/2 167/6/2
f 169/23/6 167/5/6 168/6/6
f 172/23/5 168/5/5 166/6/5
f 164/15/2 170/16/2 187/17/2
f 169/15/2 181/16/2 170/17/2
f 172/15/2 171/16/2 169/17/2
f 173/15/2 176/16/2 171/17/2
f 174/15/2 177/16/2 176/17/2
f 176/15/2 179/16/2 178/17/2
f 171/15/2 178/16/2 181/17/2
f 178/15/2 200/16/2 180/17/2
f 181/15/2 180/16/2 182/17/2
f 170/15/2 182/16/2 184/17/2
f 184/15/2 183/16/2 185/17/2
f 182/15/2 194/16/2 183/17/2
f 186/15/2 185/16/2 134/17/2
f 187/15/2 184/16/2 186/17/2
f 188/15/2 186/16/2 135/17/2
f 157/15/2 187/16/2 188/17/2
f 156/15/2 135/16/2 137/17/2
f 185/10/1 191/13/1 189/14/1
f 134/10/1 189/13/1 132/14/1
f 132/4/2 190/5/2 130/6/2
f 189/4/2 192/5/2 190/6/2
f 191/4/2 195/5/2 192/6/2
f 183/10/1 193/13/1 191/14/1
f 194/10/1 196/13/1 193/14/1
f 193/4/2 197/5/2 195/6/2
f 197/7/3 198/8/3 231/9/3
f 199/7/3 201/8/3 198/9/3
f 180/15/2 199/16/2 194/17/2
f 200/7/3 202/8/3 201/9/3
f 203/10/3 198/18/3 201/19/3
f 205/10/3 201/18/3 202/19/3
f 210/20/4 203/21/4 99/22/4
f 99/20/4 205/21/4 96/22/4
f 96/20/4 206/21/4 94/22/4
f 206/10/3 202/18/3 207/19/3
f 94/20/7 208/21/7 92/22/7
f 209/19/3 206/24/3 207/18/3
f 177/7/3 209/8/3 207/9/3
f 179/7/3 207/8/3 202/9/3
f 213/10/1 204/13/1 210/14/1
f 211/10/3 231/11/3 198/12/3
f 215/4/4 211/5/4 213/6/4
f 214/10/1 210/13/1 100/14/1
f 216/4/4 213/5/4 214/6/4
f 10/4/4 212/5/4 215/6/4
f 218/4/4 215/5/4 216/6/4
f 111/4/4 214/5/4 104/6/4
f 216/1/1 223/2/1 217/3/1
f 218/1/5 217/2/5 220/3/5
f 17/4/4 218/5/4 219/6/4
f 219/1/6 220/2/6 222/3/6
f 221/1/6 222/2/6 220/3/6
f 192/1/5 220/2/5 217/3/5
f 111/1/3 222/2/3 223/3/3
f 224/1/3 223/2/3 222/3/3
f 226/4/2 225/5/2 24/6/2
f 224/4/2 227/5/2 225/6/2
f 130/4/2 224/5/2 226/6/2
f 124/4/2 24/5/2 26/6/2
f 225/4/2 228/5/2 20/6/2
f 227/4/2 229/5/2 228/6/2
f 221/4/2 2/5/2 227/6/2
f 228/7/1 13/8/1 15/9/1
f 229/1/3 6/2/3 13/3/3
f 190/1/1 217/2/1 223/3/1
f 192/4/2 230/5/2 221/6/2
f 195/4/2 3/5/2 230/6/2
f 235/4/4 219/5/4 110/6/4
f 212/10/3 5/11/3 231/12/3
f 3/7/3 231/8/3 5/9/3
f 53/4/2 125/5/2 49/6/2
f 49/4/2 31/5/2 34/6/2
f 39/4/4 119/5/4 41/6/4
f 232/4/4 233/5/4 119/6/4
f 234/4/4 235/5/4 233/6/4
f 233/4/4 110/5/4 113/6/4
f 234/10/1 29/11/1 22/12/1
f 232/10/1 32/11/1 29/12/1
f 117/10/1 106/13/1 237/14/1
f 236/10/1 237/13/1 239/14/1
f 237/20/4 241/21/4 238/22/4
f 239/20/4 238/21/4 240/22/4
f 71/20/4 240/21/4 73/22/4
f 57/10/1 239/13/1 71/14/1
f 240/20/4 242/21/4 78/22/4
f 238/20/4 243/21/4 242/22/4
f 242/20/4 86/21/4 82/22/4
f 241/20/4 244/21/4 243/22/4
f 243/20/4 88/21/4 86/22/4
f 244/20/4 90/21/4 88/22/4
f 2/1/1 1/25/1 4/2/1
f 230/4/2 3/26/2 1/5/2
f 1/7/3 3/27/3 5/8/3
f 8/10/3 7/24/3 4/11/3
f 7/1/1 9/25/1 6/2/1
f 9/4/4 7/26/4 8/5/4
f 9/1/3 12/25/3 13/2/3
f 11/4/4 9/26/4 10/5/4
f 14/4/4 12/26/4 9/5/4
f 12/10/1 14/24/1 15/11/1
f 14/10/1 16/24/1 19/11/1
f 16/4/4 14/26/4 11/5/4
f 18/4/4 16/26/4 17/5/4
f 16/10/1 18/24/1 21/11/1
f 20/7/1 228/27/1 15/8/1
f 23/7/1 20/27/1 19/8/1
f 18/10/1 234/24/1 22/11/1
f 25/7/1 23/27/1 21/8/1
f 24/4/2 225/26/2 20/5/2
f 26/4/2 24/26/2 23/5/2
f 28/4/2 26/26/2 25/5/2
f 27/7/1 25/27/1 22/8/1
f 31/4/2 28/26/2 27/5/2
f 30/7/1 27/27/1 29/8/1
f 34/4/2 31/26/2 30/5/2
f 33/7/1 30/27/1 32/8/1
f 34/7/5 33/27/5 36/8/5
f 38/10/5 40/24/5 37/11/5
f 39/10/1 38/24/1 35/11/1
f 38/4/4 39/26/4 41/5/4
f 40/4/4 41/26/4 121/5/4
f 43/4/4 40/26/4 42/5/4
f 40/10/1 43/24/1 46/11/1
f 245/10/5 45/24/5 43/11/5
f 47/7/1 34/27/1 37/8/1
f 48/4/2 49/26/2 34/5/2
f 49/1/6 48/25/6 50/2/6
f 44/1/6 42/25/6 51/2/6
f 53/1/5 49/25/5 51/2/5
f 42/1/5 55/25/5 52/2/5
f 62/1/1 53/25/1 52/2/1
f 55/1/1 58/25/1 54/2/1
f 55/4/4 56/26/4 236/5/4
f 42/4/4 121/26/4 56/5/4
f 58/4/4 55/26/4 57/5/4
f 58/10/5 59/24/5 61/11/5
f 63/7/5 62/27/5 60/8/5
f 63/4/2 64/26/2 53/5/2
f 65/10/1 66/24/1 64/13/1
f 67/15/2 142/28/2 66/16/2
f 67/7/5 65/27/5 68/8/5
f 70/10/5 72/24/5 69/18/5
f 59/10/1 57/24/1 71/13/1
f 70/20/4 71/29/4 73/21/4
f 72/20/4 73/29/4 77/21/4
f 72/10/5 74/24/5 76/18/5
f 74/10/5 75/24/5 148/18/5
f 74/20/4 77/29/4 79/21/4
f 77/20/4 78/29/4 81/21/4
f 73/20/4 240/29/4 78/21/4
f 75/20/7 79/29/7 80/21/7
f 79/20/7 81/29/7 83/21/7
f 78/20/4 242/29/4 82/21/4
f 81/20/7 82/29/7 84/21/7
f 82/20/7 86/29/7 85/21/7
f 86/20/7 88/29/7 87/21/7
f 88/20/7 90/29/7 89/21/7
f 90/20/7 93/29/7 91/21/7
f 93/20/7 94/29/7 92/21/7
f 95/20/4 96/29/4 94/21/4
f 97/20/4 95/29/4 93/21/4
f 98/20/4 99/29/4 96/21/4
f 101/20/4 98/29/4 95/21/4
f 100/20/4 210/29/4 99/21/4
f 103/20/4 100/29/4 98/21/4
f 102/20/4 101/29/4 97/21/4
f 105/20/4 103/29/4 101/21/4
f 107/10/1 104/24/1 103/13/1
f 104/10/1 214/24/1 100/13/1
f 106/20/4 105/29/4 102/21/4
f 108/10/1 107/24/1 105/13/1
f 109/4/4 111/26/4 104/5/4
f 112/4/4 109/26/4 107/5/4
f 113/4/4 110/26/4 109/5/4
f 110/4/4 219/26/4 111/5/4
f 113/1/5 112/25/5 114/2/5
f 115/4/4 112/26/4 108/5/4
f 112/1/1 115/25/1 116/2/1
f 115/1/3 118/25/3 120/2/3
f 56/4/4 115/26/4 117/5/4
f 121/4/4 118/26/4 115/5/4
f 118/1/6 113/25/6 122/2/6
f 119/4/4 233/26/4 113/5/4
f 41/4/4 119/26/4 118/5/4
f 124/1/6 123/25/6 120/2/6
f 123/1/3 126/25/3 116/2/3
f 123/4/2 124/26/2 26/5/2
f 128/4/2 126/26/2 123/5/2
f 125/4/2 123/26/2 28/5/2
f 140/4/2 127/26/2 126/5/2
f 127/4/2 131/26/2 129/5/2
f 126/1/1 129/25/1 114/2/1
f 129/1/5 124/25/5 122/2/5
f 129/4/2 130/26/2 226/5/2
f 131/4/2 132/26/2 130/5/2
f 133/10/1 134/24/1 132/13/1
f 136/10/1 133/24/1 131/13/1
f 135/15/2 186/28/2 134/16/2
f 137/15/2 135/28/2 133/16/2
f 139/15/2 137/28/2 136/16/2
f 138/10/1 136/24/1 127/13/1
f 142/15/2 139/28/2 138/16/2
f 66/10/1 138/24/1 140/13/1
f 64/4/2 140/26/2 128/5/2
f 141/15/2 156/28/2 137/16/2
f 143/15/2 141/28/2 139/16/2
f 145/15/2 143/28/2 142/16/2
f 144/15/2 154/28/2 141/16/2
f 146/15/2 144/28/2 143/16/2
f 145/7/5 67/27/5 69/8/5
f 146/7/5 145/27/5 76/8/5
f 147/15/2 151/28/2 144/16/2
f 147/7/5 146/27/5 148/8/5
f 75/10/5 150/24/5 149/18/5
f 151/15/2 152/28/2 154/16/2
f 152/15/2 153/28/2 155/16/2
f 154/15/2 155/28/2 156/16/2
f 155/15/2 157/28/2 188/16/2
f 157/23/6 155/30/6 158/5/6
f 155/23/3 153/30/3 160/5/3
f 160/4/2 161/26/2 159/5/2
f 162/23/5 157/30/5 159/5/5
f 162/15/2 163/28/2 164/16/2
f 164/23/3 163/30/3 165/5/3
f 165/4/2 166/26/2 168/5/2
f 169/23/6 164/30/6 167/5/6
f 172/23/5 169/30/5 168/5/5
f 164/15/2 169/28/2 170/16/2
f 169/15/2 171/28/2 181/16/2
f 172/15/2 173/28/2 171/16/2
f 173/15/2 174/28/2 176/16/2
f 174/15/2 175/28/2 177/16/2
f 176/15/2 177/28/2 179/16/2
f 171/15/2 176/28/2 178/16/2
f 178/15/2 179/28/2 200/16/2
f 181/15/2 178/28/2 180/16/2
f 170/15/2 181/28/2 182/16/2
f 184/15/2 182/28/2 183/16/2
f 182/15/2 180/28/2 194/16/2
f 186/15/2 184/28/2 185/16/2
f 187/15/2 170/28/2 184/16/2
f 188/15/2 187/28/2 186/16/2
f 157/15/2 164/28/2 187/16/2
f 156/15/2 188/28/2 135/16/2
f 185/10/1 183/24/1 191/13/1
f 134/10/1 185/24/1 189/13/1
f 132/4/2 189/26/2 190/5/2
f 189/4/2 191/26/2 192/5/2
f 191/4/2 193/26/2 195/5/2
f 183/10/1 194/24/1 193/13/1
f 194/10/1 199/24/1 196/13/1
f 193/4/2 196/26/2 197/5/2
f 197/7/3 196/27/3 198/8/3
f 199/7/3 200/27/3 201/8/3
f 180/15/2 200/28/2 199/16/2
f 200/7/3 179/27/3 202/8/3
f 203/10/3 204/24/3 198/18/3
f 205/10/3 203/24/3 201/18/3
f 210/20/4 204/29/4 203/21/4
f 99/20/4 203/29/4 205/21/4
f 96/20/4 205/29/4 206/21/4
f 206/10/3 205/24/3 202/18/3
f 94/20/7 206/29/7 208/21/7
f 209/19/3 208/10/3 206/24/3
f 177/7/3 175/27/3 209/8/3
f 179/7/3 177/27/3 207/8/3
f 213/10/1 211/24/1 204/13/1
f 211/10/3 212/24/3 231/11/3
f 215/4/4 212/26/4 211/5/4
f 214/10/1 213/24/1 210/13/1
f 216/4/4 215/26/4 213/5/4
f 10/4/4 8/26/4 212/5/4
f 218/4/4 10/26/4 215/5/4
f 111/4/4 216/26/4 214/5/4
f 216/1/1 111/25/1 223/2/1
f 218/1/5 216/25/5 217/2/5
f 17/4/4 11/26/4 218/5/4
f 219/1/6 218/25/6 220/2/6
f 221/1/6 224/25/6 222/2/6
f 192/1/5 221/25/5 220/2/5
f 111/1/3 219/25/3 222/2/3
f 224/1/3 190/25/3 223/2/3
f 226/4/2 224/26/2 225/5/2
f 224/4/2 221/26/2 227/5/2
f 130/4/2 190/26/2 224/5/2
f 124/4/2 226/26/2 24/5/2
f 225/4/2 227/26/2 228/5/2
f 227/4/2 2/26/2 229/5/2
f 221/4/2 230/26/2 2/5/2
f 228/7/1 229/27/1 13/8/1
f 229/1/3 2/25/3 6/2/3
f 190/1/1 192/25/1 217/2/1
f 192/4/2 195/26/2 230/5/2
f 195/4/2 197/26/2 3/5/2
f 235/4/4 17/26/4 219/5/4
f 212/10/3 8/24/3 5/11/3
f 3/7/3 197/27/3 231/8/3
f 53/4/2 128/26/2 125/5/2
f 49/4/2 125/26/2 31/5/2
f 39/4/4 232/26/4 119/5/4
f 232/4/4 234/26/4 233/5/4
f 234/4/4 18/26/4 235/5/4
f 233/4/4 235/26/4 110/5/4
f 234/10/1 232/24/1 29/11/1
f 232/10/1 39/24/1 32/11/1
f 117/10/1 108/24/1 106/13/1
f 236/10/1 117/24/1 237/13/1
f 237/20/4 106/29/4 241/21/4
f 239/20/4 237/29/4 238/21/4
f 71/20/4 239/29/4 240/21/4
f 57/10/1 236/24/1 239/13/1
f 240/20/4 238/29/4 242/21/4
f 238/20/4 241/29/4 243/21/4
f 242/20/4 243/29/4 86/21/4
f 241/20/4 102/29/4 244/21/4
f 243/20/4 244/29/4 88/21/4
f 244/20/4 97/29/4 90/21/4
