# Blender 5.1.2
# www.blender.org
mtllib room08.mtl
o 01-Caves.008
v 149.956879 -19.075371 -59.912651
v 149.956879 -19.075371 -49.912651
v 149.956879 -6.575372 -59.912651
v 149.956879 -36.575371 -59.912643
v 159.956879 -44.075367 -59.912643
v 149.956879 -19.075371 -59.912651
v 149.956879 -36.575371 -49.912643
v 159.956879 -44.075367 -49.912643
v 149.956879 -34.075371 -39.912643
v 149.956879 -19.075371 -39.912651
v 159.956879 -41.575367 -39.912643
v 149.956879 -26.575369 -29.912649
v 149.956879 -9.075370 -29.912651
v 159.956879 -34.075371 -29.912649
v 149.956879 -19.075369 -29.912649
v 169.956879 -36.575371 -29.912649
v 159.956879 -19.075369 -29.912649
v 159.956879 -6.575370 -29.912651
v 159.956879 -4.075368 -39.912651
v 159.956879 3.424633 -29.912651
v 159.956879 -9.075370 -19.912653
v 149.956879 -11.575369 -19.912653
v 159.956879 0.924631 -19.912653
v 159.956879 -31.575369 -19.912651
v 159.956879 -19.075369 -19.912651
v 169.956879 -26.575369 -19.912651
v 159.956879 -36.575367 -19.912651
v 159.956879 -44.075363 -9.912649
v 169.956879 -36.575367 -19.912651
v 149.956879 -36.575367 -19.912651
v 149.956879 -19.075369 -19.912651
v 149.956879 -44.075363 -9.912649
v 149.956879 -36.575367 -9.912649
v 149.956879 -31.575369 -19.912651
v 149.956879 -19.075367 -9.912650
v 149.956879 -36.575367 0.087351
v 149.956879 -19.075367 0.087349
v 149.956879 -36.575367 10.087351
v 149.956879 -46.575363 0.087351
v 159.956879 -46.575363 0.087351
v 149.956879 -49.075363 10.087352
v 159.956879 -49.075363 10.087352
v 149.956879 -51.575363 20.087353
v 149.956879 -36.575367 20.087351
v 159.956879 -51.575363 20.087353
v 149.956879 -31.575365 20.087351
v 149.956879 -16.575365 20.087351
v 159.956879 -31.575365 20.087351
v 159.956879 -14.075365 20.087351
v 169.956879 -31.575365 20.087351
v 169.956879 -11.575365 20.087349
v 169.956879 -51.575363 20.087353
v 169.956879 -31.575365 30.087389
v 169.956879 -51.575363 20.087353
v 169.956879 -49.075363 10.087352
v 169.956879 -49.075363 20.087353
v 179.956879 -49.075363 20.087353
v 179.956879 -49.075363 10.087352
v 179.956879 -49.075359 30.087391
v 189.956879 -46.575363 20.087353
v 189.956879 -46.575359 30.087391
v 199.956879 -46.575363 20.087353
v 189.956879 -46.575363 10.087352
v 189.956879 -46.575363 0.087351
v 179.956879 -46.575363 10.087352
v 199.956879 -46.575363 10.087352
v 199.956879 -46.575363 0.087351
v 199.956879 -39.075367 10.087351
v 209.956879 -39.075367 10.087351
v 199.956879 -36.575367 0.087351
v 199.956879 -36.575367 20.087351
v 209.956879 -36.575367 20.087351
v 199.956879 -31.575365 30.087389
v 209.956879 -31.575365 30.087389
v 199.956879 -21.575363 40.087349
v 199.956879 -46.575359 30.087391
v 199.956879 -46.575359 40.087357
v 199.956879 -36.575363 40.087357
v 189.956879 -46.575359 40.087357
v 189.956879 -36.575363 40.087357
v 179.956879 -49.075359 40.087357
v 169.956879 -51.575359 40.087357
v 179.956879 -36.575363 40.087357
v 179.956879 -24.075363 40.087349
v 169.956879 -36.575363 40.087357
v 169.956879 -24.075363 40.087349
v 169.956879 -14.075364 40.087349
v 169.956879 -31.575363 40.087357
v 169.956879 -14.075365 30.087389
v 169.956879 -4.075363 30.087387
v 169.956879 8.424634 20.087349
v 179.956879 -1.575368 30.087387
v 189.956879 -4.075363 30.087387
v 179.956879 -11.575364 40.087349
v 189.956879 0.924634 30.087387
v 179.956879 10.924629 20.087349
v 189.956879 13.424635 20.087347
v 179.956879 13.424635 20.087347
v 169.956879 13.424635 20.087347
v 179.956879 15.924638 10.087347
v 179.956879 18.424633 0.087346
v 169.956879 15.924638 10.087347
v 189.956879 15.924638 10.087347
v 199.956879 8.424633 10.087347
v 189.956879 18.424633 0.087346
v 189.956879 20.924633 -9.912654
v 199.956879 10.924627 0.087347
v 199.956879 13.424632 -9.912653
v 209.956879 8.424632 0.087347
v 209.956879 10.924627 0.087347
v 219.956879 10.924627 0.087347
v 209.956879 8.424633 10.087347
v 209.956879 5.924634 20.087349
v 219.956879 8.424633 10.087347
v 219.956879 5.924634 20.087349
v 229.956879 5.924633 10.087348
v 229.956879 8.424632 0.087347
v 239.956909 3.424635 10.087348
v 229.956879 3.424636 20.087349
v 239.956909 0.924634 20.087349
v 229.956879 -1.575369 20.087349
v 219.956879 0.924634 20.087349
v 229.956879 -4.075363 30.087387
v 239.956909 -4.075364 20.087349
v 239.956909 -6.575366 30.087387
v 249.956879 -9.075366 20.087349
v 239.956909 -1.575369 10.087348
v 239.956909 -9.075366 30.087387
v 249.956879 -14.075365 30.087389
v 239.956909 -11.575365 30.087387
v 239.956909 -21.575363 40.087349
v 229.956879 -9.075366 30.087387
v 219.956879 -4.075363 30.087387
v 229.956879 -19.075363 40.087349
v 219.956879 -14.075364 40.087349
v 229.956879 -24.075363 40.087349
v 219.956879 -24.075363 40.087349
v 229.956879 -36.575363 40.087357
v 239.956909 -24.075363 40.087349
v 239.956909 -36.575363 40.087357
v 249.956879 -24.075363 40.087349
v 249.956879 -36.575363 40.087357
v 259.956879 -26.575363 40.087357
v 259.956879 -16.575365 30.087389
v 259.956879 -36.575363 40.087357
v 269.956879 -29.075363 40.087357
v 269.956879 -36.575363 40.087357
v 269.956879 -19.075365 30.087389
v 269.956879 -19.075365 20.087351
v 269.956879 -19.075367 10.087350
v 259.956879 -16.575365 20.087351
v 249.956879 -14.075365 20.087351
v 259.956879 -16.575367 10.087349
v 249.956879 -14.075366 10.087349
v 259.956879 -6.575368 0.087348
v 259.956879 -4.075366 -9.912652
v 249.956879 -4.075366 0.087348
v 269.956879 -9.075368 0.087348
v 269.956879 -6.575369 -9.912651
v 269.956879 -26.575367 0.087350
v 269.956879 -31.575367 0.087350
v 269.956879 -31.575367 10.087350
v 269.956879 -34.075367 0.087350
v 269.956879 -36.575367 10.087351
v 259.956879 -39.075367 0.087351
v 249.956879 -41.575363 0.087351
v 259.956879 -41.575363 10.087351
v 259.956879 -36.575367 0.087351
v 259.956879 -34.075367 -9.912649
v 269.956879 -24.075367 -9.912650
v 249.956879 -39.075367 -9.912649
v 259.956879 -31.575369 -19.912651
v 259.956879 -31.575369 -29.912649
v 269.956879 -21.575369 -19.912651
v 249.956879 -36.575367 -19.912651
v 239.956909 -39.075367 -19.912649
v 249.956879 -36.575371 -29.912649
v 249.956879 -39.075371 -29.912647
v 239.956909 -39.075371 -29.912647
v 239.956909 -46.575367 -39.912643
v 229.956879 -36.575371 -29.912649
v 219.956879 -36.575371 -29.912649
v 229.956879 -44.075367 -39.912643
v 229.956879 -36.575367 -19.912651
v 219.956879 -36.575367 -19.912651
v 229.956879 -41.575363 -9.912649
v 229.956879 -39.075367 -19.912649
v 219.956879 -41.575363 -9.912649
v 229.956879 -44.075363 0.087351
v 239.956909 -41.575363 -9.912649
v 239.956909 -44.075363 0.087351
v 239.956909 -46.575363 10.087352
v 229.956879 -46.575363 10.087352
v 239.956909 -46.575363 20.087353
v 249.956879 -44.075363 10.087351
v 249.956879 -46.575363 10.087352
v 249.956879 -46.575363 20.087353
v 259.956879 -44.075363 10.087351
v 259.956879 -44.075363 20.087353
v 269.956879 -41.575363 10.087351
v 269.956879 -41.575363 20.087353
v 269.956879 -31.575367 10.087350
v 269.956879 -39.075367 20.087353
v 269.956879 -41.575359 30.087391
v 269.956879 -41.575359 40.087357
v 259.956879 -44.075359 30.087391
v 259.956879 -44.075359 40.087357
v 249.956879 -46.575359 30.087391
v 239.956909 -46.575359 30.087391
v 249.956879 -46.575359 40.087357
v 239.956909 -46.575359 40.087357
v 229.956879 -46.575359 40.087357
v 219.956879 -46.575359 40.087357
v 229.956879 -46.575359 30.087391
v 219.956879 -46.575359 30.087391
v 229.956879 -46.575363 20.087353
v 219.956879 -46.575363 20.087353
v 219.956879 -44.075359 30.087391
v 219.956879 -46.575363 10.087352
v 209.956879 -39.075367 20.087353
v 209.956879 -36.575363 30.087389
v 209.956879 -29.075363 40.087357
v 219.956879 -36.575363 40.087357
v 209.956879 -21.575363 40.087349
v 209.956879 -24.075363 40.087349
v 209.956879 -14.075364 40.087349
v 209.956879 -4.075363 30.087387
v 199.956879 -14.075364 40.087349
v 199.956879 -24.075363 40.087349
v 189.956879 -14.075364 40.087349
v 199.956879 -4.075363 30.087387
v 199.956879 3.424636 20.087349
v 189.956879 3.424636 20.087349
v 209.956879 3.424636 20.087349
v 199.956879 5.924634 20.087349
v 209.956879 0.924634 30.087387
v 219.956879 -1.575368 30.087387
v 189.956879 -24.075363 40.087349
v 219.956879 -44.075363 0.087351
v 209.956879 -36.575367 0.087351
v 209.956879 -29.075367 -9.912650
v 209.956879 -34.075367 -9.912649
v 209.956879 -31.575367 -9.912650
v 209.956879 -26.575369 -19.912651
v 209.956879 -9.075370 -19.912653
v 209.956879 -21.575369 -19.912651
v 209.956879 -26.575369 -29.912649
v 209.956879 -34.075371 -39.912643
v 199.956879 -26.575369 -29.912649
v 209.956879 -9.075370 -29.912651
v 209.956879 -6.575370 -29.912651
v 199.956879 -9.075370 -29.912651
v 199.956879 8.424630 -29.912651
v 199.956879 -1.575372 -29.912651
v 199.956879 -9.075370 -19.912653
v 199.956879 -21.575369 -19.912651
v 199.956879 -26.575369 -19.912651
v 199.956879 8.424630 -19.912653
v 199.956879 23.424625 -19.912655
v 209.956879 -4.075367 -19.912653
v 199.956879 10.924626 -9.912653
v 199.956879 23.424627 -9.912654
v 209.956879 -1.575371 -9.912652
v 209.956879 10.924626 -9.912653
v 219.956879 3.424634 -9.912652
v 219.956879 13.424632 -9.912653
v 219.956879 0.924631 -19.912653
v 219.956879 -1.575372 -29.912651
v 219.956879 8.424630 -19.912653
v 229.956879 5.924631 -19.912653
v 219.956879 8.424630 -29.912651
v 219.956879 8.424629 -39.912651
v 229.956879 5.924630 -29.912651
v 229.956879 5.924629 -39.912651
v 229.956879 10.924625 -29.912651
v 229.956879 8.424629 -39.912651
v 239.956909 8.424630 -29.912651
v 229.956879 10.924625 -19.912653
v 239.956909 8.424630 -19.912653
v 229.956879 10.924626 -9.912653
v 239.956909 8.424631 -9.912653
v 239.956909 5.924632 0.087347
v 239.956909 5.924631 -9.912652
v 249.956879 0.924631 -9.912652
v 239.956909 0.924632 0.087348
v 249.956879 3.424633 -19.912653
v 249.956879 -1.575371 -9.912652
v 259.956879 0.924631 -19.912653
v 249.956879 3.424633 -29.912651
v 249.956879 0.924629 -39.912651
v 259.956879 0.924630 -29.912651
v 269.956879 -1.575372 -29.912651
v 259.956879 -1.575373 -39.912651
v 259.956879 -6.575372 -49.912651
v 269.956879 -6.575371 -39.912651
v 269.956879 -4.075368 -39.912651
v 269.956879 -31.575371 -39.912643
v 269.956879 -39.075371 -39.912643
v 269.956879 -46.575367 -39.912643
v 269.956879 -31.575369 -29.912649
v 269.956879 -31.575371 -49.912643
v 269.956879 -31.575369 -29.912649
v 269.956879 -31.575371 -59.912643
v 269.956879 -14.075371 -49.912651
v 269.956879 -46.575367 -49.912643
v 269.956879 -11.575371 -49.912651
v 259.956879 -46.575367 -49.912643
v 269.956879 -46.575367 -59.912643
v 269.956879 -46.575367 -69.912651
v 259.956879 -46.575367 -59.912643
v 259.956879 -46.575367 -69.912651
v 249.956879 -46.575367 -59.912643
v 249.956879 -46.575367 -49.912643
v 249.956879 -46.575367 -69.912651
v 239.956909 -46.575367 -59.912643
v 229.956879 -46.575367 -59.912643
v 239.956909 -46.575367 -49.912643
v 239.956909 -46.575367 -69.912651
v 239.956909 -41.575371 -79.912689
v 229.956879 -46.575367 -69.912651
v 219.956879 -46.575367 -69.912651
v 229.956879 -41.575371 -79.912689
v 219.956879 -41.575371 -79.912689
v 229.956879 -31.575373 -79.912689
v 229.956879 -14.075373 -79.912689
v 219.956879 -31.575373 -79.912689
v 239.956909 -31.575373 -79.912689
v 239.956909 -14.075373 -79.912689
v 239.956909 -11.575373 -79.912689
v 229.956879 -6.575374 -79.912689
v 239.956909 -6.575373 -69.912651
v 239.956909 -14.075373 -79.912689
v 239.956909 -9.075374 -69.912651
v 239.956909 -19.075373 -79.912689
v 249.956879 -19.075373 -79.912689
v 249.956879 -14.075373 -69.912651
v 249.956879 -21.575373 -79.912689
v 249.956879 -34.075375 -79.912689
v 239.956909 -34.075375 -79.912689
v 249.956879 -41.575371 -79.912689
v 259.956879 -34.075375 -79.912689
v 259.956879 -41.575371 -79.912689
v 259.956879 -26.575373 -79.912689
v 269.956879 -34.075375 -79.912689
v 269.956879 -41.575371 -79.912689
v 269.956879 -31.575373 -79.912689
v 269.956879 -26.575373 -69.912651
v 269.956879 -31.575373 -69.912651
v 259.956879 -21.575373 -69.912651
v 269.956879 -21.575371 -59.912651
v 259.956879 -16.575371 -59.912651
v 269.956879 -19.075371 -59.912651
v 259.956879 -14.075372 -59.912651
v 249.956879 -11.575372 -59.912651
v 259.956879 -9.075372 -49.912651
v 249.956879 -6.575372 -49.912651
v 239.956909 -1.575374 -49.912651
v 249.956879 -4.075369 -49.912651
v 239.956909 -6.575372 -59.912651
v 239.956909 3.424632 -39.912651
v 239.956909 0.924628 -49.912651
v 239.956909 -4.075370 -59.912651
v 229.956879 3.424631 -49.912651
v 229.956879 0.924628 -59.912651
v 229.956879 5.924628 -49.912651
v 229.956879 3.424630 -59.912651
v 219.956879 8.424628 -49.912651
v 209.956879 8.424628 -49.912651
v 219.956879 5.924628 -59.912651
v 209.956879 5.924628 -59.912651
v 219.956879 3.424629 -69.912651
v 219.956879 0.924626 -79.912689
v 229.956879 0.924627 -69.912651
v 219.956879 -1.575376 -79.912689
v 209.956879 3.424629 -69.912651
v 199.956879 3.424629 -69.912651
v 209.956879 0.924626 -79.912689
v 209.956879 -21.575373 -79.912689
v 209.956879 -4.075372 -79.912689
v 199.956879 0.924626 -79.912689
v 189.956879 3.424629 -79.912689
v 199.956879 -21.575373 -79.912689
v 199.956879 -34.075375 -79.912689
v 189.956879 -21.575373 -79.912689
v 189.956879 -34.075375 -79.912689
v 179.956879 -21.575373 -79.912689
v 179.956879 -4.075372 -79.912689
v 179.956879 -34.075375 -79.912689
v 179.956879 -46.575371 -79.912689
v 179.956879 -16.575373 -79.912689
v 189.956879 -46.575371 -79.912689
v 179.956879 -51.575367 -69.912643
v 179.956879 -21.575373 -69.912651
v 179.956879 -51.575367 -59.912643
v 169.956879 -46.575367 -69.912651
v 189.956879 -51.575367 -69.912643
v 189.956879 -51.575367 -59.912643
v 199.956879 -46.575367 -69.912651
v 199.956879 -41.575371 -79.912689
v 199.956879 -46.575367 -59.912643
v 209.956879 -46.575367 -69.912651
v 209.956879 -41.575371 -79.912689
v 209.956879 -46.575367 -59.912643
v 209.956879 -46.575367 -49.912643
v 219.956879 -46.575367 -59.912643
v 219.956879 -46.575367 -49.912643
v 219.956879 -44.075367 -39.912643
v 209.956879 -39.075371 -49.912643
v 229.956879 -46.575367 -49.912643
v 219.956879 -46.575367 -39.912643
v 229.956879 -46.575367 -39.912643
v 209.956879 -36.575371 -39.912643
v 199.956879 -39.075371 -49.912643
v 189.956879 -46.575367 -49.912643
v 199.956879 -46.575367 -49.912643
v 199.956879 -36.575371 -39.912643
v 199.956879 -34.075371 -39.912643
v 189.956879 -44.075367 -39.912643
v 179.956879 -44.075367 -39.912643
v 189.956879 -41.575367 -39.912643
v 189.956879 -34.075371 -29.912649
v 189.956879 -34.075367 -19.912651
v 179.956879 -36.575371 -29.912649
v 179.956879 -36.575367 -19.912651
v 169.956879 -26.575369 -29.912649
v 179.956879 -44.075363 -9.912649
v 169.956879 -44.075363 -9.912649
v 179.956879 -46.575363 0.087351
v 189.956879 -41.575363 -9.912649
v 199.956879 -34.075367 -9.912649
v 189.956879 -44.075363 0.087351
v 199.956879 -29.075367 -9.912650
v 169.956879 -46.575363 0.087351
v 169.956879 -44.075367 -39.912643
v 179.956879 -46.575367 -49.912643
v 169.956879 -46.575367 -49.912643
v 179.956879 -51.575367 -49.912643
v 189.956879 -51.575367 -49.912643
v 169.956879 -46.575367 -59.912643
v 209.956879 -34.075375 -79.912689
v 219.956879 -34.075375 -79.912689
v 219.956879 -4.075372 -79.912689
v 159.956879 -44.075367 -69.912651
v 169.956879 -26.575373 -69.912651
v 169.956879 -16.575373 -69.912651
v 169.956879 -4.075371 -69.912651
v 169.956879 18.424627 -69.912651
v 179.956879 -1.575375 -69.912651
v 179.956879 18.424627 -69.912651
v 189.956879 5.924627 -69.912651
v 189.956879 18.424627 -69.912651
v 189.956879 8.424627 -59.912651
v 189.956879 18.424629 -59.912651
v 199.956879 5.924628 -59.912651
v 199.956879 20.924629 -59.912651
v 199.956879 8.424628 -49.912651
v 199.956879 8.424629 -39.912651
v 199.956879 20.924629 -49.912651
v 189.956879 18.424629 -49.912651
v 199.956879 20.924629 -39.912651
v 189.956879 18.424629 -39.912651
v 199.956879 20.924631 -29.912653
v 189.956879 18.424631 -29.912653
v 179.956879 18.424631 -29.912653
v 189.956879 20.924631 -19.912655
v 189.956879 20.924631 -29.912653
v 179.956879 20.924631 -29.912653
v 189.956879 20.924629 -39.912651
v 189.956879 20.924629 -49.912651
v 179.956879 20.924629 -49.912651
v 169.956879 20.924629 -49.912651
v 179.956879 18.424629 -49.912651
v 169.956879 18.424629 -49.912651
v 179.956879 18.424629 -59.912651
v 169.956879 18.424629 -59.912651
v 169.956879 10.924623 -59.912651
v 169.956879 5.924627 -69.912651
v 169.956879 13.424629 -49.912651
v 159.956879 -4.075370 -59.912651
v 159.956879 -1.575374 -49.912651
v 159.956879 -9.075374 -69.912651
v 159.956879 -26.575371 -59.912643
v 159.956879 -21.575373 -69.912651
v 159.956879 -16.575373 -69.912651
v 169.956879 -14.075373 -69.912651
v 159.956879 -24.075373 -69.912651
v 159.956879 0.924629 -39.912651
v 149.956879 -4.075369 -49.912651
v 149.956879 -6.575371 -39.912651
v 169.956879 15.924634 -39.912651
v 169.956879 18.424631 -29.912653
v 169.956879 20.924629 -39.912651
v 169.956879 20.924631 -29.912653
v 169.956879 15.924635 -19.912655
v 169.956879 20.924631 -19.912655
v 179.956879 20.924631 -19.912655
v 169.956879 20.924633 -9.912654
v 179.956879 20.924633 -9.912654
v 169.956879 18.424633 0.087346
v 169.956879 18.424633 -9.912653
v 159.956879 3.424634 -9.912652
v 169.956879 15.924637 0.087347
v 159.956879 0.924632 0.087348
v 169.956879 13.424634 10.087347
v 169.956879 3.424636 20.087349
v 159.956879 -1.575369 10.087348
v 149.956879 -4.075365 10.087348
v 159.956879 -11.575365 20.087349
v 149.956879 -14.075365 20.087351
v 149.956879 -19.075365 20.087351
v 149.956879 -19.075367 10.087350
v 149.956879 -1.575370 0.087348
v 149.956879 0.924631 -9.912652
v 149.956879 -1.575372 -19.912653
v 209.956879 8.424629 -39.912651
v 209.956879 3.424632 -39.912651
v 229.956879 -4.075372 -79.912689
v 219.956879 -14.075373 -79.912689
v 229.956879 -1.575375 -69.912651
v 239.956909 5.924629 -39.912651
v 249.956879 -16.575373 -69.912651
v 249.956879 -46.575367 -39.912643
v 259.956879 -46.575367 -39.912643
v 259.956879 -44.075367 -39.912643
v 259.956879 -36.575371 -29.912649
v 269.956879 -21.575369 -29.912649
v 269.956879 -1.575372 -19.912653
v 249.956879 -6.575367 10.087349
v 169.956879 -51.575359 30.087391
vn 1.0000 -0.0000 -0.0000
vn -0.0000 -0.0000 1.0000
vn 0.6000 0.8000 -0.0000
vn 0.5883 0.7845 -0.1961
vn 0.5145 0.6860 -0.5145
vn -0.0000 -0.0000 -1.0000
vn 0.1961 0.7845 -0.5883
vn 0.2357 -0.9428 -0.2357
vn -0.0000 0.8000 0.6000
vn -0.0000 0.9701 0.2425
vn -1.0000 -0.0000 -0.0000
vn -0.0000 1.0000 -0.0000
vn -0.2425 0.9701 -0.0000
vn -0.0000 0.9701 -0.2425
vn -0.0000 0.8944 -0.4472
vn -0.0000 0.7071 -0.7071
vn 0.1543 -0.6172 -0.7715
vn 0.1741 -0.6963 -0.6963
vn -0.1741 -0.6963 -0.6963
vn -0.0000 -0.9701 -0.2425
vn -0.5883 -0.7845 -0.1961
vn -0.2357 -0.9428 -0.2357
vn -0.4082 -0.8165 -0.4082
vn -0.4364 -0.8729 -0.2182
vn -0.3333 -0.6667 -0.6667
vn -0.2425 -0.9701 -0.0000
vn -0.4364 0.8729 0.2182
vn -0.2357 0.9428 0.2357
vn -0.6963 0.6963 0.1741
vn -0.7071 0.7071 -0.0000
vn -0.4472 0.8944 -0.0000
vn -0.0000 0.8000 -0.6000
vn 0.2425 0.9701 -0.0000
vn -0.0000 0.8944 0.4472
vn -0.0000 -0.7071 -0.7071
vn -0.0000 -0.8000 -0.6000
vn 0.5883 0.7845 0.1961
vn 0.6667 0.6667 0.3333
vn 0.7071 0.7071 -0.0000
vn 0.6247 0.6247 -0.4685
vn -0.7715 -0.6172 0.1543
vn 0.4364 -0.8729 0.2182
vn -0.2182 -0.8729 0.4364
vn -0.2357 -0.9428 0.2357
vn -0.2182 -0.8729 -0.4364
vn -0.4472 -0.8944 -0.0000
vn -0.4364 -0.8729 0.2182
vn -0.4082 -0.8165 0.4082
vn -0.0000 -1.0000 -0.0000
vn -0.0000 -0.9701 0.2425
vn 0.4472 0.8944 -0.0000
vn -0.4082 0.8165 0.4082
vn -0.5883 0.7845 -0.1961
vn -0.1961 0.7845 -0.5883
vn -0.5145 0.6860 -0.5145
vn -0.6000 0.8000 -0.0000
vn -0.1961 0.7845 0.5883
vn -0.5883 0.7845 0.1961
vn -0.5145 0.6860 0.5145
vn 0.2357 0.9428 -0.2357
vn 0.5883 -0.7845 0.1961
vn 0.2425 -0.9701 -0.0000
vn 0.2357 -0.9428 0.2357
vn 0.8018 -0.5345 0.2673
vn 0.8242 -0.5494 0.1374
vn 0.8242 -0.5494 -0.1374
vn 0.7276 -0.4851 -0.4851
vn 0.3333 -0.6667 -0.6667
vn -0.3714 0.7428 -0.5571
vt 0.752941 0.878431
vt 0.872549 0.998039
vt 0.752941 0.998039
vt 0.872549 0.878431
vt 0.001961 0.998039
vt 0.121569 0.878431
vt 0.121569 0.998039
vt 0.252941 0.998039
vt 0.372549 0.878431
vt 0.372549 0.998039
vt 0.127451 0.878431
vt 0.247059 0.998039
vt 0.127451 0.998039
vt 0.252941 0.878431
vt 0.752941 0.909804
vt 0.001961 0.878431
vt 0.752941 0.972549
vt 0.752941 0.941177
vt 0.001961 0.501961
vt 0.121569 0.621569
vt 0.001961 0.621569
vt 0.127451 0.621569
vt 0.247059 0.501961
vt 0.247059 0.621569
vt 0.127451 0.501961
vt 0.121569 0.501961
vt 0.627451 0.872549
vt 0.747059 0.752941
vt 0.747059 0.872549
vt 0.252941 0.621569
vt 0.252941 0.596079
vt 0.372549 0.621569
vt 0.372549 0.501961
vt 0.378431 0.747059
vt 0.498039 0.627451
vt 0.498039 0.747059
vt 0.001961 0.596079
vt 0.121569 0.596079
vt 0.872549 0.941177
vt 0.501961 0.998039
vt 0.621569 0.878431
vt 0.621569 0.998039
vt 0.501961 0.878431
vt 0.252941 0.627451
vt 0.372549 0.747059
vt 0.252941 0.747059
vt 0.378431 0.627451
vt 0.001961 0.747059
vt 0.001961 0.721568
vt 0.121569 0.747059
vt 0.001961 0.627451
vt 0.001961 0.752941
vt 0.121569 0.872549
vt 0.001961 0.872549
vt 0.247059 0.527451
vt 0.127451 0.527451
vt 0.252941 0.501961
vt 0.378431 0.721568
vt 0.121569 0.627451
vt 0.127451 0.627451
vt 0.247059 0.747059
vt 0.127451 0.747059
vt 0.247059 0.627451
vt 0.378431 0.690196
vt 0.121569 0.527451
vt 0.001961 0.527451
vt 0.127451 0.721568
vt 0.127451 0.596079
vt 0.121569 0.935294
vt 0.001961 0.935294
vt 0.627451 0.752941
vt 0.127451 0.872549
vt 0.247059 0.847059
vt 0.247059 0.872549
vt 0.121569 0.564706
vt 0.001961 0.564706
vt 0.872549 0.972549
vt 0.247059 0.878431
vt 0.127451 0.001961
vt 0.247059 0.121569
vt 0.127451 0.121569
vt 0.001961 0.001961
vt 0.121569 0.121569
vt 0.001961 0.121569
vt 0.247059 0.027451
vt 0.127451 0.027451
vt 0.252941 0.001961
vt 0.372549 0.121569
vt 0.252941 0.121569
vt 0.378431 0.001961
vt 0.498039 0.121569
vt 0.378431 0.121569
vt 0.127451 0.941177
vt 0.252941 0.721568
vt 0.872549 0.909804
vt 0.127451 0.658823
vt 0.127451 0.690196
vt 0.121569 0.847059
vt 0.372549 0.627451
vt 0.121569 0.752941
vt 0.247059 0.721568
vt 0.127451 0.847059
vt 0.247059 0.001961
vt 0.121569 0.001961
vt 0.372549 0.001961
vt 0.498039 0.001961
vt 0.247059 0.941177
vt 0.372549 0.721568
vt 0.001961 0.847059
s 0
usemtl Material.001
f 1/1/1 7/2/1 4/3/1
f 3/1/1 2/2/1 1/3/1
f 482/1/2 4/2/2 5/3/2
f 5/1/3 7/2/3 8/3/3
f 2/1/1 9/2/1 7/3/1
f 11/3/4 7/4/4 9/2/4
f 10/1/1 12/2/1 9/3/1
f 14/3/5 9/4/5 12/2/5
f 12/5/6 18/6/6 14/7/6
f 10/3/1 13/4/1 15/2/1
f 16/3/7 11/4/7 14/2/7
f 14/3/6 425/4/6 16/2/6
f 18/8/8 489/9/8 19/10/8
f 487/11/1 18/12/1 19/13/1
f 23/14/1 18/10/1 20/8/1
f 17/3/1 21/4/1 25/2/1
f 24/3/2 22/4/2 34/2/2
f 21/3/2 514/4/2 22/2/2
f 425/1/3 25/2/3 26/3/3
f 26/1/2 27/2/2 29/3/2
f 24/1/2 30/2/2 27/3/2
f 29/1/9 28/2/9 427/3/9
f 27/1/9 32/2/9 28/3/9
f 31/15/1 33/2/1 30/3/1
f 30/3/1 33/15/1 32/2/1
f 35/1/1 36/2/1 33/3/1
f 32/3/1 36/4/1 39/2/1
f 37/16/1 38/7/1 36/5/1
f 39/3/1 38/4/1 41/2/1
f 40/1/10 41/2/10 42/3/10
f 28/1/10 39/2/10 40/3/10
f 42/1/10 43/2/10 45/3/10
f 41/3/1 44/4/1 43/2/1
f 46/1/6 45/2/6 43/3/6
f 47/1/6 48/2/6 46/3/6
f 49/1/6 50/2/6 48/3/6
f 48/1/6 54/2/6 45/3/6
f 50/3/1 89/4/1 53/2/1
f 50/1/1 529/2/1 52/3/1
f 54/3/11 56/17/11 55/2/11
f 55/1/10 45/2/10 54/3/10
f 58/1/12 56/2/12 57/3/12
f 57/3/2 56/1/2 52/2/2
f 63/1/13 57/2/13 60/3/13
f 60/1/13 59/2/13 61/3/13
f 57/1/13 529/2/13 59/3/13
f 62/18/12 61/2/12 76/3/12
f 66/1/12 60/2/12 62/3/12
f 63/3/2 65/1/2 58/2/2
f 67/18/12 63/2/12 66/3/12
f 64/1/12 65/2/12 63/3/12
f 68/1/11 67/2/11 66/3/11
f 62/3/11 68/4/11 66/2/11
f 69/1/14 71/2/14 72/3/14
f 240/1/10 68/2/10 69/3/10
f 71/19/15 74/20/15 72/21/15
f 76/22/11 71/23/11 62/24/11
f 73/25/16 224/24/16 74/22/16
f 77/21/11 73/26/11 76/20/11
f 76/18/12 79/2/12 77/3/12
f 80/1/6 77/2/6 79/3/6
f 83/1/6 79/2/6 81/3/6
f 61/1/13 81/2/13 79/3/13
f 85/1/6 81/2/6 82/3/6
f 59/1/13 82/2/13 81/3/13
f 84/1/6 80/2/6 83/3/6
f 86/1/6 83/2/6 85/3/6
f 87/1/6 84/2/6 86/3/6
f 89/3/1 87/4/1 86/2/1
f 53/3/1 86/4/1 88/2/1
f 51/3/1 90/4/1 89/2/1
f 92/1/17 91/2/17 96/3/17
f 94/27/18 90/28/18 92/29/18
f 92/30/6 95/31/6 93/32/6
f 93/30/19 94/33/19 92/32/19
f 95/27/17 96/28/17 97/29/17
f 99/17/6 96/2/6 91/3/6
f 96/3/6 98/17/6 97/2/6
f 98/16/20 102/7/20 100/5/20
f 97/1/20 100/2/20 103/3/20
f 103/1/20 101/2/20 105/3/20
f 100/1/20 499/2/20 101/3/20
f 104/3/21 97/4/21 103/2/21
f 107/3/21 103/4/21 105/2/21
f 105/1/20 498/2/20 106/3/20
f 108/34/21 105/35/21 106/36/21
f 107/22/22 264/23/22 109/24/22
f 109/21/2 110/37/2 107/20/2
f 112/1/20 107/2/20 110/3/20
f 114/1/20 110/2/20 111/3/20
f 111/21/2 110/37/2 109/20/2
f 115/1/20 112/2/20 114/3/20
f 113/1/20 104/2/20 112/3/20
f 116/3/22 115/4/22 114/2/22
f 117/3/22 114/4/22 111/2/22
f 282/21/22 116/38/22 117/20/22
f 118/21/22 119/38/22 116/20/22
f 121/3/6 120/39/6 124/2/6
f 122/3/6 119/39/6 121/2/6
f 121/3/22 237/4/22 122/2/22
f 124/3/22 123/4/22 121/2/22
f 120/18/11 127/2/11 124/3/11
f 128/3/11 125/17/11 124/2/11
f 126/3/23 128/4/23 124/2/23
f 528/3/24 124/4/24 127/2/24
f 130/3/6 128/17/6 129/2/6
f 129/3/19 131/4/19 130/2/19
f 130/3/19 134/4/19 132/2/19
f 132/3/6 125/39/6 130/2/6
f 133/3/6 123/39/6 132/2/6
f 132/3/25 135/4/25 133/2/25
f 137/3/6 134/4/6 136/2/6
f 136/3/6 131/4/6 139/2/6
f 137/1/6 138/2/6 223/3/6
f 136/1/6 140/2/6 138/3/6
f 139/1/6 142/2/6 140/3/6
f 139/3/6 131/17/6 141/2/6
f 144/40/19 141/41/19 129/42/19
f 142/3/6 143/4/6 145/2/6
f 148/40/19 143/41/19 144/42/19
f 145/3/6 146/4/6 147/2/6
f 148/43/26 151/42/26 149/40/26
f 149/43/26 153/42/26 150/40/26
f 144/43/26 152/42/26 151/40/26
f 151/43/26 154/42/26 153/40/26
f 155/40/19 154/41/19 157/42/19
f 158/40/19 153/41/19 155/42/19
f 159/40/22 155/41/22 156/42/22
f 156/40/22 157/41/22 287/42/22
f 158/1/11 170/2/11 160/3/11
f 150/1/11 161/2/11 162/3/11
f 162/18/11 163/2/11 164/3/11
f 163/3/2 168/39/2 165/2/2
f 164/3/27 165/4/27 167/2/27
f 165/3/2 168/17/2 166/2/2
f 167/3/28 166/4/28 195/2/28
f 168/3/27 171/4/27 166/2/27
f 160/3/29 169/4/29 168/2/29
f 170/3/29 172/4/29 169/2/29
f 169/3/27 175/4/27 171/2/27
f 526/44/30 172/45/30 174/46/30
f 173/47/31 175/36/31 172/34/31
f 171/3/28 176/4/28 190/2/28
f 177/44/13 176/45/13 175/46/13
f 179/48/6 177/49/6 178/50/6
f 177/51/6 525/50/6 178/48/6
f 522/1/32 179/2/32 178/3/32
f 179/5/7 183/6/7 181/7/7
f 179/47/33 184/36/33 176/34/33
f 183/1/32 182/2/32 181/3/32
f 181/44/12 185/45/12 184/46/12
f 184/1/34 188/2/34 186/3/34
f 176/3/2 184/1/2 187/2/2
f 187/3/1 184/17/1 186/2/1
f 176/1/10 186/2/10 190/3/10
f 186/1/10 239/2/10 189/3/10
f 190/1/10 189/2/10 191/3/10
f 166/3/28 190/4/28 191/2/28
f 191/1/10 193/2/10 192/3/10
f 195/3/28 191/4/28 192/2/28
f 192/1/12 216/2/12 194/3/12
f 196/1/12 194/2/12 197/3/12
f 196/3/2 195/17/2 192/2/2
f 198/3/2 195/39/2 196/2/2
f 198/1/13 197/2/13 199/3/13
f 200/1/13 199/2/13 201/3/13
f 200/3/2 167/39/2 198/2/2
f 203/18/11 200/2/11 201/3/11
f 204/3/11 203/18/11 201/2/11
f 204/1/13 207/2/13 205/3/13
f 201/1/13 206/2/13 204/3/13
f 206/1/13 210/2/13 207/3/13
f 199/1/13 208/2/13 206/3/13
f 208/1/12 211/2/12 210/3/12
f 197/1/12 209/2/12 208/3/12
f 142/1/6 207/2/6 210/3/6
f 140/1/6 210/2/6 211/3/6
f 209/1/12 212/2/12 211/3/12
f 138/1/6 211/2/6 212/3/6
f 223/1/6 212/2/6 213/3/6
f 214/1/12 213/2/12 212/3/12
f 216/1/12 215/2/12 214/3/12
f 194/1/12 214/2/12 209/3/12
f 193/1/12 217/2/12 216/3/12
f 217/3/1 218/17/1 215/2/1
f 218/3/4 220/4/4 221/2/4
f 219/1/3 220/2/3 217/3/3
f 69/3/1 72/17/1 220/2/1
f 72/18/1 221/2/1 220/3/1
f 223/3/5 221/4/5 222/2/5
f 74/18/1 222/2/1 221/3/1
f 222/3/6 137/4/6 223/2/6
f 226/1/6 137/2/6 225/3/6
f 135/1/35 227/2/35 133/3/35
f 226/16/35 231/7/35 227/5/35
f 228/1/6 224/2/6 75/3/6
f 230/1/6 229/2/6 238/3/6
f 228/52/35 93/53/35 231/54/35
f 227/1/36 232/2/36 234/3/36
f 231/52/36 233/53/36 232/54/36
f 233/27/6 235/28/6 232/29/6
f 235/25/6 234/55/6 232/56/6
f 234/3/6 115/39/6 122/2/6
f 234/3/1 236/1/1 227/2/1
f 122/3/22 236/4/22 234/2/22
f 227/3/6 237/39/6 133/2/6
f 95/57/11 233/32/11 93/30/11
f 84/3/6 230/4/6 238/2/6
f 238/1/6 78/2/6 80/3/6
f 218/17/1 213/2/1 215/3/1
f 189/1/10 219/2/10 193/3/10
f 239/1/37 69/2/37 219/3/37
f 188/22/37 240/23/37 239/24/37
f 240/34/1 242/58/1 241/36/1
f 241/25/9 70/24/9 240/22/9
f 188/48/2 243/49/2 242/50/2
f 244/22/1 241/23/1 243/24/1
f 185/48/38 243/59/38 188/50/38
f 250/60/1 244/61/1 247/62/1
f 185/60/39 247/61/39 244/62/39
f 248/34/40 182/35/40 407/36/40
f 248/44/32 249/45/32 247/46/32
f 252/51/6 247/50/6 249/48/6
f 245/47/1 251/36/1 260/34/1
f 252/34/6 251/35/6 250/36/6
f 258/44/11 252/45/11 255/46/11
f 255/60/11 249/61/11 257/62/11
f 255/44/2 260/45/2 258/46/2
f 245/51/2 256/50/2 246/48/2
f 258/48/11 462/59/11 253/50/11
f 261/62/11 259/63/11 258/61/11
f 263/51/41 258/50/41 260/48/41
f 264/47/2 261/36/2 263/34/2
f 265/34/2 264/35/2 263/36/2
f 267/60/42 263/61/42 260/62/42
f 269/47/1 265/36/1 267/34/1
f 271/44/1 267/45/1 268/46/1
f 268/51/42 260/50/42 251/48/42
f 269/44/43 280/45/43 266/46/43
f 270/44/26 271/45/26 273/46/26
f 271/34/1 268/64/1 272/36/1
f 274/47/26 271/36/26 272/34/26
f 273/19/1 276/65/1 275/66/1
f 275/67/1 270/61/1 273/62/1
f 276/25/44 277/24/44 275/22/44
f 279/19/26 275/20/26 277/21/26
f 270/48/1 278/49/1 280/50/1
f 278/25/26 281/24/26 280/22/26
f 111/19/22 280/20/22 117/21/22
f 281/21/22 117/38/22 280/20/22
f 282/18/11 283/2/11 285/3/11
f 283/22/11 281/68/11 279/24/11
f 284/3/23 285/4/23 283/2/23
f 286/21/24 283/38/24 279/20/24
f 118/18/11 285/2/11 127/3/11
f 157/3/24 127/4/24 285/2/24
f 287/21/11 284/37/11 286/20/11
f 157/21/11 284/37/11 287/20/11
f 288/40/45 287/41/45 286/42/45
f 288/37/26 289/20/26 291/21/26
f 286/37/46 277/20/46 289/21/46
f 520/19/47 289/20/47 277/21/47
f 290/25/44 291/24/44 289/22/44
f 527/37/26 291/20/26 292/21/26
f 292/16/44 293/7/44 296/5/44
f 293/19/43 358/20/43 294/21/43
f 294/21/48 295/26/48 293/20/48
f 295/56/2 296/25/2 293/55/2
f 302/3/11 296/4/11 297/2/11
f 297/3/11 306/4/11 301/2/11
f 300/3/11 297/18/11 298/2/11
f 297/1/11 305/2/11 299/3/11
f 301/1/11 308/2/11 305/3/11
f 301/3/11 352/4/11 303/2/11
f 306/16/2 355/69/2 304/70/2
f 305/1/12 523/2/12 299/3/12
f 308/1/12 307/2/12 305/3/12
f 303/1/11 309/2/11 308/3/11
f 309/1/12 310/2/12 308/3/12
f 311/16/12 312/7/12 310/5/12
f 310/1/12 313/2/12 307/3/12
f 312/1/12 317/2/12 313/3/12
f 314/1/12 315/2/12 312/3/12
f 315/1/12 409/2/12 317/3/12
f 318/1/12 316/2/12 315/3/12
f 340/19/34 318/20/34 314/21/34
f 319/25/34 320/24/34 318/22/34
f 320/1/12 405/2/12 316/3/12
f 322/1/34 321/2/34 320/3/34
f 324/19/2 323/20/2 322/21/2
f 322/19/2 327/20/2 324/21/2
f 327/1/2 325/2/2 324/3/2
f 326/25/2 325/24/2 518/22/2
f 325/30/2 329/33/2 330/32/2
f 331/71/48 330/29/48 329/27/48
f 333/72/11 329/73/11 332/74/11
f 336/52/48 332/53/48 335/54/48
f 335/3/2 332/1/2 334/2/2
f 338/1/2 334/2/2 339/3/2
f 521/21/11 335/75/11 337/20/11
f 319/25/2 338/24/2 339/22/2
f 341/1/2 340/2/2 342/3/2
f 343/15/2 338/2/2 341/3/2
f 344/15/2 342/2/2 345/3/2
f 346/1/2 341/2/2 344/3/2
f 347/22/48 343/23/48 346/24/48
f 348/3/11 347/1/11 346/2/11
f 348/1/11 345/2/11 309/3/11
f 303/3/11 347/4/11 348/2/11
f 350/44/48 349/45/48 347/46/48
f 352/16/2 351/69/2 350/70/2
f 353/25/48 304/24/48 355/22/48
f 351/70/2 353/16/2 354/69/2
f 354/19/43 355/20/43 356/21/43
f 294/16/2 356/69/2 355/70/2
f 359/22/48 356/23/48 357/24/48
f 356/21/2 358/37/2 357/20/2
f 290/25/43 357/24/43 358/22/43
f 357/21/11 362/76/11 359/20/11
f 360/3/11 361/17/11 357/2/11
f 357/3/2 361/17/2 363/2/2
f 357/1/47 364/2/47 362/3/47
f 363/1/44 360/2/44 274/3/44
f 274/21/11 365/37/11 363/20/11
f 363/3/11 366/77/11 364/2/11
f 365/1/44 369/2/44 366/3/44
f 365/1/26 272/2/26 367/3/26
f 272/1/49 368/2/49 367/3/49
f 369/14/50 368/10/50 370/8/50
f 369/1/50 375/2/50 371/3/50
f 366/71/44 371/29/44 373/27/44
f 371/71/50 377/29/50 372/27/50
f 371/30/11 372/31/11 374/32/11
f 373/57/43 374/32/43 517/30/43
f 375/1/50 380/2/50 377/3/50
f 376/14/50 370/10/50 454/8/50
f 377/1/2 382/2/2 378/3/2
f 377/71/2 442/29/2 372/27/2
f 380/1/2 384/2/2 382/3/2
f 381/8/44 376/9/44 450/10/44
f 378/1/2 383/2/2 440/3/2
f 382/16/2 385/7/2 383/5/2
f 384/1/2 388/2/2 385/3/2
f 384/3/2 387/4/2 386/2/2
f 385/1/2 389/2/2 391/3/2
f 389/3/1 393/4/1 392/2/1
f 391/1/34 392/2/34 396/3/34
f 393/1/2 395/2/2 392/3/2
f 396/1/12 394/2/12 397/3/12
f 392/1/51 439/2/51 394/3/51
f 398/1/31 397/2/31 400/3/31
f 398/3/52 391/4/52 396/2/52
f 402/1/34 398/2/34 401/3/34
f 401/1/12 400/2/12 403/3/12
f 323/1/34 401/2/34 321/3/34
f 321/1/12 403/2/12 405/3/12
f 403/1/12 415/2/12 404/3/12
f 405/1/12 404/2/12 406/3/12
f 316/1/12 406/2/12 409/3/12
f 406/3/1 407/17/1 410/2/1
f 407/3/4 408/4/4 412/2/4
f 404/3/6 408/18/6 406/2/6
f 409/1/12 410/2/12 411/3/12
f 407/17/6 411/2/6 410/3/6
f 411/3/6 183/17/6 180/2/6
f 317/1/12 411/2/12 180/3/12
f 408/1/14 416/2/14 412/3/14
f 413/1/6 404/2/6 415/3/6
f 414/1/6 415/2/6 438/3/6
f 413/1/53 418/2/53 416/3/53
f 417/47/6 412/36/6 416/34/6
f 420/17/6 416/2/6 418/3/6
f 419/3/6 420/17/6 418/2/6
f 414/1/14 419/2/14 418/3/14
f 420/1/54 423/2/54 421/3/54
f 421/21/55 417/26/55 420/20/55
f 257/25/56 421/24/56 422/22/56
f 421/1/13 424/2/13 422/3/13
f 419/1/32 16/2/32 423/3/32
f 16/3/6 425/1/6 423/2/6
f 423/1/39 26/2/39 424/3/39
f 424/3/2 26/1/2 29/2/2
f 424/1/9 427/2/9 426/3/9
f 429/3/57 424/4/57 426/2/57
f 426/1/10 433/2/10 428/3/10
f 431/3/28 426/4/28 428/2/28
f 70/3/58 429/39/58 431/2/58
f 430/19/59 422/20/59 429/21/59
f 64/3/2 431/1/2 428/2/2
f 67/3/2 431/4/2 64/2/2
f 432/22/11 257/23/11 430/24/11
f 70/3/11 432/17/11 430/2/11
f 246/19/9 432/20/9 241/21/9
f 58/3/11 65/17/11 428/2/11
f 428/1/10 55/2/10 58/3/10
f 427/1/10 40/2/10 433/3/10
f 433/1/10 42/2/10 55/3/10
f 435/1/14 434/2/14 419/3/14
f 436/3/6 435/1/6 437/2/6
f 435/1/6 438/2/6 437/3/6
f 397/1/12 437/2/12 438/3/12
f 394/1/51 436/2/51 437/3/51
f 400/1/31 438/2/31 415/3/31
f 434/3/60 8/4/60 11/2/60
f 439/1/33 8/2/33 436/3/33
f 395/1/33 5/2/33 439/3/33
f 412/3/6 248/17/6 407/2/6
f 441/25/2 402/24/2 323/22/2
f 440/1/2 399/2/2 402/3/2
f 440/19/2 442/20/2 379/21/2
f 399/3/2 385/4/2 391/2/2
f 443/3/2 444/39/2 486/2/2
f 445/14/2 448/10/2 446/8/2
f 447/13/2 448/78/2 449/12/2
f 448/8/1 390/9/1 387/10/1
f 448/13/61 381/78/61 450/12/61
f 450/13/2 449/78/2 448/12/2
f 452/13/11 451/78/11 450/12/11
f 450/11/44 454/12/44 452/13/44
f 455/11/2 452/12/2 454/13/2
f 456/13/11 455/78/11 454/12/11
f 368/11/50 454/12/50 370/13/50
f 515/14/49 456/10/49 368/8/49
f 460/11/11 456/12/11 457/13/11
f 461/79/62 458/80/62 460/81/62
f 459/82/62 455/83/62 458/84/62
f 463/82/62 460/83/62 462/84/62
f 462/60/11 457/61/11 254/62/11
f 465/79/63 462/80/63 259/81/63
f 467/79/6 463/85/6 464/86/6
f 463/82/50 496/83/50 464/84/50
f 461/79/11 466/85/11 468/86/11
f 468/79/11 459/85/11 461/86/11
f 472/79/2 469/85/2 470/86/2
f 470/79/2 473/85/2 472/86/2
f 473/82/49 474/83/49 472/84/49
f 459/82/49 474/83/49 453/84/49
f 474/87/49 447/88/49 449/89/49
f 451/90/49 474/91/49 449/92/49
f 447/11/1 476/12/1 477/13/1
f 475/11/1 478/12/1 476/13/1
f 479/14/64 477/10/64 476/8/64
f 476/13/65 480/78/65 479/12/65
f 479/1/2 6/2/2 482/3/2
f 488/14/63 479/10/63 480/8/63
f 481/1/1 482/2/1 483/3/1
f 443/3/1 482/39/1 5/2/1
f 485/3/2 481/4/2 484/2/2
f 485/1/2 486/2/2 444/3/2
f 19/13/1 480/11/1 487/12/1
f 19/8/8 488/9/8 480/10/8
f 478/11/65 487/12/65 480/13/65
f 2/3/1 489/4/1 10/2/1
f 490/13/65 20/78/65 487/12/65
f 492/93/1 491/12/1 490/13/1
f 471/93/1 490/12/1 478/13/1
f 464/79/6 493/85/6 467/86/6
f 491/46/1 495/94/1 494/45/1
f 494/44/66 20/45/66 491/46/66
f 491/82/50 496/83/50 495/84/50
f 498/14/49 495/10/49 496/8/49
f 495/94/1 500/45/1 494/46/1
f 101/1/20 497/2/20 498/3/20
f 500/21/1 499/38/1 502/20/1
f 501/25/66 502/24/66 503/22/66
f 494/48/65 501/59/65 23/50/65
f 504/37/66 503/20/66 502/21/66
f 502/3/1 102/77/1 504/2/1
f 504/3/1 99/4/1 505/2/1
f 505/1/67 506/2/67 504/3/67
f 506/1/8 512/2/8 503/3/8
f 507/34/18 508/35/18 509/36/18
f 509/17/6 49/2/6 47/3/6
f 508/1/6 51/2/6 49/3/6
f 511/3/1 509/95/1 510/2/1
f 511/15/1 44/2/1 38/3/1
f 37/3/1 507/4/1 511/2/1
f 513/19/8 503/20/8 512/21/8
f 35/3/1 512/4/1 37/2/1
f 514/1/1 35/2/1 31/3/1
f 23/62/63 513/63/63 514/61/63
f 106/1/49 496/2/49 465/3/49
f 262/1/62 465/2/62 259/3/62
f 515/62/6 516/96/6 457/61/6
f 516/51/25 254/50/25 457/48/25
f 515/62/6 272/97/6 516/61/6
f 516/62/68 268/63/68 251/61/68
f 517/27/2 518/28/2 325/29/2
f 519/70/11 517/6/11 330/69/11
f 364/70/11 373/6/11 519/69/11
f 362/25/47 519/24/47 331/22/47
f 359/54/11 331/98/11 333/53/11
f 520/37/2 274/20/2 360/21/2
f 290/21/2 520/37/2 360/20/2
f 333/48/47 354/59/47 359/50/47
f 354/21/11 336/76/11 521/20/11
f 351/47/48 521/36/48 349/34/48
f 337/46/48 349/99/48 521/45/48
f 345/1/34 311/2/34 309/3/34
f 342/1/34 314/2/34 311/3/34
f 313/16/12 180/7/12 522/5/12
f 307/1/12 522/2/12 523/3/12
f 524/1/54 178/2/54 525/3/54
f 522/3/6 524/17/6 523/2/6
f 524/18/6 299/2/6 523/3/6
f 298/16/69 525/7/69 300/5/69
f 173/60/6 300/61/6 525/62/6
f 527/1/11 526/2/11 174/3/11
f 527/40/45 156/41/45 288/42/45
f 159/1/11 174/2/11 170/3/11
f 264/22/8 111/23/8 109/24/8
f 106/34/6 262/47/6 108/36/6
f 145/1/6 205/2/6 207/3/6
f 154/40/11 528/43/11 157/42/11
f 126/43/11 154/42/11 152/40/11
f 129/40/11 126/43/11 152/42/11
f 53/1/1 82/2/1 529/3/1
f 1/1/1 2/4/1 7/2/1
f 3/1/1 488/4/1 2/2/1
f 482/1/2 6/4/2 4/2/2
f 5/1/3 4/4/3 7/2/3
f 2/1/1 10/4/1 9/2/1
f 11/3/4 8/1/4 7/4/4
f 10/1/1 15/4/1 12/2/1
f 14/3/5 11/1/5 9/4/5
f 12/5/6 13/16/6 18/6/6
f 10/3/1 489/1/1 13/4/1
f 16/3/7 434/1/7 11/4/7
f 14/3/6 17/1/6 425/4/6
f 18/8/8 13/14/8 489/9/8
f 487/11/1 20/78/1 18/12/1
f 23/14/1 21/9/1 18/10/1
f 17/3/1 18/1/1 21/4/1
f 24/3/2 21/1/2 22/4/2
f 21/3/2 23/1/2 514/4/2
f 425/1/3 17/4/3 25/2/3
f 26/1/2 25/4/2 27/2/2
f 24/1/2 34/4/2 30/2/2
f 29/1/9 27/4/9 28/2/9
f 27/1/9 30/4/9 32/2/9
f 31/15/1 35/95/1 33/2/1
f 35/1/1 37/4/1 36/2/1
f 32/3/1 33/1/1 36/4/1
f 37/16/1 511/6/1 38/7/1
f 39/3/1 36/1/1 38/4/1
f 40/1/10 39/4/10 41/2/10
f 28/1/10 32/4/10 39/2/10
f 42/1/10 41/4/10 43/2/10
f 41/3/1 38/1/1 44/4/1
f 46/1/6 48/4/6 45/2/6
f 47/1/6 49/4/6 48/2/6
f 49/1/6 51/4/6 50/2/6
f 48/1/6 50/4/6 54/2/6
f 50/3/1 51/1/1 89/4/1
f 50/1/1 53/4/1 529/2/1
f 55/1/10 42/4/10 45/2/10
f 58/1/12 55/4/12 56/2/12
f 63/1/13 58/4/13 57/2/13
f 60/1/13 57/4/13 59/2/13
f 57/1/13 52/4/13 529/2/13
f 62/18/12 60/39/12 61/2/12
f 66/1/12 63/4/12 60/2/12
f 67/18/12 64/39/12 63/2/12
f 64/1/12 428/4/12 65/2/12
f 68/1/11 70/4/11 67/2/11
f 62/3/11 71/1/11 68/4/11
f 69/1/14 68/4/14 71/2/14
f 240/1/10 70/4/10 68/2/10
f 71/19/15 73/26/15 74/20/15
f 76/22/11 73/25/11 71/23/11
f 73/25/16 75/23/16 224/24/16
f 77/21/11 75/19/11 73/26/11
f 76/18/12 61/39/12 79/2/12
f 80/1/6 78/4/6 77/2/6
f 83/1/6 80/4/6 79/2/6
f 61/1/13 59/4/13 81/2/13
f 85/1/6 83/4/6 81/2/6
f 59/1/13 529/4/13 82/2/13
f 84/1/6 238/4/6 80/2/6
f 86/1/6 84/4/6 83/2/6
f 87/1/6 94/4/6 84/2/6
f 89/3/1 90/1/1 87/4/1
f 53/3/1 89/1/1 86/4/1
f 51/3/1 91/1/1 90/4/1
f 92/1/17 90/4/17 91/2/17
f 94/27/18 87/71/18 90/28/18
f 93/30/19 230/57/19 94/33/19
f 95/27/17 92/71/17 96/28/17
f 99/17/6 98/77/6 96/2/6
f 98/16/20 99/6/20 102/7/20
f 97/1/20 98/4/20 100/2/20
f 103/1/20 100/4/20 101/2/20
f 100/1/20 102/4/20 499/2/20
f 104/3/21 235/1/21 97/4/21
f 107/3/21 104/1/21 103/4/21
f 105/1/20 101/4/20 498/2/20
f 108/34/21 107/47/21 105/35/21
f 107/22/22 108/25/22 264/23/22
f 112/1/20 104/4/20 107/2/20
f 114/1/20 112/4/20 110/2/20
f 115/1/20 113/4/20 112/2/20
f 113/1/20 235/4/20 104/2/20
f 116/3/22 119/1/22 115/4/22
f 117/3/22 116/1/22 114/4/22
f 282/21/22 118/37/22 116/38/22
f 118/21/22 120/37/22 119/38/22
f 121/3/6 119/18/6 120/39/6
f 122/3/6 115/18/6 119/39/6
f 121/3/22 123/1/22 237/4/22
f 124/3/22 125/1/22 123/4/22
f 120/18/11 118/39/11 127/2/11
f 126/3/23 129/1/23 128/4/23
f 528/3/24 126/1/24 124/4/24
f 129/3/19 141/1/19 131/4/19
f 130/3/19 131/1/19 134/4/19
f 132/3/6 123/18/6 125/39/6
f 133/3/6 237/18/6 123/39/6
f 132/3/25 134/1/25 135/4/25
f 137/3/6 135/1/6 134/4/6
f 136/3/6 134/1/6 131/4/6
f 137/1/6 136/4/6 138/2/6
f 136/1/6 139/4/6 140/2/6
f 139/1/6 141/4/6 142/2/6
f 144/40/19 143/43/19 141/41/19
f 142/3/6 141/1/6 143/4/6
f 148/40/19 146/43/19 143/41/19
f 145/3/6 143/1/6 146/4/6
f 148/43/26 144/41/26 151/42/26
f 149/43/26 151/41/26 153/42/26
f 144/43/26 129/41/26 152/42/26
f 151/43/26 152/41/26 154/42/26
f 155/40/19 153/43/19 154/41/19
f 158/40/19 150/43/19 153/41/19
f 159/40/22 158/43/22 155/41/22
f 156/40/22 155/43/22 157/41/22
f 158/1/11 159/4/11 170/2/11
f 150/1/11 158/4/11 161/2/11
f 162/18/11 161/39/11 163/2/11
f 163/3/2 160/18/2 168/39/2
f 164/3/27 163/1/27 165/4/27
f 167/3/28 165/1/28 166/4/28
f 168/3/27 169/1/27 171/4/27
f 160/3/29 170/1/29 169/4/29
f 170/3/29 174/1/29 172/4/29
f 169/3/27 172/1/27 175/4/27
f 526/44/30 173/99/30 172/45/30
f 173/47/31 177/35/31 175/36/31
f 171/3/28 175/1/28 176/4/28
f 177/44/13 179/99/13 176/45/13
f 177/51/6 173/59/6 525/50/6
f 522/1/32 180/4/32 179/2/32
f 179/5/7 180/16/7 183/6/7
f 179/47/33 181/35/33 184/36/33
f 183/1/32 407/4/32 182/2/32
f 181/44/12 182/99/12 185/45/12
f 184/1/34 185/4/34 188/2/34
f 176/1/10 187/4/10 186/2/10
f 186/1/10 188/4/10 239/2/10
f 190/1/10 186/4/10 189/2/10
f 166/3/28 171/1/28 190/4/28
f 191/1/10 189/4/10 193/2/10
f 195/3/28 166/1/28 191/4/28
f 192/1/12 193/4/12 216/2/12
f 196/1/12 192/4/12 194/2/12
f 198/3/2 167/18/2 195/39/2
f 198/1/13 196/4/13 197/2/13
f 200/1/13 198/4/13 199/2/13
f 200/3/2 164/18/2 167/39/2
f 203/18/11 202/39/11 200/2/11
f 204/1/13 206/4/13 207/2/13
f 201/1/13 199/4/13 206/2/13
f 206/1/13 208/4/13 210/2/13
f 199/1/13 197/4/13 208/2/13
f 208/1/12 209/4/12 211/2/12
f 197/1/12 194/4/12 209/2/12
f 142/1/6 145/4/6 207/2/6
f 140/1/6 142/4/6 210/2/6
f 209/1/12 214/4/12 212/2/12
f 138/1/6 140/4/6 211/2/6
f 223/1/6 138/4/6 212/2/6
f 214/1/12 215/4/12 213/2/12
f 216/1/12 217/4/12 215/2/12
f 194/1/12 216/4/12 214/2/12
f 193/1/12 219/4/12 217/2/12
f 218/3/4 217/1/4 220/4/4
f 219/1/3 69/4/3 220/2/3
f 72/18/1 74/39/1 221/2/1
f 223/3/5 218/1/5 221/4/5
f 74/18/1 224/39/1 222/2/1
f 222/3/6 225/1/6 137/4/6
f 226/1/6 135/4/6 137/2/6
f 135/1/35 226/4/35 227/2/35
f 226/16/35 228/6/35 231/7/35
f 228/1/6 226/4/6 224/2/6
f 230/1/6 228/4/6 229/2/6
f 228/52/35 230/100/35 93/53/35
f 227/1/36 231/4/36 232/2/36
f 231/52/36 93/100/36 233/53/36
f 233/27/6 97/71/6 235/28/6
f 235/25/6 113/23/6 234/55/6
f 234/3/6 113/18/6 115/39/6
f 122/3/22 237/1/22 236/4/22
f 227/3/6 236/18/6 237/39/6
f 95/57/11 97/33/11 233/32/11
f 84/3/6 94/1/6 230/4/6
f 238/1/6 229/4/6 78/2/6
f 218/17/1 223/77/1 213/2/1
f 189/1/10 239/4/10 219/2/10
f 239/1/37 240/4/37 69/2/37
f 188/22/37 242/25/37 240/23/37
f 241/25/9 432/23/9 70/24/9
f 244/22/1 246/25/1 241/23/1
f 185/48/38 244/51/38 243/59/38
f 250/60/1 245/63/1 244/61/1
f 185/60/39 182/63/39 247/61/39
f 248/34/40 247/47/40 182/35/40
f 248/44/32 417/99/32 249/45/32
f 252/51/6 250/59/6 247/50/6
f 245/47/1 250/35/1 251/36/1
f 252/34/6 254/47/6 251/35/6
f 258/44/11 253/99/11 252/45/11
f 255/60/11 252/63/11 249/61/11
f 255/44/2 245/99/2 260/45/2
f 245/51/2 255/59/2 256/50/2
f 258/48/11 259/51/11 462/59/11
f 261/62/11 262/60/11 259/63/11
f 263/51/41 261/59/41 258/50/41
f 264/47/2 108/35/2 261/36/2
f 265/34/2 266/47/2 264/35/2
f 267/60/42 265/63/42 263/61/42
f 269/47/1 266/35/1 265/36/1
f 271/44/1 269/99/1 267/45/1
f 268/51/42 267/59/42 260/50/42
f 269/44/43 270/99/43 280/45/43
f 270/44/26 269/99/26 271/45/26
f 274/47/26 273/35/26 271/36/26
f 273/19/1 274/26/1 276/65/1
f 275/67/1 278/101/1 270/61/1
f 276/25/44 520/23/44 277/24/44
f 279/19/26 278/26/26 275/20/26
f 278/25/26 279/23/26 281/24/26
f 111/19/22 266/26/22 280/20/22
f 281/21/22 282/37/22 117/38/22
f 282/18/11 281/39/11 283/2/11
f 284/3/23 157/1/23 285/4/23
f 286/21/24 284/37/24 283/38/24
f 118/18/11 282/39/11 285/2/11
f 157/3/24 528/1/24 127/4/24
f 288/40/45 156/43/45 287/41/45
f 288/37/26 286/38/26 289/20/26
f 286/37/46 279/38/46 277/20/46
f 520/19/47 290/26/47 289/20/47
f 290/25/44 293/23/44 291/24/44
f 527/37/26 288/38/26 291/20/26
f 292/16/44 291/6/44 293/7/44
f 293/19/43 290/26/43 358/20/43
f 294/21/48 306/19/48 295/26/48
f 302/3/11 292/1/11 296/4/11
f 297/3/11 295/1/11 306/4/11
f 297/1/11 301/4/11 305/2/11
f 301/1/11 303/4/11 308/2/11
f 301/3/11 304/1/11 352/4/11
f 306/16/2 294/6/2 355/69/2
f 305/1/12 307/4/12 523/2/12
f 308/1/12 310/4/12 307/2/12
f 303/1/11 348/4/11 309/2/11
f 309/1/12 311/4/12 310/2/12
f 311/16/12 314/6/12 312/7/12
f 310/1/12 312/4/12 313/2/12
f 312/1/12 315/4/12 317/2/12
f 314/1/12 318/4/12 315/2/12
f 315/1/12 316/4/12 409/2/12
f 318/1/12 320/4/12 316/2/12
f 340/19/34 319/26/34 318/20/34
f 319/25/34 322/23/34 320/24/34
f 320/1/12 321/4/12 405/2/12
f 322/1/34 323/4/34 321/2/34
f 324/19/2 326/26/2 323/20/2
f 322/19/2 319/26/2 327/20/2
f 327/1/2 328/4/2 325/2/2
f 326/25/2 324/23/2 325/24/2
f 325/30/2 328/57/2 329/33/2
f 331/71/48 519/28/48 330/29/48
f 333/72/11 331/102/11 329/73/11
f 336/52/48 333/100/48 332/53/48
f 338/1/2 335/4/2 334/2/2
f 521/21/11 336/76/11 335/75/11
f 319/25/2 340/23/2 338/24/2
f 341/1/2 338/4/2 340/2/2
f 343/15/2 337/95/2 338/2/2
f 344/15/2 341/95/2 342/2/2
f 346/1/2 343/4/2 341/2/2
f 347/22/48 349/25/48 343/23/48
f 348/1/11 346/4/11 345/2/11
f 303/3/11 350/1/11 347/4/11
f 350/44/48 351/99/48 349/45/48
f 352/16/2 353/6/2 351/69/2
f 353/25/48 352/23/48 304/24/48
f 354/19/43 353/26/43 355/20/43
f 294/16/2 358/6/2 356/69/2
f 359/22/48 354/25/48 356/23/48
f 290/25/43 360/23/43 357/24/43
f 357/1/47 363/4/47 364/2/47
f 363/1/44 361/4/44 360/2/44
f 363/3/11 365/17/11 366/77/11
f 365/1/44 367/4/44 369/2/44
f 365/1/26 274/4/26 272/2/26
f 272/1/49 515/4/49 368/2/49
f 369/14/50 367/9/50 368/10/50
f 369/1/50 370/4/50 375/2/50
f 366/71/44 369/28/44 371/29/44
f 371/71/50 375/28/50 377/29/50
f 373/57/43 371/33/43 374/32/43
f 375/1/50 376/4/50 380/2/50
f 376/14/50 375/9/50 370/10/50
f 377/1/2 380/4/2 382/2/2
f 377/71/2 379/28/2 442/29/2
f 380/1/2 381/4/2 384/2/2
f 381/8/44 380/14/44 376/9/44
f 378/1/2 382/4/2 383/2/2
f 382/16/2 384/6/2 385/7/2
f 384/1/2 386/4/2 388/2/2
f 384/3/2 381/1/2 387/4/2
f 385/1/2 388/4/2 389/2/2
f 389/3/1 390/1/1 393/4/1
f 391/1/34 389/4/34 392/2/34
f 393/1/2 445/4/2 395/2/2
f 396/1/12 392/4/12 394/2/12
f 392/1/51 395/4/51 439/2/51
f 398/1/31 396/4/31 397/2/31
f 398/3/52 399/1/52 391/4/52
f 402/1/34 399/4/34 398/2/34
f 401/1/12 398/4/12 400/2/12
f 323/1/34 402/4/34 401/2/34
f 321/1/12 401/4/12 403/2/12
f 403/1/12 400/4/12 415/2/12
f 405/1/12 403/4/12 404/2/12
f 316/1/12 405/4/12 406/2/12
f 407/3/4 406/1/4 408/4/4
f 409/1/12 406/4/12 410/2/12
f 407/17/6 183/77/6 411/2/6
f 317/1/12 409/4/12 411/2/12
f 408/1/14 413/4/14 416/2/14
f 413/1/6 408/4/6 404/2/6
f 414/1/6 413/4/6 415/2/6
f 413/1/53 414/4/53 418/2/53
f 417/47/6 248/35/6 412/36/6
f 420/17/6 417/77/6 416/2/6
f 414/1/14 435/4/14 419/2/14
f 420/1/54 419/4/54 423/2/54
f 421/21/55 249/19/55 417/26/55
f 257/25/56 249/23/56 421/24/56
f 421/1/13 423/4/13 424/2/13
f 419/1/32 434/4/32 16/2/32
f 423/1/39 425/4/39 26/2/39
f 424/1/9 29/4/9 427/2/9
f 429/3/57 422/1/57 424/4/57
f 426/1/10 427/4/10 433/2/10
f 431/3/28 429/1/28 426/4/28
f 70/3/58 430/18/58 429/39/58
f 430/19/59 257/26/59 422/20/59
f 67/3/2 70/1/2 431/4/2
f 432/22/11 256/25/11 257/23/11
f 246/19/9 256/26/9 432/20/9
f 428/1/10 433/4/10 55/2/10
f 427/1/10 28/4/10 40/2/10
f 433/1/10 40/4/10 42/2/10
f 435/1/14 436/4/14 434/2/14
f 435/1/6 414/4/6 438/2/6
f 397/1/12 394/4/12 437/2/12
f 394/1/51 439/4/51 436/2/51
f 400/1/31 397/4/31 438/2/31
f 434/3/60 436/1/60 8/4/60
f 439/1/33 5/4/33 8/2/33
f 395/1/33 443/4/33 5/2/33
f 441/25/2 440/23/2 402/24/2
f 440/1/2 383/4/2 399/2/2
f 440/19/2 441/26/2 442/20/2
f 399/3/2 383/1/2 385/4/2
f 443/3/2 395/18/2 444/39/2
f 445/14/2 393/9/2 448/10/2
f 447/13/2 446/11/2 448/78/2
f 448/8/1 393/14/1 390/9/1
f 448/13/61 387/11/61 381/78/61
f 450/13/2 451/11/2 449/78/2
f 452/13/11 453/11/11 451/78/11
f 450/11/44 376/78/44 454/12/44
f 455/11/2 453/78/2 452/12/2
f 456/13/11 458/11/11 455/78/11
f 368/11/50 456/78/50 454/12/50
f 515/14/49 457/9/49 456/10/49
f 460/11/11 458/78/11 456/12/11
f 461/79/62 459/103/62 458/80/62
f 459/82/62 453/104/62 455/83/62
f 463/82/62 461/104/62 460/83/62
f 462/60/11 460/63/11 457/61/11
f 465/79/63 463/103/63 462/80/63
f 467/79/6 466/103/6 463/85/6
f 463/82/50 465/104/50 496/83/50
f 461/79/11 463/103/11 466/85/11
f 468/79/11 469/103/11 459/85/11
f 472/79/2 459/103/2 469/85/2
f 470/79/2 471/103/2 473/85/2
f 473/82/49 475/104/49 474/83/49
f 459/82/49 472/104/49 474/83/49
f 474/87/49 475/105/49 447/88/49
f 451/90/49 453/106/49 474/91/49
f 447/11/1 475/78/1 476/12/1
f 475/11/1 473/78/1 478/12/1
f 479/14/64 481/9/64 477/10/64
f 476/13/65 478/11/65 480/78/65
f 479/1/2 3/4/2 6/2/2
f 488/14/63 3/9/63 479/10/63
f 481/1/1 479/4/1 482/2/1
f 443/3/1 483/18/1 482/39/1
f 485/3/2 477/1/2 481/4/2
f 485/1/2 484/4/2 486/2/2
f 19/8/8 489/14/8 488/9/8
f 478/11/65 490/78/65 487/12/65
f 2/3/1 488/1/1 489/4/1
f 490/13/65 491/11/65 20/78/65
f 492/93/1 493/107/1 491/12/1
f 471/93/1 492/107/1 490/12/1
f 464/79/6 491/103/6 493/85/6
f 494/44/66 23/99/66 20/45/66
f 491/82/50 464/104/50 496/83/50
f 498/14/49 497/9/49 495/10/49
f 495/94/1 497/108/1 500/45/1
f 101/1/20 499/4/20 497/2/20
f 500/21/1 497/37/1 499/38/1
f 501/25/66 500/23/66 502/24/66
f 494/48/65 500/51/65 501/59/65
f 504/37/66 506/38/66 503/20/66
f 502/3/1 499/17/1 102/77/1
f 504/3/1 102/1/1 99/4/1
f 505/1/67 508/4/67 506/2/67
f 506/1/8 507/4/8 512/2/8
f 507/34/18 506/47/18 508/35/18
f 509/17/6 508/77/6 49/2/6
f 508/1/6 505/4/6 51/2/6
f 511/3/1 507/15/1 509/95/1
f 511/15/1 510/95/1 44/2/1
f 37/3/1 512/1/1 507/4/1
f 513/19/8 501/26/8 503/20/8
f 35/3/1 513/1/1 512/4/1
f 514/1/1 513/4/1 35/2/1
f 23/62/63 501/60/63 513/63/63
f 106/1/49 498/4/49 496/2/49
f 262/1/62 106/4/62 465/2/62
f 516/51/25 251/59/25 254/50/25
f 516/62/68 272/60/68 268/63/68
f 517/27/2 374/71/2 518/28/2
f 519/70/11 373/16/11 517/6/11
f 364/70/11 366/16/11 373/6/11
f 362/25/47 364/23/47 519/24/47
f 359/54/11 362/109/11 331/98/11
f 520/37/2 276/38/2 274/20/2
f 333/48/47 336/51/47 354/59/47
f 351/47/48 354/35/48 521/36/48
f 337/46/48 343/44/48 349/99/48
f 345/1/34 342/4/34 311/2/34
f 342/1/34 340/4/34 314/2/34
f 313/16/12 317/6/12 180/7/12
f 307/1/12 313/4/12 522/2/12
f 524/1/54 522/4/54 178/2/54
f 524/18/6 298/39/6 299/2/6
f 298/16/69 524/6/69 525/7/69
f 173/60/6 526/63/6 300/61/6
f 527/1/11 292/4/11 526/2/11
f 527/40/45 159/43/45 156/41/45
f 159/1/11 527/4/11 174/2/11
f 264/22/8 266/25/8 111/23/8
f 145/1/6 147/4/6 205/2/6
f 126/43/11 528/41/11 154/42/11
f 53/1/1 88/4/1 82/2/1
