# Blender 5.1.2
# www.blender.org
mtllib room30.mtl
o 01-Caves.030
v -330.043091 38.424652 250.087341
v -330.043091 35.924648 250.087341
v -330.043091 38.424652 260.087341
v -330.043091 35.924648 260.087341
v -320.043091 35.924648 250.087341
v -330.043091 38.424652 250.087341
v -320.043091 38.424652 250.087341
v -330.043091 38.424652 260.087341
v -320.043091 38.424652 260.087341
v -330.043091 35.924648 260.087341
v -320.043091 35.924648 260.087341
v -320.043091 35.924648 270.087341
v -320.043091 38.424652 270.087341
v -320.043091 35.924652 280.087341
v -320.043091 38.424656 280.087341
v -320.043091 35.924652 290.087341
v -320.043091 38.424656 290.087341
v -320.043091 35.924652 300.087341
v -320.043091 38.424656 300.087341
v -320.043091 35.924652 310.087341
v -320.043091 38.424656 310.087341
v -310.043121 35.924652 310.087341
v -310.043121 38.424656 310.087341
v -300.043121 35.924652 310.087341
v -300.043121 38.424656 310.087341
v -290.043121 35.924652 310.087341
v -280.043121 35.924652 310.087341
v -290.043121 38.424656 310.087341
v -290.043121 38.424656 300.087341
v -280.043121 38.424656 310.087341
v -280.043121 38.424656 300.087341
v -280.043121 38.424656 290.087341
v -280.043121 38.424656 280.087341
v -290.043121 38.424656 290.087341
v -290.043121 38.424656 280.087341
v -300.043121 38.424656 290.087341
v -300.043121 38.424656 280.087341
v -310.043121 38.424656 290.087341
v -300.043121 38.424656 300.087341
v -310.043121 38.424656 300.087341
v -310.043121 38.424656 280.087341
v -310.043121 38.424652 270.087341
v -310.043121 38.424652 260.087341
v -300.043121 38.424652 270.087341
v -300.043121 38.424652 260.087341
v -290.043121 38.424652 270.087341
v -300.043121 40.924656 270.087341
v -290.043121 40.924656 270.087341
v -300.043121 40.924656 260.087341
v -300.043121 40.924656 250.087341
v -290.043121 40.924656 260.087341
v -290.043121 43.424656 260.087341
v -290.043121 40.924656 250.087341
v -290.043121 35.924648 250.087341
v -290.043121 43.424656 250.087341
v -280.043121 43.424656 250.087341
v -290.043121 55.924656 250.087341
v -290.043121 55.924656 240.087341
v -280.043121 55.924656 250.087341
v -290.043121 45.924644 250.087341
v -290.043121 45.924644 240.087341
v -290.043121 45.924644 230.087341
v -290.043121 35.924648 240.087341
v -290.043121 35.924648 230.087341
v -300.043121 35.924648 230.087341
v -290.043121 35.924644 220.087341
v -300.043121 35.924644 220.087341
v -290.043121 35.924644 210.087341
v -300.043121 35.924644 210.087341
v -290.043121 35.924644 200.087341
v -280.043121 35.924644 200.087341
v -290.043121 45.924641 200.087341
v -300.043121 35.924644 200.087341
v -290.043121 45.924641 200.087341
v -300.043121 45.924641 200.087341
v -290.043121 55.924652 200.087341
v -290.043121 55.924652 210.087341
v -280.043121 55.924652 200.087341
v -300.043121 55.924652 200.087341
v -300.043121 55.924652 210.087341
v -310.043121 55.924652 200.087341
v -310.043121 45.924641 200.087341
v -320.043091 55.924652 200.087341
v -310.043121 55.924652 210.087341
v -320.043091 55.924652 210.087341
v -310.043121 55.924652 220.087341
v -320.043091 55.924652 220.087341
v -310.043121 55.924656 230.087341
v -300.043121 55.924652 220.087341
v -300.043121 55.924656 230.087341
v -290.043121 55.924652 220.087341
v -290.043121 55.924656 230.087341
v -280.043121 55.924652 220.087341
v -280.043121 55.924652 210.087341
v -280.043121 55.924656 230.087341
v -270.043121 55.924652 220.087341
v -270.043121 55.924652 210.087341
v -270.043121 55.924656 230.087341
v -260.043121 55.924652 220.087341
v -260.043121 55.924652 210.087341
v -260.043121 55.924656 230.087341
v -250.043121 55.924652 220.087341
v -250.043121 55.924656 230.087341
v -240.043121 55.924652 220.087341
v -250.043121 55.924652 210.087341
v -250.043121 55.924652 200.087341
v -240.043121 55.924652 210.087341
v -240.043121 55.924652 200.087341
v -230.043121 55.924652 210.087341
v -230.043121 55.924652 200.087341
v -230.043121 55.924652 220.087341
v -220.043121 55.924652 210.087341
v -220.043121 55.924652 200.087341
v -220.043121 55.924652 220.087341
v -210.043121 55.924652 210.087341
v -210.043121 53.424652 210.087341
v -210.043121 53.424652 220.087341
v -200.043121 50.924652 210.087341
v -210.043121 43.424652 210.087341
v -210.043121 43.424652 200.087341
v -200.043121 43.424652 210.087341
v -200.043121 40.924652 210.087341
v -200.043121 43.424652 200.087341
v -200.043121 40.924652 200.087341
v -200.043121 43.424652 190.087341
v -200.043121 35.924644 190.087341
v -210.043121 43.424652 190.087341
v -200.043121 40.924652 190.087341
v -190.043121 40.924652 190.087341
v -190.043121 35.924644 190.087341
v -190.043121 40.924652 200.087341
v -190.043121 38.424648 190.087341
v -180.043121 38.424648 190.087341
v -190.043121 38.424648 200.087341
v -180.043121 38.424648 200.087341
v -190.043121 38.424648 210.087341
v -180.043121 38.424648 210.087341
v -190.043121 40.924652 210.087341
v -190.043121 50.924652 210.087341
v -190.043121 50.924652 220.087341
v -180.043121 50.924652 210.087341
v -180.043121 50.924652 220.087341
v -180.043121 45.924641 210.087341
v -180.043121 45.924641 220.087341
v -180.043121 35.924644 210.087341
v -180.043121 35.924644 220.087341
v -170.043121 35.924644 220.087341
v -160.043121 35.924644 220.087341
v -170.043121 45.924641 220.087341
v -170.043121 55.924652 220.087341
v -160.043121 45.924641 220.087341
v -160.043121 55.924652 220.087341
v -150.043121 45.924641 220.087341
v -150.043121 55.924652 220.087341
v -150.043121 35.924644 220.087341
v -150.043121 45.924644 230.087341
v -150.043121 55.924656 230.087341
v -150.043121 45.924644 240.087341
v -150.043121 35.924648 230.087341
v -150.043121 35.924648 240.087341
v -150.043121 35.924648 250.087341
v -150.043121 45.924644 250.087341
v -150.043121 35.924648 260.087341
v -160.043121 35.924648 260.087341
v -150.043121 45.924644 260.087341
v -160.043121 45.924644 260.087341
v -150.043121 55.924656 260.087341
v -150.043121 55.924656 250.087341
v -160.043121 55.924656 260.087341
v -170.043121 55.924656 260.087341
v -160.043121 55.924656 250.087341
v -170.043121 55.924656 250.087341
v -160.043121 45.924644 250.087341
v -160.043121 45.924644 240.087341
v -170.043121 45.924644 250.087341
v -170.043121 45.924644 240.087341
v -180.043121 45.924644 250.087341
v -180.043121 45.924644 240.087341
v -180.043121 53.424656 250.087341
v -180.043121 55.924656 250.087341
v -180.043121 55.924656 260.087341
v -180.043121 53.424656 260.087341
v -180.043121 45.924644 260.087341
v -180.043121 35.924648 260.087341
v -190.043121 45.924644 260.087341
v -170.043121 45.924644 260.087341
v -170.043121 35.924648 260.087341
v -190.043121 35.924648 260.087341
v -190.043121 53.424656 260.087341
v -190.043121 45.924644 270.087341
v -190.043121 45.924648 280.087341
v -190.043121 55.924656 270.087341
v -190.043121 53.424656 270.087341
v -190.043121 35.924648 270.087341
v -190.043121 35.924652 280.087341
v -190.043121 35.924652 290.087341
v -190.043121 45.924648 290.087341
v -190.043121 35.924652 300.087341
v -190.043121 45.924648 300.087341
v -200.043121 45.924648 300.087341
v -190.043121 35.924652 300.087341
v -200.043121 35.924652 300.087341
v -200.043121 35.924652 310.087341
v -210.043121 35.924652 310.087341
v -200.043121 45.924648 310.087341
v -210.043121 45.924648 310.087341
v -210.043121 35.924652 310.087341
v -210.043121 45.924648 300.087341
v -220.043121 45.924648 310.087341
v -220.043121 55.924660 310.087341
v -220.043121 45.924648 320.087341
v -220.043121 35.924652 310.087341
v -220.043121 45.924648 300.087341
v -220.043121 55.924660 300.087341
v -230.043121 55.924660 300.087341
v -220.043121 55.924660 290.087341
v -210.043121 55.924660 300.087341
v -200.043121 55.924660 300.087341
v -210.043121 55.924660 290.087341
v -210.043121 55.924660 280.087341
v -200.043121 55.924660 290.087341
v -190.043121 55.924660 290.087341
v -200.043121 45.924648 290.087341
v -200.043121 55.924660 280.087341
v -200.043121 55.924656 270.087341
v -190.043121 55.924660 280.087341
v -210.043121 55.924656 270.087341
v -200.043121 53.424656 270.087341
v -200.043121 53.424656 260.087341
v -210.043121 55.924656 260.087341
v -200.043121 55.924656 260.087341
v -200.043121 55.924656 250.087341
v -190.043121 55.924656 260.087341
v -190.043121 55.924656 250.087341
v -190.043121 55.924656 240.087341
v -190.043121 53.424656 250.087341
v -190.043121 53.424656 240.087341
v -180.043121 53.424656 240.087341
v -190.043121 55.924656 230.087341
v -200.043121 55.924656 230.087341
v -180.043121 55.924656 230.087341
v -190.043121 55.924652 220.087341
v -200.043121 55.924652 220.087341
v -180.043121 55.924652 220.087341
v -210.043121 55.924652 220.087341
v -200.043121 50.924652 220.087341
v -210.043121 55.924656 230.087341
v -220.043121 55.924656 230.087341
v -210.043121 55.924656 240.087341
v -220.043121 55.924656 240.087341
v -210.043121 55.924656 250.087341
v -200.043121 55.924656 240.087341
v -220.043121 55.924656 250.087341
v -220.043121 55.924656 260.087341
v -230.043121 55.924656 250.087341
v -230.043121 55.924656 240.087341
v -240.043121 55.924656 250.087341
v -230.043121 55.924656 260.087341
v -240.043121 55.924656 260.087341
v -230.043121 55.924656 270.087341
v -240.043121 55.924656 270.087341
v -230.043121 55.924660 280.087341
v -220.043121 55.924656 270.087341
v -220.043121 55.924660 280.087341
v -240.043121 55.924660 280.087341
v -230.043121 55.924660 290.087341
v -240.043121 55.924660 290.087341
v -250.043121 55.924660 290.087341
v -240.043121 55.924660 300.087341
v -250.043121 55.924660 300.087341
v -240.043121 55.924660 310.087341
v -250.043121 55.924660 310.087341
v -240.043121 55.924660 320.087341
v -230.043121 55.924660 310.087341
v -230.043121 55.924660 320.087341
v -220.043121 55.924660 320.087341
v -230.043121 45.924648 320.087341
v -230.043121 35.924652 320.087341
v -240.043121 45.924648 320.087341
v -240.043121 38.424656 320.087341
v -240.043121 35.924652 320.087341
v -250.043121 45.924648 320.087341
v -250.043121 55.924660 320.087341
v -250.043121 35.924652 320.087341
v -260.043121 45.924648 320.087341
v -250.043121 38.424656 320.087341
v -250.043121 38.424656 310.087341
v -240.043121 38.424656 310.087341
v -250.043121 35.924652 310.087341
v -240.043121 35.924652 310.087341
v -260.043121 55.924660 320.087341
v -260.043121 35.924652 320.087341
v -270.043121 45.924648 320.087341
v -270.043121 45.924648 310.087341
v -270.043121 55.924660 320.087341
v -270.043121 38.424656 320.087341
v -270.043121 35.924652 320.087341
v -270.043121 35.924652 310.087341
v -270.043121 38.424656 310.087341
v -270.043121 35.924652 300.087341
v -270.043121 35.924652 290.087341
v -270.043121 38.424656 300.087341
v -270.043121 38.424656 290.087341
v -270.043121 45.924648 300.087341
v -270.043121 55.924660 300.087341
v -270.043121 45.924648 290.087341
v -270.043121 45.924648 280.087341
v -270.043121 55.924660 290.087341
v -260.043121 55.924660 290.087341
v -270.043121 55.924660 280.087341
v -270.043121 55.924656 270.087341
v -260.043121 55.924660 280.087341
v -250.043121 55.924660 280.087341
v -260.043121 55.924656 270.087341
v -260.043121 48.424656 270.087341
v -250.043121 55.924656 270.087341
v -260.043121 50.924656 270.087341
v -250.043121 50.924656 270.087341
v -260.043121 50.924656 260.087341
v -260.043121 50.924656 250.087341
v -250.043121 50.924656 260.087341
v -260.043121 48.424656 260.087341
v -270.043121 48.424656 260.087341
v -260.043121 48.424656 250.087341
v -260.043121 55.924656 250.087341
v -270.043121 48.424656 250.087341
v -270.043121 55.924656 250.087341
v -270.043121 45.924644 250.087341
v -280.043121 45.924644 250.087341
v -270.043121 45.924644 260.087341
v -280.043121 45.924644 260.087341
v -270.043121 45.924644 270.087341
v -280.043121 45.924644 270.087341
v -270.043121 38.424652 270.087341
v -270.043121 48.424656 270.087341
v -270.043121 35.924648 270.087341
v -280.043121 38.424652 270.087341
v -270.043121 38.424656 280.087341
v -270.043121 35.924652 280.087341
v -280.043121 35.924648 270.087341
v -280.043121 38.424656 280.087341
v -280.043121 38.424656 290.087341
v -280.043121 35.924652 280.087341
v -280.043121 35.924652 290.087341
v -280.043121 35.924652 300.087341
v -280.043121 38.424656 300.087341
v -280.043121 35.924652 310.087341
v -280.043121 38.424656 310.087341
v -280.043121 43.424656 270.087341
v -290.043121 43.424656 270.087341
v -280.043121 38.424652 270.087341
v -280.043121 43.424656 260.087341
v -270.043121 55.924656 240.087341
v -260.043121 55.924656 240.087341
v -280.043121 55.924656 240.087341
v -250.043121 55.924656 240.087341
v -250.043121 55.924656 250.087341
v -240.043121 55.924656 240.087341
v -240.043121 55.924656 230.087341
v -230.043121 55.924656 230.087341
v -250.043121 50.924656 250.087341
v -250.043121 53.424656 250.087341
v -240.043121 53.424656 250.087341
v -250.043121 53.424656 260.087341
v -240.043121 53.424656 260.087341
v -250.043121 53.424656 270.087341
v -240.043121 53.424656 270.087341
v -260.043121 55.924660 300.087341
v -260.043121 55.924660 310.087341
v -270.043121 55.924660 310.087341
v -220.043121 35.924652 320.087341
v -170.043121 55.924656 230.087341
v -180.043121 55.924656 240.087341
v -170.043121 55.924656 240.087341
v -160.043121 55.924656 240.087341
v -160.043121 55.924656 230.087341
v -150.043121 55.924656 240.087341
v -180.043121 35.924644 210.087341
v -180.043121 35.924644 200.087341
v -180.043121 35.924644 190.087341
v -180.043121 35.924644 190.087341
v -210.043121 35.924644 190.087341
v -210.043121 55.924652 190.087341
v -220.043121 55.924652 190.087341
v -210.043121 45.924641 190.087341
v -210.043121 55.924652 200.087341
v -220.043121 45.924641 190.087341
v -220.043121 35.924644 190.087341
v -230.043121 45.924641 190.087341
v -240.043121 45.924641 190.087341
v -230.043121 55.924652 190.087341
v -230.043121 35.924644 190.087341
v -240.043121 35.924644 190.087341
v -250.043121 35.924644 190.087341
v -260.043121 35.924644 190.087341
v -250.043121 45.924641 190.087341
v -260.043121 45.924641 190.087341
v -250.043121 55.924652 190.087341
v -260.043121 55.924652 190.087341
v -240.043121 55.924652 190.087341
v -260.043121 55.924652 200.087341
v -270.043121 55.924652 190.087341
v -270.043121 45.924641 190.087341
v -280.043121 55.924652 190.087341
v -270.043121 55.924652 200.087341
v -280.043121 45.924641 190.087341
v -280.043121 45.924641 190.087341
v -280.043121 45.924641 200.087341
v -280.043121 35.924644 190.087341
v -270.043121 35.924644 190.087341
v -300.043121 45.924644 230.087341
v -310.043121 45.924644 230.087341
v -320.043091 45.924644 230.087341
v -310.043121 35.924648 230.087341
v -310.043121 35.924644 220.087341
v -320.043091 35.924648 230.087341
v -320.043091 45.924644 230.087341
v -320.043091 35.924644 220.087341
v -320.043091 35.924644 210.087341
v -320.043091 45.924641 220.087341
v -320.043091 45.924641 210.087341
v -320.043091 45.924641 200.087341
v -320.043091 35.924644 200.087341
v -310.043121 35.924644 200.087341
v -310.043121 35.924644 210.087341
v -320.043091 55.924656 230.087341
v -300.043121 35.924648 250.087341
v -310.043121 35.924648 250.087341
v -300.043121 38.424652 250.087341
v -310.043121 38.424652 250.087341
vn 1.0000 -0.0000 -0.0000
vn -0.0000 -0.0000 1.0000
vn -0.0000 -1.0000 -0.0000
vn -0.0000 -0.0000 -1.0000
vn -0.0000 1.0000 -0.0000
vn -0.2425 -0.9701 -0.0000
vn -1.0000 -0.0000 -0.0000
vn -0.0000 -0.9701 -0.2425
vt 0.501961 0.878431
vt 0.621569 0.903921
vt 0.501961 0.903921
vt 0.252941 0.252941
vt 0.372549 0.278432
vt 0.252941 0.278432
vt 0.752941 0.878431
vt 0.872549 0.998039
vt 0.752941 0.998039
vt 0.501961 0.972549
vt 0.621569 0.998039
vt 0.501961 0.998039
vt 0.627451 0.941177
vt 0.747059 0.998039
vt 0.627451 0.998039
vt 0.878431 0.752941
vt 0.998039 0.872549
vt 0.878431 0.872549
vt 0.378431 0.501961
vt 0.498039 0.621569
vt 0.378431 0.621569
vt 0.627451 0.878431
vt 0.621569 0.966667
vt 0.501961 0.966667
vt 0.621569 0.935294
vt 0.501961 0.935294
vt 0.501961 0.941177
vt 0.001961 0.001961
vt 0.121569 0.121569
vt 0.001961 0.121569
vt 0.127451 0.001961
vt 0.247059 0.121569
vt 0.127451 0.121569
vt 0.621569 0.878431
vt 0.372549 0.252941
vt 0.872549 0.878431
vt 0.621569 0.972549
vt 0.747059 0.941177
vt 0.998039 0.752941
vt 0.498039 0.501961
vt 0.747059 0.878431
vt 0.621569 0.941177
vt 0.121569 0.001961
vt 0.247059 0.001961
s 0
usemtl Material.001
f 1/1/1 4/2/1 2/3/1
f 7/4/2 2/5/2 5/6/2
f 9/7/3 6/8/3 7/9/3
f 8/4/4 11/5/4 10/6/4
f 9/4/1 12/5/1 11/6/1
f 13/4/1 14/5/1 12/6/1
f 15/4/1 16/5/1 14/6/1
f 17/4/1 18/5/1 16/6/1
f 19/4/1 20/5/1 18/6/1
f 21/4/4 22/5/4 20/6/4
f 23/4/4 24/5/4 22/6/4
f 25/4/4 26/5/4 24/6/4
f 28/4/4 27/5/4 26/6/4
f 28/7/3 39/8/3 29/9/3
f 30/7/3 29/8/3 31/9/3
f 31/7/3 34/8/3 32/9/3
f 32/7/3 35/8/3 33/9/3
f 34/7/3 37/8/3 35/9/3
f 29/7/3 36/8/3 34/9/3
f 36/7/3 41/8/3 37/9/3
f 39/7/3 38/8/3 36/9/3
f 25/7/3 40/8/3 39/9/3
f 23/7/3 19/8/3 40/9/3
f 40/7/3 17/8/3 38/9/3
f 38/7/3 15/8/3 41/9/3
f 37/7/3 42/8/3 44/9/3
f 41/7/3 13/8/3 42/9/3
f 44/7/3 43/8/3 45/9/3
f 42/7/3 9/8/3 43/9/3
f 49/4/1 44/5/1 45/6/1
f 35/7/3 44/8/3 46/9/3
f 47/10/4 46/11/4 44/12/4
f 48/7/3 49/8/3 51/9/3
f 50/4/1 45/5/1 429/6/1
f 51/7/3 50/8/3 53/9/3
f 52/4/1 48/5/1 51/6/1
f 55/4/1 51/5/1 53/6/1
f 53/13/2 427/14/2 54/15/2
f 57/1/4 56/11/4 55/12/4
f 352/7/3 55/8/3 56/9/3
f 58/16/1 60/17/1 61/18/1
f 59/19/3 58/20/3 355/21/3
f 61/1/1 54/11/1 63/12/1
f 62/1/1 63/11/1 64/12/1
f 92/16/1 61/17/1 62/18/1
f 411/1/4 64/11/4 65/12/4
f 66/22/5 65/14/5 64/15/5
f 68/22/5 67/14/5 66/15/5
f 70/22/5 69/14/5 68/15/5
f 408/1/2 70/11/2 71/12/2
f 74/1/2 73/11/2 70/12/2
f 76/16/2 75/17/2 74/18/2
f 94/19/3 76/20/3 78/21/3
f 77/19/3 79/20/3 76/21/3
f 78/16/2 72/17/2 408/18/2
f 79/16/2 82/17/2 75/18/2
f 80/19/3 81/20/3 79/21/3
f 81/16/2 422/17/2 82/18/2
f 84/19/3 83/20/3 81/21/3
f 86/19/3 85/20/3 84/21/3
f 89/19/3 84/20/3 80/21/3
f 88/19/3 87/20/3 86/21/3
f 90/19/3 86/20/3 89/21/3
f 92/19/3 89/20/3 91/21/3
f 91/19/3 80/20/3 77/21/3
f 95/19/3 91/20/3 93/21/3
f 93/19/3 77/20/3 94/21/3
f 96/19/3 94/20/3 97/21/3
f 98/19/3 93/20/3 96/21/3
f 99/19/3 97/20/3 100/21/3
f 101/19/3 96/20/3 99/21/3
f 102/19/3 100/20/3 105/21/3
f 103/19/3 99/20/3 102/21/3
f 359/19/3 102/20/3 104/21/3
f 104/19/3 105/20/3 107/21/3
f 107/19/3 106/20/3 108/21/3
f 105/19/3 401/20/3 106/21/3
f 109/19/3 108/20/3 110/21/3
f 111/19/3 107/20/3 109/21/3
f 112/19/3 110/20/3 113/21/3
f 114/19/3 109/20/3 112/21/3
f 115/19/3 113/20/3 386/21/3
f 117/1/6 112/11/6 116/12/6
f 112/3/4 115/1/4 116/2/4
f 246/1/6 116/11/6 118/12/6
f 118/7/2 119/8/2 121/9/2
f 115/7/7 120/8/7 119/9/7
f 121/7/3 120/8/3 123/9/3
f 121/4/7 124/5/7 122/6/7
f 123/7/3 127/8/3 125/9/3
f 123/4/7 128/5/7 124/6/7
f 125/1/2 382/23/2 126/24/2
f 131/7/3 128/8/3 129/9/3
f 129/1/2 126/25/2 130/26/2
f 131/4/7 132/5/7 134/6/7
f 133/1/2 130/2/2 381/3/2
f 135/7/3 132/8/3 133/9/3
f 137/7/3 134/8/3 135/9/3
f 138/4/7 134/5/7 136/6/7
f 141/7/2 136/8/2 137/9/2
f 139/7/2 122/8/2 138/9/2
f 140/1/3 118/11/3 139/12/3
f 142/1/3 139/11/3 141/12/3
f 142/1/7 143/25/7 144/26/7
f 144/1/7 145/11/7 146/12/7
f 149/1/2 146/11/2 147/12/2
f 151/1/2 147/11/2 148/12/2
f 150/1/2 144/11/2 149/12/2
f 152/1/2 149/11/2 151/12/2
f 154/1/2 151/11/2 153/12/2
f 153/1/2 148/11/2 155/12/2
f 157/1/7 153/11/7 156/12/7
f 156/1/7 155/11/7 159/12/7
f 377/1/7 156/11/7 158/12/7
f 158/1/7 159/11/7 160/12/7
f 162/1/7 160/11/7 161/12/7
f 165/1/7 161/11/7 163/12/7
f 166/1/4 163/11/4 164/12/4
f 169/1/4 165/11/4 166/12/4
f 167/1/7 162/11/7 165/12/7
f 167/19/3 171/20/3 168/21/3
f 170/1/4 166/11/4 186/12/4
f 169/19/3 172/20/3 171/21/3
f 171/1/2 175/11/2 173/12/2
f 168/1/2 173/11/2 162/12/2
f 162/22/3 174/14/3 158/15/3
f 173/22/3 176/14/3 174/15/3
f 172/1/2 177/11/2 175/12/2
f 175/22/3 178/14/3 176/15/3
f 179/1/7 178/11/7 177/12/7
f 170/19/3 180/20/3 172/21/3
f 180/10/1 182/11/1 179/12/1
f 181/1/4 186/11/4 183/12/4
f 189/1/4 183/11/4 185/12/4
f 183/1/4 187/11/4 184/12/4
f 185/1/4 184/11/4 188/12/4
f 186/1/4 164/11/4 187/12/4
f 190/1/7 188/11/7 194/12/7
f 193/1/7 185/11/7 190/12/7
f 191/1/7 194/11/7 195/12/7
f 226/1/7 190/11/7 191/12/7
f 197/1/7 195/11/7 196/12/7
f 199/1/7 196/11/7 198/12/7
f 199/22/3 223/14/3 197/15/3
f 200/1/4 201/11/4 202/12/4
f 205/1/7 202/11/7 203/12/7
f 206/1/4 203/11/4 204/12/4
f 205/22/3 208/14/3 200/15/3
f 209/1/4 207/11/4 212/12/4
f 206/22/3 213/14/3 208/15/3
f 276/1/7 209/11/7 211/12/7
f 210/1/7 213/11/7 209/12/7
f 211/1/7 212/11/7 371/12/7
f 214/1/4 208/11/4 213/12/4
f 210/19/3 215/20/3 214/21/3
f 214/19/3 266/20/3 216/21/3
f 217/19/3 216/20/3 219/21/3
f 217/1/4 200/11/4 208/12/4
f 218/19/3 219/20/3 221/21/3
f 221/19/3 220/20/3 224/21/3
f 219/19/3 264/20/3 220/21/3
f 218/1/7 223/11/7 200/12/7
f 221/1/4 197/11/4 223/12/4
f 222/19/3 224/20/3 226/21/3
f 226/19/3 225/20/3 192/21/3
f 224/19/3 227/20/3 225/21/3
f 222/1/7 191/11/7 197/12/7
f 228/12/2 225/10/2 227/11/2
f 192/10/2 228/11/2 193/12/2
f 193/1/3 229/11/3 189/12/3
f 228/1/6 230/11/6 229/12/6
f 230/3/4 231/1/4 229/2/4
f 231/1/4 189/2/4 229/3/4
f 231/19/3 251/20/3 232/21/3
f 233/19/3 232/20/3 234/21/3
f 233/10/7 236/11/7 189/12/7
f 234/10/7 237/11/7 236/12/7
f 234/19/3 252/20/3 235/21/3
f 179/1/3 237/11/3 238/12/3
f 182/1/3 236/11/3 179/12/3
f 238/1/8 239/11/8 241/12/8
f 237/12/7 235/10/7 239/11/7
f 235/19/3 240/20/3 239/21/3
f 239/19/3 243/20/3 242/21/3
f 241/19/3 242/20/3 244/21/3
f 244/27/2 140/11/2 142/12/2
f 242/27/2 246/11/2 140/12/2
f 372/19/3 244/20/3 150/21/3
f 243/27/2 117/11/2 246/12/2
f 240/19/3 245/20/3 243/21/3
f 247/19/3 114/20/3 245/21/3
f 117/12/2 245/27/2 114/11/2
f 249/19/3 248/20/3 247/21/3
f 252/19/3 247/20/3 240/21/3
f 251/19/3 250/20/3 249/21/3
f 232/19/3 249/20/3 252/21/3
f 230/19/3 253/20/3 251/21/3
f 253/19/3 256/20/3 250/21/3
f 254/19/3 255/20/3 253/21/3
f 255/19/3 358/20/3 256/21/3
f 258/19/3 257/20/3 255/21/3
f 260/19/3 259/20/3 258/21/3
f 263/19/3 258/20/3 254/21/3
f 262/19/3 261/20/3 260/21/3
f 264/19/3 260/20/3 263/21/3
f 220/19/3 263/20/3 227/21/3
f 227/19/3 254/20/3 230/21/3
f 216/19/3 262/20/3 264/21/3
f 266/19/3 265/20/3 262/21/3
f 215/19/3 267/20/3 266/21/3
f 269/19/3 268/20/3 267/21/3
f 267/19/3 313/20/3 265/21/3
f 271/19/3 270/20/3 269/21/3
f 274/19/3 269/20/3 215/21/3
f 273/19/3 272/20/3 271/21/3
f 275/19/3 271/20/3 274/21/3
f 276/19/3 274/20/3 210/21/3
f 273/1/4 277/11/4 279/12/4
f 275/1/4 211/11/4 277/12/4
f 277/1/4 371/11/4 278/12/4
f 279/1/4 278/11/4 281/12/4
f 283/1/4 279/11/4 282/12/4
f 282/1/4 280/11/4 286/12/4
f 291/1/4 282/11/4 285/12/4
f 285/1/4 284/11/4 292/12/4
f 286/10/7 289/11/7 284/12/7
f 288/22/5 286/14/5 280/15/5
f 287/10/4 290/11/4 289/12/4
f 288/10/1 281/11/1 290/12/1
f 295/1/4 285/11/4 293/12/4
f 293/1/4 292/11/4 297/12/4
f 294/1/1 296/11/1 299/12/1
f 370/1/1 293/11/1 294/12/1
f 299/4/1 297/5/1 298/6/1
f 302/4/1 298/5/1 300/6/1
f 303/4/1 300/5/1 301/6/1
f 306/1/1 302/11/1 303/12/1
f 304/1/1 299/11/1 302/12/1
f 305/1/1 294/11/1 304/12/1
f 308/1/1 304/11/1 306/12/1
f 307/1/1 303/11/1 338/12/1
f 310/1/1 306/11/1 307/12/1
f 368/19/3 308/20/3 309/21/3
f 309/19/3 310/20/3 312/21/3
f 311/1/1 307/11/1 332/12/1
f 312/19/3 311/20/3 314/21/3
f 268/19/3 312/20/3 313/21/3
f 313/19/3 314/20/3 316/21/3
f 314/1/2 335/23/2 315/24/2
f 316/1/2 317/25/2 318/26/2
f 318/7/3 319/8/3 321/9/3
f 319/4/1 315/5/1 322/6/1
f 320/4/1 322/5/1 324/6/1
f 321/7/3 320/8/3 361/9/3
f 315/7/3 323/8/3 322/9/3
f 322/7/3 326/8/3 324/9/3
f 327/1/4 324/23/4 326/24/4
f 326/4/1 330/5/1 328/6/1
f 59/1/4 328/11/4 329/12/4
f 330/7/3 329/8/3 328/9/3
f 332/7/3 331/8/3 330/9/3
f 323/4/1 332/5/1 330/6/1
f 333/1/4 334/23/4 337/24/4
f 332/1/1 338/11/1 334/12/1
f 334/4/1 339/5/1 336/6/1
f 337/4/4 336/5/4 340/6/4
f 338/4/1 301/5/1 339/6/1
f 341/4/7 340/5/7 343/6/7
f 342/4/7 343/5/7 344/6/7
f 346/4/7 344/5/7 345/6/7
f 348/4/7 345/5/7 347/6/7
f 331/4/1 349/5/1 352/6/1
f 350/1/4 351/25/4 46/26/4
f 349/7/3 52/8/3 352/9/3
f 329/4/1 352/5/1 56/6/1
f 33/7/3 46/8/3 351/9/3
f 325/19/3 353/20/3 354/21/3
f 327/19/3 355/20/3 353/21/3
f 354/19/3 98/20/3 101/21/3
f 353/19/3 95/20/3 98/21/3
f 355/19/3 92/20/3 95/21/3
f 356/19/3 101/20/3 103/21/3
f 357/19/3 354/20/3 356/21/3
f 358/19/3 103/20/3 359/21/3
f 257/19/3 356/20/3 358/21/3
f 256/19/3 359/20/3 360/21/3
f 360/19/3 104/20/3 111/21/3
f 248/19/3 111/20/3 114/21/3
f 250/19/3 360/20/3 248/21/3
f 325/1/4 361/25/4 320/26/4
f 357/1/4 363/2/4 362/3/4
f 365/7/3 362/8/3 363/9/3
f 362/4/1 321/5/1 361/6/1
f 367/7/3 364/8/3 365/9/3
f 364/4/1 318/5/1 321/6/1
f 261/1/2 366/2/2 367/3/2
f 259/4/1 367/5/1 365/6/1
f 257/4/1 365/5/1 363/6/1
f 265/19/3 316/20/3 261/21/3
f 270/19/3 309/20/3 268/21/3
f 369/19/3 305/20/3 368/21/3
f 272/19/3 368/20/3 270/21/3
f 291/19/3 370/20/3 369/21/3
f 283/19/3 369/20/3 272/21/3
f 374/19/3 241/20/3 372/21/3
f 241/12/1 373/10/1 238/11/1
f 373/1/4 176/11/4 178/12/4
f 374/1/4 174/11/4 176/12/4
f 375/19/3 372/20/3 376/21/3
f 377/19/3 376/20/3 157/21/3
f 375/1/4 158/11/4 174/12/4
f 157/19/3 152/20/3 154/21/3
f 376/19/3 150/20/3 152/21/3
f 138/7/3 124/8/3 131/9/3
f 137/4/7 379/5/7 378/6/7
f 135/4/7 380/5/7 379/6/7
f 386/7/7 127/8/7 120/9/7
f 383/1/2 387/11/2 385/12/2
f 386/19/3 384/20/3 383/21/3
f 385/28/2 388/29/2 382/30/2
f 384/28/2 389/29/2 387/30/2
f 387/31/2 392/32/2 388/33/2
f 389/28/2 393/29/2 392/30/2
f 391/31/2 390/32/2 389/33/2
f 390/31/2 394/32/2 393/33/2
f 396/1/2 395/11/2 394/12/2
f 398/1/2 397/11/2 396/12/2
f 400/1/2 396/11/2 390/12/2
f 106/19/3 399/20/3 398/21/3
f 108/19/3 398/20/3 400/21/3
f 110/19/3 400/20/3 391/21/3
f 401/19/3 402/20/3 399/21/3
f 399/1/2 403/11/2 397/12/2
f 402/1/2 406/11/2 403/12/2
f 405/19/3 404/20/3 402/21/3
f 97/19/3 78/20/3 405/21/3
f 100/19/3 405/20/3 401/21/3
f 404/16/1 408/17/1 407/18/1
f 407/1/1 71/11/1 409/12/1
f 403/1/2 409/11/2 410/12/2
f 397/1/2 410/11/2 395/12/2
f 113/19/3 391/20/3 384/21/3
f 90/16/4 62/17/4 411/18/4
f 88/16/4 411/17/4 412/18/4
f 412/1/4 65/11/4 414/12/4
f 413/1/4 414/11/4 416/12/4
f 426/16/4 412/17/4 413/18/4
f 67/22/5 414/14/5 65/15/5
f 415/22/5 416/14/5 414/15/5
f 420/1/1 416/11/1 418/12/1
f 425/22/5 418/14/5 415/15/5
f 421/1/1 418/11/1 419/12/1
f 85/16/1 420/17/1 421/18/1
f 87/16/1 417/17/1 420/18/1
f 422/1/1 419/11/1 423/12/1
f 83/16/1 421/17/1 422/18/1
f 82/1/2 423/11/2 424/12/2
f 424/22/5 419/14/5 425/15/5
f 75/1/2 424/11/2 73/12/2
f 73/22/5 425/14/5 69/15/5
f 69/22/5 415/14/5 67/15/5
f 429/4/2 428/5/2 427/6/2
f 45/7/3 430/8/3 429/9/3
f 430/4/2 5/5/2 428/6/2
f 43/7/3 7/8/3 430/9/3
f 1/1/1 3/34/1 4/2/1
f 7/4/2 6/35/2 2/5/2
f 9/7/3 8/36/3 6/8/3
f 8/4/4 9/35/4 11/5/4
f 9/4/1 13/35/1 12/5/1
f 13/4/1 15/35/1 14/5/1
f 15/4/1 17/35/1 16/5/1
f 17/4/1 19/35/1 18/5/1
f 19/4/1 21/35/1 20/5/1
f 21/4/4 23/35/4 22/5/4
f 23/4/4 25/35/4 24/5/4
f 25/4/4 28/35/4 26/5/4
f 28/4/4 30/35/4 27/5/4
f 28/7/3 25/36/3 39/8/3
f 30/7/3 28/36/3 29/8/3
f 31/7/3 29/36/3 34/8/3
f 32/7/3 34/36/3 35/8/3
f 34/7/3 36/36/3 37/8/3
f 29/7/3 39/36/3 36/8/3
f 36/7/3 38/36/3 41/8/3
f 39/7/3 40/36/3 38/8/3
f 25/7/3 23/36/3 40/8/3
f 23/7/3 21/36/3 19/8/3
f 40/7/3 19/36/3 17/8/3
f 38/7/3 17/36/3 15/8/3
f 37/7/3 41/36/3 42/8/3
f 41/7/3 15/36/3 13/8/3
f 44/7/3 42/36/3 43/8/3
f 42/7/3 13/36/3 9/8/3
f 49/4/1 47/35/1 44/5/1
f 35/7/3 37/36/3 44/8/3
f 47/10/4 48/37/4 46/11/4
f 48/7/3 47/36/3 49/8/3
f 50/4/1 49/35/1 45/5/1
f 51/7/3 49/36/3 50/8/3
f 52/4/1 350/35/1 48/5/1
f 55/4/1 52/35/1 51/5/1
f 53/13/2 50/38/2 427/14/2
f 57/1/4 59/34/4 56/11/4
f 352/7/3 52/36/3 55/8/3
f 58/16/1 57/39/1 60/17/1
f 59/19/3 57/40/3 58/20/3
f 61/1/1 60/34/1 54/11/1
f 62/1/1 61/34/1 63/11/1
f 92/16/1 58/39/1 61/17/1
f 411/1/4 62/34/4 64/11/4
f 66/22/5 67/41/5 65/14/5
f 68/22/5 69/41/5 67/14/5
f 70/22/5 73/41/5 69/14/5
f 408/1/2 72/34/2 70/11/2
f 74/1/2 75/34/2 73/11/2
f 76/16/2 79/39/2 75/17/2
f 94/19/3 77/40/3 76/20/3
f 77/19/3 80/40/3 79/20/3
f 78/16/2 76/39/2 72/17/2
f 79/16/2 81/39/2 82/17/2
f 80/19/3 84/40/3 81/20/3
f 81/16/2 83/39/2 422/17/2
f 84/19/3 85/40/3 83/20/3
f 86/19/3 87/40/3 85/20/3
f 89/19/3 86/40/3 84/20/3
f 88/19/3 426/40/3 87/20/3
f 90/19/3 88/40/3 86/20/3
f 92/19/3 90/40/3 89/20/3
f 91/19/3 89/40/3 80/20/3
f 95/19/3 92/40/3 91/20/3
f 93/19/3 91/40/3 77/20/3
f 96/19/3 93/40/3 94/20/3
f 98/19/3 95/40/3 93/20/3
f 99/19/3 96/40/3 97/20/3
f 101/19/3 98/40/3 96/20/3
f 102/19/3 99/40/3 100/20/3
f 103/19/3 101/40/3 99/20/3
f 359/19/3 103/40/3 102/20/3
f 104/19/3 102/40/3 105/20/3
f 107/19/3 105/40/3 106/20/3
f 105/19/3 100/40/3 401/20/3
f 109/19/3 107/40/3 108/20/3
f 111/19/3 104/40/3 107/20/3
f 112/19/3 109/40/3 110/20/3
f 114/19/3 111/40/3 109/20/3
f 115/19/3 112/40/3 113/20/3
f 117/1/6 114/34/6 112/11/6
f 246/1/6 117/34/6 116/11/6
f 118/7/2 116/36/2 119/8/2
f 115/7/7 386/36/7 120/8/7
f 121/7/3 119/36/3 120/8/3
f 121/4/7 123/35/7 124/5/7
f 123/7/3 120/36/3 127/8/3
f 123/4/7 125/35/7 128/5/7
f 125/1/2 127/34/2 382/23/2
f 131/7/3 124/36/3 128/8/3
f 129/1/2 128/34/2 126/25/2
f 131/4/7 129/35/7 132/5/7
f 133/1/2 132/34/2 130/2/2
f 135/7/3 134/36/3 132/8/3
f 137/7/3 136/36/3 134/8/3
f 138/4/7 131/35/7 134/5/7
f 141/7/2 139/36/2 136/8/2
f 139/7/2 118/36/2 122/8/2
f 140/1/3 246/34/3 118/11/3
f 142/1/3 140/34/3 139/11/3
f 142/1/7 141/34/7 143/25/7
f 144/1/7 143/34/7 145/11/7
f 149/1/2 144/34/2 146/11/2
f 151/1/2 149/34/2 147/11/2
f 150/1/2 244/34/2 144/11/2
f 152/1/2 150/34/2 149/11/2
f 154/1/2 152/34/2 151/11/2
f 153/1/2 151/34/2 148/11/2
f 157/1/7 154/34/7 153/11/7
f 156/1/7 153/34/7 155/11/7
f 377/1/7 157/34/7 156/11/7
f 158/1/7 156/34/7 159/11/7
f 162/1/7 158/34/7 160/11/7
f 165/1/7 162/34/7 161/11/7
f 166/1/4 165/34/4 163/11/4
f 169/1/4 167/34/4 165/11/4
f 167/1/7 168/34/7 162/11/7
f 167/19/3 169/40/3 171/20/3
f 170/1/4 169/34/4 166/11/4
f 169/19/3 170/40/3 172/20/3
f 171/1/2 172/34/2 175/11/2
f 168/1/2 171/34/2 173/11/2
f 162/22/3 173/41/3 174/14/3
f 173/22/3 175/41/3 176/14/3
f 172/1/2 180/34/2 177/11/2
f 175/22/3 177/41/3 178/14/3
f 179/1/7 238/34/7 178/11/7
f 170/19/3 181/40/3 180/20/3
f 180/10/1 181/37/1 182/11/1
f 181/1/4 170/34/4 186/11/4
f 189/1/4 182/34/4 183/11/4
f 183/1/4 186/34/4 187/11/4
f 185/1/4 183/34/4 184/11/4
f 186/1/4 166/34/4 164/11/4
f 190/1/7 185/34/7 188/11/7
f 193/1/7 189/34/7 185/11/7
f 191/1/7 190/34/7 194/11/7
f 226/1/7 192/34/7 190/11/7
f 197/1/7 191/34/7 195/11/7
f 199/1/7 197/34/7 196/11/7
f 199/22/3 200/41/3 223/14/3
f 200/1/4 199/34/4 201/11/4
f 205/1/7 200/34/7 202/11/7
f 206/1/4 205/34/4 203/11/4
f 205/22/3 206/41/3 208/14/3
f 209/1/4 206/34/4 207/11/4
f 206/22/3 209/41/3 213/14/3
f 276/1/7 210/34/7 209/11/7
f 210/1/7 214/34/7 213/11/7
f 211/1/7 209/34/7 212/11/7
f 214/1/4 217/34/4 208/11/4
f 210/19/3 274/40/3 215/20/3
f 214/19/3 215/40/3 266/20/3
f 217/19/3 214/40/3 216/20/3
f 217/1/4 218/34/4 200/11/4
f 218/19/3 217/40/3 219/20/3
f 221/19/3 219/40/3 220/20/3
f 219/19/3 216/40/3 264/20/3
f 218/1/7 221/34/7 223/11/7
f 221/1/4 222/34/4 197/11/4
f 222/19/3 221/40/3 224/20/3
f 226/19/3 224/40/3 225/20/3
f 224/19/3 220/40/3 227/20/3
f 222/1/7 226/34/7 191/11/7
f 192/10/2 225/37/2 228/11/2
f 193/1/3 228/34/3 229/11/3
f 228/1/6 227/34/6 230/11/6
f 231/1/4 233/34/4 189/2/4
f 231/19/3 230/40/3 251/20/3
f 233/19/3 231/40/3 232/20/3
f 233/10/7 234/37/7 236/11/7
f 234/10/7 235/37/7 237/11/7
f 234/19/3 232/40/3 252/20/3
f 179/1/3 236/34/3 237/11/3
f 182/1/3 189/34/3 236/11/3
f 238/1/8 237/34/8 239/11/8
f 235/19/3 252/40/3 240/20/3
f 239/19/3 240/40/3 243/20/3
f 241/19/3 239/40/3 242/20/3
f 244/27/2 242/42/2 140/11/2
f 242/27/2 243/42/2 246/11/2
f 372/19/3 241/40/3 244/20/3
f 243/27/2 245/42/2 117/11/2
f 240/19/3 247/40/3 245/20/3
f 247/19/3 248/40/3 114/20/3
f 249/19/3 250/40/3 248/20/3
f 252/19/3 249/40/3 247/20/3
f 251/19/3 253/40/3 250/20/3
f 232/19/3 251/40/3 249/20/3
f 230/19/3 254/40/3 253/20/3
f 253/19/3 255/40/3 256/20/3
f 254/19/3 258/40/3 255/20/3
f 255/19/3 257/40/3 358/20/3
f 258/19/3 259/40/3 257/20/3
f 260/19/3 261/40/3 259/20/3
f 263/19/3 260/40/3 258/20/3
f 262/19/3 265/40/3 261/20/3
f 264/19/3 262/40/3 260/20/3
f 220/19/3 264/40/3 263/20/3
f 227/19/3 263/40/3 254/20/3
f 216/19/3 266/40/3 262/20/3
f 266/19/3 267/40/3 265/20/3
f 215/19/3 269/40/3 267/20/3
f 269/19/3 270/40/3 268/20/3
f 267/19/3 268/40/3 313/20/3
f 271/19/3 272/40/3 270/20/3
f 274/19/3 271/40/3 269/20/3
f 273/19/3 283/40/3 272/20/3
f 275/19/3 273/40/3 271/20/3
f 276/19/3 275/40/3 274/20/3
f 273/1/4 275/34/4 277/11/4
f 275/1/4 276/34/4 211/11/4
f 277/1/4 211/34/4 371/11/4
f 279/1/4 277/34/4 278/11/4
f 283/1/4 273/34/4 279/11/4
f 282/1/4 279/34/4 280/11/4
f 291/1/4 283/34/4 282/11/4
f 285/1/4 282/34/4 284/11/4
f 286/10/7 287/37/7 289/11/7
f 288/22/5 287/41/5 286/14/5
f 287/10/4 288/37/4 290/11/4
f 288/10/1 280/37/1 281/11/1
f 295/1/4 291/34/4 285/11/4
f 293/1/4 285/34/4 292/11/4
f 294/1/1 293/34/1 296/11/1
f 370/1/1 295/34/1 293/11/1
f 299/4/1 296/35/1 297/5/1
f 302/4/1 299/35/1 298/5/1
f 303/4/1 302/35/1 300/5/1
f 306/1/1 304/34/1 302/11/1
f 304/1/1 294/34/1 299/11/1
f 305/1/1 370/34/1 294/11/1
f 308/1/1 305/34/1 304/11/1
f 307/1/1 306/34/1 303/11/1
f 310/1/1 308/34/1 306/11/1
f 368/19/3 305/40/3 308/20/3
f 309/19/3 308/40/3 310/20/3
f 311/1/1 310/34/1 307/11/1
f 312/19/3 310/40/3 311/20/3
f 268/19/3 309/40/3 312/20/3
f 313/19/3 312/40/3 314/20/3
f 314/1/2 311/34/2 335/23/2
f 316/1/2 314/34/2 317/25/2
f 318/7/3 317/36/3 319/8/3
f 319/4/1 317/35/1 315/5/1
f 320/4/1 319/35/1 322/5/1
f 321/7/3 319/36/3 320/8/3
f 315/7/3 335/36/3 323/8/3
f 322/7/3 323/36/3 326/8/3
f 327/1/4 325/34/4 324/23/4
f 326/4/1 323/35/1 330/5/1
f 59/1/4 327/34/4 328/11/4
f 330/7/3 331/36/3 329/8/3
f 332/7/3 333/36/3 331/8/3
f 323/4/1 335/35/1 332/5/1
f 333/1/4 332/34/4 334/23/4
f 332/1/1 307/34/1 338/11/1
f 334/4/1 338/35/1 339/5/1
f 337/4/4 334/35/4 336/5/4
f 338/4/1 303/35/1 301/5/1
f 341/4/7 337/35/7 340/5/7
f 342/4/7 341/35/7 343/5/7
f 346/4/7 342/35/7 344/5/7
f 348/4/7 346/35/7 345/5/7
f 331/4/1 333/35/1 349/5/1
f 350/1/4 349/34/4 351/25/4
f 349/7/3 350/36/3 52/8/3
f 329/4/1 331/35/1 352/5/1
f 33/7/3 35/36/3 46/8/3
f 325/19/3 327/40/3 353/20/3
f 327/19/3 59/40/3 355/20/3
f 354/19/3 353/40/3 98/20/3
f 353/19/3 355/40/3 95/20/3
f 355/19/3 58/40/3 92/20/3
f 356/19/3 354/40/3 101/20/3
f 357/19/3 325/40/3 354/20/3
f 358/19/3 356/40/3 103/20/3
f 257/19/3 357/40/3 356/20/3
f 256/19/3 358/40/3 359/20/3
f 360/19/3 359/40/3 104/20/3
f 248/19/3 360/40/3 111/20/3
f 250/19/3 256/40/3 360/20/3
f 325/1/4 357/34/4 361/25/4
f 357/1/4 257/34/4 363/2/4
f 365/7/3 364/36/3 362/8/3
f 362/4/1 364/35/1 321/5/1
f 367/7/3 366/36/3 364/8/3
f 364/4/1 366/35/1 318/5/1
f 261/1/2 316/34/2 366/2/2
f 259/4/1 261/35/1 367/5/1
f 257/4/1 259/35/1 365/5/1
f 265/19/3 313/40/3 316/20/3
f 270/19/3 368/40/3 309/20/3
f 369/19/3 370/40/3 305/20/3
f 272/19/3 369/40/3 368/20/3
f 291/19/3 295/40/3 370/20/3
f 283/19/3 291/40/3 369/20/3
f 374/19/3 373/40/3 241/20/3
f 373/1/4 374/34/4 176/11/4
f 374/1/4 375/34/4 174/11/4
f 375/19/3 374/40/3 372/20/3
f 377/19/3 375/40/3 376/20/3
f 375/1/4 377/34/4 158/11/4
f 157/19/3 376/40/3 152/20/3
f 376/19/3 372/40/3 150/20/3
f 138/7/3 122/36/3 124/8/3
f 137/4/7 135/35/7 379/5/7
f 135/4/7 133/35/7 380/5/7
f 386/7/7 383/36/7 127/8/7
f 383/1/2 384/34/2 387/11/2
f 386/19/3 113/40/3 384/20/3
f 385/28/2 387/43/2 388/29/2
f 384/28/2 391/43/2 389/29/2
f 387/31/2 389/44/2 392/32/2
f 389/28/2 390/43/2 393/29/2
f 391/31/2 400/44/2 390/32/2
f 390/31/2 396/44/2 394/32/2
f 396/1/2 397/34/2 395/11/2
f 398/1/2 399/34/2 397/11/2
f 400/1/2 398/34/2 396/11/2
f 106/19/3 401/40/3 399/20/3
f 108/19/3 106/40/3 398/20/3
f 110/19/3 108/40/3 400/20/3
f 401/19/3 405/40/3 402/20/3
f 399/1/2 402/34/2 403/11/2
f 402/1/2 404/34/2 406/11/2
f 405/19/3 78/40/3 404/20/3
f 97/19/3 94/40/3 78/20/3
f 100/19/3 97/40/3 405/20/3
f 404/16/1 78/39/1 408/17/1
f 407/1/1 408/34/1 71/11/1
f 403/1/2 406/34/2 409/11/2
f 397/1/2 403/34/2 410/11/2
f 113/19/3 110/40/3 391/20/3
f 90/16/4 92/39/4 62/17/4
f 88/16/4 90/39/4 411/17/4
f 412/1/4 411/34/4 65/11/4
f 413/1/4 412/34/4 414/11/4
f 426/16/4 88/39/4 412/17/4
f 67/22/5 415/41/5 414/14/5
f 415/22/5 418/41/5 416/14/5
f 420/1/1 417/34/1 416/11/1
f 425/22/5 419/41/5 418/14/5
f 421/1/1 420/34/1 418/11/1
f 85/16/1 87/39/1 420/17/1
f 87/16/1 426/39/1 417/17/1
f 422/1/1 421/34/1 419/11/1
f 83/16/1 85/39/1 421/17/1
f 82/1/2 422/34/2 423/11/2
f 424/22/5 423/41/5 419/14/5
f 75/1/2 82/34/2 424/11/2
f 73/22/5 424/41/5 425/14/5
f 69/22/5 425/41/5 415/14/5
f 429/4/2 430/35/2 428/5/2
f 45/7/3 43/36/3 430/8/3
f 430/4/2 7/35/2 5/5/2
f 43/7/3 9/36/3 7/8/3
