# Blender 5.1.2
# www.blender.org
mtllib room26.mtl
o 01-Caves.026
v -350.043091 5.924640 110.087349
v -340.043091 5.924640 110.087349
v -350.043091 5.924641 120.087349
v -350.043091 -1.575362 110.087349
v -350.043091 -9.075359 110.087349
v -350.043091 -1.575361 120.087349
v -350.043091 -9.075358 120.087349
v -350.043091 -1.575360 130.087265
v -350.043091 -9.075358 130.087265
v -350.043091 -1.575359 140.087341
v -350.043091 5.924642 130.087265
v -340.043091 5.924642 130.087265
v -350.043091 5.924643 140.087341
v -340.043091 5.924643 140.087341
v -350.043091 5.924644 150.087341
v -340.043091 5.924644 150.087341
v -350.043091 -1.575359 150.087341
v -350.043091 5.924644 160.087265
v -340.043091 5.924644 160.087265
v -350.043091 -1.575358 160.087265
v -350.043091 5.924645 170.087341
v -340.043091 5.924645 170.087341
v -350.043091 -1.575357 170.087341
v -350.043091 5.924646 180.087341
v -340.043091 5.924646 180.087341
v -350.043091 -1.575356 180.087341
v -350.043091 5.924646 190.087341
v -340.043091 5.924646 190.087341
v -350.043091 -1.575356 190.087341
v -350.043091 -1.575356 190.087341
v -350.043091 -11.575353 190.087341
v -340.043091 -1.575356 190.087341
v -340.043091 -11.575353 190.087341
v -330.043091 -1.575356 190.087341
v -330.043091 5.924646 190.087341
v -330.043091 -11.575353 190.087341
v -320.043091 -1.575356 190.087341
v -320.043091 -11.575353 190.087341
v -310.043121 -1.575356 190.087341
v -320.043091 5.924646 190.087341
v -320.043091 5.924646 180.087341
v -310.043121 5.924646 190.087341
v -300.043121 5.924646 190.087341
v -300.043121 -1.575356 190.087341
v -290.043121 5.924646 190.087341
v -280.043121 5.924646 190.087341
v -290.043121 -1.575356 190.087341
v -290.043121 5.924646 180.087341
v -290.043121 5.924645 170.087341
v -280.043121 5.924646 180.087341
v -270.043121 5.924646 180.087341
v -280.043121 5.924645 170.087341
v -280.043121 -1.575357 170.087341
v -270.043121 5.924645 170.087341
v -280.043121 5.924644 160.087265
v -280.043121 5.924644 150.087341
v -290.043121 5.924644 160.087265
v -270.043121 5.924644 160.087265
v -280.043121 -1.575358 160.087265
v -280.043121 -9.075356 160.087265
v -270.043121 -1.575358 160.087265
v -270.043121 -1.575357 170.087341
v -270.043121 -9.075356 160.087265
v -270.043121 -9.075356 150.087341
v -260.043121 -9.075356 160.087265
v -270.043121 -9.075356 170.087341
v -280.043121 -9.075356 170.087341
v -270.043121 -9.075355 180.087341
v -260.043121 -9.075356 170.087341
v -260.043121 -9.075355 180.087341
v -260.043121 -1.575357 170.087341
v -260.043121 5.924645 170.087341
v -260.043121 -1.575358 160.087265
v -260.043121 -1.575356 180.087341
v -260.043121 -11.575354 180.087341
v -260.043121 5.924646 180.087341
v -260.043121 -1.575356 190.087341
v -260.043121 5.924646 190.087341
v -260.043121 -11.575353 190.087341
v -270.043121 -1.575356 190.087341
v -270.043121 5.924646 190.087341
v -270.043121 -11.575353 190.087341
v -280.043121 -1.575356 190.087341
v -280.043121 -11.575353 190.087341
v -280.043121 -11.575354 180.087341
v -290.043121 -11.575353 190.087341
v -290.043121 -11.575354 180.087341
v -300.043121 -11.575353 190.087341
v -310.043121 -11.575353 190.087341
v -300.043121 -11.575354 180.087341
v -310.043121 -11.575354 180.087341
v -300.043121 -11.575355 170.087341
v -310.043121 -11.575355 170.087341
v -300.043121 -11.575355 160.087265
v -290.043121 -11.575355 170.087341
v -290.043121 -11.575355 160.087265
v -290.043121 -9.075356 170.087341
v -290.043121 -9.075356 160.087265
v -290.043121 -9.075355 180.087341
v -280.043121 -9.075355 180.087341
v -290.043121 -9.075356 150.087341
v -280.043121 -9.075356 150.087341
v -290.043121 -9.075357 140.087341
v -290.043121 -11.575356 150.087341
v -290.043121 -11.575356 140.087341
v -300.043121 -11.575356 150.087341
v -300.043121 -11.575356 140.087341
v -310.043121 -11.575356 150.087341
v -320.043091 -11.575356 150.087341
v -310.043121 -11.575355 160.087265
v -310.043121 -11.575356 140.087341
v -310.043121 -11.575357 130.087265
v -320.043091 -11.575356 140.087341
v -320.043091 -11.575357 130.087265
v -320.043091 -9.075357 140.087341
v -330.043091 -9.075357 140.087341
v -320.043091 -9.075356 150.087341
v -320.043091 -9.075358 130.087265
v -330.043091 -9.075358 130.087265
v -320.043091 -9.075358 120.087349
v -320.043091 -9.075359 110.087349
v -310.043121 -9.075358 120.087349
v -320.043091 -11.575357 120.087349
v -330.043091 -9.075358 120.087349
v -330.043091 -9.075359 110.087349
v -340.043091 -9.075358 120.087349
v -340.043091 -9.075358 130.087265
v -340.043091 -9.075359 110.087349
v -340.043091 -9.075357 140.087341
v -340.043091 -1.575360 130.087265
v -340.043091 -1.575359 140.087341
v -330.043091 -1.575360 130.087265
v -330.043091 5.924642 130.087265
v -330.043091 -1.575359 140.087341
v -330.043091 5.924643 140.087341
v -330.043091 5.924644 150.087341
v -320.043091 5.924643 140.087341
v -320.043091 5.924644 150.087341
v -320.043091 5.924642 130.087265
v -320.043091 5.924641 120.087349
v -320.043091 5.924640 110.087349
v -330.043091 5.924641 120.087349
v -310.043121 5.924641 120.087349
v -300.043121 5.924641 120.087349
v -310.043121 5.924640 110.087349
v -300.043121 5.924640 110.087349
v -290.043121 5.924640 110.087349
v -290.043121 5.924641 120.087349
v -280.043121 5.924640 110.087349
v -290.043121 -1.575362 110.087349
v -280.043121 -1.575362 110.087349
v -290.043121 -9.075359 110.087349
v -290.043121 -9.075358 120.087349
v -280.043121 -9.075359 110.087349
v -300.043121 -9.075359 110.087349
v -300.043121 -9.075358 120.087349
v -310.043121 -9.075359 110.087349
v -300.043121 -11.575357 120.087349
v -300.043121 -11.575357 130.087265
v -310.043121 -11.575357 120.087349
v -290.043121 -11.575357 120.087349
v -290.043121 -11.575357 130.087265
v -290.043121 -9.075358 130.087265
v -280.043121 -9.075358 130.087265
v -280.043121 -9.075357 140.087341
v -270.043121 -9.075358 130.087265
v -280.043121 -1.575360 130.087265
v -280.043121 -9.075358 120.087349
v -270.043121 -9.075358 120.087349
v -270.043121 -9.075359 110.087349
v -260.043121 -9.075358 120.087349
v -260.043121 -9.075359 110.087349
v -260.043121 -9.075358 130.087265
v -260.043121 -1.575361 120.087349
v -260.043121 -1.575362 110.087349
v -260.043121 -1.575360 130.087265
v -260.043121 5.924641 120.087349
v -260.043121 5.924640 110.087349
v -270.043121 5.924641 120.087349
v -260.043121 5.924642 130.087265
v -270.043121 5.924642 130.087265
v -260.043121 5.924643 140.087341
v -270.043121 5.924643 140.087341
v -260.043121 5.924644 150.087341
v -260.043121 -1.575359 140.087341
v -260.043121 -9.075357 140.087341
v -260.043121 -1.575359 150.087341
v -260.043121 -9.075356 150.087341
v -270.043121 -9.075357 140.087341
v -270.043121 -1.575359 140.087341
v -280.043121 -1.575359 140.087341
v -270.043121 -1.575360 130.087265
v -280.043121 5.924643 140.087341
v -280.043121 5.924642 130.087265
v -290.043121 5.924643 140.087341
v -290.043121 5.924642 130.087265
v -290.043121 5.924644 150.087341
v -280.043121 5.924641 120.087349
v -260.043121 5.924644 160.087265
v -270.043121 5.924644 150.087341
v -270.043121 5.924640 110.087349
v -330.043091 5.924640 110.087349
v -340.043091 5.924641 120.087349
v -330.043091 -1.575362 110.087349
v -320.043091 -1.575362 110.087349
v -320.043091 5.924644 160.087265
v -320.043091 5.924645 170.087341
v -330.043091 5.924644 160.087265
v -330.043091 -1.575358 160.087265
v -330.043091 5.924645 170.087341
v -330.043091 5.924646 180.087341
v -330.043091 -1.575357 170.087341
v -330.043091 -9.075356 170.087341
v -340.043091 -1.575357 170.087341
v -340.043091 -9.075356 170.087341
v -340.043091 -1.575358 160.087265
v -340.043091 -9.075356 160.087265
v -350.043091 -9.075356 160.087265
v -330.043091 -9.075356 160.087265
v -340.043091 -9.075356 150.087341
v -350.043091 -9.075356 150.087341
v -330.043091 -9.075356 150.087341
v -350.043091 -9.075357 140.087341
v -320.043091 -9.075356 160.087265
v -320.043091 -9.075356 170.087341
v -320.043091 -11.575355 160.087265
v -320.043091 -11.575355 170.087341
v -320.043091 -11.575354 180.087341
v -330.043091 -11.575354 180.087341
v -320.043091 -9.075355 180.087341
v -330.043091 -9.075355 180.087341
v -340.043091 -9.075355 180.087341
v -340.043091 -11.575354 180.087341
v -350.043091 -9.075355 180.087341
v -350.043091 -9.075356 170.087341
v -350.043091 -11.575354 180.087341
v -270.043121 -11.575354 180.087341
vn -0.0000 -1.0000 -0.0000
vn 1.0000 -0.0000 -0.0000
vn -0.0000 -0.0000 -1.0000
vn -0.0000 -0.0000 1.0000
vn -1.0000 -0.0000 -0.0000
vn -0.0000 1.0000 -0.0000
vt 0.752941 0.878431
vt 0.872549 0.998039
vt 0.752941 0.998039
vt 0.501961 0.878431
vt 0.621569 0.998039
vt 0.501961 0.998039
vt 0.001961 0.001961
vt 0.121569 0.121569
vt 0.001961 0.121569
vt 0.127451 0.001961
vt 0.247059 0.121569
vt 0.127451 0.121569
vt 0.378431 0.001961
vt 0.498039 0.121569
vt 0.378431 0.121569
vt 0.878431 0.752941
vt 0.998039 0.841177
vt 0.878431 0.841177
vt 0.752941 0.501961
vt 0.872549 0.621569
vt 0.752941 0.621569
vt 0.252941 0.001961
vt 0.372549 0.121569
vt 0.252941 0.121569
vt 0.252941 0.252941
vt 0.372549 0.278432
vt 0.252941 0.278432
vt 0.872549 0.878431
vt 0.621569 0.878431
vt 0.121569 0.001961
vt 0.247059 0.001961
vt 0.498039 0.001961
vt 0.998039 0.752941
vt 0.872549 0.501961
vt 0.372549 0.001961
vt 0.372549 0.252941
s 0
usemtl Material.001
f 203/1/1 1/2/1 2/3/1
f 1/4/2 6/5/2 4/6/2
f 4/4/2 7/5/2 5/6/2
f 3/4/2 8/5/2 6/6/2
f 6/4/2 9/5/2 7/6/2
f 8/4/2 223/5/2 9/6/2
f 11/4/2 10/5/2 8/6/2
f 12/1/1 3/2/1 203/3/1
f 14/1/1 11/2/1 12/3/1
f 16/1/1 13/2/1 14/3/1
f 13/4/2 17/5/2 10/6/2
f 19/1/1 15/2/1 16/3/1
f 15/4/2 20/5/2 17/6/2
f 22/1/1 18/2/1 19/3/1
f 18/4/2 23/5/2 20/6/2
f 25/1/1 21/2/1 22/3/1
f 21/4/2 26/5/2 23/6/2
f 28/1/1 24/2/1 25/3/1
f 24/4/2 29/5/2 26/6/2
f 27/4/3 32/5/3 30/6/3
f 30/4/3 33/5/3 31/6/3
f 32/4/3 36/5/3 33/6/3
f 28/4/3 34/5/3 32/6/3
f 35/7/3 37/8/3 34/9/3
f 34/4/3 38/5/3 36/6/3
f 89/10/3 37/11/3 39/12/3
f 37/13/3 42/14/3 39/15/3
f 40/1/1 211/2/1 41/3/1
f 42/13/3 44/14/3 39/15/3
f 43/13/3 47/14/3 44/15/3
f 83/7/3 45/8/3 46/9/3
f 46/1/1 48/2/1 50/3/1
f 50/1/1 49/2/1 52/3/1
f 81/1/1 50/2/1 51/3/1
f 51/1/1 52/2/1 54/3/1
f 52/1/1 57/2/1 55/3/1
f 54/16/4 53/17/4 62/18/4
f 52/16/5 59/17/5 53/18/5
f 58/1/1 56/2/1 200/3/1
f 55/1/1 197/2/1 56/3/1
f 55/16/3 61/17/3 59/18/3
f 63/16/3 59/17/3 61/18/3
f 60/16/5 53/17/5 59/18/5
f 58/16/2 62/17/2 61/18/2
f 66/16/2 61/17/2 62/18/2
f 64/1/6 60/2/6 63/3/6
f 188/1/6 63/2/6 65/3/6
f 65/1/6 66/2/6 69/3/6
f 67/16/4 62/17/4 53/18/4
f 66/1/6 100/2/6 68/3/6
f 69/1/6 68/2/6 70/3/6
f 74/4/5 69/5/5 70/6/5
f 71/4/5 65/5/5 69/6/5
f 76/4/5 71/5/5 74/6/5
f 72/4/5 73/5/5 71/6/5
f 77/4/5 75/5/5 79/6/5
f 78/4/5 74/5/5 77/6/5
f 81/4/3 77/5/3 80/6/3
f 80/4/3 79/5/3 82/6/3
f 46/4/3 80/5/3 83/6/3
f 83/4/3 82/5/3 84/6/3
f 47/4/3 84/5/3 86/6/3
f 237/19/6 84/20/6 82/21/6
f 85/19/6 86/20/6 84/21/6
f 87/19/6 88/20/6 86/21/6
f 86/7/3 44/8/3 47/9/3
f 39/22/3 88/23/3 89/24/3
f 90/19/6 89/20/6 88/21/6
f 95/19/6 90/20/6 87/21/6
f 92/19/6 91/20/6 90/21/6
f 94/19/6 93/20/6 92/21/6
f 96/19/6 92/20/6 95/21/6
f 97/25/5 96/26/5 95/27/5
f 99/25/5 95/26/5 87/27/5
f 60/1/6 97/2/6 67/3/6
f 67/1/6 99/2/6 100/3/6
f 100/25/4 87/26/4 85/27/4
f 68/25/4 85/26/4 237/27/4
f 102/1/6 98/2/6 60/3/6
f 98/25/5 104/26/5 96/27/5
f 165/1/6 101/2/6 102/3/6
f 101/25/5 105/26/5 104/27/5
f 105/19/6 106/20/6 104/21/6
f 104/19/6 94/20/6 96/21/6
f 107/19/6 108/20/6 106/21/6
f 106/19/6 110/20/6 94/21/6
f 108/19/6 226/20/6 110/21/6
f 111/19/6 109/20/6 108/21/6
f 159/19/6 111/20/6 107/21/6
f 112/19/6 113/20/6 111/21/6
f 118/25/2 113/26/2 114/27/2
f 115/25/2 109/26/2 113/27/2
f 115/1/6 222/2/6 117/3/6
f 118/1/6 116/2/6 115/3/6
f 120/1/6 119/2/6 118/3/6
f 120/25/2 114/26/2 123/27/2
f 157/1/6 120/2/6 122/3/6
f 121/1/6 124/2/6 120/3/6
f 122/25/4 123/26/4 160/27/4
f 125/1/6 126/2/6 124/3/6
f 124/1/6 127/2/6 119/3/6
f 126/1/6 9/2/6 127/3/6
f 128/1/6 7/2/6 126/3/6
f 127/1/6 223/2/6 129/3/6
f 127/16/5 131/17/5 130/18/5
f 119/16/3 130/17/3 132/18/3
f 14/16/5 130/17/5 131/18/5
f 12/16/3 132/17/3 130/18/3
f 133/16/2 134/17/2 132/18/2
f 116/16/2 132/17/2 134/18/2
f 135/16/4 131/17/4 134/18/4
f 129/16/4 134/17/4 131/18/4
f 137/1/1 133/2/1 139/3/1
f 136/1/1 14/2/1 135/3/1
f 138/1/1 135/2/1 137/3/1
f 139/1/1 142/2/1 140/3/1
f 143/1/1 141/2/1 145/3/1
f 140/1/1 202/2/1 141/3/1
f 144/1/1 145/2/1 146/3/1
f 148/1/1 146/2/1 147/3/1
f 198/1/1 147/2/1 149/3/1
f 149/16/4 150/17/4 151/18/4
f 152/16/4 151/17/4 150/18/4
f 154/1/6 153/2/6 168/3/6
f 152/1/6 156/2/6 153/3/6
f 155/1/6 122/2/6 156/3/6
f 156/25/4 160/26/4 158/27/4
f 153/25/4 158/26/4 161/27/4
f 161/19/6 159/20/6 162/21/6
f 158/19/6 112/20/6 159/21/6
f 163/25/5 161/26/5 162/27/5
f 103/25/5 162/26/5 105/27/5
f 162/19/6 107/20/6 105/21/6
f 164/1/6 103/2/6 165/3/6
f 168/1/6 163/2/6 164/3/6
f 164/16/5 191/17/5 167/18/5
f 166/16/3 167/17/3 192/18/3
f 169/1/6 164/2/6 166/3/6
f 170/1/6 168/2/6 169/3/6
f 172/1/6 169/2/6 171/3/6
f 171/1/6 166/2/6 173/3/6
f 174/4/5 172/5/5 171/6/5
f 176/4/5 171/5/5 173/6/5
f 177/4/5 175/5/5 174/6/5
f 180/4/5 174/5/5 176/6/5
f 177/1/1 201/2/1 178/3/1
f 180/1/1 179/2/1 177/3/1
f 182/1/1 181/2/1 180/3/1
f 182/4/5 176/5/5 185/6/5
f 184/1/1 183/2/1 182/3/1
f 184/4/5 185/5/5 187/6/5
f 185/4/5 173/5/5 186/6/5
f 187/4/5 186/5/5 188/6/5
f 199/4/5 187/5/5 73/6/5
f 73/4/5 188/5/5 65/6/5
f 186/1/6 64/2/6 188/3/6
f 173/1/6 189/2/6 186/3/6
f 189/1/6 102/2/6 64/3/6
f 189/16/2 192/17/2 190/18/2
f 165/16/4 190/17/4 191/18/4
f 183/16/4 191/17/4 190/18/4
f 181/16/2 190/17/2 192/18/2
f 194/16/3 192/17/3 167/18/3
f 193/16/5 167/17/5 191/18/5
f 200/1/1 193/2/1 183/3/1
f 56/1/1 195/2/1 193/3/1
f 193/1/1 196/2/1 194/3/1
f 194/1/1 148/2/1 198/3/1
f 181/1/1 198/2/1 179/3/1
f 179/1/1 149/2/1 201/3/1
f 199/1/1 200/2/1 184/3/1
f 72/1/1 58/2/1 199/3/1
f 160/19/6 114/20/6 112/21/6
f 142/1/1 2/2/1 202/3/1
f 133/1/1 203/2/1 142/3/1
f 141/16/4 204/17/4 205/18/4
f 125/16/4 205/17/4 204/18/4
f 206/1/1 136/2/1 138/3/1
f 207/1/1 208/2/1 206/3/1
f 19/16/3 209/17/3 216/18/3
f 208/1/1 16/2/1 136/3/1
f 208/16/2 212/17/2 209/18/2
f 41/1/1 210/2/1 207/3/1
f 211/1/1 22/2/1 210/3/1
f 210/16/4 214/17/4 212/18/4
f 213/16/2 209/17/2 212/18/2
f 215/16/4 212/17/4 214/18/4
f 217/16/5 214/17/5 216/18/5
f 22/16/5 216/17/5 214/18/5
f 219/16/3 216/17/3 209/18/3
f 217/1/6 235/2/6 215/3/6
f 220/1/6 218/2/6 217/3/6
f 222/1/6 217/2/6 219/3/6
f 116/1/6 220/2/6 222/3/6
f 129/1/6 221/2/6 220/3/6
f 117/1/6 219/2/6 224/3/6
f 17/4/2 218/5/2 221/6/2
f 10/4/2 221/5/2 223/6/2
f 224/1/6 213/2/6 225/3/6
f 224/25/2 227/26/2 226/27/2
f 117/25/2 226/26/2 109/27/2
f 110/19/6 227/20/6 93/21/6
f 93/19/6 228/20/6 91/21/6
f 225/25/2 228/26/2 227/27/2
f 230/25/4 229/26/4 228/27/4
f 228/19/6 36/20/6 38/21/6
f 91/19/6 38/20/6 89/21/6
f 225/1/6 231/2/6 230/3/6
f 231/25/4 233/26/4 229/27/4
f 213/1/6 232/2/6 231/3/6
f 232/25/4 236/26/4 233/27/4
f 215/1/6 234/2/6 232/3/6
f 23/4/2 234/5/2 235/6/2
f 233/19/6 31/20/6 33/21/6
f 26/4/2 31/5/2 236/6/2
f 20/4/2 235/5/2 218/6/2
f 229/19/6 33/20/6 36/21/6
f 35/1/1 25/2/1 211/3/1
f 75/19/6 82/20/6 79/21/6
f 70/25/4 237/26/4 75/27/4
f 78/1/1 51/2/1 76/3/1
f 76/1/1 54/2/1 72/3/1
f 203/1/1 3/28/1 1/2/1
f 1/4/2 3/29/2 6/5/2
f 4/4/2 6/29/2 7/5/2
f 3/4/2 11/29/2 8/5/2
f 6/4/2 8/29/2 9/5/2
f 8/4/2 10/29/2 223/5/2
f 11/4/2 13/29/2 10/5/2
f 12/1/1 11/28/1 3/2/1
f 14/1/1 13/28/1 11/2/1
f 16/1/1 15/28/1 13/2/1
f 13/4/2 15/29/2 17/5/2
f 19/1/1 18/28/1 15/2/1
f 15/4/2 18/29/2 20/5/2
f 22/1/1 21/28/1 18/2/1
f 18/4/2 21/29/2 23/5/2
f 25/1/1 24/28/1 21/2/1
f 21/4/2 24/29/2 26/5/2
f 28/1/1 27/28/1 24/2/1
f 24/4/2 27/29/2 29/5/2
f 27/4/3 28/29/3 32/5/3
f 30/4/3 32/29/3 33/5/3
f 32/4/3 34/29/3 36/5/3
f 28/4/3 35/29/3 34/5/3
f 35/7/3 40/30/3 37/8/3
f 34/4/3 37/29/3 38/5/3
f 89/10/3 38/31/3 37/11/3
f 37/13/3 40/32/3 42/14/3
f 40/1/1 35/28/1 211/2/1
f 42/13/3 43/32/3 44/14/3
f 43/13/3 45/32/3 47/14/3
f 83/7/3 47/30/3 45/8/3
f 46/1/1 45/28/1 48/2/1
f 50/1/1 48/28/1 49/2/1
f 81/1/1 46/28/1 50/2/1
f 51/1/1 50/28/1 52/2/1
f 52/1/1 49/28/1 57/2/1
f 54/16/4 52/33/4 53/17/4
f 52/16/5 55/33/5 59/17/5
f 58/1/1 55/28/1 56/2/1
f 55/1/1 57/28/1 197/2/1
f 55/16/3 58/33/3 61/17/3
f 63/16/3 60/33/3 59/17/3
f 60/16/5 67/33/5 53/17/5
f 58/16/2 54/33/2 62/17/2
f 66/16/2 63/33/2 61/17/2
f 64/1/6 102/28/6 60/2/6
f 188/1/6 64/28/6 63/2/6
f 65/1/6 63/28/6 66/2/6
f 67/16/4 66/33/4 62/17/4
f 66/1/6 67/28/6 100/2/6
f 69/1/6 66/28/6 68/2/6
f 74/4/5 71/29/5 69/5/5
f 71/4/5 73/29/5 65/5/5
f 76/4/5 72/29/5 71/5/5
f 72/4/5 199/29/5 73/5/5
f 77/4/5 74/29/5 75/5/5
f 78/4/5 76/29/5 74/5/5
f 81/4/3 78/29/3 77/5/3
f 80/4/3 77/29/3 79/5/3
f 46/4/3 81/29/3 80/5/3
f 83/4/3 80/29/3 82/5/3
f 47/4/3 83/29/3 84/5/3
f 237/19/6 85/34/6 84/20/6
f 85/19/6 87/34/6 86/20/6
f 87/19/6 90/34/6 88/20/6
f 86/7/3 88/30/3 44/8/3
f 39/22/3 44/35/3 88/23/3
f 90/19/6 91/34/6 89/20/6
f 95/19/6 92/34/6 90/20/6
f 92/19/6 93/34/6 91/20/6
f 94/19/6 110/34/6 93/20/6
f 96/19/6 94/34/6 92/20/6
f 97/25/5 98/36/5 96/26/5
f 99/25/5 97/36/5 95/26/5
f 60/1/6 98/28/6 97/2/6
f 67/1/6 97/28/6 99/2/6
f 100/25/4 99/36/4 87/26/4
f 68/25/4 100/36/4 85/26/4
f 102/1/6 101/28/6 98/2/6
f 98/25/5 101/36/5 104/26/5
f 165/1/6 103/28/6 101/2/6
f 101/25/5 103/36/5 105/26/5
f 105/19/6 107/34/6 106/20/6
f 104/19/6 106/34/6 94/20/6
f 107/19/6 111/34/6 108/20/6
f 106/19/6 108/34/6 110/20/6
f 108/19/6 109/34/6 226/20/6
f 111/19/6 113/34/6 109/20/6
f 159/19/6 112/34/6 111/20/6
f 112/19/6 114/34/6 113/20/6
f 118/25/2 115/36/2 113/26/2
f 115/25/2 117/36/2 109/26/2
f 115/1/6 116/28/6 222/2/6
f 118/1/6 119/28/6 116/2/6
f 120/1/6 124/28/6 119/2/6
f 120/25/2 118/36/2 114/26/2
f 157/1/6 121/28/6 120/2/6
f 121/1/6 125/28/6 124/2/6
f 122/25/4 120/36/4 123/26/4
f 125/1/6 128/28/6 126/2/6
f 124/1/6 126/28/6 127/2/6
f 126/1/6 7/28/6 9/2/6
f 128/1/6 5/28/6 7/2/6
f 127/1/6 9/28/6 223/2/6
f 127/16/5 129/33/5 131/17/5
f 119/16/3 127/33/3 130/17/3
f 14/16/5 12/33/5 130/17/5
f 12/16/3 133/33/3 132/17/3
f 133/16/2 135/33/2 134/17/2
f 116/16/2 119/33/2 132/17/2
f 135/16/4 14/33/4 131/17/4
f 129/16/4 116/33/4 134/17/4
f 137/1/1 135/28/1 133/2/1
f 136/1/1 16/28/1 14/2/1
f 138/1/1 136/28/1 135/2/1
f 139/1/1 133/28/1 142/2/1
f 143/1/1 140/28/1 141/2/1
f 140/1/1 142/28/1 202/2/1
f 144/1/1 143/28/1 145/2/1
f 148/1/1 144/28/1 146/2/1
f 198/1/1 148/28/1 147/2/1
f 149/16/4 147/33/4 150/17/4
f 152/16/4 154/33/4 151/17/4
f 154/1/6 152/28/6 153/2/6
f 152/1/6 155/28/6 156/2/6
f 155/1/6 157/28/6 122/2/6
f 156/25/4 122/36/4 160/26/4
f 153/25/4 156/36/4 158/26/4
f 161/19/6 158/34/6 159/20/6
f 158/19/6 160/34/6 112/20/6
f 163/25/5 153/36/5 161/26/5
f 103/25/5 163/36/5 162/26/5
f 162/19/6 159/34/6 107/20/6
f 164/1/6 163/28/6 103/2/6
f 168/1/6 153/28/6 163/2/6
f 164/16/5 165/33/5 191/17/5
f 166/16/3 164/33/3 167/17/3
f 169/1/6 168/28/6 164/2/6
f 170/1/6 154/28/6 168/2/6
f 172/1/6 170/28/6 169/2/6
f 171/1/6 169/28/6 166/2/6
f 174/4/5 175/29/5 172/5/5
f 176/4/5 174/29/5 171/5/5
f 177/4/5 178/29/5 175/5/5
f 180/4/5 177/29/5 174/5/5
f 177/1/1 179/28/1 201/2/1
f 180/1/1 181/28/1 179/2/1
f 182/1/1 183/28/1 181/2/1
f 182/4/5 180/29/5 176/5/5
f 184/1/1 200/28/1 183/2/1
f 184/4/5 182/29/5 185/5/5
f 185/4/5 176/29/5 173/5/5
f 187/4/5 185/29/5 186/5/5
f 199/4/5 184/29/5 187/5/5
f 73/4/5 187/29/5 188/5/5
f 186/1/6 189/28/6 64/2/6
f 173/1/6 166/28/6 189/2/6
f 189/1/6 165/28/6 102/2/6
f 189/16/2 166/33/2 192/17/2
f 165/16/4 189/33/4 190/17/4
f 183/16/4 193/33/4 191/17/4
f 181/16/2 183/33/2 190/17/2
f 194/16/3 181/33/3 192/17/3
f 193/16/5 194/33/5 167/17/5
f 200/1/1 56/28/1 193/2/1
f 56/1/1 197/28/1 195/2/1
f 193/1/1 195/28/1 196/2/1
f 194/1/1 196/28/1 148/2/1
f 181/1/1 194/28/1 198/2/1
f 179/1/1 198/28/1 149/2/1
f 199/1/1 58/28/1 200/2/1
f 72/1/1 54/28/1 58/2/1
f 160/19/6 123/34/6 114/20/6
f 142/1/1 203/28/1 2/2/1
f 133/1/1 12/28/1 203/2/1
f 141/16/4 202/33/4 204/17/4
f 125/16/4 121/33/4 205/17/4
f 206/1/1 208/28/1 136/2/1
f 207/1/1 210/28/1 208/2/1
f 19/16/3 208/33/3 209/17/3
f 208/1/1 19/28/1 16/2/1
f 208/16/2 210/33/2 212/17/2
f 41/1/1 211/28/1 210/2/1
f 211/1/1 25/28/1 22/2/1
f 210/16/4 22/33/4 214/17/4
f 213/16/2 219/33/2 209/17/2
f 215/16/4 213/33/4 212/17/4
f 217/16/5 215/33/5 214/17/5
f 22/16/5 19/33/5 216/17/5
f 219/16/3 217/33/3 216/17/3
f 217/1/6 218/28/6 235/2/6
f 220/1/6 221/28/6 218/2/6
f 222/1/6 220/28/6 217/2/6
f 116/1/6 129/28/6 220/2/6
f 129/1/6 223/28/6 221/2/6
f 117/1/6 222/28/6 219/2/6
f 17/4/2 20/29/2 218/5/2
f 10/4/2 17/29/2 221/5/2
f 224/1/6 219/28/6 213/2/6
f 224/25/2 225/36/2 227/26/2
f 117/25/2 224/36/2 226/26/2
f 110/19/6 226/34/6 227/20/6
f 93/19/6 227/34/6 228/20/6
f 225/25/2 230/36/2 228/26/2
f 230/25/4 231/36/4 229/26/4
f 228/19/6 229/34/6 36/20/6
f 91/19/6 228/34/6 38/20/6
f 225/1/6 213/28/6 231/2/6
f 231/25/4 232/36/4 233/26/4
f 213/1/6 215/28/6 232/2/6
f 232/25/4 234/36/4 236/26/4
f 215/1/6 235/28/6 234/2/6
f 23/4/2 26/29/2 234/5/2
f 233/19/6 236/34/6 31/20/6
f 26/4/2 29/29/2 31/5/2
f 20/4/2 23/29/2 235/5/2
f 229/19/6 233/34/6 33/20/6
f 35/1/1 28/28/1 25/2/1
f 75/19/6 237/34/6 82/20/6
f 70/25/4 68/36/4 237/26/4
f 78/1/1 81/28/1 51/2/1
f 76/1/1 51/28/1 54/2/1
