# Blender 5.1.2
# www.blender.org
mtllib room18.mtl
o 01-Caves.018
v -260.043121 33.424629 -29.912653
v -250.043121 33.424629 -29.912653
v -260.043121 13.424631 -29.912653
v -260.043121 33.424633 -19.912655
v -250.043121 33.424633 -19.912655
v -260.043121 33.424633 -9.912655
v -260.043121 13.424632 -9.912653
v -250.043121 33.424633 -9.912655
v -250.043121 13.424632 -9.912653
v -240.043121 33.424633 -9.912655
v -240.043121 13.424632 -9.912653
v -240.043121 13.424632 -9.912653
v -230.043121 33.424633 -9.912655
v -240.043121 33.424633 -19.912655
v -240.043121 33.424629 -29.912653
v -230.043121 33.424633 -19.912655
v -230.043121 33.424629 -29.912653
v -220.043121 28.424635 -19.912655
v -230.043121 28.424635 -29.912653
v -220.043121 33.424633 -19.912655
v -220.043121 13.424631 -19.912655
v -210.043121 33.424633 -19.912655
v -220.043121 33.424633 -9.912655
v -220.043121 33.424633 0.087345
v -220.043121 13.424632 -9.912653
v -210.043121 33.424633 -9.912655
v -210.043121 13.424632 -9.912653
v -210.043121 13.424631 -19.912655
v -210.043121 18.424633 -9.912653
v -210.043121 15.924635 -19.912655
v -220.043121 13.424633 0.087347
v -230.043121 13.424632 -9.912653
v -230.043121 13.424633 0.087347
v -230.043121 13.424631 -19.912655
v -240.043121 13.424631 -19.912655
v -230.043121 13.424631 -29.912653
v -220.043121 13.424631 -29.912653
v -240.043121 13.424631 -29.912653
v -250.043121 13.424631 -29.912653
v -250.043121 13.424631 -19.912655
v -260.043121 13.424631 -19.912655
v -260.043121 15.924635 -29.912653
v -220.043121 23.424625 -29.912653
v -230.043121 33.424633 0.087345
v -240.043121 13.424633 0.087347
v -240.043121 13.424633 0.087347
vn -0.0000 -1.0000 -0.0000
vn -0.0000 -0.0000 1.0000
vn -0.0000 -0.0000 -1.0000
vn -1.0000 -0.0000 -0.0000
vn -0.4082 -0.8165 0.4082
vn -0.0000 1.0000 -0.0000
vn 1.0000 -0.0000 -0.0000
vn 0.8944 -0.4472 -0.0000
vt 0.752941 0.878431
vt 0.872549 0.998039
vt 0.752941 0.998039
vt 0.252941 0.627451
vt 0.372549 0.747059
vt 0.252941 0.747059
vt 0.001961 0.627451
vt 0.121569 0.747059
vt 0.001961 0.747059
vt 0.127451 0.627451
vt 0.247059 0.747059
vt 0.127451 0.747059
vt 0.878431 0.252941
vt 0.998039 0.372549
vt 0.878431 0.372549
vt 0.001961 0.878431
vt 0.121569 0.998039
vt 0.001961 0.998039
vt 0.378431 0.747059
vt 0.378431 0.658823
vt 0.498039 0.747059
vt 0.001961 0.621569
vt 0.121569 0.501961
vt 0.121569 0.621569
vt 0.378431 0.627451
vt 0.127451 0.501961
vt 0.247059 0.621569
vt 0.127451 0.621569
vt 0.001961 0.501961
vt 0.752941 0.972549
vt 0.121569 0.627451
vt 0.872549 0.878431
vt 0.372549 0.627451
vt 0.247059 0.627451
vt 0.998039 0.252941
vt 0.121569 0.878431
vt 0.498039 0.627451
vt 0.247059 0.501961
s 0
usemtl Material.001
f 5/1/1 1/2/1 2/3/1
f 2/4/2 3/5/2 39/6/2
f 8/1/1 4/2/1 5/3/1
f 6/7/3 9/8/3 7/9/3
f 8/10/3 11/11/3 9/12/3
f 10/1/1 5/2/1 14/3/1
f 12/9/3 10/7/3 13/8/3
f 16/13/1 10/14/1 14/15/1
f 16/1/1 15/2/1 17/3/1
f 14/16/1 2/17/1 15/18/1
f 16/19/4 17/20/4 19/21/4
f 18/19/2 20/20/2 16/21/2
f 18/4/5 19/5/5 43/6/5
f 23/1/1 16/2/1 20/3/1
f 22/10/2 21/11/2 28/12/2
f 26/1/1 20/2/1 22/3/1
f 23/1/1 44/2/1 13/3/1
f 24/10/4 25/11/4 31/12/4
f 23/7/3 27/8/3 25/9/3
f 28/1/6 25/2/6 27/3/6
f 27/22/4 30/23/4 28/24/4
f 25/1/6 33/2/6 31/3/6
f 21/1/6 32/2/6 25/3/6
f 32/1/6 45/2/6 33/3/6
f 34/1/6 11/2/6 32/3/6
f 36/1/6 35/2/6 34/3/6
f 37/1/6 34/2/6 21/3/6
f 17/4/2 38/5/2 36/6/2
f 43/25/2 36/21/2 37/19/2
f 15/25/2 39/21/2 38/19/2
f 39/26/6 35/27/6 38/28/6
f 40/29/6 3/24/6 41/22/6
f 35/1/6 9/2/6 11/3/6
f 40/26/6 7/27/6 9/28/6
f 3/3/7 42/30/7 41/2/7
f 21/9/4 43/31/4 37/8/4
f 44/6/3 33/4/3 45/5/3
f 44/25/3 31/21/3 33/19/3
f 44/10/8 12/11/8 13/12/8
f 5/1/1 4/32/1 1/2/1
f 2/4/2 1/33/2 3/5/2
f 8/1/1 6/32/1 4/2/1
f 6/7/3 8/31/3 9/8/3
f 8/10/3 10/34/3 11/11/3
f 10/1/1 8/32/1 5/2/1
f 16/13/1 13/35/1 10/14/1
f 16/1/1 14/32/1 15/2/1
f 14/16/1 5/36/1 2/17/1
f 18/4/5 16/33/5 19/5/5
f 23/1/1 13/32/1 16/2/1
f 22/10/2 20/34/2 21/11/2
f 26/1/1 23/32/1 20/2/1
f 23/1/1 24/32/1 44/2/1
f 24/10/4 23/34/4 25/11/4
f 23/7/3 26/31/3 27/8/3
f 28/1/6 21/32/6 25/2/6
f 27/22/4 29/29/4 30/23/4
f 25/1/6 32/32/6 33/2/6
f 21/1/6 34/32/6 32/2/6
f 32/1/6 11/32/6 45/2/6
f 34/1/6 35/32/6 11/2/6
f 36/1/6 38/32/6 35/2/6
f 37/1/6 36/32/6 34/2/6
f 17/4/2 15/33/2 38/5/2
f 43/25/2 19/37/2 36/21/2
f 15/25/2 2/37/2 39/21/2
f 39/26/6 40/38/6 35/27/6
f 40/29/6 39/23/6 3/24/6
f 35/1/6 40/32/6 9/2/6
f 40/26/6 41/38/6 7/27/6
f 21/9/4 18/7/4 43/31/4
f 44/25/3 24/37/3 31/21/3
f 44/10/8 46/34/8 12/11/8
