# Blender 5.1.2
# www.blender.org
mtllib room34.mtl
o 01-Caves.034
v -150.043121 35.924648 270.087341
v -140.043121 35.924648 270.087341
v -150.043121 35.924652 280.087341
v -150.043121 25.924654 270.087341
v -140.043121 25.924654 270.087341
v -150.043121 15.924657 270.087341
v -140.043121 15.924657 270.087341
v -150.043121 15.924658 280.087341
v -140.043121 15.924658 280.087341
v -150.043121 15.924659 290.087341
v -140.043121 15.924659 290.087341
v -150.043121 25.924654 290.087341
v -140.043121 25.924654 290.087341
v -150.043121 35.924652 290.087341
v -140.043121 35.924652 290.087341
v -140.043121 35.924652 280.087341
v -140.043121 33.424656 290.087341
v -130.043106 33.424656 290.087341
v -140.043121 33.424656 280.087341
v -140.043121 30.924654 290.087341
v -130.043106 28.424658 290.087341
v -140.043121 25.924656 300.087341
v -140.043121 13.424656 300.087341
v -130.043106 23.424650 300.087341
v -130.043106 13.424656 300.087341
v -130.043106 10.924650 300.087341
v -120.043144 18.424656 300.087341
v -120.043144 10.924650 300.087341
v -110.043121 18.424656 300.087341
v -120.043144 23.424648 290.087341
v -120.043144 30.924654 290.087341
v -110.043121 23.424648 290.087341
v -120.043144 28.424658 290.087341
v -110.043121 28.424658 290.087341
v -120.043144 28.424658 280.087341
v -120.043144 30.924654 280.087341
v -110.043121 28.424658 280.087341
v -120.043144 28.424658 270.087341
v -120.043144 28.424656 260.087341
v -120.043144 30.924654 270.087341
v -110.043121 28.424658 270.087341
v -110.043121 25.924654 270.087341
v -110.043121 28.424656 260.087341
v -110.043121 25.924652 260.087341
v -110.043121 23.424646 260.087341
v -120.043144 23.424646 260.087341
v -110.043121 10.924647 260.087341
v -100.043106 23.424646 260.087341
v -100.043106 25.924652 260.087341
v -100.043106 10.924647 260.087341
v -90.043144 23.424646 260.087341
v -100.043106 23.424648 270.087341
v -90.043144 23.424648 270.087341
v -100.043106 23.424648 280.087341
v -100.043106 25.924654 270.087341
v -100.043106 25.924654 280.087341
v -110.043121 25.924654 280.087341
v -100.043106 25.924654 290.087341
v -110.043121 25.924654 290.087341
v -100.043106 23.424648 290.087341
v -100.043106 20.924654 290.087341
v -100.043106 15.924660 300.087341
v -100.043106 15.924659 290.087341
v -90.043144 10.924649 290.087341
v -90.043144 23.424648 290.087341
v -90.043144 10.924650 300.087341
v -90.043144 3.424657 300.087341
v -100.043106 3.424657 300.087341
v -90.043144 3.424657 290.087341
v -90.043144 10.924650 300.087341
v -90.043144 10.924649 290.087341
v -80.043144 10.924649 290.087341
v -90.043144 20.924654 290.087341
v -80.043144 20.924654 290.087341
v -90.043144 20.924654 280.087341
v -90.043144 20.924654 270.087341
v -90.043144 23.424648 280.087341
v -80.043144 20.924654 280.087341
v -80.043144 18.424654 280.087341
v -80.043144 20.924654 270.087341
v -80.043144 10.924647 270.087341
v -80.043144 18.424654 270.087341
v -80.043144 3.424655 270.087341
v -90.043144 10.924647 270.087341
v -90.043144 3.424655 270.087341
v -90.043144 10.924647 260.087341
v -90.043144 3.424654 260.087341
v -100.043106 3.424654 260.087341
v -110.043121 5.924652 260.087341
v -100.043106 3.424655 270.087341
v -100.043106 3.424656 280.087341
v -110.043121 5.924653 270.087341
v -120.043144 8.424652 270.087341
v -110.043121 5.924653 280.087341
v -110.043121 5.924654 290.087341
v -120.043144 8.424653 280.087341
v -130.043106 10.924648 280.087341
v -120.043144 8.424654 290.087341
v -120.043144 8.424655 300.087341
v -130.043106 10.924649 290.087341
v -140.043121 13.424655 290.087341
v -140.043121 13.424654 280.087341
v -140.043121 13.424653 270.087341
v -140.043121 13.424653 260.087341
v -130.043106 10.924647 270.087341
v -130.043106 10.924647 260.087341
v -130.043106 23.424646 260.087341
v -120.043144 8.424652 260.087341
v -120.043144 10.924647 260.087341
v -140.043121 23.424646 260.087341
v -130.043106 33.424652 260.087341
v -130.043106 30.924652 260.087341
v -130.043106 30.924654 270.087341
v -120.043144 30.924652 260.087341
v -130.043106 30.924654 280.087341
v -130.043106 33.424652 270.087341
v -140.043121 33.424652 270.087341
v -130.043106 33.424656 280.087341
v -140.043121 33.424652 260.087341
v -140.043121 25.924652 260.087341
v -130.043106 30.924654 290.087341
v -110.043121 5.924655 300.087341
v -110.043121 10.924650 300.087341
v -100.043106 5.924655 300.087341
v -100.043106 3.424657 290.087341
v -90.043144 3.424656 280.087341
v -80.043144 3.424656 280.087341
v -80.043144 3.424657 290.087341
v -80.043144 18.424654 290.087341
vn -0.0000 -0.0000 1.0000
vn -0.0000 -1.0000 -0.0000
vn -0.0000 1.0000 -0.0000
vn -0.0000 -0.0000 -1.0000
vn -1.0000 -0.0000 -0.0000
vn -0.2182 -0.8729 -0.4364
vn 1.0000 -0.0000 -0.0000
vn -0.4083 -0.8165 -0.4082
vn -0.0000 -0.8944 -0.4472
vn -0.4472 -0.8944 -0.0000
vn 0.2425 0.9701 -0.0000
vn -0.4082 -0.8165 -0.4082
vt 0.501961 0.878431
vt 0.621569 0.998039
vt 0.501961 0.998039
vt 0.752941 0.878431
vt 0.872549 0.998039
vt 0.752941 0.998039
vt 0.252941 0.252941
vt 0.372549 0.278432
vt 0.252941 0.278432
vt 0.627451 0.498039
vt 0.747059 0.409804
vt 0.747059 0.498039
vt 0.501961 0.498039
vt 0.621569 0.378431
vt 0.621569 0.498039
vt 0.378431 0.372549
vt 0.378431 0.252941
vt 0.498039 0.372549
vt 0.872549 0.878431
vt 0.878431 0.498039
vt 0.998039 0.378431
vt 0.998039 0.498039
vt 0.501961 0.378431
vt 0.752941 0.498039
vt 0.872549 0.409804
vt 0.872549 0.498039
vt 0.627451 0.409804
vt 0.501961 0.909804
vt 0.501961 0.941177
vt 0.378431 0.378431
vt 0.498039 0.498039
vt 0.378431 0.498039
vt 0.252941 0.378431
vt 0.372549 0.498039
vt 0.252941 0.498039
vt 0.127451 0.252941
vt 0.247059 0.372549
vt 0.127451 0.372549
vt 0.752941 0.972549
vt 0.872549 0.941177
vt 0.752941 0.941177
vt 0.621569 0.878431
vt 0.372549 0.252941
vt 0.498039 0.252941
vt 0.878431 0.378431
vt 0.752941 0.409804
vt 0.621569 0.909804
vt 0.621569 0.941177
vt 0.498039 0.378431
vt 0.372549 0.378431
vt 0.247059 0.252941
s 0
usemtl Material.001
f 2/1/1 4/2/1 5/3/1
f 16/4/2 1/5/2 2/6/2
f 5/1/1 6/2/1 7/3/1
f 7/4/3 8/5/3 9/6/3
f 9/4/3 10/5/3 11/6/3
f 12/1/4 11/2/4 10/3/4
f 14/1/4 13/2/4 12/3/4
f 15/4/2 3/5/2 16/6/2
f 15/7/5 19/8/5 17/9/5
f 20/10/4 18/11/4 21/12/4
f 18/4/2 19/5/2 118/6/2
f 21/13/6 22/14/6 20/15/6
f 13/16/7 20/17/7 22/18/7
f 13/17/7 23/18/7 101/16/7
f 23/6/4 24/19/4 25/5/4
f 30/20/8 24/21/8 21/22/8
f 26/6/4 27/19/4 28/5/4
f 27/4/4 123/5/4 28/6/4
f 29/23/9 30/15/9 32/13/9
f 21/24/4 31/25/4 30/26/4
f 33/27/4 32/12/4 30/10/4
f 31/7/5 35/8/5 33/9/5
f 34/4/2 35/5/2 37/6/2
f 36/7/5 38/8/5 35/9/5
f 37/4/2 38/5/2 41/6/2
f 40/7/5 39/8/5 38/9/5
f 41/4/2 39/5/2 43/6/2
f 37/7/5 42/8/5 57/9/5
f 41/7/5 44/8/5 42/9/5
f 43/28/1 46/2/1 45/3/1
f 45/1/1 109/2/1 47/3/1
f 48/1/1 47/2/1 50/3/1
f 49/29/1 45/2/1 48/3/1
f 55/7/5 48/8/5 52/9/5
f 51/1/1 50/2/1 86/3/1
f 53/4/2 48/5/2 51/6/2
f 77/4/2 52/5/2 53/6/2
f 56/7/5 52/8/5 54/9/5
f 56/4/2 42/5/2 55/6/2
f 55/4/2 44/5/2 49/6/2
f 58/4/2 57/5/2 56/6/2
f 58/7/5 54/8/5 60/9/5
f 32/24/4 58/25/4 61/26/4
f 61/20/6 29/21/6 32/22/6
f 62/13/5 61/23/5 63/15/5
f 66/23/10 63/15/10 64/13/10
f 63/10/4 65/11/4 64/12/4
f 68/6/4 66/19/4 67/5/4
f 69/4/3 68/5/3 67/6/3
f 70/1/5 69/2/5 67/3/5
f 71/1/4 128/2/4 69/3/4
f 73/1/4 72/2/4 71/3/4
f 65/7/5 75/8/5 73/9/5
f 74/4/2 75/5/2 78/6/2
f 77/7/5 76/8/5 75/9/5
f 78/4/2 76/5/2 80/6/2
f 74/7/5 79/8/5 129/9/5
f 78/7/5 82/8/5 79/9/5
f 80/1/1 84/2/1 81/3/1
f 81/1/1 85/2/1 83/3/1
f 84/1/5 87/2/5 85/3/5
f 53/1/5 86/2/5 84/3/5
f 86/1/1 88/2/1 87/3/1
f 87/4/3 90/5/3 85/6/3
f 50/4/1 89/5/1 88/6/1
f 88/4/11 92/5/11 90/6/11
f 85/4/3 91/5/3 126/6/3
f 90/4/11 94/5/11 91/6/11
f 92/4/11 96/5/11 94/6/11
f 89/4/11 93/5/11 92/6/11
f 91/4/11 95/5/11 125/6/11
f 94/4/11 98/5/11 95/6/11
f 96/4/11 100/5/11 98/6/11
f 93/4/11 97/5/11 96/6/11
f 95/4/11 99/5/11 122/6/11
f 98/4/11 26/5/11 99/6/11
f 100/4/11 23/5/11 26/6/11
f 97/4/11 101/5/11 100/6/11
f 9/30/7 101/31/7 102/32/7
f 7/33/7 102/34/7 103/35/7
f 105/4/11 102/5/11 97/6/11
f 120/36/7 103/37/7 104/38/7
f 106/4/11 103/5/11 105/6/11
f 108/4/11 105/5/11 93/6/11
f 107/1/1 104/2/1 106/3/1
f 46/1/1 106/2/1 109/3/1
f 108/6/1 109/39/1 106/5/1
f 47/4/1 108/5/1 89/6/1
f 111/1/1 110/2/1 107/3/1
f 114/1/1 107/2/1 46/3/1
f 116/7/5 112/8/5 113/9/5
f 40/4/2 112/5/2 114/6/2
f 36/4/2 113/5/2 40/6/2
f 118/7/5 113/8/5 115/9/5
f 116/4/2 119/5/2 111/6/2
f 118/4/2 117/5/2 116/6/2
f 18/7/5 115/8/5 121/9/5
f 16/7/5 117/8/5 19/9/5
f 119/36/7 5/37/7 120/38/7
f 31/4/2 115/5/2 36/6/2
f 99/6/4 123/40/4 122/5/4
f 26/6/4 28/41/4 99/5/4
f 125/4/11 122/5/11 68/6/11
f 122/6/4 62/19/4 124/5/4
f 122/6/4 124/41/4 68/5/4
f 126/4/3 125/5/3 69/6/3
f 83/4/3 126/5/3 127/6/3
f 127/4/3 69/5/3 128/6/3
f 65/4/2 54/5/2 77/6/2
f 34/7/5 57/8/5 59/9/5
f 23/6/4 25/41/4 26/5/4
f 2/1/1 1/42/1 4/2/1
f 16/4/2 3/19/2 1/5/2
f 5/1/1 4/42/1 6/2/1
f 7/4/3 6/19/3 8/5/3
f 9/4/3 8/19/3 10/5/3
f 12/1/4 13/42/4 11/2/4
f 14/1/4 15/42/4 13/2/4
f 15/4/2 14/19/2 3/5/2
f 15/7/5 16/43/5 19/8/5
f 20/10/4 17/27/4 18/11/4
f 18/4/2 17/19/2 19/5/2
f 21/13/6 24/23/6 22/14/6
f 13/17/7 22/44/7 23/18/7
f 23/6/4 22/4/4 24/19/4
f 30/20/12 27/45/12 24/21/12
f 26/6/4 24/4/4 27/19/4
f 27/4/4 29/19/4 123/5/4
f 29/23/9 27/14/9 30/15/9
f 21/24/4 121/46/4 31/25/4
f 33/27/4 34/11/4 32/12/4
f 31/7/5 36/43/5 35/8/5
f 34/4/2 33/19/2 35/5/2
f 36/7/5 40/43/5 38/8/5
f 37/4/2 35/19/2 38/5/2
f 40/7/5 114/43/5 39/8/5
f 41/4/2 38/19/2 39/5/2
f 37/7/5 41/43/5 42/8/5
f 41/7/5 43/43/5 44/8/5
f 43/28/1 39/47/1 46/2/1
f 45/1/1 46/42/1 109/2/1
f 48/1/1 45/42/1 47/2/1
f 49/29/1 44/48/1 45/2/1
f 55/7/5 49/43/5 48/8/5
f 51/1/1 48/42/1 50/2/1
f 53/4/2 52/19/2 48/5/2
f 77/4/2 54/19/2 52/5/2
f 56/7/5 55/43/5 52/8/5
f 56/4/2 57/19/2 42/5/2
f 55/4/2 42/19/2 44/5/2
f 58/4/2 59/19/2 57/5/2
f 58/7/5 56/43/5 54/8/5
f 32/24/4 59/46/4 58/25/4
f 61/20/6 62/45/6 29/21/6
f 66/23/10 62/14/10 63/15/10
f 63/10/4 60/27/4 65/11/4
f 68/6/4 62/4/4 66/19/4
f 69/4/3 125/19/3 68/5/3
f 70/1/5 71/42/5 69/2/5
f 71/1/4 72/42/4 128/2/4
f 73/1/4 74/42/4 72/2/4
f 65/7/5 77/43/5 75/8/5
f 74/4/2 73/19/2 75/5/2
f 77/7/5 53/43/5 76/8/5
f 78/4/2 75/19/2 76/5/2
f 74/7/5 78/43/5 79/8/5
f 78/7/5 80/43/5 82/8/5
f 80/1/1 76/42/1 84/2/1
f 81/1/1 84/42/1 85/2/1
f 84/1/5 86/42/5 87/2/5
f 53/1/5 51/42/5 86/2/5
f 86/1/1 50/42/1 88/2/1
f 87/4/3 88/19/3 90/5/3
f 50/4/1 47/19/1 89/5/1
f 88/4/11 89/19/11 92/5/11
f 85/4/3 90/19/3 91/5/3
f 90/4/11 92/19/11 94/5/11
f 92/4/11 93/19/11 96/5/11
f 89/4/11 108/19/11 93/5/11
f 91/4/11 94/19/11 95/5/11
f 94/4/11 96/19/11 98/5/11
f 96/4/11 97/19/11 100/5/11
f 93/4/11 105/19/11 97/5/11
f 95/4/11 98/19/11 99/5/11
f 98/4/11 100/19/11 26/5/11
f 100/4/11 101/19/11 23/5/11
f 97/4/11 102/19/11 101/5/11
f 9/30/7 11/49/7 101/31/7
f 7/33/7 9/50/7 102/34/7
f 105/4/11 103/19/11 102/5/11
f 120/36/7 5/51/7 103/37/7
f 106/4/11 104/19/11 103/5/11
f 108/4/11 106/19/11 105/5/11
f 107/1/1 110/42/1 104/2/1
f 46/1/1 107/42/1 106/2/1
f 47/4/1 109/19/1 108/5/1
f 111/1/1 119/42/1 110/2/1
f 114/1/1 112/42/1 107/2/1
f 116/7/5 111/43/5 112/8/5
f 40/4/2 113/19/2 112/5/2
f 36/4/2 115/19/2 113/5/2
f 118/7/5 116/43/5 113/8/5
f 116/4/2 117/19/2 119/5/2
f 118/4/2 19/19/2 117/5/2
f 18/7/5 118/43/5 115/8/5
f 16/7/5 2/43/5 117/8/5
f 119/36/7 117/51/7 5/37/7
f 31/4/2 121/19/2 115/5/2
f 99/6/4 28/41/4 123/40/4
f 125/4/11 95/19/11 122/5/11
f 122/6/4 29/4/4 62/19/4
f 126/4/3 91/19/3 125/5/3
f 83/4/3 85/19/3 126/5/3
f 127/4/3 126/19/3 69/5/3
f 65/4/2 60/19/2 54/5/2
f 34/7/5 37/43/5 57/8/5
