# Blender 5.1.2
# www.blender.org
mtllib room17.mtl
o 01-Caves.017
v -210.043121 18.424631 -29.912653
v -210.043121 15.924635 -29.912653
v -210.043121 18.424631 -19.912655
v -210.043121 33.424629 -29.912653
v -200.043121 33.424629 -29.912653
v -210.043121 33.424633 -19.912655
v -200.043121 33.424633 -19.912655
v -210.043121 33.424633 -9.912655
v -210.043121 18.424633 -9.912653
v -210.043121 33.424633 0.087345
v -200.043121 33.424633 -9.912655
v -200.043121 33.424633 0.087345
v -190.043121 33.424633 -9.912655
v -190.043121 33.424633 0.087345
v -180.043121 33.424633 -9.912655
v -190.043121 33.424633 -19.912655
v -190.043121 33.424629 -29.912653
v -180.043121 33.424633 -19.912655
v -180.043121 33.424629 -29.912653
v -180.043121 15.924635 -19.912655
v -170.043121 33.424633 -19.912655
v -170.043121 15.924635 -19.912655
v -160.043121 33.424633 -19.912655
v -170.043121 28.424635 -19.912655
v -170.043121 33.424633 -9.912655
v -170.043121 33.424633 0.087345
v -160.043121 33.424633 -9.912655
v -160.043121 33.424633 0.087345
v -150.043121 33.424633 -9.912655
v -150.043121 23.424627 -9.912654
v -150.043121 33.424633 0.087345
v -150.043121 33.424633 -19.912655
v -150.043121 33.424629 -29.912653
v -160.043121 30.924631 -19.912655
v -150.043121 20.924631 -19.912655
v -160.043121 18.424631 -19.912655
v -150.043121 20.924631 -29.912653
v -160.043121 18.424631 -29.912653
v -170.043121 15.924635 -29.912653
v -170.043121 28.424635 -29.912653
v -160.043121 30.924631 -29.912653
v -160.043121 20.924633 -9.912654
v -160.043121 25.924633 0.087346
v -170.043121 18.424633 -9.912653
v -170.043121 23.424627 0.087346
v -180.043121 18.424633 -9.912653
v -180.043121 23.424627 0.087346
v -190.043121 15.924636 -9.912653
v -190.043121 13.424631 -19.912655
v -200.043121 15.924636 -9.912653
v -190.043121 20.924633 0.087346
v -200.043121 20.924633 0.087346
v -210.043121 23.424627 0.087346
v -200.043121 13.424631 -19.912655
v -200.043121 13.424631 -29.912653
v -210.043121 15.924635 -19.912655
v -190.043121 13.424631 -29.912653
v -180.043121 15.924635 -29.912653
v -180.043121 33.424633 0.087345
v -150.043121 28.424637 0.087346
vn 1.0000 -0.0000 -0.0000
vn -0.0000 -1.0000 -0.0000
vn -1.0000 -0.0000 -0.0000
vn -0.0000 -0.0000 1.0000
vn 0.2425 -0.9701 -0.0000
vn -0.2357 0.9428 -0.2357
vn -0.2425 0.9701 -0.0000
vn -0.2182 0.8729 -0.4364
vn -0.0000 0.9701 -0.2425
vn -0.0000 0.8944 -0.4472
vn -0.0000 -0.0000 -1.0000
vn 0.2182 0.8729 -0.4364
vn 0.2357 0.9428 -0.2357
vn -0.0000 1.0000 -0.0000
vn 0.2425 0.9701 -0.0000
vt 0.752941 0.972549
vt 0.872549 0.998039
vt 0.752941 0.998039
vt 0.752941 0.878431
vt 0.378431 0.627451
vt 0.498039 0.747059
vt 0.378431 0.747059
vt 0.127451 0.627451
vt 0.247059 0.747059
vt 0.127451 0.747059
vt 0.001961 0.627451
vt 0.121569 0.747059
vt 0.001961 0.747059
vt 0.252941 0.747059
vt 0.372549 0.690196
vt 0.372549 0.747059
vt 0.247059 0.627451
vt 0.121569 0.627451
vt 0.378431 0.690196
vt 0.001961 0.878431
vt 0.121569 0.998039
vt 0.001961 0.998039
vt 0.001961 0.621569
vt 0.121569 0.501961
vt 0.121569 0.621569
vt 0.127451 0.501961
vt 0.247059 0.621569
vt 0.127451 0.621569
vt 0.001961 0.501961
vt 0.247059 0.501961
vt 0.372549 0.627451
vt 0.498039 0.627451
vt 0.872549 0.972549
vt 0.872549 0.878431
vt 0.252941 0.690196
vt 0.121569 0.878431
vt 0.252941 0.627451
s 0
usemtl Material.001
f 1/1/1 56/2/1 2/3/1
f 4/4/1 3/2/1 1/3/1
f 7/4/2 4/2/2 5/3/2
f 11/4/2 6/2/2 7/3/2
f 8/5/1 53/6/1 9/7/1
f 12/4/2 8/2/2 11/3/2
f 14/4/2 11/2/2 13/3/2
f 13/4/2 7/2/2 16/3/2
f 59/4/2 13/2/2 15/3/2
f 15/4/2 16/2/2 18/3/2
f 18/4/2 17/2/2 19/3/2
f 16/4/2 5/2/2 17/3/2
f 18/8/3 58/9/3 20/10/3
f 21/11/4 20/12/4 22/13/4
f 25/4/2 18/2/2 21/3/2
f 27/4/2 21/2/2 23/3/2
f 34/14/4 21/15/4 24/16/4
f 28/4/2 25/2/2 27/3/2
f 26/4/2 15/2/2 25/3/2
f 31/4/2 27/2/2 29/3/2
f 29/4/2 23/2/2 32/3/2
f 60/10/3 29/17/3 30/9/3
f 30/13/3 32/18/3 35/12/3
f 32/8/3 37/9/3 35/10/3
f 32/11/5 41/12/5 33/13/5
f 32/7/4 23/19/4 34/6/4
f 35/4/6 42/2/6 30/3/6
f 37/20/7 36/21/7 35/22/7
f 38/4/7 22/2/7 36/3/7
f 40/8/1 22/9/1 39/10/1
f 34/8/5 40/9/5 41/10/5
f 36/4/6 44/2/6 42/3/6
f 30/4/8 43/2/8 60/3/8
f 42/20/8 45/21/8 43/22/8
f 22/4/9 46/2/9 44/3/9
f 44/20/10 47/21/10 45/22/10
f 20/4/6 48/2/6 46/3/6
f 46/23/8 51/24/8 47/25/8
f 48/26/9 54/27/9 50/28/9
f 51/29/10 50/25/10 52/23/10
f 47/28/11 14/30/11 59/27/11
f 12/8/11 51/9/11 52/10/11
f 53/13/11 12/18/11 52/12/11
f 52/14/12 9/31/12 53/16/12
f 56/7/13 50/32/13 54/6/13
f 57/4/14 54/2/14 49/3/14
f 56/20/15 55/21/15 2/22/15
f 58/4/7 49/2/7 20/3/7
f 59/4/11 45/2/11 47/3/11
f 26/4/11 43/2/11 45/3/11
f 28/29/11 60/25/11 43/23/11
f 1/1/1 3/33/1 56/2/1
f 4/4/1 6/34/1 3/2/1
f 7/4/2 6/34/2 4/2/2
f 11/4/2 8/34/2 6/2/2
f 8/5/1 10/32/1 53/6/1
f 12/4/2 10/34/2 8/2/2
f 14/4/2 12/34/2 11/2/2
f 13/4/2 11/34/2 7/2/2
f 59/4/2 14/34/2 13/2/2
f 15/4/2 13/34/2 16/2/2
f 18/4/2 16/34/2 17/2/2
f 16/4/2 7/34/2 5/2/2
f 18/8/3 19/17/3 58/9/3
f 21/11/4 18/18/4 20/12/4
f 25/4/2 15/34/2 18/2/2
f 27/4/2 25/34/2 21/2/2
f 34/14/4 23/35/4 21/15/4
f 28/4/2 26/34/2 25/2/2
f 26/4/2 59/34/2 15/2/2
f 31/4/2 28/34/2 27/2/2
f 29/4/2 27/34/2 23/2/2
f 60/10/3 31/8/3 29/17/3
f 30/13/3 29/11/3 32/18/3
f 32/8/3 33/17/3 37/9/3
f 32/11/5 34/18/5 41/12/5
f 35/4/6 36/34/6 42/2/6
f 37/20/7 38/36/7 36/21/7
f 38/4/7 39/34/7 22/2/7
f 40/8/1 24/17/1 22/9/1
f 34/8/5 24/17/5 40/9/5
f 36/4/6 22/34/6 44/2/6
f 30/4/8 42/34/8 43/2/8
f 42/20/8 44/36/8 45/21/8
f 22/4/9 20/34/9 46/2/9
f 44/20/10 46/36/10 47/21/10
f 20/4/6 49/34/6 48/2/6
f 46/23/8 48/29/8 51/24/8
f 48/26/9 49/30/9 54/27/9
f 51/29/10 48/24/10 50/25/10
f 47/28/11 51/26/11 14/30/11
f 12/8/11 14/17/11 51/9/11
f 53/13/11 10/11/11 12/18/11
f 52/14/12 50/37/12 9/31/12
f 56/7/13 9/5/13 50/32/13
f 57/4/14 55/34/14 54/2/14
f 56/20/15 54/36/15 55/21/15
f 58/4/7 57/34/7 49/2/7
f 59/4/11 26/34/11 45/2/11
f 26/4/11 28/34/11 43/2/11
f 28/29/11 31/24/11 60/25/11
