# Blender 5.1.2
# www.blender.org
mtllib room27.mtl
o 01-Caves.027
v -0.043122 13.424635 30.087385
v -0.043122 13.424636 40.087349
v -0.043122 15.924639 30.087385
v -0.043122 15.924640 40.087349
v 9.956879 35.924633 30.087385
v -0.043122 13.424635 30.087385
v 9.956879 13.424635 30.087385
v 9.956879 13.424635 20.087347
v 9.956879 35.924629 20.087347
v 19.956879 13.424635 20.087347
v 9.956879 20.924635 20.087347
v 19.956879 20.924635 20.087347
v 9.956879 30.924635 20.087347
v 19.956879 30.924635 20.087347
v 9.956879 38.424633 20.087345
v 19.956879 38.424633 20.087345
v 9.956879 38.424637 30.087383
v 19.956879 38.424637 30.087383
v 9.956879 38.424637 40.087349
v 19.956879 38.424637 40.087349
v 9.956879 38.424637 50.087349
v 9.956879 35.924633 40.087349
v 9.956879 35.924633 50.087349
v -0.043122 15.924641 50.087349
v 9.956879 35.924633 60.087349
v -0.043122 15.924642 60.087349
v 9.956879 38.424637 60.087349
v 9.956879 35.924633 70.087349
v -0.043122 15.924643 70.087349
v 9.956879 38.424637 70.087349
v 9.956879 35.924637 80.087349
v -0.043122 15.924643 80.087349
v 9.956879 38.424641 80.087349
v 9.956879 35.924637 90.087349
v -0.043122 15.924644 90.087349
v 9.956879 38.424641 90.087349
v 9.956879 35.924637 100.087349
v -0.043122 15.924644 100.087349
v 9.956879 38.424641 100.087349
v 9.956879 35.924637 110.087349
v -0.043122 15.924645 110.087349
v 9.956879 38.424641 110.087349
v 9.956879 35.924637 120.087349
v -0.043122 15.924646 120.087349
v 9.956879 38.424641 120.087349
v 9.956879 35.924641 130.087265
v -0.043122 15.924646 130.087265
v 9.956879 35.924641 140.087341
v 9.956879 38.424644 130.087265
v 9.956879 33.424644 140.087341
v 19.956879 35.924641 130.087265
v 19.956879 38.424644 130.087265
v 19.956879 33.424644 140.087341
v 19.956879 28.424648 140.087341
v 19.956879 35.924641 140.087341
v 29.956879 35.924641 140.087341
v 19.956879 38.424644 150.087341
v 29.956879 38.424644 150.087341
v 19.956879 38.424644 160.087265
v 19.956879 25.924644 150.087341
v 9.956879 25.924644 150.087341
v 19.956879 23.424639 160.087265
v 9.956879 23.424639 160.087265
v 19.956879 20.924644 160.087265
v 19.956879 20.924646 170.087341
v 19.956879 35.924641 160.087265
v 9.956879 18.424644 160.087265
v -0.043122 15.924649 160.087265
v 9.956879 18.424646 170.087341
v 9.956879 18.424646 180.087341
v 9.956879 13.424645 170.087341
v -0.043122 15.924649 170.087341
v -0.043122 13.424645 170.087341
v -0.043122 15.924650 180.087341
v -0.043122 13.424646 180.087341
v 9.956879 13.424646 180.087341
v -0.043122 13.424645 160.087265
v -0.043122 13.424644 150.087341
v -0.043122 15.924648 150.087341
v -0.043122 13.424644 140.087341
v -0.043122 13.424643 130.087265
v -0.043122 15.924647 140.087341
v 9.956879 28.424648 140.087341
v 9.956879 28.424648 150.087341
v 9.956879 23.424639 150.087341
v -0.043122 13.424643 120.087349
v -0.043122 13.424642 110.087349
v -0.043122 13.424641 100.087349
v -0.043122 13.424640 90.087349
v -0.043122 13.424639 80.087349
v -0.043122 13.424639 70.087349
v -0.043122 13.424638 60.087349
v -0.043122 13.424637 50.087349
v 9.956879 13.424646 180.087341
v 19.956879 13.424645 170.087341
v 19.956879 13.424646 180.087341
v 19.956879 20.924646 170.087341
v 19.956879 20.924646 180.087341
v 19.956879 28.424650 170.087341
v 19.956879 28.424650 180.087341
v 19.956879 33.424644 170.087341
v 29.956879 33.424644 170.087341
v 19.956879 33.424648 180.087341
v 19.956879 35.924641 170.087341
v 29.956879 35.924641 170.087341
v 39.956879 35.924641 170.087341
v 29.956879 35.924641 160.087265
v 29.956879 38.424644 160.087265
v 39.956879 35.924641 160.087265
v 39.956879 38.424644 160.087265
v 39.956879 38.424644 150.087341
v 49.956879 38.424644 160.087265
v 39.956879 38.424644 170.087341
v 49.956879 38.424644 170.087341
v 39.956879 28.424650 170.087341
v 49.956879 28.424650 170.087341
v 39.956879 28.424650 180.087341
v 39.956879 20.924646 170.087341
v 39.956879 33.424644 170.087341
v 39.956879 33.424648 180.087341
v 29.956879 33.424648 180.087341
v 39.956879 20.924646 180.087341
v 39.956879 13.424645 170.087341
v 49.956879 20.924646 170.087341
v 49.956879 13.424645 170.087341
v 59.956879 13.424645 170.087341
v 49.956879 35.924641 170.087341
v 59.956879 15.924649 170.087341
v 49.956879 35.924641 160.087265
v 49.956879 35.924641 150.087341
v 59.956879 15.924649 160.087265
v 59.956879 13.424645 160.087265
v 59.956879 15.924648 150.087341
v 59.956879 15.924647 140.087341
v 59.956879 13.424644 150.087341
v 59.956879 13.424644 140.087341
v 59.956879 13.424643 130.087265
v 59.956879 13.424643 120.087349
v 59.956879 15.924646 130.087265
v 59.956879 15.924646 120.087349
v 49.956879 35.924641 130.087265
v 49.956879 38.424644 130.087265
v 49.956879 35.924641 140.087341
v 49.956879 35.924637 120.087349
v 49.956879 38.424641 120.087349
v 49.956879 35.924637 110.087349
v 59.956879 15.924645 110.087349
v 49.956879 35.924637 100.087349
v 49.956879 38.424641 110.087349
v 39.956879 38.424641 110.087349
v 49.956879 38.424641 100.087349
v 39.956879 38.424641 100.087349
v 49.956879 38.424641 90.087349
v 49.956879 38.424641 80.087349
v 49.956879 35.924637 90.087349
v 39.956879 38.424641 90.087349
v 39.956879 38.424641 80.087349
v 29.956879 38.424641 90.087349
v 19.956879 38.424641 90.087349
v 29.956879 38.424641 80.087349
v 29.956879 38.424641 100.087349
v 19.956879 38.424641 100.087349
v 29.956879 38.424641 110.087349
v 19.956879 38.424641 110.087349
v 29.956879 38.424641 120.087349
v 39.956879 38.424641 120.087349
v 29.956879 38.424644 130.087265
v 19.956879 38.424641 120.087349
v 39.956879 38.424644 130.087265
v 29.956879 38.424644 140.087341
v 39.956879 38.424644 140.087341
v 49.956879 38.424644 140.087341
v 49.956879 38.424644 150.087341
v 29.956879 38.424637 70.087349
v 19.956879 38.424641 80.087349
v 19.956879 38.424637 70.087349
v 19.956879 38.424637 60.087349
v 19.956879 38.424637 50.087349
v 29.956879 38.424637 60.087349
v 29.956879 38.424637 50.087349
v 39.956879 38.424637 60.087349
v 39.956879 38.424637 70.087349
v 49.956879 38.424637 60.087349
v 39.956879 38.424637 50.087349
v 39.956879 38.424637 40.087349
v 49.956879 38.424637 50.087349
v 49.956879 38.424637 40.087349
v 49.956879 35.924633 50.087349
v 49.956879 35.924633 60.087349
v 59.956879 15.924641 50.087349
v 49.956879 35.924633 40.087349
v 49.956879 35.924633 30.087385
v 59.956879 15.924640 40.087349
v 59.956879 13.424636 40.087349
v 59.956879 15.924639 30.087385
v 59.956879 13.424635 30.087385
v 59.956879 13.424635 30.087385
v 49.956879 13.424635 30.087385
v 49.956879 13.424635 20.087347
v 39.956879 13.424635 20.087347
v 49.956879 18.424635 20.087347
v 49.956879 35.924629 20.087347
v 49.956879 35.924629 10.087345
v 49.956879 38.424633 20.087345
v 49.956879 38.424633 10.087345
v 39.956879 38.424633 20.087345
v 49.956879 38.424637 30.087383
v 39.956879 38.424637 30.087383
v 29.956879 38.424637 30.087383
v 29.956879 38.424637 40.087349
v 29.956879 38.424633 20.087345
v 29.956879 38.424633 10.087345
v 29.956879 38.424633 0.087345
v 19.956879 38.424633 10.087345
v 39.956879 38.424633 10.087345
v 39.956879 38.424633 0.087345
v 39.956879 28.424637 10.087346
v 39.956879 18.424633 10.087347
v 39.956879 28.424637 0.087346
v 49.956879 28.424637 10.087346
v 49.956879 18.424633 10.087347
v 39.956879 13.424634 10.087347
v 29.956879 13.424634 10.087347
v 29.956879 18.424633 10.087347
v 19.956879 13.424634 10.087347
v 19.956879 18.424633 10.087347
v 19.956879 20.924633 10.087346
v 19.956879 30.924633 10.087346
v 19.956879 28.424637 10.087346
v 19.956879 18.424633 0.087346
v 19.956879 28.424637 0.087346
v 29.956879 18.424633 0.087346
v 39.956879 18.424633 0.087346
v 19.956879 38.424633 0.087345
v 59.956879 13.424637 50.087349
v 59.956879 13.424638 60.087349
v 59.956879 15.924642 60.087349
v 59.956879 13.424639 70.087349
v 59.956879 13.424639 80.087349
v 59.956879 15.924643 70.087349
v 49.956879 35.924633 70.087349
v 59.956879 15.924643 80.087349
v 59.956879 15.924644 90.087349
v 49.956879 35.924637 80.087349
v 59.956879 13.424640 90.087349
v 59.956879 15.924644 100.087349
v 59.956879 13.424641 100.087349
v 59.956879 13.424642 110.087349
v 49.956879 38.424637 70.087349
v 59.956879 13.424645 170.087341
v 39.956879 13.424646 180.087341
vn 1.0000 -0.0000 -0.0000
vn 0.8944 -0.4472 -0.0000
vn -0.0000 -0.0000 1.0000
vn -0.0000 -1.0000 -0.0000
vn -1.0000 -0.0000 -0.0000
vn -0.0000 -0.0000 -1.0000
vn -0.0000 -0.9701 -0.2425
vn -0.0000 -0.9701 0.2425
vn 0.2425 -0.9701 -0.0000
vn 0.7809 -0.6247 -0.0000
vn 0.6000 -0.8000 -0.0000
vn -0.8944 -0.4472 -0.0000
vn -0.4472 0.8944 -0.0000
vn -0.0000 1.0000 -0.0000
vt 0.252941 0.252941
vt 0.372549 0.278432
vt 0.252941 0.278432
vt 0.627451 0.127451
vt 0.747059 0.247059
vt 0.627451 0.247059
vt 0.627451 0.878431
vt 0.747059 0.998039
vt 0.627451 0.998039
vt 0.752941 0.127451
vt 0.872549 0.247059
vt 0.752941 0.247059
vt 0.752941 0.878431
vt 0.872549 0.998039
vt 0.752941 0.998039
vt 0.501961 0.247059
vt 0.501961 0.127451
vt 0.621569 0.247059
vt 0.501961 0.441177
vt 0.621569 0.498039
vt 0.501961 0.498039
vt 0.878431 0.378431
vt 0.998039 0.498039
vt 0.878431 0.498039
vt 0.621569 0.378431
vt 0.752941 0.378431
vt 0.872549 0.498039
vt 0.752941 0.498039
vt 0.627451 0.378431
vt 0.747059 0.498039
vt 0.627451 0.498039
vt 0.501961 0.378431
vt 0.752941 0.158823
vt 0.501961 0.472549
vt 0.627451 0.472549
vt 0.752941 0.909804
vt 0.627451 0.001961
vt 0.747059 0.121569
vt 0.627451 0.121569
vt 0.872549 0.878431
vt 0.752941 0.972549
vt 0.501961 0.878431
vt 0.621569 0.998039
vt 0.501961 0.998039
vt 0.127451 0.498039
vt 0.127451 0.378431
vt 0.247059 0.498039
vt 0.252941 0.378431
vt 0.372549 0.498039
vt 0.252941 0.498039
vt 0.378431 0.378431
vt 0.498039 0.498039
vt 0.378431 0.498039
vt 0.372549 0.252941
vt 0.747059 0.127451
vt 0.747059 0.878431
vt 0.872549 0.127451
vt 0.621569 0.441177
vt 0.998039 0.378431
vt 0.872549 0.378431
vt 0.747059 0.378431
vt 0.621569 0.127451
vt 0.872549 0.158823
vt 0.747059 0.472549
vt 0.872549 0.909804
vt 0.747059 0.001961
vt 0.621569 0.878431
vt 0.372549 0.378431
vt 0.498039 0.378431
s 0
usemtl Material.001
f 3/1/1 2/2/1 1/3/1
f 5/4/2 4/5/2 3/6/2
f 3/7/3 7/8/3 5/9/3
f 9/7/1 7/8/1 8/9/1
f 12/10/3 8/11/3 10/12/3
f 14/10/3 11/11/3 12/12/3
f 16/10/3 13/11/3 14/12/3
f 18/13/4 15/14/4 16/15/4
f 15/1/1 5/2/1 9/3/1
f 20/13/4 17/14/4 18/15/4
f 17/1/1 22/2/1 5/3/1
f 178/13/4 19/14/4 20/15/4
f 19/1/1 23/2/1 22/3/1
f 22/4/2 24/5/2 4/6/2
f 23/4/2 26/5/2 24/6/2
f 21/1/1 25/2/1 23/3/1
f 25/4/2 29/5/2 26/6/2
f 27/1/1 28/2/1 25/3/1
f 28/4/2 32/5/2 29/6/2
f 30/1/1 31/2/1 28/3/1
f 31/4/2 35/5/2 32/6/2
f 33/1/1 34/2/1 31/3/1
f 34/4/2 38/5/2 35/6/2
f 36/1/1 37/2/1 34/3/1
f 37/4/2 41/5/2 38/6/2
f 39/1/1 40/2/1 37/3/1
f 40/4/2 44/5/2 41/6/2
f 42/1/1 43/2/1 40/3/1
f 43/4/2 47/5/2 44/6/2
f 45/1/1 46/2/1 43/3/1
f 46/13/2 82/14/2 47/15/2
f 50/16/5 48/17/5 46/18/5
f 49/19/6 51/20/6 46/21/6
f 51/22/7 50/23/7 46/24/7
f 51/21/1 55/25/1 53/20/1
f 50/19/6 54/20/6 83/21/6
f 56/26/7 52/27/7 167/28/7
f 55/29/1 60/30/1 54/31/1
f 57/17/8 56/18/8 58/16/8
f 108/17/4 57/18/4 58/16/4
f 60/21/1 59/25/1 62/20/1
f 60/26/7 83/27/7 54/28/7
f 62/22/7 61/23/7 60/24/7
f 63/19/6 64/20/6 67/21/6
f 66/32/1 65/20/1 64/21/1
f 65/26/9 67/27/9 64/28/9
f 68/21/6 63/19/6 67/20/6
f 69/29/9 68/30/9 67/31/9
f 70/33/5 71/11/5 94/12/5
f 70/32/9 72/20/9 69/21/9
f 69/33/6 95/11/6 71/12/6
f 68/1/1 73/2/1 77/3/1
f 72/1/1 75/2/1 73/3/1
f 74/13/6 76/14/6 75/15/6
f 79/1/1 77/2/1 78/3/1
f 82/1/1 78/2/1 80/3/1
f 47/1/1 80/2/1 81/3/1
f 82/15/6 48/13/6 83/14/6
f 83/17/10 79/18/10 82/16/10
f 61/16/5 84/17/5 83/18/5
f 79/21/6 84/19/6 85/20/6
f 63/26/11 79/27/11 85/28/11
f 85/21/1 61/34/1 63/20/1
f 44/1/1 81/2/1 86/3/1
f 41/1/1 86/2/1 87/3/1
f 38/1/1 87/2/1 88/3/1
f 35/1/1 88/2/1 89/3/1
f 32/1/1 89/2/1 90/3/1
f 29/1/1 90/2/1 91/3/1
f 26/1/1 91/2/1 92/3/1
f 24/1/1 92/2/1 93/3/1
f 4/1/1 93/2/1 2/3/1
f 97/10/1 96/11/1 95/12/1
f 99/10/1 98/11/1 97/12/1
f 101/10/1 100/11/1 99/12/1
f 104/1/6 102/2/6 101/3/6
f 103/13/4 102/14/4 121/15/4
f 104/17/4 107/18/4 105/16/4
f 105/1/6 119/2/6 102/3/6
f 105/13/4 109/14/4 106/15/4
f 59/35/6 107/30/6 66/31/6
f 108/1/6 109/2/6 107/3/6
f 110/36/1 106/14/1 109/15/1
f 110/13/4 58/14/4 111/15/4
f 112/13/4 111/14/4 173/15/4
f 114/13/4 110/14/4 112/15/4
f 113/37/6 116/38/6 115/39/6
f 115/10/6 124/11/6 118/12/6
f 117/10/5 118/11/5 122/12/5
f 120/10/5 115/11/5 117/12/5
f 120/13/4 102/14/4 119/15/4
f 122/10/5 123/11/5 251/12/5
f 118/10/6 125/11/6 123/12/6
f 125/15/6 128/40/6 126/14/6
f 127/4/12 131/5/12 128/6/12
f 114/1/5 129/2/5 127/3/5
f 112/1/5 130/2/5 129/3/5
f 129/4/12 133/5/12 131/6/12
f 128/1/5 132/2/5 250/3/5
f 131/1/5 135/2/5 132/3/5
f 130/4/12 134/5/12 133/6/12
f 133/1/5 136/2/5 135/3/5
f 134/1/5 137/2/5 136/3/5
f 139/1/5 138/2/5 137/3/5
f 141/4/12 140/5/12 139/6/12
f 143/4/12 139/5/12 134/6/12
f 172/1/5 141/2/5 143/3/5
f 142/1/5 144/2/5 141/3/5
f 145/1/5 146/2/5 144/3/5
f 144/4/12 147/5/12 140/6/12
f 146/4/12 246/5/12 147/6/12
f 149/1/5 148/2/5 146/3/5
f 145/13/4 150/14/4 149/15/4
f 149/13/4 152/14/4 151/15/4
f 156/13/4 151/14/4 152/15/4
f 151/1/5 155/2/5 148/3/5
f 153/1/5 244/2/5 155/3/5
f 153/13/4 157/14/4 154/15/4
f 156/13/4 160/14/4 157/15/4
f 161/13/4 156/14/4 152/15/4
f 159/13/4 161/14/4 162/15/4
f 158/13/4 175/14/4 160/15/4
f 163/13/4 162/14/4 161/15/4
f 150/13/4 161/14/4 152/15/4
f 165/13/4 164/14/4 163/15/4
f 166/13/4 163/14/4 150/15/4
f 169/13/4 165/14/4 166/15/4
f 167/17/4 168/18/4 165/16/4
f 168/13/4 42/14/4 164/15/4
f 168/17/4 49/18/4 45/16/4
f 170/13/4 169/14/4 171/15/4
f 167/15/1 170/41/1 56/14/1
f 111/13/4 170/14/4 171/15/4
f 56/15/1 170/41/1 58/14/1
f 173/13/4 171/14/4 172/15/4
f 172/13/4 169/14/4 142/15/4
f 173/1/5 143/2/5 130/3/5
f 142/13/4 166/14/4 145/15/4
f 164/13/4 39/14/4 162/15/4
f 162/13/4 36/14/4 159/15/4
f 157/13/4 174/14/4 182/15/4
f 160/13/4 176/14/4 174/15/4
f 175/13/4 30/14/4 176/15/4
f 33/13/4 159/14/4 36/15/4
f 174/13/4 177/14/4 179/15/4
f 176/13/4 27/14/4 177/15/4
f 179/13/4 178/14/4 180/15/4
f 177/13/4 21/14/4 178/15/4
f 181/13/4 180/14/4 184/15/4
f 182/13/4 179/14/4 181/15/4
f 249/13/4 181/14/4 183/15/4
f 183/13/4 184/14/4 186/15/4
f 186/13/4 185/14/4 187/15/4
f 184/13/4 210/14/4 185/15/4
f 186/1/5 191/2/5 188/3/5
f 183/1/5 188/2/5 189/3/5
f 189/4/12 190/5/12 237/6/12
f 188/4/12 193/5/12 190/6/12
f 191/4/12 195/5/12 193/6/12
f 187/1/5 192/2/5 191/3/5
f 190/1/5 194/2/5 235/3/5
f 193/1/5 197/2/5 194/3/5
f 195/7/3 198/8/3 196/9/3
f 192/7/5 199/8/5 198/9/5
f 199/12/3 201/10/3 200/11/3
f 202/7/5 221/8/5 201/9/5
f 204/1/5 203/2/5 202/3/5
f 207/1/5 202/2/5 192/3/5
f 204/13/4 215/14/4 205/15/4
f 207/13/4 206/14/4 204/15/4
f 187/13/4 208/14/4 207/15/4
f 185/13/4 209/14/4 208/15/4
f 208/13/4 211/14/4 206/15/4
f 210/13/4 18/14/4 209/15/4
f 209/13/4 16/14/4 211/15/4
f 211/13/4 214/14/4 212/15/4
f 206/13/4 212/14/4 215/15/4
f 215/13/4 213/14/4 216/15/4
f 212/13/4 234/14/4 213/15/4
f 215/42/5 219/43/5 217/44/5
f 205/10/3 217/11/3 220/12/3
f 220/10/3 218/11/3 221/12/3
f 217/42/5 233/43/5 218/44/5
f 221/42/13 200/43/13 201/44/13
f 221/45/3 218/46/3 222/47/3
f 218/48/3 223/49/3 222/50/3
f 224/51/3 225/52/3 223/53/3
f 227/10/1 10/11/1 225/12/1
f 228/10/1 12/11/1 227/12/1
f 214/10/1 14/11/1 228/12/1
f 231/42/1 226/43/1 230/44/1
f 232/42/14 226/43/14 224/44/14
f 233/42/14 224/43/14 218/44/14
f 234/42/1 229/43/1 231/44/1
f 180/13/4 20/14/4 210/15/4
f 237/1/5 235/2/5 236/3/5
f 240/1/5 236/2/5 238/3/5
f 242/1/5 238/2/5 239/3/5
f 241/4/12 237/5/12 240/6/12
f 244/4/12 240/5/12 242/6/12
f 243/1/5 239/2/5 245/3/5
f 155/4/12 242/5/12 243/6/12
f 154/1/5 241/2/5 244/3/5
f 148/4/12 243/5/12 246/6/12
f 246/1/5 245/2/5 247/3/5
f 147/1/5 247/2/5 248/3/5
f 140/1/5 248/2/5 138/3/5
f 249/1/5 189/2/5 241/3/5
f 154/13/4 182/14/4 249/15/4
f 3/1/1 4/54/1 2/2/1
f 5/4/2 22/55/2 4/5/2
f 3/7/3 6/56/3 7/8/3
f 9/7/1 5/56/1 7/8/1
f 12/10/3 11/57/3 8/11/3
f 14/10/3 13/57/3 11/11/3
f 16/10/3 15/57/3 13/11/3
f 18/13/4 17/40/4 15/14/4
f 15/1/1 17/54/1 5/2/1
f 20/13/4 19/40/4 17/14/4
f 17/1/1 19/54/1 22/2/1
f 178/13/4 21/40/4 19/14/4
f 19/1/1 21/54/1 23/2/1
f 22/4/2 23/55/2 24/5/2
f 23/4/2 25/55/2 26/5/2
f 21/1/1 27/54/1 25/2/1
f 25/4/2 28/55/2 29/5/2
f 27/1/1 30/54/1 28/2/1
f 28/4/2 31/55/2 32/5/2
f 30/1/1 33/54/1 31/2/1
f 31/4/2 34/55/2 35/5/2
f 33/1/1 36/54/1 34/2/1
f 34/4/2 37/55/2 38/5/2
f 36/1/1 39/54/1 37/2/1
f 37/4/2 40/55/2 41/5/2
f 39/1/1 42/54/1 40/2/1
f 40/4/2 43/55/2 44/5/2
f 42/1/1 45/54/1 43/2/1
f 43/4/2 46/55/2 47/5/2
f 45/1/1 49/54/1 46/2/1
f 46/13/2 48/40/2 82/14/2
f 49/19/6 52/58/6 51/20/6
f 51/22/7 53/59/7 50/23/7
f 51/21/1 52/32/1 55/25/1
f 50/19/6 53/58/6 54/20/6
f 56/26/7 55/60/7 52/27/7
f 55/29/1 57/61/1 60/30/1
f 57/17/8 55/62/8 56/18/8
f 108/17/4 59/62/4 57/18/4
f 60/21/1 57/32/1 59/25/1
f 60/26/7 61/60/7 83/27/7
f 62/22/7 63/59/7 61/23/7
f 63/19/6 62/58/6 64/20/6
f 66/32/1 104/25/1 65/20/1
f 65/26/9 69/60/9 67/27/9
f 69/29/9 72/61/9 68/30/9
f 70/33/5 69/63/5 71/11/5
f 70/32/9 74/25/9 72/20/9
f 69/33/6 65/63/6 95/11/6
f 68/1/1 72/54/1 73/2/1
f 72/1/1 74/54/1 75/2/1
f 74/13/6 70/40/6 76/14/6
f 79/1/1 68/54/1 77/2/1
f 82/1/1 79/54/1 78/2/1
f 47/1/1 82/54/1 80/2/1
f 83/17/10 84/62/10 79/18/10
f 63/26/11 68/60/11 79/27/11
f 44/1/1 47/54/1 81/2/1
f 41/1/1 44/54/1 86/2/1
f 38/1/1 41/54/1 87/2/1
f 35/1/1 38/54/1 88/2/1
f 32/1/1 35/54/1 89/2/1
f 29/1/1 32/54/1 90/2/1
f 26/1/1 29/54/1 91/2/1
f 24/1/1 26/54/1 92/2/1
f 4/1/1 24/54/1 93/2/1
f 97/10/1 98/57/1 96/11/1
f 99/10/1 100/57/1 98/11/1
f 101/10/1 103/57/1 100/11/1
f 104/1/6 105/54/6 102/2/6
f 103/13/4 101/40/4 102/14/4
f 104/17/4 66/62/4 107/18/4
f 105/1/6 106/54/6 119/2/6
f 105/13/4 107/40/4 109/14/4
f 59/35/6 108/64/6 107/30/6
f 108/1/6 110/54/6 109/2/6
f 110/36/1 113/65/1 106/14/1
f 110/13/4 108/40/4 58/14/4
f 112/13/4 110/40/4 111/14/4
f 114/13/4 113/40/4 110/14/4
f 113/37/6 114/66/6 116/38/6
f 115/10/6 116/57/6 124/11/6
f 117/10/5 115/57/5 118/11/5
f 120/10/5 119/57/5 115/11/5
f 120/13/4 121/40/4 102/14/4
f 122/10/5 118/57/5 123/11/5
f 118/10/6 124/57/6 125/11/6
f 125/15/6 127/13/6 128/40/6
f 127/4/12 129/55/12 131/5/12
f 114/1/5 112/54/5 129/2/5
f 112/1/5 173/54/5 130/2/5
f 129/4/12 130/55/12 133/5/12
f 128/1/5 131/54/5 132/2/5
f 131/1/5 133/54/5 135/2/5
f 130/4/12 143/55/12 134/5/12
f 133/1/5 134/54/5 136/2/5
f 134/1/5 139/54/5 137/2/5
f 139/1/5 140/54/5 138/2/5
f 141/4/12 144/55/12 140/5/12
f 143/4/12 141/55/12 139/5/12
f 172/1/5 142/54/5 141/2/5
f 142/1/5 145/54/5 144/2/5
f 145/1/5 149/54/5 146/2/5
f 144/4/12 146/55/12 147/5/12
f 146/4/12 148/55/12 246/5/12
f 149/1/5 151/54/5 148/2/5
f 145/13/4 166/40/4 150/14/4
f 149/13/4 150/40/4 152/14/4
f 156/13/4 153/40/4 151/14/4
f 151/1/5 153/54/5 155/2/5
f 153/1/5 154/54/5 244/2/5
f 153/13/4 156/40/4 157/14/4
f 156/13/4 158/40/4 160/14/4
f 161/13/4 158/40/4 156/14/4
f 159/13/4 158/40/4 161/14/4
f 158/13/4 159/40/4 175/14/4
f 163/13/4 164/40/4 162/14/4
f 150/13/4 163/40/4 161/14/4
f 165/13/4 168/40/4 164/14/4
f 166/13/4 165/40/4 163/14/4
f 169/13/4 167/40/4 165/14/4
f 167/17/4 52/62/4 168/18/4
f 168/13/4 45/40/4 42/14/4
f 168/17/4 52/62/4 49/18/4
f 170/13/4 167/40/4 169/14/4
f 111/13/4 58/40/4 170/14/4
f 173/13/4 111/40/4 171/14/4
f 172/13/4 171/40/4 169/14/4
f 173/1/5 172/54/5 143/2/5
f 142/13/4 169/40/4 166/14/4
f 164/13/4 42/40/4 39/14/4
f 162/13/4 39/40/4 36/14/4
f 157/13/4 160/40/4 174/14/4
f 160/13/4 175/40/4 176/14/4
f 175/13/4 33/40/4 30/14/4
f 33/13/4 175/40/4 159/14/4
f 174/13/4 176/40/4 177/14/4
f 176/13/4 30/40/4 27/14/4
f 179/13/4 177/40/4 178/14/4
f 177/13/4 27/40/4 21/14/4
f 181/13/4 179/40/4 180/14/4
f 182/13/4 174/40/4 179/14/4
f 249/13/4 182/40/4 181/14/4
f 183/13/4 181/40/4 184/14/4
f 186/13/4 184/40/4 185/14/4
f 184/13/4 180/40/4 210/14/4
f 186/1/5 187/54/5 191/2/5
f 183/1/5 186/54/5 188/2/5
f 189/4/12 188/55/12 190/5/12
f 188/4/12 191/55/12 193/5/12
f 191/4/12 192/55/12 195/5/12
f 187/1/5 207/54/5 192/2/5
f 190/1/5 193/54/5 194/2/5
f 193/1/5 195/54/5 197/2/5
f 195/7/3 192/56/3 198/8/3
f 192/7/5 202/56/5 199/8/5
f 202/7/5 203/56/5 221/8/5
f 204/1/5 205/54/5 203/2/5
f 207/1/5 204/54/5 202/2/5
f 204/13/4 206/40/4 215/14/4
f 207/13/4 208/40/4 206/14/4
f 187/13/4 185/40/4 208/14/4
f 185/13/4 210/40/4 209/14/4
f 208/13/4 209/40/4 211/14/4
f 210/13/4 20/40/4 18/14/4
f 209/13/4 18/40/4 16/14/4
f 211/13/4 16/40/4 214/14/4
f 206/13/4 211/40/4 212/14/4
f 215/13/4 212/40/4 213/14/4
f 212/13/4 214/40/4 234/14/4
f 215/42/5 216/67/5 219/43/5
f 205/10/3 215/57/3 217/11/3
f 220/10/3 217/57/3 218/11/3
f 217/42/5 219/67/5 233/43/5
f 221/42/13 222/67/13 200/43/13
f 218/48/3 224/68/3 223/49/3
f 224/51/3 226/69/3 225/52/3
f 227/10/1 12/57/1 10/11/1
f 228/10/1 14/57/1 12/11/1
f 214/10/1 16/57/1 14/11/1
f 231/42/1 229/67/1 226/43/1
f 232/42/14 230/67/14 226/43/14
f 233/42/14 232/67/14 224/43/14
f 234/42/1 214/67/1 229/43/1
f 180/13/4 178/40/4 20/14/4
f 237/1/5 190/54/5 235/2/5
f 240/1/5 237/54/5 236/2/5
f 242/1/5 240/54/5 238/2/5
f 241/4/12 189/55/12 237/5/12
f 244/4/12 241/55/12 240/5/12
f 243/1/5 242/54/5 239/2/5
f 155/4/12 244/55/12 242/5/12
f 154/1/5 249/54/5 241/2/5
f 148/4/12 155/55/12 243/5/12
f 246/1/5 243/54/5 245/2/5
f 147/1/5 246/54/5 247/2/5
f 140/1/5 147/54/5 248/2/5
f 249/1/5 183/54/5 189/2/5
f 154/13/4 157/40/4 182/14/4
