# Blender 5.1.2
# www.blender.org
mtllib room36.mtl
o 01-Caves.036
v 69.956879 10.924628 10.087347
v 69.956879 10.924629 20.087349
v 79.956879 10.924628 10.087347
v 69.956879 3.424635 10.087348
v 79.956879 3.424635 10.087348
v 69.956879 0.924633 10.087348
v 69.956879 0.924634 20.087349
v 79.956879 0.924633 10.087348
v 79.956879 0.924634 20.087349
v 89.956879 0.924633 10.087348
v 89.956879 0.924634 20.087349
v 99.956909 0.924633 10.087348
v 89.956879 3.424635 10.087348
v 89.956879 10.924628 10.087347
v 99.956909 3.424635 10.087348
v 99.956909 10.924628 10.087347
v 109.956879 3.424635 10.087348
v 109.956879 0.924633 10.087348
v 109.956879 10.924628 10.087347
v 109.956879 10.924629 20.087349
v 109.956879 3.424635 10.087348
v 109.956879 13.424634 10.087347
v 109.956879 13.424635 20.087347
v 99.956909 13.424634 10.087347
v 89.956879 13.424634 10.087347
v 99.956909 13.424635 20.087347
v 99.956909 13.424635 30.087385
v 89.956879 13.424635 20.087347
v 79.956879 13.424635 20.087347
v 89.956879 13.424635 30.087385
v 79.956879 13.424635 30.087385
v 89.956879 13.424636 40.087349
v 89.956879 13.424637 50.087349
v 99.956909 13.424636 40.087349
v 79.956879 13.424636 40.087349
v 69.956879 13.424636 40.087349
v 79.956879 13.424637 50.087349
v 69.956879 13.424637 50.087349
v 79.956879 13.424638 60.087349
v 69.956879 13.424638 60.087349
v 79.956879 13.424639 70.087349
v 89.956879 13.424638 60.087349
v 89.956879 13.424639 70.087349
v 99.956909 13.424638 60.087349
v 99.956909 13.424639 70.087349
v 109.956879 13.424638 60.087349
v 99.956909 13.424637 50.087349
v 109.956879 13.424637 50.087349
v 109.956879 10.924631 50.087349
v 109.956879 13.424636 40.087349
v 109.956879 13.424635 30.087385
v 109.956879 10.924630 40.087349
v 109.956879 10.924629 30.087387
v 109.956879 3.424638 40.087349
v 109.956879 0.924635 40.087349
v 109.956879 3.424637 30.087387
v 109.956879 3.424639 50.087349
v 109.956879 3.424639 60.087349
v 109.956879 0.924636 50.087349
v 99.956909 0.924636 50.087349
v 109.956879 0.924637 60.087349
v 99.956909 0.924637 60.087349
v 109.956879 0.924637 70.087349
v 99.956909 0.924637 70.087349
v 109.956879 0.924638 80.087349
v 109.956879 3.424640 70.087349
v 109.956879 10.924633 70.087349
v 109.956879 3.424641 80.087349
v 109.956879 10.924633 80.087349
v 109.956879 3.424642 90.087349
v 109.956879 10.924634 90.087349
v 109.956879 3.424642 100.087349
v 109.956879 0.924639 90.087349
v 99.956909 0.924639 90.087349
v 109.956879 0.924640 100.087349
v 109.956879 0.924640 110.087349
v 99.956909 0.924640 100.087349
v 89.956879 0.924640 100.087349
v 99.956909 0.924640 110.087349
v 99.956909 0.924641 120.087349
v 89.956879 0.924640 110.087349
v 79.956879 0.924640 110.087349
v 89.956879 0.924641 120.087349
v 79.956879 0.924641 120.087349
v 89.956879 0.924642 130.087265
v 89.956879 -9.075358 120.087349
v 99.956909 -9.075358 120.087349
v 89.956879 -9.075358 130.087265
v 99.956909 -9.075358 130.087265
v 89.956879 -9.075357 140.087341
v 89.956879 0.924643 140.087341
v 99.956909 -9.075357 140.087341
v 99.956909 0.924643 140.087341
v 99.956909 0.924644 150.087341
v 109.956879 0.924643 140.087341
v 99.956909 0.924642 130.087265
v 109.956879 0.924642 130.087265
v 109.956879 3.424644 130.087265
v 109.956879 0.924641 120.087349
v 109.956879 3.424644 120.087349
v 109.956879 3.424643 110.087349
v 109.956879 10.924637 120.087349
v 109.956879 10.924636 110.087349
v 109.956879 13.424643 120.087349
v 109.956879 10.924637 130.087265
v 109.956879 10.924638 140.087341
v 109.956879 13.424643 130.087265
v 99.956909 13.424643 130.087265
v 109.956879 13.424644 140.087341
v 99.956909 13.424644 140.087341
v 109.956879 13.424644 150.087341
v 99.956909 13.424644 150.087341
v 109.956879 13.424645 160.087265
v 109.956879 10.924639 150.087341
v 109.956879 3.424646 150.087341
v 109.956879 10.924640 160.087265
v 109.956879 3.424647 160.087265
v 109.956879 10.924640 170.087341
v 109.956879 3.424648 170.087341
v 109.956879 10.924641 180.087341
v 109.956879 13.424645 170.087341
v 99.956909 13.424645 170.087341
v 109.956879 13.424646 180.087341
v 99.956909 13.424646 180.087341
v 89.956879 13.424646 180.087341
v 99.956909 10.924641 180.087341
v 99.956909 3.424648 180.087341
v 89.956879 10.924641 180.087341
v 79.956879 10.924641 180.087341
v 89.956879 3.424648 180.087341
v 89.956879 0.924646 180.087341
v 79.956879 3.424648 180.087341
v 79.956879 0.924646 180.087341
v 79.956879 3.424648 180.087341
v 79.956879 0.924645 170.087341
v 79.956879 0.924644 160.087265
v 89.956879 0.924645 170.087341
v 79.956879 3.424648 170.087341
v 79.956879 13.424645 170.087341
v 79.956879 3.424647 160.087265
v 89.956879 3.424647 160.087265
v 79.956879 10.924640 160.087265
v 79.956879 13.424645 160.087265
v 89.956879 13.424645 160.087265
v 89.956879 13.424645 170.087341
v 99.956909 13.424645 160.087265
v 89.956879 10.924640 160.087265
v 99.956909 10.924640 160.087265
v 99.956909 3.424647 160.087265
v 99.956909 10.924639 150.087341
v 89.956879 10.924639 150.087341
v 99.956909 3.424646 150.087341
v 89.956879 3.424646 150.087341
v 79.956879 3.424646 150.087341
v 89.956879 0.924644 150.087341
v 79.956879 0.924644 150.087341
v 69.956879 0.924644 150.087341
v 79.956879 0.924643 140.087341
v 79.956879 10.924639 150.087341
v 69.956879 10.924639 150.087341
v 79.956879 13.424644 150.087341
v 89.956879 13.424644 150.087341
v 79.956879 13.424644 140.087341
v 69.956879 13.424644 150.087341
v 69.956879 13.424644 140.087341
v 69.956879 10.924639 150.087341
v 69.956879 10.924638 140.087341
v 69.956879 13.424643 130.087265
v 69.956879 10.924638 140.087341
v 69.956879 10.924637 130.087265
v 69.956879 0.924643 140.087341
v 69.956879 0.924642 130.087265
v 79.956879 0.924642 130.087265
v 69.956879 0.924641 120.087349
v 69.956879 10.924637 120.087349
v 69.956879 13.424643 120.087349
v 69.956879 10.924636 110.087349
v 69.956879 0.924640 110.087349
v 69.956879 13.424642 110.087349
v 69.956879 13.424641 100.087349
v 69.956879 10.924636 110.087349
v 79.956879 13.424642 110.087349
v 79.956879 13.424643 120.087349
v 89.956879 13.424642 110.087349
v 79.956879 13.424641 100.087349
v 79.956879 13.424640 90.087349
v 89.956879 13.424641 100.087349
v 99.956909 13.424641 100.087349
v 89.956879 13.424640 90.087349
v 89.956879 13.424639 80.087349
v 99.956909 13.424640 90.087349
v 109.956879 13.424640 90.087349
v 99.956909 13.424639 80.087349
v 109.956879 13.424639 80.087349
v 109.956879 13.424639 70.087349
v 109.956879 13.424641 100.087349
v 109.956879 13.424642 110.087349
v 109.956879 10.924635 100.087349
v 99.956909 13.424642 110.087349
v 99.956909 13.424643 120.087349
v 89.956879 13.424643 120.087349
v 89.956879 13.424643 130.087265
v 79.956879 13.424643 130.087265
v 89.956879 13.424644 140.087341
v 79.956879 13.424639 80.087349
v 69.956879 13.424639 80.087349
v 69.956879 13.424640 90.087349
v 69.956879 10.924633 80.087349
v 69.956879 13.424639 70.087349
v 69.956879 10.924633 80.087349
v 69.956879 10.924634 90.087349
v 69.956879 10.924633 70.087349
v 69.956879 10.924633 70.087349
v 69.956879 0.924637 70.087349
v 79.956879 0.924637 70.087349
v 79.956879 0.924637 60.087349
v 79.956879 0.924638 80.087349
v 89.956879 0.924637 70.087349
v 89.956879 0.924637 60.087349
v 89.956879 0.924638 80.087349
v 89.956879 -9.075362 70.087349
v 89.956879 -9.075363 60.087349
v 99.956909 -9.075362 70.087349
v 99.956909 -9.075363 60.087349
v 99.956909 -9.075364 50.087349
v 89.956879 -9.075364 50.087349
v 89.956879 0.924636 50.087349
v 79.956879 0.924636 50.087349
v 89.956879 0.924635 40.087349
v 79.956879 0.924635 40.087349
v 99.956909 0.924635 40.087349
v 89.956879 0.924634 30.087387
v 79.956879 0.924634 30.087387
v 99.956909 0.924634 30.087387
v 109.956879 0.924634 30.087387
v 99.956909 0.924634 20.087349
v 109.956879 0.924634 20.087349
v 109.956879 3.424636 20.087349
v 69.956879 0.924634 30.087387
v 69.956879 10.924629 30.087387
v 69.956879 10.924630 40.087349
v 69.956879 13.424635 30.087385
v 69.956879 10.924629 30.087387
v 79.956879 10.924629 30.087387
v 79.956879 10.924629 20.087349
v 69.956879 0.924635 40.087349
v 69.956879 0.924636 50.087349
v 69.956879 10.924631 50.087349
v 69.956879 10.924632 60.087349
v 69.956879 0.924637 60.087349
v 89.956879 0.924639 90.087349
v 99.956909 0.924638 80.087349
v 79.956879 0.924639 90.087349
v 69.956879 0.924639 90.087349
v 79.956879 0.924640 100.087349
v 69.956879 10.924634 90.087349
v 69.956879 10.924635 100.087349
v 69.956879 0.924640 100.087349
v 69.956879 0.924638 80.087349
v 69.956879 10.924632 60.087349
v 69.956879 10.924635 100.087349
v 69.956879 10.924637 120.087349
v 69.956879 10.924637 130.087265
v 99.956909 0.924644 160.087265
v 99.956909 0.924645 170.087341
v 109.956879 0.924644 160.087265
v 89.956879 0.924644 160.087265
v 109.956879 0.924644 150.087341
v 109.956879 0.924645 170.087341
v 109.956879 0.924646 180.087341
v 99.956909 0.924646 180.087341
v 109.956879 3.424648 180.087341
v 79.956879 13.424646 180.087341
v 109.956879 3.424645 140.087341
v 109.956879 10.924632 60.087349
v 69.956879 10.924631 50.087349
v 69.956879 10.924630 40.087349
v 79.956879 13.424634 10.087347
vn -0.0000 -1.0000 -0.0000
vn -0.0000 -0.0000 1.0000
vn -0.0000 1.0000 -0.0000
vn -1.0000 -0.0000 -0.0000
vn 1.0000 -0.0000 -0.0000
vn -0.0000 -0.0000 -1.0000
vn 0.7071 0.7071 -0.0000
vt 0.501961 0.878431
vt 0.621569 0.998039
vt 0.501961 0.998039
vt 0.252941 0.252941
vt 0.372549 0.278432
vt 0.252941 0.278432
vt 0.752941 0.878431
vt 0.872549 0.998039
vt 0.752941 0.998039
vt 0.372549 0.372549
vt 0.252941 0.372549
vt 0.252941 0.501961
vt 0.372549 0.621569
vt 0.252941 0.621569
vt 0.878431 0.878431
vt 0.998039 0.998039
vt 0.878431 0.998039
vt 0.627451 0.998039
vt 0.627451 0.878431
vt 0.747059 0.998039
vt 0.621569 0.878431
vt 0.372549 0.252941
vt 0.872549 0.878431
vt 0.372549 0.501961
vt 0.998039 0.878431
s 0
usemtl Material.001
f 3/1/1 2/2/1 1/3/1
f 3/1/2 4/2/2 5/3/2
f 5/4/2 6/5/2 8/6/2
f 8/7/3 7/8/3 9/9/3
f 13/4/2 8/5/2 10/6/2
f 10/7/3 9/8/3 11/9/3
f 12/7/3 11/8/3 236/9/3
f 15/4/2 10/5/2 12/6/2
f 14/1/2 5/2/2 13/3/2
f 16/1/2 13/2/2 15/3/2
f 19/1/2 15/2/2 17/3/2
f 17/4/2 12/5/2 18/6/2
f 22/4/2 16/5/2 19/6/2
f 23/4/4 19/5/4 20/6/4
f 20/1/4 21/2/4 238/3/4
f 23/7/1 24/8/1 22/9/1
f 24/4/2 14/5/2 16/6/2
f 26/7/1 25/8/1 24/9/1
f 51/7/1 26/8/1 23/9/1
f 27/7/1 28/8/1 26/9/1
f 28/7/1 278/8/1 25/9/1
f 30/7/1 29/8/1 28/9/1
f 32/7/1 31/8/1 30/9/1
f 34/7/1 30/8/1 27/9/1
f 47/7/1 32/8/1 34/9/1
f 33/7/1 35/8/1 32/9/1
f 37/7/1 36/8/1 35/9/1
f 35/7/1 242/8/1 31/9/1
f 39/7/1 38/8/1 37/9/1
f 42/7/1 37/8/1 33/9/1
f 41/7/1 40/8/1 39/9/1
f 43/7/1 39/8/1 42/9/1
f 45/7/1 42/8/1 44/9/1
f 44/7/1 33/8/1 47/9/1
f 195/7/1 44/8/1 46/9/1
f 46/7/1 47/8/1 48/9/1
f 48/7/1 34/8/1 50/9/1
f 46/4/4 49/5/4 275/6/4
f 48/4/4 52/5/4 49/6/4
f 50/4/4 53/5/4 52/6/4
f 50/7/1 27/8/1 51/9/1
f 52/1/4 56/2/4 54/3/4
f 49/1/4 54/2/4 57/3/4
f 57/4/4 55/5/4 59/6/4
f 54/4/4 235/5/4 55/6/4
f 275/1/4 57/2/4 58/3/4
f 58/4/4 59/5/4 61/6/4
f 59/7/3 62/8/3 61/9/3
f 55/7/3 60/8/3 59/9/3
f 61/7/3 64/8/3 63/9/3
f 66/4/4 61/5/4 63/6/4
f 63/7/3 252/8/3 65/9/3
f 68/4/4 63/5/4 65/6/4
f 69/1/4 66/2/4 68/3/4
f 67/1/4 58/2/4 66/3/4
f 70/4/4 65/5/4 73/6/4
f 71/1/4 68/2/4 70/3/4
f 198/1/4 70/2/4 72/3/4
f 72/4/4 73/5/4 75/6/4
f 73/7/3 77/8/3 75/9/3
f 65/7/3 74/8/3 73/9/3
f 101/4/4 75/5/4 76/6/4
f 75/7/3 79/8/3 76/9/3
f 77/7/3 81/8/3 79/9/3
f 74/7/3 78/8/3 77/9/3
f 76/7/3 80/8/3 99/9/3
f 79/7/3 83/8/3 80/9/3
f 78/7/3 82/8/3 81/9/3
f 81/7/3 84/8/3 83/9/3
f 83/7/3 173/8/3 85/9/3
f 83/4/5 88/10/5 86/11/5
f 80/4/2 86/10/2 87/11/2
f 87/12/3 88/13/3 89/14/3
f 89/12/3 90/13/3 92/14/3
f 85/4/5 90/10/5 88/11/5
f 91/4/6 92/10/6 90/11/6
f 93/4/4 89/10/4 92/11/4
f 95/7/3 94/8/3 268/9/3
f 93/7/3 155/8/3 94/9/3
f 97/7/3 93/8/3 95/9/3
f 96/4/4 87/10/4 89/11/4
f 99/7/3 96/8/3 97/9/3
f 274/4/4 97/5/4 95/6/4
f 98/4/4 99/5/4 97/6/4
f 100/4/4 76/5/4 99/6/4
f 102/1/4 101/2/4 100/3/4
f 105/1/4 100/2/4 98/3/4
f 104/4/4 103/5/4 102/6/4
f 107/4/4 102/5/4 105/6/4
f 106/1/4 98/2/4 274/3/4
f 109/4/4 105/5/4 106/6/4
f 107/7/1 200/8/1 104/9/1
f 109/7/1 108/8/1 107/9/1
f 111/7/1 110/8/1 109/9/1
f 111/4/4 106/5/4 114/6/4
f 113/7/1 112/8/1 111/9/1
f 113/4/4 114/5/4 116/6/4
f 116/1/4 115/2/4 117/3/4
f 114/1/4 274/2/4 115/3/4
f 121/4/4 116/5/4 118/6/4
f 118/1/4 117/2/4 119/3/4
f 120/1/4 119/2/4 272/3/4
f 123/4/4 118/5/4 120/6/4
f 123/7/1 122/8/1 121/9/1
f 121/7/1 146/8/1 113/9/1
f 124/4/6 120/5/6 126/6/6
f 124/7/1 145/8/1 122/9/1
f 125/4/6 126/5/6 128/6/6
f 126/1/6 272/2/6 127/3/6
f 128/1/6 127/2/6 130/3/6
f 273/4/6 128/5/6 129/6/6
f 129/1/6 130/2/6 132/3/6
f 130/4/6 271/5/6 131/6/6
f 132/4/6 131/5/6 133/6/6
f 137/7/3 133/8/3 131/9/3
f 138/4/5 133/5/5 135/6/5
f 140/4/5 135/5/5 136/6/5
f 267/7/3 135/8/3 137/9/3
f 139/1/5 134/2/5 138/3/5
f 143/15/5 138/16/5 140/17/5
f 141/4/2 136/5/2 267/6/2
f 147/1/2 140/2/2 141/3/2
f 144/4/2 142/5/2 147/6/2
f 145/7/1 143/8/1 144/9/1
f 122/7/1 144/8/1 146/9/1
f 146/4/2 147/5/2 148/6/2
f 148/1/2 141/2/2 149/3/2
f 150/1/5 149/2/5 152/3/5
f 112/4/5 148/5/5 150/6/5
f 162/4/6 150/5/6 151/6/6
f 151/1/6 152/2/6 153/3/6
f 152/4/5 264/5/5 94/6/5
f 153/4/6 94/5/6 155/6/6
f 159/1/6 153/2/6 154/3/6
f 154/4/6 155/5/6 156/6/6
f 91/7/3 156/8/3 155/9/3
f 160/1/6 156/2/6 157/3/6
f 158/7/3 157/8/3 156/9/3
f 164/4/6 159/5/6 160/6/6
f 161/4/6 151/5/6 159/6/6
f 162/7/1 163/8/1 204/9/1
f 161/7/1 165/8/1 163/9/1
f 165/4/5 166/5/5 167/6/5
f 168/4/5 169/5/5 170/6/5
f 163/7/1 168/8/1 203/9/1
f 158/1/7 170/2/7 169/3/7
f 158/18/2 169/19/2 171/20/2
f 172/18/6 170/19/6 173/20/6
f 84/7/3 172/8/3 173/9/3
f 85/7/3 158/8/3 91/9/3
f 84/18/2 175/19/2 174/20/2
f 179/4/5 175/5/5 177/6/5
f 84/1/7 177/2/7 175/3/7
f 178/18/6 177/19/6 82/20/6
f 180/4/5 181/5/5 261/6/5
f 182/7/1 180/8/1 185/9/1
f 183/7/1 179/8/1 182/9/1
f 201/7/1 182/8/1 184/9/1
f 184/7/1 185/8/1 187/9/1
f 187/7/1 186/8/1 189/9/1
f 185/7/1 207/8/1 186/9/1
f 199/7/1 187/8/1 188/9/1
f 188/7/1 189/8/1 191/9/1
f 191/7/1 190/8/1 193/9/1
f 189/7/1 205/8/1 190/9/1
f 196/7/1 191/8/1 192/9/1
f 192/7/1 193/8/1 194/9/1
f 193/7/1 43/8/1 45/9/1
f 194/7/1 45/8/1 195/9/1
f 192/4/4 69/5/4 71/6/4
f 194/4/4 67/5/4 69/6/4
f 195/4/4 275/5/4 67/6/4
f 196/4/4 71/5/4 198/6/4
f 197/4/4 198/5/4 103/6/4
f 197/7/1 188/8/1 196/9/1
f 103/1/4 72/2/4 101/3/4
f 104/7/1 199/8/1 197/9/1
f 200/7/1 184/8/1 199/9/1
f 108/7/1 201/8/1 200/9/1
f 202/7/1 183/8/1 201/9/1
f 204/7/1 203/8/1 202/9/1
f 110/7/1 202/8/1 108/9/1
f 112/7/1 204/8/1 110/9/1
f 203/7/1 176/8/1 183/9/1
f 190/7/1 41/8/1 43/9/1
f 205/7/1 209/8/1 41/9/1
f 186/7/1 206/8/1 205/9/1
f 206/4/5 211/5/5 210/6/5
f 209/4/5 208/5/5 213/6/5
f 40/4/5 212/5/5 260/6/5
f 217/1/7 213/2/7 208/3/7
f 214/18/6 213/19/6 215/20/6
f 216/7/3 214/8/3 215/9/3
f 219/7/3 215/8/3 218/9/3
f 218/7/3 217/8/3 220/9/3
f 219/4/5 221/10/5 222/11/5
f 64/7/3 220/8/3 252/9/3
f 218/4/6 223/10/6 221/11/6
f 224/12/3 221/13/3 223/14/3
f 64/4/4 224/10/4 223/11/4
f 225/12/3 222/13/3 224/14/3
f 62/4/4 225/10/4 224/11/4
f 60/4/2 226/10/2 225/11/2
f 227/4/5 222/10/5 226/11/5
f 227/7/3 216/8/3 219/9/3
f 229/7/3 228/8/3 227/9/3
f 231/7/3 227/8/3 60/9/3
f 232/7/3 230/8/3 229/9/3
f 234/7/3 229/8/3 231/9/3
f 11/7/3 233/8/3 232/9/3
f 236/7/3 232/8/3 234/9/3
f 235/7/3 231/8/3 55/9/3
f 237/7/3 234/8/3 235/9/3
f 18/7/3 236/8/3 237/9/3
f 56/4/4 237/5/4 235/6/4
f 238/4/4 18/5/4 237/6/4
f 53/1/4 238/2/4 56/3/4
f 239/18/6 240/19/6 233/20/6
f 9/7/3 239/8/3 233/9/3
f 230/1/7 240/2/7 241/3/7
f 242/4/5 241/5/5 240/6/5
f 31/4/2 243/5/2 244/6/2
f 245/1/1 243/2/1 2/3/1
f 29/4/5 244/5/5 245/6/5
f 278/4/5 245/5/5 3/6/5
f 230/18/2 241/19/2 246/20/2
f 230/7/3 247/8/3 228/9/3
f 247/18/6 248/19/6 228/20/6
f 38/4/5 249/5/5 248/6/5
f 216/1/7 248/2/7 249/3/7
f 216/18/2 249/19/2 250/20/2
f 220/7/3 253/8/3 251/9/3
f 252/7/3 251/8/3 74/9/3
f 251/7/3 255/8/3 78/9/3
f 254/18/6 256/19/6 253/20/6
f 217/7/3 254/8/3 253/9/3
f 255/1/7 256/2/7 257/3/7
f 207/4/5 257/5/5 256/6/5
f 255/18/2 257/19/2 258/20/2
f 255/7/3 178/8/3 82/9/3
f 217/18/2 208/19/2 259/20/2
f 176/4/5 263/5/5 262/6/5
f 149/4/2 267/5/2 264/6/2
f 266/7/3 265/8/3 269/9/3
f 264/7/3 137/8/3 265/9/3
f 268/7/3 264/8/3 266/9/3
f 117/4/4 268/5/4 266/6/4
f 119/4/4 266/5/4 269/6/4
f 272/4/4 269/5/4 270/6/4
f 269/7/3 271/8/3 270/9/3
f 127/4/6 270/5/6 271/6/6
f 265/7/3 131/8/3 271/9/3
f 115/4/4 95/5/4 268/6/4
f 125/7/1 139/8/1 145/9/1
f 51/4/4 20/5/4 53/6/4
f 36/4/5 276/5/5 277/6/5
f 25/4/2 3/5/2 14/6/2
f 3/1/1 245/21/1 2/2/1
f 3/1/2 1/21/2 4/2/2
f 5/4/2 4/22/2 6/5/2
f 8/7/3 6/23/3 7/8/3
f 13/4/2 5/22/2 8/5/2
f 10/7/3 8/23/3 9/8/3
f 12/7/3 10/23/3 11/8/3
f 15/4/2 13/22/2 10/5/2
f 14/1/2 3/21/2 5/2/2
f 16/1/2 14/21/2 13/2/2
f 19/1/2 16/21/2 15/2/2
f 17/4/2 15/22/2 12/5/2
f 22/4/2 24/22/2 16/5/2
f 23/4/4 22/22/4 19/5/4
f 20/1/4 19/21/4 21/2/4
f 23/7/1 26/23/1 24/8/1
f 24/4/2 25/22/2 14/5/2
f 26/7/1 28/23/1 25/8/1
f 51/7/1 27/23/1 26/8/1
f 27/7/1 30/23/1 28/8/1
f 28/7/1 29/23/1 278/8/1
f 30/7/1 31/23/1 29/8/1
f 32/7/1 35/23/1 31/8/1
f 34/7/1 32/23/1 30/8/1
f 47/7/1 33/23/1 32/8/1
f 33/7/1 37/23/1 35/8/1
f 37/7/1 38/23/1 36/8/1
f 35/7/1 36/23/1 242/8/1
f 39/7/1 40/23/1 38/8/1
f 42/7/1 39/23/1 37/8/1
f 41/7/1 209/23/1 40/8/1
f 43/7/1 41/23/1 39/8/1
f 45/7/1 43/23/1 42/8/1
f 44/7/1 42/23/1 33/8/1
f 195/7/1 45/23/1 44/8/1
f 46/7/1 44/23/1 47/8/1
f 48/7/1 47/23/1 34/8/1
f 46/4/4 48/22/4 49/5/4
f 48/4/4 50/22/4 52/5/4
f 50/4/4 51/22/4 53/5/4
f 50/7/1 34/23/1 27/8/1
f 52/1/4 53/21/4 56/2/4
f 49/1/4 52/21/4 54/2/4
f 57/4/4 54/22/4 55/5/4
f 54/4/4 56/22/4 235/5/4
f 275/1/4 49/21/4 57/2/4
f 58/4/4 57/22/4 59/5/4
f 59/7/3 60/23/3 62/8/3
f 55/7/3 231/23/3 60/8/3
f 61/7/3 62/23/3 64/8/3
f 66/4/4 58/22/4 61/5/4
f 63/7/3 64/23/3 252/8/3
f 68/4/4 66/22/4 63/5/4
f 69/1/4 67/21/4 66/2/4
f 67/1/4 275/21/4 58/2/4
f 70/4/4 68/22/4 65/5/4
f 71/1/4 69/21/4 68/2/4
f 198/1/4 71/21/4 70/2/4
f 72/4/4 70/22/4 73/5/4
f 73/7/3 74/23/3 77/8/3
f 65/7/3 252/23/3 74/8/3
f 101/4/4 72/22/4 75/5/4
f 75/7/3 77/23/3 79/8/3
f 77/7/3 78/23/3 81/8/3
f 74/7/3 251/23/3 78/8/3
f 76/7/3 79/23/3 80/8/3
f 79/7/3 81/23/3 83/8/3
f 78/7/3 255/23/3 82/8/3
f 81/7/3 82/23/3 84/8/3
f 83/7/3 84/23/3 173/8/3
f 83/4/5 85/22/5 88/10/5
f 80/4/2 83/22/2 86/10/2
f 87/12/3 86/24/3 88/13/3
f 89/12/3 88/24/3 90/13/3
f 85/4/5 91/22/5 90/10/5
f 91/4/6 93/22/6 92/10/6
f 93/4/4 96/22/4 89/10/4
f 95/7/3 93/23/3 94/8/3
f 93/7/3 91/23/3 155/8/3
f 97/7/3 96/23/3 93/8/3
f 96/4/4 80/22/4 87/10/4
f 99/7/3 80/23/3 96/8/3
f 274/4/4 98/22/4 97/5/4
f 98/4/4 100/22/4 99/5/4
f 100/4/4 101/22/4 76/5/4
f 102/1/4 103/21/4 101/2/4
f 105/1/4 102/21/4 100/2/4
f 104/4/4 197/22/4 103/5/4
f 107/4/4 104/22/4 102/5/4
f 106/1/4 105/21/4 98/2/4
f 109/4/4 107/22/4 105/5/4
f 107/7/1 108/23/1 200/8/1
f 109/7/1 110/23/1 108/8/1
f 111/7/1 112/23/1 110/8/1
f 111/4/4 109/22/4 106/5/4
f 113/7/1 146/23/1 112/8/1
f 113/4/4 111/22/4 114/5/4
f 116/1/4 114/21/4 115/2/4
f 114/1/4 106/21/4 274/2/4
f 121/4/4 113/22/4 116/5/4
f 118/1/4 116/21/4 117/2/4
f 120/1/4 118/21/4 119/2/4
f 123/4/4 121/22/4 118/5/4
f 123/7/1 124/23/1 122/8/1
f 121/7/1 122/23/1 146/8/1
f 124/4/6 123/22/6 120/5/6
f 124/7/1 125/23/1 145/8/1
f 125/4/6 124/22/6 126/5/6
f 126/1/6 120/21/6 272/2/6
f 128/1/6 126/21/6 127/2/6
f 273/4/6 125/22/6 128/5/6
f 129/1/6 128/21/6 130/2/6
f 130/4/6 127/22/6 271/5/6
f 132/4/6 130/22/6 131/5/6
f 137/7/3 135/23/3 133/8/3
f 138/4/5 134/22/5 133/5/5
f 140/4/5 138/22/5 135/5/5
f 267/7/3 136/23/3 135/8/3
f 139/1/5 273/21/5 134/2/5
f 143/15/5 139/25/5 138/16/5
f 141/4/2 140/22/2 136/5/2
f 147/1/2 142/21/2 140/2/2
f 144/4/2 143/22/2 142/5/2
f 145/7/1 139/23/1 143/8/1
f 122/7/1 145/23/1 144/8/1
f 146/4/2 144/22/2 147/5/2
f 148/1/2 147/21/2 141/2/2
f 150/1/5 148/21/5 149/2/5
f 112/4/5 146/22/5 148/5/5
f 162/4/6 112/22/6 150/5/6
f 151/1/6 150/21/6 152/2/6
f 152/4/5 149/22/5 264/5/5
f 153/4/6 152/22/6 94/5/6
f 159/1/6 151/21/6 153/2/6
f 154/4/6 153/22/6 155/5/6
f 91/7/3 158/23/3 156/8/3
f 160/1/6 159/21/6 156/2/6
f 158/7/3 171/23/3 157/8/3
f 164/4/6 161/22/6 159/5/6
f 161/4/6 162/22/6 151/5/6
f 162/7/1 161/23/1 163/8/1
f 161/7/1 164/23/1 165/8/1
f 165/4/5 164/22/5 166/5/5
f 168/4/5 165/22/5 169/5/5
f 163/7/1 165/23/1 168/8/1
f 158/1/7 173/21/7 170/2/7
f 84/7/3 174/23/3 172/8/3
f 85/7/3 173/23/3 158/8/3
f 179/4/5 176/22/5 175/5/5
f 84/1/7 82/21/7 177/2/7
f 180/4/5 179/22/5 181/5/5
f 182/7/1 179/23/1 180/8/1
f 183/7/1 176/23/1 179/8/1
f 201/7/1 183/23/1 182/8/1
f 184/7/1 182/23/1 185/8/1
f 187/7/1 185/23/1 186/8/1
f 185/7/1 180/23/1 207/8/1
f 199/7/1 184/23/1 187/8/1
f 188/7/1 187/23/1 189/8/1
f 191/7/1 189/23/1 190/8/1
f 189/7/1 186/23/1 205/8/1
f 196/7/1 188/23/1 191/8/1
f 192/7/1 191/23/1 193/8/1
f 193/7/1 190/23/1 43/8/1
f 194/7/1 193/23/1 45/8/1
f 192/4/4 194/22/4 69/5/4
f 194/4/4 195/22/4 67/5/4
f 195/4/4 46/22/4 275/5/4
f 196/4/4 192/22/4 71/5/4
f 197/4/4 196/22/4 198/5/4
f 197/7/1 199/23/1 188/8/1
f 103/1/4 198/21/4 72/2/4
f 104/7/1 200/23/1 199/8/1
f 200/7/1 201/23/1 184/8/1
f 108/7/1 202/23/1 201/8/1
f 202/7/1 203/23/1 183/8/1
f 204/7/1 163/23/1 203/8/1
f 110/7/1 204/23/1 202/8/1
f 112/7/1 162/23/1 204/8/1
f 203/7/1 168/23/1 176/8/1
f 190/7/1 205/23/1 41/8/1
f 205/7/1 206/23/1 209/8/1
f 186/7/1 207/23/1 206/8/1
f 206/4/5 207/22/5 211/5/5
f 209/4/5 206/22/5 208/5/5
f 40/4/5 209/22/5 212/5/5
f 217/1/7 215/21/7 213/2/7
f 216/7/3 250/23/3 214/8/3
f 219/7/3 216/23/3 215/8/3
f 218/7/3 215/23/3 217/8/3
f 219/4/5 218/22/5 221/10/5
f 64/7/3 218/23/3 220/8/3
f 218/4/6 64/22/6 223/10/6
f 224/12/3 222/24/3 221/13/3
f 64/4/4 62/22/4 224/10/4
f 225/12/3 226/24/3 222/13/3
f 62/4/4 60/22/4 225/10/4
f 60/4/2 227/22/2 226/10/2
f 227/4/5 219/22/5 222/10/5
f 227/7/3 228/23/3 216/8/3
f 229/7/3 230/23/3 228/8/3
f 231/7/3 229/23/3 227/8/3
f 232/7/3 233/23/3 230/8/3
f 234/7/3 232/23/3 229/8/3
f 11/7/3 9/23/3 233/8/3
f 236/7/3 11/23/3 232/8/3
f 235/7/3 234/23/3 231/8/3
f 237/7/3 236/23/3 234/8/3
f 18/7/3 12/23/3 236/8/3
f 56/4/4 238/22/4 237/5/4
f 238/4/4 21/22/4 18/5/4
f 53/1/4 20/21/4 238/2/4
f 9/7/3 7/23/3 239/8/3
f 230/1/7 233/21/7 240/2/7
f 242/4/5 36/22/5 241/5/5
f 31/4/2 242/22/2 243/5/2
f 245/1/1 244/21/1 243/2/1
f 29/4/5 31/22/5 244/5/5
f 278/4/5 29/22/5 245/5/5
f 230/7/3 246/23/3 247/8/3
f 38/4/5 40/22/5 249/5/5
f 216/1/7 228/21/7 248/2/7
f 220/7/3 217/23/3 253/8/3
f 252/7/3 220/23/3 251/8/3
f 251/7/3 253/23/3 255/8/3
f 217/7/3 259/23/3 254/8/3
f 255/1/7 253/21/7 256/2/7
f 207/4/5 180/22/5 257/5/5
f 255/7/3 258/23/3 178/8/3
f 176/4/5 168/22/5 263/5/5
f 149/4/2 141/22/2 267/5/2
f 266/7/3 264/23/3 265/8/3
f 264/7/3 267/23/3 137/8/3
f 268/7/3 94/23/3 264/8/3
f 117/4/4 115/22/4 268/5/4
f 119/4/4 117/22/4 266/5/4
f 272/4/4 119/22/4 269/5/4
f 269/7/3 265/23/3 271/8/3
f 127/4/6 272/22/6 270/5/6
f 265/7/3 137/23/3 131/8/3
f 115/4/4 274/22/4 95/5/4
f 125/7/1 273/23/1 139/8/1
f 51/4/4 23/22/4 20/5/4
f 36/4/5 38/22/5 276/5/5
f 25/4/2 278/22/2 3/5/2
