# Blender 5.1.2
# www.blender.org
mtllib room10.mtl
o 01-Caves.010
v -10.043159 23.424620 -99.912651
v -10.043159 13.424625 -99.912651
v -10.043159 23.424620 -89.912651
v -0.043122 25.924625 -99.912651
v -10.043159 25.924625 -89.912651
v -10.043159 30.924627 -79.912689
v -0.043122 28.424629 -89.912651
v -0.043122 33.424625 -79.912689
v 9.956879 28.424629 -89.912651
v -0.043122 35.924622 -89.912651
v 9.956879 35.924622 -89.912651
v -0.043122 38.424625 -79.912689
v 9.956879 38.424625 -79.912689
v -0.043122 38.424629 -69.912651
v -0.043122 35.924625 -69.912651
v 9.956879 38.424629 -69.912651
v -0.043122 38.424629 -59.912651
v -0.043122 35.924625 -59.912651
v 9.956879 38.424629 -59.912651
v 19.956879 38.424629 -59.912651
v 9.956879 38.424629 -49.912651
v -0.043122 35.924625 -49.912651
v 9.956879 38.424629 -39.912651
v 19.956879 38.424629 -49.912651
v 29.956879 38.424629 -49.912651
v 19.956879 38.424629 -39.912651
v 19.956879 38.424629 -29.912655
v 29.956879 38.424629 -39.912651
v 29.956879 38.424629 -29.912655
v 39.956879 38.424629 -39.912651
v 39.956879 38.424629 -29.912655
v 49.956879 38.424629 -39.912651
v 39.956879 38.424629 -49.912651
v 39.956879 38.424629 -59.912651
v 49.956879 38.424629 -49.912651
v 49.956879 40.924633 -49.912651
v 49.956879 38.424629 -59.912651
v 49.956879 38.424629 -69.912651
v 49.956879 35.924625 -59.912651
v 49.956879 40.924633 -59.912651
v 59.956879 40.924633 -59.912651
v 59.956879 40.924633 -49.912651
v 59.956879 43.424633 -59.912651
v 59.956879 35.924625 -59.912651
v 59.956879 35.924625 -69.912651
v 59.956879 43.424633 -69.912651
v 49.956879 35.924625 -69.912651
v 49.956879 43.424633 -69.912651
v 49.956879 43.424629 -79.912689
v 59.956879 43.424629 -79.912689
v 49.956879 38.424625 -79.912689
v 49.956879 43.424629 -89.912651
v 49.956879 38.424625 -89.912651
v 49.956879 33.424625 -89.912651
v 59.956879 43.424629 -89.912651
v 59.956879 38.424625 -89.912651
v 69.956879 43.424629 -89.912651
v 69.956879 40.924629 -99.912651
v 69.956879 43.424629 -79.912689
v 79.956879 43.424629 -89.912651
v 69.956879 43.424629 -99.912651
v 69.956879 23.424620 -99.912651
v 79.956879 43.424629 -99.912651
v 79.956879 28.424629 -99.912651
v 89.956879 43.424629 -99.912651
v 89.956879 43.424629 -89.912651
v 89.956879 35.924622 -99.912651
v 89.956879 30.924625 -89.912651
v 79.956879 23.424620 -89.912651
v 89.956879 35.924622 -79.912689
v 79.956879 25.924625 -89.912651
v 79.956879 30.924627 -79.912689
v 69.956879 20.924625 -89.912651
v 59.956879 20.924625 -89.912651
v 69.956879 25.924627 -79.912689
v 59.956879 25.924627 -79.912689
v 69.956879 20.924627 -69.912651
v 69.956879 13.424628 -59.912651
v 79.956879 25.924627 -69.912651
v 59.956879 20.924627 -69.912651
v 49.956879 20.924627 -69.912651
v 59.956879 13.424627 -79.912689
v 59.956879 13.424628 -59.912651
v 49.956879 13.424628 -59.912651
v 59.956879 13.424629 -49.912651
v 59.956879 13.424630 -39.912651
v 69.956879 13.424629 -49.912651
v 49.956879 13.424629 -49.912651
v 49.956879 13.424630 -39.912651
v 39.956879 13.424629 -49.912651
v 29.956879 13.424629 -49.912651
v 39.956879 13.424628 -59.912651
v 39.956879 13.424630 -39.912651
v 39.956879 13.424631 -29.912653
v 29.956879 13.424630 -39.912651
v 19.956879 13.424630 -39.912651
v 29.956879 13.424631 -29.912653
v 19.956879 13.424631 -29.912653
v 29.956879 13.424631 -19.912655
v 19.956879 13.424631 -19.912655
v 29.956879 13.424632 -9.912653
v 39.956879 13.424631 -19.912655
v 39.956879 13.424632 -9.912653
v 49.956879 13.424631 -19.912655
v 49.956879 13.424632 -9.912653
v 59.956879 13.424631 -19.912655
v 49.956879 13.424631 -29.912653
v 59.956879 13.424631 -29.912653
v 69.956879 13.424631 -29.912653
v 69.956879 13.424630 -39.912651
v 79.956879 13.424631 -29.912653
v 69.956879 13.424631 -19.912655
v 69.956879 13.424632 -9.912653
v 79.956879 13.424631 -19.912655
v 79.956879 13.424632 -9.912653
v 89.956879 15.924635 -19.912655
v 79.956879 15.924636 -9.912653
v 89.956879 18.424633 -9.912653
v 79.956879 18.424633 0.087346
v 89.956879 20.924633 0.087346
v 79.956879 20.924633 0.087346
v 69.956879 18.424633 0.087346
v 79.956879 28.424637 0.087346
v 79.956879 13.424633 0.087347
v 69.956879 13.424633 0.087347
v 59.956879 13.424633 0.087347
v 49.956879 13.424633 0.087347
v 59.956879 13.424632 -9.912653
v 59.956879 18.424633 0.087346
v 49.956879 18.424633 0.087346
v 59.956879 28.424637 0.087346
v 49.956879 28.424637 0.087346
v 59.956879 38.424633 0.087345
v 69.956879 28.424637 0.087346
v 59.956879 35.924629 0.087345
v 69.956879 35.924629 0.087345
v 59.956879 43.424637 -9.912655
v 59.956879 43.424637 -19.912657
v 49.956879 43.424637 -9.912655
v 69.956879 43.424637 -9.912655
v 69.956879 43.424637 -19.912657
v 69.956879 38.424633 -9.912655
v 79.956879 43.424637 -9.912655
v 79.956879 35.924629 -9.912655
v 79.956879 43.424637 -19.912657
v 79.956879 43.424633 -29.912655
v 79.956879 40.924637 -19.912657
v 89.956879 43.424637 -19.912657
v 89.956879 43.424633 -29.912655
v 89.956879 40.924637 -19.912657
v 89.956879 30.924631 -19.912655
v 89.956879 30.924631 -29.912653
v 89.956879 20.924631 -19.912655
v 89.956879 30.924633 -9.912654
v 89.956879 20.924633 -9.912654
v 89.956879 35.924629 -9.912655
v 89.956879 28.424637 0.087346
v 89.956879 28.424637 -9.912654
v 89.956879 20.924631 -29.912653
v 89.956879 15.924635 -29.912653
v 89.956879 15.924634 -39.912651
v 89.956879 33.424629 -29.912653
v 89.956879 33.424629 -39.912651
v 79.956879 13.424630 -39.912651
v 89.956879 18.424629 -39.912651
v 79.956879 13.424629 -49.912651
v 79.956879 13.424628 -59.912651
v 89.956879 18.424629 -49.912651
v 79.956879 18.424629 -59.912651
v 89.956879 23.424623 -59.912651
v 89.956879 30.924627 -69.912651
v 89.956879 33.424629 -59.912651
v 89.956879 25.924629 -59.912651
v 89.956879 25.924629 -49.912651
v 89.956879 33.424629 -49.912651
v 89.956879 25.924629 -39.912651
v 89.956879 33.424629 -39.912651
v 89.956879 43.424633 -39.912651
v 89.956879 43.424633 -49.912651
v 79.956879 43.424633 -39.912651
v 79.956879 43.424633 -49.912651
v 69.956879 43.424633 -39.912651
v 69.956879 43.424633 -29.912655
v 69.956879 43.424633 -49.912651
v 59.956879 43.424633 -39.912651
v 59.956879 43.424633 -49.912651
v 59.956879 35.924625 -39.912651
v 59.956879 43.424633 -29.912655
v 59.956879 40.924633 -39.912651
v 49.956879 40.924633 -39.912651
v 49.956879 35.924625 -39.912651
v 49.956879 35.924625 -29.912653
v 49.956879 38.424629 -29.912655
v 59.956879 35.924625 -29.912653
v 49.956879 43.424633 -29.912655
v 49.956879 43.424637 -19.912657
v 49.956879 38.424633 -19.912657
v 39.956879 38.424633 -19.912657
v 49.956879 38.424633 -9.912655
v 49.956879 38.424633 0.087345
v 39.956879 38.424633 -9.912655
v 29.956879 38.424633 -9.912655
v 39.956879 38.424633 0.087345
v 39.956879 28.424637 0.087346
v 29.956879 38.424633 0.087345
v 19.956879 38.424633 0.087345
v 19.956879 38.424633 -9.912655
v 9.956879 38.424633 0.087345
v 19.956879 28.424637 0.087346
v 9.956879 28.424637 0.087346
v 19.956879 18.424633 0.087346
v 19.956879 13.424633 0.087347
v 9.956879 18.424633 0.087346
v 29.956879 18.424633 0.087346
v 39.956879 18.424633 0.087346
v 29.956879 13.424633 0.087347
v 39.956879 13.424633 0.087347
v -0.043122 18.424633 0.087346
v 9.956879 13.424633 0.087347
v 9.956879 13.424632 -9.912653
v 9.956879 18.424633 -9.912653
v 9.956879 18.424631 -19.912655
v -0.043122 23.424627 -9.912654
v 19.956879 13.424632 -9.912653
v -0.043122 28.424637 -9.912654
v -10.043159 25.924633 -9.912654
v -0.043122 23.424625 -19.912655
v -10.043159 25.924631 -19.912655
v -0.043122 23.424625 -29.912653
v -10.043159 25.924631 -29.912653
v -0.043122 18.424629 -39.912651
v 9.956879 18.424631 -29.912653
v 9.956879 13.424631 -29.912653
v 9.956879 13.424630 -39.912651
v 9.956879 13.424629 -49.912651
v 19.956879 13.424629 -49.912651
v 9.956879 13.424628 -59.912651
v -0.043122 18.424629 -49.912651
v -10.043159 20.924629 -49.912651
v -0.043122 18.424629 -59.912651
v -0.043122 15.924631 -69.912651
v -10.043159 20.924629 -59.912651
v -0.043122 15.924632 -59.912651
v -10.043159 28.424633 -59.912651
v -10.043159 18.424627 -69.912651
v -10.043159 28.424631 -69.912651
v -10.043159 18.424627 -79.912689
v -10.043159 13.424627 -69.912651
v -10.043159 13.424627 -79.912689
v -0.043122 13.424627 -69.912651
v 9.956879 13.424627 -69.912651
v -0.043122 13.424627 -79.912689
v -0.043122 10.924622 -79.912689
v 9.956879 13.424627 -79.912689
v 19.956879 13.424627 -79.912689
v 9.956879 13.424626 -89.912651
v 9.956879 10.924622 -79.912689
v 9.956879 10.924621 -89.912651
v 9.956879 10.924620 -99.912651
v 9.956879 13.424625 -99.912651
v 9.956879 13.424625 -99.912651
v -0.043122 10.924620 -99.912651
v -10.043159 10.924620 -99.912651
v -0.043122 13.424625 -99.912651
v -10.043159 10.924621 -89.912651
v -10.043159 10.924622 -79.912689
v -10.043159 13.424626 -89.912651
v -10.043159 13.424627 -79.912689
v -10.043159 23.424622 -79.912689
v 9.956879 25.924625 -99.912651
v 19.956879 25.924625 -99.912651
v 9.956879 18.424625 -99.912651
v 19.956879 18.424625 -99.912651
v 19.956879 13.424625 -99.912651
v 29.956879 18.424625 -99.912651
v 29.956879 13.424625 -99.912651
v 29.956879 25.924625 -99.912651
v 39.956879 18.424625 -99.912651
v 39.956879 28.424629 -99.912651
v 39.956879 13.424625 -99.912651
v 49.956879 18.424625 -99.912651
v 49.956879 30.924625 -99.912651
v 49.956879 13.424625 -99.912651
v 49.956879 13.424626 -89.912651
v 59.956879 13.424625 -99.912651
v 49.956879 25.924625 -99.912651
v 59.956879 25.924625 -99.912651
v 59.956879 35.924622 -99.912651
v 69.956879 25.924625 -99.912651
v 59.956879 23.424620 -99.912651
v 59.956879 13.424626 -89.912651
v 39.956879 13.424626 -89.912651
v 49.956879 13.424627 -79.912689
v 39.956879 13.424627 -79.912689
v 49.956879 18.424627 -69.912651
v 39.956879 18.424627 -69.912651
v 39.956879 15.924631 -69.912651
v 29.956879 15.924631 -69.912651
v 29.956879 13.424627 -69.912651
v 29.956879 13.424627 -79.912689
v 29.956879 13.424628 -59.912651
v 19.956879 13.424628 -59.912651
v 19.956879 13.424627 -69.912651
v 29.956879 13.424626 -89.912651
v 19.956879 13.424626 -89.912651
v 39.956879 30.924625 -89.912651
v 29.956879 28.424629 -89.912651
v 39.956879 35.924622 -89.912651
v 39.956879 38.424625 -89.912651
v 39.956879 38.424625 -79.912689
v 29.956879 38.424625 -79.912689
v 39.956879 38.424629 -69.912651
v 29.956879 38.424629 -69.912651
v 29.956879 38.424629 -59.912651
v 19.956879 38.424629 -69.912651
v 19.956879 38.424625 -79.912689
v 19.956879 35.924622 -89.912651
v 19.956879 28.424629 -89.912651
v 29.956879 35.924622 -89.912651
v -10.043159 28.424631 -79.912689
v -10.043159 33.424629 -69.912651
v -10.043159 33.424629 -59.912651
v -10.043159 33.424629 -49.912651
v -10.043159 33.424629 -39.912651
v -10.043159 28.424633 -49.912651
v -10.043159 28.424633 -39.912651
v -10.043159 20.924629 -39.912651
v -10.043159 28.424635 -29.912653
v -10.043159 33.424629 -29.912653
v -10.043159 28.424635 -19.912655
v -10.043159 30.924631 -19.912655
v -0.043122 33.424633 -19.912655
v -10.043159 25.924633 -9.912654
v -0.043122 38.424633 -19.912657
v 9.956879 33.424633 -19.912655
v -0.043122 35.924625 -29.912653
v -0.043122 35.924625 -39.912651
v 9.956879 38.424629 -29.912655
v -0.043122 38.424629 -29.912655
v 9.956879 38.424633 -19.912657
v 19.956879 38.424633 -19.912657
v 9.956879 38.424633 -9.912655
v 9.956879 28.424637 -9.912654
v 29.956879 38.424633 -19.912657
v -0.043122 28.424637 0.087346
v 69.956879 43.424633 -59.912651
v 79.956879 43.424633 -59.912651
v 69.956879 43.424633 -69.912651
v 79.956879 43.424633 -69.912651
v 89.956879 43.424633 -69.912651
v 79.956879 43.424629 -79.912689
v 89.956879 43.424629 -79.912689
v 89.956879 35.924622 -79.912689
v 89.956879 35.924625 -69.912651
v 89.956879 43.424633 -59.912651
v 89.956879 33.424629 -69.912651
v 69.956879 30.924633 0.087345
vn -0.0000 -0.0000 1.0000
vn 1.0000 -0.0000 -0.0000
vn 0.2357 -0.9428 0.2357
vn 0.2182 -0.8729 0.4364
vn -0.0000 -0.9701 0.2425
vn -0.0000 -1.0000 -0.0000
vn -0.0000 -0.0000 -1.0000
vn 0.2425 -0.9701 -0.0000
vn -1.0000 -0.0000 -0.0000
vn 0.4364 -0.8729 0.2182
vn -0.5571 0.7428 0.3714
vn -0.4082 0.8165 -0.4082
vn -0.4364 0.8729 0.2182
vn -0.0000 0.9701 0.2425
vn -0.0000 0.8944 -0.4472
vn -0.0000 0.8944 0.4472
vn -0.4082 0.8165 0.4082
vn -0.3714 0.7428 0.5571
vn -0.0000 0.8000 0.6000
vn -0.0000 0.8000 -0.6000
vn -0.0000 1.0000 -0.0000
vn -0.2357 0.9428 -0.2357
vn -0.2425 0.9701 -0.0000
vn -0.0000 -0.8000 -0.6000
vn -0.0000 -0.8944 -0.4472
vn -0.4472 0.8944 -0.0000
vn 0.4082 0.8165 0.4082
vn 0.4472 0.8944 -0.0000
vn 0.2425 0.9701 -0.0000
vn 0.2182 0.8729 -0.4364
vn 0.4082 0.8165 -0.4082
vn 0.2357 0.9428 -0.2357
vn -0.0000 0.9701 -0.2425
vn 0.2357 -0.9428 -0.2357
vn 0.2182 -0.8729 -0.4364
vn -0.1961 -0.7845 -0.5883
vt 0.752941 0.998039
vt 0.872549 0.878431
vt 0.872549 0.998039
vt 0.752941 0.878431
vt 0.872549 0.966667
vt 0.752941 0.966667
vt 0.752941 0.498039
vt 0.872549 0.378431
vt 0.872549 0.498039
vt 0.501961 0.498039
vt 0.621569 0.378431
vt 0.621569 0.498039
vt 0.752941 0.941177
vt 0.627451 0.378431
vt 0.747059 0.498039
vt 0.627451 0.498039
vt 0.501961 0.378431
vt 0.252941 0.501961
vt 0.372549 0.621569
vt 0.252941 0.621569
vt 0.501961 0.409804
vt 0.501961 0.252941
vt 0.621569 0.372549
vt 0.501961 0.372549
vt 0.627451 0.472549
vt 0.627451 0.752941
vt 0.747059 0.872549
vt 0.627451 0.872549
vt 0.252941 0.252941
vt 0.372549 0.278432
vt 0.252941 0.278432
vt 0.752941 0.847059
vt 0.872549 0.872549
vt 0.752941 0.872549
vt 0.752941 0.784313
vt 0.752941 0.501961
vt 0.872549 0.621569
vt 0.752941 0.621569
vt 0.752941 0.752941
vt 0.747059 0.378431
vt 0.127451 0.501961
vt 0.247059 0.621569
vt 0.127451 0.621569
vt 0.001961 0.747059
vt 0.121569 0.627451
vt 0.121569 0.747059
vt 0.001961 0.684314
vt 0.001961 0.658823
vt 0.121569 0.684314
vt 0.001961 0.501961
vt 0.121569 0.621569
vt 0.001961 0.621569
vt 0.252941 0.627451
vt 0.372549 0.747059
vt 0.252941 0.747059
vt 0.127451 0.747059
vt 0.127451 0.627451
vt 0.247059 0.747059
vt 0.378431 0.627451
vt 0.498039 0.747059
vt 0.378431 0.747059
vt 0.001961 0.627451
vt 0.247059 0.627451
vt 0.498039 0.627451
vt 0.252941 0.690196
vt 0.498039 0.690196
vt 0.127451 0.721568
vt 0.501961 0.752941
vt 0.621569 0.872549
vt 0.501961 0.872549
vt 0.621569 0.841177
vt 0.501961 0.841177
vt 0.501961 0.878431
vt 0.621569 0.998039
vt 0.501961 0.998039
vt 0.501961 0.909804
vt 0.247059 0.684314
vt 0.127451 0.684314
vt 0.247059 0.690196
vt 0.127451 0.690196
vt 0.127451 0.658823
vt 0.127451 0.715687
vt 0.247059 0.715687
vt 0.372549 0.627451
vt 0.752941 0.815686
vt 0.378431 0.252941
vt 0.498039 0.372549
vt 0.378431 0.372549
vt 0.127451 0.252941
vt 0.247059 0.372549
vt 0.127451 0.372549
vt 0.252941 0.378431
vt 0.372549 0.498039
vt 0.252941 0.498039
vt 0.127451 0.378431
vt 0.247059 0.498039
vt 0.127451 0.498039
vt 0.378431 0.378431
vt 0.498039 0.498039
vt 0.378431 0.498039
vt 0.001961 0.252941
vt 0.121569 0.372549
vt 0.001961 0.372549
vt 0.878431 0.435294
vt 0.878431 0.378431
vt 0.998039 0.435294
vt 0.127451 0.652941
vt 0.247059 0.652941
vt 0.121569 0.715687
vt 0.001961 0.715687
vt 0.001961 0.878431
vt 0.121569 0.998039
vt 0.001961 0.998039
vt 0.752941 0.378431
vt 0.378431 0.721568
vt 0.252941 0.596079
vt 0.998039 0.498039
vt 0.878431 0.498039
vt 0.872549 0.941177
vt 0.998039 0.378431
vt 0.501961 0.472549
vt 0.501961 0.127451
vt 0.621569 0.247059
vt 0.501961 0.247059
vt 0.747059 0.409804
vt 0.501961 0.847059
vt 0.372549 0.501961
vt 0.621569 0.409804
vt 0.621569 0.252941
vt 0.747059 0.752941
vt 0.372549 0.252941
vt 0.872549 0.847059
vt 0.872549 0.784313
vt 0.872549 0.501961
vt 0.872549 0.752941
vt 0.247059 0.501961
vt 0.121569 0.501961
vt 0.378431 0.690196
vt 0.621569 0.752941
vt 0.621569 0.878431
vt 0.621569 0.909804
vt 0.872549 0.815686
vt 0.498039 0.252941
vt 0.247059 0.252941
vt 0.372549 0.378431
vt 0.247059 0.378431
vt 0.498039 0.378431
vt 0.121569 0.252941
vt 0.121569 0.878431
vt 0.621569 0.127451
vt 0.627451 0.409804
s 0
usemtl Material.001
f 264/1/1 1/2/1 2/3/1
f 1/4/2 267/5/2 2/6/2
f 1/1/2 5/4/2 3/3/2
f 4/7/3 5/8/3 1/9/3
f 7/10/4 6/11/4 5/12/4
f 5/13/2 269/3/2 3/1/2
f 10/14/2 8/15/2 7/16/2
f 11/17/1 7/12/1 9/10/1
f 9/17/5 4/12/5 270/10/5
f 12/18/5 11/19/5 13/20/5
f 14/18/6 13/19/6 16/20/6
f 12/14/2 15/15/2 8/16/2
f 14/21/2 18/12/2 15/10/2
f 19/22/6 14/23/6 16/24/6
f 18/16/7 17/25/7 19/15/7
f 24/22/6 19/23/6 20/24/6
f 20/18/6 16/19/6 315/20/6
f 22/17/8 19/12/8 21/10/8
f 23/14/8 22/15/8 21/16/8
f 23/22/6 24/23/6 26/24/6
f 25/18/6 20/19/6 314/20/6
f 25/26/6 26/27/6 24/28/6
f 26/4/6 29/3/6 27/1/6
f 26/26/6 338/27/6 23/28/6
f 33/4/6 28/3/6 25/1/6
f 30/4/6 29/3/6 28/1/6
f 32/4/6 31/3/6 30/1/6
f 33/4/6 32/3/6 30/1/6
f 35/4/6 34/3/6 37/1/6
f 34/26/6 25/27/6 314/28/6
f 36/29/2 32/30/2 35/31/2
f 40/29/2 35/30/2 37/31/2
f 37/32/9 47/33/9 39/34/9
f 37/4/6 312/3/6 38/1/6
f 41/35/1 39/33/1 44/34/1
f 42/4/6 40/3/6 41/1/6
f 43/29/2 42/30/2 41/31/2
f 44/36/6 47/37/6 45/38/6
f 46/39/2 44/33/2 45/34/2
f 48/39/7 45/33/7 47/34/7
f 49/39/2 38/33/2 51/34/2
f 50/26/6 48/27/6 49/28/6
f 55/18/6 49/19/6 52/20/6
f 52/39/2 51/33/2 53/34/2
f 56/16/1 52/40/1 54/15/1
f 57/10/1 55/17/1 56/12/1
f 57/26/6 50/27/6 55/28/6
f 58/17/10 56/12/10 288/10/10
f 58/16/2 61/25/2 57/15/2
f 351/4/6 57/3/6 60/1/6
f 60/4/6 61/3/6 63/1/6
f 64/1/1 61/2/1 62/3/1
f 66/4/6 63/3/6 65/1/6
f 67/1/1 63/2/1 64/3/1
f 66/41/9 67/42/9 68/43/9
f 68/44/11 64/45/11 69/46/11
f 69/47/7 71/48/7 68/49/7
f 70/50/9 66/51/9 68/52/9
f 68/53/12 72/54/12 70/55/12
f 64/56/2 71/57/2 69/58/2
f 71/44/13 62/45/13 73/46/13
f 71/59/12 75/60/12 72/61/12
f 62/57/14 74/58/14 73/56/14
f 73/53/15 76/54/15 75/55/15
f 75/62/16 80/46/16 77/44/16
f 79/56/17 75/63/17 77/58/17
f 169/61/18 77/64/18 78/60/18
f 77/53/19 83/54/19 78/55/19
f 80/59/19 84/60/19 83/61/19
f 82/62/20 81/46/20 80/44/20
f 80/56/9 76/57/9 82/58/9
f 83/4/21 88/3/21 85/1/21
f 78/4/21 85/3/21 87/1/21
f 110/4/21 85/3/21 86/1/21
f 85/4/21 89/3/21 86/1/21
f 84/4/21 90/3/21 88/1/21
f 88/4/21 93/3/21 89/1/21
f 90/4/21 95/3/21 93/1/21
f 92/4/21 91/3/21 90/1/21
f 94/4/21 89/3/21 93/1/21
f 97/4/21 93/3/21 95/1/21
f 98/4/21 95/3/21 96/1/21
f 91/4/21 96/3/21 95/1/21
f 100/4/21 97/3/21 98/1/21
f 99/4/21 94/3/21 97/1/21
f 99/4/21 224/3/21 101/1/21
f 102/4/21 101/3/21 103/1/21
f 104/4/21 103/3/21 105/1/21
f 102/4/21 107/3/21 94/1/21
f 105/4/21 106/3/21 104/1/21
f 104/4/21 108/3/21 107/1/21
f 107/4/21 86/3/21 89/1/21
f 112/4/21 108/3/21 106/1/21
f 109/4/21 86/3/21 108/1/21
f 111/50/21 110/51/21 109/52/21
f 111/4/21 112/3/21 114/1/21
f 128/4/21 112/3/21 106/1/21
f 115/41/21 112/42/21 113/43/21
f 115/55/9 117/65/9 114/54/9
f 117/57/22 116/58/22 114/56/22
f 160/53/23 114/54/23 116/55/23
f 118/57/22 119/58/22 120/56/22
f 124/61/9 117/66/9 115/60/9
f 119/56/7 121/67/7 120/58/7
f 134/68/7 119/69/7 122/70/7
f 122/68/7 124/71/7 125/72/7
f 124/50/21 113/51/21 125/52/21
f 129/68/7 125/71/7 126/72/7
f 113/4/21 126/3/21 125/1/21
f 130/68/7 126/71/7 127/72/7
f 126/4/21 105/3/21 127/1/21
f 131/73/7 122/74/7 129/75/7
f 132/73/7 129/74/7 130/75/7
f 200/73/7 131/74/7 132/75/7
f 135/76/7 134/74/7 131/75/7
f 136/57/24 137/58/24 140/56/24
f 135/56/9 133/67/9 137/58/9
f 140/4/6 138/3/6 141/1/6
f 196/26/6 137/27/6 139/28/6
f 139/62/25 133/46/25 200/44/25
f 140/26/6 145/27/6 143/28/6
f 136/57/9 142/77/9 357/78/9
f 142/56/7 143/79/7 144/58/7
f 143/57/9 147/77/9 144/78/9
f 145/4/6 183/3/6 146/1/6
f 145/26/6 149/27/6 148/28/6
f 145/80/7 150/58/7 147/56/7
f 148/68/9 152/69/9 151/70/9
f 151/59/9 159/60/9 153/61/9
f 154/53/9 153/54/9 155/55/9
f 156/59/9 151/60/9 154/61/9
f 156/59/25 147/60/25 150/61/25
f 157/57/24 144/58/24 156/56/24
f 157/56/9 156/81/9 158/58/9
f 157/57/9 155/58/9 120/56/9
f 123/62/7 120/46/7 121/44/7
f 120/82/9 155/57/9 118/83/9
f 118/53/9 153/54/9 116/55/9
f 153/62/9 160/46/9 116/44/9
f 162/53/9 161/54/9 160/55/9
f 111/59/23 161/60/23 164/61/23
f 164/53/26 168/54/26 166/55/26
f 164/41/21 87/42/21 110/43/21
f 166/44/9 169/62/9 167/46/9
f 167/50/21 87/51/21 166/52/21
f 169/61/17 168/64/17 170/60/17
f 170/55/18 79/84/18 169/54/18
f 167/56/1 169/57/1 78/58/1
f 171/50/9 172/51/9 356/52/9
f 174/53/9 170/54/9 168/55/9
f 175/4/9 173/3/9 174/1/9
f 176/59/9 168/60/9 165/61/9
f 177/4/9 174/3/9 176/1/9
f 178/4/9 175/3/9 177/1/9
f 178/4/6 181/3/6 179/1/6
f 149/4/6 180/3/6 178/1/6
f 180/4/6 184/3/6 181/1/6
f 146/4/6 182/3/6 180/1/6
f 183/4/6 185/3/6 182/1/6
f 182/4/6 186/3/6 184/1/6
f 186/29/2 189/30/2 42/31/2
f 185/39/2 194/33/2 187/34/2
f 190/85/7 187/33/7 191/34/7
f 189/4/6 36/3/6 42/1/6
f 194/36/6 191/37/6 187/38/6
f 193/32/9 191/33/9 192/34/9
f 188/39/1 192/33/1 194/34/1
f 138/4/6 195/3/6 188/1/6
f 195/39/2 197/33/2 193/34/2
f 196/39/2 199/33/2 197/34/2
f 199/4/6 198/3/6 197/1/6
f 197/4/6 31/3/6 193/1/6
f 139/1/2 200/13/2 199/3/2
f 200/4/6 201/3/6 199/1/6
f 201/4/6 344/3/6 198/1/6
f 203/4/6 202/3/6 201/1/6
f 203/86/7 132/87/7 204/88/7
f 202/4/6 206/3/6 207/1/6
f 206/4/6 342/3/6 207/1/6
f 208/89/7 209/90/7 210/91/7
f 210/89/7 211/90/7 213/91/7
f 211/92/7 216/93/7 212/94/7
f 213/95/7 212/96/7 219/97/7
f 214/98/7 217/99/7 216/100/7
f 101/4/21 212/3/21 216/1/21
f 103/4/21 216/3/21 217/1/21
f 215/101/7 127/102/7 217/103/7
f 105/4/21 217/3/21 127/1/21
f 204/86/7 130/87/7 215/88/7
f 218/72/7 213/68/7 219/71/7
f 345/68/7 213/69/7 218/70/7
f 218/55/27 221/84/27 223/54/27
f 220/4/21 212/3/21 224/1/21
f 220/56/2 221/81/2 219/58/2
f 222/57/28 224/58/28 100/56/28
f 221/59/28 227/60/28 223/61/28
f 226/104/7 225/105/7 223/106/7
f 223/7/2 345/8/2 218/9/2
f 228/57/29 223/58/29 227/56/29
f 230/62/29 227/46/29 229/44/29
f 222/53/28 229/54/28 227/55/28
f 327/57/30 229/58/30 231/56/30
f 232/59/31 231/60/31 229/61/31
f 232/62/28 100/46/28 98/44/28
f 233/56/7 232/81/7 98/58/7
f 234/56/2 232/81/2 233/58/2
f 236/4/21 234/3/21 96/1/21
f 234/53/28 238/54/28 231/55/28
f 234/4/21 98/3/21 96/1/21
f 302/4/21 235/3/21 236/1/21
f 235/59/28 240/60/28 238/61/28
f 239/62/29 231/46/29 238/44/29
f 242/57/29 238/58/29 240/56/29
f 241/78/2 240/57/2 243/77/2
f 245/62/32 240/46/32 241/44/32
f 243/107/7 240/57/7 237/108/7
f 241/53/29 237/54/29 251/55/29
f 244/4/2 239/5/2 242/6/2
f 246/4/2 242/5/2 245/6/2
f 320/4/2 245/5/2 247/6/2
f 247/4/2 248/5/2 249/6/2
f 241/62/7 248/109/7 245/110/7
f 252/4/21 248/3/21 250/1/21
f 241/82/7 251/57/7 250/83/7
f 254/111/21 250/112/21 251/113/21
f 252/29/7 257/30/7 253/31/7
f 249/29/7 253/30/7 266/31/7
f 255/4/21 251/3/21 303/1/21
f 305/4/21 254/3/21 255/1/21
f 254/29/9 258/30/9 257/31/9
f 256/29/9 259/30/9 258/31/9
f 261/29/1 262/30/1 259/31/1
f 264/29/1 263/30/1 262/31/1
f 270/4/1 264/3/1 261/1/1
f 2/29/2 265/30/2 263/31/2
f 267/29/2 266/30/2 265/31/2
f 3/4/2 268/5/2 267/6/2
f 270/114/5 318/9/5 9/7/5
f 271/4/1 272/3/1 273/1/1
f 260/50/1 273/51/1 272/52/1
f 274/41/1 275/42/1 273/43/1
f 277/4/1 273/3/1 275/1/1
f 278/4/1 276/3/1 280/1/1
f 278/1/1 277/2/1 275/3/1
f 281/1/1 279/2/1 278/3/1
f 281/4/1 280/3/1 283/1/1
f 283/4/21 292/3/21 284/1/21
f 285/4/21 284/3/21 291/1/21
f 287/4/1 283/3/1 285/1/1
f 287/1/1 282/2/1 286/3/1
f 289/1/1 288/2/1 287/3/1
f 289/4/1 290/3/1 62/1/1
f 74/62/9 285/46/9 291/44/9
f 288/114/10 54/9/10 282/7/10
f 82/61/9 74/64/9 291/60/9
f 291/4/21 293/3/21 82/1/21
f 284/4/21 294/3/21 293/1/21
f 293/57/15 296/58/15 295/56/15
f 295/61/9 81/115/9 293/60/9
f 295/53/16 92/54/16 84/55/16
f 84/61/9 81/115/9 295/60/9
f 297/61/9 296/115/9 294/60/9
f 92/61/9 296/115/9 297/60/9
f 294/62/33 298/46/33 297/44/33
f 297/59/14 301/60/14 92/61/14
f 301/61/9 298/115/9 299/60/9
f 299/61/9 298/115/9 300/60/9
f 301/4/21 236/3/21 91/1/21
f 299/41/21 302/42/21 301/43/21
f 303/4/21 237/3/21 302/1/21
f 303/50/21 300/51/21 255/52/21
f 292/4/21 300/3/21 294/1/21
f 304/4/21 255/3/21 300/1/21
f 280/4/21 304/3/21 292/1/21
f 276/4/21 305/3/21 304/1/21
f 274/4/21 256/3/21 305/1/21
f 282/10/3 306/11/3 279/12/3
f 279/7/3 307/8/3 277/9/3
f 306/16/1 319/40/1 307/15/1
f 54/10/1 309/11/1 306/12/1
f 53/26/6 310/27/6 309/28/6
f 308/20/2 309/116/2 310/19/2
f 310/18/5 319/19/5 308/20/5
f 310/26/6 313/27/6 311/28/6
f 310/4/6 38/3/6 312/1/6
f 313/26/6 34/27/6 314/28/6
f 314/18/6 315/19/6 313/20/6
f 316/18/6 313/19/6 315/20/6
f 315/18/6 13/19/6 316/20/6
f 311/18/5 317/19/5 319/20/5
f 13/18/5 317/19/5 316/20/5
f 317/14/1 9/15/1 318/16/1
f 319/17/1 318/12/1 307/10/1
f 277/17/5 318/12/5 271/10/5
f 6/13/2 246/3/2 320/1/2
f 321/13/2 244/3/2 246/1/2
f 321/114/3 8/9/3 15/7/3
f 18/17/8 321/12/8 15/10/8
f 322/13/2 325/3/2 244/1/2
f 323/114/8 18/9/8 22/7/8
f 337/105/8 323/117/8 22/118/8
f 323/13/2 326/3/2 325/1/2
f 325/4/2 327/5/2 239/6/2
f 324/13/2 328/3/2 326/1/2
f 326/4/2 230/5/2 327/6/2
f 328/1/2 331/119/2 330/3/2
f 328/4/2 228/5/2 230/6/2
f 329/118/34 332/120/34 331/117/34
f 228/6/2 331/4/2 226/5/2
f 331/7/35 225/8/35 333/9/35
f 343/14/25 332/15/25 335/16/25
f 334/21/7 335/12/7 332/10/7
f 334/21/2 336/12/2 339/10/2
f 324/114/8 336/9/8 329/7/8
f 338/17/8 337/12/8 23/10/8
f 338/10/1 339/121/1 336/12/1
f 334/122/6 338/123/6 340/124/6
f 27/4/6 340/3/6 338/1/6
f 341/4/6 342/3/6 340/1/6
f 335/16/2 342/125/2 343/15/2
f 342/17/2 210/12/2 343/10/2
f 210/114/6 225/9/6 343/7/6
f 202/4/6 341/3/6 344/1/6
f 344/4/6 27/3/6 29/1/6
f 31/4/6 344/3/6 29/1/6
f 141/4/6 188/3/6 183/1/6
f 184/4/6 43/3/6 346/1/6
f 181/4/6 346/3/6 347/1/6
f 346/4/6 46/3/6 348/1/6
f 347/4/6 348/3/6 349/1/6
f 349/4/6 59/3/6 351/1/6
f 348/4/6 50/3/6 59/1/6
f 355/4/6 349/3/6 350/1/6
f 350/4/6 351/3/6 352/1/6
f 352/4/6 60/3/6 66/1/6
f 350/4/9 353/3/9 354/1/9
f 70/43/9 171/41/9 354/42/9
f 355/4/9 356/3/9 172/1/9
f 179/4/6 347/3/6 355/1/6
f 175/4/9 355/3/9 172/1/9
f 171/44/17 72/45/17 79/46/17
f 357/44/36 144/45/36 123/46/36
f 134/70/7 357/126/7 123/69/7
f 264/1/1 4/4/1 1/2/1
f 1/4/2 3/2/2 267/5/2
f 4/7/3 7/114/3 5/8/3
f 7/10/4 8/17/4 6/11/4
f 5/13/2 6/119/2 269/3/2
f 10/14/2 12/40/2 8/15/2
f 11/17/1 10/11/1 7/12/1
f 9/17/5 7/11/5 4/12/5
f 12/18/5 10/127/5 11/19/5
f 14/18/6 12/127/6 13/19/6
f 12/14/2 14/40/2 15/15/2
f 14/21/2 17/128/2 18/12/2
f 19/22/6 17/129/6 14/23/6
f 24/22/6 21/129/6 19/23/6
f 20/18/6 19/127/6 16/19/6
f 22/17/8 18/11/8 19/12/8
f 23/14/8 337/40/8 22/15/8
f 23/22/6 21/129/6 24/23/6
f 25/18/6 24/127/6 20/19/6
f 25/26/6 28/130/6 26/27/6
f 26/4/6 28/2/6 29/3/6
f 26/26/6 27/130/6 338/27/6
f 33/4/6 30/2/6 28/3/6
f 30/4/6 31/2/6 29/3/6
f 32/4/6 193/2/6 31/3/6
f 33/4/6 35/2/6 32/3/6
f 35/4/6 33/2/6 34/3/6
f 34/26/6 33/130/6 25/27/6
f 36/29/2 190/131/2 32/30/2
f 40/29/2 36/131/2 35/30/2
f 37/32/9 38/132/9 47/33/9
f 37/4/6 34/2/6 312/3/6
f 41/35/1 40/133/1 39/33/1
f 42/4/6 36/2/6 40/3/6
f 43/29/2 186/131/2 42/30/2
f 44/36/6 39/134/6 47/37/6
f 46/39/2 43/135/2 44/33/2
f 48/39/7 46/135/7 45/33/7
f 49/39/2 48/135/2 38/33/2
f 50/26/6 46/130/6 48/27/6
f 55/18/6 50/127/6 49/19/6
f 52/39/2 49/135/2 51/33/2
f 56/16/1 55/14/1 52/40/1
f 57/26/6 59/130/6 50/27/6
f 58/17/10 57/11/10 56/12/10
f 351/4/6 59/2/6 57/3/6
f 60/4/6 57/2/6 61/3/6
f 64/1/1 63/4/1 61/2/1
f 66/4/6 60/2/6 63/3/6
f 67/1/1 65/4/1 63/2/1
f 66/41/9 65/136/9 67/42/9
f 68/44/11 67/62/11 64/45/11
f 70/50/9 352/137/9 66/51/9
f 68/53/12 71/84/12 72/54/12
f 71/44/13 64/62/13 62/45/13
f 71/59/12 73/64/12 75/60/12
f 62/57/14 290/63/14 74/58/14
f 73/53/15 74/84/15 76/54/15
f 75/62/16 76/45/16 80/46/16
f 79/56/17 72/57/17 75/63/17
f 169/61/18 79/59/18 77/64/18
f 77/53/19 80/84/19 83/54/19
f 80/59/19 81/64/19 84/60/19
f 82/62/20 293/45/20 81/46/20
f 83/4/21 84/2/21 88/3/21
f 78/4/21 83/2/21 85/3/21
f 110/4/21 87/2/21 85/3/21
f 85/4/21 88/2/21 89/3/21
f 84/4/21 92/2/21 90/3/21
f 88/4/21 90/2/21 93/3/21
f 90/4/21 91/2/21 95/3/21
f 92/4/21 301/2/21 91/3/21
f 94/4/21 107/2/21 89/3/21
f 97/4/21 94/2/21 93/3/21
f 98/4/21 97/2/21 95/3/21
f 91/4/21 236/2/21 96/3/21
f 100/4/21 99/2/21 97/3/21
f 99/4/21 102/2/21 94/3/21
f 99/4/21 100/2/21 224/3/21
f 102/4/21 99/2/21 101/3/21
f 104/4/21 102/2/21 103/3/21
f 102/4/21 104/2/21 107/3/21
f 105/4/21 128/2/21 106/3/21
f 104/4/21 106/2/21 108/3/21
f 107/4/21 108/2/21 86/3/21
f 112/4/21 109/2/21 108/3/21
f 109/4/21 110/2/21 86/3/21
f 111/50/21 164/137/21 110/51/21
f 111/4/21 109/2/21 112/3/21
f 128/4/21 113/2/21 112/3/21
f 115/41/21 114/136/21 112/42/21
f 117/57/22 118/63/22 116/58/22
f 160/53/23 111/84/23 114/54/23
f 118/57/22 117/63/22 119/58/22
f 124/61/9 119/138/9 117/66/9
f 134/68/7 123/139/7 119/69/7
f 122/68/7 119/139/7 124/71/7
f 124/50/21 115/137/21 113/51/21
f 129/68/7 122/139/7 125/71/7
f 113/4/21 128/2/21 126/3/21
f 130/68/7 129/139/7 126/71/7
f 126/4/21 128/2/21 105/3/21
f 131/73/7 134/140/7 122/74/7
f 132/73/7 131/140/7 129/74/7
f 200/73/7 133/140/7 131/74/7
f 135/76/7 136/141/7 134/74/7
f 136/57/24 135/63/24 137/58/24
f 140/4/6 137/2/6 138/3/6
f 196/26/6 138/130/6 137/27/6
f 139/62/25 137/45/25 133/46/25
f 140/26/6 141/130/6 145/27/6
f 136/57/9 140/63/9 142/77/9
f 142/56/7 140/80/7 143/79/7
f 143/57/9 145/63/9 147/77/9
f 145/4/6 141/2/6 183/3/6
f 145/26/6 146/130/6 149/27/6
f 145/80/7 148/79/7 150/58/7
f 148/68/9 149/139/9 152/69/9
f 151/59/9 152/64/9 159/60/9
f 154/53/9 151/84/9 153/54/9
f 156/59/9 150/64/9 151/60/9
f 156/59/25 144/64/25 147/60/25
f 157/57/24 123/63/24 144/58/24
f 157/57/9 158/63/9 155/58/9
f 123/62/7 157/45/7 120/46/7
f 118/53/9 155/84/9 153/54/9
f 153/62/9 159/45/9 160/46/9
f 162/53/9 163/84/9 161/54/9
f 111/59/23 160/64/23 161/60/23
f 164/53/26 165/84/26 168/54/26
f 164/41/21 166/136/21 87/42/21
f 167/50/21 78/137/21 87/51/21
f 169/61/17 166/59/17 168/64/17
f 170/55/18 171/53/18 79/84/18
f 171/50/9 170/137/9 172/51/9
f 174/53/9 173/84/9 170/54/9
f 175/4/9 172/2/9 173/3/9
f 176/59/9 174/64/9 168/60/9
f 177/4/9 175/2/9 174/3/9
f 178/4/9 179/2/9 175/3/9
f 178/4/6 180/2/6 181/3/6
f 149/4/6 146/2/6 180/3/6
f 180/4/6 182/2/6 184/3/6
f 146/4/6 183/2/6 182/3/6
f 183/4/6 188/2/6 185/3/6
f 182/4/6 185/2/6 186/3/6
f 186/29/2 185/131/2 189/30/2
f 185/39/2 188/135/2 194/33/2
f 190/85/7 189/142/7 187/33/7
f 189/4/6 190/2/6 36/3/6
f 194/36/6 192/134/6 191/37/6
f 193/32/9 32/132/9 191/33/9
f 188/39/1 195/135/1 192/33/1
f 138/4/6 196/2/6 195/3/6
f 195/39/2 196/135/2 197/33/2
f 196/39/2 139/135/2 199/33/2
f 199/4/6 201/2/6 198/3/6
f 197/4/6 198/2/6 31/3/6
f 200/4/6 203/2/6 201/3/6
f 201/4/6 202/2/6 344/3/6
f 203/4/6 205/2/6 202/3/6
f 203/86/7 200/143/7 132/87/7
f 202/4/6 205/2/6 206/3/6
f 206/4/6 208/2/6 342/3/6
f 208/89/7 206/144/7 209/90/7
f 210/89/7 209/144/7 211/90/7
f 211/92/7 214/145/7 216/93/7
f 213/95/7 211/146/7 212/96/7
f 214/98/7 215/147/7 217/99/7
f 101/4/21 224/2/21 212/3/21
f 103/4/21 101/2/21 216/3/21
f 215/101/7 130/148/7 127/102/7
f 105/4/21 103/2/21 217/3/21
f 204/86/7 132/143/7 130/87/7
f 345/68/7 210/139/7 213/69/7
f 218/55/27 219/53/27 221/84/27
f 220/4/21 219/2/21 212/3/21
f 222/57/28 221/63/28 224/58/28
f 221/59/28 222/64/28 227/60/28
f 223/7/2 225/114/2 345/8/2
f 228/57/29 226/63/29 223/58/29
f 230/62/29 228/45/29 227/46/29
f 222/53/28 232/84/28 229/54/28
f 327/57/30 230/63/30 229/58/30
f 232/59/31 234/64/31 231/60/31
f 232/62/28 222/45/28 100/46/28
f 236/4/21 235/2/21 234/3/21
f 234/53/28 235/84/28 238/54/28
f 234/4/21 233/2/21 98/3/21
f 302/4/21 237/2/21 235/3/21
f 235/59/28 237/64/28 240/60/28
f 239/62/29 327/45/29 231/46/29
f 242/57/29 239/63/29 238/58/29
f 245/62/32 242/45/32 240/46/32
f 241/53/29 243/84/29 237/54/29
f 244/4/2 325/2/2 239/5/2
f 246/4/2 244/2/2 242/5/2
f 320/4/2 246/2/2 245/5/2
f 247/4/2 245/2/2 248/5/2
f 241/62/7 250/45/7 248/109/7
f 252/4/21 249/2/21 248/3/21
f 254/111/21 252/149/21 250/112/21
f 252/29/7 254/131/7 257/30/7
f 249/29/7 252/131/7 253/30/7
f 255/4/21 254/2/21 251/3/21
f 305/4/21 256/2/21 254/3/21
f 254/29/9 256/131/9 258/30/9
f 256/29/9 260/131/9 259/30/9
f 261/29/1 264/131/1 262/30/1
f 264/29/1 2/131/1 263/30/1
f 270/4/1 4/2/1 264/3/1
f 2/29/2 267/131/2 265/30/2
f 267/29/2 268/131/2 266/30/2
f 3/4/2 269/2/2 268/5/2
f 270/114/5 271/8/5 318/9/5
f 271/4/1 270/2/1 272/3/1
f 260/50/1 274/137/1 273/51/1
f 274/41/1 276/136/1 275/42/1
f 277/4/1 271/2/1 273/3/1
f 278/4/1 275/2/1 276/3/1
f 278/1/1 279/4/1 277/2/1
f 281/1/1 282/4/1 279/2/1
f 281/4/1 278/2/1 280/3/1
f 283/4/21 280/2/21 292/3/21
f 285/4/21 283/2/21 284/3/21
f 287/4/1 286/2/1 283/3/1
f 287/1/1 288/4/1 282/2/1
f 289/1/1 58/4/1 288/2/1
f 289/4/1 287/2/1 290/3/1
f 74/62/9 290/45/9 285/46/9
f 288/114/10 56/8/10 54/9/10
f 82/61/9 76/59/9 74/64/9
f 291/4/21 284/2/21 293/3/21
f 284/4/21 292/2/21 294/3/21
f 293/57/15 294/63/15 296/58/15
f 295/53/16 296/84/16 92/54/16
f 294/62/33 300/45/33 298/46/33
f 297/59/14 298/64/14 301/60/14
f 301/4/21 302/2/21 236/3/21
f 299/41/21 303/136/21 302/42/21
f 303/4/21 251/2/21 237/3/21
f 303/50/21 299/137/21 300/51/21
f 292/4/21 304/2/21 300/3/21
f 304/4/21 305/2/21 255/3/21
f 280/4/21 276/2/21 304/3/21
f 276/4/21 274/2/21 305/3/21
f 274/4/21 260/2/21 256/3/21
f 282/10/3 54/17/3 306/11/3
f 279/7/3 306/114/3 307/8/3
f 306/16/1 308/14/1 319/40/1
f 54/10/1 53/17/1 309/11/1
f 53/26/6 51/130/6 310/27/6
f 310/18/5 311/127/5 319/19/5
f 310/26/6 312/130/6 313/27/6
f 310/4/6 51/2/6 38/3/6
f 313/26/6 312/130/6 34/27/6
f 314/18/6 20/127/6 315/19/6
f 316/18/6 311/127/6 313/19/6
f 315/18/6 16/127/6 13/19/6
f 311/18/5 316/127/5 317/19/5
f 13/18/5 11/127/5 317/19/5
f 317/14/1 11/40/1 9/15/1
f 319/17/1 317/11/1 318/12/1
f 277/17/5 307/11/5 318/12/5
f 6/13/2 321/119/2 246/3/2
f 321/13/2 322/119/2 244/3/2
f 321/114/3 6/8/3 8/9/3
f 18/17/8 322/11/8 321/12/8
f 322/13/2 323/119/2 325/3/2
f 323/114/8 322/8/8 18/9/8
f 337/105/8 324/120/8 323/117/8
f 323/13/2 324/119/2 326/3/2
f 325/4/2 326/2/2 327/5/2
f 324/13/2 329/119/2 328/3/2
f 326/4/2 328/2/2 230/5/2
f 328/1/2 329/13/2 331/119/2
f 328/4/2 330/2/2 228/5/2
f 329/118/34 336/105/34 332/120/34
f 331/7/35 332/114/35 225/8/35
f 343/14/25 225/40/25 332/15/25
f 334/21/7 340/128/7 335/12/7
f 334/21/2 332/128/2 336/12/2
f 324/114/8 337/8/8 336/9/8
f 338/17/8 336/11/8 337/12/8
f 334/122/6 339/150/6 338/123/6
f 27/4/6 341/2/6 340/3/6
f 341/4/6 207/2/6 342/3/6
f 335/16/2 340/151/2 342/125/2
f 342/17/2 208/11/2 210/12/2
f 210/114/6 345/8/6 225/9/6
f 202/4/6 207/2/6 341/3/6
f 344/4/6 341/2/6 27/3/6
f 31/4/6 198/2/6 344/3/6
f 141/4/6 138/2/6 188/3/6
f 184/4/6 186/2/6 43/3/6
f 181/4/6 184/2/6 346/3/6
f 346/4/6 43/2/6 46/3/6
f 347/4/6 346/2/6 348/3/6
f 349/4/6 348/2/6 59/3/6
f 348/4/6 46/2/6 50/3/6
f 355/4/6 347/2/6 349/3/6
f 350/4/6 349/2/6 351/3/6
f 352/4/6 351/2/6 60/3/6
f 350/4/9 352/2/9 353/3/9
f 355/4/9 350/2/9 356/3/9
f 179/4/6 181/2/6 347/3/6
f 175/4/9 179/2/9 355/3/9
f 171/44/17 70/62/17 72/45/17
f 357/44/36 142/62/36 144/45/36
