# Blender 5.1.2
# www.blender.org
mtllib room20.mtl
o 01-Caves.020
v -350.043091 35.924629 20.087347
v -340.043091 35.924629 20.087347
v -350.043091 35.924633 30.087385
v -350.043091 20.924635 20.087347
v -350.043091 13.424635 20.087347
v -340.043091 13.424635 20.087347
v -350.043091 8.424634 20.087349
v -350.043091 8.424634 30.087387
v -340.043091 8.424634 20.087349
v -330.043091 8.424634 20.087349
v -330.043091 13.424635 20.087347
v -320.043091 8.424634 20.087349
v -320.043091 13.424635 20.087347
v -320.043091 8.424634 30.087387
v -320.043091 13.424635 30.087385
v -320.043091 8.424635 40.087349
v -320.043091 10.924629 30.087387
v -310.043121 10.924629 30.087387
v -320.043091 10.924630 40.087349
v -310.043121 10.924630 40.087349
v -300.043121 10.924630 40.087349
v -310.043121 8.424635 40.087349
v -300.043121 8.424635 40.087349
v -290.043121 8.424635 40.087349
v -290.043121 8.424634 30.087387
v -290.043121 10.924630 40.087349
v -290.043121 10.924629 30.087387
v -290.043121 13.424635 30.087385
v -300.043121 10.924629 30.087387
v -300.043121 13.424635 30.087385
v -300.043121 18.424635 30.087385
v -310.043121 18.424635 30.087385
v -300.043121 25.924635 30.087385
v -300.043121 18.424635 20.087347
v -300.043121 13.424635 20.087347
v -300.043121 25.924635 20.087347
v -300.043121 35.924629 20.087347
v -290.043121 35.924629 20.087347
v -300.043121 35.924633 30.087385
v -310.043121 35.924633 30.087385
v -290.043121 35.924633 30.087385
v -300.043121 35.924633 40.087349
v -300.043121 38.424637 50.087349
v -290.043121 35.924633 40.087349
v -310.043121 35.924633 40.087349
v -320.043091 35.924633 40.087349
v -310.043121 38.424637 50.087349
v -310.043121 35.924633 60.087349
v -320.043091 38.424637 50.087349
v -330.043091 38.424637 50.087349
v -320.043091 35.924633 60.087349
v -330.043091 35.924633 60.087349
v -320.043091 35.924633 70.087349
v -320.043091 35.924637 80.087349
v -310.043121 35.924633 70.087349
v -330.043091 35.924633 70.087349
v -340.043091 35.924633 70.087349
v -330.043091 35.924637 80.087349
v -330.043091 13.424639 80.087349
v -340.043091 35.924637 80.087349
v -350.043091 35.924637 80.087349
v -340.043091 13.424639 80.087349
v -340.043091 8.424638 80.087349
v -350.043091 13.424639 80.087349
v -350.043091 8.424638 80.087349
v -350.043091 8.424638 70.087349
v -350.043091 20.924639 80.087349
v -350.043091 20.924639 70.087349
v -350.043091 20.924637 60.087349
v -350.043091 35.924633 70.087349
v -350.043091 35.924633 60.087349
v -340.043091 35.924633 60.087349
v -350.043091 38.424637 50.087349
v -350.043091 35.924633 50.087349
v -350.043091 35.924633 40.087349
v -350.043091 20.924637 50.087349
v -350.043091 8.424636 50.087349
v -350.043091 20.924637 40.087349
v -350.043091 20.924635 30.087385
v -350.043091 8.424635 40.087349
v -350.043091 8.424637 60.087349
v -340.043091 35.924633 40.087349
v -330.043091 35.924633 40.087349
v -340.043091 38.424637 50.087349
v -340.043091 35.924633 30.087385
v -330.043091 35.924633 30.087385
v -330.043091 35.924629 20.087347
v -320.043091 35.924633 30.087385
v -320.043091 35.924629 20.087347
v -310.043121 35.924629 20.087347
v -310.043121 13.424635 20.087347
v -310.043121 25.924635 20.087347
v -310.043121 25.924635 30.087385
v -310.043121 18.424635 20.087347
v -310.043121 13.424635 30.087385
v -330.043091 8.424638 80.087349
v -320.043091 8.424638 80.087349
v -320.043091 13.424639 80.087349
v -320.043091 8.424638 70.087349
v -320.043091 8.424637 60.087349
v -320.043091 10.924633 70.087349
v -320.043091 13.424639 70.087349
v -310.043121 13.424639 70.087349
v -310.043121 10.924633 70.087349
v -310.043121 13.424639 80.087349
v -310.043121 18.424639 70.087349
v -300.043121 18.424639 70.087349
v -310.043121 18.424639 80.087349
v -310.043121 25.924639 70.087349
v -300.043121 25.924639 70.087349
v -310.043121 25.924639 80.087349
v -310.043121 35.924637 80.087349
v -300.043121 25.924639 80.087349
v -300.043121 35.924633 70.087349
v -300.043121 35.924633 60.087349
v -290.043121 35.924633 70.087349
v -300.043121 35.924637 80.087349
v -290.043121 35.924637 80.087349
v -300.043121 13.424639 80.087349
v -300.043121 18.424639 80.087349
v -290.043121 13.424639 80.087349
v -300.043121 13.424639 70.087349
v -290.043121 13.424639 70.087349
v -300.043121 10.924633 70.087349
v -300.043121 10.924632 60.087349
v -290.043121 10.924633 70.087349
v -290.043121 10.924632 60.087349
v -290.043121 8.424638 70.087349
v -290.043121 8.424638 80.087349
v -290.043121 8.424637 60.087349
v -300.043121 8.424637 60.087349
v -310.043121 8.424637 60.087349
v -310.043121 10.924632 60.087349
v -320.043091 10.924632 60.087349
v -280.043121 8.424638 80.087349
v -280.043121 13.424639 80.087349
v -270.043121 8.424638 80.087349
v -270.043121 13.424639 80.087349
v -260.043121 8.424638 80.087349
v -260.043121 8.424638 70.087349
v -260.043121 20.924639 80.087349
v -260.043121 13.424639 80.087349
v -260.043121 35.924637 80.087349
v -270.043121 35.924637 80.087349
v -260.043121 35.924633 70.087349
v -270.043121 35.924633 70.087349
v -260.043121 35.924633 60.087349
v -260.043121 20.924639 70.087349
v -260.043121 20.924637 60.087349
v -260.043121 20.924637 50.087349
v -260.043121 8.424637 60.087349
v -260.043121 8.424636 50.087349
v -260.043121 8.424635 40.087349
v -260.043121 8.424634 30.087387
v -260.043121 20.924637 40.087349
v -260.043121 20.924635 30.087385
v -260.043121 35.924633 40.087349
v -270.043121 35.924633 40.087349
v -260.043121 38.424637 50.087349
v -260.043121 35.924633 50.087349
v -260.043121 35.924633 30.087385
v -260.043121 35.924629 20.087347
v -270.043121 35.924633 30.087385
v -270.043121 35.924629 20.087347
v -280.043121 35.924633 30.087385
v -280.043121 35.924633 40.087349
v -280.043121 35.924629 20.087347
v -280.043121 15.924639 20.087347
v -280.043121 33.424633 20.087347
v -270.043121 33.424633 20.087347
v -290.043121 15.924639 20.087347
v -280.043121 8.424634 20.087349
v -270.043121 13.424635 20.087347
v -260.043121 13.424635 20.087347
v -270.043121 8.424634 20.087349
v -260.043121 8.424634 20.087349
v -260.043121 20.924635 20.087347
v -290.043121 8.424634 20.087349
v -290.043121 13.424635 20.087347
v -280.043121 38.424637 50.087349
v -290.043121 38.424637 50.087349
v -280.043121 35.924633 60.087349
v -270.043121 38.424637 50.087349
v -270.043121 35.924633 60.087349
v -280.043121 35.924633 70.087349
v -290.043121 35.924633 60.087349
v -280.043121 35.924637 80.087349
vn -0.0000 -0.0000 1.0000
vn -0.0000 -1.0000 -0.0000
vn 1.0000 -0.0000 -0.0000
vn -1.0000 -0.0000 -0.0000
vn -0.0000 1.0000 -0.0000
vn -0.0000 -0.9701 0.2425
vn -0.0000 -0.9701 -0.2425
vn -0.0000 -0.0000 -1.0000
vt 0.501961 0.627451
vt 0.621569 0.747059
vt 0.501961 0.747059
vt 0.378431 0.501961
vt 0.498039 0.621569
vt 0.378431 0.621569
vt 0.501961 0.878431
vt 0.621569 0.998039
vt 0.501961 0.998039
vt 0.252941 0.252941
vt 0.372549 0.309804
vt 0.252941 0.309804
vt 0.372549 0.278432
vt 0.252941 0.278432
vt 0.252941 0.378431
vt 0.372549 0.403921
vt 0.252941 0.403921
vt 0.752941 0.878431
vt 0.872549 0.998039
vt 0.752941 0.998039
vt 0.752941 0.627451
vt 0.872549 0.747059
vt 0.752941 0.747059
vt 0.878431 0.627451
vt 0.998039 0.747059
vt 0.878431 0.747059
vt 0.372549 0.341177
vt 0.252941 0.341177
vt 0.372549 0.372549
vt 0.252941 0.372549
vt 0.501961 0.501961
vt 0.621569 0.621569
vt 0.501961 0.621569
vt 0.127451 0.001961
vt 0.247059 0.121569
vt 0.127451 0.121569
vt 0.001961 0.001961
vt 0.121569 0.121569
vt 0.001961 0.121569
vt 0.378431 0.121569
vt 0.378431 0.096079
vt 0.498039 0.121569
vt 0.501961 0.752941
vt 0.621569 0.872549
vt 0.501961 0.872549
vt 0.621569 0.627451
vt 0.498039 0.501961
vt 0.621569 0.878431
vt 0.372549 0.252941
vt 0.372549 0.378431
vt 0.872549 0.878431
vt 0.872549 0.627451
vt 0.998039 0.627451
vt 0.621569 0.501961
vt 0.247059 0.001961
vt 0.121569 0.001961
vt 0.621569 0.752941
s 0
usemtl Material.001
f 2/1/1 5/2/1 6/3/1
f 85/4/2 1/5/2 2/6/2
f 1/7/3 79/8/3 4/9/3
f 6/10/1 7/11/1 9/12/1
f 4/7/3 8/8/3 7/9/3
f 11/10/1 9/11/1 10/12/1
f 13/10/1 10/11/1 12/12/1
f 15/10/4 12/13/4 14/14/4
f 19/15/4 14/16/4 16/17/4
f 95/10/1 17/13/1 18/14/1
f 19/18/5 18/19/5 17/20/5
f 20/15/1 16/16/1 22/17/1
f 20/18/5 29/19/5 18/20/5
f 21/15/1 22/16/1 23/17/1
f 26/15/1 23/16/1 24/17/1
f 27/15/3 24/16/3 25/17/3
f 21/18/5 27/19/5 29/20/5
f 28/10/1 29/13/1 27/14/1
f 31/21/1 18/22/1 29/23/1
f 33/24/1 32/25/1 31/26/1
f 36/7/3 31/8/3 34/9/3
f 30/10/3 34/27/3 31/28/3
f 37/7/3 33/8/3 36/9/3
f 38/1/1 35/2/1 179/3/1
f 41/4/2 37/5/2 38/6/2
f 40/10/2 42/29/2 45/30/2
f 39/31/1 93/32/1 33/33/1
f 39/10/2 44/29/2 42/30/2
f 181/7/6 42/8/6 44/9/6
f 43/7/6 45/8/6 42/9/6
f 88/10/2 45/29/2 46/30/2
f 47/7/6 46/8/6 45/9/6
f 115/7/7 47/8/7 43/9/7
f 48/7/7 49/8/7 47/9/7
f 49/7/6 83/8/6 46/9/6
f 51/7/7 50/8/7 49/9/7
f 53/10/2 52/29/2 51/30/2
f 55/10/2 51/29/2 48/30/2
f 112/4/2 53/5/2 55/6/2
f 54/4/2 56/5/2 53/6/2
f 56/10/2 72/29/2 52/30/2
f 58/4/2 57/5/2 56/6/2
f 58/1/8 98/2/8 59/3/8
f 60/1/8 59/2/8 62/3/8
f 60/4/2 70/5/2 57/6/2
f 61/1/8 62/2/8 64/3/8
f 62/10/8 96/11/8 63/12/8
f 64/10/8 63/11/8 65/12/8
f 68/7/3 65/8/3 66/9/3
f 70/7/3 67/8/3 68/9/3
f 69/7/3 66/8/3 81/9/3
f 71/7/3 68/8/3 69/9/3
f 57/10/2 71/29/2 72/30/2
f 74/34/3 69/35/3 76/36/3
f 72/37/7 73/38/7 84/39/7
f 74/40/3 73/41/3 71/42/3
f 75/40/3 73/41/3 74/42/3
f 75/37/3 76/38/3 78/39/3
f 81/37/3 76/38/3 69/39/3
f 77/34/3 78/35/3 76/36/3
f 3/7/3 78/8/3 79/9/3
f 79/7/3 80/8/3 8/9/3
f 75/34/6 84/35/6 73/36/6
f 3/10/2 82/29/2 75/30/2
f 85/10/2 83/29/2 82/30/2
f 50/7/6 82/8/6 83/9/6
f 86/4/2 2/5/2 87/6/2
f 88/4/2 87/5/2 89/6/2
f 86/10/2 46/29/2 83/30/2
f 40/4/2 89/5/2 90/6/2
f 89/1/1 11/2/1 13/3/1
f 90/1/1 13/2/1 91/3/1
f 40/7/4 92/8/4 93/9/4
f 93/7/4 94/8/4 32/9/4
f 91/10/4 32/27/4 94/28/4
f 15/18/5 91/19/5 13/20/5
f 87/1/1 6/2/1 11/3/1
f 52/7/7 84/8/7 50/9/7
f 59/10/8 97/11/8 96/12/8
f 98/10/4 99/13/4 97/14/4
f 101/15/4 100/16/4 99/17/4
f 103/18/5 98/19/5 105/20/5
f 102/10/8 104/13/8 101/14/8
f 103/10/4 108/29/4 106/30/4
f 106/21/8 124/22/8 104/23/8
f 109/24/8 107/25/8 106/26/8
f 111/7/4 106/8/4 108/9/4
f 55/31/8 110/32/8 109/33/8
f 112/7/4 109/8/4 111/9/4
f 54/1/8 105/2/8 98/3/8
f 110/7/3 120/8/3 107/9/3
f 114/7/3 113/8/3 110/9/3
f 114/10/2 48/29/2 115/30/2
f 116/10/2 115/29/2 186/30/2
f 118/4/2 114/5/2 116/6/2
f 117/1/8 121/2/8 119/3/8
f 119/10/3 107/27/3 120/28/3
f 123/18/5 119/19/5 121/20/5
f 122/10/8 126/13/8 124/14/8
f 125/18/5 104/19/5 124/20/5
f 127/18/5 124/19/5 126/20/5
f 127/15/3 128/16/3 130/17/3
f 123/10/3 129/11/3 128/12/3
f 125/15/8 130/16/8 131/17/8
f 133/15/8 131/16/8 132/17/8
f 134/15/8 132/16/8 100/17/8
f 133/18/5 101/19/5 104/20/5
f 121/10/8 135/11/8 129/12/8
f 136/10/8 137/11/8 135/12/8
f 138/10/8 139/11/8 137/12/8
f 141/43/4 140/44/4 139/45/4
f 144/1/8 142/2/8 138/3/8
f 143/4/2 146/5/2 145/6/2
f 143/43/4 148/44/4 141/45/4
f 145/10/2 184/29/2 147/30/2
f 145/43/4 149/44/4 148/45/4
f 148/43/4 151/44/4 140/45/4
f 147/37/4 150/38/4 149/39/4
f 152/34/4 149/35/4 150/36/4
f 153/37/4 150/38/4 155/39/4
f 155/43/4 154/44/4 153/45/4
f 157/43/4 156/44/4 155/45/4
f 160/34/4 155/35/4 150/36/4
f 183/34/6 157/35/6 159/36/6
f 163/10/2 157/29/2 158/30/2
f 160/40/4 159/41/4 157/42/4
f 161/43/4 177/44/4 156/45/4
f 161/4/2 164/5/2 162/6/2
f 163/4/2 167/5/2 164/6/2
f 165/10/2 158/29/2 166/30/2
f 41/10/2 166/29/2 44/30/2
f 165/4/2 38/5/2 167/6/2
f 167/1/1 171/2/1 168/3/1
f 164/10/1 169/13/1 170/14/1
f 168/10/1 178/11/1 172/12/1
f 173/10/1 172/11/1 175/12/1
f 174/10/1 175/11/1 176/12/1
f 162/1/1 173/2/1 174/3/1
f 156/43/4 176/44/4 154/45/4
f 179/10/3 25/11/3 178/12/3
f 30/18/5 179/19/5 35/20/5
f 180/7/6 44/8/6 166/9/6
f 183/7/6 166/8/6 158/9/6
f 182/7/7 181/8/7 180/9/7
f 184/7/7 180/8/7 183/9/7
f 184/37/7 159/38/7 147/39/7
f 146/10/2 182/29/2 184/30/2
f 185/10/2 186/29/2 182/30/2
f 186/7/7 43/8/7 181/9/7
f 187/4/2 116/5/2 185/6/2
f 144/4/2 185/5/2 146/6/2
f 118/1/8 136/2/8 121/3/8
f 187/1/8 138/2/8 136/3/8
f 147/40/4 159/41/4 160/42/4
f 2/1/1 1/46/1 5/2/1
f 85/4/2 3/47/2 1/5/2
f 1/7/3 3/48/3 79/8/3
f 6/10/1 5/49/1 7/11/1
f 4/7/3 79/48/3 8/8/3
f 11/10/1 6/49/1 9/11/1
f 13/10/1 11/49/1 10/11/1
f 15/10/4 13/49/4 12/13/4
f 19/15/4 17/50/4 14/16/4
f 95/10/1 15/49/1 17/13/1
f 19/18/5 20/51/5 18/19/5
f 20/15/1 19/50/1 16/16/1
f 20/18/5 21/51/5 29/19/5
f 21/15/1 20/50/1 22/16/1
f 26/15/1 21/50/1 23/16/1
f 27/15/3 26/50/3 24/16/3
f 21/18/5 26/51/5 27/19/5
f 28/10/1 30/49/1 29/13/1
f 31/21/1 32/52/1 18/22/1
f 33/24/1 93/53/1 32/25/1
f 36/7/3 33/48/3 31/8/3
f 30/10/3 35/49/3 34/27/3
f 37/7/3 39/48/3 33/8/3
f 38/1/1 37/46/1 35/2/1
f 41/4/2 39/47/2 37/5/2
f 40/10/2 39/49/2 42/29/2
f 39/31/1 40/54/1 93/32/1
f 39/10/2 41/49/2 44/29/2
f 181/7/6 43/48/6 42/8/6
f 43/7/6 47/48/6 45/8/6
f 88/10/2 40/49/2 45/29/2
f 47/7/6 49/48/6 46/8/6
f 115/7/7 48/48/7 47/8/7
f 48/7/7 51/48/7 49/8/7
f 49/7/6 50/48/6 83/8/6
f 51/7/7 52/48/7 50/8/7
f 53/10/2 56/49/2 52/29/2
f 55/10/2 53/49/2 51/29/2
f 112/4/2 54/47/2 53/5/2
f 54/4/2 58/47/2 56/5/2
f 56/10/2 57/49/2 72/29/2
f 58/4/2 60/47/2 57/5/2
f 58/1/8 54/46/8 98/2/8
f 60/1/8 58/46/8 59/2/8
f 60/4/2 61/47/2 70/5/2
f 61/1/8 60/46/8 62/2/8
f 62/10/8 59/49/8 96/11/8
f 64/10/8 62/49/8 63/11/8
f 68/7/3 67/48/3 65/8/3
f 70/7/3 61/48/3 67/8/3
f 69/7/3 68/48/3 66/8/3
f 71/7/3 70/48/3 68/8/3
f 57/10/2 70/49/2 71/29/2
f 74/34/3 71/55/3 69/35/3
f 72/37/7 71/56/7 73/38/7
f 75/37/3 74/56/3 76/38/3
f 81/37/3 77/56/3 76/38/3
f 77/34/3 80/55/3 78/35/3
f 3/7/3 75/48/3 78/8/3
f 79/7/3 78/48/3 80/8/3
f 75/34/6 82/55/6 84/35/6
f 3/10/2 85/49/2 82/29/2
f 85/10/2 86/49/2 83/29/2
f 50/7/6 84/48/6 82/8/6
f 86/4/2 85/47/2 2/5/2
f 88/4/2 86/47/2 87/5/2
f 86/10/2 88/49/2 46/29/2
f 40/4/2 88/47/2 89/5/2
f 89/1/1 87/46/1 11/2/1
f 90/1/1 89/46/1 13/2/1
f 40/7/4 90/48/4 92/8/4
f 93/7/4 92/48/4 94/8/4
f 91/10/4 95/49/4 32/27/4
f 15/18/5 95/51/5 91/19/5
f 87/1/1 2/46/1 6/2/1
f 52/7/7 72/48/7 84/8/7
f 59/10/8 98/49/8 97/11/8
f 98/10/4 102/49/4 99/13/4
f 101/15/4 134/50/4 100/16/4
f 103/18/5 102/51/5 98/19/5
f 102/10/8 103/49/8 104/13/8
f 103/10/4 105/49/4 108/29/4
f 106/21/8 107/52/8 124/22/8
f 109/24/8 110/53/8 107/25/8
f 111/7/4 109/48/4 106/8/4
f 55/31/8 114/54/8 110/32/8
f 112/7/4 55/48/4 109/8/4
f 54/1/8 112/46/8 105/2/8
f 110/7/3 113/48/3 120/8/3
f 114/7/3 117/48/3 113/8/3
f 114/10/2 55/49/2 48/29/2
f 116/10/2 114/49/2 115/29/2
f 118/4/2 117/47/2 114/5/2
f 117/1/8 118/46/8 121/2/8
f 119/10/3 122/49/3 107/27/3
f 123/18/5 122/51/5 119/19/5
f 122/10/8 123/49/8 126/13/8
f 125/18/5 133/51/5 104/19/5
f 127/18/5 125/51/5 124/19/5
f 127/15/3 126/50/3 128/16/3
f 123/10/3 121/49/3 129/11/3
f 125/15/8 127/50/8 130/16/8
f 133/15/8 125/50/8 131/16/8
f 134/15/8 133/50/8 132/16/8
f 133/18/5 134/51/5 101/19/5
f 121/10/8 136/49/8 135/11/8
f 136/10/8 138/49/8 137/11/8
f 138/10/8 142/49/8 139/11/8
f 141/43/4 148/57/4 140/44/4
f 144/1/8 143/46/8 142/2/8
f 143/4/2 144/47/2 146/5/2
f 143/43/4 145/57/4 148/44/4
f 145/10/2 146/49/2 184/29/2
f 145/43/4 147/57/4 149/44/4
f 148/43/4 149/57/4 151/44/4
f 147/37/4 160/56/4 150/38/4
f 152/34/4 151/55/4 149/35/4
f 153/37/4 152/56/4 150/38/4
f 155/43/4 156/57/4 154/44/4
f 157/43/4 161/57/4 156/44/4
f 160/34/4 157/55/4 155/35/4
f 183/34/6 158/55/6 157/35/6
f 163/10/2 161/49/2 157/29/2
f 161/43/4 162/57/4 177/44/4
f 161/4/2 163/47/2 164/5/2
f 163/4/2 165/47/2 167/5/2
f 165/10/2 163/49/2 158/29/2
f 41/10/2 165/49/2 166/29/2
f 165/4/2 41/47/2 38/5/2
f 167/1/1 38/46/1 171/2/1
f 164/10/1 167/49/1 169/13/1
f 168/10/1 171/49/1 178/11/1
f 173/10/1 168/49/1 172/11/1
f 174/10/1 173/49/1 175/11/1
f 162/1/1 164/46/1 173/2/1
f 156/43/4 177/57/4 176/44/4
f 179/10/3 28/49/3 25/11/3
f 30/18/5 28/51/5 179/19/5
f 180/7/6 181/48/6 44/8/6
f 183/7/6 180/48/6 166/8/6
f 182/7/7 186/48/7 181/8/7
f 184/7/7 182/48/7 180/8/7
f 184/37/7 183/56/7 159/38/7
f 146/10/2 185/49/2 182/29/2
f 185/10/2 116/49/2 186/29/2
f 186/7/7 115/48/7 43/8/7
f 187/4/2 118/47/2 116/5/2
f 144/4/2 187/47/2 185/5/2
f 118/1/8 187/46/8 136/2/8
f 187/1/8 144/46/8 138/2/8
