# Blender 5.1.2
# www.blender.org
mtllib room13.mtl
o 01-Caves.013
v -260.043121 -1.575380 -129.912659
v -260.043121 -6.575378 -129.912659
v -260.043121 -1.575379 -119.912651
v -260.043121 10.924618 -129.912659
v -260.043121 10.924619 -119.912651
v -250.043121 10.924618 -129.912659
v -260.043121 0.924622 -129.912659
v -250.043121 0.924622 -129.912659
v -250.043121 -6.575378 -129.912659
v -250.043121 0.924622 -139.912659
v -250.043121 -6.575378 -139.912659
v -250.043121 10.924617 -139.912659
v -240.043121 -6.575378 -139.912659
v -250.043121 -4.075376 -139.912659
v -240.043121 -4.075376 -139.912659
v -230.043121 -4.075376 -139.912659
v -230.043121 -4.075376 -129.912659
v -230.043121 0.924622 -139.912659
v -230.043121 10.924617 -139.912659
v -230.043121 0.924622 -129.912659
v -230.043121 10.924618 -129.912659
v -220.043121 0.924622 -129.912659
v -230.043121 -4.075376 -129.912659
v -230.043121 -6.575378 -129.912659
v -220.043121 -4.075376 -129.912659
v -230.043121 -6.575377 -119.912651
v -220.043121 -6.575377 -119.912651
v -240.043121 -6.575377 -119.912651
v -230.043121 -6.575376 -109.912613
v -240.043121 -6.575376 -109.912613
v -230.043121 -6.575376 -99.912651
v -220.043121 -6.575376 -109.912613
v -210.043121 -6.575376 -109.912613
v -220.043121 -6.575376 -99.912651
v -220.043121 -16.575375 -99.912651
v -210.043121 -6.575376 -99.912651
v -210.043121 -16.575375 -99.912651
v -200.043121 -6.575376 -99.912651
v -200.043121 -6.575376 -109.912613
v -200.043121 -16.575375 -99.912651
v -190.043121 -6.575376 -99.912651
v -200.043121 -6.575375 -89.912651
v -200.043121 -16.575375 -89.912651
v -200.043121 -6.575374 -79.912689
v -190.043121 -6.575375 -89.912651
v -180.043121 -6.575375 -89.912651
v -190.043121 -6.575374 -79.912689
v -180.043121 -6.575374 -79.912689
v -190.043121 -6.575373 -69.912651
v -200.043121 -6.575373 -69.912651
v -180.043121 -6.575373 -69.912651
v -190.043121 -6.575372 -59.912651
v -190.043121 -6.575372 -49.912651
v -200.043121 -6.575372 -59.912651
v -180.043121 -6.575372 -59.912651
v -180.043121 -6.575372 -49.912651
v -170.043121 -6.575372 -59.912651
v -170.043121 -6.575373 -69.912651
v -170.043121 -6.575372 -49.912651
v -160.043121 -6.575372 -59.912651
v -160.043121 -6.575373 -69.912651
v -160.043121 -6.575372 -49.912651
v -150.043121 -6.575372 -59.912651
v -150.043121 -6.575373 -69.912651
v -150.043121 -6.575372 -49.912651
v -150.043121 -19.075371 -59.912651
v -140.043121 -6.575372 -59.912651
v -140.043121 -19.075371 -59.912651
v -130.043106 -6.575372 -59.912651
v -140.043121 -6.575372 -49.912651
v -140.043121 -6.575371 -39.912651
v -130.043106 -6.575372 -49.912651
v -130.043106 -6.575371 -39.912651
v -120.043144 -6.575372 -49.912651
v -120.043144 -6.575372 -59.912651
v -120.043144 -6.575371 -39.912651
v -110.043121 -6.575372 -49.912651
v -110.043121 -6.575372 -59.912651
v -110.043121 -9.075372 -49.912651
v -110.043121 -6.575371 -39.912651
v -110.043121 -6.575370 -29.912651
v -100.043106 -6.575371 -39.912651
v -100.043106 -6.575370 -29.912651
v -100.043106 -4.075368 -29.912651
v -90.043144 -6.575371 -39.912651
v -100.043106 -9.075372 -49.912651
v -100.043106 -9.075373 -59.912651
v -90.043144 -9.075372 -49.912651
v -80.043144 -9.075372 -49.912651
v -90.043144 -9.075373 -59.912651
v -90.043144 -9.075374 -69.912651
v -80.043144 -9.075373 -59.912651
v -80.043144 -9.075374 -69.912651
v -80.043144 -1.575375 -59.912651
v -80.043144 -1.575375 -69.912651
v -80.043144 5.924628 -59.912651
v -80.043144 -1.575374 -49.912651
v -80.043144 8.424627 -59.912651
v -90.043144 8.424627 -59.912651
v -80.043144 8.424628 -49.912651
v -90.043144 8.424628 -49.912651
v -80.043144 10.924623 -49.912651
v -90.043144 10.924623 -49.912651
v -80.043144 10.924624 -39.912651
v -80.043144 -6.575371 -39.912651
v -80.043144 -1.575373 -39.912651
v -90.043144 10.924624 -39.912651
v -100.043106 10.924624 -39.912651
v -90.043144 10.924625 -29.912651
v -100.043106 10.924625 -29.912651
v -90.043144 -4.075368 -29.912651
v -90.043144 0.924630 -29.912651
v -100.043106 0.924630 -29.912651
v -110.043121 0.924630 -29.912651
v -120.043144 0.924630 -29.912651
v -110.043121 10.924625 -29.912651
v -120.043144 10.924625 -29.912651
v -130.043106 10.924625 -29.912651
v -140.043121 10.924625 -29.912651
v -130.043106 0.924630 -29.912651
v -130.043106 -6.575370 -29.912651
v -140.043121 0.924630 -29.912651
v -150.043121 0.924630 -29.912651
v -140.043121 -6.575370 -29.912651
v -150.043121 -6.575370 -29.912651
v -150.043121 -6.575371 -39.912651
v -160.043121 -6.575370 -29.912651
v -160.043121 -6.575371 -39.912651
v -170.043121 -6.575370 -29.912651
v -160.043121 0.924630 -29.912651
v -160.043121 10.924625 -29.912651
v -170.043121 0.924630 -29.912651
v -180.043121 0.924630 -29.912651
v -170.043121 10.924625 -29.912651
v -180.043121 10.924625 -29.912651
v -190.043121 10.924625 -29.912651
v -200.043121 10.924625 -29.912651
v -190.043121 0.924630 -29.912651
v -190.043121 -6.575370 -29.912651
v -200.043121 0.924630 -29.912651
v -200.043121 -6.575370 -29.912651
v -210.043121 0.924630 -29.912651
v -210.043121 10.924625 -29.912651
v -210.043121 -6.575370 -29.912651
v -220.043121 0.924630 -29.912651
v -220.043121 10.924625 -29.912651
v -220.043121 -6.575370 -29.912651
v -230.043121 0.924630 -29.912651
v -240.043121 0.924630 -29.912651
v -230.043121 10.924625 -29.912651
v -230.043121 -6.575370 -29.912651
v -240.043121 -6.575370 -29.912651
v -230.043121 -6.575371 -39.912651
v -220.043121 -6.575371 -39.912651
v -240.043121 -6.575371 -39.912651
v -230.043121 -6.575372 -49.912651
v -230.043121 -6.575372 -59.912651
v -220.043121 -6.575372 -49.912651
v -240.043121 -6.575372 -49.912651
v -240.043121 -6.575372 -59.912651
v -250.043121 -6.575372 -49.912651
v -250.043121 -6.575372 -59.912651
v -260.043121 -6.575372 -49.912651
v -250.043121 -6.575371 -39.912651
v -260.043121 -6.575371 -39.912651
v -250.043121 -6.575370 -29.912651
v -260.043121 -6.575370 -29.912651
v -250.043121 0.924630 -29.912651
v -250.043121 10.924625 -29.912651
v -260.043121 0.924630 -29.912651
v -250.043121 8.424630 -29.912651
v -260.043121 8.424630 -29.912651
v -250.043121 8.424629 -39.912651
v -260.043121 8.424629 -39.912651
v -250.043121 8.424628 -49.912651
v -250.043121 10.924624 -39.912651
v -240.043121 10.924624 -39.912651
v -250.043121 10.924623 -49.912651
v -250.043121 10.924623 -59.912651
v -260.043121 10.924623 -59.912651
v -250.043121 8.424627 -59.912651
v -260.043121 8.424627 -59.912651
v -260.043121 -1.575375 -59.912651
v -260.043121 8.424628 -49.912651
v -260.043121 -1.575374 -49.912651
v -260.043121 5.924628 -49.912651
v -260.043121 5.924629 -39.912651
v -260.043121 -1.575375 -69.912651
v -260.043121 -6.575372 -59.912651
v -260.043121 -6.575373 -69.912651
v -250.043121 -6.575373 -69.912651
v -260.043121 -6.575374 -79.912689
v -250.043121 -6.575374 -79.912689
v -260.043121 -6.575375 -89.912651
v -260.043121 -1.575376 -79.912689
v -260.043121 -1.575377 -89.912651
v -260.043121 10.924622 -79.912689
v -260.043121 10.924622 -69.912651
v -260.043121 10.924621 -89.912651
v -260.043121 10.924620 -99.912651
v -260.043121 -1.575378 -99.912651
v -260.043121 10.924619 -109.912613
v -260.043121 -1.575378 -109.912613
v -260.043121 -6.575376 -109.912613
v -260.043121 -6.575376 -99.912651
v -250.043121 -6.575376 -109.912613
v -260.043121 -6.575377 -119.912651
v -250.043121 -6.575377 -119.912651
v -250.043121 -6.575376 -99.912651
v -250.043121 -6.575375 -89.912651
v -240.043121 -6.575376 -99.912651
v -240.043121 -6.575375 -89.912651
v -240.043121 -6.575374 -79.912689
v -230.043121 -6.575375 -89.912651
v -230.043121 -16.575375 -89.912651
v -230.043121 -6.575374 -79.912689
v -230.043121 -16.575373 -79.912689
v -230.043121 -6.575373 -69.912651
v -230.043121 -16.575373 -69.912651
v -240.043121 -6.575373 -69.912651
v -220.043121 -16.575373 -69.912651
v -230.043121 -16.575371 -59.912651
v -220.043121 -16.575371 -59.912651
v -210.043121 -16.575371 -59.912651
v -220.043121 -6.575372 -59.912651
v -210.043121 -6.575372 -59.912651
v -210.043121 -6.575372 -49.912651
v -210.043121 -6.575371 -39.912651
v -200.043121 -6.575372 -49.912651
v -200.043121 -6.575371 -39.912651
v -190.043121 -6.575371 -39.912651
v -180.043121 -6.575371 -39.912651
v -180.043121 -6.575370 -29.912651
v -170.043121 -6.575371 -39.912651
v -210.043121 -16.575373 -69.912651
v -200.043121 -16.575371 -59.912651
v -200.043121 -16.575373 -69.912651
v -200.043121 -16.575373 -79.912689
v -210.043121 -16.575373 -79.912689
v -220.043121 -16.575373 -79.912689
v -210.043121 -16.575375 -89.912651
v -220.043121 -16.575375 -89.912651
v -230.043121 -16.575375 -99.912651
v -240.043121 10.924625 -29.912651
v -230.043121 10.924624 -39.912651
v -220.043121 10.924624 -39.912651
v -210.043121 10.924624 -39.912651
v -220.043121 10.924623 -49.912651
v -210.043121 10.924623 -49.912651
v -260.043121 -1.575373 -39.912651
v -260.043121 -1.575372 -29.912651
v -150.043121 10.924625 -29.912651
v -120.043144 -6.575370 -29.912651
v -100.043106 10.924623 -49.912651
v -90.043144 10.924623 -59.912651
v -90.043144 5.924628 -59.912651
v -90.043144 10.924622 -69.912651
v -90.043144 10.924622 -79.912689
v -90.043144 3.424629 -69.912651
v -90.043144 5.924627 -69.912651
v -80.043144 5.924627 -69.912651
v -80.043144 3.424629 -69.912651
v -80.043144 3.424629 -79.912689
v -80.043144 -1.575376 -79.912689
v -80.043144 3.424628 -89.912651
v -90.043144 3.424629 -79.912689
v -90.043144 3.424628 -89.912651
v -90.043144 5.924625 -89.912651
v -90.043144 10.924621 -89.912651
v -90.043144 10.924620 -99.912651
v -90.043144 8.424624 -99.912651
v -90.043144 5.924624 -99.912651
v -90.043144 10.924619 -109.912613
v -100.043106 10.924619 -109.912613
v -90.043144 10.924619 -119.912651
v -90.043144 8.424623 -109.912613
v -80.043144 10.924619 -109.912613
v -80.043144 -1.575378 -109.912613
v -80.043144 8.424623 -109.912613
v -80.043144 10.924619 -119.912651
v -80.043144 10.924618 -129.912659
v -80.043144 -1.575379 -119.912651
v -80.043144 -6.575377 -119.912651
v -80.043144 -1.575380 -129.912659
v -80.043144 -6.575378 -129.912659
v -90.043144 -6.575378 -129.912659
v -80.043144 -1.575381 -139.912659
v -90.043144 -1.575381 -139.912659
v -80.043144 10.924617 -139.912659
v -90.043144 10.924617 -139.912659
v -90.043144 10.924618 -129.912659
v -100.043106 10.924617 -139.912659
v -100.043106 -1.575381 -139.912659
v -100.043106 0.924622 -139.912659
v -100.043106 10.924618 -129.912659
v -100.043106 0.924622 -129.912659
v -100.043106 10.924619 -119.912651
v -110.043121 10.924618 -129.912659
v -110.043121 10.924617 -139.912659
v -110.043121 0.924622 -129.912659
v -110.043121 10.924619 -119.912651
v -110.043121 10.924619 -109.912613
v -110.043121 -6.575378 -129.912659
v -110.043121 0.924622 -139.912659
v -110.043121 -6.575378 -139.912659
v -120.043144 -6.575378 -139.912659
v -110.043121 0.924622 -139.912659
v -120.043144 0.924622 -139.912659
v -130.043106 0.924622 -139.912659
v -120.043144 10.924617 -139.912659
v -130.043106 10.924617 -139.912659
v -140.043121 10.924617 -139.912659
v -140.043121 0.924622 -139.912659
v -150.043121 10.924617 -139.912659
v -140.043121 10.924618 -129.912659
v -150.043121 10.924618 -129.912659
v -140.043121 10.924619 -119.912651
v -150.043121 10.924619 -119.912651
v -160.043121 10.924618 -129.912659
v -170.043121 10.924618 -129.912659
v -160.043121 10.924617 -139.912659
v -170.043121 10.924617 -139.912659
v -160.043121 0.924622 -139.912659
v -150.043121 0.924622 -139.912659
v -160.043121 -6.575378 -139.912659
v -160.043121 -4.075376 -139.912659
v -170.043121 -6.575378 -139.912659
v -160.043121 -6.575378 -129.912659
v -150.043121 -6.575378 -139.912659
v -140.043121 -6.575378 -139.912659
v -150.043121 -6.575378 -129.912659
v -150.043121 -6.575377 -119.912651
v -140.043121 -6.575378 -129.912659
v -140.043121 -6.575377 -119.912651
v -130.043106 -6.575378 -129.912659
v -130.043106 -6.575378 -139.912659
v -130.043106 -6.575377 -119.912651
v -120.043144 -6.575378 -129.912659
v -120.043144 -6.575377 -119.912651
v -120.043144 -6.575376 -109.912613
v -110.043121 -6.575377 -119.912651
v -110.043121 -9.075377 -109.912613
v -110.043121 -6.575376 -109.912613
v -100.043106 -6.575377 -119.912651
v -100.043106 -6.575378 -129.912659
v -100.043106 -9.075377 -109.912613
v -90.043144 -6.575377 -119.912651
v -90.043144 -9.075377 -109.912613
v -90.043144 -9.075376 -99.912651
v -80.043144 -9.075377 -109.912613
v -80.043144 -9.075376 -99.912651
v -80.043144 -1.575378 -99.912651
v -80.043144 -9.075375 -89.912651
v -80.043144 -1.575377 -89.912651
v -80.043144 -9.075374 -79.912689
v -90.043144 -9.075375 -89.912651
v -90.043144 -9.075374 -79.912689
v -100.043106 -9.075375 -89.912651
v -100.043106 -9.075376 -99.912651
v -110.043121 -9.075375 -89.912651
v -100.043106 -9.075374 -79.912689
v -100.043106 -9.075374 -69.912651
v -110.043121 -9.075374 -79.912689
v -110.043121 -6.575374 -79.912689
v -110.043121 -9.075374 -69.912651
v -110.043121 -9.075373 -59.912651
v -110.043121 -6.575373 -69.912651
v -120.043144 -6.575373 -69.912651
v -120.043144 -19.075373 -69.912651
v -120.043144 -6.575374 -79.912689
v -120.043144 -6.575375 -89.912651
v -120.043144 -19.075373 -79.912689
v -130.043106 -19.075373 -79.912689
v -120.043144 -19.075375 -89.912651
v -130.043106 -19.075375 -89.912651
v -120.043144 -19.075375 -99.912651
v -120.043144 -6.575376 -99.912651
v -130.043106 -19.075375 -99.912651
v -140.043121 -19.075375 -99.912651
v -130.043106 -6.575376 -99.912651
v -140.043121 -6.575376 -99.912651
v -130.043106 -6.575376 -109.912613
v -140.043121 -6.575376 -109.912613
v -150.043121 -6.575376 -109.912613
v -150.043121 -6.575376 -99.912651
v -160.043121 -6.575376 -109.912613
v -170.043121 -6.575376 -109.912613
v -160.043121 -6.575377 -119.912651
v -160.043121 -6.575376 -99.912651
v -170.043121 -6.575376 -99.912651
v -160.043121 -6.575375 -89.912651
v -170.043121 -6.575375 -89.912651
v -160.043121 -6.575374 -79.912689
v -150.043121 -6.575375 -89.912651
v -150.043121 -19.075375 -89.912651
v -150.043121 -6.575374 -79.912689
v -150.043121 -19.075373 -79.912689
v -140.043121 -19.075373 -79.912689
v -150.043121 -19.075373 -69.912651
v -140.043121 -19.075373 -69.912651
v -130.043106 -19.075373 -69.912651
v -130.043106 -19.075371 -59.912651
v -120.043144 -19.075371 -59.912651
v -140.043121 -19.075375 -89.912651
v -150.043121 -19.075375 -99.912651
v -170.043121 -6.575374 -79.912689
v -180.043121 -6.575376 -99.912651
v -180.043121 -6.575376 -109.912613
v -190.043121 -6.575376 -109.912613
v -180.043121 -6.575377 -119.912651
v -180.043121 -6.575378 -129.912659
v -170.043121 -6.575377 -119.912651
v -190.043121 -6.575377 -119.912651
v -200.043121 -6.575377 -119.912651
v -190.043121 -6.575378 -129.912659
v -190.043121 -6.575378 -139.912659
v -200.043121 -6.575378 -129.912659
v -210.043121 -6.575378 -129.912659
v -210.043121 -4.075376 -129.912659
v -200.043121 -6.575378 -139.912659
v -210.043121 -4.075376 -139.912659
v -200.043121 -4.075376 -139.912659
v -190.043121 -4.075376 -139.912659
v -220.043121 0.924622 -139.912659
v -220.043121 10.924617 -139.912659
v -220.043121 10.924618 -129.912659
v -210.043121 10.924617 -139.912659
v -210.043121 10.924618 -129.912659
v -200.043121 10.924617 -139.912659
v -200.043121 10.924618 -129.912659
v -190.043121 10.924617 -139.912659
v -190.043121 10.924618 -129.912659
v -180.043121 10.924617 -139.912659
v -190.043121 8.424622 -139.912659
v -180.043121 8.424622 -139.912659
v -190.043121 -1.575381 -139.912659
v -180.043121 -1.575381 -139.912659
v -180.043121 -6.575378 -139.912659
v -180.043121 -4.075376 -139.912659
v -170.043121 -4.075376 -139.912659
v -210.043121 10.924619 -119.912651
v -220.043121 10.924619 -119.912651
v -210.043121 10.924619 -109.912613
v -220.043121 10.924619 -109.912613
v -210.043121 -6.575377 -119.912651
v -220.043121 -6.575378 -129.912659
v -170.043121 -6.575378 -129.912659
v -110.043121 -6.575376 -99.912651
v -110.043121 -6.575375 -89.912651
v -110.043121 -9.075376 -99.912651
v -80.043144 5.924625 -89.912651
v -80.043144 5.924624 -99.912651
v -80.043144 8.424624 -99.912651
v -240.043121 -6.575378 -129.912659
vn 1.0000 -0.0000 -0.0000
vn -0.0000 -0.0000 1.0000
vn -0.0000 1.0000 -0.0000
vn -0.2425 0.9701 -0.0000
vn -1.0000 -0.0000 -0.0000
vn -0.0000 0.9701 0.2425
vn -0.0000 -0.0000 -1.0000
vn -0.0000 0.9701 -0.2425
vn -0.0000 -1.0000 -0.0000
vn -0.0000 0.8944 0.4472
vn 0.2425 0.9701 -0.0000
vn 0.4472 0.8944 -0.0000
vt 0.001961 0.627451
vt 0.121569 0.747059
vt 0.001961 0.747059
vt 0.001961 0.501961
vt 0.121569 0.621569
vt 0.001961 0.621569
vt 0.252941 0.627451
vt 0.372549 0.747059
vt 0.252941 0.747059
vt 0.127451 0.627451
vt 0.247059 0.747059
vt 0.127451 0.747059
vt 0.378431 0.627451
vt 0.498039 0.747059
vt 0.378431 0.747059
vt 0.252941 0.252941
vt 0.372549 0.309804
vt 0.252941 0.309804
vt 0.752941 0.878431
vt 0.872549 0.998039
vt 0.752941 0.998039
vt 0.752941 0.909804
vt 0.127451 0.690196
vt 0.627451 0.627451
vt 0.747059 0.747059
vt 0.627451 0.747059
vt 0.372549 0.372549
vt 0.252941 0.372549
vt 0.501961 0.627451
vt 0.621569 0.747059
vt 0.501961 0.747059
vt 0.372549 0.278432
vt 0.252941 0.278432
vt 0.127451 0.621569
vt 0.127451 0.596079
vt 0.247059 0.621569
vt 0.127451 0.501961
vt 0.498039 0.652941
vt 0.378431 0.652941
vt 0.627451 0.752941
vt 0.747059 0.872549
vt 0.627451 0.872549
vt 0.247059 0.715687
vt 0.127451 0.715687
vt 0.498039 0.627451
vt 0.001961 0.878431
vt 0.121569 0.998039
vt 0.001961 0.998039
vt 0.252941 0.501961
vt 0.372549 0.621569
vt 0.252941 0.621569
vt 0.252941 0.658823
vt 0.001961 0.721568
vt 0.127451 0.658823
vt 0.252941 0.721568
vt 0.378431 0.690196
vt 0.001961 0.658823
vt 0.001961 0.690196
vt 0.121569 0.715687
vt 0.001961 0.715687
vt 0.247059 0.684314
vt 0.127451 0.684314
vt 0.121569 0.558823
vt 0.001961 0.558823
vt 0.247059 0.558823
vt 0.127451 0.558823
vt 0.247059 0.627451
vt 0.121569 0.627451
vt 0.121569 0.501961
vt 0.372549 0.627451
vt 0.372549 0.252941
vt 0.872549 0.878431
vt 0.747059 0.627451
vt 0.621569 0.627451
vt 0.247059 0.501961
vt 0.747059 0.752941
vt 0.121569 0.878431
vt 0.372549 0.501961
vt 0.372549 0.658823
vt 0.121569 0.721568
vt 0.247059 0.658823
vt 0.372549 0.721568
vt 0.498039 0.690196
vt 0.121569 0.658823
vt 0.121569 0.690196
vt 0.872549 0.909804
s 0
usemtl Material.001
f 1/1/1 207/2/1 2/3/1
f 3/4/1 4/5/1 5/6/1
f 6/7/2 7/8/2 8/9/2
f 8/1/2 2/2/2 9/3/2
f 10/10/1 9/11/1 11/12/1
f 12/13/1 8/14/1 10/15/1
f 15/16/2 11/17/2 13/18/2
f 13/19/3 9/20/3 454/21/3
f 16/21/2 15/22/2 13/20/2
f 17/4/4 13/5/4 454/6/4
f 20/1/5 16/2/5 17/3/5
f 21/7/5 18/8/5 20/9/5
f 426/13/2 20/14/2 22/15/2
f 22/10/2 23/11/2 25/12/2
f 26/12/5 23/23/5 24/11/5
f 25/13/6 26/14/6 27/15/6
f 26/19/3 454/20/3 28/21/3
f 27/19/3 29/20/3 32/21/3
f 26/19/3 30/20/3 29/21/3
f 29/24/3 211/25/3 31/26/3
f 32/16/3 31/27/3 34/28/3
f 445/19/3 32/20/3 33/21/3
f 33/16/3 34/27/3 36/28/3
f 36/29/2 35/30/2 37/31/2
f 34/29/2 243/30/2 35/31/2
f 39/16/3 36/27/3 38/28/3
f 38/29/2 37/30/2 40/31/2
f 409/24/3 38/25/3 41/26/3
f 42/29/5 40/30/5 43/31/5
f 45/16/3 38/27/3 42/28/3
f 44/29/5 43/30/5 238/31/5
f 47/16/3 42/27/3 44/28/3
f 407/19/3 45/20/3 46/21/3
f 46/19/3 47/20/3 48/21/3
f 49/16/3 44/27/3 50/28/3
f 48/19/3 49/20/3 51/21/3
f 52/16/3 50/27/3 54/28/3
f 51/19/3 52/20/3 55/21/3
f 55/19/3 53/20/3 56/21/3
f 52/24/3 229/25/3 53/26/3
f 58/19/3 55/20/3 57/21/3
f 57/19/3 56/20/3 59/21/3
f 61/19/3 57/20/3 60/21/3
f 60/19/3 59/20/3 62/21/3
f 61/16/3 63/27/3 64/28/3
f 63/24/3 62/25/3 65/26/3
f 64/29/1 66/30/1 399/31/1
f 65/16/3 67/27/3 63/28/3
f 63/29/7 68/30/7 66/31/7
f 67/29/7 402/30/7 68/31/7
f 70/16/3 69/27/3 67/28/3
f 70/19/3 126/20/3 71/21/3
f 72/19/3 71/20/3 73/21/3
f 72/16/3 75/27/3 69/28/3
f 74/19/3 73/20/3 76/21/3
f 78/24/3 74/25/3 77/26/3
f 77/19/3 76/20/3 80/21/3
f 78/16/1 79/32/1 366/33/1
f 79/34/1 77/35/1 80/36/1
f 80/19/3 253/20/3 81/21/3
f 86/19/8 80/20/8 82/21/8
f 82/19/3 81/20/3 83/21/3
f 83/34/5 84/35/5 82/36/5
f 85/19/8 84/20/8 111/21/8
f 88/19/8 82/20/8 85/21/8
f 90/19/3 86/20/3 88/21/3
f 87/19/3 79/20/3 86/21/3
f 89/19/8 85/20/8 105/21/8
f 92/19/3 88/20/3 89/21/3
f 91/19/3 87/20/3 90/21/3
f 93/19/3 90/20/3 92/21/3
f 94/19/5 93/20/5 92/21/5
f 92/19/5 97/20/5 94/21/5
f 96/4/5 95/5/5 94/6/5
f 100/37/5 94/36/5 97/34/5
f 98/13/2 256/38/2 96/39/2
f 99/13/9 100/14/9 101/15/9
f 102/13/2 101/14/2 100/15/2
f 104/40/9 103/41/9 102/42/9
f 97/10/5 104/43/5 102/44/5
f 107/7/7 105/8/7 85/9/7
f 110/40/9 107/41/9 109/42/9
f 108/19/9 103/20/9 107/21/9
f 111/15/5 107/45/5 85/14/5
f 113/19/7 109/20/7 112/21/7
f 113/19/7 111/20/7 84/21/7
f 116/19/7 113/20/7 114/21/7
f 114/19/7 83/20/7 81/21/7
f 115/19/7 81/20/7 253/21/7
f 117/19/7 114/20/7 115/21/7
f 118/19/7 115/20/7 120/21/7
f 119/19/7 120/20/7 122/21/7
f 120/19/7 253/20/7 121/21/7
f 121/19/7 122/20/7 120/21/7
f 123/19/7 119/20/7 122/21/7
f 125/19/7 122/20/7 124/21/7
f 73/19/3 124/20/3 121/21/3
f 71/19/3 125/20/3 124/21/3
f 126/19/3 127/20/3 125/21/3
f 130/19/7 125/20/7 127/21/7
f 128/19/3 129/20/3 127/21/3
f 132/19/7 127/20/7 129/21/7
f 131/19/7 123/20/7 130/21/7
f 134/37/7 130/36/7 132/34/7
f 133/19/7 129/20/7 233/21/7
f 135/4/7 132/5/7 133/6/7
f 136/37/7 133/36/7 138/34/7
f 137/4/7 138/5/7 140/6/7
f 138/19/7 233/20/7 139/21/7
f 140/19/7 139/20/7 141/21/7
f 142/19/7 141/20/7 144/21/7
f 143/37/7 140/36/7 142/34/7
f 146/4/7 142/5/7 145/6/7
f 145/19/7 144/20/7 147/21/7
f 150/19/7 145/20/7 148/21/7
f 151/19/7 145/20/7 147/21/7
f 244/19/7 148/20/7 149/21/7
f 149/19/7 151/20/7 152/21/7
f 153/19/3 152/20/3 151/21/3
f 154/19/3 151/20/3 147/21/3
f 158/19/3 153/20/3 154/21/3
f 156/19/3 155/20/3 153/21/3
f 156/16/3 225/27/3 157/28/3
f 157/24/3 159/25/3 156/26/3
f 160/19/3 161/20/3 159/21/3
f 159/19/3 164/20/3 155/21/3
f 162/19/3 163/20/3 161/21/3
f 161/19/3 165/20/3 164/21/3
f 164/19/3 167/20/3 166/21/3
f 155/19/3 166/20/3 152/21/3
f 167/4/7 168/5/7 166/6/7
f 168/19/7 152/20/7 166/21/7
f 168/4/7 244/5/7 149/6/7
f 172/7/7 168/8/7 170/9/7
f 171/19/9 174/20/9 173/21/9
f 176/16/1 171/32/1 173/33/1
f 173/19/9 184/20/9 175/21/9
f 178/16/1 173/32/1 175/33/1
f 244/19/9 176/20/9 177/21/9
f 179/16/1 175/32/1 181/33/1
f 180/16/7 181/32/7 182/33/7
f 175/19/9 182/20/9 181/21/9
f 185/4/1 182/5/1 184/6/1
f 184/16/1 187/32/1 186/33/1
f 163/13/1 183/14/1 185/15/1
f 183/37/1 198/36/1 180/34/1
f 189/13/1 188/14/1 183/15/1
f 191/19/3 189/20/3 162/21/3
f 190/13/1 195/14/1 188/15/1
f 193/19/3 190/20/3 191/21/3
f 210/19/3 192/20/3 193/21/3
f 192/13/1 196/14/1 195/15/1
f 199/4/1 195/5/1 196/6/1
f 197/37/1 188/36/1 195/34/1
f 200/46/1 196/47/1 201/48/1
f 201/4/1 202/5/1 200/6/1
f 203/37/1 5/36/1 202/34/1
f 203/1/1 205/2/1 204/3/1
f 3/10/1 204/11/1 207/12/1
f 206/19/3 205/20/3 209/21/3
f 208/19/3 204/20/3 206/21/3
f 9/19/3 207/20/3 208/21/3
f 28/19/3 206/20/3 30/21/3
f 454/19/3 208/20/3 28/21/3
f 30/19/3 209/20/3 211/21/3
f 211/19/3 210/20/3 212/21/3
f 209/19/3 194/20/3 210/21/3
f 211/16/3 214/27/3 31/28/3
f 212/16/3 216/27/3 214/28/3
f 212/19/3 193/20/3 213/21/3
f 31/29/1 215/30/1 243/31/1
f 214/29/1 217/30/1 215/31/1
f 216/29/1 219/30/1 217/31/1
f 213/16/3 218/27/3 216/28/3
f 218/29/1 222/30/1 219/31/1
f 220/16/3 157/27/3 218/28/3
f 220/19/3 162/20/3 160/21/3
f 213/19/3 191/20/3 220/21/3
f 240/49/3 219/50/3 221/51/3
f 221/49/3 222/50/3 223/51/3
f 157/29/7 223/30/7 222/31/7
f 235/49/3 223/50/3 224/51/3
f 225/29/7 224/30/7 223/31/7
f 158/16/3 226/27/3 225/28/3
f 227/16/3 54/27/3 226/28/3
f 226/29/7 236/30/7 224/31/7
f 229/19/3 228/20/3 230/21/3
f 227/19/3 154/20/3 228/21/3
f 53/19/3 230/20/3 231/21/3
f 231/19/3 141/20/3 139/21/3
f 230/19/3 144/20/3 141/21/3
f 56/19/3 231/20/3 232/21/3
f 232/19/3 139/20/3 233/21/3
f 59/19/3 232/20/3 234/21/3
f 234/19/3 233/20/3 129/21/3
f 62/19/3 234/20/3 128/21/3
f 228/19/3 147/20/3 144/21/3
f 237/49/3 224/50/3 236/51/3
f 54/29/5 237/30/5 236/31/5
f 238/49/3 235/50/3 237/51/3
f 50/29/5 238/30/5 237/31/5
f 43/49/3 239/50/3 238/51/3
f 239/49/3 221/50/3 235/51/3
f 241/49/3 240/50/3 239/51/3
f 37/49/3 242/50/3 241/51/3
f 40/49/3 241/50/3 43/51/3
f 242/49/3 217/50/3 240/51/3
f 35/49/3 215/50/3 242/51/3
f 194/13/1 201/14/1 196/15/1
f 150/19/9 177/20/9 245/21/9
f 146/19/9 245/20/9 246/21/9
f 247/19/9 248/20/9 249/21/9
f 143/4/9 246/5/9 247/6/9
f 251/4/1 174/5/1 172/6/1
f 250/52/1 167/8/1 165/9/1
f 65/19/3 128/20/3 126/21/3
f 76/19/3 121/20/3 253/21/3
f 105/37/5 97/36/5 89/34/5
f 103/53/5 99/2/5 101/3/5
f 260/54/5 255/11/5 257/12/5
f 266/1/5 257/2/5 258/3/5
f 261/55/2 259/8/2 262/9/2
f 260/7/9 96/8/9 256/9/9
f 262/4/5 264/5/5 95/6/5
f 263/7/9 259/8/9 266/9/9
f 263/56/5 354/14/5 264/15/5
f 265/13/9 266/14/9 267/15/9
f 267/10/5 258/11/5 269/12/5
f 268/13/7 265/38/7 267/39/7
f 272/57/5 269/2/5 270/3/5
f 270/58/5 276/2/5 271/3/5
f 273/19/9 297/20/9 275/21/9
f 273/40/9 280/41/9 277/42/9
f 279/40/7 273/41/7 277/42/7
f 277/7/5 282/8/5 278/9/5
f 280/19/9 291/20/9 281/21/9
f 280/13/5 284/14/5 282/15/5
f 278/1/5 283/59/5 350/60/5
f 282/10/5 285/61/5 283/62/5
f 285/19/3 347/20/3 283/21/3
f 287/19/10 286/20/10 285/21/10
f 289/22/2 288/20/2 287/21/2
f 281/19/9 290/20/9 289/21/9
f 290/22/2 293/20/2 288/21/2
f 290/40/9 295/41/9 292/42/9
f 292/7/1 296/8/1 294/9/1
f 295/13/2 300/14/2 296/15/2
f 275/19/9 295/20/9 291/21/9
f 297/19/9 298/20/9 295/21/9
f 298/7/5 304/8/5 300/9/5
f 274/19/9 301/20/9 297/21/9
f 296/1/2 303/2/2 345/3/2
f 300/10/5 305/11/5 303/12/5
f 305/19/3 338/20/3 303/21/3
f 307/4/2 306/63/2 305/64/2
f 308/37/2 299/36/2 310/34/2
f 309/4/2 310/5/2 311/6/2
f 308/37/2 336/65/2 306/66/2
f 313/37/2 311/36/2 312/34/2
f 312/13/2 324/14/2 313/15/2
f 315/19/9 314/20/9 312/21/9
f 317/19/9 316/20/9 315/21/9
f 316/19/9 321/20/9 314/21/9
f 319/19/9 322/20/9 321/21/9
f 314/29/2 323/30/2 324/31/2
f 324/16/2 325/32/2 329/33/2
f 326/16/2 327/17/2 325/18/2
f 325/19/3 447/20/3 328/21/3
f 329/19/3 328/20/3 331/21/3
f 330/19/3 331/20/3 333/21/3
f 313/37/2 329/36/2 330/34/2
f 333/19/3 332/20/3 334/21/3
f 331/19/3 388/20/3 332/21/3
f 336/19/3 333/20/3 335/21/3
f 335/19/3 334/20/3 337/21/3
f 306/19/3 335/20/3 338/21/3
f 338/19/3 337/20/3 339/21/3
f 303/19/3 339/20/3 341/21/3
f 339/19/3 382/20/3 340/21/3
f 341/19/3 340/20/3 343/21/3
f 345/19/3 341/20/3 344/21/3
f 344/19/6 342/20/6 346/21/6
f 341/34/1 343/35/1 342/36/1
f 286/19/3 344/20/3 347/21/3
f 347/19/6 346/20/6 348/21/6
f 283/19/6 348/20/6 350/21/6
f 350/19/3 349/20/3 351/21/3
f 348/19/3 359/20/3 349/21/3
f 352/10/5 350/43/5 351/44/5
f 351/19/3 356/20/3 353/21/3
f 354/1/5 351/59/5 353/60/5
f 264/10/5 353/43/5 355/44/5
f 353/19/3 357/20/3 355/21/3
f 356/19/3 361/20/3 357/21/3
f 349/19/3 358/20/3 356/21/3
f 359/19/3 360/20/3 358/21/3
f 358/19/3 363/20/3 361/21/3
f 357/19/3 362/20/3 91/21/3
f 361/19/3 365/20/3 362/21/3
f 449/16/1 363/32/1 360/33/1
f 364/16/1 365/32/1 363/33/1
f 362/19/3 366/20/3 87/21/3
f 367/16/1 366/32/1 365/33/1
f 367/16/3 370/27/3 368/28/3
f 78/16/3 368/27/3 75/28/3
f 75/29/5 369/30/5 403/31/5
f 368/29/5 372/30/5 369/31/5
f 364/16/3 371/27/3 370/28/3
f 370/29/5 374/30/5 372/31/5
f 372/49/3 401/50/3 369/51/3
f 374/49/3 373/50/3 372/51/3
f 376/49/3 375/50/3 374/51/3
f 371/29/5 376/30/5 374/31/5
f 377/29/2 378/30/2 376/31/2
f 380/29/2 379/30/2 378/31/2
f 378/49/3 404/50/3 375/51/3
f 382/16/3 381/27/3 380/28/3
f 340/16/3 380/27/3 377/28/3
f 337/19/3 383/20/3 382/21/3
f 383/16/3 385/27/3 381/28/3
f 334/19/3 384/20/3 383/21/3
f 384/24/3 389/25/3 385/26/3
f 332/19/3 386/20/3 384/21/3
f 386/19/3 390/20/3 389/21/3
f 388/19/3 387/20/3 386/21/3
f 389/19/3 392/20/3 391/21/3
f 389/16/3 394/27/3 385/28/3
f 391/19/3 406/20/3 393/21/3
f 391/16/3 396/27/3 394/28/3
f 385/29/1 395/30/1 405/31/1
f 394/29/1 397/30/1 395/31/1
f 393/16/3 64/27/3 396/28/3
f 396/29/1 399/30/1 397/31/1
f 404/49/3 397/50/3 398/51/3
f 398/49/3 399/50/3 400/51/3
f 400/49/3 66/50/3 68/51/3
f 401/49/3 68/50/3 402/51/3
f 373/49/3 400/50/3 401/51/3
f 369/49/3 402/50/3 403/51/3
f 69/29/7 403/30/7 402/31/7
f 375/49/3 398/50/3 373/51/3
f 379/49/3 395/50/3 404/51/3
f 381/29/2 405/30/2 379/31/2
f 393/19/3 58/20/3 61/21/3
f 406/19/3 51/20/3 58/21/3
f 392/19/3 48/20/3 406/21/3
f 390/19/3 46/20/3 392/21/3
f 387/19/3 407/20/3 390/21/3
f 408/19/3 41/20/3 407/21/3
f 410/19/3 409/20/3 408/21/3
f 412/19/3 408/20/3 387/21/3
f 447/19/3 410/20/3 412/21/3
f 411/19/3 413/20/3 410/21/3
f 413/19/3 39/20/3 409/21/3
f 415/19/3 414/20/3 413/21/3
f 438/19/3 415/20/3 411/21/3
f 416/19/3 417/20/3 415/21/3
f 417/19/3 445/20/3 414/21/3
f 417/12/2 419/23/2 418/11/2
f 420/13/11 419/14/11 417/15/11
f 421/18/2 420/16/2 422/17/2
f 423/16/2 420/17/2 416/18/2
f 421/7/12 22/8/12 419/9/12
f 425/7/1 22/8/1 424/9/1
f 428/19/9 425/20/9 427/21/9
f 430/19/9 427/20/9 429/21/9
f 432/19/9 429/20/9 431/21/9
f 433/16/2 434/32/2 435/33/2
f 435/29/2 436/30/2 437/31/2
f 437/16/2 416/32/2 438/33/2
f 327/19/3 411/20/3 447/21/3
f 440/16/2 438/17/2 327/18/2
f 441/19/9 426/20/9 428/21/9
f 443/19/9 442/20/9 441/21/9
f 419/58/2 446/2/2 418/3/2
f 418/4/3 27/5/3 445/6/3
f 446/12/1 25/23/1 27/11/1
f 414/19/3 33/20/3 39/21/3
f 328/19/3 412/20/3 388/21/3
f 449/16/3 377/27/3 371/28/3
f 343/24/3 377/25/3 448/26/3
f 343/16/1 450/32/1 342/33/1
f 448/16/1 360/32/1 450/33/1
f 346/19/3 450/20/3 359/21/3
f 355/19/3 91/20/3 93/21/3
f 355/37/5 95/36/5 264/34/5
f 451/52/5 352/8/5 354/9/5
f 451/13/9 272/14/9 452/15/9
f 271/13/7 452/38/7 272/39/7
f 271/40/9 279/41/9 453/42/9
f 453/13/5 278/14/5 352/15/5
f 293/12/1 296/67/1 345/11/1
f 288/19/10 345/20/10 286/21/10
f 309/4/2 330/5/2 336/6/2
f 24/21/2 17/19/2 454/20/2
f 1/1/1 3/68/1 207/2/1
f 3/4/1 1/69/1 4/5/1
f 6/7/2 4/70/2 7/8/2
f 8/1/2 7/68/2 2/2/2
f 10/10/1 8/67/1 9/11/1
f 12/13/1 6/45/1 8/14/1
f 15/16/2 14/71/2 11/17/2
f 13/19/3 11/72/3 9/20/3
f 17/4/4 16/69/4 13/5/4
f 20/1/5 18/68/5 16/2/5
f 21/7/5 19/70/5 18/8/5
f 426/13/2 21/45/2 20/14/2
f 22/10/2 20/67/2 23/11/2
f 25/13/6 23/45/6 26/14/6
f 26/19/3 24/72/3 454/20/3
f 27/19/3 26/72/3 29/20/3
f 26/19/3 28/72/3 30/20/3
f 29/24/3 30/73/3 211/25/3
f 32/16/3 29/71/3 31/27/3
f 445/19/3 27/72/3 32/20/3
f 33/16/3 32/71/3 34/27/3
f 36/29/2 34/74/2 35/30/2
f 34/29/2 31/74/2 243/30/2
f 39/16/3 33/71/3 36/27/3
f 38/29/2 36/74/2 37/30/2
f 409/24/3 39/73/3 38/25/3
f 42/29/5 38/74/5 40/30/5
f 45/16/3 41/71/3 38/27/3
f 44/29/5 42/74/5 43/30/5
f 47/16/3 45/71/3 42/27/3
f 407/19/3 41/72/3 45/20/3
f 46/19/3 45/72/3 47/20/3
f 49/16/3 47/71/3 44/27/3
f 48/19/3 47/72/3 49/20/3
f 52/16/3 49/71/3 50/27/3
f 51/19/3 49/72/3 52/20/3
f 55/19/3 52/72/3 53/20/3
f 52/24/3 54/73/3 229/25/3
f 58/19/3 51/72/3 55/20/3
f 57/19/3 55/72/3 56/20/3
f 61/19/3 58/72/3 57/20/3
f 60/19/3 57/72/3 59/20/3
f 61/16/3 60/71/3 63/27/3
f 63/24/3 60/73/3 62/25/3
f 64/29/1 63/74/1 66/30/1
f 65/16/3 70/71/3 67/27/3
f 63/29/7 67/74/7 68/30/7
f 67/29/7 69/74/7 402/30/7
f 70/16/3 72/71/3 69/27/3
f 70/19/3 65/72/3 126/20/3
f 72/19/3 70/72/3 71/20/3
f 72/16/3 74/71/3 75/27/3
f 74/19/3 72/72/3 73/20/3
f 78/24/3 75/73/3 74/25/3
f 77/19/3 74/72/3 76/20/3
f 78/16/1 77/71/1 79/32/1
f 80/19/3 76/72/3 253/20/3
f 86/19/8 79/72/8 80/20/8
f 82/19/3 80/72/3 81/20/3
f 85/19/8 82/72/8 84/20/8
f 88/19/8 86/72/8 82/20/8
f 90/19/3 87/72/3 86/20/3
f 87/19/3 366/72/3 79/20/3
f 89/19/8 88/72/8 85/20/8
f 92/19/3 90/72/3 88/20/3
f 91/19/3 362/72/3 87/20/3
f 93/19/3 91/72/3 90/20/3
f 94/19/5 95/72/5 93/20/5
f 92/19/5 89/72/5 97/20/5
f 96/4/5 261/69/5 95/5/5
f 100/37/5 98/75/5 94/36/5
f 98/13/2 99/45/2 256/38/2
f 99/13/9 98/45/9 100/14/9
f 102/13/2 103/45/2 101/14/2
f 104/40/9 107/76/9 103/41/9
f 97/10/5 106/67/5 104/43/5
f 107/7/7 104/70/7 105/8/7
f 110/40/9 108/76/9 107/41/9
f 108/19/9 254/72/9 103/20/9
f 111/15/5 109/13/5 107/45/5
f 113/19/7 110/72/7 109/20/7
f 113/19/7 112/72/7 111/20/7
f 116/19/7 110/72/7 113/20/7
f 114/19/7 113/72/7 83/20/7
f 115/19/7 114/72/7 81/20/7
f 117/19/7 116/72/7 114/20/7
f 118/19/7 117/72/7 115/20/7
f 119/19/7 118/72/7 120/20/7
f 120/19/7 115/72/7 253/20/7
f 121/19/7 124/72/7 122/20/7
f 123/19/7 252/72/7 119/20/7
f 125/19/7 123/72/7 122/20/7
f 73/19/3 71/72/3 124/20/3
f 71/19/3 126/72/3 125/20/3
f 126/19/3 128/72/3 127/20/3
f 130/19/7 123/72/7 125/20/7
f 128/19/3 234/72/3 129/20/3
f 132/19/7 130/72/7 127/20/7
f 131/19/7 252/72/7 123/20/7
f 134/37/7 131/75/7 130/36/7
f 133/19/7 132/72/7 129/20/7
f 135/4/7 134/69/7 132/5/7
f 136/37/7 135/75/7 133/36/7
f 137/4/7 136/69/7 138/5/7
f 138/19/7 133/72/7 233/20/7
f 140/19/7 138/72/7 139/20/7
f 142/19/7 140/72/7 141/20/7
f 143/37/7 137/75/7 140/36/7
f 146/4/7 143/69/7 142/5/7
f 145/19/7 142/72/7 144/20/7
f 150/19/7 146/72/7 145/20/7
f 151/19/7 148/72/7 145/20/7
f 244/19/7 150/72/7 148/20/7
f 149/19/7 148/72/7 151/20/7
f 153/19/3 155/72/3 152/20/3
f 154/19/3 153/72/3 151/20/3
f 158/19/3 156/72/3 153/20/3
f 156/19/3 159/72/3 155/20/3
f 156/16/3 158/71/3 225/27/3
f 157/24/3 160/73/3 159/25/3
f 160/19/3 162/72/3 161/20/3
f 159/19/3 161/72/3 164/20/3
f 162/19/3 189/72/3 163/20/3
f 161/19/3 163/72/3 165/20/3
f 164/19/3 165/72/3 167/20/3
f 155/19/3 164/72/3 166/20/3
f 167/4/7 170/69/7 168/5/7
f 168/19/7 149/72/7 152/20/7
f 168/4/7 169/69/7 244/5/7
f 172/7/7 171/70/7 168/8/7
f 171/19/9 172/72/9 174/20/9
f 176/16/1 169/71/1 171/32/1
f 173/19/9 174/72/9 184/20/9
f 178/16/1 176/71/1 173/32/1
f 244/19/9 169/72/9 176/20/9
f 179/16/1 178/71/1 175/32/1
f 180/16/7 179/71/7 181/32/7
f 175/19/9 184/72/9 182/20/9
f 185/4/1 183/69/1 182/5/1
f 184/16/1 174/71/1 187/32/1
f 163/13/1 189/45/1 183/14/1
f 183/37/1 188/75/1 198/36/1
f 189/13/1 190/45/1 188/14/1
f 191/19/3 190/72/3 189/20/3
f 190/13/1 192/45/1 195/14/1
f 193/19/3 192/72/3 190/20/3
f 210/19/3 194/72/3 192/20/3
f 192/13/1 194/45/1 196/14/1
f 199/4/1 197/69/1 195/5/1
f 197/37/1 198/75/1 188/36/1
f 200/46/1 199/77/1 196/47/1
f 201/4/1 203/69/1 202/5/1
f 203/37/1 3/75/1 5/36/1
f 203/1/1 201/68/1 205/2/1
f 3/10/1 203/67/1 204/11/1
f 206/19/3 204/72/3 205/20/3
f 208/19/3 207/72/3 204/20/3
f 9/19/3 2/72/3 207/20/3
f 28/19/3 208/72/3 206/20/3
f 454/19/3 9/72/3 208/20/3
f 30/19/3 206/72/3 209/20/3
f 211/19/3 209/72/3 210/20/3
f 209/19/3 205/72/3 194/20/3
f 211/16/3 212/71/3 214/27/3
f 212/16/3 213/71/3 216/27/3
f 212/19/3 210/72/3 193/20/3
f 31/29/1 214/74/1 215/30/1
f 214/29/1 216/74/1 217/30/1
f 216/29/1 218/74/1 219/30/1
f 213/16/3 220/71/3 218/27/3
f 218/29/1 157/74/1 222/30/1
f 220/16/3 160/71/3 157/27/3
f 220/19/3 191/72/3 162/20/3
f 213/19/3 193/72/3 191/20/3
f 240/49/3 217/78/3 219/50/3
f 221/49/3 219/78/3 222/50/3
f 157/29/7 225/74/7 223/30/7
f 235/49/3 221/78/3 223/50/3
f 225/29/7 226/74/7 224/30/7
f 158/16/3 227/71/3 226/27/3
f 227/16/3 229/71/3 54/27/3
f 226/29/7 54/74/7 236/30/7
f 229/19/3 227/72/3 228/20/3
f 227/19/3 158/72/3 154/20/3
f 53/19/3 229/72/3 230/20/3
f 231/19/3 230/72/3 141/20/3
f 230/19/3 228/72/3 144/20/3
f 56/19/3 53/72/3 231/20/3
f 232/19/3 231/72/3 139/20/3
f 59/19/3 56/72/3 232/20/3
f 234/19/3 232/72/3 233/20/3
f 62/19/3 59/72/3 234/20/3
f 228/19/3 154/72/3 147/20/3
f 237/49/3 235/78/3 224/50/3
f 54/29/5 50/74/5 237/30/5
f 238/49/3 239/78/3 235/50/3
f 50/29/5 44/74/5 238/30/5
f 43/49/3 241/78/3 239/50/3
f 239/49/3 240/78/3 221/50/3
f 241/49/3 242/78/3 240/50/3
f 37/49/3 35/78/3 242/50/3
f 40/49/3 37/78/3 241/50/3
f 242/49/3 215/78/3 217/50/3
f 35/49/3 243/78/3 215/50/3
f 194/13/1 205/45/1 201/14/1
f 150/19/9 244/72/9 177/20/9
f 146/19/9 150/72/9 245/20/9
f 247/19/9 246/72/9 248/20/9
f 143/4/9 146/69/9 246/5/9
f 251/4/1 250/69/1 174/5/1
f 250/52/1 251/79/1 167/8/1
f 65/19/3 62/72/3 128/20/3
f 76/19/3 73/72/3 121/20/3
f 105/37/5 106/75/5 97/36/5
f 103/53/5 255/80/5 99/2/5
f 260/54/5 256/81/5 255/11/5
f 266/1/5 259/68/5 257/2/5
f 261/55/2 260/82/2 259/8/2
f 260/7/9 261/70/9 96/8/9
f 262/4/5 263/69/5 264/5/5
f 263/7/9 262/70/9 259/8/9
f 263/56/5 265/83/5 354/14/5
f 265/13/9 263/45/9 266/14/9
f 267/10/5 266/67/5 258/11/5
f 268/13/7 451/45/7 265/38/7
f 272/57/5 268/84/5 269/2/5
f 270/58/5 273/85/5 276/2/5
f 273/19/9 274/72/9 297/20/9
f 273/40/9 275/76/9 280/41/9
f 279/40/7 276/76/7 273/41/7
f 277/7/5 280/70/5 282/8/5
f 280/19/9 275/72/9 291/20/9
f 280/13/5 281/45/5 284/14/5
f 278/1/5 282/68/5 283/59/5
f 282/10/5 284/67/5 285/61/5
f 285/19/3 286/72/3 347/20/3
f 287/19/10 288/72/10 286/20/10
f 289/22/2 290/86/2 288/20/2
f 281/19/9 291/72/9 290/20/9
f 290/22/2 292/86/2 293/20/2
f 290/40/9 291/76/9 295/41/9
f 292/7/1 295/70/1 296/8/1
f 295/13/2 298/45/2 300/14/2
f 275/19/9 297/72/9 295/20/9
f 297/19/9 301/72/9 298/20/9
f 298/7/5 299/70/5 304/8/5
f 274/19/9 302/72/9 301/20/9
f 296/1/2 300/68/2 303/2/2
f 300/10/5 304/67/5 305/11/5
f 305/19/3 306/72/3 338/20/3
f 307/4/2 308/69/2 306/63/2
f 308/37/2 307/75/2 299/36/2
f 309/4/2 308/69/2 310/5/2
f 308/37/2 309/75/2 336/65/2
f 313/37/2 309/75/2 311/36/2
f 312/13/2 314/45/2 324/14/2
f 315/19/9 316/72/9 314/20/9
f 317/19/9 318/72/9 316/20/9
f 316/19/9 319/72/9 321/20/9
f 319/19/9 320/72/9 322/20/9
f 314/29/2 321/74/2 323/30/2
f 324/16/2 323/71/2 325/32/2
f 326/16/2 440/71/2 327/17/2
f 325/19/3 327/72/3 447/20/3
f 329/19/3 325/72/3 328/20/3
f 330/19/3 329/72/3 331/20/3
f 313/37/2 324/75/2 329/36/2
f 333/19/3 331/72/3 332/20/3
f 331/19/3 328/72/3 388/20/3
f 336/19/3 330/72/3 333/20/3
f 335/19/3 333/72/3 334/20/3
f 306/19/3 336/72/3 335/20/3
f 338/19/3 335/72/3 337/20/3
f 303/19/3 338/72/3 339/20/3
f 339/19/3 337/72/3 382/20/3
f 341/19/3 339/72/3 340/20/3
f 345/19/3 303/72/3 341/20/3
f 344/19/6 341/72/6 342/20/6
f 286/19/3 345/72/3 344/20/3
f 347/19/6 344/72/6 346/20/6
f 283/19/6 347/72/6 348/20/6
f 350/19/3 348/72/3 349/20/3
f 348/19/3 346/72/3 359/20/3
f 352/10/5 278/67/5 350/43/5
f 351/19/3 349/72/3 356/20/3
f 354/1/5 352/68/5 351/59/5
f 264/10/5 354/67/5 353/43/5
f 353/19/3 356/72/3 357/20/3
f 356/19/3 358/72/3 361/20/3
f 349/19/3 359/72/3 358/20/3
f 359/19/3 450/72/3 360/20/3
f 358/19/3 360/72/3 363/20/3
f 357/19/3 361/72/3 362/20/3
f 361/19/3 363/72/3 365/20/3
f 449/16/1 364/71/1 363/32/1
f 364/16/1 367/71/1 365/32/1
f 362/19/3 365/72/3 366/20/3
f 367/16/1 78/71/1 366/32/1
f 367/16/3 364/71/3 370/27/3
f 78/16/3 367/71/3 368/27/3
f 75/29/5 368/74/5 369/30/5
f 368/29/5 370/74/5 372/30/5
f 364/16/3 449/71/3 371/27/3
f 370/29/5 371/74/5 374/30/5
f 372/49/3 373/78/3 401/50/3
f 374/49/3 375/78/3 373/50/3
f 376/49/3 378/78/3 375/50/3
f 371/29/5 377/74/5 376/30/5
f 377/29/2 380/74/2 378/30/2
f 380/29/2 381/74/2 379/30/2
f 378/49/3 379/78/3 404/50/3
f 382/16/3 383/71/3 381/27/3
f 340/16/3 382/71/3 380/27/3
f 337/19/3 334/72/3 383/20/3
f 383/16/3 384/71/3 385/27/3
f 334/19/3 332/72/3 384/20/3
f 384/24/3 386/73/3 389/25/3
f 332/19/3 388/72/3 386/20/3
f 386/19/3 387/72/3 390/20/3
f 388/19/3 412/72/3 387/20/3
f 389/19/3 390/72/3 392/20/3
f 389/16/3 391/71/3 394/27/3
f 391/19/3 392/72/3 406/20/3
f 391/16/3 393/71/3 396/27/3
f 385/29/1 394/74/1 395/30/1
f 394/29/1 396/74/1 397/30/1
f 393/16/3 61/71/3 64/27/3
f 396/29/1 64/74/1 399/30/1
f 404/49/3 395/78/3 397/50/3
f 398/49/3 397/78/3 399/50/3
f 400/49/3 399/78/3 66/50/3
f 401/49/3 400/78/3 68/50/3
f 373/49/3 398/78/3 400/50/3
f 369/49/3 401/78/3 402/50/3
f 69/29/7 75/74/7 403/30/7
f 375/49/3 404/78/3 398/50/3
f 379/49/3 405/78/3 395/50/3
f 381/29/2 385/74/2 405/30/2
f 393/19/3 406/72/3 58/20/3
f 406/19/3 48/72/3 51/20/3
f 392/19/3 46/72/3 48/20/3
f 390/19/3 407/72/3 46/20/3
f 387/19/3 408/72/3 407/20/3
f 408/19/3 409/72/3 41/20/3
f 410/19/3 413/72/3 409/20/3
f 412/19/3 410/72/3 408/20/3
f 447/19/3 411/72/3 410/20/3
f 411/19/3 415/72/3 413/20/3
f 413/19/3 414/72/3 39/20/3
f 415/19/3 417/72/3 414/20/3
f 438/19/3 416/72/3 415/20/3
f 416/19/3 420/72/3 417/20/3
f 417/19/3 418/72/3 445/20/3
f 420/13/11 421/45/11 419/14/11
f 423/16/2 422/71/2 420/17/2
f 421/7/12 424/70/12 22/8/12
f 425/7/1 426/70/1 22/8/1
f 428/19/9 426/72/9 425/20/9
f 430/19/9 428/72/9 427/20/9
f 432/19/9 430/72/9 429/20/9
f 433/16/2 431/71/2 434/32/2
f 435/29/2 434/74/2 436/30/2
f 437/16/2 436/71/2 416/32/2
f 327/19/3 438/72/3 411/20/3
f 440/16/2 439/71/2 438/17/2
f 441/19/9 442/72/9 426/20/9
f 443/19/9 444/72/9 442/20/9
f 419/58/2 22/85/2 446/2/2
f 418/4/3 446/69/3 27/5/3
f 414/19/3 445/72/3 33/20/3
f 328/19/3 447/72/3 412/20/3
f 449/16/3 448/71/3 377/27/3
f 343/24/3 340/73/3 377/25/3
f 343/16/1 448/71/1 450/32/1
f 448/16/1 449/71/1 360/32/1
f 346/19/3 342/72/3 450/20/3
f 355/19/3 357/72/3 91/20/3
f 355/37/5 93/75/5 95/36/5
f 451/52/5 452/79/5 352/8/5
f 451/13/9 268/45/9 272/14/9
f 271/13/7 453/45/7 452/38/7
f 271/40/9 276/76/9 279/41/9
f 453/13/5 279/45/5 278/14/5
f 293/12/1 294/10/1 296/67/1
f 288/19/10 293/72/10 345/20/10
f 309/4/2 313/69/2 330/5/2
