# Blender 5.1.2
# www.blender.org
mtllib room01.mtl
o 01-Caves.001
v 329.956909 -41.575367 -49.912643
v 329.956909 -41.575367 -39.912643
v 329.956909 -31.575371 -49.912643
v 329.956909 -51.575367 -49.912643
v 329.956909 -61.575367 -49.912643
v 329.956909 -51.575367 -39.912643
v 329.956909 -61.575367 -39.912643
v 329.956909 -51.575367 -29.912647
v 329.956909 -61.575367 -29.912647
v 329.956909 -51.575363 -19.912649
v 329.956909 -41.575367 -29.912647
v 329.956909 -31.575369 -29.912649
v 329.956909 -41.575363 -19.912649
v 329.956909 -31.575369 -19.912651
v 329.956909 -41.575363 -9.912649
v 329.956909 -31.575367 -9.912650
v 329.956909 -51.575363 -9.912648
v 329.956909 -41.575363 0.087351
v 329.956909 -31.575367 0.087350
v 329.956909 -51.575363 0.087352
v 329.956909 -61.575363 0.087352
v 339.956818 -61.575363 0.087352
v 329.956909 -54.075363 0.087352
v 329.956909 -61.575363 -9.912647
v 339.956818 -61.575363 -9.912647
v 329.956909 -61.575363 -19.912649
v 339.956818 -61.575363 -19.912649
v 339.956818 -61.575367 -29.912647
v 349.956909 -61.575363 -19.912649
v 349.956909 -61.575363 -9.912647
v 359.956909 -61.575363 -19.912649
v 349.956909 -61.575367 -29.912647
v 349.956909 -61.575367 -39.912643
v 359.956909 -61.575367 -29.912647
v 359.956909 -61.575367 -39.912643
v 369.956818 -61.575367 -29.912647
v 369.956818 -61.575363 -19.912649
v 379.956909 -59.075375 -29.912647
v 369.956818 -61.575367 -39.912643
v 369.956818 -61.575367 -49.912643
v 379.956909 -59.075375 -39.912643
v 389.956909 -59.075375 -39.912643
v 379.956909 -59.075375 -49.912643
v 369.956818 -59.075375 -49.912643
v 379.956909 -54.075367 -59.912643
v 389.956909 -54.075367 -49.912643
v 389.956909 -59.075375 -49.912643
v 399.956909 -49.075367 -49.912643
v 399.956909 -49.075367 -39.912643
v 399.956909 -41.575367 -49.912643
v 399.956909 -46.575367 -49.912643
v 399.956909 -41.575367 -59.912643
v 389.956909 -49.075367 -59.912643
v 399.956909 -31.575371 -49.912643
v 399.956909 -41.575367 -59.912643
v 399.956909 -41.575367 -39.912643
v 399.956909 -41.575367 -29.912647
v 399.956909 -31.575371 -39.912643
v 399.956909 -31.575369 -29.912649
v 389.956909 -31.575371 -39.912643
v 379.956909 -31.575371 -39.912643
v 389.956909 -31.575371 -49.912643
v 389.956909 -31.575369 -29.912649
v 379.956909 -31.575369 -29.912649
v 389.956909 -31.575369 -19.912651
v 379.956909 -31.575369 -19.912651
v 389.956909 -31.575367 -9.912650
v 399.956909 -31.575369 -19.912651
v 399.956909 -34.075367 -19.912651
v 389.956909 -34.075367 -9.912649
v 389.956909 -36.575367 0.087351
v 399.956909 -36.575367 -9.912649
v 379.956909 -31.575367 -9.912650
v 369.956818 -31.575367 -9.912650
v 379.956909 -31.575367 0.087350
v 379.956909 -34.075367 0.087350
v 369.956818 -31.575367 0.087350
v 379.956909 -36.575367 10.087351
v 379.956909 -36.575367 20.087351
v 389.956909 -39.075367 10.087351
v 369.956818 -34.075367 10.087351
v 369.956818 -31.575367 10.087350
v 359.956909 -31.575367 10.087350
v 369.956818 -34.075367 20.087351
v 359.956909 -31.575365 20.087351
v 369.956818 -31.575365 20.087351
v 369.956818 -31.575365 30.087389
v 379.956909 -31.575365 20.087351
v 379.956909 -31.575365 30.087389
v 379.956909 -31.575363 40.087357
v 389.956909 -34.075363 30.087389
v 389.956909 -31.575365 30.087389
v 389.956909 -31.575363 40.087357
v 389.956909 -31.575363 50.087357
v 399.956909 -34.075363 40.087357
v 399.956909 -31.575363 40.087357
v 399.956909 -41.575359 40.087357
v 399.956909 -31.575363 50.087357
v 399.956909 -31.575363 60.087357
v 399.956909 -36.575363 50.087357
v 399.956909 -31.575363 60.087357
v 389.956909 -34.075363 60.087357
v 389.956909 -31.575363 60.087357
v 379.956909 -31.575363 60.087357
v 389.956909 -44.075359 60.087357
v 379.956909 -49.075359 60.087357
v 389.956909 -44.075359 50.087357
v 389.956909 -44.075359 40.087357
v 379.956909 -49.075359 50.087357
v 389.956909 -39.075363 50.087357
v 369.956818 -51.575359 50.087357
v 379.956909 -49.075359 40.087357
v 369.956818 -51.575359 40.087357
v 379.956909 -51.575359 30.087391
v 369.956818 -54.075359 30.087391
v 379.956909 -54.075363 20.087353
v 389.956909 -46.575359 30.087391
v 389.956909 -49.075363 20.087353
v 399.956909 -44.075359 30.087391
v 399.956909 -36.575363 30.087389
v 399.956909 -46.575363 20.087353
v 399.956909 -41.575363 20.087353
v 399.956909 -41.575363 20.087353
v 399.956909 -41.575363 10.087351
v 389.956909 -49.075363 10.087352
v 399.956909 -46.575363 0.087351
v 399.956909 -41.575363 0.087351
v 399.956909 -49.075363 0.087351
v 399.956909 -41.575363 10.087351
v 399.956909 -39.075367 0.087351
v 399.956909 -41.575363 -9.912649
v 399.956909 -49.075363 -9.912648
v 399.956909 -41.575363 -19.912649
v 399.956909 -49.075363 -19.912649
v 389.956909 -59.075371 -19.912649
v 399.956909 -49.075367 -29.912647
v 389.956909 -59.075375 -29.912647
v 389.956909 -59.075371 -9.912647
v 389.956909 -66.575371 -9.912647
v 379.956909 -59.075371 -19.912649
v 379.956909 -66.575371 -9.912647
v 369.956818 -69.075363 -9.912647
v 379.956909 -79.075378 -9.912646
v 369.956818 -81.575363 -9.912646
v 389.956909 -79.075378 -9.912646
v 379.956909 -79.075378 0.087354
v 379.956909 -59.075371 0.087352
v 389.956909 -79.075378 0.087354
v 369.956818 -81.575363 0.087354
v 359.956909 -81.575363 0.087354
v 369.956818 -61.575363 0.087352
v 359.956909 -61.575363 0.087352
v 369.956818 -56.575363 10.087352
v 369.956818 -56.575363 20.087353
v 379.956909 -54.075363 10.087352
v 359.956909 -56.575363 10.087352
v 349.956909 -54.075363 10.087352
v 359.956909 -56.575363 20.087353
v 349.956909 -54.075363 20.087353
v 359.956909 -54.075359 30.087391
v 349.956909 -51.575359 30.087391
v 359.956909 -51.575359 40.087357
v 359.956909 -51.575359 50.087357
v 349.956909 -49.075359 40.087357
v 339.956818 -44.075359 40.087357
v 349.956909 -49.075359 50.087357
v 339.956818 -44.075359 50.087357
v 349.956909 -51.575359 50.087357
v 349.956909 -49.075359 60.087357
v 359.956909 -51.575359 60.087357
v 349.956909 -54.075359 60.087357
v 359.956909 -49.075359 60.087357
v 349.956909 -31.575363 60.087357
v 359.956909 -31.575363 60.087357
v 349.956909 -31.575363 50.087357
v 339.956818 -31.575363 60.087357
v 339.956818 -31.575363 50.087357
v 339.956818 -44.075359 60.087357
v 339.956818 -54.075359 60.087357
v 339.956818 -51.575359 50.087357
v 339.956818 -31.575363 40.087357
v 339.956818 -31.575365 30.087389
v 329.956909 -31.575363 40.087357
v 339.956818 -39.075363 40.087357
v 349.956909 -31.575363 40.087357
v 359.956909 -31.575363 40.087357
v 349.956909 -31.575365 30.087389
v 359.956909 -31.575365 30.087389
v 349.956909 -31.575365 20.087351
v 349.956909 -31.575367 10.087350
v 339.956818 -31.575365 20.087351
v 329.956909 -31.575365 20.087351
v 339.956818 -31.575367 10.087350
v 329.956909 -31.575367 10.087350
v 339.956818 -31.575367 0.087350
v 339.956818 -41.575363 10.087351
v 339.956818 -41.575363 0.087351
v 329.956909 -41.575363 10.087351
v 339.956818 -44.075363 10.087351
v 339.956818 -49.075363 10.087352
v 339.956818 -54.075363 0.087352
v 339.956818 -49.075363 20.087353
v 339.956818 -44.075363 20.087353
v 339.956818 -46.575359 30.087391
v 339.956818 -41.575359 30.087391
v 329.956909 -41.575359 30.087391
v 329.956909 -39.075363 40.087357
v 329.956909 -44.075363 20.087353
v 329.956909 -44.075363 10.087351
v 349.956909 -59.075371 0.087352
v 349.956909 -61.575363 0.087352
v 329.956909 -41.575363 0.087351
v 349.956909 -31.575367 0.087350
v 339.956818 -31.575367 -9.912650
v 339.956818 -31.575369 -19.912651
v 349.956909 -31.575367 -9.912650
v 349.956909 -31.575369 -19.912651
v 359.956909 -31.575367 -9.912650
v 359.956909 -31.575369 -19.912651
v 359.956909 -31.575367 0.087350
v 369.956818 -31.575369 -19.912651
v 359.956909 -31.575369 -29.912649
v 349.956909 -31.575369 -29.912649
v 369.956818 -31.575369 -29.912649
v 359.956909 -31.575371 -39.912643
v 359.956909 -31.575371 -49.912643
v 349.956909 -31.575371 -39.912643
v 369.956818 -31.575371 -39.912643
v 369.956818 -31.575371 -49.912643
v 369.956818 -31.575371 -59.912643
v 379.956909 -31.575371 -49.912643
v 379.956909 -31.575371 -59.912643
v 389.956909 -34.075371 -59.912643
v 389.956909 -31.575371 -59.912643
v 399.956909 -31.575371 -59.912643
v 399.956909 -39.075371 -59.912643
v 359.956909 -31.575371 -59.912643
v 359.956909 -34.075371 -59.912643
v 349.956909 -34.075371 -59.912643
v 349.956909 -31.575371 -59.912643
v 349.956909 -31.575371 -49.912643
v 339.956818 -39.075371 -49.912643
v 339.956818 -31.575371 -49.912643
v 339.956818 -31.575371 -39.912643
v 339.956818 -31.575369 -29.912649
v 329.956909 -31.575371 -39.912643
v 329.956909 -49.075367 -49.912643
v 339.956818 -39.075371 -59.912643
v 329.956909 -49.075367 -59.912643
v 339.956818 -49.075367 -59.912643
v 329.956909 -49.075367 -59.912643
v 349.956909 -39.075371 -59.912643
v 349.956909 -49.075367 -59.912643
v 339.956818 -54.075367 -59.912643
v 349.956909 -54.075367 -49.912643
v 359.956909 -54.075367 -59.912643
v 359.956909 -59.075375 -49.912643
v 369.956818 -54.075367 -59.912643
v 359.956909 -61.575367 -49.912643
v 349.956909 -61.575367 -49.912643
v 339.956818 -61.575367 -49.912643
v 339.956818 -59.075375 -49.912643
v 339.956818 -61.575367 -39.912643
v 329.956909 -54.075367 -49.912643
v 329.956909 -31.575365 30.087389
v 359.956909 -31.575363 50.087357
v 369.956818 -31.575363 40.087357
v 369.956818 -31.575363 50.087357
v 369.956818 -31.575363 60.087357
v 379.956909 -31.575363 50.087357
v 369.956818 -49.075359 60.087357
v 369.956818 -51.575359 60.087357
v 359.956909 -61.575363 -9.912647
v 359.956909 -81.575363 -9.912646
v 359.956909 -69.075363 -9.912647
v 389.956909 -54.075363 0.087352
v 389.956909 -59.075371 0.087352
v 389.956909 -39.075367 20.087353
vn 1.0000 -0.0000 -0.0000
vn -0.0000 -0.0000 -1.0000
vn -0.0000 1.0000 -0.0000
vn -0.2425 0.9701 -0.0000
vn -0.0000 -0.0000 1.0000
vn -0.0000 0.8944 0.4472
vn -0.4082 0.8165 0.4082
vn -0.7071 0.7071 -0.0000
vn -1.0000 -0.0000 -0.0000
vn -0.5571 0.7428 0.3714
vn -0.0000 -1.0000 -0.0000
vn -0.2357 -0.9428 -0.2357
vn -0.2425 -0.9701 -0.0000
vn -0.2182 -0.8729 0.4364
vn -0.2357 -0.9428 0.2357
vn -0.2182 0.8729 -0.4364
vn -0.4472 0.8944 -0.0000
vn -0.4364 0.8729 -0.2182
vn -0.2357 0.9428 -0.2357
vn -0.6000 0.8000 -0.0000
vn -0.5571 0.7428 -0.3714
vn -0.0000 0.8000 0.6000
vn -0.1961 0.7845 0.5883
vn -0.0000 0.8944 -0.4472
vn 0.2425 0.9701 -0.0000
vn 0.2182 0.8729 -0.4364
vn 0.2357 0.9428 -0.2357
vn -0.0000 0.9701 -0.2425
vn 0.4472 0.8944 -0.0000
vn 0.4364 0.8729 -0.2182
vn 0.4082 0.8165 -0.4082
vn -0.0000 -0.9701 0.2425
vn 0.6000 -0.8000 -0.0000
vn 0.7071 -0.7071 -0.0000
vn 0.4082 0.8165 0.4082
vn 0.4083 0.8165 0.4082
vn -0.4082 0.8165 -0.4082
vt 0.752941 0.878431
vt 0.872549 0.998039
vt 0.752941 0.998039
vt 0.501961 0.878431
vt 0.621569 0.998039
vt 0.501961 0.998039
vt 0.127451 0.621569
vt 0.127451 0.501961
vt 0.247059 0.621569
vt 0.127451 0.627451
vt 0.247059 0.747059
vt 0.127451 0.747059
vt 0.001961 0.747059
vt 0.121569 0.627451
vt 0.121569 0.747059
vt 0.001961 0.621569
vt 0.001961 0.501961
vt 0.121569 0.621569
vt 0.247059 0.501961
vt 0.247059 0.627451
vt 0.001961 0.627451
vt 0.252941 0.627451
vt 0.372549 0.747059
vt 0.252941 0.747059
vt 0.378431 0.627451
vt 0.498039 0.747059
vt 0.378431 0.747059
vt 0.627451 0.752941
vt 0.747059 0.872549
vt 0.627451 0.872549
vt 0.627451 0.998039
vt 0.627451 0.972549
vt 0.747059 0.998039
vt 0.501961 0.872549
vt 0.621569 0.752941
vt 0.621569 0.872549
vt 0.252941 0.501961
vt 0.372549 0.621569
vt 0.252941 0.621569
vt 0.621569 0.878431
vt 0.878431 0.998039
vt 0.878431 0.972549
vt 0.998039 0.998039
vt 0.872549 0.878431
vt 0.627451 0.878431
vt 0.752941 0.972549
vt 0.001961 0.872549
vt 0.001961 0.752941
vt 0.121569 0.872549
vt 0.121569 0.752941
vt 0.747059 0.878431
vt 0.621569 0.935294
vt 0.501961 0.935294
vt 0.747059 0.903921
vt 0.627451 0.903921
vt 0.501961 0.941177
vt 0.627451 0.941177
vt 0.498039 0.627451
vt 0.121569 0.501961
vt 0.372549 0.627451
vt 0.747059 0.752941
vt 0.501961 0.752941
vt 0.372549 0.501961
vt 0.747059 0.972549
vt 0.872549 0.972549
vt 0.621569 0.941177
s 0
usemtl Material.001
f 1/1/1 6/2/1 4/3/1
f 3/1/1 2/2/1 1/3/1
f 4/1/1 7/2/1 5/3/1
f 2/1/1 8/2/1 6/3/1
f 6/1/1 9/2/1 7/3/1
f 8/1/1 26/2/1 9/3/1
f 11/1/1 10/2/1 8/3/1
f 246/1/1 11/2/1 2/3/1
f 12/1/1 13/2/1 11/3/1
f 14/1/1 15/2/1 13/3/1
f 13/1/1 17/2/1 10/3/1
f 16/1/1 18/2/1 15/3/1
f 15/1/1 20/2/1 17/3/1
f 17/1/1 21/2/1 24/3/1
f 23/4/2 22/5/2 21/6/2
f 25/1/3 21/2/3 22/3/3
f 10/1/1 24/2/1 26/3/1
f 27/1/3 24/2/3 25/3/3
f 28/1/3 26/2/3 27/3/3
f 32/1/3 27/2/3 29/3/3
f 29/1/3 25/2/3 30/3/3
f 31/1/3 30/2/3 273/3/3
f 34/1/3 29/2/3 31/3/3
f 33/1/3 28/2/3 32/3/3
f 35/1/3 32/2/3 34/3/3
f 39/1/3 34/2/3 36/3/3
f 36/1/3 31/2/3 37/3/3
f 38/1/4 37/2/4 140/3/4
f 38/1/4 39/2/4 36/3/4
f 40/1/3 35/2/3 39/3/3
f 43/1/4 39/2/4 41/3/4
f 42/1/3 38/2/3 137/3/3
f 47/1/3 41/2/3 42/3/3
f 43/7/5 44/8/5 40/9/5
f 45/10/6 44/11/6 43/12/6
f 46/13/7 45/14/7 43/15/7
f 47/16/5 46/17/5 43/18/5
f 48/1/8 42/2/8 49/3/8
f 48/7/5 46/19/5 47/9/5
f 56/17/9 48/18/9 49/16/9
f 51/12/10 53/20/10 46/11/10
f 51/13/9 50/21/9 52/15/9
f 58/22/9 50/23/9 56/24/9
f 50/10/9 235/11/9 55/12/9
f 57/8/9 49/9/9 136/7/9
f 59/25/9 56/26/9 57/27/9
f 58/1/11 62/2/11 54/3/11
f 59/1/11 60/2/11 58/3/11
f 63/1/11 61/2/11 60/3/11
f 60/1/11 231/2/11 62/3/11
f 64/28/11 65/29/11 66/30/11
f 68/1/11 63/2/11 59/3/11
f 65/28/11 73/29/11 66/30/11
f 70/31/9 67/32/9 65/33/9
f 65/31/2 68/32/2 69/33/2
f 69/34/12 70/35/12 65/36/12
f 72/34/12 71/35/12 70/36/12
f 70/34/12 76/35/12 73/36/12
f 73/31/2 67/32/2 70/33/2
f 73/37/11 221/38/11 66/39/11
f 73/28/11 77/29/11 74/30/11
f 76/31/9 75/32/9 73/33/9
f 77/31/2 75/32/2 76/33/2
f 76/34/12 81/35/12 77/36/12
f 71/6/12 78/40/12 76/5/12
f 278/4/13 78/5/13 80/6/13
f 79/4/13 81/5/13 78/6/13
f 81/31/9 82/32/9 77/33/9
f 83/31/2 82/32/2 81/33/2
f 84/4/13 83/5/13 81/6/13
f 84/31/5 86/32/5 85/33/5
f 88/32/5 84/33/5 79/31/5
f 87/1/11 85/2/11 86/3/11
f 89/1/11 86/2/11 88/3/11
f 89/31/9 88/32/9 79/33/9
f 93/1/11 89/2/11 92/3/11
f 90/1/11 87/2/11 89/3/11
f 91/31/5 92/32/5 89/33/5
f 91/4/14 79/5/14 278/6/14
f 93/31/9 92/32/9 91/33/9
f 94/1/11 90/2/11 93/3/11
f 98/1/11 93/2/11 96/3/11
f 95/41/5 96/42/5 93/43/5
f 95/4/15 91/5/15 120/6/15
f 100/3/9 96/44/9 97/2/9
f 99/1/11 94/2/11 98/3/11
f 101/3/9 98/1/9 100/2/9
f 102/3/2 103/1/2 101/2/2
f 100/1/16 102/2/16 101/3/16
f 104/1/2 105/2/2 106/3/2
f 103/1/11 270/2/11 94/3/11
f 107/1/17 106/2/17 105/3/17
f 105/3/9 110/44/9 107/2/9
f 107/3/9 110/1/9 108/2/9
f 108/1/17 109/2/17 107/3/17
f 97/1/16 110/2/16 100/3/16
f 109/1/4 272/2/4 106/3/4
f 112/1/4 111/2/4 109/3/4
f 117/1/18 112/2/18 108/3/18
f 114/1/19 113/2/19 112/3/19
f 116/1/19 115/2/19 114/3/19
f 118/1/18 114/2/18 117/3/18
f 121/1/19 117/2/19 119/3/19
f 119/1/19 108/2/19 97/3/19
f 97/3/9 120/44/9 119/2/9
f 119/3/9 122/44/9 121/2/9
f 121/31/5 123/45/5 118/33/5
f 124/45/20 118/33/20 123/31/20
f 126/45/21 125/33/21 124/31/21
f 124/3/9 127/46/9 126/2/9
f 127/46/9 132/2/9 128/3/9
f 129/3/9 130/46/9 127/2/9
f 130/46/9 131/2/9 127/3/9
f 131/1/9 134/2/9 132/3/9
f 72/1/9 133/2/9 131/3/9
f 68/22/9 57/23/9 133/24/9
f 133/17/9 136/18/9 134/16/9
f 134/1/8 138/2/8 132/3/8
f 136/1/8 135/2/8 134/3/8
f 49/1/8 137/2/8 136/3/8
f 137/1/3 140/2/3 135/3/3
f 138/47/9 135/48/9 139/49/9
f 135/1/22 141/2/22 139/3/22
f 141/3/23 37/44/23 142/2/23
f 142/48/5 143/49/5 141/47/5
f 141/48/5 145/49/5 139/47/5
f 143/1/4 149/2/4 146/3/4
f 145/1/3 146/2/3 148/3/3
f 147/47/2 148/50/2 146/49/2
f 151/47/2 146/50/2 149/49/2
f 144/1/3 150/2/3 149/3/3
f 151/48/2 150/49/2 152/47/2
f 151/45/24 156/33/24 153/31/24
f 147/45/16 153/33/16 155/31/16
f 155/45/4 154/33/4 116/31/4
f 153/45/3 158/33/3 154/31/3
f 156/45/25 159/33/25 158/31/25
f 156/31/26 210/51/26 157/33/26
f 160/3/27 159/44/27 161/2/27
f 154/1/28 160/2/28 115/3/28
f 162/3/27 161/44/27 164/2/27
f 115/1/28 162/2/28 113/3/28
f 113/1/3 163/2/3 111/3/3
f 162/1/25 166/2/25 163/3/25
f 164/1/29 167/2/29 166/3/29
f 164/3/30 204/44/30 165/2/30
f 166/4/5 180/5/5 168/6/5
f 169/1/9 168/2/9 171/3/9
f 163/1/25 169/2/25 170/3/25
f 169/3/2 172/1/2 170/2/2
f 173/1/2 172/2/2 169/3/2
f 176/1/2 171/2/2 179/3/2
f 174/1/11 175/2/11 266/3/11
f 173/1/11 177/2/11 175/3/11
f 177/4/1 178/5/1 167/6/1
f 180/3/1 178/44/1 179/2/1
f 175/1/11 181/2/11 185/3/11
f 181/4/1 167/5/1 165/6/1
f 185/1/11 182/2/11 187/3/11
f 181/1/11 265/2/11 182/3/11
f 183/4/2 184/52/2 207/53/2
f 266/1/11 185/2/11 186/3/11
f 186/1/11 187/2/11 188/3/11
f 187/1/11 191/2/11 189/3/11
f 188/1/11 189/2/11 85/3/11
f 85/1/11 190/2/11 83/3/11
f 189/1/11 193/2/11 190/3/11
f 182/1/11 192/2/11 191/3/11
f 191/1/11 194/2/11 193/3/11
f 193/45/5 198/33/5 196/31/5
f 195/4/1 196/5/1 197/6/1
f 190/1/11 195/2/11 213/3/11
f 197/4/1 200/5/1 201/6/1
f 196/45/5 209/54/5 199/55/5
f 157/45/29 202/33/29 159/31/29
f 157/31/31 201/51/31 200/33/31
f 202/4/1 199/5/1 203/6/1
f 161/3/30 202/44/30 204/2/30
f 204/4/1 203/5/1 205/6/1
f 165/4/1 205/5/1 184/6/1
f 206/56/28 184/5/28 205/6/28
f 208/56/28 205/5/28 203/6/28
f 209/56/3 203/5/3 199/6/3
f 212/4/2 201/5/2 23/6/2
f 22/6/2 210/40/2 211/5/2
f 211/6/2 210/4/2 152/5/2
f 273/1/3 211/2/3 152/3/3
f 30/1/3 22/2/3 211/3/3
f 19/4/2 197/5/2 212/6/2
f 213/1/11 214/2/11 216/3/11
f 195/1/11 16/2/11 214/3/11
f 214/1/11 14/2/11 215/3/11
f 216/28/11 215/29/11 217/30/11
f 218/37/11 217/38/11 219/39/11
f 220/1/11 216/2/11 218/3/11
f 74/37/11 219/38/11 221/39/11
f 77/28/11 218/29/11 74/30/11
f 83/1/11 213/2/11 220/3/11
f 82/1/11 220/2/11 77/3/11
f 223/28/11 219/29/11 217/30/11
f 221/1/11 222/2/11 224/3/11
f 222/1/11 227/2/11 225/3/11
f 224/1/11 225/2/11 228/3/11
f 228/1/11 226/2/11 229/3/11
f 225/1/11 241/2/11 226/3/11
f 64/1/11 228/2/11 61/3/11
f 61/1/11 229/2/11 231/3/11
f 231/1/11 230/2/11 232/3/11
f 229/1/11 237/2/11 230/3/11
f 62/1/11 232/2/11 234/3/11
f 233/12/5 234/10/5 232/11/5
f 54/1/11 234/2/11 235/3/11
f 235/10/5 233/11/5 236/12/5
f 238/31/1 237/32/1 226/33/1
f 241/4/32 238/5/32 226/6/32
f 241/31/9 240/57/9 239/33/9
f 241/1/33 248/2/33 240/3/33
f 241/3/5 243/1/5 242/2/5
f 227/1/11 243/2/11 241/3/11
f 242/3/5 3/44/5 247/2/5
f 244/1/11 3/2/11 243/3/11
f 223/1/11 244/2/11 227/3/11
f 245/1/11 246/2/11 244/3/11
f 215/1/11 12/2/11 245/3/11
f 215/28/11 223/29/11 217/30/11
f 242/1/34 251/2/34 248/3/34
f 250/3/5 248/1/5 249/2/5
f 252/1/5 250/2/5 253/3/5
f 252/3/5 240/1/5 248/2/5
f 253/3/5 250/1/5 254/2/5
f 255/13/7 254/14/7 262/15/7
f 256/10/35 255/11/35 257/12/35
f 258/21/6 257/15/6 44/13/6
f 257/22/5 260/23/5 259/24/5
f 44/17/5 259/18/5 40/16/5
f 259/1/3 33/2/3 35/3/3
f 260/1/3 263/2/3 33/3/3
f 260/27/5 262/58/5 261/26/5
f 262/22/5 5/23/5 261/24/5
f 261/1/3 7/2/3 263/3/3
f 263/1/3 9/2/3 28/3/3
f 254/10/36 264/11/36 262/12/36
f 249/3/1 247/1/1 264/2/1
f 254/3/5 250/1/5 249/2/5
f 221/28/11 64/29/11 66/30/11
f 267/1/11 188/2/11 87/3/11
f 268/1/11 186/2/11 267/3/11
f 270/1/11 267/2/11 90/3/11
f 269/1/11 266/2/11 268/3/11
f 104/1/11 268/2/11 270/3/11
f 172/1/2 269/2/2 271/3/2
f 269/1/2 106/2/2 271/3/2
f 272/3/2 271/1/2 106/2/2
f 172/1/2 272/2/2 170/3/2
f 111/1/3 170/2/3 272/3/3
f 276/45/37 155/33/37 125/31/37
f 125/45/17 116/33/17 118/31/17
f 152/48/1 274/49/1 273/47/1
f 31/3/1 273/1/1 275/2/1
f 37/1/22 275/2/22 142/3/22
f 275/48/5 144/49/5 142/47/5
f 138/48/9 148/49/9 277/47/9
f 132/1/8 277/2/8 128/3/8
f 276/4/2 128/5/2 277/6/2
f 130/6/12 80/40/12 71/5/12
f 122/4/13 80/5/13 129/6/13
f 120/4/14 278/5/14 122/6/14
f 1/1/1 2/44/1 6/2/1
f 3/1/1 246/44/1 2/2/1
f 4/1/1 6/44/1 7/2/1
f 2/1/1 11/44/1 8/2/1
f 6/1/1 8/44/1 9/2/1
f 8/1/1 10/44/1 26/2/1
f 11/1/1 13/44/1 10/2/1
f 246/1/1 12/44/1 11/2/1
f 12/1/1 14/44/1 13/2/1
f 14/1/1 16/44/1 15/2/1
f 13/1/1 15/44/1 17/2/1
f 16/1/1 19/44/1 18/2/1
f 15/1/1 18/44/1 20/2/1
f 17/1/1 20/44/1 21/2/1
f 23/4/2 201/40/2 22/5/2
f 25/1/3 24/44/3 21/2/3
f 10/1/1 17/44/1 24/2/1
f 27/1/3 26/44/3 24/2/3
f 28/1/3 9/44/3 26/2/3
f 32/1/3 28/44/3 27/2/3
f 29/1/3 27/44/3 25/2/3
f 31/1/3 29/44/3 30/2/3
f 34/1/3 32/44/3 29/2/3
f 33/1/3 263/44/3 28/2/3
f 35/1/3 33/44/3 32/2/3
f 39/1/3 35/44/3 34/2/3
f 36/1/3 34/44/3 31/2/3
f 38/1/4 36/44/4 37/2/4
f 38/1/4 41/44/4 39/2/4
f 40/1/3 259/44/3 35/2/3
f 43/1/4 40/44/4 39/2/4
f 42/1/3 41/44/3 38/2/3
f 47/1/3 43/44/3 41/2/3
f 45/10/6 258/20/6 44/11/6
f 46/13/7 53/21/7 45/14/7
f 48/1/8 47/44/8 42/2/8
f 48/7/5 51/8/5 46/19/5
f 56/17/9 50/59/9 48/18/9
f 51/12/10 52/10/10 53/20/10
f 58/22/9 54/60/9 50/23/9
f 50/10/9 54/20/9 235/11/9
f 57/8/9 56/19/9 49/9/9
f 59/25/9 58/58/9 56/26/9
f 58/1/11 60/44/11 62/2/11
f 59/1/11 63/44/11 60/2/11
f 63/1/11 64/44/11 61/2/11
f 60/1/11 61/44/11 231/2/11
f 64/28/11 63/61/11 65/29/11
f 68/1/11 65/44/11 63/2/11
f 65/28/11 67/61/11 73/29/11
f 69/34/12 72/62/12 70/35/12
f 72/34/12 130/62/12 71/35/12
f 70/34/12 71/62/12 76/35/12
f 73/37/11 74/63/11 221/38/11
f 73/28/11 75/61/11 77/29/11
f 76/34/12 78/62/12 81/35/12
f 71/6/12 80/4/12 78/40/12
f 278/4/13 79/40/13 78/5/13
f 79/4/13 84/40/13 81/5/13
f 84/4/13 85/40/13 83/5/13
f 88/32/5 86/64/5 84/33/5
f 87/1/11 188/44/11 85/2/11
f 89/1/11 87/44/11 86/2/11
f 93/1/11 90/44/11 89/2/11
f 90/1/11 267/44/11 87/2/11
f 91/4/14 89/40/14 79/5/14
f 94/1/11 270/44/11 90/2/11
f 98/1/11 94/44/11 93/2/11
f 95/4/15 93/40/15 91/5/15
f 100/3/9 98/1/9 96/44/9
f 99/1/11 103/44/11 94/2/11
f 100/1/16 110/44/16 102/2/16
f 104/1/2 103/44/2 105/2/2
f 103/1/11 104/44/11 270/2/11
f 107/1/17 109/44/17 106/2/17
f 105/3/9 102/1/9 110/44/9
f 108/1/17 112/44/17 109/2/17
f 97/1/16 108/44/16 110/2/16
f 109/1/4 111/44/4 272/2/4
f 112/1/4 113/44/4 111/2/4
f 117/1/18 114/44/18 112/2/18
f 114/1/19 115/44/19 113/2/19
f 116/1/19 154/44/19 115/2/19
f 118/1/18 116/44/18 114/2/18
f 121/1/19 118/44/19 117/2/19
f 119/1/19 117/44/19 108/2/19
f 97/3/9 95/1/9 120/44/9
f 119/3/9 120/1/9 122/44/9
f 124/45/20 125/51/20 118/33/20
f 126/45/21 276/51/21 125/33/21
f 127/46/9 131/65/9 132/2/9
f 130/46/9 72/65/9 131/2/9
f 131/1/9 133/44/9 134/2/9
f 72/1/9 69/44/9 133/2/9
f 68/22/9 59/60/9 57/23/9
f 133/17/9 57/59/9 136/18/9
f 134/1/8 135/44/8 138/2/8
f 136/1/8 137/44/8 135/2/8
f 49/1/8 42/44/8 137/2/8
f 137/1/3 38/44/3 140/2/3
f 135/1/22 140/44/22 141/2/22
f 141/3/23 140/1/23 37/44/23
f 142/48/5 144/50/5 143/49/5
f 141/48/5 143/50/5 145/49/5
f 143/1/4 144/44/4 149/2/4
f 145/1/3 143/44/3 146/2/3
f 147/47/2 276/48/2 148/50/2
f 151/47/2 147/48/2 146/50/2
f 144/1/3 274/44/3 150/2/3
f 151/48/2 149/50/2 150/49/2
f 151/45/24 152/51/24 156/33/24
f 147/45/16 151/51/16 153/33/16
f 155/45/4 153/51/4 154/33/4
f 153/45/3 156/51/3 158/33/3
f 156/45/25 157/51/25 159/33/25
f 156/31/26 152/45/26 210/51/26
f 160/3/27 158/1/27 159/44/27
f 154/1/28 158/44/28 160/2/28
f 162/3/27 160/1/27 161/44/27
f 115/1/28 160/44/28 162/2/28
f 113/1/3 162/44/3 163/2/3
f 162/1/25 164/44/25 166/2/25
f 164/1/29 165/44/29 167/2/29
f 164/3/30 161/1/30 204/44/30
f 166/4/5 167/40/5 180/5/5
f 169/1/9 166/44/9 168/2/9
f 163/1/25 166/44/25 169/2/25
f 173/1/2 174/44/2 172/2/2
f 176/1/2 173/44/2 171/2/2
f 174/1/11 173/44/11 175/2/11
f 173/1/11 176/44/11 177/2/11
f 177/4/1 176/40/1 178/5/1
f 180/3/1 167/1/1 178/44/1
f 175/1/11 177/44/11 181/2/11
f 181/4/1 177/40/1 167/5/1
f 185/1/11 181/44/11 182/2/11
f 181/1/11 183/44/11 265/2/11
f 183/4/2 181/40/2 184/52/2
f 266/1/11 175/44/11 185/2/11
f 186/1/11 185/44/11 187/2/11
f 187/1/11 182/44/11 191/2/11
f 188/1/11 187/44/11 189/2/11
f 85/1/11 189/44/11 190/2/11
f 189/1/11 191/44/11 193/2/11
f 182/1/11 265/44/11 192/2/11
f 191/1/11 192/44/11 194/2/11
f 193/45/5 194/51/5 198/33/5
f 195/4/1 193/40/1 196/5/1
f 190/1/11 193/44/11 195/2/11
f 197/4/1 196/40/1 200/5/1
f 196/45/5 198/51/5 209/54/5
f 157/45/29 200/51/29 202/33/29
f 157/31/31 210/45/31 201/51/31
f 202/4/1 200/40/1 199/5/1
f 161/3/30 159/1/30 202/44/30
f 204/4/1 202/40/1 203/5/1
f 165/4/1 204/40/1 205/5/1
f 206/56/28 207/66/28 184/5/28
f 208/56/28 206/66/28 205/5/28
f 209/56/3 208/66/3 203/5/3
f 212/4/2 197/40/2 201/5/2
f 22/6/2 201/4/2 210/40/2
f 273/1/3 30/44/3 211/2/3
f 30/1/3 25/44/3 22/2/3
f 19/4/2 195/40/2 197/5/2
f 213/1/11 195/44/11 214/2/11
f 195/1/11 19/44/11 16/2/11
f 214/1/11 16/44/11 14/2/11
f 216/28/11 214/61/11 215/29/11
f 218/37/11 216/63/11 217/38/11
f 220/1/11 213/44/11 216/2/11
f 74/37/11 218/63/11 219/38/11
f 77/28/11 220/61/11 218/29/11
f 83/1/11 190/44/11 213/2/11
f 82/1/11 83/44/11 220/2/11
f 223/28/11 222/61/11 219/29/11
f 221/1/11 219/44/11 222/2/11
f 222/1/11 223/44/11 227/2/11
f 224/1/11 222/44/11 225/2/11
f 228/1/11 225/44/11 226/2/11
f 225/1/11 227/44/11 241/2/11
f 64/1/11 224/44/11 228/2/11
f 61/1/11 228/44/11 229/2/11
f 231/1/11 229/44/11 230/2/11
f 229/1/11 226/44/11 237/2/11
f 62/1/11 231/44/11 232/2/11
f 54/1/11 62/44/11 234/2/11
f 235/10/5 234/20/5 233/11/5
f 241/4/32 239/40/32 238/5/32
f 241/1/33 242/44/33 248/2/33
f 227/1/11 244/44/11 243/2/11
f 242/3/5 243/1/5 3/44/5
f 244/1/11 246/44/11 3/2/11
f 223/1/11 245/44/11 244/2/11
f 245/1/11 12/44/11 246/2/11
f 215/1/11 14/44/11 12/2/11
f 215/28/11 245/61/11 223/29/11
f 242/1/34 247/44/34 251/2/34
f 252/1/5 248/44/5 250/2/5
f 255/13/7 253/21/7 254/14/7
f 256/10/35 253/20/35 255/11/35
f 258/21/6 256/14/6 257/15/6
f 257/22/5 255/60/5 260/23/5
f 44/17/5 257/59/5 259/18/5
f 259/1/3 260/44/3 33/2/3
f 260/1/3 261/44/3 263/2/3
f 260/27/5 255/25/5 262/58/5
f 262/22/5 264/60/5 5/23/5
f 261/1/3 5/44/3 7/2/3
f 263/1/3 7/44/3 9/2/3
f 254/10/36 249/20/36 264/11/36
f 221/28/11 224/61/11 64/29/11
f 267/1/11 186/44/11 188/2/11
f 268/1/11 266/44/11 186/2/11
f 270/1/11 268/44/11 267/2/11
f 269/1/11 174/44/11 266/2/11
f 104/1/11 269/44/11 268/2/11
f 172/1/2 174/44/2 269/2/2
f 269/1/2 104/44/2 106/2/2
f 172/1/2 271/44/2 272/2/2
f 111/1/3 163/44/3 170/2/3
f 276/45/37 147/51/37 155/33/37
f 125/45/17 155/51/17 116/33/17
f 152/48/1 150/50/1 274/49/1
f 37/1/22 31/44/22 275/2/22
f 275/48/5 274/50/5 144/49/5
f 138/48/9 145/50/9 148/49/9
f 132/1/8 138/44/8 277/2/8
f 276/4/2 126/40/2 128/5/2
f 130/6/12 129/4/12 80/40/12
f 122/4/13 278/40/13 80/5/13
f 120/4/14 91/40/14 278/5/14
