# Blender 5.1.2
# www.blender.org
mtllib room33.mtl
o 01-Caves.033
v -10.043159 10.924628 10.087347
v -10.043159 10.924629 20.087349
v -0.043122 10.924628 10.087347
v -10.043159 0.924633 10.087348
v -0.043122 0.924633 10.087348
v -10.043159 -9.075367 10.087349
v -0.043122 -9.075367 10.087349
v -10.043159 -9.075366 20.087349
v -10.043159 -1.575369 10.087348
v -10.043159 -1.575369 20.087349
v -10.043159 -1.575368 30.087387
v -10.043159 -9.075366 30.087387
v -0.043122 -9.075366 30.087387
v -10.043159 0.924634 30.087387
v -10.043159 10.924629 30.087387
v -0.043122 0.924634 30.087387
v -0.043122 10.924629 30.087387
v -0.043122 0.924635 40.087349
v -0.043122 -9.075365 40.087349
v -0.043122 10.924630 40.087349
v -10.043159 0.924635 40.087349
v -10.043159 -9.075365 40.087349
v -10.043159 10.924630 40.087349
v -10.043159 10.924631 50.087349
v -0.043122 10.924631 50.087349
v -10.043159 -9.075364 50.087349
v -10.043159 -9.075363 60.087349
v -0.043122 10.924632 60.087349
v -10.043159 10.924632 60.087349
v -10.043159 10.924633 70.087349
v -0.043122 10.924633 70.087349
v -10.043159 -9.075362 70.087349
v -10.043159 -9.075362 80.087349
v -0.043122 10.924633 80.087349
v -10.043159 10.924633 80.087349
v -10.043159 10.924634 90.087349
v -0.043122 10.924634 90.087349
v -10.043159 -9.075361 90.087349
v -10.043159 -9.075360 100.087349
v -0.043122 10.924635 100.087349
v -10.043159 10.924635 100.087349
v -10.043159 10.924636 110.087349
v -0.043122 10.924636 110.087349
v -10.043159 -9.075359 110.087349
v -10.043159 -9.075358 120.087349
v -0.043122 10.924637 120.087349
v -10.043159 10.924637 120.087349
v -10.043159 10.924637 130.087265
v -0.043122 10.924637 130.087265
v -10.043159 -9.075358 130.087265
v -10.043159 -9.075357 140.087341
v -10.043159 3.424645 140.087341
v -0.043122 10.924638 140.087341
v -0.043122 13.424644 140.087341
v -0.043122 13.424643 130.087265
v -0.043122 13.424644 150.087341
v -10.043159 8.424644 150.087341
v -0.043122 13.424645 160.087265
v -10.043159 3.424646 150.087341
v -10.043159 13.424645 160.087265
v -10.043159 8.424644 160.087265
v -0.043122 13.424645 170.087341
v -10.043159 13.424645 170.087341
v -0.043122 13.424646 180.087341
v -0.043122 3.424648 180.087341
v -0.043122 0.924646 180.087341
v 9.956879 13.424646 180.087341
v -10.043159 13.424646 180.087341
v -10.043159 3.424648 180.087341
v -10.043159 0.924646 180.087341
v -10.043159 0.924645 170.087341
v -0.043122 0.924645 170.087341
v -10.043159 -1.575358 160.087265
v -10.043159 -1.575359 150.087341
v -0.043122 -1.575358 160.087265
v -10.043159 -6.575356 150.087341
v -10.043159 -9.075356 150.087341
v -0.043122 -6.575356 150.087341
v -0.043122 -9.075356 150.087341
v 9.956879 -6.575356 150.087341
v 9.956879 -9.075356 150.087341
v 9.956879 -1.575358 160.087265
v 19.956879 -11.575356 150.087341
v 19.956879 -6.575356 160.087265
v 19.956879 -14.075356 150.087341
v 19.956879 -14.075356 140.087341
v 29.956879 -14.075356 150.087341
v 19.956879 -14.075355 160.087265
v 29.956879 -14.075355 160.087265
v 19.956879 -9.075356 160.087265
v 29.956879 -9.075356 160.087265
v 19.956879 -9.075356 170.087341
v 19.956879 3.424648 170.087341
v 29.956879 -9.075356 170.087341
v 19.956879 -4.075353 170.087341
v 9.956879 3.424648 170.087341
v 9.956879 13.424645 170.087341
v 9.956879 0.924644 160.087265
v 9.956879 5.924645 170.087341
v 9.956879 5.924646 180.087341
v 19.956879 13.424645 170.087341
v 19.956879 13.424646 180.087341
v 29.956879 13.424646 180.087341
v 29.956879 3.424648 170.087341
v 39.956879 13.424646 180.087341
v 39.956879 3.424648 170.087341
v 39.956879 13.424645 170.087341
v 49.956879 13.424645 170.087341
v 59.956879 13.424645 170.087341
v 49.956879 13.424646 180.087341
v 49.956879 3.424648 170.087341
v 49.956879 -4.075353 170.087341
v 49.956879 -4.075353 170.087341
v 49.956879 3.424648 180.087341
v 49.956879 -1.575356 180.087341
v 59.956879 3.424648 180.087341
v 59.956879 -6.575354 180.087341
v 59.956879 13.424646 180.087341
v 59.956879 10.924641 180.087341
v 69.956879 -9.075355 180.087341
v 59.956879 -9.075355 180.087341
v 69.956879 -9.075355 180.087341
v 59.956879 10.924640 170.087341
v 69.956879 -9.075356 170.087341
v 59.956879 10.924640 160.087265
v 59.956879 13.424645 160.087265
v 59.956879 10.924639 150.087341
v 69.956879 -9.075356 160.087265
v 69.956879 -9.075356 150.087341
v 69.956879 10.924639 150.087341
v 69.956879 10.924638 140.087341
v 59.956879 10.924638 140.087341
v 69.956879 -9.075357 140.087341
v 69.956879 -9.075358 130.087265
v 59.956879 10.924637 130.087265
v 69.956879 10.924637 130.087265
v 69.956879 10.924637 120.087349
v 59.956879 10.924637 120.087349
v 69.956879 -9.075358 120.087349
v 69.956879 -9.075359 110.087349
v 59.956879 10.924636 110.087349
v 69.956879 10.924636 110.087349
v 69.956879 10.924635 100.087349
v 59.956879 10.924635 100.087349
v 69.956879 -9.075360 100.087349
v 69.956879 -9.075361 90.087349
v 59.956879 10.924634 90.087349
v 69.956879 10.924634 90.087349
v 69.956879 10.924633 80.087349
v 59.956879 10.924633 80.087349
v 69.956879 -9.075362 80.087349
v 69.956879 -9.075362 70.087349
v 59.956879 10.924633 70.087349
v 69.956879 10.924633 70.087349
v 69.956879 10.924632 60.087349
v 59.956879 10.924632 60.087349
v 69.956879 -9.075363 60.087349
v 69.956879 -9.075364 50.087349
v 59.956879 10.924631 50.087349
v 69.956879 10.924631 50.087349
v 69.956879 10.924630 40.087349
v 69.956879 0.924635 40.087349
v 59.956879 10.924630 40.087349
v 59.956879 0.924635 40.087349
v 59.956879 13.424636 40.087349
v 59.956879 13.424635 30.087385
v 59.956879 13.424637 50.087349
v 59.956879 13.424638 60.087349
v 59.956879 13.424639 70.087349
v 59.956879 13.424639 80.087349
v 59.956879 13.424640 90.087349
v 59.956879 13.424641 100.087349
v 59.956879 13.424642 110.087349
v 59.956879 13.424643 120.087349
v 59.956879 13.424643 130.087265
v 59.956879 13.424644 140.087341
v 59.956879 13.424644 150.087341
v 59.956879 0.924634 30.087387
v 49.956879 13.424635 30.087385
v 59.956879 10.924629 30.087387
v 49.956879 10.924629 30.087387
v 59.956879 10.924629 20.087349
v 69.956879 10.924629 30.087387
v 69.956879 0.924634 30.087387
v 69.956879 10.924629 20.087349
v 69.956879 10.924628 10.087347
v 59.956879 10.924628 10.087347
v 69.956879 0.924633 10.087348
v 69.956879 -9.075367 10.087349
v 59.956879 0.924633 10.087348
v 59.956879 -9.075367 10.087349
v 49.956879 0.924633 10.087348
v 39.956879 0.924633 10.087348
v 49.956879 -9.075367 10.087349
v 49.956879 10.924628 10.087347
v 39.956879 10.924628 10.087347
v 49.956879 10.924629 20.087349
v 39.956879 10.924629 20.087349
v 49.956879 13.424635 20.087347
v 39.956879 13.424635 20.087347
v 39.956879 13.424634 10.087347
v 29.956879 13.424634 10.087347
v 39.956879 0.924633 10.087348
v 29.956879 0.924633 10.087348
v 39.956879 -9.075367 10.087349
v 39.956879 -16.575367 10.087349
v 29.956879 -9.075367 10.087349
v 19.956879 -9.075367 10.087349
v 29.956879 -16.575367 10.087349
v 29.956879 -16.575365 20.087351
v 19.956879 -16.575367 10.087349
v 19.956879 -16.575365 20.087351
v 19.956879 -16.575365 30.087389
v 19.956879 -9.075366 20.087349
v 9.956879 -9.075366 20.087349
v 19.956879 -9.075366 30.087387
v 9.956879 -9.075366 30.087387
v 19.956879 -9.075365 40.087349
v 29.956879 -9.075366 30.087387
v 29.956879 -9.075365 40.087349
v 39.956879 -9.075366 30.087387
v 29.956879 -16.575365 30.087389
v 39.956879 -16.575365 30.087389
v 39.956879 -16.575365 20.087351
v 39.956879 -9.075366 20.087349
v 39.956879 -9.075367 10.087349
v 49.956879 -9.075366 20.087349
v 49.956879 -9.075366 30.087387
v 59.956879 -9.075366 20.087349
v 69.956879 -9.075366 20.087349
v 59.956879 -9.075366 30.087387
v 69.956879 -9.075366 30.087387
v 59.956879 -9.075365 40.087349
v 59.956879 -9.075364 50.087349
v 69.956879 -9.075365 40.087349
v 49.956879 -9.075365 40.087349
v 39.956879 -9.075365 40.087349
v 49.956879 -9.075364 50.087349
v 39.956879 -9.075364 50.087349
v 49.956879 -6.575364 50.087349
v 49.956879 -6.575363 60.087349
v 39.956879 -14.075363 50.087349
v 39.956879 -14.075362 60.087349
v 29.956879 -14.075363 50.087349
v 19.956879 -14.075363 50.087349
v 29.956879 -9.075364 50.087349
v 29.956879 -14.075362 60.087349
v 29.956879 -14.075361 70.087349
v 19.956879 -14.075362 60.087349
v 9.956879 -9.075363 60.087349
v 19.956879 -14.075361 70.087349
v 9.956879 -9.075362 70.087349
v 19.956879 -14.075361 80.087349
v 19.956879 -14.075360 90.087349
v 29.956879 -14.075361 80.087349
v 9.956879 -9.075362 80.087349
v -0.043122 -9.075362 80.087349
v 9.956879 -9.075361 90.087349
v 9.956879 -9.075360 100.087349
v -0.043122 -9.075361 90.087349
v -10.043159 -9.075361 90.087349
v -0.043122 -9.075360 100.087349
v -10.043159 -9.075360 100.087349
v -0.043122 -9.075359 110.087349
v -10.043159 -9.075359 110.087349
v -0.043122 -9.075358 120.087349
v 9.956879 -9.075359 110.087349
v 9.956879 -9.075358 120.087349
v 19.956879 -14.075358 110.087349
v 19.956879 -14.075359 100.087349
v 19.956879 -14.075357 120.087349
v 29.956879 -14.075358 110.087349
v 29.956879 -14.075359 100.087349
v 29.956879 -14.075357 120.087349
v 39.956879 -14.075358 110.087349
v 39.956879 -14.075359 100.087349
v 39.956879 -14.075357 120.087349
v 49.956879 -6.575360 110.087349
v 49.956879 -6.575359 120.087349
v 59.956879 -9.075359 110.087349
v 49.956879 -6.575360 100.087349
v 49.956879 -1.575363 90.087349
v 59.956879 -9.075360 100.087349
v 59.956879 -4.075359 90.087349
v 59.956879 -9.075361 90.087349
v 69.956879 -9.075360 100.087349
v 69.956879 -9.075361 90.087349
v 69.956879 -9.075359 110.087349
v 69.956879 0.924640 100.087349
v 69.956879 0.924640 110.087349
v 69.956879 -9.075358 120.087349
v 69.956879 -9.075358 130.087265
v 69.956879 0.924641 120.087349
v 59.956879 -9.075358 120.087349
v 59.956879 -9.075358 130.087265
v 59.956879 -9.075357 140.087341
v 49.956879 -6.575358 130.087265
v 39.956879 -14.075357 130.087265
v 49.956879 -6.575357 140.087341
v 39.956879 -14.075356 140.087341
v 49.956879 -6.575356 150.087341
v 49.956879 -6.575356 160.087265
v 59.956879 -9.075356 150.087341
v 39.956879 -14.075356 150.087341
v 39.956879 -14.075355 160.087265
v 39.956879 -9.075356 160.087265
v 39.956879 -9.075356 170.087341
v 49.956879 -4.075354 160.087265
v 59.956879 -9.075356 160.087265
v 69.956879 -9.075356 150.087341
v 69.956879 -9.075357 140.087341
v 69.956879 -9.075356 160.087265
v 69.956879 0.924644 150.087341
v 69.956879 0.924643 140.087341
v 69.956879 -9.075356 170.087341
v 59.956879 -9.075356 170.087341
v 49.956879 -6.575355 170.087341
v 29.956879 -14.075356 140.087341
v 29.956879 -14.075357 130.087265
v 19.956879 -14.075357 130.087265
v 9.956879 -9.075358 130.087265
v 9.956879 -9.075357 140.087341
v -0.043122 -9.075358 130.087265
v -10.043159 -9.075358 130.087265
v -0.043122 -9.075357 140.087341
v -10.043159 -9.075357 140.087341
v -10.043159 -1.575359 140.087341
v -10.043159 -1.575360 130.087265
v -10.043159 -9.075358 120.087349
v -10.043159 -1.575361 120.087349
v 69.956879 0.924642 130.087265
v 69.956879 0.924639 90.087349
v 69.956879 -9.075362 80.087349
v 59.956879 -9.075362 80.087349
v 69.956879 -9.075362 70.087349
v 69.956879 0.924638 80.087349
v 59.956879 -9.075362 70.087349
v 69.956879 -9.075363 60.087349
v 69.956879 0.924637 70.087349
v 69.956879 0.924637 60.087349
v 59.956879 -9.075363 60.087349
v 69.956879 -9.075364 50.087349
v 69.956879 0.924636 50.087349
v 69.956879 0.924635 40.087349
v 49.956879 -6.575363 70.087349
v 39.956879 -14.075361 70.087349
v 49.956879 -6.575362 80.087349
v 39.956879 -14.075361 80.087349
v 39.956879 -14.075360 90.087349
v 39.956879 -9.075361 90.087349
v 29.956879 -14.075360 90.087349
v -10.043159 -1.575362 110.087349
v -10.043159 -1.575363 100.087349
v -10.043159 -1.575363 90.087349
v -10.043159 -9.075362 80.087349
v -10.043159 -9.075362 70.087349
v -10.043159 -1.575364 80.087349
v -10.043159 -1.575365 70.087349
v -0.043122 -9.075362 70.087349
v -10.043159 -9.075363 60.087349
v -10.043159 -1.575366 60.087349
v -10.043159 -9.075364 50.087349
v -0.043122 -9.075363 60.087349
v -0.043122 -9.075364 50.087349
v 9.956879 -9.075364 50.087349
v 19.956879 -9.075364 50.087349
v 9.956879 -9.075365 40.087349
v -10.043159 -1.575366 50.087349
v -10.043159 -1.575367 40.087349
v 69.956879 0.924634 30.087387
v 69.956879 0.924634 20.087349
v 69.956879 0.924633 10.087348
v -0.043122 -9.075366 20.087349
v 9.956879 -9.075367 10.087349
v 9.956879 0.924633 10.087348
v 9.956879 10.924628 10.087347
v 19.956879 0.924633 10.087348
v 19.956879 10.924628 10.087347
v 19.956879 10.924629 20.087349
v 19.956879 13.424634 10.087347
v 19.956879 13.424635 20.087347
v 19.956879 0.924633 10.087348
v 9.956879 13.424635 20.087347
v 9.956879 10.924629 20.087349
v 9.956879 13.424635 30.087385
v 9.956879 10.924629 30.087387
v -0.043122 13.424635 30.087385
v -0.043122 13.424636 40.087349
v -0.043122 13.424637 50.087349
v -0.043122 13.424638 60.087349
v -0.043122 13.424639 70.087349
v -0.043122 13.424639 80.087349
v -0.043122 13.424640 90.087349
v -0.043122 13.424641 100.087349
v -0.043122 13.424642 110.087349
v -0.043122 13.424643 120.087349
v -0.043122 10.924629 20.087349
v -10.043159 5.924644 160.087265
v -10.043159 5.924644 150.087341
vn -0.0000 -1.0000 -0.0000
vn -0.0000 -0.0000 1.0000
vn -0.0000 1.0000 -0.0000
vn 1.0000 -0.0000 -0.0000
vn -0.0000 -0.0000 -1.0000
vn 0.8944 -0.4472 -0.0000
vn 0.7071 -0.7071 -0.0000
vn 0.4472 -0.8944 -0.0000
vn -0.0000 0.9701 -0.2425
vn -0.0000 0.8944 -0.4472
vn 0.4082 0.8165 -0.4083
vn 0.4472 0.8944 -0.0000
vn 0.5883 0.7845 -0.1961
vn -0.2357 0.9428 -0.2357
vn -1.0000 -0.0000 -0.0000
vn -0.4472 0.8944 -0.0000
vn -0.0000 0.7071 -0.7071
vn -0.8944 -0.4472 -0.0000
vn 0.2425 0.9701 -0.0000
vn -0.6000 0.8000 -0.0000
vn -0.5571 0.7428 0.3714
vn 0.2182 0.8729 0.4364
vn 0.4364 0.8729 -0.2182
vn -0.5571 0.7428 -0.3714
vn 0.2182 0.8729 -0.4364
vt 0.501961 0.878431
vt 0.621569 0.998039
vt 0.501961 0.998039
vt 0.627451 0.001961
vt 0.747059 0.121569
vt 0.627451 0.121569
vt 0.878431 0.127451
vt 0.998039 0.247059
vt 0.878431 0.247059
vt 0.001961 0.501961
vt 0.121569 0.621569
vt 0.001961 0.621569
vt 0.627451 0.127451
vt 0.747059 0.247059
vt 0.627451 0.247059
vt 0.752941 0.941177
vt 0.872549 0.998039
vt 0.752941 0.998039
vt 0.752941 0.878431
vt 0.752941 0.127451
vt 0.872549 0.247059
vt 0.752941 0.247059
vt 0.627451 0.998039
vt 0.627451 0.878431
vt 0.747059 0.998039
vt 0.747059 0.878431
vt 0.252941 0.252941
vt 0.372549 0.278432
vt 0.252941 0.278432
vt 0.627451 0.378431
vt 0.747059 0.498039
vt 0.627451 0.498039
vt 0.627451 0.441177
vt 0.501961 0.378431
vt 0.621569 0.498039
vt 0.501961 0.498039
vt 0.252941 0.627451
vt 0.372549 0.747059
vt 0.252941 0.747059
vt 0.001961 0.627451
vt 0.121569 0.747059
vt 0.001961 0.747059
vt 0.378431 0.747059
vt 0.378431 0.627451
vt 0.498039 0.747059
vt 0.252941 0.721568
vt 0.127451 0.721568
vt 0.247059 0.747059
vt 0.127451 0.747059
vt 0.372549 0.721568
vt 0.372549 0.627451
vt 0.127451 0.501961
vt 0.247059 0.621569
vt 0.127451 0.621569
vt 0.127451 0.627451
vt 0.252941 0.690196
vt 0.121569 0.627451
vt 0.872549 0.215687
vt 0.752941 0.215687
vt 0.878431 0.752941
vt 0.998039 0.872549
vt 0.878431 0.872549
vt 0.872549 0.878431
vt 0.627451 0.627451
vt 0.747059 0.747059
vt 0.627451 0.747059
vt 0.001961 0.378431
vt 0.121569 0.498039
vt 0.001961 0.498039
vt 0.878431 0.501961
vt 0.998039 0.621569
vt 0.878431 0.621569
vt 0.752941 0.001961
vt 0.872549 0.121569
vt 0.752941 0.121569
vt 0.372549 0.372549
vt 0.252941 0.372549
vt 0.252941 0.501961
vt 0.372549 0.621569
vt 0.252941 0.621569
vt 0.127451 0.690196
vt 0.247059 0.684314
vt 0.127451 0.684314
vt 0.001961 0.684314
vt 0.001961 0.658823
vt 0.121569 0.684314
vt 0.501961 0.001961
vt 0.621569 0.121569
vt 0.501961 0.121569
vt 0.621569 0.878431
vt 0.747059 0.001961
vt 0.998039 0.127451
vt 0.121569 0.501961
vt 0.747059 0.127451
vt 0.872549 0.941177
vt 0.872549 0.127451
vt 0.372549 0.252941
vt 0.747059 0.378431
vt 0.621569 0.378431
vt 0.498039 0.627451
vt 0.247059 0.721568
vt 0.247059 0.501961
vt 0.247059 0.627451
vt 0.372549 0.690196
vt 0.998039 0.752941
vt 0.747059 0.627451
vt 0.121569 0.378431
vt 0.998039 0.501961
vt 0.872549 0.001961
vt 0.372549 0.501961
vt 0.247059 0.690196
vt 0.621569 0.001961
vt 0.747059 0.441177
s 0
usemtl Material.001
f 3/1/1 2/2/1 1/3/1
f 3/4/2 4/5/2 5/6/2
f 5/7/2 6/8/2 7/9/2
f 373/10/3 6/11/3 8/12/3
f 9/13/4 8/14/4 6/15/4
f 10/13/4 12/14/4 8/15/4
f 14/16/5 13/17/5 12/18/5
f 373/19/3 12/17/3 13/18/3
f 15/20/5 16/21/5 14/22/5
f 17/20/4 18/21/4 16/22/4
f 13/16/4 18/17/4 19/18/4
f 18/16/2 22/17/2 19/18/2
f 20/20/2 21/21/2 18/22/2
f 20/1/1 24/2/1 23/3/1
f 26/23/5 24/24/5 25/25/5
f 25/1/6 27/2/6 26/3/6
f 28/23/2 29/24/2 27/25/2
f 28/1/1 30/2/1 29/3/1
f 32/23/5 30/24/5 31/25/5
f 31/1/6 33/2/6 32/3/6
f 34/23/2 35/24/2 33/25/2
f 34/1/1 36/2/1 35/3/1
f 38/23/5 36/24/5 37/25/5
f 37/1/6 39/2/6 38/3/6
f 40/23/2 41/24/2 39/25/2
f 40/1/1 42/2/1 41/3/1
f 44/23/5 42/24/5 43/25/5
f 43/1/6 45/2/6 44/3/6
f 46/23/2 47/24/2 45/25/2
f 46/1/1 48/2/1 47/3/1
f 50/23/5 48/24/5 49/25/5
f 49/1/6 51/2/6 50/3/6
f 53/23/2 52/26/2 51/25/2
f 55/27/4 53/28/4 49/29/4
f 56/30/7 52/31/7 54/32/7
f 56/32/2 57/33/2 59/31/2
f 58/34/8 57/35/8 56/36/8
f 58/32/2 60/33/2 61/31/2
f 62/1/1 60/2/1 58/3/1
f 64/1/1 63/2/1 62/3/1
f 68/19/5 65/17/5 69/18/5
f 64/19/5 100/17/5 66/18/5
f 69/19/5 66/17/5 70/18/5
f 72/37/3 70/38/3 66/39/3
f 75/40/9 71/41/9 72/42/9
f 76/43/4 74/44/4 73/45/4
f 78/37/10 73/38/10 75/39/10
f 76/46/5 79/38/5 77/39/5
f 80/44/10 75/45/10 82/43/10
f 78/47/5 81/48/5 79/49/5
f 81/39/5 83/50/5 85/38/5
f 84/39/11 80/51/11 82/38/11
f 88/39/4 83/51/4 84/38/4
f 81/52/12 86/53/12 322/54/12
f 318/19/3 85/17/3 87/18/3
f 88/10/3 87/11/3 85/12/3
f 90/37/5 89/38/5 88/39/5
f 91/55/3 92/48/3 94/49/3
f 84/56/4 92/38/4 90/39/4
f 93/24/5 94/25/5 92/23/5
f 95/42/13 98/57/13 96/41/13
f 96/23/5 93/24/5 95/25/5
f 97/20/5 93/21/5 96/22/5
f 98/55/14 72/48/14 96/49/14
f 72/42/5 99/40/5 96/41/5
f 67/20/15 99/58/15 100/59/15
f 99/44/16 66/45/16 100/43/16
f 75/39/5 98/56/5 82/38/5
f 82/39/5 98/56/5 84/38/5
f 93/22/4 101/20/4 102/21/4
f 102/60/17 104/61/17 93/62/17
f 103/60/17 106/61/17 104/62/17
f 105/22/15 107/20/15 106/21/15
f 107/20/5 111/21/5 106/22/5
f 118/19/1 108/17/1 109/18/1
f 108/20/4 114/21/4 111/22/4
f 106/24/5 112/25/5 307/23/5
f 111/24/4 115/25/4 113/23/4
f 110/19/5 116/17/5 114/18/5
f 115/18/5 116/63/5 117/17/5
f 118/27/15 123/28/15 119/29/15
f 124/1/18 119/2/18 123/3/18
f 121/18/5 119/19/5 122/17/5
f 128/1/18 123/2/18 125/3/18
f 109/27/15 125/28/15 123/29/15
f 126/27/15 127/28/15 125/29/15
f 129/1/18 125/2/18 127/3/18
f 127/23/5 130/24/5 129/25/5
f 131/1/1 127/2/1 132/3/1
f 133/23/2 131/24/2 132/25/2
f 134/1/18 132/2/18 135/3/18
f 135/23/5 136/24/5 134/25/5
f 137/1/1 135/2/1 138/3/1
f 139/23/2 137/24/2 138/25/2
f 140/1/18 138/2/18 141/3/18
f 141/23/5 142/24/5 140/25/5
f 143/1/1 141/2/1 144/3/1
f 145/23/2 143/24/2 144/25/2
f 146/1/18 144/2/18 147/3/18
f 147/23/5 148/24/5 146/25/5
f 149/1/1 147/2/1 150/3/1
f 151/23/2 149/24/2 150/25/2
f 152/1/18 150/2/18 153/3/18
f 153/23/5 154/24/5 152/25/5
f 155/1/1 153/2/1 156/3/1
f 157/23/2 155/24/2 156/25/2
f 158/1/18 156/2/18 159/3/18
f 159/23/5 160/24/5 158/25/5
f 161/1/1 159/2/1 163/3/1
f 161/20/2 164/21/2 162/22/2
f 167/27/15 163/28/15 159/29/15
f 165/20/15 178/21/15 164/22/15
f 168/27/15 159/28/15 156/29/15
f 169/27/15 156/28/15 153/29/15
f 170/27/15 153/28/15 150/29/15
f 171/27/15 150/28/15 147/29/15
f 172/27/15 147/28/15 144/29/15
f 173/27/15 144/28/15 141/29/15
f 174/27/15 141/28/15 138/29/15
f 175/27/15 138/28/15 135/29/15
f 176/27/15 135/28/15 132/29/15
f 177/27/15 132/28/15 127/29/15
f 166/27/2 181/28/2 180/29/2
f 181/64/1 182/65/1 180/66/1
f 185/1/1 180/2/1 182/3/1
f 180/20/5 184/21/5 178/22/5
f 186/1/1 182/2/1 187/3/1
f 186/67/2 190/68/2 188/69/2
f 188/70/2 191/71/2 189/72/2
f 187/20/2 192/21/2 190/22/2
f 190/19/2 194/17/2 191/18/2
f 195/73/2 193/74/2 192/75/2
f 192/19/2 226/17/2 194/18/2
f 195/1/1 198/2/1 196/3/1
f 197/64/1 187/65/1 182/66/1
f 199/27/2 198/28/2 197/29/2
f 179/27/15 197/28/15 181/29/15
f 200/27/15 196/28/15 198/29/15
f 201/19/2 204/17/2 203/18/2
f 203/19/2 207/17/2 205/18/2
f 205/27/2 209/76/2 206/77/2
f 207/27/2 211/76/2 209/77/2
f 204/19/2 208/17/2 207/18/2
f 206/78/3 210/79/3 224/80/3
f 209/78/3 212/79/3 210/80/3
f 208/27/4 212/76/4 211/77/4
f 210/78/3 213/79/3 222/80/3
f 214/27/4 213/76/4 212/77/4
f 214/16/3 217/17/3 216/18/3
f 208/37/3 215/38/3 214/39/3
f 218/16/3 217/17/3 367/18/3
f 220/16/3 216/17/3 218/18/3
f 216/27/5 222/76/5 213/77/5
f 237/16/3 219/17/3 220/18/3
f 219/27/5 223/76/5 222/77/5
f 224/78/3 222/79/3 223/80/3
f 221/27/15 224/76/15 223/77/15
f 225/27/15 206/76/15 224/77/15
f 225/55/3 194/48/3 226/49/3
f 227/10/3 221/11/3 228/12/3
f 191/10/3 227/11/3 229/12/3
f 229/19/3 228/17/3 231/18/3
f 230/10/3 231/11/3 232/12/3
f 229/52/3 189/53/3 191/54/3
f 231/16/3 236/17/3 233/18/3
f 178/16/5 232/17/5 231/18/5
f 164/16/15 231/17/15 233/18/15
f 235/19/3 234/17/3 342/18/3
f 238/52/3 233/53/3 236/54/3
f 162/16/2 233/17/2 235/18/2
f 236/16/3 221/17/3 237/18/3
f 239/10/3 236/11/3 237/12/3
f 238/49/5 240/81/5 234/48/5
f 234/37/19 241/38/19 341/39/19
f 240/37/20 243/38/20 241/39/20
f 239/81/2 244/48/2 242/49/2
f 242/19/3 247/17/3 243/18/3
f 244/19/3 249/17/3 247/18/3
f 246/55/2 245/82/2 244/83/2
f 243/19/3 248/17/3 346/18/3
f 247/19/3 251/17/3 248/18/3
f 245/16/12 250/17/12 249/18/12
f 249/19/12 252/17/12 251/18/12
f 251/19/12 256/17/12 253/18/12
f 248/19/3 253/17/3 255/18/3
f 255/19/3 254/17/3 351/18/3
f 253/19/12 258/17/12 254/18/12
f 256/19/3 260/17/3 258/18/3
f 252/19/3 257/17/3 256/18/3
f 254/19/12 259/17/12 270/18/12
f 258/19/3 262/17/3 259/18/3
f 260/19/3 263/17/3 262/18/3
f 257/19/3 261/17/3 260/18/3
f 262/19/3 265/17/3 264/18/3
f 259/19/3 264/17/3 267/18/3
f 264/19/3 329/17/3 266/18/3
f 267/19/3 266/17/3 268/18/3
f 269/19/12 268/17/12 271/18/12
f 270/19/12 267/17/12 269/18/12
f 273/19/3 269/17/3 272/18/3
f 272/19/3 271/17/3 274/18/3
f 276/19/3 272/17/3 275/18/3
f 275/19/3 274/17/3 277/18/3
f 281/19/20 275/17/20 278/18/20
f 278/19/20 277/17/20 279/18/20
f 280/19/19 279/17/19 294/18/19
f 283/19/19 278/17/19 280/18/19
f 281/39/21 350/51/21 276/38/21
f 284/44/22 281/45/22 283/43/22
f 285/43/4 284/44/4 283/45/4
f 287/19/3 283/17/3 286/18/3
f 286/19/3 280/17/3 288/18/3
f 290/19/15 286/17/15 288/18/15
f 288/19/3 294/17/3 291/18/3
f 331/19/15 291/17/15 292/18/15
f 291/19/3 295/17/3 292/18/3
f 294/19/19 297/17/19 295/18/19
f 292/19/3 296/17/3 311/18/3
f 297/10/19 296/11/19 295/12/19
f 279/19/20 298/17/20 297/18/20
f 299/52/20 298/53/20 300/54/20
f 301/10/20 300/11/20 304/12/20
f 299/52/19 303/53/19 296/54/19
f 303/37/19 302/38/19 309/39/19
f 305/10/20 301/11/20 304/12/20
f 300/19/3 87/17/3 304/18/3
f 89/52/3 304/53/3 87/54/3
f 306/37/5 302/38/5 305/39/5
f 91/44/5 305/45/5 89/43/5
f 306/40/3 94/41/3 307/42/3
f 308/55/16 307/48/16 112/49/16
f 308/56/4 317/38/4 302/39/4
f 104/24/5 307/25/5 94/23/5
f 310/19/3 309/17/3 312/18/3
f 311/19/3 303/17/3 310/18/3
f 313/19/15 311/17/15 310/18/15
f 312/19/3 316/17/3 315/18/3
f 315/44/3 121/45/3 122/43/3
f 317/39/5 113/56/5 316/38/5
f 309/40/19 317/41/19 316/42/19
f 121/84/4 316/85/4 117/86/4
f 117/39/23 113/51/23 115/38/23
f 298/19/3 318/17/3 300/18/3
f 319/19/3 86/17/3 318/18/3
f 274/19/3 320/17/3 319/18/3
f 277/19/3 319/17/3 298/18/3
f 320/19/12 322/17/12 86/18/12
f 271/19/12 321/17/12 320/18/12
f 321/19/3 325/17/3 322/18/3
f 268/19/3 323/17/3 321/18/3
f 323/19/3 326/17/3 325/18/3
f 266/19/3 324/17/3 323/18/3
f 325/19/3 77/17/3 79/18/3
f 79/10/3 322/11/3 325/12/3
f 327/19/4 77/17/4 326/18/4
f 330/19/4 324/17/4 329/18/4
f 332/19/15 333/17/15 287/18/15
f 333/19/3 285/17/3 287/18/3
f 335/19/3 334/17/3 333/18/3
f 338/19/3 337/17/3 335/18/3
f 339/19/15 338/17/15 335/18/15
f 342/19/3 341/17/3 338/18/3
f 343/19/15 235/17/15 342/18/15
f 341/44/19 345/45/19 337/43/19
f 337/10/19 347/11/19 334/12/19
f 241/44/20 346/45/20 345/43/20
f 345/52/20 348/53/20 347/54/20
f 347/44/24 350/45/24 282/43/24
f 284/39/25 347/51/25 282/38/25
f 349/39/15 350/56/15 348/38/15
f 349/52/3 255/53/3 351/54/3
f 346/19/3 255/17/3 348/18/3
f 276/39/15 350/56/15 349/38/15
f 276/10/3 351/11/3 273/12/3
f 351/19/3 270/17/3 273/18/3
f 334/39/4 284/37/4 285/38/4
f 353/19/4 265/17/4 263/18/4
f 357/19/4 261/17/4 355/18/4
f 359/19/3 355/17/3 257/18/3
f 361/19/4 356/17/4 360/18/4
f 363/19/3 356/17/3 359/18/3
f 364/19/3 360/17/3 363/18/3
f 365/19/3 363/17/3 250/18/3
f 250/19/3 359/17/3 252/18/3
f 19/19/3 362/17/3 364/18/3
f 367/19/3 364/17/3 365/18/3
f 245/83/2 366/55/2 365/82/2
f 218/19/3 365/17/3 366/18/3
f 217/19/3 19/17/3 367/18/3
f 220/19/3 366/17/3 246/18/3
f 369/19/4 362/17/4 22/18/4
f 237/19/3 246/17/3 239/18/3
f 370/13/15 230/14/15 232/15/15
f 371/13/15 189/14/15 230/15/15
f 215/52/3 13/53/3 217/54/3
f 374/44/3 373/45/3 215/43/3
f 375/19/2 7/17/2 374/18/2
f 377/19/2 374/17/2 208/18/2
f 378/87/2 375/88/2 377/89/2
f 376/20/2 5/21/2 375/22/2
f 378/64/1 384/65/1 376/66/1
f 380/27/4 379/28/4 378/29/4
f 202/19/2 382/17/2 204/18/2
f 381/27/2 384/28/2 379/29/2
f 383/27/4 386/28/4 384/29/4
f 17/27/2 385/28/2 387/29/2
f 387/27/4 20/28/4 17/29/4
f 388/27/4 25/28/4 20/29/4
f 389/27/4 28/28/4 25/29/4
f 390/27/4 31/28/4 28/29/4
f 391/27/4 34/28/4 31/29/4
f 392/27/4 37/28/4 34/29/4
f 393/27/4 40/28/4 37/29/4
f 394/27/4 43/28/4 40/29/4
f 395/27/4 46/28/4 43/29/4
f 396/27/4 49/28/4 46/29/4
f 384/64/1 17/65/1 397/66/1
f 376/1/1 397/2/1 3/3/1
f 397/1/1 15/2/1 2/3/1
f 57/33/4 398/31/4 399/32/4
f 3/1/1 397/90/1 2/2/1
f 3/4/2 1/91/2 4/5/2
f 5/7/2 4/92/2 6/8/2
f 373/10/3 7/93/3 6/11/3
f 9/13/4 10/94/4 8/14/4
f 10/13/4 11/94/4 12/14/4
f 14/16/5 16/95/5 13/17/5
f 373/19/3 8/63/3 12/17/3
f 15/20/5 17/96/5 16/21/5
f 17/20/4 20/96/4 18/21/4
f 13/16/4 16/95/4 18/17/4
f 18/16/2 21/95/2 22/17/2
f 20/20/2 23/96/2 21/21/2
f 20/1/1 25/90/1 24/2/1
f 25/1/6 28/90/6 27/2/6
f 28/1/1 31/90/1 30/2/1
f 31/1/6 34/90/6 33/2/6
f 34/1/1 37/90/1 36/2/1
f 37/1/6 40/90/6 39/2/6
f 40/1/1 43/90/1 42/2/1
f 43/1/6 46/90/6 45/2/6
f 46/1/1 49/90/1 48/2/1
f 49/1/6 53/90/6 51/2/6
f 53/23/2 54/24/2 52/26/2
f 55/27/4 54/97/4 53/28/4
f 56/30/7 59/98/7 52/31/7
f 58/34/8 61/99/8 57/35/8
f 62/1/1 63/90/1 60/2/1
f 64/1/1 68/90/1 63/2/1
f 68/19/5 64/63/5 65/17/5
f 64/19/5 67/63/5 100/17/5
f 69/19/5 65/63/5 66/17/5
f 72/37/3 71/51/3 70/38/3
f 75/40/9 73/57/9 71/41/9
f 78/37/10 76/51/10 73/38/10
f 76/46/5 78/50/5 79/38/5
f 80/44/10 78/100/10 75/45/10
f 78/47/5 80/101/5 81/48/5
f 81/39/5 80/46/5 83/50/5
f 84/39/11 83/37/11 80/51/11
f 88/39/4 85/37/4 83/51/4
f 81/52/12 85/102/12 86/53/12
f 318/19/3 86/63/3 85/17/3
f 88/10/3 89/93/3 87/11/3
f 90/37/5 91/51/5 89/38/5
f 91/55/3 90/103/3 92/48/3
f 84/56/4 95/104/4 92/38/4
f 93/24/5 104/26/5 94/25/5
f 95/42/13 84/40/13 98/57/13
f 97/20/5 101/96/5 93/21/5
f 98/55/14 75/103/14 72/48/14
f 67/20/15 97/96/15 99/58/15
f 99/44/16 72/100/16 66/45/16
f 102/60/17 103/105/17 104/61/17
f 103/60/17 105/105/17 106/61/17
f 107/20/5 108/96/5 111/21/5
f 118/19/1 110/63/1 108/17/1
f 108/20/4 110/96/4 114/21/4
f 106/24/5 111/26/5 112/25/5
f 111/24/4 114/26/4 115/25/4
f 110/19/5 118/63/5 116/17/5
f 115/18/5 114/19/5 116/63/5
f 118/27/15 109/97/15 123/28/15
f 124/1/18 120/90/18 119/2/18
f 128/1/18 124/90/18 123/2/18
f 109/27/15 126/97/15 125/28/15
f 126/27/15 177/97/15 127/28/15
f 129/1/18 128/90/18 125/2/18
f 131/1/1 130/90/1 127/2/1
f 134/1/18 133/90/18 132/2/18
f 137/1/1 136/90/1 135/2/1
f 140/1/18 139/90/18 138/2/18
f 143/1/1 142/90/1 141/2/1
f 146/1/18 145/90/18 144/2/18
f 149/1/1 148/90/1 147/2/1
f 152/1/18 151/90/18 150/2/18
f 155/1/1 154/90/1 153/2/1
f 158/1/18 157/90/18 156/2/18
f 161/1/1 160/90/1 159/2/1
f 161/20/2 163/96/2 164/21/2
f 167/27/15 165/97/15 163/28/15
f 165/20/15 166/96/15 178/21/15
f 168/27/15 167/97/15 159/28/15
f 169/27/15 168/97/15 156/28/15
f 170/27/15 169/97/15 153/28/15
f 171/27/15 170/97/15 150/28/15
f 172/27/15 171/97/15 147/28/15
f 173/27/15 172/97/15 144/28/15
f 174/27/15 173/97/15 141/28/15
f 175/27/15 174/97/15 138/28/15
f 176/27/15 175/97/15 135/28/15
f 177/27/15 176/97/15 132/28/15
f 166/27/2 179/97/2 181/28/2
f 181/64/1 197/106/1 182/65/1
f 185/1/1 183/90/1 180/2/1
f 180/20/5 183/96/5 184/21/5
f 186/1/1 185/90/1 182/2/1
f 186/67/2 187/107/2 190/68/2
f 188/70/2 190/108/2 191/71/2
f 187/20/2 195/96/2 192/21/2
f 190/19/2 192/63/2 194/17/2
f 195/73/2 196/109/2 193/74/2
f 192/19/2 193/63/2 226/17/2
f 195/1/1 197/90/1 198/2/1
f 197/64/1 195/106/1 187/65/1
f 199/27/2 200/97/2 198/28/2
f 179/27/15 199/97/15 197/28/15
f 200/27/15 201/97/15 196/28/15
f 201/19/2 202/63/2 204/17/2
f 203/19/2 204/63/2 207/17/2
f 205/27/2 207/97/2 209/76/2
f 207/27/2 208/97/2 211/76/2
f 204/19/2 382/63/2 208/17/2
f 206/78/3 209/110/3 210/79/3
f 209/78/3 211/110/3 212/79/3
f 208/27/4 214/97/4 212/76/4
f 210/78/3 212/110/3 213/79/3
f 214/27/4 216/97/4 213/76/4
f 214/16/3 215/95/3 217/17/3
f 208/37/3 374/51/3 215/38/3
f 218/16/3 216/95/3 217/17/3
f 220/16/3 219/95/3 216/17/3
f 216/27/5 219/97/5 222/76/5
f 237/16/3 221/95/3 219/17/3
f 219/27/5 221/97/5 223/76/5
f 224/78/3 210/110/3 222/79/3
f 221/27/15 225/97/15 224/76/15
f 225/27/15 226/97/15 206/76/15
f 225/55/3 227/103/3 194/48/3
f 227/10/3 225/93/3 221/11/3
f 191/10/3 194/93/3 227/11/3
f 229/19/3 227/63/3 228/17/3
f 230/10/3 229/93/3 231/11/3
f 229/52/3 230/102/3 189/53/3
f 231/16/3 228/95/3 236/17/3
f 178/16/5 184/95/5 232/17/5
f 164/16/15 178/95/15 231/17/15
f 235/19/3 233/63/3 234/17/3
f 238/52/3 234/102/3 233/53/3
f 162/16/2 164/95/2 233/17/2
f 236/16/3 228/95/3 221/17/3
f 239/10/3 238/93/3 236/11/3
f 234/37/19 240/51/19 241/38/19
f 240/37/20 242/51/20 243/38/20
f 239/81/2 246/111/2 244/48/2
f 242/19/3 244/63/3 247/17/3
f 244/19/3 245/63/3 249/17/3
f 246/55/2 366/103/2 245/82/2
f 243/19/3 247/63/3 248/17/3
f 247/19/3 249/63/3 251/17/3
f 245/16/12 365/95/12 250/17/12
f 249/19/12 250/63/12 252/17/12
f 251/19/12 252/63/12 256/17/12
f 248/19/3 251/63/3 253/17/3
f 255/19/3 253/63/3 254/17/3
f 253/19/12 256/63/12 258/17/12
f 256/19/3 257/63/3 260/17/3
f 252/19/3 359/63/3 257/17/3
f 254/19/12 258/63/12 259/17/12
f 258/19/3 260/63/3 262/17/3
f 260/19/3 261/63/3 263/17/3
f 257/19/3 355/63/3 261/17/3
f 262/19/3 263/63/3 265/17/3
f 259/19/3 262/63/3 264/17/3
f 264/19/3 265/63/3 329/17/3
f 267/19/3 264/63/3 266/17/3
f 269/19/12 267/63/12 268/17/12
f 270/19/12 259/63/12 267/17/12
f 273/19/3 270/63/3 269/17/3
f 272/19/3 269/63/3 271/17/3
f 276/19/3 273/63/3 272/17/3
f 275/19/3 272/63/3 274/17/3
f 281/19/20 276/63/20 275/17/20
f 278/19/20 275/63/20 277/17/20
f 280/19/19 278/63/19 279/17/19
f 283/19/19 281/63/19 278/17/19
f 281/39/21 282/37/21 350/51/21
f 284/44/22 282/100/22 281/45/22
f 287/19/3 285/63/3 283/17/3
f 286/19/3 283/63/3 280/17/3
f 290/19/15 289/63/15 286/17/15
f 288/19/3 280/63/3 294/17/3
f 331/19/15 293/63/15 291/17/15
f 291/19/3 294/63/3 295/17/3
f 294/19/19 279/63/19 297/17/19
f 292/19/3 295/63/3 296/17/3
f 297/10/19 299/93/19 296/11/19
f 279/19/20 277/63/20 298/17/20
f 299/52/20 297/102/20 298/53/20
f 301/10/20 299/93/20 300/11/20
f 299/52/19 301/102/19 303/53/19
f 303/37/19 301/51/19 302/38/19
f 305/10/20 302/93/20 301/11/20
f 300/19/3 318/63/3 87/17/3
f 89/52/3 305/102/3 304/53/3
f 306/37/5 308/51/5 302/38/5
f 91/44/5 306/100/5 305/45/5
f 306/40/3 91/57/3 94/41/3
f 308/55/16 306/103/16 307/48/16
f 308/56/4 112/104/4 317/38/4
f 104/24/5 106/26/5 307/25/5
f 310/19/3 303/63/3 309/17/3
f 311/19/3 296/63/3 303/17/3
f 313/19/15 314/63/15 311/17/15
f 312/19/3 309/63/3 316/17/3
f 315/44/3 316/100/3 121/45/3
f 309/40/19 302/57/19 317/41/19
f 117/39/23 316/37/23 113/51/23
f 298/19/3 319/63/3 318/17/3
f 319/19/3 320/63/3 86/17/3
f 274/19/3 271/63/3 320/17/3
f 277/19/3 274/63/3 319/17/3
f 320/19/12 321/63/12 322/17/12
f 271/19/12 268/63/12 321/17/12
f 321/19/3 323/63/3 325/17/3
f 268/19/3 266/63/3 323/17/3
f 323/19/3 324/63/3 326/17/3
f 266/19/3 329/63/3 324/17/3
f 325/19/3 326/63/3 77/17/3
f 79/10/3 81/93/3 322/11/3
f 327/19/4 74/63/4 77/17/4
f 330/19/4 328/63/4 324/17/4
f 332/19/15 336/63/15 333/17/15
f 333/19/3 334/63/3 285/17/3
f 335/19/3 337/63/3 334/17/3
f 338/19/3 341/63/3 337/17/3
f 339/19/15 340/63/15 338/17/15
f 342/19/3 234/63/3 341/17/3
f 343/19/15 344/63/15 235/17/15
f 341/44/19 241/100/19 345/45/19
f 337/10/19 345/93/19 347/11/19
f 241/44/20 243/100/20 346/45/20
f 345/52/20 346/102/20 348/53/20
f 347/44/24 348/100/24 350/45/24
f 284/39/25 334/37/25 347/51/25
f 349/52/3 348/102/3 255/53/3
f 346/19/3 248/63/3 255/17/3
f 276/10/3 349/93/3 351/11/3
f 351/19/3 254/63/3 270/17/3
f 353/19/4 352/63/4 265/17/4
f 357/19/4 354/63/4 261/17/4
f 359/19/3 356/63/3 355/17/3
f 361/19/4 358/63/4 356/17/4
f 363/19/3 360/63/3 356/17/3
f 364/19/3 362/63/3 360/17/3
f 365/19/3 364/63/3 363/17/3
f 250/19/3 363/63/3 359/17/3
f 19/19/3 22/63/3 362/17/3
f 367/19/3 19/63/3 364/17/3
f 218/19/3 367/63/3 365/17/3
f 217/19/3 13/63/3 19/17/3
f 220/19/3 218/63/3 366/17/3
f 369/19/4 368/63/4 362/17/4
f 237/19/3 220/63/3 246/17/3
f 370/13/15 371/94/15 230/14/15
f 371/13/15 372/94/15 189/14/15
f 215/52/3 373/102/3 13/53/3
f 374/44/3 7/100/3 373/45/3
f 375/19/2 5/63/2 7/17/2
f 377/19/2 375/63/2 374/17/2
f 378/87/2 376/112/2 375/88/2
f 376/20/2 3/96/2 5/21/2
f 378/64/1 379/106/1 384/65/1
f 380/27/4 381/97/4 379/28/4
f 202/19/2 380/63/2 382/17/2
f 381/27/2 383/97/2 384/28/2
f 383/27/4 385/97/4 386/28/4
f 17/27/2 386/97/2 385/28/2
f 387/27/4 388/97/4 20/28/4
f 388/27/4 389/97/4 25/28/4
f 389/27/4 390/97/4 28/28/4
f 390/27/4 391/97/4 31/28/4
f 391/27/4 392/97/4 34/28/4
f 392/27/4 393/97/4 37/28/4
f 393/27/4 394/97/4 40/28/4
f 394/27/4 395/97/4 43/28/4
f 395/27/4 396/97/4 46/28/4
f 396/27/4 55/97/4 49/28/4
f 384/64/1 386/106/1 17/65/1
f 376/1/1 384/90/1 397/2/1
f 397/1/1 17/90/1 15/2/1
f 57/33/4 61/113/4 398/31/4
