# Blender 5.1.2
# www.blender.org
mtllib room32.mtl
o 01-Caves.032
v -20.043121 3.424626 -109.912613
v -20.043121 3.424627 -99.912651
v -20.043121 10.924619 -109.912613
v -20.043121 -4.075374 -109.912613
v -10.043159 -4.075374 -109.912613
v -20.043121 -4.075373 -99.912651
v -10.043159 -4.075373 -99.912651
v -20.043121 -4.075372 -89.912651
v -10.043159 -4.075372 -89.912651
v -20.043121 -4.075372 -79.912689
v -20.043121 3.424628 -89.912651
v -20.043121 10.924621 -89.912651
v -20.043121 3.424629 -79.912689
v -20.043121 10.924622 -79.912689
v -20.043121 3.424629 -79.912689
v -10.043159 10.924622 -79.912689
v -10.043159 3.424629 -79.912689
v -0.043122 10.924622 -79.912689
v -10.043159 10.924621 -89.912651
v -10.043159 10.924620 -99.912651
v -10.043159 10.924619 -109.912613
v -20.043121 10.924620 -99.912651
v -0.043122 10.924620 -99.912651
v -0.043122 10.924619 -109.912613
v 9.956879 10.924620 -99.912651
v 9.956879 10.924619 -109.912613
v 9.956879 3.424627 -99.912651
v 9.956879 10.924621 -89.912651
v 9.956879 3.424628 -89.912651
v 9.956879 10.924622 -79.912689
v 9.956879 3.424629 -79.912689
v -0.043122 3.424629 -79.912689
v 9.956879 -4.075372 -79.912689
v 9.956879 -4.075372 -89.912651
v -0.043122 -4.075372 -79.912689
v -0.043122 -4.075372 -89.912651
v -10.043159 -4.075372 -79.912689
v -0.043122 -4.075373 -99.912651
v -0.043122 -4.075374 -109.912613
v 9.956879 -4.075373 -99.912651
v 9.956879 -4.075374 -109.912613
v 9.956879 3.424626 -109.912613
v -20.043121 5.924624 -109.912613
vn 1.0000 -0.0000 -0.0000
vn -0.0000 1.0000 -0.0000
vn -0.0000 -1.0000 -0.0000
vn -0.0000 -0.0000 -1.0000
vn -1.0000 -0.0000 -0.0000
vn -0.0000 -0.0000 1.0000
vt 0.001961 0.627451
vt 0.121569 0.747059
vt 0.001961 0.747059
vt 0.252941 0.627451
vt 0.372549 0.747059
vt 0.252941 0.747059
vt 0.127451 0.501961
vt 0.247059 0.621569
vt 0.127451 0.621569
vt 0.001961 0.501961
vt 0.121569 0.621569
vt 0.001961 0.621569
vt 0.127451 0.627451
vt 0.247059 0.747059
vt 0.127451 0.747059
vt 0.752941 0.878431
vt 0.872549 0.998039
vt 0.752941 0.998039
vt 0.378431 0.627451
vt 0.498039 0.747059
vt 0.378431 0.747059
vt 0.121569 0.627451
vt 0.372549 0.627451
vt 0.247059 0.501961
vt 0.121569 0.501961
vt 0.247059 0.627451
vt 0.872549 0.878431
vt 0.498039 0.627451
s 0
usemtl Material.001
f 1/1/1 6/2/1 4/3/1
f 3/4/1 2/5/1 1/6/1
f 6/7/2 5/8/2 4/9/2
f 7/10/2 8/11/2 9/12/2
f 2/13/1 8/14/1 6/15/1
f 37/16/2 8/17/2 10/18/2
f 11/1/1 10/2/1 8/3/1
f 22/19/1 11/20/1 2/21/1
f 12/4/1 13/5/1 11/6/1
f 16/16/3 12/17/3 19/18/3
f 14/19/4 17/20/4 15/21/4
f 16/4/4 32/5/4 17/6/4
f 19/16/3 22/17/3 20/18/3
f 23/16/3 21/17/3 24/18/3
f 20/16/3 3/17/3 21/18/3
f 25/16/3 24/17/3 26/18/3
f 25/4/5 42/5/5 27/6/5
f 28/19/5 27/20/5 29/21/5
f 30/4/5 29/5/5 31/6/5
f 18/19/4 31/20/4 32/21/4
f 31/1/5 34/2/5 33/3/5
f 32/13/4 33/14/4 35/15/4
f 33/10/2 36/11/2 35/12/2
f 35/16/2 9/17/2 37/18/2
f 17/1/4 35/2/4 37/3/4
f 15/13/4 37/14/4 10/15/4
f 34/7/2 38/8/2 36/9/2
f 36/16/2 7/17/2 9/18/2
f 39/16/2 7/17/2 38/18/2
f 41/16/2 38/17/2 40/18/2
f 27/1/5 41/2/5 40/3/5
f 29/13/5 40/14/5 34/15/5
f 21/18/6 3/16/6 43/17/6
f 1/1/1 2/22/1 6/2/1
f 3/4/1 22/23/1 2/5/1
f 6/7/2 7/24/2 5/8/2
f 7/10/2 6/25/2 8/11/2
f 2/13/1 11/26/1 8/14/1
f 37/16/2 9/27/2 8/17/2
f 11/1/1 13/22/1 10/2/1
f 22/19/1 12/28/1 11/20/1
f 12/4/1 14/23/1 13/5/1
f 16/16/3 14/27/3 12/17/3
f 14/19/4 16/28/4 17/20/4
f 16/4/4 18/23/4 32/5/4
f 19/16/3 12/27/3 22/17/3
f 23/16/3 20/27/3 21/17/3
f 20/16/3 22/27/3 3/17/3
f 25/16/3 23/27/3 24/17/3
f 25/4/5 26/23/5 42/5/5
f 28/19/5 25/28/5 27/20/5
f 30/4/5 28/23/5 29/5/5
f 18/19/4 30/28/4 31/20/4
f 31/1/5 29/22/5 34/2/5
f 32/13/4 31/26/4 33/14/4
f 33/10/2 34/25/2 36/11/2
f 35/16/2 36/27/2 9/17/2
f 17/1/4 32/22/4 35/2/4
f 15/13/4 17/26/4 37/14/4
f 34/7/2 40/24/2 38/8/2
f 36/16/2 38/27/2 7/17/2
f 39/16/2 5/27/2 7/17/2
f 41/16/2 39/27/2 38/17/2
f 27/1/5 42/22/5 41/2/5
f 29/13/5 27/26/5 40/14/5
