# Blender 5.1.2
# www.blender.org
mtllib room21.mtl
o 01-Caves.021
v -350.043091 8.424634 20.087349
v -350.043091 -1.575369 20.087349
v -350.043091 8.424634 30.087387
v -350.043091 -1.575368 30.087387
v -350.043091 8.424635 40.087349
v -350.043091 -1.575367 40.087349
v -350.043091 8.424636 50.087349
v -350.043091 8.424637 60.087349
v -350.043091 -1.575366 50.087349
v -350.043091 -1.575366 60.087349
v -350.043091 -11.575363 50.087349
v -350.043091 -16.575363 50.087349
v -350.043091 -11.575362 60.087349
v -350.043091 -11.575364 40.087349
v -350.043091 -11.575365 30.087387
v -350.043091 -16.575363 40.087349
v -340.043091 -16.575363 40.087349
v -350.043091 -16.575365 30.087389
v -350.043091 -16.575365 20.087351
v -340.043091 -16.575365 30.087389
v -330.043091 -16.575365 30.087389
v -340.043091 -16.575365 20.087351
v -330.043091 -16.575365 20.087351
v -320.043091 -16.575365 20.087351
v -320.043091 -16.575365 30.087389
v -310.043121 -16.575365 20.087351
v -310.043121 -16.575365 30.087389
v -300.043121 -16.575365 20.087351
v -300.043121 -16.575365 30.087389
v -290.043121 -16.575365 20.087351
v -290.043121 -16.575365 30.087389
v -280.043121 -16.575365 20.087351
v -280.043121 -16.575365 30.087389
v -270.043121 -16.575365 20.087351
v -270.043121 -16.575365 30.087389
v -260.043121 -16.575365 20.087351
v -260.043121 -16.575365 30.087389
v -260.043121 -1.575369 20.087349
v -260.043121 8.424634 20.087349
v -260.043121 -1.575368 30.087387
v -260.043121 8.424634 30.087387
v -260.043121 -1.575367 40.087349
v -260.043121 8.424635 40.087349
v -260.043121 -1.575366 50.087349
v -260.043121 -16.575363 40.087349
v -260.043121 -16.575363 50.087349
v -270.043121 -16.575363 40.087349
v -280.043121 -16.575363 40.087349
v -270.043121 -16.575363 50.087349
v -280.043121 -16.575363 50.087349
v -270.043121 -16.575363 60.087349
v -280.043121 -16.575363 60.087349
v -270.043121 -16.575361 70.087349
v -260.043121 -16.575363 60.087349
v -260.043121 -16.575361 70.087349
v -260.043121 -1.575366 60.087349
v -260.043121 8.424637 60.087349
v -260.043121 -1.575365 70.087349
v -260.043121 8.424638 70.087349
v -260.043121 -1.575364 80.087349
v -260.043121 8.424638 80.087349
v -260.043121 -16.575361 80.087349
v -270.043121 -16.575361 80.087349
v -280.043121 -16.575361 80.087349
v -290.043121 -16.575361 80.087349
v -280.043121 -16.575361 70.087349
v -290.043121 -16.575361 70.087349
v -300.043121 -16.575361 70.087349
v -290.043121 -16.575363 60.087349
v -300.043121 -16.575363 60.087349
v -290.043121 -16.575363 50.087349
v -300.043121 -16.575363 50.087349
v -290.043121 -16.575363 40.087349
v -300.043121 -16.575363 40.087349
v -310.043121 -16.575363 40.087349
v -320.043091 -16.575363 40.087349
v -310.043121 -16.575363 50.087349
v -320.043091 -16.575363 50.087349
v -310.043121 -16.575363 60.087349
v -320.043091 -16.575363 60.087349
v -310.043121 -16.575361 70.087349
v -320.043091 -16.575361 70.087349
v -310.043121 -16.575361 80.087349
v -320.043091 -16.575361 80.087349
v -300.043121 -16.575361 80.087349
v -330.043091 -16.575361 80.087349
v -330.043091 -16.575361 70.087349
v -340.043091 -16.575361 80.087349
v -340.043091 -16.575361 70.087349
v -350.043091 -16.575361 80.087349
v -350.043091 -11.575361 80.087349
v -350.043091 -16.575361 70.087349
v -350.043091 -16.575363 60.087349
v -350.043091 -11.575361 70.087349
v -350.043091 -1.575365 70.087349
v -350.043091 8.424638 70.087349
v -350.043091 -1.575364 80.087349
v -350.043091 8.424638 80.087349
v -340.043091 -16.575363 60.087349
v -330.043091 -16.575363 60.087349
v -340.043091 -16.575363 50.087349
v -330.043091 -16.575363 50.087349
v -330.043091 -16.575363 40.087349
v -260.043121 8.424636 50.087349
v -350.043091 -11.575365 20.087349
vn 1.0000 -0.0000 -0.0000
vn -0.0000 1.0000 -0.0000
vn -1.0000 -0.0000 -0.0000
vt 0.501961 0.878431
vt 0.621569 0.998039
vt 0.501961 0.998039
vt 0.252941 0.252941
vt 0.372549 0.372549
vt 0.252941 0.372549
vt 0.378431 0.001961
vt 0.498039 0.121569
vt 0.378431 0.121569
vt 0.501961 0.752941
vt 0.621569 0.872549
vt 0.501961 0.872549
vt 0.621569 0.878431
vt 0.372549 0.252941
vt 0.498039 0.001961
vt 0.621569 0.752941
s 0
usemtl Material.001
f 1/1/1 4/2/1 2/3/1
f 3/1/1 6/2/1 4/3/1
f 5/1/1 9/2/1 6/3/1
f 7/1/1 10/2/1 9/3/1
f 11/4/1 6/5/1 9/6/1
f 13/4/1 9/5/1 10/6/1
f 11/4/1 93/5/1 12/6/1
f 14/4/1 12/5/1 16/6/1
f 14/4/1 4/5/1 6/6/1
f 15/4/1 16/5/1 18/6/1
f 17/7/2 12/8/2 101/9/2
f 20/7/2 16/8/2 17/9/2
f 105/4/1 18/5/1 19/6/1
f 22/7/2 18/8/2 20/9/2
f 21/7/2 17/8/2 103/9/2
f 23/7/2 20/8/2 21/9/2
f 24/7/2 21/8/2 25/9/2
f 26/7/2 25/8/2 27/9/2
f 28/7/2 27/8/2 29/9/2
f 30/7/2 29/8/2 31/9/2
f 32/7/2 31/8/2 33/9/2
f 34/7/2 33/8/2 35/9/2
f 36/7/2 35/8/2 37/9/2
f 36/4/3 40/5/3 38/6/3
f 41/10/3 38/11/3 40/12/3
f 43/10/3 40/11/3 42/12/3
f 37/4/3 42/5/3 40/6/3
f 104/10/3 42/11/3 44/12/3
f 45/4/3 44/5/3 42/6/3
f 45/7/2 49/8/2 46/9/2
f 37/7/2 47/8/2 45/9/2
f 35/7/2 48/8/2 47/9/2
f 47/7/2 50/8/2 49/9/2
f 49/7/2 52/8/2 51/9/2
f 46/7/2 51/8/2 54/9/2
f 51/7/2 66/8/2 53/9/2
f 54/7/2 53/8/2 55/9/2
f 54/4/3 58/5/3 56/6/3
f 46/4/3 56/5/3 44/6/3
f 59/10/3 56/11/3 58/12/3
f 57/10/3 44/11/3 56/12/3
f 61/10/3 58/11/3 60/12/3
f 55/4/3 60/5/3 58/6/3
f 55/7/2 63/8/2 62/9/2
f 53/7/2 64/8/2 63/9/2
f 66/7/2 65/8/2 64/9/2
f 52/7/2 67/8/2 66/9/2
f 67/7/2 85/8/2 65/9/2
f 69/7/2 68/8/2 67/9/2
f 50/7/2 69/8/2 52/9/2
f 71/7/2 70/8/2 69/9/2
f 73/7/2 72/8/2 71/9/2
f 48/7/2 71/8/2 50/9/2
f 33/7/2 73/8/2 48/9/2
f 31/7/2 74/8/2 73/9/2
f 29/7/2 75/8/2 74/9/2
f 74/7/2 77/8/2 72/9/2
f 27/7/2 76/8/2 75/9/2
f 75/7/2 78/8/2 77/9/2
f 77/7/2 80/8/2 79/9/2
f 72/7/2 79/8/2 70/9/2
f 79/7/2 82/8/2 81/9/2
f 70/7/2 81/8/2 68/9/2
f 81/7/2 84/8/2 83/9/2
f 68/7/2 83/8/2 85/9/2
f 82/7/2 86/8/2 84/9/2
f 87/7/2 88/8/2 86/9/2
f 89/7/2 90/8/2 88/9/2
f 94/4/1 90/5/1 92/6/1
f 13/4/1 92/5/1 93/6/1
f 99/7/2 92/8/2 89/9/2
f 91/4/1 95/5/1 97/6/1
f 94/4/1 10/5/1 95/6/1
f 8/1/1 95/2/1 10/3/1
f 96/1/1 97/2/1 95/3/1
f 101/7/2 93/8/2 99/9/2
f 100/7/2 89/8/2 87/9/2
f 102/7/2 99/8/2 100/9/2
f 103/7/2 101/8/2 102/9/2
f 76/7/2 102/8/2 78/9/2
f 78/7/2 100/8/2 80/9/2
f 25/7/2 103/8/2 76/9/2
f 80/7/2 87/8/2 82/9/2
f 15/4/1 2/5/1 4/6/1
f 1/1/1 3/13/1 4/2/1
f 3/1/1 5/13/1 6/2/1
f 5/1/1 7/13/1 9/2/1
f 7/1/1 8/13/1 10/2/1
f 11/4/1 14/14/1 6/5/1
f 13/4/1 11/14/1 9/5/1
f 11/4/1 13/14/1 93/5/1
f 14/4/1 11/14/1 12/5/1
f 14/4/1 15/14/1 4/5/1
f 15/4/1 14/14/1 16/5/1
f 17/7/2 16/15/2 12/8/2
f 20/7/2 18/15/2 16/8/2
f 105/4/1 15/14/1 18/5/1
f 22/7/2 19/15/2 18/8/2
f 21/7/2 20/15/2 17/8/2
f 23/7/2 22/15/2 20/8/2
f 24/7/2 23/15/2 21/8/2
f 26/7/2 24/15/2 25/8/2
f 28/7/2 26/15/2 27/8/2
f 30/7/2 28/15/2 29/8/2
f 32/7/2 30/15/2 31/8/2
f 34/7/2 32/15/2 33/8/2
f 36/7/2 34/15/2 35/8/2
f 36/4/3 37/14/3 40/5/3
f 41/10/3 39/16/3 38/11/3
f 43/10/3 41/16/3 40/11/3
f 37/4/3 45/14/3 42/5/3
f 104/10/3 43/16/3 42/11/3
f 45/4/3 46/14/3 44/5/3
f 45/7/2 47/15/2 49/8/2
f 37/7/2 35/15/2 47/8/2
f 35/7/2 33/15/2 48/8/2
f 47/7/2 48/15/2 50/8/2
f 49/7/2 50/15/2 52/8/2
f 46/7/2 49/15/2 51/8/2
f 51/7/2 52/15/2 66/8/2
f 54/7/2 51/15/2 53/8/2
f 54/4/3 55/14/3 58/5/3
f 46/4/3 54/14/3 56/5/3
f 59/10/3 57/16/3 56/11/3
f 57/10/3 104/16/3 44/11/3
f 61/10/3 59/16/3 58/11/3
f 55/4/3 62/14/3 60/5/3
f 55/7/2 53/15/2 63/8/2
f 53/7/2 66/15/2 64/8/2
f 66/7/2 67/15/2 65/8/2
f 52/7/2 69/15/2 67/8/2
f 67/7/2 68/15/2 85/8/2
f 69/7/2 70/15/2 68/8/2
f 50/7/2 71/15/2 69/8/2
f 71/7/2 72/15/2 70/8/2
f 73/7/2 74/15/2 72/8/2
f 48/7/2 73/15/2 71/8/2
f 33/7/2 31/15/2 73/8/2
f 31/7/2 29/15/2 74/8/2
f 29/7/2 27/15/2 75/8/2
f 74/7/2 75/15/2 77/8/2
f 27/7/2 25/15/2 76/8/2
f 75/7/2 76/15/2 78/8/2
f 77/7/2 78/15/2 80/8/2
f 72/7/2 77/15/2 79/8/2
f 79/7/2 80/15/2 82/8/2
f 70/7/2 79/15/2 81/8/2
f 81/7/2 82/15/2 84/8/2
f 68/7/2 81/15/2 83/8/2
f 82/7/2 87/15/2 86/8/2
f 87/7/2 89/15/2 88/8/2
f 89/7/2 92/15/2 90/8/2
f 94/4/1 91/14/1 90/5/1
f 13/4/1 94/14/1 92/5/1
f 99/7/2 93/15/2 92/8/2
f 91/4/1 94/14/1 95/5/1
f 94/4/1 13/14/1 10/5/1
f 8/1/1 96/13/1 95/2/1
f 96/1/1 98/13/1 97/2/1
f 101/7/2 12/15/2 93/8/2
f 100/7/2 99/15/2 89/8/2
f 102/7/2 101/15/2 99/8/2
f 103/7/2 17/15/2 101/8/2
f 76/7/2 103/15/2 102/8/2
f 78/7/2 102/15/2 100/8/2
f 25/7/2 21/15/2 103/8/2
f 80/7/2 100/15/2 87/8/2
f 15/4/1 105/14/1 2/5/1
