# Blender 5.1.2
# www.blender.org
mtllib room16.mtl
o 01-Caves.016
v -260.043121 8.424620 -159.912659
v -260.043121 0.924620 -159.912659
v -260.043121 8.424621 -149.912659
v -250.043121 8.424620 -159.912659
v -260.043121 10.924615 -159.912659
v -250.043121 10.924615 -159.912659
v -260.043121 10.924616 -149.912659
v -250.043121 10.924616 -149.912659
v -260.043121 10.924617 -139.912659
v -260.043121 0.924622 -139.912659
v -250.043121 10.924617 -139.912659
v -260.043121 8.424622 -139.912659
v -260.043121 0.924622 -139.912659
v -260.043121 0.924621 -149.912659
v -260.043121 -4.075376 -139.912659
v -250.043121 -4.075376 -139.912659
v -260.043121 -4.075377 -149.912659
v -250.043121 -4.075377 -149.912659
v -260.043121 -4.075377 -159.912659
v -250.043121 -4.075377 -159.912659
v -250.043121 0.924620 -159.912659
v -240.043121 -4.075377 -159.912659
v -240.043121 -4.075377 -149.912659
v -230.043121 -4.075377 -159.912659
v -240.043121 0.924620 -159.912659
v -240.043121 8.424620 -159.912659
v -230.043121 0.924620 -159.912659
v -230.043121 8.424620 -159.912659
v -220.043121 0.924620 -159.912659
v -220.043121 8.424620 -159.912659
v -210.043121 0.924620 -159.912659
v -220.043121 -4.075377 -159.912659
v -220.043121 -4.075377 -149.912659
v -210.043121 -4.075377 -159.912659
v -210.043121 -4.075377 -149.912659
v -200.043121 -4.075377 -159.912659
v -200.043121 -4.075377 -149.912659
v -190.043121 -4.075377 -159.912659
v -200.043121 0.924620 -159.912659
v -200.043121 8.424620 -159.912659
v -190.043121 0.924620 -159.912659
v -190.043121 8.424620 -159.912659
v -180.043121 0.924620 -159.912659
v -180.043121 8.424620 -159.912659
v -170.043121 0.924620 -159.912659
v -180.043121 -4.075377 -159.912659
v -180.043121 -4.075377 -149.912659
v -170.043121 -4.075377 -159.912659
v -170.043121 -4.075377 -149.912659
v -160.043121 -4.075377 -159.912659
v -160.043121 -4.075377 -149.912659
v -160.043121 0.924620 -159.912659
v -160.043121 0.924620 -159.912659
v -160.043121 8.424620 -159.912659
v -170.043121 8.424620 -159.912659
v -160.043121 10.924615 -159.912659
v -160.043121 10.924616 -149.912659
v -160.043121 8.424620 -159.912659
v -170.043121 10.924615 -159.912659
v -180.043121 10.924615 -159.912659
v -170.043121 10.924616 -149.912659
v -170.043121 10.924617 -139.912659
v -180.043121 10.924616 -149.912659
v -190.043121 10.924616 -149.912659
v -180.043121 10.924617 -139.912659
v -180.043121 8.424621 -149.912659
v -190.043121 8.424621 -149.912659
v -180.043121 -1.575381 -149.912659
v -180.043121 8.424622 -139.912659
v -180.043121 -1.575381 -139.912659
v -180.043121 -4.075376 -139.912659
v -170.043121 -4.075376 -139.912659
v -160.043121 -4.075376 -139.912659
v -160.043121 0.924622 -139.912659
v -160.043121 0.924621 -149.912659
v -160.043121 8.424622 -139.912659
v -160.043121 10.924617 -139.912659
v -160.043121 8.424621 -149.912659
v -190.043121 -1.575381 -149.912659
v -190.043121 -1.575381 -139.912659
v -190.043121 -4.075377 -149.912659
v -190.043121 -4.075376 -139.912659
v -200.043121 -4.075376 -139.912659
v -210.043121 -4.075376 -139.912659
v -220.043121 0.924622 -139.912659
v -220.043121 -4.075376 -139.912659
v -230.043121 -4.075376 -139.912659
v -230.043121 -4.075377 -149.912659
v -230.043121 0.924622 -139.912659
v -240.043121 -4.075376 -139.912659
v -230.043121 10.924617 -139.912659
v -220.043121 10.924617 -139.912659
v -240.043121 10.924617 -139.912659
v -230.043121 10.924616 -149.912659
v -230.043121 10.924615 -159.912659
v -240.043121 10.924616 -149.912659
v -220.043121 10.924616 -149.912659
v -220.043121 10.924615 -159.912659
v -210.043121 10.924616 -149.912659
v -210.043121 10.924615 -159.912659
v -210.043121 10.924617 -139.912659
v -200.043121 10.924616 -149.912659
v -200.043121 10.924615 -159.912659
v -200.043121 10.924617 -139.912659
v -190.043121 10.924617 -139.912659
v -190.043121 8.424622 -139.912659
v -190.043121 10.924615 -159.912659
v -210.043121 8.424620 -159.912659
v -240.043121 10.924615 -159.912659
v -250.043121 0.924622 -139.912659
vn -0.0000 -0.0000 1.0000
vn 1.0000 -0.0000 -0.0000
vn -0.0000 -1.0000 -0.0000
vn -0.0000 -0.0000 -1.0000
vn -0.0000 1.0000 -0.0000
vn -1.0000 -0.0000 -0.0000
vt 0.501961 0.627451
vt 0.621569 0.747059
vt 0.501961 0.747059
vt 0.252941 0.252941
vt 0.372549 0.278432
vt 0.252941 0.278432
vt 0.501961 0.878431
vt 0.621569 0.998039
vt 0.501961 0.998039
vt 0.378431 0.627451
vt 0.498039 0.747059
vt 0.378431 0.747059
vt 0.752941 0.878431
vt 0.872549 0.998039
vt 0.752941 0.998039
vt 0.127451 0.690196
vt 0.247059 0.747059
vt 0.127451 0.747059
vt 0.001961 0.747059
vt 0.001961 0.690196
vt 0.121569 0.747059
vt 0.252941 0.627451
vt 0.372549 0.747059
vt 0.252941 0.747059
vt 0.621569 0.627451
vt 0.372549 0.252941
vt 0.621569 0.878431
vt 0.498039 0.627451
vt 0.872549 0.878431
vt 0.247059 0.690196
vt 0.372549 0.627451
s 0
usemtl Material.001
f 4/1/1 2/2/1 21/3/1
f 1/1/2 14/2/2 2/3/2
f 5/4/2 3/5/2 1/6/2
f 6/4/1 1/5/1 4/6/1
f 8/7/3 5/8/3 6/9/3
f 11/7/3 7/8/3 8/9/3
f 7/4/2 12/5/2 3/6/2
f 9/10/4 110/11/4 10/12/4
f 3/1/2 13/2/2 14/3/2
f 15/4/2 14/5/2 13/6/2
f 18/13/5 15/14/5 16/15/5
f 10/16/4 16/17/4 15/18/4
f 20/13/5 17/14/5 18/15/5
f 17/4/2 2/5/2 14/6/2
f 19/4/1 21/5/1 2/6/1
f 20/4/1 25/5/1 21/6/1
f 22/13/5 18/14/5 23/15/5
f 24/13/5 23/14/5 88/15/5
f 22/4/1 27/5/1 25/6/1
f 28/1/1 25/2/1 27/3/1
f 26/1/1 21/2/1 25/3/1
f 30/1/1 27/2/1 29/3/1
f 24/4/1 29/5/1 27/6/1
f 108/1/1 29/2/1 31/3/1
f 32/4/1 31/5/1 29/6/1
f 34/13/5 33/14/5 35/15/5
f 32/13/5 88/14/5 33/15/5
f 36/13/5 35/14/5 37/15/5
f 34/4/1 39/5/1 31/6/1
f 38/13/5 37/14/5 81/15/5
f 36/4/1 41/5/1 39/6/1
f 42/1/1 39/2/1 41/3/1
f 40/1/1 31/2/1 39/3/1
f 44/1/1 41/2/1 43/3/1
f 38/4/1 43/5/1 41/6/1
f 55/1/1 43/2/1 45/3/1
f 46/4/1 45/5/1 43/6/1
f 48/13/5 47/14/5 49/15/5
f 46/13/5 81/14/5 47/15/5
f 50/13/5 49/14/5 51/15/5
f 48/4/1 53/5/1 45/6/1
f 50/4/6 75/5/6 52/6/6
f 54/1/1 45/2/1 53/3/1
f 56/4/1 55/5/1 54/6/1
f 57/4/6 58/5/6 78/6/6
f 57/7/3 59/8/3 56/9/3
f 59/4/1 44/5/1 55/6/1
f 61/7/3 60/8/3 59/9/3
f 77/7/3 61/8/3 57/9/3
f 62/7/3 63/8/3 61/9/3
f 63/7/3 107/8/3 60/9/3
f 64/4/4 66/5/4 67/6/4
f 63/4/2 69/5/2 66/6/2
f 67/1/4 68/2/4 79/3/4
f 66/1/2 70/2/2 68/3/2
f 68/4/2 71/5/2 47/6/2
f 49/13/5 71/14/5 72/15/5
f 51/13/5 72/14/5 73/15/5
f 51/4/6 74/5/6 75/6/6
f 75/1/6 76/2/6 78/3/6
f 77/4/6 78/5/6 76/6/6
f 78/1/6 52/2/6 75/3/6
f 47/4/4 79/5/4 68/6/4
f 80/4/6 81/5/6 82/6/6
f 106/1/6 79/2/6 80/3/6
f 81/13/5 83/14/5 82/15/5
f 37/13/5 84/14/5 83/15/5
f 86/19/4 85/20/4 84/21/4
f 35/13/5 86/14/5 84/15/5
f 33/13/5 87/14/5 86/15/5
f 89/16/4 86/17/4 87/18/4
f 88/13/5 90/14/5 87/15/5
f 23/13/5 16/14/5 90/15/5
f 91/22/4 85/23/4 89/24/4
f 92/7/3 94/8/3 97/9/3
f 91/7/3 96/8/3 94/9/3
f 97/7/3 95/8/3 98/9/3
f 94/7/3 109/8/3 95/9/3
f 99/7/3 98/8/3 100/9/3
f 101/7/3 97/8/3 99/9/3
f 102/7/3 100/8/3 103/9/3
f 104/7/3 99/8/3 102/9/3
f 64/7/3 103/8/3 107/9/3
f 105/7/3 102/8/3 64/9/3
f 105/4/6 67/5/6 106/6/6
f 103/4/1 108/5/1 40/6/1
f 107/4/1 40/5/1 42/6/1
f 60/4/1 42/5/1 44/6/1
f 100/4/1 30/5/1 108/6/1
f 98/4/1 28/5/1 30/6/1
f 93/7/3 8/8/3 96/9/3
f 96/7/3 6/8/3 109/9/3
f 95/4/1 26/5/1 28/6/1
f 109/4/1 4/5/1 26/6/1
f 4/1/1 1/25/1 2/2/1
f 1/1/2 3/25/2 14/2/2
f 5/4/2 7/26/2 3/5/2
f 6/4/1 5/26/1 1/5/1
f 8/7/3 7/27/3 5/8/3
f 11/7/3 9/27/3 7/8/3
f 7/4/2 9/26/2 12/5/2
f 9/10/4 11/28/4 110/11/4
f 3/1/2 12/25/2 13/2/2
f 15/4/2 17/26/2 14/5/2
f 18/13/5 17/29/5 15/14/5
f 10/16/4 110/30/4 16/17/4
f 20/13/5 19/29/5 17/14/5
f 17/4/2 19/26/2 2/5/2
f 19/4/1 20/26/1 21/5/1
f 20/4/1 22/26/1 25/5/1
f 22/13/5 20/29/5 18/14/5
f 24/13/5 22/29/5 23/14/5
f 22/4/1 24/26/1 27/5/1
f 28/1/1 26/25/1 25/2/1
f 26/1/1 4/25/1 21/2/1
f 30/1/1 28/25/1 27/2/1
f 24/4/1 32/26/1 29/5/1
f 108/1/1 30/25/1 29/2/1
f 32/4/1 34/26/1 31/5/1
f 34/13/5 32/29/5 33/14/5
f 32/13/5 24/29/5 88/14/5
f 36/13/5 34/29/5 35/14/5
f 34/4/1 36/26/1 39/5/1
f 38/13/5 36/29/5 37/14/5
f 36/4/1 38/26/1 41/5/1
f 42/1/1 40/25/1 39/2/1
f 40/1/1 108/25/1 31/2/1
f 44/1/1 42/25/1 41/2/1
f 38/4/1 46/26/1 43/5/1
f 55/1/1 44/25/1 43/2/1
f 46/4/1 48/26/1 45/5/1
f 48/13/5 46/29/5 47/14/5
f 46/13/5 38/29/5 81/14/5
f 50/13/5 48/29/5 49/14/5
f 48/4/1 50/26/1 53/5/1
f 50/4/6 51/26/6 75/5/6
f 54/1/1 55/25/1 45/2/1
f 56/4/1 59/26/1 55/5/1
f 57/4/6 56/26/6 58/5/6
f 57/7/3 61/27/3 59/8/3
f 59/4/1 60/26/1 44/5/1
f 61/7/3 63/27/3 60/8/3
f 77/7/3 62/27/3 61/8/3
f 62/7/3 65/27/3 63/8/3
f 63/7/3 64/27/3 107/8/3
f 64/4/4 63/26/4 66/5/4
f 63/4/2 65/26/2 69/5/2
f 67/1/4 66/25/4 68/2/4
f 66/1/2 69/25/2 70/2/2
f 68/4/2 70/26/2 71/5/2
f 49/13/5 47/29/5 71/14/5
f 51/13/5 49/29/5 72/14/5
f 51/4/6 73/26/6 74/5/6
f 75/1/6 74/25/6 76/2/6
f 77/4/6 57/26/6 78/5/6
f 78/1/6 58/25/6 52/2/6
f 47/4/4 81/26/4 79/5/4
f 80/4/6 79/26/6 81/5/6
f 106/1/6 67/25/6 79/2/6
f 81/13/5 37/29/5 83/14/5
f 37/13/5 35/29/5 84/14/5
f 35/13/5 33/29/5 86/14/5
f 33/13/5 88/29/5 87/14/5
f 89/16/4 85/30/4 86/17/4
f 88/13/5 23/29/5 90/14/5
f 23/13/5 18/29/5 16/14/5
f 91/22/4 92/31/4 85/23/4
f 92/7/3 91/27/3 94/8/3
f 91/7/3 93/27/3 96/8/3
f 97/7/3 94/27/3 95/8/3
f 94/7/3 96/27/3 109/8/3
f 99/7/3 97/27/3 98/8/3
f 101/7/3 92/27/3 97/8/3
f 102/7/3 99/27/3 100/8/3
f 104/7/3 101/27/3 99/8/3
f 64/7/3 102/27/3 103/8/3
f 105/7/3 104/27/3 102/8/3
f 105/4/6 64/26/6 67/5/6
f 103/4/1 100/26/1 108/5/1
f 107/4/1 103/26/1 40/5/1
f 60/4/1 107/26/1 42/5/1
f 100/4/1 98/26/1 30/5/1
f 98/4/1 95/26/1 28/5/1
f 93/7/3 11/27/3 8/8/3
f 96/7/3 8/27/3 6/8/3
f 95/4/1 109/26/1 26/5/1
f 109/4/1 6/26/1 4/5/1
