# Blender 5.1.2
# www.blender.org
mtllib room09.mtl
o 01-Caves.009
v 89.956879 43.424633 -39.912651
v 99.956909 43.424633 -39.912651
v 89.956879 43.424633 -29.912655
v 89.956879 33.424629 -39.912651
v 99.956909 33.424629 -39.912651
v 89.956879 33.424629 -29.912653
v 99.956909 33.424629 -29.912653
v 99.956909 43.424633 -29.912655
v 99.956909 30.924631 -29.912653
v 109.956879 25.924631 -29.912653
v 99.956909 30.924631 -19.912655
v 99.956909 25.924629 -39.912651
v 99.956909 25.924629 -49.912651
v 109.956879 20.924629 -39.912651
v 99.956909 38.424629 -39.912651
v 99.956909 38.424629 -49.912651
v 109.956879 43.424633 -39.912651
v 109.956879 43.424633 -29.912655
v 119.956879 43.424633 -39.912651
v 109.956879 43.424633 -49.912651
v 109.956879 30.924629 -59.912651
v 119.956879 43.424633 -49.912651
v 119.956879 30.924629 -59.912651
v 129.956833 43.424633 -49.912651
v 129.956833 30.924629 -59.912651
v 129.956833 43.424633 -39.912651
v 139.956879 43.424633 -49.912651
v 129.956833 40.924633 -49.912651
v 139.956879 40.924633 -49.912651
v 129.956833 40.924633 -39.912651
v 139.956879 40.924633 -39.912651
v 129.956833 40.924633 -29.912655
v 129.956833 43.424633 -29.912655
v 139.956879 40.924633 -29.912655
v 139.956879 43.424633 -29.912655
v 139.956879 38.424629 -29.912655
v 149.956879 38.424629 -29.912655
v 139.956879 38.424629 -39.912651
v 139.956879 38.424629 -49.912651
v 149.956879 38.424629 -39.912651
v 149.956879 38.424629 -49.912651
v 149.956879 35.924625 -39.912651
v 149.956879 35.924625 -49.912651
v 159.956879 35.924625 -39.912651
v 149.956879 35.924625 -29.912653
v 159.956879 35.924625 -29.912653
v 159.956879 23.424625 -19.912655
v 159.956879 33.424629 -29.912653
v 169.956879 33.424629 -29.912653
v 169.956879 20.924631 -19.912655
v 169.956879 20.924631 -29.912653
v 169.956879 20.924631 -19.912655
v 179.956879 33.424629 -29.912653
v 169.956879 33.424629 -39.912651
v 159.956879 33.424629 -39.912651
v 169.956879 33.424629 -49.912651
v 179.956879 33.424629 -39.912651
v 179.956879 33.424629 -49.912651
v 179.956879 30.924629 -39.912651
v 189.956879 30.924629 -39.912651
v 179.956879 30.924631 -29.912653
v 179.956879 30.924629 -49.912651
v 179.956879 20.924629 -49.912651
v 189.956879 30.924629 -49.912651
v 189.956879 20.924629 -49.912651
v 189.956879 20.924629 -39.912651
v 189.956879 20.924631 -29.912653
v 179.956879 20.924631 -29.912653
v 189.956879 30.924631 -29.912653
v 169.956879 20.924629 -49.912651
v 159.956879 20.924629 -49.912651
v 169.956879 20.924629 -39.912651
v 169.956879 20.924629 -59.912651
v 159.956879 20.924629 -59.912651
v 159.956879 23.424623 -59.912651
v 149.956879 25.924629 -59.912651
v 159.956879 35.924625 -49.912651
v 169.956879 20.924629 -59.912651
v 159.956879 33.424629 -49.912651
v 149.956879 20.924629 -59.912651
v 139.956879 30.924629 -59.912651
v 139.956879 20.924629 -59.912651
v 139.956879 20.924629 -49.912651
v 129.956833 20.924629 -59.912651
v 119.956879 20.924629 -59.912651
v 129.956833 20.924629 -49.912651
v 119.956879 20.924629 -49.912651
v 129.956833 20.924629 -39.912651
v 129.956833 20.924631 -29.912653
v 139.956879 20.924629 -39.912651
v 119.956879 20.924629 -39.912651
v 119.956879 25.924631 -29.912653
v 119.956879 20.924631 -29.912653
v 119.956879 25.924631 -19.912655
v 109.956879 25.924631 -19.912655
v 119.956879 30.924631 -19.912655
v 129.956833 20.924631 -19.912655
v 129.956833 30.924631 -19.912655
v 139.956879 20.924631 -19.912655
v 149.956879 20.924631 -19.912655
v 139.956879 20.924631 -29.912653
v 139.956879 30.924631 -19.912655
v 149.956879 25.924631 -19.912655
v 149.956879 20.924631 -29.912653
v 149.956879 20.924629 -39.912651
v 159.956879 20.924631 -29.912653
v 159.956879 20.924631 -19.912655
v 159.956879 20.924629 -39.912651
v 149.956879 20.924629 -49.912651
v 109.956879 30.924631 -19.912655
v 119.956879 43.424633 -29.912655
v 99.956909 30.924631 -19.912655
v 99.956909 30.924631 -29.912653
v 109.956879 20.924629 -49.912651
v 109.956879 20.924629 -59.912651
v 99.956909 25.924629 -59.912651
v 99.956909 25.924629 -59.912651
vn -0.0000 -0.0000 1.0000
vn -0.0000 -1.0000 -0.0000
vn -0.0000 1.0000 -0.0000
vn -0.0000 -0.0000 -1.0000
vn 1.0000 -0.0000 -0.0000
vn 0.4472 0.8944 -0.0000
vn 0.4082 0.8165 -0.4082
vn 0.4472 -0.8944 -0.0000
vn -0.0000 -0.6247 0.7809
vn 0.2981 -0.5963 0.7454
vn -1.0000 -0.0000 -0.0000
vn -0.1543 -0.6172 -0.7715
vn -0.1543 -0.6172 0.7715
vn -0.2981 -0.5963 0.7454
vn -0.0000 0.8944 -0.4472
vn -0.0000 -0.6247 -0.7809
vn -0.2981 -0.5963 -0.7454
vt 0.752941 0.878431
vt 0.872549 0.998039
vt 0.752941 0.998039
vt 0.878431 0.878431
vt 0.998039 0.998039
vt 0.878431 0.998039
vt 0.378431 0.627451
vt 0.498039 0.747059
vt 0.378431 0.747059
vt 0.252941 0.747059
vt 0.372549 0.627451
vt 0.372549 0.747059
vt 0.127451 0.501961
vt 0.247059 0.621569
vt 0.127451 0.621569
vt 0.127451 0.747059
vt 0.127451 0.658823
vt 0.247059 0.747059
vt 0.501961 0.878431
vt 0.621569 0.998039
vt 0.501961 0.998039
vt 0.252941 0.627451
vt 0.752941 0.941177
vt 0.752941 0.972549
vt 0.501961 0.872549
vt 0.621569 0.752941
vt 0.621569 0.872549
vt 0.252941 0.001961
vt 0.372549 0.121569
vt 0.252941 0.121569
vt 0.752941 0.909804
vt 0.501961 0.752941
vt 0.127451 0.627451
vt 0.001961 0.627451
vt 0.121569 0.747059
vt 0.001961 0.747059
vt 0.872549 0.909804
vt 0.001961 0.501961
vt 0.121569 0.621569
vt 0.001961 0.621569
vt 0.872549 0.878431
vt 0.998039 0.878431
vt 0.498039 0.627451
vt 0.247059 0.501961
vt 0.621569 0.878431
vt 0.872549 0.941177
vt 0.372549 0.001961
vt 0.872549 0.972549
vt 0.247059 0.627451
vt 0.121569 0.627451
vt 0.121569 0.501961
s 0
usemtl Material.001
f 2/1/1 4/2/1 5/3/1
f 8/1/2 1/2/2 2/3/2
f 5/1/3 6/2/3 7/3/3
f 3/4/4 7/5/4 6/6/4
f 5/1/5 9/2/5 12/3/5
f 10/7/6 11/8/6 95/9/6
f 12/10/7 10/11/7 14/12/7
f 114/1/6 12/2/6 14/3/6
f 16/13/5 12/14/5 13/15/5
f 20/7/8 15/8/8 16/9/8
f 15/16/1 17/17/1 2/18/1
f 111/1/2 17/2/2 19/3/2
f 18/1/2 2/2/2 17/3/2
f 19/1/2 20/2/2 22/3/2
f 22/19/9 21/20/9 23/21/9
f 21/22/10 16/12/10 117/10/10
f 24/19/9 23/20/9 25/21/9
f 26/1/2 22/2/2 24/3/2
f 27/19/9 25/20/9 81/21/9
f 26/1/11 28/2/11 30/3/11
f 24/1/4 29/2/4 28/3/4
f 31/1/2 28/2/2 29/3/2
f 34/1/2 30/2/2 31/3/2
f 33/1/11 30/2/11 32/3/11
f 35/23/1 32/2/1 34/3/1
f 34/1/11 38/2/11 36/3/11
f 37/3/1 35/24/1 36/2/1
f 37/1/2 38/2/2 40/3/2
f 31/1/11 39/2/11 38/3/11
f 40/1/2 39/2/2 41/3/2
f 40/1/11 43/2/11 42/3/11
f 37/1/11 42/2/11 45/3/11
f 44/1/2 43/2/2 77/3/2
f 46/1/2 42/2/2 44/3/2
f 46/3/1 37/23/1 45/2/1
f 46/1/11 55/2/11 48/3/11
f 46/25/12 103/26/12 37/27/12
f 49/25/12 47/26/12 46/27/12
f 49/3/1 46/23/1 48/2/1
f 50/9/11 49/7/11 51/8/11
f 49/28/4 68/29/4 51/30/4
f 53/1/2 54/2/2 57/3/2
f 49/1/2 55/2/2 54/3/2
f 54/1/2 79/2/2 56/3/2
f 57/1/2 56/2/2 58/3/2
f 57/24/11 62/2/11 59/3/11
f 53/24/11 59/2/11 61/3/11
f 60/1/2 62/2/2 64/3/2
f 69/13/2 59/14/2 60/15/2
f 64/28/1 63/29/1 65/30/1
f 60/28/11 65/29/11 66/30/11
f 69/28/11 66/29/11 67/30/11
f 61/28/4 67/29/4 68/30/4
f 58/28/1 70/29/1 63/30/1
f 70/1/3 108/2/3 72/3/3
f 73/1/3 71/2/3 70/3/3
f 70/3/11 56/1/11 73/2/11
f 73/3/1 75/31/1 74/2/1
f 75/31/1 80/2/1 74/3/1
f 77/32/13 76/27/13 75/25/13
f 56/32/13 75/27/13 78/25/13
f 43/3/4 41/1/4 77/2/4
f 44/1/11 79/2/11 55/3/11
f 79/3/4 77/1/4 56/2/4
f 76/31/1 82/2/1 80/3/1
f 41/19/14 81/20/14 76/21/14
f 81/31/1 84/2/1 82/3/1
f 80/1/3 83/2/3 109/3/3
f 82/1/3 86/2/3 83/3/3
f 25/31/1 85/2/1 84/3/1
f 84/1/3 87/2/3 86/3/3
f 86/1/3 91/2/3 88/3/3
f 83/1/3 88/2/3 90/3/3
f 90/1/3 89/2/3 101/3/3
f 88/1/3 93/2/3 89/3/3
f 87/1/3 14/2/3 91/3/3
f 91/16/5 92/17/5 93/18/5
f 91/33/15 10/18/15 92/16/15
f 93/16/4 92/17/4 89/18/4
f 89/33/6 94/18/6 97/16/6
f 92/34/3 95/35/3 94/36/3
f 110/31/4 94/2/4 95/3/4
f 94/3/4 98/37/4 97/2/4
f 98/31/4 99/2/4 97/3/4
f 101/1/3 97/2/3 99/3/3
f 99/3/4 103/37/4 100/2/4
f 104/1/3 99/2/3 100/3/3
f 102/19/16 33/20/16 35/21/16
f 37/25/17 102/26/17 35/27/17
f 100/3/4 47/37/4 107/2/4
f 105/1/3 101/2/3 104/3/3
f 108/1/3 104/2/3 106/3/3
f 106/1/3 100/2/3 107/3/3
f 51/1/3 107/2/3 50/3/3
f 72/1/3 106/2/3 51/3/3
f 71/1/3 105/2/3 108/3/3
f 107/3/4 47/31/4 50/2/4
f 109/1/3 90/2/3 105/3/3
f 74/1/3 109/2/3 71/3/3
f 98/19/16 111/20/16 33/21/16
f 96/19/16 18/20/16 111/21/16
f 33/1/2 19/2/2 26/3/2
f 110/19/16 8/20/16 18/21/16
f 11/3/4 110/31/4 95/2/4
f 113/21/5 8/19/5 112/20/5
f 85/1/3 114/2/3 87/3/3
f 115/1/6 13/2/6 114/3/6
f 23/38/1 115/39/1 85/40/1
f 115/15/1 21/13/1 116/14/1
f 116/15/5 16/13/5 13/14/5
f 39/3/4 27/1/4 41/2/4
f 2/1/1 1/41/1 4/2/1
f 8/1/2 3/41/2 1/2/2
f 5/1/3 4/41/3 6/2/3
f 3/4/4 8/42/4 7/5/4
f 5/1/5 7/41/5 9/2/5
f 10/7/6 9/43/6 11/8/6
f 12/10/7 9/22/7 10/11/7
f 114/1/6 13/41/6 12/2/6
f 16/13/5 15/44/5 12/14/5
f 20/7/8 17/43/8 15/8/8
f 111/1/2 18/41/2 17/2/2
f 18/1/2 8/41/2 2/2/2
f 19/1/2 17/41/2 20/2/2
f 22/19/9 20/45/9 21/20/9
f 21/22/10 20/11/10 16/12/10
f 24/19/9 22/45/9 23/20/9
f 26/1/2 19/41/2 22/2/2
f 27/19/9 24/45/9 25/20/9
f 26/1/11 24/41/11 28/2/11
f 24/1/4 27/41/4 29/2/4
f 31/1/2 30/41/2 28/2/2
f 34/1/2 32/41/2 30/2/2
f 33/1/11 26/41/11 30/2/11
f 35/23/1 33/46/1 32/2/1
f 34/1/11 31/41/11 38/2/11
f 37/1/2 36/41/2 38/2/2
f 31/1/11 29/41/11 39/2/11
f 40/1/2 38/41/2 39/2/2
f 40/1/11 41/41/11 43/2/11
f 37/1/11 40/41/11 42/2/11
f 44/1/2 42/41/2 43/2/2
f 46/1/2 45/41/2 42/2/2
f 46/1/11 44/41/11 55/2/11
f 46/25/12 47/32/12 103/26/12
f 49/25/12 52/32/12 47/26/12
f 49/28/4 53/47/4 68/29/4
f 53/1/2 49/41/2 54/2/2
f 49/1/2 48/41/2 55/2/2
f 54/1/2 55/41/2 79/2/2
f 57/1/2 54/41/2 56/2/2
f 57/24/11 58/48/11 62/2/11
f 53/24/11 57/48/11 59/2/11
f 60/1/2 59/41/2 62/2/2
f 69/13/2 61/44/2 59/14/2
f 64/28/1 62/47/1 63/29/1
f 60/28/11 64/47/11 65/29/11
f 69/28/11 60/47/11 66/29/11
f 61/28/4 69/47/4 67/29/4
f 58/28/1 56/47/1 70/29/1
f 70/1/3 71/41/3 108/2/3
f 73/1/3 74/41/3 71/2/3
f 75/31/1 76/37/1 80/2/1
f 77/32/13 41/26/13 76/27/13
f 56/32/13 77/26/13 75/27/13
f 44/1/11 77/41/11 79/2/11
f 76/31/1 81/37/1 82/2/1
f 41/19/14 27/45/14 81/20/14
f 81/31/1 25/37/1 84/2/1
f 80/1/3 82/41/3 83/2/3
f 82/1/3 84/41/3 86/2/3
f 25/31/1 23/37/1 85/2/1
f 84/1/3 85/41/3 87/2/3
f 86/1/3 87/41/3 91/2/3
f 83/1/3 86/41/3 88/2/3
f 90/1/3 88/41/3 89/2/3
f 88/1/3 91/41/3 93/2/3
f 87/1/3 114/41/3 14/2/3
f 91/33/15 14/49/15 10/18/15
f 89/33/6 92/49/6 94/18/6
f 92/34/3 10/50/3 95/35/3
f 110/31/4 96/37/4 94/2/4
f 94/3/4 96/31/4 98/37/4
f 98/31/4 102/37/4 99/2/4
f 101/1/3 89/41/3 97/2/3
f 99/3/4 102/31/4 103/37/4
f 104/1/3 101/41/3 99/2/3
f 102/19/16 98/45/16 33/20/16
f 37/25/17 103/32/17 102/26/17
f 100/3/4 103/31/4 47/37/4
f 105/1/3 90/41/3 101/2/3
f 108/1/3 105/41/3 104/2/3
f 106/1/3 104/41/3 100/2/3
f 51/1/3 106/41/3 107/2/3
f 72/1/3 108/41/3 106/2/3
f 71/1/3 109/41/3 105/2/3
f 109/1/3 83/41/3 90/2/3
f 74/1/3 80/41/3 109/2/3
f 98/19/16 96/45/16 111/20/16
f 96/19/16 110/45/16 18/20/16
f 33/1/2 111/41/2 19/2/2
f 110/19/16 112/45/16 8/20/16
f 85/1/3 115/41/3 114/2/3
f 115/1/6 116/41/6 13/2/6
f 23/38/1 21/51/1 115/39/1
