# Blender 5.1.2
# www.blender.org
mtllib room11.mtl
o 01-Caves.011
v 19.956879 38.424648 180.087341
v 19.956879 13.424646 180.087341
v 19.956879 38.424648 190.087341
v 29.956879 38.424648 180.087341
v 19.956879 33.424648 180.087341
v 29.956879 33.424648 180.087341
v 39.956879 33.424648 180.087341
v 39.956879 38.424648 180.087341
v 39.956879 13.424646 180.087341
v 39.956879 38.424648 190.087341
v 39.956879 13.424647 190.087341
v 39.956879 38.424648 200.087341
v 29.956879 38.424648 190.087341
v 29.956879 38.424648 200.087341
v 19.956879 38.424648 200.087341
v 29.956879 38.424648 210.087341
v 19.956879 38.424648 210.087341
v 29.956879 38.424648 220.087341
v 39.956879 38.424648 210.087341
v 39.956879 13.424649 210.087341
v 39.956879 38.424648 220.087341
v 39.956879 13.424649 220.087341
v 39.956879 38.424652 230.087341
v 39.956879 13.424650 230.087341
v 39.956879 38.424652 240.087341
v 29.956879 38.424652 230.087341
v 19.956879 38.424652 230.087341
v 29.956879 38.424652 240.087341
v 19.956879 38.424652 240.087341
v 19.956879 13.424651 240.087341
v 19.956879 13.424650 230.087341
v 29.956879 13.424651 240.087341
v 19.956879 18.424652 240.087341
v 29.956879 18.424652 240.087341
v 39.956879 18.424652 240.087341
v 39.956879 13.424651 240.087341
v 29.956879 13.424650 230.087341
v 29.956879 13.424649 220.087341
v 29.956879 13.424649 210.087341
v 19.956879 13.424649 220.087341
v 19.956879 38.424648 220.087341
v 19.956879 13.424649 210.087341
v 19.956879 13.424648 200.087341
v 19.956879 13.424647 190.087341
v 29.956879 13.424648 200.087341
v 29.956879 13.424647 190.087341
v 39.956879 13.424648 200.087341
v 29.956879 13.424646 180.087341
vn 1.0000 -0.0000 -0.0000
vn -0.0000 -1.0000 -0.0000
vn -0.0000 -0.0000 1.0000
vn -1.0000 -0.0000 -0.0000
vn -0.0000 1.0000 -0.0000
vn -0.0000 -0.0000 -1.0000
vt 0.001961 0.627451
vt 0.121569 0.747059
vt 0.001961 0.747059
vt 0.752941 0.878431
vt 0.872549 0.998039
vt 0.752941 0.998039
vt 0.252941 0.721568
vt 0.372549 0.747059
vt 0.252941 0.747059
vt 0.127451 0.627451
vt 0.247059 0.747059
vt 0.127451 0.747059
vt 0.252941 0.627451
vt 0.378431 0.627451
vt 0.498039 0.747059
vt 0.378431 0.747059
vt 0.378431 0.721568
vt 0.121569 0.627451
vt 0.872549 0.878431
vt 0.372549 0.721568
vt 0.247059 0.627451
vt 0.372549 0.627451
vt 0.498039 0.627451
vt 0.498039 0.721568
s 0
usemtl Material.001
f 1/1/1 44/2/1 2/3/1
f 13/4/2 1/5/2 4/6/2
f 4/7/3 5/8/3 6/9/3
f 8/7/3 6/8/3 7/9/3
f 10/10/4 9/11/4 11/12/4
f 10/4/2 4/5/2 8/6/2
f 12/13/4 11/8/4 47/9/4
f 12/4/2 13/5/2 10/6/2
f 14/4/2 3/5/2 13/6/2
f 16/4/2 15/5/2 14/6/2
f 19/4/2 14/5/2 12/6/2
f 18/4/2 17/5/2 16/6/2
f 21/4/2 16/5/2 19/6/2
f 19/14/4 47/15/4 20/16/4
f 21/13/4 20/8/4 22/9/4
f 23/10/4 22/11/4 24/12/4
f 23/4/2 18/5/2 21/6/2
f 25/1/4 24/2/4 36/3/4
f 25/4/2 26/5/2 23/6/2
f 28/4/2 27/5/2 26/6/2
f 26/4/2 41/5/2 18/6/2
f 27/10/1 30/11/1 31/12/1
f 37/4/5 30/5/5 32/6/5
f 33/7/6 32/8/6 30/9/6
f 34/17/6 36/15/6 32/16/6
f 24/4/5 32/5/5 36/6/5
f 22/4/5 37/5/5 24/6/5
f 38/4/5 31/5/5 37/6/5
f 20/4/5 38/5/5 22/6/5
f 39/4/5 40/5/5 38/6/5
f 41/1/1 31/2/1 40/3/1
f 17/14/1 40/15/1 42/16/1
f 15/13/1 42/8/1 43/9/1
f 45/4/5 42/5/5 39/6/5
f 3/10/1 43/11/1 44/12/1
f 46/4/5 43/5/5 45/6/5
f 11/4/5 45/5/5 47/6/5
f 47/4/5 39/5/5 20/6/5
f 9/4/5 46/5/5 11/6/5
f 48/4/5 44/5/5 46/6/5
f 1/1/1 3/18/1 44/2/1
f 13/4/2 3/19/2 1/5/2
f 4/7/3 1/20/3 5/8/3
f 8/7/3 4/20/3 6/8/3
f 10/10/4 8/21/4 9/11/4
f 10/4/2 13/19/2 4/5/2
f 12/13/4 10/22/4 11/8/4
f 12/4/2 14/19/2 13/5/2
f 14/4/2 15/19/2 3/5/2
f 16/4/2 17/19/2 15/5/2
f 19/4/2 16/19/2 14/5/2
f 18/4/2 41/19/2 17/5/2
f 21/4/2 18/19/2 16/5/2
f 19/14/4 12/23/4 47/15/4
f 21/13/4 19/22/4 20/8/4
f 23/10/4 21/21/4 22/11/4
f 23/4/2 26/19/2 18/5/2
f 25/1/4 23/18/4 24/2/4
f 25/4/2 28/19/2 26/5/2
f 28/4/2 29/19/2 27/5/2
f 26/4/2 27/19/2 41/5/2
f 27/10/1 29/21/1 30/11/1
f 37/4/5 31/19/5 30/5/5
f 33/7/6 34/20/6 32/8/6
f 34/17/6 35/24/6 36/15/6
f 24/4/5 37/19/5 32/5/5
f 22/4/5 38/19/5 37/5/5
f 38/4/5 40/19/5 31/5/5
f 20/4/5 39/19/5 38/5/5
f 39/4/5 42/19/5 40/5/5
f 41/1/1 27/18/1 31/2/1
f 17/14/1 41/23/1 40/15/1
f 15/13/1 17/22/1 42/8/1
f 45/4/5 43/19/5 42/5/5
f 3/10/1 15/21/1 43/11/1
f 46/4/5 44/19/5 43/5/5
f 11/4/5 46/19/5 45/5/5
f 47/4/5 45/19/5 39/5/5
f 9/4/5 48/19/5 46/5/5
f 48/4/5 2/19/5 44/5/5
